<?xml version="1.0" encoding="utf-8"?>
<!-- Generator: Adobe Illustrator 18.1.0, SVG Export Plug-In . SVG Version: 6.00 Build 0)  -->
<svg version="1.1" id="Layer_1" xmlns="http://www.w3.org/2000/svg" xmlns:xlink="http://www.w3.org/1999/xlink" x="0px" y="0px"
	 viewBox="0 0 326 151" enable-background="new 0 0 326 151" xml:space="preserve">
<g id="LOGO">
	<g>
		<path fill="#FFFFFF" d="M61.6,90.6c1.1-5.2,8.9-41,8.5-51.1c0,0-5.5-4.4-9.1-4.3c0,0-2.6-0.6-2.7,2.5c0,0-0.3,9-1.3,13.6
			c-1,4.5-9.2,49.1-9.2,49.1s6.4,4.9,8.4,4.5C58.1,104.5,60.5,95.7,61.6,90.6z M139.1,31.1C125.4-10,27.2,5,27.2,5s-4.2,0.3-3.9,2
			c0,0,2.6,11.2,11.9,9.9c72.7-10.2,93.1,6.2,94,17.4c1.1,13.9-14,46.5-128.2,109.1c0,0-2.5,1.5,0.3,5.1c2.8,3.6,9.5,3.8,20-2.5
			C31.9,139.7,152.1,70.3,139.1,31.1z M214.7,72.3c0,0-3.3-22.8-1.7-33.8c1.5-10.7,6.6-17.3,6.6-17.3c-3.6-1.5-6.5-0.8-6.5-0.8
			c-14.2,5.6-11.8,35-11.8,35c-7.6-13.2-12.9-17.8-12.9-17.8c-9.9,1.7-10.9,9.3-10.9,9.3c-0.6,2.6-1,5.1-1.4,7.6l-10.7,5
			c-0.8-8.2-0.3-16.3,0.9-21c2.3-9.2,1-11.2-5.1-9.3c-6.1,1.9-6.6,6.1-6.6,6.1c-0.8,7-9.3,20.1-15.5,28.8
			c-6.2,8.7-23.1,26.4-23.1,26.4s-3.2,2.5,2.4,5.5c5.6,3,9.5-2,9.5-2c2.1-2.1,5.4-6.4,8.9-11.3c5.9-3.2,12.9-6.7,19.5-9.9
			c1.7,6.6,3.7,11.8,5.3,14.8c2.7,5.2,6.3,3.2,10.2,0.3c3.9-2.9,0.1-7.6,0.1-7.6c-2.4-3.3-4-7.7-5.1-12.5c3.3-1.6,6.2-2.9,8.3-3.9
			c-0.9,10.6-0.4,18.2-0.4,18.2c0.1,6.5,6.1,3.2,9.6-0.1c3.5-3.3,2.2-7.3,2.2-7.3c-1.2-7.5-0.4-17.4-0.4-17.4s12.7,16.8,15.5,20.4
			c2.8,3.6,7.5,1.6,10.5-0.4C215.2,75.1,214.7,72.3,214.7,72.3z M146.6,68.1c4.1-6.2,7.1-11,7.1-11c0.2,2.5,0.5,5,0.9,7.3
			L146.6,68.1z M326,4.9c-0.3-2.8-0.6-5.6-4-4.7c-3.5,0.9-51.8,15-71.7,31.3c0,0-1.6,1.2-2.6,3.8c-1,2.6-1.7,9,2.3,6.3
			c0,0,0.7-0.6,2.2-1.6c-0.2,0.4-0.3,0.7-0.3,0.7s-1.3,4.8-1.4,10.6c-3.1,2.2-6,4.4-8.4,6.3c-9.5,7.6-12,0.8-12.2-8.2
			c-0.3-20.2,6.8-20.7,9.5-21.7c1.9-0.7,9-2.5,9-2.5c2.2-0.6,2.4-0.8,2.1-3.5c-0.4-2.8-2.6-2.9-2.6-2.9
			c-23.7-1.5-29.6,12.7-29.2,35.9c0.3,15.4,12.2,24.8,27.2,11.3c1.9-1.7,4-3.4,6.1-5c1.2,3.1,3.2,5.9,6.4,7.8
			c12.4,7,20.6-6.3,38.4-8.7c0,0,2-0.1,1.9-4c0-3.8-8.5-1.7-15-0.1c-4.8,1.3-17,7.9-19.7-3.3c11.2-6.9,21.7-11.6,23.4-12.2
			c2.7-0.8,4.2-1.9,3.9-4.5c-0.3-2.5-1.8-2.4-1.8-2.4c-7.8,0.5-17,4.3-25.7,9.2c0.3-2.8,0.9-6,1.8-9.8c0,0,0.2-0.6,0.4-1.3
			c11.7-6.2,30.1-14.7,56.5-23.3C322.7,8.5,326.3,7.7,326,4.9z M130.7,123.9l-8.1-9.7H120v14.4h3V119l8.1,9.7h2.6v-14.4h-3V123.9z
			 M143.9,128.6h11.4V126h-8.6v-3.5h7V120h-7v-3.1h8.6v-2.6h-11.4V128.6z M163.3,116.8h4.8v11.8h3v-11.8h4.6v-2.6h-12.3V116.8z
			 M198.2,124.8l-3.9-10.6h-3.2l1.8,4.7l-2.7,6.4l-4.2-11.1h-3.2l5.6,14.4h3.2l2.6-6.2l2.4,6.2h3.2l5.8-14.4h-3.3L198.2,124.8z
			 M220.2,114c-4.2,0-7.4,3.2-7.4,7.4c0,4.2,3.2,7.4,7.4,7.4c4.3,0,7.5-3.2,7.5-7.4C227.7,117.2,224.5,114,220.2,114z M220.2,126.1
			c-2.6,0-4.5-2-4.5-4.6c0-2.6,1.9-4.6,4.5-4.6c2.7,0,4.5,2,4.5,4.6C224.8,124.1,222.9,126.1,220.2,126.1z M249.1,118.9
			c0-3.2-2.2-4.7-5.8-4.7H237v14.4h3v-5.2h1.8l4.8,5.2h3.3v-0.5l-4.6-4.8C247.5,122.9,249.1,121.2,249.1,118.9z M240,121.1v-4.3h3.7
			c1.4,0,2.3,0.7,2.3,2.2c0,1.3-1,2.1-2.3,2.1H240z M270.9,114.7v-0.4h-3.1l-4.6,6h-1.6v-6h-3v14.4h3v-5.8h1.6l4.7,5.8h3.5v-0.4
			l-5.7-6.8L270.9,114.7z"/>
	</g>
</g>
</svg>
