<?xml version="1.0" encoding="utf-8"?>
<!-- Generator: Adobe Illustrator 18.1.0, SVG Export Plug-In . SVG Version: 6.00 Build 0)  -->
<svg version="1.1" id="Layer_1" xmlns="http://www.w3.org/2000/svg" xmlns:xlink="http://www.w3.org/1999/xlink" x="0px" y="0px"
	 width="48px" height="48px" viewBox="-24 127 48 48" enable-background="new -24 127 48 48" xml:space="preserve">
<path fill="#616161" d="M0.1,127l-9.6,9.6v-3.9h-7.7v11.5l-6.8,6.8l1.4,1.4l22.7-22.7l22.6,22.7l1.4-1.4C24,150.9,0.1,127,0.1,127z
	 M-11.4,138.5l-3.8,3.8v-7.7h3.8V138.5z M-17.1,151.9v23h13.4v-13.4H4v13.4h13.4v-23L0.1,134.6L-17.1,151.9z M15.3,173H5.7v-13.4
	H-5.6V173h-9.6v-20.4l15.3-15.3l15.3,15.3V173L15.3,173z"/>
</svg>
