<?xml version="1.0" encoding="utf-8"?>
<!-- Generator: Adobe Illustrator 18.1.0, SVG Export Plug-In . SVG Version: 6.00 Build 0)  -->
<svg version="1.1" id="Layer_1" xmlns="http://www.w3.org/2000/svg" xmlns:xlink="http://www.w3.org/1999/xlink" x="0px" y="0px"
	 width="48px" height="48px" viewBox="-24 127 48 48" enable-background="new -24 127 48 48" xml:space="preserve">
<path fill="#616161" d="M0,129.4c5.5,0,11.1,4.8,11.1,8.1v7.5c0,3.2-1.3,8.7-4.7,11.5c-0.7,0.5-1,1.3-0.9,2.2
	c0.1,0.9,0.6,1.6,1.4,1.9l13.1,6.2l0.1,0.1c0.5,0.2,1.3,0.7,1.5,1v4.2c0,0.3-0.3,0.6-0.6,0.6h-42.1c-0.3,0-0.6-0.3-0.6-0.6v-4.3
	c0.3-0.3,1-0.8,1.6-1.1l13.2-6.2c0.8-0.4,1.3-1.1,1.4-1.9c0.1-0.8-0.2-1.7-0.9-2.2c-3.3-2.7-4.8-8.3-4.8-11.4v-7.5
	C-11.1,134.1-5.6,129.4,0,129.4 M0,127c-6.6,0-13.6,5.5-13.6,10.5v7.5c0,3.3,1.5,9.9,5.7,13.3l-13.2,6.2c0,0-3,1.4-3,3v4.6
	c0,1.7,1.4,3,3,3H21c1.7,0,3-1.4,3-3v-4.6c0-1.8-3-3-3-3l-13.2-6.1c4.2-3.3,5.5-9.7,5.5-13.4v-7.5C13.5,132.5,6.6,127,0,127z"/>
</svg>
