<?xml version="1.0" encoding="utf-8"?>
<!-- Generator: Adobe Illustrator 18.1.0, SVG Export Plug-In . SVG Version: 6.00 Build 0)  -->
<svg version="1.1" id="Layer_1" xmlns="http://www.w3.org/2000/svg" xmlns:xlink="http://www.w3.org/1999/xlink" x="0px" y="0px"
	 width="60px" height="37px" viewBox="-30 132.5 60 37" enable-background="new -30 132.5 60 37" xml:space="preserve">
<path fill="#616161" d="M24.5,136.8l-13.8,8.3v-9.3c0-1.8-1.4-3.3-3.3-3.3h-34.1c-1.8,0-3.3,1.4-3.3,3.3v29.9c0,1.8,1.4,3.3,3.3,3.3
	H7.5c1.8,0,3.3-1.4,3.3-3.3v-9.6l14.1,8.4H30v-27.8H24.5z M8.6,165.7c0,0.6-0.5,1.1-1,1.1h-34.3c-0.6,0-1.1-0.5-1.1-1.1v-29.9
	c0-0.6,0.5-1.1,1.1-1.1H7.5c0.6,0,1,0.5,1,1.1v29.9H8.6z M27.9,162.6h-2.5l-14.7-8.8v-6.2l14.3-8.7h2.8
	C27.9,138.9,27.9,162.6,27.9,162.6z"/>
</svg>
