<?xml version="1.0" encoding="utf-8"?>
<!-- Generator: Adobe Illustrator 18.1.0, SVG Export Plug-In . SVG Version: 6.00 Build 0)  -->
<svg version="1.1" id="Layer_1" xmlns="http://www.w3.org/2000/svg" xmlns:xlink="http://www.w3.org/1999/xlink" x="0px" y="0px"
	 viewBox="0 0 415 275.6" enable-background="new 0 0 415 275.6" xml:space="preserve">
<g>
	<path fill="#E8E8E8" d="M108,254.9c-50.7,0-108-57.7-108-127.3S57.3,0.3,108,0.3c50.7,0,108,57.7,108,127.3S158.7,254.9,108,254.9z
		 M108,1C74.1,1,61.2,29,61.2,127.6c0,98.6,12.9,126.6,46.8,126.6c33.9,0,46.8-28,46.8-126.6C154.9,29,141.9,1,108,1z"/>
	<path fill="#E8E8E8" d="M230.7,250v-0.7h28V50h-34.3v-0.7C263.9,43,297.5,24.1,315.3,0h0.7v249.3h28v0.7H230.7z"/>
</g>
<g display="none">
	<path display="inline" fill="#E8E8E8" d="M108.2,254.8C57.4,254.8,0,197.1,0,127.4S57.4,0,108.2,0s108.2,57.8,108.2,127.4
		S158.9,254.8,108.2,254.8z M108.2,0.7c-34,0-46.9,28-46.9,126.7c0,98.7,13,126.7,46.9,126.7c34,0,46.9-28,46.9-126.7
		C155.1,28.7,142.1,0.7,108.2,0.7z"/>
	<path display="inline" fill="#E8E8E8" d="M399.4,69.3c0,48-33.6,63.7-82.3,81.9c-39.6,14.7-79.6,11.9-84,81.9
		c10.5-35.7,30.5-48,54.3-48c36.1,0,49.7,26.6,79.8,26.6c17.5,0,36.1-8.1,36.1-34.3v-1.4h0.7v4.2c0,38.5-20.7,74.6-56.4,74.6
		c-47.6,0-53.2-35.7-85.8-34.7c-17.5,0.5-29.1,12.3-29.1,29.8H232v-5.2c0-66.5,27.7-74.6,67.6-104.7c36.8-27.7,40.6-50.8,40.6-78.4
		c0-36.8-12.6-57.8-40.3-57.8c-30.5,0-60.9,18.9-63.7,50.1c3.5-12.6,15-22,28.7-22c16.5,0,29.8,13.3,29.8,29.8
		c0,16.5-13.3,29.8-29.8,29.8c-19.6,0-29.8-15.4-29.8-32.2c0-34,31.2-59.2,79.8-59.2C360.9,0,399.4,32.6,399.4,69.3z"/>
</g>
<g display="none">
	<path display="inline" fill="#E8E8E8" d="M108.2,254.8C57.4,254.8,0,197.1,0,127.4S57.4,0,108.2,0c50.8,0,108.2,57.8,108.2,127.4
		S158.9,254.8,108.2,254.8z M108.2,0.7c-34,0-46.9,28-46.9,126.7c0,98.7,13,126.7,46.9,126.7c34,0,46.9-28,46.9-126.7
		C155.1,28.7,142.1,0.7,108.2,0.7z"/>
	<path display="inline" fill="#E8E8E8" d="M232,205.8c0-16.8,10.2-32.2,29.8-32.2c16.5,0,29.8,13.3,29.8,29.8s-13.3,29.8-29.8,29.8
		c-13.7,0-25.2-9.4-28.7-22c4.2,31.2,38.5,42.4,72.8,42.4c27,0,39.9-19.2,39.9-72.8c0-43.1-12.2-61.6-40.3-61.6h-24.5v-0.7h24.5
		c31.9,0,42.7-15.4,42.7-61.6c0-25.9-5.6-54.3-39.2-54.3c-29.8,0-60.6,20.7-63,51.8c3.5-12.6,15.1-22.1,28.7-22.1
		c16.5,0,29.8,13.3,29.8,29.8s-13.3,29.8-29.8,29.8c-19.6,0-29.8-15.4-29.8-32.2c0-34,30.8-59.5,72.8-59.5
		c36.8,0,79.1,17.2,79.1,60.6c0,30.8-27.3,55.7-57.8,58.1c35.4,2.8,65.8,24.8,65.8,63.4c0,49-46.6,72.8-95.6,72.8
		C267.4,254.8,232,239.8,232,205.8z"/>
</g>
<g display="none">
	<path display="inline" fill="#E8E8E8" d="M108.2,262.2C57.4,262.2,0,204.4,0,134.8S57.4,7.4,108.2,7.4
		c50.8,0,108.2,57.8,108.2,127.4S158.9,262.2,108.2,262.2z M108.2,8.1c-34,0-46.9,28-46.9,126.7c0,98.7,13,126.7,46.9,126.7
		c34,0,46.9-28,46.9-126.7C155.1,36.1,142.1,8.1,108.2,8.1z"/>
	<path display="inline" fill="#E8E8E8" d="M412.7,163.5l-10.9,34.3h-20v58.8h28v0.7H296.5v-0.7h28v-58.8H225L381.9,0v172.6H392
		c14.7,0,20.1-9.6,20.1-9.6L412.7,163.5z M324.5,73.7l-78.4,98.9h78.4V73.7z"/>
</g>
<g display="none">
	<path display="inline" fill="#E8E8E8" d="M108.2,254.8C57.4,254.8,0,197.1,0,127.4S57.4,0,108.2,0c50.8,0,108.2,57.8,108.2,127.4
		S158.9,254.8,108.2,254.8z M108.2,0.7c-34,0-46.9,28-46.9,126.7c0,98.7,13,126.7,46.9,126.7c34,0,46.9-28,46.9-126.7
		C155.1,28.7,142.1,0.7,108.2,0.7z"/>
	<path display="inline" fill="#E8E8E8" d="M354.2,172.2c0-41-16.5-71.8-52.9-71.8c-23.8,0-43.2,13.1-50.4,34h-0.5
		c6.6-41.7,10-84,10-127.1c0.7,0,17.9-7.3,42.4-7.3c34,0,41,14.7,71.8,14.7c14.4,0,24.7-5.1,25.2-12.6h0.7c0,1.1-1.8,61.6-57.8,61.6
		c-20,0-28.7-7-46.9-7c-33.3,0-38.9,41.3-44.1,74c7.9-21.5,33.8-35.5,66.2-35.5c53.4,0,91,32.9,91,79.8c0,53.6-48.3,79.8-95.2,79.8
		c-42,0-79.8-15.1-79.8-49c0-16.8,10.2-32.2,29.8-32.2c16.5,0,29.8,13.3,29.8,29.8s-13.3,29.8-29.8,29.8c-13.6,0-25.2-9.4-28.7-22
		c3.9,31.3,43.6,42.2,69.3,42.2C351.2,253.2,354.2,210,354.2,172.2z"/>
</g>
</svg>
