<?xml version="1.0" encoding="utf-8"?>
<!-- Generator: Adobe Illustrator 18.1.0, SVG Export Plug-In . SVG Version: 6.00 Build 0)  -->
<svg version="1.1" id="Layer_1" xmlns="http://www.w3.org/2000/svg" xmlns:xlink="http://www.w3.org/1999/xlink" x="0px" y="0px"
	 viewBox="0 0 13 27" enable-background="new 0 0 13 27" xml:space="preserve">
<path fill="#B4BBC2" d="M12.3,4.6c-1.1,0-2.4,0-3,0c-0.6,0-1.2,0.6-1.2,1.1c0,0.5,0,3,0,3s3.7,0,4.1,0c-0.2,2.3-0.5,4.5-0.5,4.5H8.1
	v13.2H2.6V13.2H0V8.8h2.6c0,0,0-3,0-3.6S2.5,0,8.2,0c0.8,0,2.5,0,4,0C12.3,1.9,12.3,4,12.3,4.6z"/>
</svg>
