<?xml version="1.0" encoding="utf-8"?>
<!-- Generator: Adobe Illustrator 18.1.0, SVG Export Plug-In . SVG Version: 6.00 Build 0)  -->
<svg version="1.1" id="Layer_1" xmlns="http://www.w3.org/2000/svg" xmlns:xlink="http://www.w3.org/1999/xlink" x="0px" y="0px"
	 viewBox="0 0 27 27" enable-background="new 0 0 27 27" xml:space="preserve">
<path fill-rule="evenodd" clip-rule="evenodd" fill="#B4BBC2" d="M3.5,0h20.1C25.4,0,27,1.6,27,3.5v20.1c0,1.9-1.6,3.5-3.5,3.5H3.5
	C1.6,27,0,25.4,0,23.5V3.5C0,1.6,1.6,0,3.5,0L3.5,0z M19.7,3c-0.7,0-1.2,0.5-1.2,1.2v2.9c0,0.7,0.5,1.2,1.2,1.2h3.1
	c0.7,0,1.2-0.5,1.2-1.2V4.2c0-0.7-0.5-1.2-1.2-1.2H19.7L19.7,3z M23.9,11.4h-2.4c0.2,0.7,0.3,1.5,0.3,2.3c0,4.5-3.8,8.1-8.4,8.1
	c-4.6,0-8.4-3.6-8.4-8.1c0-0.8,0.1-1.6,0.3-2.3H3v11.4c0,0.6,0.5,1.1,1.1,1.1h18.8c0.6,0,1.1-0.5,1.1-1.1V11.4L23.9,11.4z M13.5,8.2
	c-3,0-5.4,2.4-5.4,5.3c0,2.9,2.4,5.3,5.4,5.3c3,0,5.4-2.4,5.4-5.3C18.9,10.5,16.5,8.2,13.5,8.2z"/>
</svg>
