<?xml version="1.0" encoding="utf-8"?>
<!-- Generator: Adobe Illustrator 18.1.0, SVG Export Plug-In . SVG Version: 6.00 Build 0)  -->
<svg version="1.1" id="Layer_1" xmlns="http://www.w3.org/2000/svg" xmlns:xlink="http://www.w3.org/1999/xlink" x="0px" y="0px"
	 viewBox="0 0 27 27" enable-background="new 0 0 27 27" xml:space="preserve">
<path fill="#B4BBC2" d="M13.5,0C6,0,0,6,0,13.5C0,19,3.3,23.8,8.1,25.9c0-0.9,0-2.1,0.2-3.1c0.3-1.1,1.7-7.4,1.7-7.4
	s-0.4-0.9-0.4-2.1c0-2,1.2-3.5,2.6-3.5c1.2,0,1.8,0.9,1.8,2c0,1.2-0.8,3.1-1.2,4.8c-0.3,1.4,0.7,2.6,2.1,2.6c2.6,0,4.3-3.3,4.3-7.2
	c0-3-2-5.2-5.6-5.2C9.6,6.8,7,9.9,7,13.3c0,1.2,0.3,2,0.9,2.6c0.2,0.3,0.3,0.4,0.2,0.8C8,17,7.9,17.6,7.8,17.8
	c-0.1,0.3-0.4,0.5-0.7,0.3c-1.9-0.8-2.8-2.8-2.8-5.2c0-3.8,3.2-8.4,9.6-8.4c5.2,0,8.5,3.7,8.5,7.7c0,5.3-2.9,9.3-7.3,9.3
	c-1.5,0-2.8-0.8-3.3-1.7c0,0-0.8,3.1-0.9,3.7c-0.3,1-0.8,2.1-1.4,2.9c1.2,0.4,2.5,0.6,3.8,0.6C21,27,27,21,27,13.5C27,6,21,0,13.5,0
	"/>
</svg>
