<?xml version="1.0" encoding="utf-8"?>
<!-- Generator: Adobe Illustrator 18.1.0, SVG Export Plug-In . SVG Version: 6.00 Build 0)  -->
<svg version="1.1" id="Layer_1" xmlns="http://www.w3.org/2000/svg" xmlns:xlink="http://www.w3.org/1999/xlink" x="0px" y="0px"
	 viewBox="0 0 39 27" enable-background="new 0 0 39 27" xml:space="preserve">
<path fill="#B4BBC2" d="M33.9,14C30.7,26.7,9.7,32.1,0,18.9c3.7,3.5,10.2,3.9,14.3-0.4c-2.4,0.4-4.1-2-1.2-3.3
	c-2.7,0.3-4.1-1.1-4.7-2.3c0.6-0.7,1.3-1,2.6-1C8.1,11.2,7,9.7,6.7,8C7.5,7.8,8.5,7.7,9,7.7C6.5,6.4,5.6,4.4,5.7,2.9
	c4.5,1.7,7.4,3,9.9,4.3c0.9,0.5,1.8,1.3,2.9,2.3c1.4-3.7,3.1-7.4,6-9.3c0,0.4-0.3,0.8-0.6,1.1c0.8-0.8,1.9-1.3,3-1.4
	c-0.1,0.8-1.3,1.3-2,1.6c0.5-0.2,3.4-1.5,3.7-0.7c0.4,0.8-2,1.2-2.4,1.4c-0.3,0.1-0.6,0.2-0.9,0.3c3.6-0.4,7.1,2.6,8.1,6.4
	c0.1,0.3,0.1,0.6,0.2,0.9c1.3,0.5,3.8,0,4.5-0.5c-0.6,1.3-2,2.3-4.2,2.5c1,0.4,3,0.7,4.4,0.4C37.6,13.1,36.2,14,33.9,14z"/>
</svg>
