<?xml version="1.0" encoding="utf-8"?>
<!-- Generator: Adobe Illustrator 18.1.0, SVG Export Plug-In . SVG Version: 6.00 Build 0)  -->
<svg version="1.1" id="Layer_1" xmlns="http://www.w3.org/2000/svg" xmlns:xlink="http://www.w3.org/1999/xlink" x="0px" y="0px"
	 viewBox="0 0 37 27" enable-background="new 0 0 37 27" xml:space="preserve">
<g id="Lozenge">
	<g>
		<path fill="#B4BBC2" d="M36.6,5.6c0,0-0.4-2.5-1.5-3.7c-1.4-1.5-3-1.5-3.7-1.6C26.3,0,18.5,0,18.5,0h0c0,0-7.8,0-12.9,0.4
			C4.8,0.5,3.2,0.5,1.8,1.9C0.7,3.1,0.4,5.6,0.4,5.6s-0.4,3-0.4,6v2.8c0,3,0.4,6,0.4,6s0.4,2.6,1.5,3.7c1.4,1.5,3.3,1.4,4.1,1.6
			c3,0.3,12.6,0.4,12.6,0.4s7.8,0,13-0.4c0.7-0.1,2.3-0.1,3.7-1.6c1.1-1.1,1.5-3.7,1.5-3.7s0.4-3,0.4-6v-2.8
			C37,8.6,36.6,5.6,36.6,5.6z M14.7,17.8l0-10.4l10,5.2L14.7,17.8z"/>
	</g>
</g>
</svg>
