<svg xmlns="http://www.w3.org/2000/svg" width="792" height="612"><g fill="#fff"><path d="M116.149 510.024c-.321 1.606-1.285 2.892-2.731 2.892-1.928 0-2.892-2.731-4.499-2.731-.803 0-1.606.643-1.767 2.089l-.964-.964c.161-1.446 1.125-2.731 2.57-2.731 1.928 0 3.213 2.731 4.659 2.731.964 0 1.446-.804 1.767-2.089l.965.803zM144.584 502.313l-7.39 10.603h-.482l-7.39-10.603v17.671h-2.088v-21.045h1.928l7.551 11.085 7.711-11.085h1.928v21.045h-1.767v-17.671zM160.97 519.984v-1.767c-.964.964-2.57 2.088-4.98 2.088-3.213 0-5.141-1.928-5.141-4.979 0-4.017 3.213-5.623 7.39-5.623.964 0 1.928.16 2.731.321v-.804c0-2.73-1.446-4.016-3.855-4.016-1.606 0-3.213.321-4.498 1.124l-.482-1.767c1.446-.643 3.534-1.125 5.141-1.125 3.534 0 5.623 2.089 5.623 5.783v10.604h-1.928v.161zm-4.337-1.285c2.088 0 3.534-1.124 4.337-2.088v-4.98c-.643-.161-1.767-.321-2.731-.321-3.052 0-5.462 1.124-5.462 4.017.161 2.087 1.607 3.372 3.856 3.372zM170.931 515.647c0 2.088.803 2.892 2.57 2.892 1.125 0 2.41-.482 3.213-1.285l.643 1.606c-1.125.803-2.57 1.445-4.337 1.445-2.41 0-4.016-1.285-4.016-4.498v-10.281h-2.731v-1.606h2.731l.161-4.177h1.606v4.177h5.623v1.606h-5.623v10.121h.16zM189.566 519.984v-1.767c-.964.964-2.57 2.088-4.98 2.088-3.213 0-5.141-1.928-5.141-4.979 0-4.017 3.213-5.623 7.39-5.623.964 0 1.928.16 2.731.321v-.804c0-2.73-1.446-4.016-3.855-4.016-1.606 0-3.213.321-4.499 1.124l-.482-1.767c1.446-.643 3.535-1.125 5.141-1.125 3.534 0 5.623 2.089 5.623 5.783v10.604h-1.928v.161zm-4.337-1.285c2.088 0 3.534-1.124 4.337-2.088v-4.98c-.643-.161-1.767-.321-2.731-.321-3.052 0-5.462 1.124-5.462 4.017.161 2.087 1.606 3.372 3.856 3.372zM217.519 510.346h-12.209v9.639h-2.088v-21.045h2.088v9.639h12.209v-9.639h2.088v21.045h-2.088v-9.639zM233.905 519.984v-1.767c-.964.964-2.571 2.088-4.98 2.088-3.213 0-5.141-1.928-5.141-4.979 0-4.017 3.213-5.623 7.39-5.623.964 0 1.928.16 2.731.321v-.804c0-2.73-1.446-4.016-3.856-4.016-1.606 0-3.213.321-4.498 1.124l-.482-1.767c1.446-.643 3.534-1.125 5.141-1.125 3.535 0 5.623 2.089 5.623 5.783v10.604h-1.928v.161zm-4.338-1.285c2.088 0 3.534-1.124 4.338-2.088v-4.98c-.643-.161-1.768-.321-2.731-.321-3.052 0-5.462 1.124-5.462 4.017.161 2.087 1.606 3.372 3.855 3.372zM240.974 519.984v-16.226h2.088v2.892c.803-2.088 1.928-3.213 3.855-3.213.964 0 1.928.321 2.571.964l-.482 1.768c-.643-.482-1.446-.804-2.249-.804-1.928 0-3.052 1.606-3.695 4.017v10.442h-2.088v.16zM253.665 497.976c.803 0 1.285.321 1.285 1.285s-.482 1.285-1.285 1.285-1.285-.321-1.285-1.285.482-1.285 1.285-1.285zm-.964 22.008v-16.226h1.928v16.226h-1.928z"/></g><path fill="#333" d="M384.913 428.415c17.511-12.21 22.17-27.472 22.491-34.7-6.587-.804-13.013-7.069-13.013-13.816 0-7.872 6.747-13.815 13.815-13.815 8.354 0 15.423 6.586 15.423 18.796 0 14.137-9.639 36.307-35.183 49.158l-3.533-5.623zm45.625 0c17.511-12.21 22.169-27.472 22.49-34.7-6.586-.804-13.013-7.069-13.013-13.816 0-7.872 6.748-13.815 13.816-13.815 8.354 0 15.422 6.586 15.422 18.796 0 14.137-9.639 36.307-35.182 49.158l-3.533-5.623z"/><g fill="#fff"><path d="M142.334 159.97l-2.367 19.278h-.161c.927-7.551-1.125-18.314-10.806-19.278l-5.957 48.516h6.104l-.02.161h-23.937l.02-.161h6.104l5.937-48.355c-9.898.803-14.593 11.566-15.54 19.278h-.161l2.367-19.278h38.395l.022-.161zM177.805 208.646h-19.92l.02-.161h3.213l3.373-27.471c.631-5.141.225-7.069-2.024-7.069-2.41 0-5.014 2.892-6.471 6.908l-3.393 27.631h3.213l-.02.161h-19.76l.02-.161h5.623l6.193-50.444h-5.623l.02-.161h16.708l-2.742 22.331c2.078-5.141 5.387-7.229 9.242-7.229 7.871 0 10.535 5.784 9.667 12.852l-2.801 22.812h5.462v.001zM192.165 191.136l-.237 1.928c-1.184 9.639-1.412 15.422 5.657 15.422 6.426 0 11.316-4.498 14.01-12.048h.161c-2.773 8.193-8.204 13.173-16.879 13.173-8.836 0-15.662-8.514-14.459-18.314 1.203-9.799 10.12-18.314 18.956-18.314 8.996 0 15.04 8.354 13.816 18.314h-21.045l.02-.161zm.572-4.659l-.572 4.659h8.996c1.913-15.583 1.566-17.993-1.968-17.993-4.498 0-5.45 5.141-6.456 13.334zM251.812 158.042h-5.623l.02-.161h16.707l-6.213 50.604h5.623l-.02.161h-16.708l.789-6.426c-2.077 5.141-5.405 7.39-9.261 7.39-6.747 0-12.547-7.711-11.246-18.314 1.302-10.603 8.996-18.314 15.743-18.314 3.855 0 6.651 2.088 7.466 7.229l2.723-22.169zm-2.8 22.812c-.471-4.017-2.365-6.908-4.774-6.908-3.213 0-4.752 3.374-5.995 13.495l-.947 7.711c-1.242 10.121-.532 13.494 2.681 13.494 2.41 0 5.014-2.892 6.471-6.908l2.564-20.884zM268.751 181.015c.958-2.57 3.746-4.338 6.316-4.338 3.213 0 5.629 2.571 5.215 5.944-.395 3.213-3.301 5.944-6.674 5.944-3.855 0-5.569-3.052-5.155-6.426.059-.482.138-1.125.578-2.088 2.539-4.98 8.739-7.069 12.756-7.069 10.281 0 15.614 4.98 14.727 12.209l-2.249 18.314c-.355 2.892.451 4.177 2.058 4.177.643 0 1.305-.161 1.666-.482 1.062-.803 1.42-2.41 1.621-2.731h.161c-.798 2.57-2.72 5.141-6.896 5.141-5.784 0-9.507-3.695-9.496-7.711-.676 2.892-3.356 7.711-10.746 7.711-5.784 0-9.005-3.855-8.394-8.835.69-5.623 5.442-8.997 10.219-9.96 3.614-.643 4.056-.321 6.043-.803 1.666-.482 3.128-1.928 4.611-3.534l.888-7.229c.513-4.177-1.198-5.944-5.053-5.944-4.822-.001-10.499 3.051-12.196 7.71zm16.339 5.623c-1.702 2.088-2.926 2.892-4.47 3.695-2.227 1.125-4.231 3.052-4.645 6.426l-.77 6.265c-.414 3.374-.33 5.301 1.759 5.301 3.213 0 5.975-4.177 6.271-6.586l1.855-15.101zM342.149 208.646h-19.92l.02-.161h3.213l3.373-27.471c.631-5.141.225-7.069-2.024-7.069-2.41 0-5.014 2.892-6.471 6.908l-3.393 27.631h3.213l-.02.161h-19.92l.02-.161h5.623l4.241-34.54h-5.623l.02-.161h16.707l-.789 6.426c2.077-5.141 5.386-7.229 9.242-7.229 7.871 0 10.535 5.784 9.667 12.852l-2.801 22.812h5.622v.002zM356.469 191.457c-.69 5.623-1.93 17.029 5.942 17.029 6.265 0 10.27-5.141 11.597-13.333h.16c-1.347 8.354-5.47 14.458-14.627 14.458-8.996 0-16.223-7.872-14.941-18.314 1.184-9.639 9.478-18.314 20.082-18.314 6.426 0 9.264 3.052 10.056 7.069.203.964.124 1.606.065 2.088-.415 3.374-2.877 6.426-6.733 6.426-3.213 0-5.628-2.57-5.214-5.944.395-3.213 3.3-5.944 6.673-5.944 2.57 0 4.744 1.928 5.09 4.338-.37-3.535-2.587-7.711-8.853-7.711-6.425-.001-8.054 8.031-9.297 18.152zM388.478 191.136l-.237 1.928c-1.184 9.639-1.41 15.422 5.658 15.422 6.426 0 11.315-4.498 14.01-12.048h.16c-2.772 8.193-8.204 13.173-16.879 13.173-8.836 0-15.662-8.514-14.459-18.314 1.203-9.799 10.121-18.314 18.957-18.314 8.996 0 15.039 8.354 13.816 18.314h-21.047l.021-.161zm.571-4.659l-.571 4.659h8.997c1.913-15.583 1.566-17.993-1.968-17.993-4.498 0-5.452 5.141-6.458 13.334zM419.582 208.646l5.643-.161 4.241-34.54h-5.623l.021-.161h16.707l-4.262 34.7h5.623l-.02.161h-22.33zm17.693-53.817c3.373 0 5.627 2.57 5.213 5.944-.414 3.374-3.28 5.783-6.653 5.783-3.374 0-5.468-2.57-5.073-5.783.394-3.213 3.3-5.944 6.513-5.944zM448.074 206.879c-1.447 0-3.03 1.125-3.647 3.534h-.161l2.17-17.671h.161c-.609 6.266 3.551 16.868 11.102 16.868 3.053 0 5.218-1.928 5.612-5.141 1.025-8.354-17.889-7.39-16.252-20.724.631-5.141 5.658-10.764 11.924-10.764 3.535 0 6.432 2.57 9.163 2.57.964 0 1.686-.643 1.923-2.57h.16l-1.717 13.977h-.16c.133-3.695-2.32-13.816-9.389-13.816-3.213 0-5.758 2.41-6.113 5.302-.927 7.55 18.771 6.747 17.113 20.242-.77 6.265-6.02 11.084-12.445 11.084-4.016.001-5.911-2.891-9.444-2.891zM488.52 181.015c.959-2.57 3.584-4.338 6.316-4.338 3.213 0 5.629 2.571 5.215 5.944-.395 3.213-3.301 5.944-6.675 5.944-3.855 0-5.569-3.052-5.155-6.426.059-.482.139-1.125.578-2.088 2.539-4.98 8.74-7.069 12.756-7.069 10.281 0 15.614 4.98 14.727 12.209l-2.248 18.314c-.355 2.892.451 4.177 2.057 4.177.643 0 1.305-.161 1.666-.482 1.062-.803 1.42-2.41 1.621-2.731h.16c-.798 2.57-2.72 5.141-6.896 5.141-5.783 0-9.508-3.695-9.496-7.711-.676 2.892-3.356 7.711-10.746 7.711-5.783 0-9.006-3.855-8.394-8.835.69-5.623 5.442-8.997 10.22-9.96 3.613-.643 4.055-.321 6.042-.803 1.665-.482 3.128-1.928 4.61-3.534l.889-7.229c.512-4.177-1.198-5.944-5.054-5.944-4.82-.001-10.497 3.051-12.193 7.71zm16.337 5.623c-1.701 2.088-2.926 2.892-4.469 3.695-2.227 1.125-4.23 3.052-4.645 6.426l-.77 6.265c-.414 3.374-.33 5.301 1.758 5.301 3.213 0 5.975-4.177 6.271-6.586l1.855-15.101zM545.326 224.711h5.623l-.021.161h-22.33l.021-.161h5.621l6.233-50.765h-5.622l.02-.161h16.707l-.789 6.426c2.078-5.141 5.387-7.229 9.242-7.229 6.748 0 12.547 7.711 11.246 18.314-1.303 10.603-8.996 18.314-15.744 18.314-3.855 0-6.65-2.088-7.446-7.39l-2.761 22.491zm2.84-23.133c.471 4.016 2.365 6.908 4.775 6.908 3.213 0 4.75-3.374 5.993-13.495l.946-7.711c1.243-10.121.533-13.495-2.68-13.495-2.41 0-5.014 2.892-6.471 6.908l-2.563 20.885zM589.27 209.61c-8.835 0-16.465-8.514-15.262-18.314 1.203-9.799 10.924-18.314 19.76-18.314s16.465 8.515 15.262 18.314c-1.344 9.64-10.925 18.314-19.76 18.314zm4.477-36.467c-5.462 0-6.628 8.193-7.851 18.153-1.223 9.96-2.069 18.153 3.393 18.153 5.463 0 6.629-8.193 7.852-18.153 1.223-9.96 1.908-18.153-3.394-18.153zM623.508 191.136l-.236 1.928c-1.184 9.639-1.412 15.422 5.656 15.422 6.426 0 11.315-4.498 14.01-12.048h.16c-2.772 8.193-8.203 13.173-16.879 13.173-8.835 0-15.662-8.514-14.459-18.314 1.203-9.799 10.121-18.314 18.957-18.314 8.996 0 15.039 8.354 13.816 18.314h-21.045l.02-.161zm.572-4.659l-.572 4.659h8.996c1.913-15.583 1.566-17.993-1.968-17.993-4.498 0-5.45 5.141-6.456 13.334zM680.958 208.646h-17.028l.02-.161h3.053l3.668-29.88c.276-2.25.251-4.659-1.998-4.659-2.57 0-5.434 3.695-6.471 6.908l-3.393 27.631h2.73l-.02.161h-18.796l.021-.161h4.818l4.241-34.54h-4.819l.02-.161h16.064l-.789 6.426c2.078-5.141 5.547-7.229 9.242-7.229 5.783 0 8.301 3.052 9.232 7.229 2.078-5.141 6.029-7.229 9.725-7.229 7.871 0 10.535 5.784 9.668 12.852l-2.802 22.812h4.819l-.02.161h-19.117l.02-.161h3.052l3.394-27.631c.631-5.141.386-7.069-2.024-7.069-2.892 0-5.716 3.374-6.913 6.587.284 1.606.389 3.374.172 5.141l-2.801 22.812 3.032.161zM732.408 209.61c-8.836 0-16.465-8.514-15.262-18.314 1.203-9.799 10.924-18.314 19.76-18.314s16.465 8.515 15.262 18.314c-1.184 9.64-10.924 18.314-19.76 18.314zm4.478-36.467c-5.462 0-6.629 8.193-7.853 18.153-1.223 9.96-2.067 18.153 3.395 18.153s6.629-8.193 7.852-18.153c1.223-9.96 2.068-18.153-3.394-18.153zM786.864 162.541c.203.964.124 1.606.065 2.088-.414 3.374-2.879 6.426-6.734 6.426-3.213 0-5.627-2.57-5.213-5.944.395-3.213 3.301-5.944 6.674-5.944 2.57 0 4.743 1.928 5.09 4.338-.189-3.695-2.805-5.944-6.338-5.944-2.09 0-3.756.482-4.979 1.285-1.744 1.125-2.604 2.892-2.899 5.302l-1.183 9.639h5.621l-.02.161h-5.622l-4.241 34.54h5.623l-.021.161h-22.33l.021-.161h5.623l4.24-34.54h-5.623l.02-.161h5.623l.553-4.498c.828-6.747 8.246-12.209 16.921-12.209 4.981-.002 8.357 1.283 9.129 5.461zM146.567 257.645h-5.623l-15.644 35.824-7.466-25.543-11.149 25.382-10.542-35.825h-5.623l.02-.161h40.966l-.02.161h-4.338l5.624 18.314 8.032-18.314h-5.622l.02-.161h11.406l-.041.323zm-32.45 18.313l3.576-8.193-2.934-10.121h-6.266l5.624 18.314zM183.292 292.184h-19.92l.02-.161h3.213l3.373-27.471c.631-5.141.226-7.069-2.023-7.069-2.41 0-5.015 2.892-6.472 6.908l-3.393 27.631h3.213l-.02.161h-19.921l.02-.161h5.623l6.194-50.444h-5.623l.02-.161h16.708l-2.742 22.33c2.077-5.141 5.386-7.229 9.242-7.229 7.872 0 10.535 5.783 9.667 12.852l-2.801 22.812h5.622v.002zM185.22 292.184l5.642-.161 4.241-34.54h-5.623l.02-.161h16.708l-4.261 34.7h5.623l-.02.161h-22.33zm17.833-53.657c3.374 0 5.628 2.57 5.214 5.944-.415 3.374-3.281 5.784-6.654 5.784-3.374 0-5.468-2.57-5.073-5.784.395-3.213 3.139-5.944 6.513-5.944zM221.709 274.995c-.69 5.623-1.93 17.029 5.941 17.029 6.266 0 10.271-5.141 11.598-13.334h.161c-1.347 8.354-5.47 14.458-14.627 14.458-8.996 0-16.223-7.872-14.94-18.314 1.183-9.639 9.478-18.314 20.081-18.314 6.426 0 9.264 3.052 10.056 7.069.203.964.124 1.606.065 2.088-.414 3.374-2.877 6.426-6.733 6.426-3.213 0-5.628-2.57-5.214-5.944.395-3.213 3.3-5.944 6.674-5.944 2.57 0 4.743 1.928 5.09 4.338-.369-3.535-2.587-7.711-8.853-7.711-6.427-.001-8.056 8.032-9.299 18.153zM279.842 292.184h-19.92l.02-.161h3.213l3.373-27.471c.631-5.141.226-7.069-2.023-7.069-2.41 0-5.014 2.892-6.471 6.908l-3.393 27.631h3.213l-.02.161h-19.92l.02-.161h5.623l6.194-50.444h-5.623l.02-.161h16.708l-2.742 22.33c2.077-5.141 5.386-7.229 9.241-7.229 7.872 0 10.536 5.783 9.667 12.852l-2.801 22.812h5.621v.002zM306.571 274.673l-.237 1.928c-1.184 9.639-1.412 15.422 5.657 15.422 6.426 0 11.316-4.498 14.01-12.049h.161c-2.773 8.193-8.204 13.173-16.879 13.173-8.835 0-15.662-8.514-14.458-18.314 1.203-9.799 10.121-18.314 18.956-18.314 8.997 0 15.039 8.354 13.816 18.314h-21.045l.019-.16zm.572-4.658l-.572 4.659h8.996c1.914-15.583 1.567-17.993-1.967-17.993-4.498 0-5.471 5.301-6.457 13.334zM333.036 264.553c.958-2.571 3.746-4.338 6.316-4.338 3.213 0 5.628 2.57 5.214 5.944-.395 3.213-3.3 5.944-6.674 5.944-3.856 0-5.569-3.052-5.155-6.426.059-.482.138-1.125.578-2.088 2.54-4.98 8.74-7.069 12.756-7.069 10.282 0 15.614 4.98 14.727 12.209l-2.249 18.314c-.355 2.892.451 4.177 2.058 4.177.643 0 1.305-.161 1.666-.482 1.062-.803 1.42-2.41 1.621-2.731h.161c-.797 2.57-2.72 5.141-6.896 5.141-5.783 0-9.507-3.695-9.496-7.711-.676 2.892-3.356 7.711-10.746 7.711-5.784 0-9.005-3.855-8.394-8.835.69-5.623 5.442-8.997 10.22-9.96 3.613-.643 4.056-.321 6.042-.803 1.666-.482 3.128-1.928 4.611-3.534l.887-7.229c.513-4.177-1.198-5.944-5.053-5.944-4.821-.002-10.498 3.051-12.194 7.71zm16.338 5.622c-1.702 2.088-2.925 2.892-4.47 3.695-2.227 1.125-4.23 3.052-4.645 6.426l-.769 6.266c-.415 3.374-.33 5.301 1.759 5.301 3.213 0 5.975-4.177 6.271-6.586l1.854-15.102zM377.539 274.995c-.69 5.623-1.93 17.029 5.942 17.029 6.265 0 10.27-5.141 11.598-13.334h.16c-1.348 8.354-5.471 14.458-14.627 14.458-8.997 0-16.223-7.872-14.941-18.314 1.183-9.639 9.478-18.314 20.081-18.314 6.426 0 9.264 3.052 10.057 7.069.203.964.124 1.606.065 2.088-.414 3.374-2.879 6.426-6.734 6.426-3.213 0-5.628-2.57-5.214-5.944.395-3.213 3.3-5.944 6.675-5.944 2.57 0 4.742 1.928 5.09 4.338-.369-3.535-2.588-7.711-8.854-7.711-6.427-.001-8.056 8.032-9.298 18.153zM435.672 292.184h-19.921l.02-.161h3.213l3.373-27.471c.632-5.141.226-7.069-2.024-7.069-2.408 0-5.013 2.892-6.47 6.908l-3.393 27.631h3.213l-.02.161h-19.921l.02-.161h5.623l6.193-50.444h-5.623l.02-.161h16.707l-2.741 22.33c2.077-5.141 5.387-7.229 9.242-7.229 7.871 0 10.535 5.783 9.667 12.852l-2.801 22.812h5.623v.002zM485.955 292.184h-17.029l.02-.161h3.053l3.669-29.881c.276-2.249.251-4.659-1.999-4.659-2.57 0-5.434 3.695-6.471 6.908l-3.393 27.631h2.731l-.02.161h-18.796l.02-.161h4.819l4.241-34.54h-4.82l.021-.161h16.064l-.789 6.426c2.077-5.141 5.547-7.229 9.241-7.229 5.783 0 8.301 3.052 9.233 7.229 2.077-5.141 6.028-7.229 9.724-7.229 7.871 0 10.535 5.783 9.667 12.852l-2.801 22.812h4.819l-.02.161h-19.117l.02-.161h3.053l3.373-27.471c.631-5.141.385-7.069-2.023-7.069-2.893 0-5.717 3.374-6.914 6.587.285 1.606.389 3.374.172 5.141l-2.801 22.812h3.053v.002zM525.355 293.148c-8.836 0-16.465-8.514-15.262-18.314 1.203-9.799 10.924-18.314 19.76-18.314s16.465 8.515 15.262 18.314c-1.183 9.639-10.924 18.314-19.76 18.314zm4.479-36.467c-5.463 0-6.629 8.193-7.852 18.153-1.224 9.96-2.068 18.153 3.394 18.153s6.629-8.193 7.853-18.153c1.222-9.96 2.066-18.153-3.395-18.153zM581.625 257.484h-5.623l-15.645 35.825-10.541-35.825h-5.623l.02-.161h22.33l-.02.161h-4.498l5.623 18.314 8.031-18.314h-5.623l.021-.161 11.548.161zM589.152 274.673l-.236 1.928c-1.184 9.639-1.411 15.422 5.657 15.422 6.426 0 11.315-4.498 14.01-12.049h.161c-2.773 8.193-8.205 13.173-16.879 13.173-8.836 0-15.663-8.514-14.459-18.314 1.203-9.799 10.12-18.314 18.956-18.314 8.996 0 15.038 8.354 13.815 18.314h-21.045l.02-.16zm.573-4.658l-.572 4.659h8.996c1.914-15.583 1.566-17.993-1.967-17.993-4.498 0-5.471 5.301-6.457 13.334zM646.604 292.184h-17.028l.02-.161h3.052l3.669-29.881c.276-2.249.251-4.659-1.999-4.659-2.57 0-5.433 3.695-6.47 6.908l-3.393 27.631h2.73l-.02.161h-18.796l.02-.161h4.819l4.241-34.54h-4.82l.021-.161h16.065l-.789 6.426c2.076-5.141 5.546-7.229 9.241-7.229 5.783 0 8.3 3.052 9.233 7.229 2.076-5.141 6.028-7.229 9.723-7.229 7.872 0 10.536 5.783 9.668 12.852l-2.801 22.812h4.819l-.021.161h-19.117l.021-.161h3.052l3.373-27.471c.631-5.141.387-7.069-2.023-7.069-2.893 0-5.715 3.374-6.914 6.587.285 1.606.39 3.374.173 5.141l-2.801 22.812h3.052v.002zM682.65 274.673l-.236 1.928c-1.184 9.639-1.412 15.422 5.657 15.422 6.426 0 11.315-4.498 14.01-12.049h.16c-2.772 8.193-8.204 13.173-16.88 13.173-8.834 0-15.661-8.514-14.457-18.314 1.203-9.799 10.12-18.314 18.955-18.314 8.997 0 15.039 8.354 13.816 18.314h-21.045l.02-.16zm.573-4.658l-.572 4.659h8.996c1.914-15.583 1.566-17.993-1.967-17.993-4.498 0-5.471 5.301-6.457 13.334zM743.636 292.184h-19.92l.02-.161h3.213l3.373-27.471c.632-5.141.226-7.069-2.024-7.069-2.41 0-5.014 2.892-6.471 6.908l-3.393 27.631h3.213l-.02.161h-19.92l.02-.161h5.622l4.241-34.54h-5.623l.021-.161h16.707l-.789 6.426c2.077-5.141 5.386-7.229 9.241-7.229 7.872 0 10.536 5.783 9.668 12.852l-2.801 22.812h5.622v.002zM762.836 257.484l-3.688 30.042c-.237 1.928.389 3.374 1.996 3.374 2.248 0 2.885-2.57 3.162-4.819l.946-7.711h.16l-.967 7.872c-.493 4.016-2.435 6.747-7.414 6.747-6.748 0-9.268-4.337-8.458-10.924l3.018-24.58h-5.463l.021-.161h1.767c8.193 0 15.27-5.301 16.414-14.619h.161l-1.815 14.78 6.928-.161-.02.161h-6.748zM76.806 375.722l5.643-.161 4.241-34.539h-5.623l.02-.161h16.708l-4.26 34.7h5.623l-.02.161h-22.332zm17.673-53.658c3.374 0 5.628 2.571 5.214 5.944-.414 3.374-3.28 5.783-6.654 5.783s-5.468-2.57-5.073-5.783 3.139-5.944 6.513-5.944zM105.297 373.954c-1.446 0-3.03 1.125-3.647 3.535h-.161l2.169-17.672h.161c-.608 6.266 3.552 16.868 11.102 16.868 3.053 0 5.217-1.928 5.611-5.141 1.026-8.354-17.888-7.39-16.251-20.724.631-5.141 5.659-10.764 11.924-10.764 3.534 0 6.432 2.57 9.163 2.57.964 0 1.685-.643 1.922-2.57h.161l-1.716 13.977h-.161c.132-3.695-2.32-13.816-9.389-13.816-3.213 0-5.758 2.41-6.093 5.142-.927 7.55 18.771 6.747 17.114 20.241-.769 6.266-6.02 11.085-12.446 11.085-4.196.162-6.09-2.731-9.463-2.731zM145.744 348.09c.958-2.57 3.584-4.337 6.315-4.337 3.213 0 5.629 2.57 5.215 5.943-.395 3.213-3.3 5.944-6.674 5.944-3.855 0-5.569-3.053-5.155-6.426.059-.482.138-1.125.578-2.089 2.539-4.979 8.74-7.068 12.756-7.068 10.281 0 15.614 4.98 14.727 12.209l-2.249 18.314c-.355 2.892.451 4.177 2.058 4.177.643 0 1.305-.161 1.666-.482 1.062-.803 1.42-2.409 1.62-2.73h.161c-.797 2.57-2.719 5.141-6.896 5.141-5.784 0-9.507-3.695-9.496-7.711-.676 2.892-3.356 7.711-10.747 7.711-5.783 0-9.005-3.855-8.393-8.836.69-5.622 5.442-8.996 10.219-9.96 3.614-.643 4.056-.321 6.043-.804 1.666-.481 3.128-1.928 4.611-3.534l.888-7.229c.513-4.177-1.198-5.944-5.053-5.944-4.982 0-10.659 3.053-12.194 7.711zm16.338 5.623c-1.702 2.088-2.925 2.892-4.47 3.694-2.226 1.125-4.23 3.053-4.645 6.427l-.769 6.265c-.414 3.374-.33 5.302 1.759 5.302 3.213 0 5.975-4.177 6.271-6.587l1.854-15.101zM247.319 341.182h-5.623l-15.645 35.825-7.486-25.383-11.149 25.383-10.542-35.825h-5.623l.02-.16h40.965l-.02.16h-4.498l5.623 18.314 8.032-18.314h-5.623l.02-.16h11.406l-.02.16h.163zm-32.451 18.314l3.576-8.193-2.934-10.121h-6.265l5.623 18.314zM258.061 376.686c-8.836 0-16.465-8.515-15.262-18.314 1.203-9.799 10.923-18.313 19.759-18.313 8.835 0 16.465 8.515 15.262 18.313-1.344 9.639-10.924 18.314-19.759 18.314zm4.477-36.468c-5.462 0-6.629 8.193-7.852 18.153-1.223 9.961-2.068 18.154 3.394 18.154s6.628-8.193 7.852-18.154c1.223-9.96 2.068-18.153-3.394-18.153zM276.011 375.722l5.643-.161 4.241-34.539h-5.623l.02-.161h16.708l-.355 2.893c1.702-2.089 3.827-3.695 7.201-3.695 2.57 0 6.088 1.445 6.72 5.462.203.964.124 1.606.064 2.089-.414 3.373-2.877 6.426-6.733 6.426-3.213 0-5.628-2.57-5.214-5.944.415-3.373 3.3-5.943 6.674-5.943 2.731 0 4.744 1.928 5.09 4.337.054-3.052-2.264-6.426-6.601-6.426-3.374 0-5.499 1.606-7.22 3.855l-3.866 31.487h5.623l-.02.16h-22.33l-.022.16zM336.665 325.278h-5.623l.02-.161h16.708l-6.213 50.604h5.623l-.02.161h-16.708l.79-6.427c-2.077 5.141-5.386 7.229-9.242 7.229-6.747 0-12.547-7.711-11.246-18.314 1.302-10.603 8.996-18.313 15.743-18.313 3.856 0 6.652 2.089 7.466 7.229l2.702-22.008zm-2.782 22.652c-.471-4.017-2.365-6.908-4.774-6.908-3.213 0-4.752 3.374-5.995 13.494l-.947 7.712c-1.243 10.12-.532 13.494 2.681 13.494 2.41 0 5.014-2.892 6.471-6.908l2.564-20.884zM355.608 364.637c3.213 0 5.468 2.57 5.073 5.783s-3.301 5.944-6.514 5.944-5.628-2.57-5.214-5.944c.556-3.213 3.442-5.783 6.655-5.783z"/></g><path fill="#333" d="M0 140.692c0-14.137 9.639-36.307 35.182-49.159l3.374 5.462c-17.511 12.209-22.169 27.471-22.491 34.7 6.586.803 13.013 7.068 13.013 13.816 0 7.872-6.748 13.815-13.816 13.815-8.194.162-15.262-6.425-15.262-18.634zm45.625 0c0-14.137 9.639-36.307 35.182-49.159l3.374 5.462c-17.511 12.209-22.169 27.471-22.491 34.7 6.586.803 13.012 7.068 13.012 13.816 0 7.872-6.747 13.815-13.815 13.815-8.194.162-15.262-6.425-15.262-18.634z"/></svg>