<?xml version="1.0" encoding="utf-8"?>
<!-- Generator: Adobe Illustrator 18.1.0, SVG Export Plug-In . SVG Version: 6.00 Build 0)  -->
<svg version="1.1" id="Layer_1" xmlns="http://www.w3.org/2000/svg" xmlns:xlink="http://www.w3.org/1999/xlink" x="0px" y="0px"
	 viewBox="0 0 270 300" enable-background="new 0 0 270 300" xml:space="preserve">
<g>
	<path fill="#FFFFFF" d="M65,293.7c-0.2,0.9-0.7,1.6-1.5,1.6c-1,0-1.6-1.5-2.5-1.5c-0.5,0-0.9,0.4-1,1.2l-0.5-0.5
		c0.1-0.8,0.7-1.6,1.5-1.6c1.1,0,1.8,1.5,2.6,1.5c0.6,0,0.8-0.5,1-1.2L65,293.7z"/>
	<path fill="#FFFFFF" d="M80.9,289.4l-4.1,6h-0.3l-4.1-6v9.9h-1.1v-11.8h1.1l4.3,6.2l4.3-6.2H82v11.8h-1.1V289.4z"/>
	<path fill="#FFFFFF" d="M90.1,299.3v-1c-0.6,0.6-1.5,1.1-2.8,1.1c-1.8,0-2.9-1.1-2.9-2.8c0-2.2,1.8-3.2,4.1-3.2
		c0.5,0,1.1,0.1,1.6,0.2v-0.4c0-1.5-0.8-2.2-2.2-2.2c-0.9,0-1.8,0.2-2.5,0.6l-0.2-1c0.8-0.4,2-0.6,2.9-0.6c2,0,3.1,1.1,3.1,3.3v6
		H90.1z M87.6,298.6c1.2,0,2-0.6,2.4-1.1v-2.8c-0.3-0.1-1-0.2-1.5-0.2c-1.7,0-3,0.7-3,2.2C85.6,297.8,86.4,298.6,87.6,298.6z"/>
	<path fill="#FFFFFF" d="M94,299.3v-9.1h1.1v1.6c0.4-1.2,1.1-1.8,2.2-1.8c0.6,0,1.1,0.2,1.5,0.5l-0.3,1c-0.4-0.3-0.8-0.5-1.3-0.5
		c-1.1,0-1.7,0.9-2.1,2.3v5.9H94z"/>
	<path fill="#FFFFFF" d="M102.4,296.8c0,1.2,0.5,1.6,1.4,1.6c0.6,0,1.4-0.3,1.8-0.7l0.3,0.9c-0.7,0.4-1.4,0.8-2.4,0.8
		c-1.4,0-2.3-0.7-2.3-2.5v-5.8h-1.5v-0.9h1.6l0.1-2.3h0.9v2.3h3.2v0.9h-3.2V296.8z"/>
	<path fill="#FFFFFF" d="M113.8,299.3v-5.5c0-1.7-0.7-2.7-2.3-2.7c-1.4,0-2.3,1-2.6,2.1v6h-1.1V287h1.1v4.8c0.6-1,1.6-1.7,3-1.7
		c2,0,3,1.3,3,3.5v5.7H113.8z"/>
	<path fill="#FFFFFF" d="M122.7,299.3v-1c-0.6,0.6-1.5,1.1-2.8,1.1c-1.8,0-2.9-1.1-2.9-2.8c0-2.2,1.8-3.2,4.1-3.2
		c0.5,0,1.1,0.1,1.6,0.2v-0.4c0-1.5-0.8-2.2-2.2-2.2c-0.9,0-1.8,0.2-2.5,0.6l-0.2-1c0.8-0.4,2-0.6,2.9-0.6c2,0,3.1,1.1,3.1,3.3v6
		H122.7z M120.3,298.6c1.2,0,2-0.6,2.4-1.1v-2.8c-0.3-0.1-1-0.2-1.5-0.2c-1.7,0-3,0.7-3,2.2C118.2,297.8,119.1,298.6,120.3,298.6z"
		/>
	<path fill="#FFFFFF" d="M138.3,289.8c-0.9-0.9-1.9-1.4-3.1-1.4c-2.5,0-4.3,1.8-4.3,5c0,3.2,1.9,5,4.2,5c1.2,0,2.3-0.4,3-1v-3.3
		h-3.5v-1h4.6v5c-0.9,0.8-2.6,1.4-4.2,1.4c-3,0-5.3-2.3-5.3-6c0-3.8,2.4-6.1,5.3-6.1c1.6,0,2.8,0.6,3.8,1.6L138.3,289.8z"/>
	<path fill="#FFFFFF" d="M141.8,299.3v-9.1h1.1v1.6c0.4-1.2,1.1-1.8,2.2-1.8c0.6,0,1.1,0.2,1.5,0.5l-0.3,1c-0.4-0.3-0.8-0.5-1.3-0.5
		c-1.1,0-1.7,0.9-2.1,2.3v5.9H141.8z"/>
	<path fill="#FFFFFF" d="M153.2,299.3v-1c-0.6,0.6-1.5,1.1-2.8,1.1c-1.8,0-2.9-1.1-2.9-2.8c0-2.2,1.8-3.2,4.1-3.2
		c0.5,0,1.1,0.1,1.6,0.2v-0.4c0-1.5-0.8-2.2-2.2-2.2c-0.9,0-1.8,0.2-2.5,0.6l-0.2-1c0.8-0.4,2-0.6,2.9-0.6c2,0,3.1,1.1,3.1,3.3v6
		H153.2z M150.8,298.6c1.2,0,2-0.6,2.4-1.1v-2.8c-0.3-0.1-1-0.2-1.5-0.2c-1.7,0-3,0.7-3,2.2C148.7,297.8,149.6,298.6,150.8,298.6z"
		/>
	<path fill="#FFFFFF" d="M163.2,299.3v-5.5c0-1.7-0.7-2.7-2.3-2.7c-1.4,0-2.3,1-2.6,2.1v6h-1.1V287h1.1v4.8c0.6-1,1.6-1.7,3-1.7
		c2,0,3,1.3,3,3.5v5.7H163.2z"/>
	<path fill="#FFFFFF" d="M172.1,299.3v-1c-0.6,0.6-1.5,1.1-2.8,1.1c-1.8,0-2.9-1.1-2.9-2.8c0-2.2,1.8-3.2,4.1-3.2
		c0.5,0,1.1,0.1,1.6,0.2v-0.4c0-1.5-0.8-2.2-2.2-2.2c-0.9,0-1.8,0.2-2.5,0.6l-0.2-1c0.8-0.4,2-0.6,2.9-0.6c2,0,3.1,1.1,3.1,3.3v6
		H172.1z M169.7,298.6c1.2,0,2-0.6,2.4-1.1v-2.8c-0.3-0.1-1-0.2-1.5-0.2c-1.7,0-3,0.7-3,2.2C167.6,297.8,168.5,298.6,169.7,298.6z"
		/>
	<path fill="#FFFFFF" d="M187.5,299.3v-5.6c0-1.7-0.7-2.5-2.2-2.5c-1.2,0-1.9,0.8-2.3,2c0,0.1,0,0.3,0,0.4v5.8h-1.1v-5.6
		c0-1.7-0.8-2.5-2.2-2.5c-1.4,0-2.1,0.9-2.5,2.1v6.1h-1.1v-9.1h1.1v1.5c0.6-1.1,1.5-1.6,2.8-1.6c1.4,0,2.3,0.6,2.7,1.8
		c0.5-1.1,1.4-1.8,2.8-1.8c2.1,0,3,1.2,3,3.4v5.8H187.5z"/>
</g>
<g>
	<path fill="#333333" d="M222.8,234.9c9.8-6.9,12.4-15.3,12.6-19.4c-3.7-0.4-7.3-3.9-7.3-7.7c0-4.4,3.8-7.7,7.7-7.7
		c4.7,0,8.6,3.7,8.6,10.5c0,7.9-5.4,20.3-19.7,27.5L222.8,234.9z M248.4,234.9c9.8-6.9,12.4-15.3,12.6-19.4
		c-3.7-0.4-7.3-3.9-7.3-7.7c0-4.4,3.8-7.7,7.7-7.7c4.7,0,8.6,3.7,8.6,10.5c0,7.9-5.4,20.3-19.7,27.5L248.4,234.9z"/>
</g>
<g>
	<path fill="#FFFFFF" d="M72.2,65.5H60v-0.1h3.4V38.3H60v-0.1h12.2c7.1,0,14.7,5,14.7,13.6S79.4,65.5,72.2,65.5z M72.2,38.3H70v27.1
		h2.3c7.1,0,8.2-5.1,8.2-13.6S79.3,38.3,72.2,38.3z"/>
	<path fill="#FFFFFF" d="M89.8,50.1c0.4-1.4,1.8-2.5,3.2-2.5c1.8,0,3.3,1.5,3.3,3.3s-1.5,3.3-3.3,3.3c-2.2,0-3.3-1.7-3.3-3.6
		c0-0.3,0-0.6,0.2-1.2c1.1-2.8,4.4-3.9,6.6-3.9c5.8,0,9.1,2.8,9.1,6.9v10.3c0,1.6,0.5,2.3,1.5,2.3c0.4,0,0.7-0.1,0.9-0.3
		c0.5-0.5,0.7-1.3,0.7-1.6h0.1c-0.3,1.4-1.1,2.9-3.5,2.9c-3.3,0-5.6-2.1-5.8-4.3C99.2,63.4,98,66,93.9,66c-3.3,0-5.3-2.1-5.3-4.9
		c0-3.1,2.4-5.1,5-5.6c1.9-0.4,2.2-0.1,3.3-0.4c0.9-0.2,1.6-1.1,2.3-2v-4c0-2.3-1.1-3.3-3.3-3.3C93.3,45.8,90.3,47.5,89.8,50.1z
		 M99.3,53.2c-0.8,1.2-1.4,1.6-2.3,2.1c-1.2,0.7-2.1,1.7-2.1,3.6v3.5c0,1.9,0.2,3,1.3,3c1.8,0,3.1-2.3,3.1-3.7V53.2z"/>
	<path fill="#FFFFFF" d="M132.8,65.5h-11.1v-0.1h1.8V50.1c0-2.9-0.4-4-1.6-4c-1.4,0-2.6,1.6-3.1,3.9v15.5h1.8v0.1h-11.1v-0.1h3.1
		V46.1h-3.1v-0.1h9.3v3.6c0.8-2.9,2.5-4.1,4.7-4.1c4.4,0,6.3,3.2,6.3,7.2v12.7L132.8,65.5L132.8,65.5z"/>
	<path fill="#FFFFFF" d="M139.7,55.9c0,3.2,0.1,9.5,4.5,9.5c3.5,0,5.4-2.8,5.6-7.5h0.1c-0.2,4.7-2.1,8.1-7.2,8.1
		c-5,0-9.6-4.4-9.6-10.2c0-5.4,4.1-10.2,9.9-10.2c3.6,0,5.4,1.7,6.1,3.9c0.2,0.5,0.2,0.9,0.2,1.2c0,1.9-1.1,3.6-3.3,3.6
		c-1.8,0-3.3-1.5-3.3-3.3s1.5-3.3,3.3-3.3c1.4,0,2.8,1.1,3.2,2.5c-0.4-2-2-4.3-5.5-4.3C140,45.7,139.7,50.2,139.7,55.9z"/>
	<path fill="#FFFFFF" d="M149.9,65.5L149.9,65.5l3.1-0.1V46.1h-3.1v-0.1h9.3v19.4h3.1v0.1H149.9z M156.2,35.5c1.9,0,3.3,1.4,3.3,3.3
		s-1.4,3.3-3.3,3.3c-1.9,0-3.3-1.4-3.3-3.3S154.3,35.5,156.2,35.5z"/>
	<path fill="#FFFFFF" d="M187,65.5h-11.1v-0.1h1.8V50.1c0-2.9-0.4-4-1.6-4c-1.4,0-2.6,1.6-3.1,3.9v15.5h1.8v0.1h-11.1v-0.1h3.1V46.1
		h-3.1v-0.1h9.3v3.6c0.8-2.9,2.5-4.1,4.7-4.1c4.4,0,6.3,3.2,6.3,7.2v12.7L187,65.5L187,65.5z"/>
	<path fill="#FFFFFF" d="M191.7,56.6c-0.7,0.2-1.6,0.7-1.6,1.6c0,0.4,0.2,0.8,0.8,1c0.7,0.4,2.5,0.6,6,0.8c7.5,0.4,9.7,3.3,9.7,7.4
		c0,4.4-4.1,7.6-9.6,7.6c-6.6,0-9.8-2.7-9.8-5.4c0-2.6,2.1-4,4.6-4.3c-2.1-0.7-3.9-1.9-3.9-4.6C187.9,58.7,189.4,57.3,191.7,56.6
		c-1.6-1.2-2.5-2.9-2.5-4.8c0-3.5,3.2-6.3,7.6-6.3c3,0,5.5,1.3,6.7,3.2c0.6-0.1,4.4-0.8,4.4-4.3c0-2.6-1.6-3.6-2.8-4.1
		c1.1,0.6,1.9,1.7,1.9,3c0,1.8-1.5,3.4-3.4,3.4c-1.9,0-3.4-1.5-3.4-3.4c0-1.9,1.5-3.4,3.4-3.4c0.1,0,0.6,0,0.8,0.1
		c1.2,0.2,3.6,1,3.6,4.3c0,3.4-3.7,4.2-4.5,4.4c0.6,0.9,0.9,1.9,0.9,3c0,3.5-3.2,6.3-7.6,6.3C194.8,58.1,193,57.6,191.7,56.6z
		 M192.2,65.5c-1,0.6-2,1.8-2,4c0,2.7,2.6,5.5,6.7,5.5c3.8,0,6.7-1.7,6.7-4.4c0-2.3-1.4-3.4-6-4.1C196.1,66.2,194,66,192.2,65.5z
		 M199.6,51.8c0-5.3-1.3-6.2-2.8-6.2c-1.5,0-2.8,0.9-2.8,6.2s1.3,6.2,2.8,6.2C198.3,58.1,199.6,57.2,199.6,51.8z"/>
	<path fill="#FFFFFF" d="M214.5,65.5L214.5,65.5l3.1-0.1V46.1h-3.1v-0.1h9.3v19.4h3.1v0.1H214.5z M220.7,35.5c1.9,0,3.3,1.4,3.3,3.3
		s-1.4,3.3-3.3,3.3c-1.9,0-3.3-1.4-3.3-3.3S218.8,35.5,220.7,35.5z"/>
	<path fill="#FFFFFF" d="M230.4,64.5c-0.8,0-1.6,0.7-1.8,2h-0.1v-9.9h0.1c0.1,3.5,3.2,9.4,7.4,9.4c1.7,0,2.8-1.1,2.8-2.9
		c0-4.7-10.5-4.2-10.5-11.6c0-2.9,2.4-6,5.9-6c1.9,0,3.8,1.4,5.3,1.4c0.5,0,0.9-0.4,0.9-1.4h0.1v7.8h-0.1c-0.2-2.1-2.2-7.7-6.2-7.7
		c-1.8,0-3,1.3-3,2.9c0,4.2,11,3.8,11,11.3c0,3.5-2.6,6.2-6.2,6.2C233.5,66.1,232.3,64.5,230.4,64.5z"/>
	<path fill="#FFFFFF" d="M69,92.9v16.8c0,1.1,0.4,1.9,1.4,1.9c1.2,0,1.5-1.4,1.5-2.7v-4.3H72v4.4c0,2.3-0.9,3.8-3.7,3.8
		c-3.7,0-5.5-2.5-5.5-6.2V92.9h-3.1v-0.1h1c4.6,0,8.2-2.9,8.2-8.1H69V92.9l3.9-0.1v0.1H69z"/>
	<path fill="#FFFFFF" d="M96.6,112.3H85.5v-0.1h1.8V96.9c0-2.9-0.4-4-1.6-4c-1.4,0-2.6,1.6-3.1,3.9v15.5h1.8v0.1H73.2v-0.1h3.1V84
		h-3.1v-0.1h9.3v12.5c0.8-2.9,2.5-4.1,4.7-4.1c4.4,0,6.3,3.2,6.3,7.2v12.7L96.6,112.3L96.6,112.3z"/>
	<path fill="#FFFFFF" d="M103.5,102.5v1.1c0,5.4,0.2,8.6,4.2,8.6c3.6,0,6-2.5,7-6.8h0.1c-1,4.6-3.7,7.4-8.6,7.4
		c-4.9,0-9.4-4.8-9.4-10.2c0-5.5,4.4-10.2,9.4-10.2c5.1,0,9,4.7,9,10.2H103.5z M103.5,99.9v2.6h5.1c0-8.7-0.4-10.1-2.3-10.1
		C103.7,92.4,103.5,95.3,103.5,99.9z"/>
	<path fill="#FFFFFF" d="M145.6,112.3h-11.1v-0.1h1.8V96.9c0-2.9-0.4-4-1.6-4c-1.4,0-2.6,1.6-3.1,3.9v15.5h1.8v0.1h-11.1v-0.1h3.1
		V84h-3.1v-0.1h9.3v12.5c0.8-2.9,2.5-4.1,4.7-4.1c4.4,0,6.3,3.2,6.3,7.2v12.7L145.6,112.3L145.6,112.3z"/>
	<path fill="#FFFFFF" d="M146.7,112.3L146.7,112.3l3.1-0.1V92.9h-3.1v-0.1h9.3v19.4h3.1v0.1H146.7z M153,82.2c1.9,0,3.3,1.4,3.3,3.3
		s-1.4,3.3-3.3,3.3c-1.9,0-3.3-1.4-3.3-3.3S151.1,82.2,153,82.2z"/>
	<path fill="#FFFFFF" d="M171.7,84h-3.1v-0.1h9.3v28.3h3.1v0.1h-9.3v-3.6c-0.8,2.9-2.5,4.1-4.7,4.1c-3.7,0-7.5-4.3-7.5-10.2
		c0-5.9,3.8-10.2,7.5-10.2c2.1,0,3.9,1.2,4.7,4.1V84z M171.7,96.7c-0.5-2.2-1.8-3.9-3.1-3.9c-1.8,0-2.5,1.9-2.5,7.5v4.3
		c0,5.6,0.6,7.5,2.5,7.5c1.4,0,2.6-1.6,3.1-3.9V96.7z"/>
	<path fill="#FFFFFF" d="M193.6,84h-3.1v-0.1h9.3v28.3h3.1v0.1h-9.3v-3.6c-0.8,2.9-2.5,4.1-4.7,4.1c-3.7,0-7.5-4.3-7.5-10.2
		c0-5.9,3.8-10.2,7.5-10.2c2.1,0,3.9,1.2,4.7,4.1V84z M193.6,96.7c-0.5-2.2-1.8-3.9-3.1-3.9c-1.8,0-2.5,1.9-2.5,7.5v4.3
		c0,5.6,0.6,7.5,2.5,7.5c1.4,0,2.6-1.6,3.1-3.9V96.7z"/>
	<path fill="#FFFFFF" d="M209.8,102.5v1.1c0,5.4,0.2,8.6,4.2,8.6c3.6,0,6-2.5,7-6.8h0.1c-1,4.6-3.7,7.4-8.6,7.4
		c-4.9,0-9.4-4.8-9.4-10.2c0-5.5,4.4-10.2,9.4-10.2c5.1,0,9,4.7,9,10.2H209.8z M209.8,99.9v2.6h5.1c0-8.7-0.4-10.1-2.3-10.1
		C210,92.4,209.8,95.3,209.8,99.9z"/>
	<path fill="#FFFFFF" d="M245.1,112.3H234v-0.1h1.8V96.9c0-2.9-0.4-4-1.6-4c-1.4,0-2.6,1.6-3.1,3.9v15.5h1.8v0.1h-11.1v-0.1h3.1
		V92.9h-3.1v-0.1h9.3v3.6c0.8-2.9,2.5-4.1,4.7-4.1c4.4,0,6.3,3.2,6.3,7.2v12.7L245.1,112.3L245.1,112.3z"/>
	<path fill="#FFFFFF" d="M59.9,159L59.9,159L63,159v-28.2h-3.1v-0.1h9.3V159h3.1v0.1H59.9z"/>
	<path fill="#FFFFFF" d="M74.1,143.6c0.4-1.4,1.8-2.5,3.2-2.5c1.8,0,3.3,1.5,3.3,3.3s-1.5,3.3-3.3,3.3c-2.2,0-3.3-1.7-3.3-3.6
		c0-0.3,0-0.6,0.2-1.2c1.1-2.8,4.4-3.9,6.6-3.9c5.8,0,9.1,2.8,9.1,6.9v10.3c0,1.6,0.5,2.3,1.5,2.3c0.4,0,0.7-0.1,0.9-0.3
		c0.5-0.5,0.7-1.3,0.7-1.6h0.1c-0.3,1.4-1.1,2.9-3.5,2.9c-3.3,0-5.6-2.1-5.8-4.3c-0.2,1.6-1.4,4.3-5.5,4.3c-3.3,0-5.3-2.1-5.3-4.9
		c0-3.1,2.4-5.1,5-5.6c1.9-0.4,2.2-0.1,3.3-0.4c0.9-0.2,1.6-1.1,2.3-2v-4c0-2.3-1.1-3.3-3.3-3.3C77.6,139.3,74.7,141,74.1,143.6z
		 M83.6,146.7c-0.8,1.2-1.4,1.6-2.3,2.1c-1.2,0.7-2.1,1.7-2.1,3.6v3.5c0,1.9,0.2,3,1.3,3c1.8,0,3.1-2.3,3.1-3.7V146.7z"/>
	<path fill="#FFFFFF" d="M117.1,159H106V159h1.8v-15.3c0-2.9-0.4-4-1.6-4c-1.4,0-2.6,1.6-3.1,3.9V159h1.8v0.1H93.7V159h3.1v-19.3
		h-3.1v-0.1h9.3v3.6c0.8-2.9,2.5-4.1,4.7-4.1c4.4,0,6.3,3.2,6.3,7.2V159L117.1,159L117.1,159z"/>
	<path fill="#FFFFFF" d="M121.9,150.1c-0.7,0.2-1.6,0.7-1.6,1.6c0,0.4,0.2,0.8,0.8,1c0.7,0.4,2.5,0.6,6,0.8c7.5,0.4,9.7,3.3,9.7,7.4
		c0,4.4-4.1,7.6-9.6,7.6c-6.6,0-9.8-2.7-9.8-5.4c0-2.6,2.1-4,4.6-4.3c-2.1-0.7-3.9-1.9-3.9-4.6C118.1,152.2,119.5,150.8,121.9,150.1
		c-1.6-1.2-2.5-2.9-2.5-4.8c0-3.5,3.2-6.3,7.6-6.3c3,0,5.5,1.3,6.7,3.2c0.6-0.1,4.4-0.8,4.4-4.3c0-2.6-1.6-3.6-2.8-4.1
		c1.1,0.6,1.9,1.7,1.9,3c0,1.8-1.5,3.4-3.4,3.4c-1.9,0-3.4-1.5-3.4-3.4c0-1.9,1.5-3.4,3.4-3.4c0.1,0,0.6,0,0.8,0.1
		c1.2,0.2,3.6,1,3.6,4.3c0,3.4-3.7,4.2-4.5,4.4c0.6,0.9,0.9,1.9,0.9,3c0,3.5-3.2,6.3-7.6,6.3C125,151.6,123.2,151.1,121.9,150.1z
		 M122.4,159c-1,0.6-2,1.8-2,4c0,2.7,2.6,5.5,6.7,5.5c3.8,0,6.7-1.7,6.7-4.4c0-2.3-1.4-3.4-6-4.1C126.3,159.7,124.2,159.5,122.4,159
		z M129.8,145.3c0-5.3-1.3-6.2-2.8-6.2c-1.5,0-2.8,0.9-2.8,6.2c0,5.3,1.3,6.2,2.8,6.2C128.5,151.6,129.8,150.7,129.8,145.3z"/>
	<path fill="#FFFFFF" d="M138.8,139.6h9.3V155c0,2.9,0.4,4,1.6,4c1.4,0,2.6-1.6,3.1-3.9v-15.5h-1.8v-0.1h8V159h3.1v0.1h-9.3v-3.6
		c-0.8,2.9-2.5,4.1-4.7,4.1c-4.4,0-6.3-3.2-6.3-7.2v-12.7L138.8,139.6L138.8,139.6z"/>
	<path fill="#FFFFFF" d="M164,143.6c0.4-1.4,1.8-2.5,3.2-2.5c1.8,0,3.3,1.5,3.3,3.3s-1.5,3.3-3.3,3.3c-2.2,0-3.3-1.7-3.3-3.6
		c0-0.3,0-0.6,0.2-1.2c1.1-2.8,4.4-3.9,6.6-3.9c5.8,0,9.1,2.8,9.1,6.9v10.3c0,1.6,0.5,2.3,1.5,2.3c0.4,0,0.7-0.1,0.9-0.3
		c0.5-0.5,0.7-1.3,0.7-1.6h0.1c-0.3,1.4-1.1,2.9-3.5,2.9c-3.3,0-5.6-2.1-5.8-4.3c-0.2,1.6-1.4,4.3-5.5,4.3c-3.3,0-5.3-2.1-5.3-4.9
		c0-3.1,2.4-5.1,5-5.6c1.9-0.4,2.2-0.1,3.3-0.4c0.9-0.2,1.6-1.1,2.3-2v-4c0-2.3-1.1-3.3-3.3-3.3C167.5,139.3,164.6,141,164,143.6z
		 M173.5,146.7c-0.8,1.2-1.4,1.6-2.3,2.1c-1.2,0.7-2.1,1.7-2.1,3.6v3.5c0,1.9,0.2,3,1.3,3c1.8,0,3.1-2.3,3.1-3.7V146.7z"/>
	<path fill="#FFFFFF" d="M188.1,150.1c-0.7,0.2-1.6,0.7-1.6,1.6c0,0.4,0.2,0.8,0.8,1c0.7,0.4,2.5,0.6,6,0.8c7.5,0.4,9.7,3.3,9.7,7.4
		c0,4.4-4.1,7.6-9.6,7.6c-6.6,0-9.8-2.7-9.8-5.4c0-2.6,2.1-4,4.6-4.3c-2.1-0.7-3.9-1.9-3.9-4.6C184.3,152.2,185.8,150.8,188.1,150.1
		c-1.6-1.2-2.5-2.9-2.5-4.8c0-3.5,3.2-6.3,7.6-6.3c3,0,5.5,1.3,6.7,3.2c0.6-0.1,4.4-0.8,4.4-4.3c0-2.6-1.6-3.6-2.8-4.1
		c1.1,0.6,1.9,1.7,1.9,3c0,1.8-1.5,3.4-3.4,3.4c-1.9,0-3.4-1.5-3.4-3.4c0-1.9,1.5-3.4,3.4-3.4c0.1,0,0.6,0,0.8,0.1
		c1.2,0.2,3.6,1,3.6,4.3c0,3.4-3.7,4.2-4.5,4.4c0.6,0.9,0.9,1.9,0.9,3c0,3.5-3.2,6.3-7.6,6.3C191.2,151.6,189.4,151.1,188.1,150.1z
		 M188.6,159c-1,0.6-2,1.8-2,4c0,2.7,2.6,5.5,6.7,5.5c3.8,0,6.7-1.7,6.7-4.4c0-2.3-1.4-3.4-6-4.1C192.5,159.7,190.5,159.5,188.6,159
		z M196,145.3c0-5.3-1.3-6.2-2.8-6.2c-1.5,0-2.8,0.9-2.8,6.2c0,5.3,1.3,6.2,2.8,6.2C194.7,151.6,196,150.7,196,145.3z"/>
	<path fill="#FFFFFF" d="M210.7,149.3v1.1c0,5.4,0.2,8.6,4.2,8.6c3.6,0,6-2.5,7-6.8h0.1c-1,4.6-3.7,7.4-8.6,7.4
		c-4.9,0-9.4-4.8-9.4-10.2c0-5.5,4.4-10.2,9.4-10.2c5.1,0,9,4.7,9,10.2H210.7z M210.7,146.6v2.6h5.1c0-8.7-0.4-10.1-2.3-10.1
		C210.9,139.1,210.7,142.1,210.7,146.6z"/>
	<path fill="#FFFFFF" d="M239.3,159.6c-4.9,0-9.8-4.8-9.8-10.2c0-5.5,4.8-10.2,9.8-10.2s9.8,4.8,9.8,10.2
		C249.1,154.8,244.3,159.6,239.3,159.6z M239.3,139.1c-3,0-3.1,4.6-3.1,10.2c0,5.6,0.1,10.2,3.1,10.2s3.2-4.6,3.2-10.2
		C242.5,143.7,242.4,139.1,239.3,139.1z"/>
	<path fill="#FFFFFF" d="M266.7,133.2c0.2,0.5,0.2,0.9,0.2,1.2c0,1.9-1.1,3.6-3.3,3.6c-1.8,0-3.3-1.5-3.3-3.3s1.5-3.3,3.3-3.3
		c1.4,0,2.8,1.1,3.2,2.5c-0.3-2.1-2-3.3-4-3.3c-1.2,0-2.1,0.3-2.7,0.7c-0.9,0.6-1.3,1.6-1.3,3v5.4h3.1v0.1h-3.1V159h3.1v0.1h-12.5
		V159h3.1v-19.3h-3.1v-0.1h3.1V137c0-3.7,3.8-6.9,8.6-6.9C263.9,130.2,265.9,130.9,266.7,133.2z"/>
	<path fill="#FFFFFF" d="M69,186.4v16.8c0,1.1,0.4,1.9,1.4,1.9c1.2,0,1.5-1.4,1.5-2.7V198H72v4.4c0,2.3-0.9,3.8-3.7,3.8
		c-3.7,0-5.5-2.5-5.5-6.2v-13.8h-3.1v-0.1h1c4.6,0,8.2-2.9,8.2-8.1H69V186.4l3.9-0.1v0.1H69z"/>
	<path fill="#FFFFFF" d="M96.6,205.8H85.5v-0.1h1.8v-15.3c0-2.9-0.4-4-1.6-4c-1.4,0-2.6,1.6-3.1,3.9v15.5h1.8v0.1H73.2v-0.1h3.1
		v-28.2h-3.1v-0.1h9.3v12.5c0.8-2.9,2.5-4.1,4.7-4.1c4.4,0,6.3,3.2,6.3,7.2v12.7L96.6,205.8L96.6,205.8z"/>
	<path fill="#FFFFFF" d="M103.5,196v1.1c0,5.4,0.2,8.6,4.2,8.6c3.6,0,6-2.5,7-6.8h0.1c-1,4.6-3.7,7.4-8.6,7.4
		c-4.9,0-9.4-4.8-9.4-10.2c0-5.5,4.4-10.2,9.4-10.2c5.1,0,9,4.7,9,10.2H103.5z M103.5,193.4v2.6h5.1c0-8.7-0.4-10.1-2.3-10.1
		C103.7,185.9,103.5,188.9,103.5,193.4z"/>
	<path fill="#FFFFFF" d="M124.9,204.8c-0.8,0-1.6,0.7-1.8,2H123v-9.9h0.1c0.1,3.5,3.2,9.4,7.4,9.4c1.7,0,2.8-1.1,2.8-2.9
		c0-4.7-10.5-4.2-10.5-11.6c0-2.9,2.4-6,5.9-6c1.9,0,3.8,1.4,5.3,1.4c0.5,0,0.9-0.4,0.9-1.4h0.1v7.8h-0.1c-0.2-2.1-2.2-7.7-6.2-7.7
		c-1.8,0-3,1.3-3,2.9c0,4.2,11,3.8,11,11.3c0,3.5-2.6,6.2-6.2,6.2C128.1,206.4,126.8,204.8,124.9,204.8z"/>
	<path fill="#FFFFFF" d="M147.9,206.3c-4.9,0-9.8-4.8-9.8-10.2c0-5.5,4.8-10.2,9.8-10.2s9.8,4.8,9.8,10.2
		C157.7,201.5,152.9,206.3,147.9,206.3z M147.9,185.9c-3,0-3.1,4.6-3.1,10.2c0,5.6,0.1,10.2,3.1,10.2s3.2-4.6,3.2-10.2
		C151.1,190.4,151,185.9,147.9,185.9z"/>
	<path fill="#FFFFFF" d="M157.6,186.3h9.3v15.4c0,2.9,0.4,4,1.6,4c1.4,0,2.6-1.6,3.1-3.9v-15.5h-1.8v-0.1h8v19.4h3.1v0.1h-9.3v-3.6
		c-0.8,2.9-2.5,4.1-4.7,4.1c-4.4,0-6.3-3.2-6.3-7.2v-12.7L157.6,186.3L157.6,186.3z"/>
	<path fill="#FFFFFF" d="M182.2,205.8L182.2,205.8l3.1-0.1v-28.2h-3.1v-0.1h9.3v28.3h3.1v0.1H182.2z"/>
	<path fill="#FFFFFF" d="M198.6,199.6c1.8,0,3.3,1.5,3.3,3.3c0,1.8-1.5,3.3-3.3,3.3c-1.8,0-3.3-1.5-3.3-3.3
		C195.3,201,196.8,199.6,198.6,199.6z"/>
</g>
<g>
	<path fill="#333333" d="M0,27.5C0,19.6,5.4,7.2,19.7,0l1.9,3.1C11.8,9.9,9.2,18.4,9.1,22.5c3.7,0.4,7.3,3.9,7.3,7.7
		c0,4.4-3.8,7.7-7.7,7.7C3.9,38,0,34.3,0,27.5z M25.6,27.5C25.6,19.6,31,7.2,45.3,0l1.9,3.1c-9.8,6.9-12.4,15.3-12.6,19.4
		c3.7,0.4,7.3,3.9,7.3,7.7c0,4.4-3.8,7.7-7.7,7.7C29.5,38,25.6,34.3,25.6,27.5z"/>
</g>
</svg>
