<?xml version="1.0" encoding="utf-8"?>
<!-- Generator: Adobe Illustrator 18.1.0, SVG Export Plug-In . SVG Version: 6.00 Build 0)  -->
<svg version="1.1" id="Layer_1" xmlns="http://www.w3.org/2000/svg" xmlns:xlink="http://www.w3.org/1999/xlink" x="0px" y="0px"
	 viewBox="0 0 280 349" enable-background="new 0 0 280 349" xml:space="preserve">
<g>
	<path fill="#FFFFFF" d="M65,343c-0.2,0.9-0.7,1.6-1.5,1.6c-1,0-1.6-1.5-2.5-1.5c-0.5,0-0.9,0.4-1,1.2l-0.5-0.5
		c0.1-0.8,0.7-1.6,1.5-1.6c1.1,0,1.8,1.5,2.6,1.5c0.6,0,0.8-0.5,1-1.2L65,343z"/>
	<path fill="#FFFFFF" d="M81,338.8l-4.1,6h-0.3l-4.1-6v9.9h-1.1v-11.8h1.1l4.3,6.2l4.3-6.2h1.1v11.8H81V338.8z"/>
	<path fill="#FFFFFF" d="M90.2,348.6v-1c-0.6,0.6-1.5,1.1-2.8,1.1c-1.8,0-2.9-1.1-2.9-2.8c0-2.2,1.8-3.2,4.1-3.2
		c0.5,0,1.1,0.1,1.6,0.2v-0.4c0-1.5-0.8-2.2-2.2-2.2c-0.9,0-1.8,0.2-2.5,0.6l-0.2-1c0.8-0.4,2-0.6,2.9-0.6c2,0,3.1,1.1,3.1,3.3v6
		H90.2z M87.7,347.9c1.2,0,2-0.6,2.4-1.1v-2.8c-0.3-0.1-1-0.2-1.5-0.2c-1.7,0-3,0.7-3,2.2C85.7,347.2,86.5,347.9,87.7,347.9z"/>
	<path fill="#FFFFFF" d="M95.8,346.2c0,1.2,0.5,1.6,1.4,1.6c0.6,0,1.4-0.3,1.8-0.7l0.3,0.9c-0.7,0.5-1.4,0.8-2.4,0.8
		c-1.4,0-2.3-0.7-2.3-2.5v-5.8h-1.5v-0.9h1.6l0.1-2.3h0.9v2.3h3.2v0.9h-3.2V346.2z"/>
	<path fill="#FFFFFF" d="M106.2,348.6v-1c-0.6,0.6-1.5,1.1-2.8,1.1c-1.8,0-2.9-1.1-2.9-2.8c0-2.2,1.8-3.2,4.1-3.2
		c0.5,0,1.1,0.1,1.6,0.2v-0.4c0-1.5-0.8-2.2-2.2-2.2c-0.9,0-1.8,0.2-2.5,0.6l-0.2-1c0.8-0.4,2-0.6,2.9-0.6c2,0,3.1,1.1,3.1,3.3v6
		H106.2z M103.7,347.9c1.2,0,2-0.6,2.4-1.1v-2.8c-0.3-0.1-1-0.2-1.5-0.2c-1.7,0-3,0.7-3,2.2C101.7,347.2,102.5,347.9,103.7,347.9z"
		/>
	<path fill="#FFFFFF" d="M121.8,343.2H115v5.4h-1.1v-11.8h1.1v5.4h6.9v-5.4h1.1v11.8h-1.1V343.2z"/>
	<path fill="#FFFFFF" d="M131,348.6v-1c-0.6,0.6-1.5,1.1-2.8,1.1c-1.8,0-2.9-1.1-2.9-2.8c0-2.2,1.8-3.2,4.1-3.2
		c0.5,0,1.1,0.1,1.6,0.2v-0.4c0-1.5-0.8-2.2-2.2-2.2c-0.9,0-1.8,0.2-2.5,0.6l-0.2-1c0.8-0.4,2-0.6,2.9-0.6c2,0,3.1,1.1,3.1,3.3v6
		H131z M128.6,347.9c1.2,0,2-0.6,2.4-1.1v-2.8c-0.3-0.1-1-0.2-1.5-0.2c-1.7,0-3,0.7-3,2.2C126.5,347.2,127.4,347.9,128.6,347.9z"/>
	<path fill="#FFFFFF" d="M135,348.6v-9.1h1.1v1.6c0.4-1.2,1.1-1.8,2.2-1.8c0.6,0,1.1,0.2,1.5,0.5l-0.3,1c-0.4-0.3-0.8-0.5-1.3-0.5
		c-1.1,0-1.7,0.9-2.1,2.3v5.9H135z"/>
	<path fill="#FFFFFF" d="M142.2,336.3c0.4,0,0.7,0.2,0.7,0.7c0,0.5-0.3,0.7-0.7,0.7c-0.5,0-0.8-0.2-0.8-0.7
		C141.4,336.5,141.7,336.3,142.2,336.3z M141.6,348.6v-9.1h1.1v9.1H141.6z"/>
</g>
<g>
	<path fill="#333333" d="M232,283.2c9.8-6.9,12.4-15.4,12.6-19.5c-3.7-0.4-7.3-3.9-7.3-7.8c0-4.4,3.8-7.8,7.8-7.8
		c4.7,0,8.6,3.7,8.6,10.5c0,7.9-5.4,20.3-19.8,27.5L232,283.2z M257.6,283.2c9.8-6.9,12.4-15.4,12.6-19.5c-3.7-0.4-7.3-3.9-7.3-7.8
		c0-4.4,3.8-7.8,7.8-7.8c4.7,0,8.6,3.7,8.6,10.5c0,7.9-5.4,20.3-19.8,27.5L257.6,283.2z"/>
</g>
<g>
	<path fill="#FFFFFF" d="M81.9,38.3v10.8h-0.1c0-4.3-1.9-10.3-7.4-10.8v27.1h3.4v0.1H64.4v-0.1h3.4V38.4c-5.5,0.5-7.4,6.5-7.4,10.8
		h-0.1V38.3H81.9z"/>
	<path fill="#FFFFFF" d="M105.2,65.6H94.1v-0.1h1.8V50.2c0-2.9-0.4-4-1.6-4c-1.4,0-2.6,1.6-3.1,3.9v15.5h1.8v0.1H81.7v-0.1h3.1V37.3
		h-3.1v-0.1h9.4v12.5c0.8-2.9,2.5-4.1,4.7-4.1c4.4,0,6.3,3.2,6.3,7.2v12.8L105.2,65.6L105.2,65.6z"/>
	<path fill="#FFFFFF" d="M112.1,55.8v1.1c0,5.4,0.2,8.6,4.3,8.6c3.6,0,6-2.5,7-6.8h0.1c-1,4.6-3.7,7.4-8.6,7.4
		c-5,0-9.4-4.8-9.4-10.3c0-5.5,4.4-10.3,9.4-10.3c5.1,0,9,4.7,9,10.2H112.1z M112.1,53.2v2.6h5.1c0-8.7-0.4-10.1-2.3-10.1
		C112.3,45.7,112.1,48.6,112.1,53.2z"/>
	<path fill="#FFFFFF" d="M143.2,37.3h-3.1v-0.1h9.4v28.3h3.1v0.1h-9.4V62c-0.8,2.9-2.5,4.1-4.7,4.1c-3.7,0-7.5-4.3-7.5-10.3
		c0-5.9,3.8-10.3,7.5-10.3c2.1,0,3.9,1.2,4.7,4.1V37.3z M143.2,50c-0.5-2.2-1.8-3.9-3.1-3.9c-1.8,0-2.5,1.9-2.5,7.5V58
		c0,5.7,0.6,7.5,2.5,7.5c1.4,0,2.6-1.6,3.1-3.9V50z"/>
	<path fill="#FFFFFF" d="M154.3,50.1c0.4-1.4,1.8-2.5,3.2-2.5c1.8,0,3.3,1.5,3.3,3.3s-1.5,3.3-3.3,3.3c-2.2,0-3.3-1.7-3.3-3.6
		c0-0.3,0-0.6,0.2-1.2c1.1-2.8,4.4-3.9,6.6-3.9c5.8,0,9.1,2.8,9.1,6.9v10.3c0,1.6,0.5,2.3,1.5,2.3c0.4,0,0.7-0.1,0.9-0.3
		c0.5-0.5,0.7-1.3,0.7-1.6h0.1c-0.3,1.4-1.1,2.9-3.5,2.9c-3.3,0-5.6-2.1-5.8-4.3c-0.2,1.6-1.4,4.3-5.5,4.3c-3.3,0-5.3-2.1-5.3-5
		c0-3.1,2.4-5.1,5-5.6c2-0.4,2.2-0.1,3.3-0.4c0.9-0.2,1.6-1.1,2.3-2v-4c0-2.3-1.1-3.3-3.3-3.3C157.9,45.8,154.9,47.5,154.3,50.1z
		 M163.9,53.3c-0.8,1.2-1.4,1.6-2.3,2.1c-1.2,0.7-2.1,1.7-2.1,3.6v3.5c0,1.9,0.2,3,1.3,3c1.8,0,3.1-2.3,3.1-3.7V53.3z"/>
	<path fill="#FFFFFF" d="M197.4,65.6h-11.2v-0.1h1.8V50.2c0-2.9-0.4-4-1.6-4c-1.4,0-2.6,1.6-3.1,3.9v15.5h1.8v0.1h-11.2v-0.1h3.1
		V46.2h-3.1v-0.1h9.4v3.6c0.8-2.9,2.5-4.1,4.7-4.1c4.4,0,6.3,3.2,6.3,7.2v12.8L197.4,65.6L197.4,65.6z"/>
	<path fill="#FFFFFF" d="M204.3,55.9c0,3.2,0.1,9.6,4.5,9.6c3.5,0,5.4-2.8,5.6-7.5h0.1c-0.2,4.7-2.1,8.1-7.2,8.1
		c-5.1,0-9.6-4.4-9.6-10.3c0-5.4,4.1-10.3,9.9-10.3c3.6,0,5.4,1.7,6.1,3.9c0.2,0.5,0.2,0.9,0.2,1.2c0,1.9-1.1,3.6-3.3,3.6
		c-1.8,0-3.3-1.5-3.3-3.3s1.5-3.3,3.3-3.3c1.4,0,2.8,1.1,3.2,2.5c-0.4-2-2-4.3-5.5-4.3C204.7,45.8,204.3,50.3,204.3,55.9z"/>
	<path fill="#FFFFFF" d="M222.2,55.8v1.1c0,5.4,0.2,8.6,4.3,8.6c3.6,0,6-2.5,7-6.8h0.1c-1,4.6-3.7,7.4-8.6,7.4
		c-5,0-9.4-4.8-9.4-10.3c0-5.5,4.4-10.3,9.4-10.3c5.1,0,9,4.7,9,10.2H222.2z M222.2,53.2v2.6h5.1c0-8.7-0.4-10.1-2.3-10.1
		C222.4,45.7,222.2,48.6,222.2,53.2z"/>
	<path fill="#FFFFFF" d="M240.9,65.6L240.9,65.6l3.1-0.1V46.2h-3.1v-0.1h9.4v19.4h3.1v0.1H240.9z M247.1,35.5c1.9,0,3.3,1.4,3.3,3.3
		s-1.4,3.3-3.3,3.3s-3.3-1.4-3.3-3.3S245.2,35.5,247.1,35.5z"/>
	<path fill="#FFFFFF" d="M256.8,64.6c-0.8,0-1.6,0.7-1.8,2h-0.1v-9.9h0.1c0.1,3.5,3.2,9.4,7.4,9.4c1.7,0,2.8-1.1,2.8-2.9
		c0-4.7-10.5-4.2-10.5-11.6c0-2.9,2.4-6,5.9-6c2,0,3.8,1.4,5.3,1.4c0.5,0,0.9-0.4,0.9-1.4h0.1v7.8h-0.1c-0.2-2.1-2.2-7.7-6.2-7.7
		c-1.8,0-3,1.3-3,2.9c0,4.3,11,3.8,11,11.3c0,3.5-2.6,6.2-6.2,6.2C260,66.2,258.7,64.6,256.8,64.6z"/>
	<path fill="#FFFFFF" d="M61.7,96.9c0.4-1.4,1.8-2.5,3.2-2.5c1.8,0,3.3,1.5,3.3,3.3c0,1.8-1.5,3.3-3.3,3.3c-2.2,0-3.3-1.7-3.3-3.6
		c0-0.3,0-0.6,0.2-1.2c1.1-2.8,4.4-3.9,6.6-3.9c5.8,0,9.1,2.8,9.1,6.9v10.3c0,1.6,0.5,2.3,1.5,2.3c0.4,0,0.7-0.1,0.9-0.3
		c0.5-0.5,0.7-1.3,0.7-1.6h0.1c-0.3,1.4-1.1,2.9-3.5,2.9c-3.3,0-5.6-2.1-5.8-4.3c-0.2,1.6-1.4,4.3-5.5,4.3c-3.3,0-5.3-2.1-5.3-5
		c0-3.1,2.4-5.1,5-5.6c2-0.4,2.2-0.1,3.3-0.4c0.9-0.2,1.6-1.1,2.3-2v-4c0-2.3-1.1-3.3-3.3-3.3C65.3,92.6,62.3,94.3,61.7,96.9z
		 M71.3,100.1c-0.8,1.2-1.4,1.6-2.3,2.1c-1.2,0.7-2.1,1.7-2.1,3.6v3.5c0,1.9,0.2,3,1.3,3c1.8,0,3.1-2.3,3.1-3.7V100.1z"/>
	<path fill="#FFFFFF" d="M96.5,121.4h3.1v0.1H87.2v-0.1h3.1V93h-3.1v-0.1h9.4v3.6c0.8-2.9,2.5-4.1,4.7-4.1c3.7,0,7.5,4.3,7.5,10.3
		c0,5.9-3.8,10.3-7.5,10.3c-2.1,0-3.9-1.2-4.7-4.1V121.4z M96.5,108.5c0.5,2.2,1.8,3.9,3.1,3.9c1.8,0,2.5-1.9,2.5-7.5v-4.3
		c0-5.7-0.6-7.5-2.5-7.5c-1.4,0-2.6,1.6-3.1,3.9V108.5z"/>
	<path fill="#FFFFFF" d="M120.1,112.9c-5,0-9.8-4.8-9.8-10.3c0-5.5,4.8-10.3,9.8-10.3s9.8,4.8,9.8,10.3
		C129.9,108.1,125.1,112.9,120.1,112.9z M120.1,92.5c-3,0-3.1,4.6-3.1,10.2s0.1,10.2,3.1,10.2s3.2-4.6,3.2-10.2
		S123.2,92.5,120.1,92.5z"/>
	<path fill="#FFFFFF" d="M138.1,102.6v1.1c0,5.4,0.2,8.6,4.3,8.6c3.6,0,6-2.5,7-6.8h0.1c-1,4.6-3.7,7.4-8.6,7.4
		c-5,0-9.4-4.8-9.4-10.3c0-5.5,4.4-10.3,9.4-10.3c5.1,0,9,4.7,9,10.2H138.1z M138.1,100v2.6h5.1c0-8.7-0.4-10.1-2.3-10.1
		C138.3,92.5,138.1,95.5,138.1,100z"/>
	<path fill="#FFFFFF" d="M171.5,112.4H162v-0.1h1.7V95.6c0-1.2-0.2-2.6-1.4-2.6c-1.4,0-2.8,2-3.2,3.9v15.4h1.6v0.1h-10.5v-0.1h2.7
		V93h-2.7v-0.1h9v3.6c0.8-2.8,2.6-4.1,4.7-4.1c3.2,0,4.8,1.7,5.7,4.1c0.8-2.8,2.8-4.1,5-4.1c4.4,0,6.3,3.2,6.3,7.2v12.8h2.7v0.1
		h-10.7v-0.1h1.7V97c0-2.9-0.2-4-1.6-4c-1.6,0-3,1.9-3.4,3.7c0.3,0.9,0.4,1.9,0.4,2.9v12.8L171.5,112.4L171.5,112.4z"/>
	<path fill="#FFFFFF" d="M200.5,112.9c-5,0-9.8-4.8-9.8-10.3c0-5.5,4.8-10.3,9.8-10.3s9.8,4.8,9.8,10.3
		C210.2,108.1,205.4,112.9,200.5,112.9z M200.5,92.5c-3,0-3.1,4.6-3.1,10.2s0.1,10.2,3.1,10.2s3.2-4.6,3.2-10.2
		S203.5,92.5,200.5,92.5z"/>
	<path fill="#FFFFFF" d="M227.8,86.6c0.2,0.5,0.2,0.9,0.2,1.2c0,1.9-1.1,3.6-3.3,3.6c-1.8,0-3.3-1.5-3.3-3.3s1.5-3.3,3.3-3.3
		c1.4,0,2.8,1.1,3.2,2.5c-0.3-2.1-2-3.3-4-3.3c-1.2,0-2.1,0.3-2.7,0.7c-0.9,0.6-1.3,1.6-1.3,3v5.4h3.1V93h-3.1v19.3h3.1v0.1h-12.5
		v-0.1h3.1V93h-3.1v-0.1h3.1v-2.5c0-3.7,3.8-6.9,8.6-6.9C225,83.5,227.1,84.3,227.8,86.6z"/>
	<path fill="#FFFFFF" d="M91,139.8l-3.1,0l-6.3,20.1l-5.9-14.2l-4.5,14.2l-8.3-20.1h-3.1v-0.1h22.9v0.1h-2.5l4.4,10.3l3.2-10.3h-3.2
		v-0.1H91V139.8z M74.1,150.1l1.4-4.6l-2.3-5.7h-3.5L74.1,150.1z"/>
	<path fill="#FFFFFF" d="M114,159.2h-11.2v-0.1h1.8v-15.4c0-2.9-0.4-4-1.6-4c-1.4,0-2.6,1.6-3.1,3.9v15.5h1.8v0.1H90.5v-0.1h3.1
		v-28.2h-3.1v-0.1h9.4v12.5c0.8-2.9,2.5-4.1,4.7-4.1c4.4,0,6.3,3.2,6.3,7.2v12.8L114,159.2L114,159.2z"/>
	<path fill="#FFFFFF" d="M115.1,159.2L115.1,159.2l3.1-0.1v-19.3h-3.1v-0.1h9.4v19.4h3.1v0.1H115.1z M121.4,129.1
		c1.9,0,3.3,1.4,3.3,3.3s-1.4,3.3-3.3,3.3s-3.3-1.4-3.3-3.3S119.5,129.1,121.4,129.1z"/>
	<path fill="#FFFFFF" d="M134.4,149.5c0,3.2,0.1,9.6,4.5,9.6c3.5,0,5.4-2.8,5.6-7.5h0.1c-0.2,4.7-2.1,8.1-7.2,8.1
		c-5.1,0-9.6-4.4-9.6-10.3c0-5.4,4.1-10.3,9.9-10.3c3.6,0,5.4,1.7,6.1,3.9c0.2,0.5,0.2,0.9,0.2,1.2c0,1.9-1.1,3.6-3.3,3.6
		c-1.8,0-3.3-1.5-3.3-3.3s1.5-3.3,3.3-3.3c1.4,0,2.8,1.1,3.2,2.5c-0.4-2-2-4.3-5.5-4.3C134.8,139.4,134.4,143.9,134.4,149.5z"/>
	<path fill="#FFFFFF" d="M168.2,159.2h-11.2v-0.1h1.8v-15.4c0-2.9-0.4-4-1.6-4c-1.4,0-2.6,1.6-3.1,3.9v15.5h1.8v0.1h-11.2v-0.1h3.1
		v-28.2h-3.1v-0.1h9.4v12.5c0.8-2.9,2.5-4.1,4.7-4.1c4.4,0,6.3,3.2,6.3,7.2v12.8L168.2,159.2L168.2,159.2z"/>
	<path fill="#FFFFFF" d="M182,149.4v1.1c0,5.4,0.2,8.6,4.3,8.6c3.6,0,6-2.5,7-6.8h0.1c-1,4.6-3.7,7.4-8.6,7.4c-5,0-9.4-4.8-9.4-10.3
		c0-5.5,4.4-10.3,9.4-10.3c5.1,0,9,4.7,9,10.2H182z M182,146.8v2.6h5.1c0-8.7-0.4-10.1-2.3-10.1C182.2,139.3,182,142.3,182,146.8z"
		/>
	<path fill="#FFFFFF" d="M196.2,143.7c0.4-1.4,1.8-2.5,3.2-2.5c1.8,0,3.3,1.5,3.3,3.3s-1.5,3.3-3.3,3.3c-2.2,0-3.3-1.7-3.3-3.6
		c0-0.3,0-0.6,0.2-1.2c1.1-2.8,4.4-3.9,6.6-3.9c5.8,0,9.1,2.8,9.1,6.9v10.3c0,1.6,0.5,2.3,1.5,2.3c0.4,0,0.7-0.1,0.9-0.3
		c0.5-0.5,0.7-1.3,0.7-1.6h0.1c-0.3,1.4-1.1,2.9-3.5,2.9c-3.3,0-5.6-2.1-5.8-4.3c-0.2,1.6-1.4,4.3-5.5,4.3c-3.3,0-5.3-2.1-5.3-5
		c0-3.1,2.4-5.1,5-5.6c2-0.4,2.2-0.1,3.3-0.4c0.9-0.2,1.6-1.1,2.3-2v-4c0-2.3-1.1-3.3-3.3-3.3C199.7,139.4,196.8,141.1,196.2,143.7z
		 M205.7,146.9c-0.8,1.2-1.4,1.6-2.3,2.1c-1.2,0.7-2.1,1.7-2.1,3.6v3.5c0,1.9,0.2,3,1.3,3c1.8,0,3.1-2.3,3.1-3.7V146.9z"/>
	<path fill="#FFFFFF" d="M221.8,149.5c0,3.2,0.1,9.6,4.5,9.6c3.5,0,5.4-2.8,5.6-7.5h0.1c-0.2,4.7-2.1,8.1-7.2,8.1
		c-5.1,0-9.6-4.4-9.6-10.3c0-5.4,4.1-10.3,9.9-10.3c3.6,0,5.4,1.7,6.1,3.9c0.2,0.5,0.2,0.9,0.2,1.2c0,1.9-1.1,3.6-3.3,3.6
		c-1.8,0-3.3-1.5-3.3-3.3s1.5-3.3,3.3-3.3c1.4,0,2.8,1.1,3.2,2.5c-0.4-2-2-4.3-5.5-4.3C222.2,139.4,221.8,143.9,221.8,149.5z"/>
	<path fill="#FFFFFF" d="M255.6,159.2h-11.2v-0.1h1.8v-15.4c0-2.9-0.4-4-1.6-4c-1.4,0-2.6,1.6-3.1,3.9v15.5h1.8v0.1h-11.2v-0.1h3.1
		v-28.2h-3.1v-0.1h9.4v12.5c0.8-2.9,2.5-4.1,4.7-4.1c4.4,0,6.3,3.2,6.3,7.2v12.8L255.6,159.2L255.6,159.2z"/>
	<path fill="#FFFFFF" d="M81.4,206h-9.5v-0.1h1.7v-16.7c0-1.2-0.2-2.6-1.4-2.6c-1.4,0-2.8,2-3.2,3.9v15.4h1.6v0.1H60v-0.1h2.7v-19.3
		H60v-0.1h9v3.6c0.8-2.8,2.6-4.1,4.7-4.1c3.2,0,4.8,1.7,5.7,4.1c0.8-2.8,2.8-4.1,5-4.1c4.4,0,6.3,3.2,6.3,7.2v12.8h2.7v0.1H82.7
		v-0.1h1.7v-15.4c0-2.9-0.2-4-1.6-4c-1.6,0-3,1.9-3.4,3.7c0.3,0.9,0.4,1.9,0.4,2.9v12.8L81.4,206L81.4,206z"/>
	<path fill="#FFFFFF" d="M103.5,206.5c-5,0-9.8-4.8-9.8-10.3c0-5.5,4.8-10.3,9.8-10.3s9.8,4.8,9.8,10.3
		C113.3,201.7,108.5,206.5,103.5,206.5z M103.5,186.1c-3,0-3.1,4.6-3.1,10.2s0.1,10.2,3.1,10.2s3.2-4.6,3.2-10.2
		S106.6,186.1,103.5,186.1z"/>
	<path fill="#FFFFFF" d="M132.7,186.6h-3.1l-6.3,20.1l-8.3-20.1h-3.1v-0.1h12.5v0.1h-2.5l4.4,10.3l3.2-10.3h-3.2v-0.1L132.7,186.6
		L132.7,186.6z"/>
	<path fill="#FFFFFF" d="M138.1,196.2v1.1c0,5.4,0.2,8.6,4.3,8.6c3.6,0,6-2.5,7-6.8h0.1c-1,4.6-3.7,7.4-8.6,7.4
		c-5,0-9.4-4.8-9.4-10.3c0-5.5,4.4-10.3,9.4-10.3c5.1,0,9,4.7,9,10.2H138.1z M138.1,193.6v2.6h5.1c0-8.7-0.4-10.1-2.3-10.1
		C138.3,186.1,138.1,189.1,138.1,193.6z"/>
	<path fill="#FFFFFF" d="M171.6,206h-9.5v-0.1h1.7v-16.7c0-1.2-0.2-2.6-1.4-2.6c-1.4,0-2.8,2-3.2,3.9v15.4h1.6v0.1h-10.5v-0.1h2.7
		v-19.3h-2.7v-0.1h9v3.6c0.8-2.8,2.6-4.1,4.7-4.1c3.2,0,4.8,1.7,5.7,4.1c0.8-2.8,2.8-4.1,5-4.1c4.4,0,6.3,3.2,6.3,7.2v12.8h2.7v0.1
		h-10.7v-0.1h1.7v-15.4c0-2.9-0.2-4-1.6-4c-1.6,0-3,1.9-3.4,3.7c0.3,0.9,0.4,1.9,0.4,2.9v12.8L171.6,206L171.6,206z"/>
	<path fill="#FFFFFF" d="M190.6,196.2v1.1c0,5.4,0.2,8.6,4.3,8.6c3.6,0,6-2.5,7-6.8h0.1c-1,4.6-3.7,7.4-8.6,7.4
		c-5,0-9.4-4.8-9.4-10.3c0-5.5,4.4-10.3,9.4-10.3c5.1,0,9,4.7,9,10.2H190.6z M190.6,193.6v2.6h5.1c0-8.7-0.4-10.1-2.3-10.1
		C190.8,186.1,190.6,189.1,190.6,193.6z"/>
	<path fill="#FFFFFF" d="M226,206h-11.2v-0.1h1.8v-15.4c0-2.9-0.4-4-1.6-4c-1.4,0-2.6,1.6-3.1,3.9v15.5h1.8v0.1h-11.2v-0.1h3.1
		v-19.3h-3.1v-0.1h9.4v3.6c0.8-2.9,2.5-4.1,4.7-4.1c4.4,0,6.3,3.2,6.3,7.2v12.8L226,206L226,206z"/>
	<path fill="#FFFFFF" d="M234.4,186.6v16.8c0,1.1,0.4,1.9,1.4,1.9c1.2,0,1.5-1.4,1.5-2.7v-4.3h0.1v4.4c0,2.3-0.9,3.8-3.7,3.8
		c-3.7,0-5.5-2.5-5.5-6.2v-13.8h-3.1v-0.1h1c4.6,0,8.2-2.9,8.2-8.2h0.1V186.6l3.9-0.1v0.1H234.4z"/>
	<path fill="#FFFFFF" d="M60,252.8L60,252.8l3.1-0.1v-19.3H60v-0.1h9.4v19.4h3.1v0.1H60z M66.2,222.7c1.9,0,3.3,1.4,3.3,3.3
		s-1.4,3.3-3.3,3.3S63,227.9,63,226S64.4,222.7,66.2,222.7z"/>
	<path fill="#FFFFFF" d="M75.9,251.8c-0.8,0-1.6,0.7-1.8,2H74v-9.9h0.1c0.1,3.5,3.2,9.4,7.4,9.4c1.7,0,2.8-1.1,2.8-2.9
		c0-4.7-10.5-4.2-10.5-11.6c0-2.9,2.4-6,5.9-6c2,0,3.8,1.4,5.3,1.4c0.5,0,0.9-0.4,0.9-1.4H86v7.8H86c-0.2-2.1-2.2-7.7-6.2-7.7
		c-1.8,0-3,1.3-3,2.9c0,4.3,11,3.8,11,11.3c0,3.5-2.6,6.2-6.2,6.2C79.1,253.4,77.8,251.8,75.9,251.8z"/>
	<path fill="#FFFFFF" d="M96.8,237.3c0.4-1.4,1.8-2.5,3.2-2.5c1.8,0,3.3,1.5,3.3,3.3c0,1.8-1.5,3.3-3.3,3.3c-2.2,0-3.3-1.7-3.3-3.6
		c0-0.3,0-0.6,0.2-1.2c1.1-2.8,4.4-3.9,6.6-3.9c5.8,0,9.1,2.8,9.1,6.9V250c0,1.6,0.5,2.3,1.5,2.3c0.4,0,0.7-0.1,0.9-0.3
		c0.5-0.5,0.7-1.3,0.7-1.6h0.1c-0.3,1.4-1.1,2.9-3.5,2.9c-3.3,0-5.6-2.1-5.8-4.3c-0.2,1.6-1.4,4.3-5.5,4.3c-3.3,0-5.3-2.1-5.3-5
		c0-3.1,2.4-5.1,5-5.6c2-0.4,2.2-0.1,3.3-0.4c0.9-0.2,1.6-1.1,2.3-2v-4c0-2.3-1.1-3.3-3.3-3.3C100.3,233,97.4,234.8,96.8,237.3z
		 M106.3,240.5c-0.8,1.2-1.4,1.6-2.3,2.1c-1.2,0.7-2.1,1.7-2.1,3.6v3.5c0,1.9,0.2,3,1.3,3c1.8,0,3.1-2.3,3.1-3.7V240.5z"/>
	<path fill="#FFFFFF" d="M153.2,233.4l-3.1,0l-6.3,20.1l-5.9-14.2l-4.5,14.2l-8.3-20.1h-3.1v-0.1h22.9v0.1h-2.5l4.4,10.3l3.2-10.3
		h-3.2v-0.1h6.4V233.4z M136.3,243.7l1.4-4.6l-2.3-5.7h-3.5L136.3,243.7z"/>
	<path fill="#FFFFFF" d="M161.7,253.3c-5,0-9.8-4.8-9.8-10.3c0-5.5,4.8-10.3,9.8-10.3s9.8,4.8,9.8,10.3
		C171.5,248.5,166.7,253.3,161.7,253.3z M161.7,232.9c-3,0-3.1,4.6-3.1,10.2s0.1,10.2,3.1,10.2s3.2-4.6,3.2-10.2
		S164.8,232.9,161.7,232.9z"/>
	<path fill="#FFFFFF" d="M171.8,252.8L171.8,252.8l3.1-0.1v-19.3h-3.1v-0.1h9.4v1.6c0.8-1.1,1.9-2.1,3.8-2.1c1.4,0,3.5,0.8,4.1,3.1
		c0.2,0.5,0.2,0.9,0.2,1.2c0,1.9-1.1,3.6-3.3,3.6c-1.8,0-3.3-1.5-3.3-3.3s1.5-3.3,3.3-3.3c1.5,0,2.8,1.1,3.2,2.5
		c-0.2-1.7-1.7-3.6-4.2-3.6c-1.9,0-3,0.9-3.8,2.1v17.6h3.1v0.1H171.8z"/>
	<path fill="#FFFFFF" d="M202.4,224.5h-3.1v-0.1h9.4v28.3h3.1v0.1h-9.4v-3.6c-0.8,2.9-2.5,4.1-4.7,4.1c-3.7,0-7.5-4.3-7.5-10.3
		c0-5.9,3.8-10.3,7.5-10.3c2.1,0,3.9,1.2,4.7,4.1V224.5z M202.4,237.3c-0.5-2.2-1.8-3.9-3.1-3.9c-1.8,0-2.5,1.9-2.5,7.5v4.3
		c0,5.7,0.6,7.5,2.5,7.5c1.4,0,2.6-1.6,3.1-3.9V237.3z"/>
	<path fill="#FFFFFF" d="M215.7,246.6c1.8,0,3.3,1.5,3.3,3.3c0,1.8-1.5,3.3-3.3,3.3c-1.8,0-3.3-1.5-3.3-3.3
		C212.4,248.1,213.9,246.6,215.7,246.6z"/>
</g>
<g>
	<path fill="#333333" d="M0,27.5C0,19.6,5.4,7.2,19.8,0l1.9,3.1C11.9,9.9,9.2,18.4,9.1,22.5c3.7,0.4,7.3,3.9,7.3,7.8
		c0,4.4-3.8,7.8-7.8,7.8C4,38,0,34.4,0,27.5z M25.6,27.5C25.6,19.6,31,7.2,45.4,0l1.9,3.1c-9.8,6.9-12.4,15.4-12.6,19.5
		c3.7,0.4,7.3,3.9,7.3,7.8c0,4.4-3.8,7.8-7.8,7.8C29.6,38,25.6,34.4,25.6,27.5z"/>
</g>
</svg>
