<?xml version="1.0" encoding="utf-8"?>
<!-- Generator: Adobe Illustrator 18.1.0, SVG Export Plug-In . SVG Version: 6.00 Build 0)  -->
<svg version="1.1" id="Layer_1" xmlns="http://www.w3.org/2000/svg" xmlns:xlink="http://www.w3.org/1999/xlink" x="0px" y="0px"
	 viewBox="0 0 518 267" enable-background="new 0 0 518 267" xml:space="preserve">
<g>
	<path fill="#FFFFFF" d="M72.3,260.5c-0.2,1-0.8,1.8-1.7,1.8c-1.2,0-1.8-1.7-2.8-1.7c-0.5,0-1,0.4-1.1,1.3l-0.6-0.6
		c0.1-0.9,0.7-1.7,1.6-1.7c1.2,0,2,1.7,2.9,1.7c0.6,0,0.9-0.5,1.1-1.3L72.3,260.5z"/>
	<path fill="#FFFFFF" d="M77.5,253.6h1.3l3.9,11.8l4.1-11.8h1.4l-4.8,13.1H82L77.5,253.6z"/>
	<path fill="#FFFFFF" d="M91,253c0.5,0,0.8,0.2,0.8,0.8c0,0.6-0.3,0.8-0.8,0.8c-0.5,0-0.8-0.2-0.8-0.8C90.1,253.2,90.5,253,91,253z
		 M90.3,266.7v-10.1h1.2v10.1H90.3z"/>
	<path fill="#FFFFFF" d="M98.8,265.8c1.2,0,2-0.5,2.6-1.3l0.6,0.9c-0.8,0.9-1.8,1.5-3.3,1.5c-2.7,0-4.5-2.1-4.5-5.3
		c0-3.3,1.8-5.3,4.5-5.3c1.4,0,2.4,0.6,3.3,1.5l-0.6,0.9c-0.7-0.8-1.4-1.3-2.6-1.3c-2,0-3.3,1.6-3.3,4.1
		C95.5,264.2,96.8,265.8,98.8,265.8z"/>
	<path fill="#FFFFFF" d="M111.6,256.9l-4.5,4.5l4.8,5.1v0.2h-1.5l-4.5-4.9v4.9h-1.2V253h1.2v8l4.3-4.4h1.4V256.9z"/>
	<path fill="#FFFFFF" d="M114.6,253c0.5,0,0.8,0.2,0.8,0.8c0,0.6-0.3,0.8-0.8,0.8c-0.5,0-0.8-0.2-0.8-0.8
		C113.8,253.2,114.1,253,114.6,253z M114,266.7v-10.1h1.2v10.1H114z"/>
	<path fill="#FFFFFF" d="M122.6,253.6h4c2.3,0,3.7,1.1,3.7,3.4c0,1.5-0.8,2.5-2,2.9c1.8,0.3,2.9,1.4,2.9,3.3c0,2.1-1.3,3.5-3.8,3.5
		h-4.8V253.6z M123.9,259.4h2.5c1.6,0,2.7-0.8,2.7-2.3c0-1.6-0.9-2.3-2.6-2.3h-2.6V259.4z M123.9,265.6h3.4c1.8,0,2.7-0.9,2.7-2.4
		c0-1.8-1.1-2.6-3-2.6h-3V265.6z"/>
	<path fill="#FFFFFF" d="M139.4,266.7v-1.1c-0.6,0.6-1.6,1.3-3.1,1.3c-2,0-3.2-1.2-3.2-3.1c0-2.5,2-3.5,4.6-3.5
		c0.6,0,1.2,0.1,1.7,0.2v-0.5c0-1.7-0.9-2.5-2.4-2.5c-1,0-2,0.2-2.8,0.7l-0.3-1.1c0.9-0.4,2.2-0.7,3.2-0.7c2.2,0,3.5,1.3,3.5,3.6
		v6.6H139.4z M136.7,265.9c1.3,0,2.2-0.7,2.7-1.3v-3.1c-0.4-0.1-1.1-0.2-1.7-0.2c-1.9,0-3.4,0.7-3.4,2.5
		C134.4,265.1,135.3,265.9,136.7,265.9z"/>
	<path fill="#FFFFFF" d="M144.9,256.6v6.1c0,1.9,0.8,3,2.5,3c1.5,0,2.6-1.1,2.9-2.4v-6.7h1.3v10.1h-1.3V265
		c-0.6,1.2-1.8,1.9-3.3,1.9c-2.3,0-3.4-1.4-3.4-3.9v-6.3H144.9z"/>
	<path fill="#FFFFFF" d="M167.5,266.7v-6.2c0-1.9-0.7-2.8-2.5-2.8c-1.4,0-2.1,0.9-2.5,2.2c0,0.1,0,0.3,0,0.4v6.4h-1.3v-6.2
		c0-1.9-0.9-2.8-2.4-2.8c-1.5,0-2.4,1-2.8,2.3v6.8h-1.2v-10.1h1.2v1.6c0.6-1.2,1.6-1.8,3.2-1.8c1.6,0,2.6,0.7,3,2
		c0.6-1.3,1.6-2,3.1-2c2.4,0,3.4,1.3,3.4,3.8v6.4H167.5z"/>
</g>
<g>
	<path fill="#333333" d="M363.2,204.7c10.9-7.6,13.8-17.1,14-21.6c-4.1-0.5-8.1-4.4-8.1-8.6c0-4.9,4.2-8.6,8.6-8.6
		c5.2,0,9.6,4.1,9.6,11.7c0,8.8-6,22.6-21.9,30.6L363.2,204.7z M391.6,204.7c10.9-7.6,13.8-17.1,14-21.6c-4.1-0.5-8.1-4.4-8.1-8.6
		c0-4.9,4.2-8.6,8.6-8.6c5.2,0,9.6,4.1,9.6,11.7c0,8.8-6,22.6-21.9,30.6L391.6,204.7z"/>
</g>
<g>
	<path fill="#FFFFFF" d="M91,42.6v12h-0.1c0-4.7-2.1-11.4-8.2-12v30.2h3.8v0.1H71.6v-0.1h3.8V42.7c-6.1,0.5-8.2,7.2-8.2,12h-0.1v-12
		H91z"/>
	<path fill="#FFFFFF" d="M116.8,72.9h-12.4v-0.1h2V55.7c0-3.2-0.4-4.4-1.8-4.4c-1.5,0-2.9,1.8-3.5,4.3v17.2h2v0.1H90.8v-0.1h3.5
		V41.4h-3.5v-0.1h10.4v13.9c0.9-3.2,2.8-4.5,5.2-4.5c4.9,0,7,3.6,7,8v14.2L116.8,72.9L116.8,72.9z"/>
	<path fill="#FFFFFF" d="M124.4,62v1.2c0,6,0.3,9.6,4.7,9.6c4,0,6.7-2.8,7.8-7.5h0.1c-1.1,5.1-4.1,8.2-9.5,8.2
		c-5.5,0-10.4-5.3-10.4-11.4c0-6.1,4.9-11.4,10.4-11.4c5.6,0,10,5.2,10,11.4H124.4z M124.4,59.1v2.9h5.6c0-9.7-0.4-11.2-2.6-11.2
		C124.6,50.8,124.4,54,124.4,59.1z"/>
	<path fill="#FFFFFF" d="M137.6,72.9L137.6,72.9l3.5-0.1V51.3h-3.5v-0.1H148v1.8c0.9-1.3,2.1-2.3,4.2-2.3c1.6,0,3.9,0.9,4.6,3.4
		c0.2,0.6,0.2,1,0.2,1.3c0,2.1-1.3,4-3.7,4c-2,0-3.7-1.6-3.7-3.7s1.6-3.7,3.7-3.7c1.7,0,3.1,1.2,3.5,2.7c-0.2-1.9-1.9-4-4.6-4
		c-2.1,0-3.3,1-4.2,2.4v19.6h3.5v0.1H137.6z"/>
	<path fill="#FFFFFF" d="M165.3,62v1.2c0,6,0.3,9.6,4.7,9.6c4,0,6.7-2.8,7.8-7.5h0.1c-1.1,5.1-4.1,8.2-9.5,8.2
		c-5.5,0-10.4-5.3-10.4-11.4c0-6.1,4.9-11.4,10.4-11.4c5.6,0,10,5.2,10,11.4H165.3z M165.3,59.1v2.9h5.6c0-9.7-0.4-11.2-2.6-11.2
		C165.5,50.8,165.3,54,165.3,59.1z"/>
	<path fill="#FFFFFF" d="M187.9,55.7c0.4-1.6,2-2.7,3.6-2.7c2,0,3.7,1.6,3.7,3.7c0,2-1.6,3.7-3.7,3.7c-2.4,0-3.7-1.9-3.7-4
		c0-0.3,0-0.7,0.2-1.3c1.2-3.1,4.9-4.4,7.4-4.4c6.4,0,10.1,3.1,10.1,7.6v11.4c0,1.8,0.6,2.6,1.6,2.6c0.4,0,0.8-0.1,1-0.3
		c0.6-0.5,0.7-1.5,0.8-1.7h0.1c-0.3,1.6-1.3,3.2-3.9,3.2c-3.6,0-6.2-2.3-6.5-4.8c-0.2,1.8-1.5,4.8-6.1,4.8c-3.6,0-5.9-2.4-5.9-5.5
		c0-3.5,2.7-5.6,5.6-6.2c2.2-0.4,2.5-0.2,3.7-0.5c1-0.3,1.8-1.2,2.6-2.2v-4.5c0-2.6-1.2-3.7-3.6-3.7
		C191.9,50.9,188.6,52.8,187.9,55.7z M198.6,59.2c-0.9,1.3-1.6,1.8-2.5,2.3c-1.3,0.7-2.4,1.9-2.4,4v3.9c0,2.1,0.2,3.3,1.5,3.3
		c2,0,3.4-2.6,3.4-4.1V59.2z"/>
	<path fill="#FFFFFF" d="M209.7,72.9L209.7,72.9l3.5-0.1V51.3h-3.5v-0.1h10.4v1.8c0.9-1.3,2.1-2.3,4.2-2.3c1.6,0,3.9,0.9,4.6,3.4
		c0.2,0.6,0.2,1,0.2,1.3c0,2.1-1.3,4-3.7,4c-2,0-3.7-1.6-3.7-3.7s1.6-3.7,3.7-3.7c1.7,0,3.1,1.2,3.5,2.7c-0.2-1.9-1.9-4-4.6-4
		c-2.1,0-3.3,1-4.2,2.4v19.6h3.5v0.1H209.7z"/>
	<path fill="#FFFFFF" d="M237.3,62v1.2c0,6,0.3,9.6,4.7,9.6c4,0,6.7-2.8,7.8-7.5h0.1c-1.1,5.1-4.1,8.2-9.5,8.2
		c-5.5,0-10.4-5.3-10.4-11.4c0-6.1,4.9-11.4,10.4-11.4c5.6,0,10,5.2,10,11.4H237.3z M237.3,59.1v2.9h5.6c0-9.7-0.4-11.2-2.6-11.2
		C237.5,50.8,237.3,54,237.3,59.1z"/>
	<path fill="#FFFFFF" d="M261.1,71.8c-0.9,0-1.8,0.7-2,2.2H259V63h0.1c0.1,3.9,3.5,10.5,8.2,10.5c1.9,0,3.1-1.2,3.1-3.2
		c0-5.2-11.7-4.6-11.7-12.9c0-3.2,2.7-6.7,6.6-6.7c2.2,0,4.2,1.6,5.9,1.6c0.6,0,1-0.4,1-1.6h0.1v8.7h-0.1c-0.2-2.3-2.5-8.6-6.9-8.6
		c-2,0-3.4,1.5-3.4,3.2c0,4.7,12.2,4.2,12.2,12.6c0,3.9-2.9,6.9-6.9,6.9C264.7,73.6,263.3,71.8,261.1,71.8z"/>
	<path fill="#FFFFFF" d="M300.8,72.9h-12.4v-0.1h2V55.7c0-3.2-0.4-4.4-1.8-4.4c-1.5,0-2.9,1.8-3.5,4.3v17.2h2v0.1h-12.4v-0.1h3.5
		V41.4h-3.5v-0.1h10.4v13.9c0.9-3.2,2.8-4.5,5.2-4.5c4.9,0,7,3.6,7,8v14.2L300.8,72.9L300.8,72.9z"/>
	<path fill="#FFFFFF" d="M311.7,73.5c-5.5,0-10.9-5.3-10.9-11.4c0-6.1,5.4-11.4,10.9-11.4c5.5,0,10.9,5.3,10.9,11.4
		C322.6,68.1,317.2,73.5,311.7,73.5z M311.7,50.8c-3.4,0-3.5,5.1-3.5,11.3s0.1,11.3,3.5,11.3c3.4,0,3.5-5.1,3.5-11.3
		S315.1,50.8,311.7,50.8z"/>
	<path fill="#FFFFFF" d="M322.9,72.9L322.9,72.9l3.5-0.1V51.3h-3.5v-0.1h10.4v1.8c0.9-1.3,2.1-2.3,4.2-2.3c1.6,0,3.9,0.9,4.6,3.4
		c0.2,0.6,0.2,1,0.2,1.3c0,2.1-1.3,4-3.7,4c-2,0-3.7-1.6-3.7-3.7s1.6-3.7,3.7-3.7c1.7,0,3.1,1.2,3.5,2.7c-0.2-1.9-1.9-4-4.6-4
		c-2.1,0-3.3,1-4.2,2.4v19.6h3.5v0.1H322.9z"/>
	<path fill="#FFFFFF" d="M352.9,51.3V70c0,1.2,0.5,2.1,1.5,2.1c1.4,0,1.6-1.6,1.6-3v-4.8h0.1v4.9c0,2.5-1,4.2-4.1,4.2
		c-4.2,0-6.1-2.7-6.1-6.8V51.3h-3.4v-0.1h1.1c5.1,0,9.1-3.2,9.1-9.1h0.1V51.3l4.3-0.1v0.1H352.9z"/>
	<path fill="#FFFFFF" d="M358.2,60.2h11.2v0.1L358.2,60.2L358.2,60.2z"/>
	<path fill="#FFFFFF" d="M379.2,62.2c0,3.5,0.1,10.6,5,10.6c3.9,0,6-3.2,6.2-8.3h0.1c-0.2,5.2-2.3,9-8,9c-5.6,0-10.7-4.9-10.7-11.4
		c0-6,4.5-11.4,11.1-11.4c4,0,6,1.9,6.8,4.4c0.2,0.6,0.2,1,0.2,1.3c0,2.1-1.3,4-3.7,4c-2,0-3.7-1.6-3.7-3.7c0-2,1.6-3.7,3.7-3.7
		c1.6,0,3.1,1.2,3.5,2.7c-0.5-2.2-2.2-4.8-6.1-4.8C379.7,50.9,379.2,55.9,379.2,62.2z"/>
	<path fill="#FFFFFF" d="M390,51.2h10.4v17.2c0,3.2,0.4,4.4,1.8,4.4c1.5,0,2.9-1.8,3.5-4.3V51.3h-2v-0.1h8.9v21.6h3.5v0.1h-10.4v-4
		c-0.9,3.2-2.8,4.5-5.2,4.5c-4.9,0-7-3.6-7-8V51.3L390,51.2L390,51.2z"/>
	<path fill="#FFFFFF" d="M425.8,51.3V70c0,1.2,0.5,2.1,1.5,2.1c1.4,0,1.6-1.6,1.6-3v-4.8h0.1v4.9c0,2.5-1,4.2-4.1,4.2
		c-4.2,0-6.1-2.7-6.1-6.8V51.3h-3.4v-0.1h1.1c5.1,0,9.1-3.2,9.1-9.1h0.1V51.3l4.3-0.1v0.1H425.8z"/>
	<path fill="#FFFFFF" d="M433.9,71.8c-0.9,0-1.8,0.7-2,2.2h-0.1V63h0.1c0.1,3.9,3.5,10.5,8.2,10.5c1.9,0,3.1-1.2,3.1-3.2
		c0-5.2-11.7-4.6-11.7-12.9c0-3.2,2.7-6.7,6.6-6.7c2.2,0,4.2,1.6,5.9,1.6c0.6,0,1-0.4,1-1.6h0.1v8.7h-0.1c-0.2-2.3-2.5-8.6-6.9-8.6
		c-2,0-3.4,1.5-3.4,3.2c0,4.7,12.2,4.2,12.2,12.6c0,3.9-2.9,6.9-6.9,6.9C437.5,73.6,436,71.8,433.9,71.8z"/>
	<path fill="#FFFFFF" d="M465.3,51.3V70c0,1.2,0.5,2.1,1.5,2.1c1.4,0,1.6-1.6,1.6-3v-4.8h0.1v4.9c0,2.5-1,4.2-4.1,4.2
		c-4.2,0-6.1-2.7-6.1-6.8V51.3h-3.4v-0.1h1.1c5.1,0,9.1-3.2,9.1-9.1h0.1V51.3l4.3-0.1v0.1H465.3z"/>
	<path fill="#FFFFFF" d="M481.2,73.5c-5.5,0-10.9-5.3-10.9-11.4c0-6.1,5.4-11.4,10.9-11.4s10.9,5.3,10.9,11.4
		C492.1,68.1,486.7,73.5,481.2,73.5z M481.2,50.8c-3.4,0-3.5,5.1-3.5,11.3s0.1,11.3,3.5,11.3c3.4,0,3.5-5.1,3.5-11.3
		S484.6,50.8,481.2,50.8z"/>
	<path fill="#FFFFFF" d="M92.7,124.9H80.3v-0.1h2v-17.1c0-3.2-0.4-4.4-1.8-4.4c-1.5,0-2.9,1.8-3.5,4.3v17.2h2v0.1H66.7v-0.1h3.5
		V93.4h-3.5v-0.1h10.4v13.9c0.9-3.2,2.8-4.5,5.2-4.5c4.9,0,7,3.6,7,8v14.2L92.7,124.9L92.7,124.9z"/>
	<path fill="#FFFFFF" d="M94.6,107.7c0.4-1.6,2-2.7,3.6-2.7c2,0,3.7,1.6,3.7,3.7c0,2-1.6,3.7-3.7,3.7c-2.4,0-3.7-1.9-3.7-4
		c0-0.3,0-0.7,0.2-1.3c1.2-3.1,4.9-4.4,7.4-4.4c6.4,0,10.1,3.1,10.1,7.6v11.4c0,1.8,0.6,2.6,1.6,2.6c0.4,0,0.8-0.1,1-0.3
		c0.6-0.5,0.7-1.5,0.8-1.7h0.1c-0.3,1.6-1.3,3.2-3.9,3.2c-3.6,0-6.2-2.3-6.5-4.8c-0.2,1.8-1.5,4.8-6.1,4.8c-3.6,0-5.9-2.4-5.9-5.5
		c0-3.5,2.7-5.6,5.6-6.2c2.2-0.4,2.5-0.2,3.7-0.5c1-0.3,1.8-1.2,2.6-2.2v-4.5c0-2.6-1.2-3.7-3.6-3.7
		C98.6,102.9,95.3,104.8,94.6,107.7z M105.3,111.2c-0.9,1.3-1.6,1.8-2.5,2.3c-1.3,0.7-2.4,1.9-2.4,4v3.9c0,2.1,0.2,3.3,1.5,3.3
		c2,0,3.4-2.6,3.4-4.1V111.2z"/>
	<path fill="#FFFFFF" d="M125.3,134.9h3.5v0.1h-13.9v-0.1h3.5v-31.5h-3.5v-0.1h10.4v4c0.9-3.2,2.8-4.5,5.2-4.5
		c4.2,0,8.4,4.8,8.4,11.4s-4.2,11.4-8.4,11.4c-2.4,0-4.3-1.3-5.2-4.5V134.9z M125.3,120.5c0.6,2.5,2,4.3,3.5,4.3
		c2,0,2.7-2.1,2.7-8.4v-4.8c0-6.3-0.7-8.4-2.7-8.4c-1.5,0-2.9,1.8-3.5,4.3V120.5z"/>
	<path fill="#FFFFFF" d="M149.7,134.9h3.5v0.1h-13.9v-0.1h3.5v-31.5h-3.5v-0.1h10.4v4c0.9-3.2,2.8-4.5,5.2-4.5
		c4.2,0,8.4,4.8,8.4,11.4s-4.2,11.4-8.4,11.4c-2.4,0-4.3-1.3-5.2-4.5V134.9z M149.7,120.5c0.6,2.5,2,4.3,3.5,4.3
		c2,0,2.7-2.1,2.7-8.4v-4.8c0-6.3-0.7-8.4-2.7-8.4c-1.5,0-2.9,1.8-3.5,4.3V120.5z"/>
	<path fill="#FFFFFF" d="M163.7,124.9L163.7,124.9l3.5-0.1v-21.5h-3.5v-0.1h10.4v21.6h3.5v0.1H163.7z M170.6,91.5
		c2.1,0,3.7,1.6,3.7,3.7s-1.6,3.6-3.7,3.6s-3.6-1.6-3.6-3.6S168.5,91.5,170.6,91.5z"/>
	<path fill="#FFFFFF" d="M204.8,124.9h-12.4v-0.1h2v-17.1c0-3.2-0.4-4.4-1.8-4.4c-1.5,0-2.9,1.8-3.5,4.3v17.2h2v0.1h-12.4v-0.1h3.5
		v-21.5h-3.5v-0.1h10.4v4c0.9-3.2,2.8-4.5,5.2-4.5c4.9,0,7,3.6,7,8v14.2L204.8,124.9L204.8,124.9z"/>
	<path fill="#FFFFFF" d="M212.4,114v1.2c0,6,0.3,9.6,4.7,9.6c4,0,6.7-2.8,7.8-7.5h0.1c-1.1,5.1-4.1,8.2-9.5,8.2
		c-5.5,0-10.4-5.3-10.4-11.4c0-6.1,4.9-11.4,10.4-11.4c5.6,0,10,5.2,10,11.4H212.4z M212.4,111.1v2.9h5.6c0-9.7-0.4-11.2-2.6-11.2
		C212.6,102.8,212.4,106.1,212.4,111.1z"/>
	<path fill="#FFFFFF" d="M229.9,123.8c-0.9,0-1.8,0.7-2,2.2h-0.1v-11h0.1c0.1,3.9,3.5,10.5,8.2,10.5c1.9,0,3.1-1.2,3.1-3.2
		c0-5.2-11.7-4.6-11.7-12.9c0-3.2,2.7-6.7,6.6-6.7c2.2,0,4.2,1.6,5.9,1.6c0.6,0,1-0.4,1-1.6h0.1v8.7H241c-0.2-2.3-2.5-8.6-6.9-8.6
		c-2,0-3.4,1.5-3.4,3.2c0,4.7,12.2,4.2,12.2,12.6c0,3.9-2.9,6.9-6.9,6.9C233.4,125.6,232,123.8,229.9,123.8z"/>
	<path fill="#FFFFFF" d="M247.7,123.8c-0.9,0-1.8,0.7-2,2.2h-0.1v-11h0.1c0.1,3.9,3.5,10.5,8.2,10.5c1.9,0,3.1-1.2,3.1-3.2
		c0-5.2-11.7-4.6-11.7-12.9c0-3.2,2.7-6.7,6.6-6.7c2.2,0,4.2,1.6,5.9,1.6c0.6,0,1-0.4,1-1.6h0.1v8.7h-0.1c-0.2-2.3-2.5-8.6-6.9-8.6
		c-2,0-3.4,1.5-3.4,3.2c0,4.7,12.2,4.2,12.2,12.6c0,3.9-2.9,6.9-6.9,6.9C251.2,125.6,249.8,123.8,247.7,123.8z"/>
	<path fill="#FFFFFF" d="M265.4,127.8c3.4-0.6,4.9-2.3,5.1-5.2c-0.3,1.6-1.9,2.7-3.6,2.7c-2,0-3.7-1.6-3.7-3.7c0-2,1.6-3.7,3.7-3.7
		c2.4,0,3.7,1.9,3.7,4C270.6,124.9,269.2,127.3,265.4,127.8L265.4,127.8z"/>
	<path fill="#FFFFFF" d="M280.8,107.7c0.4-1.6,2-2.7,3.6-2.7c2,0,3.7,1.6,3.7,3.7c0,2-1.6,3.7-3.7,3.7c-2.4,0-3.7-1.9-3.7-4
		c0-0.3,0-0.7,0.2-1.3c1.2-3.1,4.9-4.4,7.4-4.4c6.4,0,10.1,3.1,10.1,7.6v11.4c0,1.8,0.6,2.6,1.6,2.6c0.4,0,0.8-0.1,1-0.3
		c0.6-0.5,0.7-1.5,0.8-1.7h0.1c-0.3,1.6-1.3,3.2-3.9,3.2c-3.6,0-6.2-2.3-6.5-4.8c-0.2,1.8-1.5,4.8-6.1,4.8c-3.6,0-5.9-2.4-5.9-5.5
		c0-3.5,2.7-5.6,5.6-6.2c2.2-0.4,2.5-0.2,3.7-0.5c1-0.3,1.8-1.2,2.6-2.2v-4.5c0-2.6-1.2-3.7-3.6-3.7
		C284.7,102.9,281.4,104.8,280.8,107.7z M291.4,111.2c-0.9,1.3-1.6,1.8-2.5,2.3c-1.3,0.7-2.4,1.9-2.4,4v3.9c0,2.1,0.2,3.3,1.5,3.3
		c1.9,0,3.4-2.6,3.4-4.1V111.2z"/>
	<path fill="#FFFFFF" d="M328.6,124.9h-12.4v-0.1h2v-17.1c0-3.2-0.4-4.4-1.8-4.4c-1.5,0-2.9,1.8-3.5,4.3v17.2h2v0.1h-12.4v-0.1h3.5
		v-21.5h-3.5v-0.1h10.4v4c0.9-3.2,2.8-4.5,5.2-4.5c4.9,0,7,3.6,7,8v14.2L328.6,124.9L328.6,124.9z"/>
	<path fill="#FFFFFF" d="M342.5,93.4H339v-0.1h10.4v31.5h3.5v0.1h-10.4v-4c-0.9,3.2-2.8,4.5-5.2,4.5c-4.2,0-8.4-4.8-8.4-11.4
		s4.2-11.4,8.4-11.4c2.4,0,4.3,1.3,5.2,4.5V93.4z M342.5,107.6c-0.6-2.5-1.9-4.3-3.5-4.3c-2,0-2.7,2.1-2.7,8.4v4.8
		c0,6.3,0.7,8.4,2.7,8.4c1.5,0,2.9-1.8,3.5-4.3V107.6z"/>
	<path fill="#FFFFFF" d="M374.4,93.4h-3.5v-0.1h10.4v31.5h3.5v0.1h-10.4v-4c-0.9,3.2-2.8,4.5-5.2,4.5c-4.2,0-8.4-4.8-8.4-11.4
		s4.2-11.4,8.4-11.4c2.4,0,4.3,1.3,5.2,4.5V93.4z M374.4,107.6c-0.6-2.5-2-4.3-3.5-4.3c-2,0-2.7,2.1-2.7,8.4v4.8
		c0,6.3,0.7,8.4,2.7,8.4c1.5,0,2.9-1.8,3.5-4.3V107.6z"/>
	<path fill="#FFFFFF" d="M386.7,107.7c0.4-1.6,2-2.7,3.6-2.7c2,0,3.7,1.6,3.7,3.7c0,2-1.6,3.7-3.7,3.7c-2.4,0-3.7-1.9-3.7-4
		c0-0.3,0-0.7,0.2-1.3c1.2-3.1,4.9-4.4,7.4-4.4c6.4,0,10.1,3.1,10.1,7.6v11.4c0,1.8,0.6,2.6,1.6,2.6c0.4,0,0.8-0.1,1-0.3
		c0.6-0.5,0.7-1.5,0.8-1.7h0.1c-0.3,1.6-1.3,3.2-3.9,3.2c-3.6,0-6.2-2.3-6.5-4.8c-0.2,1.8-1.5,4.8-6.1,4.8c-3.6,0-5.9-2.4-5.9-5.5
		c0-3.5,2.7-5.6,5.6-6.2c2.2-0.4,2.5-0.2,3.7-0.5c1-0.3,1.8-1.2,2.6-2.2v-4.5c0-2.6-1.2-3.7-3.6-3.7
		C390.6,102.9,387.3,104.8,386.7,107.7z M397.3,111.2c-0.9,1.3-1.6,1.8-2.5,2.3c-1.3,0.7-2.4,1.9-2.4,4v3.9c0,2.1,0.2,3.3,1.5,3.3
		c1.9,0,3.4-2.6,3.4-4.1V111.2z"/>
	<path fill="#FFFFFF" d="M434.5,124.9h-12.4v-0.1h2v-17.1c0-3.2-0.4-4.4-1.8-4.4c-1.5,0-2.9,1.8-3.5,4.3v17.2h2v0.1h-12.4v-0.1h3.5
		v-21.5h-3.5v-0.1h10.4v4c0.9-3.2,2.8-4.5,5.2-4.5c4.9,0,7,3.6,7,8v14.2L434.5,124.9L434.5,124.9z"/>
	<path fill="#FFFFFF" d="M442.1,114.2c0,3.5,0.1,10.6,5,10.6c3.9,0,6-3.2,6.2-8.3h0.1c-0.2,5.2-2.3,9-8,9c-5.6,0-10.7-4.9-10.7-11.4
		c0-6,4.5-11.4,11.1-11.4c4,0,6,1.9,6.8,4.4c0.2,0.6,0.2,1,0.2,1.3c0,2.1-1.3,4-3.7,4c-2,0-3.7-1.6-3.7-3.7c0-2,1.6-3.7,3.7-3.7
		c1.6,0,3.1,1.2,3.5,2.7c-0.5-2.2-2.2-4.8-6.1-4.8C442.5,102.9,442.1,107.9,442.1,114.2z"/>
	<path fill="#FFFFFF" d="M453.5,124.9L453.5,124.9l3.5-0.1v-21.5h-3.5v-0.1h10.4v21.6h3.5v0.1H453.5z M460.4,91.5
		c2.1,0,3.7,1.6,3.7,3.7s-1.6,3.6-3.7,3.6s-3.6-1.6-3.6-3.6S458.3,91.5,460.4,91.5z"/>
	<path fill="#FFFFFF" d="M494.6,124.9h-12.4v-0.1h2v-17.1c0-3.2-0.4-4.4-1.8-4.4c-1.5,0-2.9,1.8-3.5,4.3v17.2h2v0.1h-12.4v-0.1h3.5
		v-21.5h-3.5v-0.1h10.4v4c0.9-3.2,2.8-4.5,5.2-4.5c4.9,0,7,3.6,7,8v14.2L494.6,124.9L494.6,124.9z"/>
	<path fill="#FFFFFF" d="M499.8,115c-0.8,0.3-1.8,0.7-1.8,1.8c0,0.5,0.3,0.8,0.9,1.1c0.8,0.4,2.8,0.7,6.7,0.9
		c8.4,0.5,10.8,3.7,10.8,8.3c0,4.9-4.6,8.5-10.7,8.5c-7.3,0-10.9-3-10.9-6c0-2.9,2.3-4.4,5.2-4.8c-2.4-0.7-4.3-2.1-4.3-5.1
		C495.6,117.3,497.2,115.8,499.8,115c-1.8-1.3-2.8-3.2-2.8-5.3c0-3.9,3.5-7,8.5-7c3.4,0,6.1,1.4,7.5,3.6c0.7-0.1,4.9-0.9,4.9-4.8
		c0-2.9-1.7-4-3.1-4.5c1.2,0.7,2.1,1.9,2.1,3.4c0,2-1.7,3.7-3.8,3.7s-3.7-1.7-3.7-3.7c0-2.1,1.6-3.8,3.7-3.8c0.1,0,0.6,0,0.9,0.1
		c1.3,0.3,4,1.1,4,4.8c0,3.8-4.1,4.7-5,4.9c0.7,1,1,2.1,1,3.3c0,3.9-3.5,7-8.5,7C503.2,116.7,501.3,116,499.8,115z M500.4,124.9
		c-1.1,0.6-2.3,2-2.3,4.5c0,3,2.9,6.1,7.5,6.1c4.2,0,7.4-1.9,7.4-4.9c0-2.6-1.6-3.8-6.6-4.6C504.7,125.6,502.4,125.4,500.4,124.9z
		 M508.6,109.7c0-5.9-1.5-6.9-3.1-6.9c-1.6,0-3.1,1-3.1,6.9s1.5,6.9,3.1,6.9C507.1,116.6,508.6,115.6,508.6,109.7z"/>
	<path fill="#FFFFFF" d="M66.7,176.9L66.7,176.9l3.5-0.1v-21.5h-3.5v-0.1h10.4v21.6h3.5v0.1H66.7z M73.6,143.5
		c2.1,0,3.7,1.6,3.7,3.7s-1.6,3.6-3.7,3.6s-3.6-1.6-3.6-3.6S71.5,143.5,73.6,143.5z"/>
	<path fill="#FFFFFF" d="M84.3,175.8c-0.9,0-1.8,0.7-2,2.2h-0.1v-11h0.1c0.1,3.9,3.5,10.5,8.2,10.5c1.9,0,3.1-1.2,3.1-3.2
		c0-5.2-11.7-4.6-11.7-12.9c0-3.2,2.7-6.7,6.6-6.7c2.2,0,4.2,1.6,5.9,1.6c0.6,0,1-0.4,1-1.6h0.1v8.7h-0.1c-0.2-2.3-2.5-8.6-6.9-8.6
		c-2,0-3.4,1.5-3.4,3.3c0,4.7,12.2,4.2,12.2,12.6c0,3.9-2.9,6.9-6.9,6.9C87.8,177.6,86.4,175.8,84.3,175.8z"/>
	<path fill="#FFFFFF" d="M116.7,177.5c-5.5,0-10.9-5.3-10.9-11.4c0-6.1,5.4-11.4,10.9-11.4s10.9,5.3,10.9,11.4
		C127.6,172.1,122.2,177.5,116.7,177.5z M116.7,154.8c-3.4,0-3.5,5.1-3.5,11.3s0.1,11.3,3.5,11.3c3.4,0,3.5-5.1,3.5-11.3
		S120.1,154.8,116.7,154.8z"/>
	<path fill="#FFFFFF" d="M153.9,176.9h-12.4v-0.1h2v-17.1c0-3.2-0.4-4.4-1.8-4.4c-1.5,0-2.9,1.8-3.5,4.3v17.2h2v0.1h-12.4v-0.1h3.5
		v-21.5h-3.5v-0.1h10.4v4c0.9-3.2,2.8-4.5,5.2-4.5c4.9,0,7,3.6,7,8v14.2L153.9,176.9L153.9,176.9z"/>
	<path fill="#FFFFFF" d="M161.5,166v1.2c0,6,0.3,9.6,4.7,9.6c4,0,6.7-2.8,7.8-7.5h0.1c-1.1,5.1-4.1,8.2-9.5,8.2
		c-5.5,0-10.4-5.3-10.4-11.4c0-6.1,4.9-11.4,10.4-11.4c5.6,0,10,5.2,10,11.4H161.5z M161.5,163.1v2.9h5.6c0-9.7-0.4-11.2-2.6-11.2
		C161.7,154.8,161.5,158.1,161.5,163.1z"/>
	<path fill="#FFFFFF" d="M193.4,177.5c-5.5,0-10.9-5.3-10.9-11.4c0-6.1,5.4-11.4,10.9-11.4s10.9,5.3,10.9,11.4
		C204.3,172.1,198.9,177.5,193.4,177.5z M193.4,154.8c-3.4,0-3.5,5.1-3.5,11.3s0.1,11.3,3.5,11.3c3.4,0,3.5-5.1,3.5-11.3
		S196.8,154.8,193.4,154.8z"/>
	<path fill="#FFFFFF" d="M223.7,148.2c0.2,0.6,0.2,1,0.2,1.3c0,2.1-1.3,4-3.7,4c-2,0-3.7-1.6-3.7-3.7c0-2,1.6-3.7,3.7-3.7
		c1.6,0,3.1,1.2,3.5,2.7c-0.4-2.3-2.2-3.7-4.4-3.7c-1.3,0-2.3,0.3-3,0.8c-1,0.7-1.4,1.8-1.4,3.3v6h3.5v0.1h-3.5v21.5h3.5v0.1h-13.9
		v-0.1h3.5v-21.5h-3.5v-0.1h3.5v-2.8c0-4.2,4.2-7.6,9.6-7.6C220.7,144.8,222.9,145.6,223.7,148.2z"/>
	<path fill="#FFFFFF" d="M241.3,155.3V174c0,1.2,0.5,2.1,1.5,2.1c1.4,0,1.6-1.6,1.6-3v-4.8h0.1v4.9c0,2.5-1,4.2-4.1,4.2
		c-4.2,0-6.1-2.7-6.1-6.8v-15.3h-3.4v-0.1h1.1c5.1,0,9.1-3.3,9.1-9.1h0.1V155.3l4.3-0.1v0.1H241.3z"/>
	<path fill="#FFFFFF" d="M271.9,176.9h-12.4v-0.1h2v-17.1c0-3.2-0.4-4.4-1.8-4.4c-1.5,0-2.9,1.8-3.5,4.3v17.2h2v0.1h-12.4v-0.1h3.5
		v-31.4h-3.5v-0.1h10.4v13.9c0.9-3.2,2.8-4.5,5.2-4.5c4.9,0,7,3.6,7,8v14.2L271.9,176.9L271.9,176.9z"/>
	<path fill="#FFFFFF" d="M279.5,166v1.2c0,6,0.3,9.6,4.7,9.6c4,0,6.7-2.8,7.8-7.5h0.1c-1.1,5.1-4.1,8.2-9.5,8.2
		c-5.5,0-10.4-5.3-10.4-11.4c0-6.1,4.9-11.4,10.4-11.4c5.6,0,10,5.2,10,11.4H279.5z M279.5,163.1v2.9h5.6c0-9.7-0.4-11.2-2.6-11.2
		C279.7,154.8,279.5,158.1,279.5,163.1z"/>
	<path fill="#FFFFFF" d="M316.6,176.9H306v-0.1h1.9v-18.6c0-1.4-0.2-2.9-1.6-2.9c-1.6,0-3.1,2.3-3.5,4.3v17.2h1.7v0.1h-11.7v-0.1h3
		v-21.5h-3v-0.1h10v4c0.9-3.2,2.9-4.5,5.2-4.5c3.6,0,5.4,1.9,6.3,4.5c0.9-3.2,3.2-4.5,5.5-4.5c4.9,0,7,3.6,7,8v14.2h3v0.1h-11.9
		v-0.1h1.9v-17.1c0-3.2-0.3-4.4-1.8-4.4c-1.8,0-3.3,2.1-3.8,4.1c0.3,1,0.5,2.1,0.5,3.2v14.2L316.6,176.9L316.6,176.9z"/>
	<path fill="#FFFFFF" d="M334.6,170c2,0,3.6,1.6,3.6,3.6c0,2-1.6,3.7-3.6,3.7c-2,0-3.7-1.6-3.7-3.7C330.9,171.6,332.6,170,334.6,170
		z"/>
</g>
<g>
	<path fill="#333333" d="M0,30.6C0,21.8,6,8,21.9,0l2.1,3.4c-10.9,7.6-13.8,17.1-14,21.6c4.1,0.5,8.1,4.4,8.1,8.6
		c0,4.9-4.2,8.6-8.6,8.6C4.4,42.3,0,38.2,0,30.6z M28.4,30.6c0-8.8,6-22.6,21.9-30.6l2.1,3.4c-10.9,7.6-13.8,17.1-14,21.6
		c4.1,0.5,8.1,4.4,8.1,8.6c0,4.9-4.2,8.6-8.6,8.6C32.8,42.3,28.4,38.2,28.4,30.6z"/>
</g>
</svg>
