<?xml version="1.0" encoding="utf-8"?>
<!-- Generator: Adobe Illustrator 18.1.0, SVG Export Plug-In . SVG Version: 6.00 Build 0)  -->
<svg version="1.1" id="Layer_1" xmlns="http://www.w3.org/2000/svg" xmlns:xlink="http://www.w3.org/1999/xlink" x="0px" y="0px"
	 viewBox="0 0 306 389" enable-background="new 0 0 306 389" xml:space="preserve">
<g>
	<path fill="#FFFFFF" d="M65,379c-0.2,0.9-0.7,1.6-1.5,1.6c-1,0-1.6-1.5-2.5-1.5c-0.5,0-0.9,0.4-1,1.2l-0.5-0.5
		c0.1-0.8,0.7-1.6,1.5-1.6c1.1,0,1.8,1.5,2.6,1.5c0.6,0,0.8-0.5,1-1.2L65,379z"/>
	<path fill="#FFFFFF" d="M79.3,375.1c-0.9-0.9-1.9-1.4-3.1-1.4c-2.5,0-4.3,1.8-4.3,5c0,3.2,1.9,5,4.2,5c1.2,0,2.3-0.4,3-1v-3.3h-3.5
		v-1h4.6v5c-0.9,0.8-2.6,1.4-4.2,1.4c-3,0-5.3-2.3-5.3-6c0-3.8,2.4-6.1,5.3-6.1c1.6,0,2.8,0.6,3.8,1.6L79.3,375.1z"/>
	<path fill="#FFFFFF" d="M83.4,380.5c0.1,2,1,3.4,3.1,3.4c1.1,0,1.9-0.5,2.6-1.1l0.5,0.9c-0.8,0.7-1.9,1.2-3.2,1.2
		c-2.9,0-4.1-2-4.1-4.8c0-2.8,1.5-4.8,4-4.8c2.4,0,3.4,1.7,3.4,3.7c0,0.5-0.1,1-0.2,1.5H83.4z M88.6,379.6c0-0.2,0.1-0.4,0.1-0.7
		c0-1.4-0.8-2.6-2.4-2.6c-1.8,0-2.8,1.4-2.9,3.3H88.6z"/>
	<path fill="#FFFFFF" d="M95.7,375.3c2.5,0,4.1,1.8,4.1,4.8c0,2.9-1.7,4.8-4.1,4.8c-2.4,0-4.1-1.8-4.1-4.8
		C91.6,377.2,93.2,375.3,95.7,375.3z M95.7,383.8c1.8,0,3-1.4,3-3.7c0-2.3-1.2-3.7-3-3.7c-1.8,0-3,1.4-3,3.7
		C92.7,382.4,93.9,383.8,95.7,383.8z"/>
	<path fill="#FFFFFF" d="M102.2,384.6v-9.1h1.1v1.6c0.4-1.2,1.1-1.8,2.2-1.8c0.6,0,1.1,0.2,1.5,0.5l-0.3,1c-0.4-0.3-0.8-0.5-1.3-0.5
		c-1.1,0-1.7,0.9-2.1,2.3v5.9H102.2z"/>
	<path fill="#FFFFFF" d="M111.8,375.4c1.1,0,2,0.5,2.6,1.2v-1h1.1v8.7c0,2.7-1.6,3.8-3.5,3.8c-1.6,0-2.5-0.6-3-0.9l0.3-1
		c0.5,0.3,1.4,1,2.6,1c1.4,0,2.5-0.7,2.5-2.7v-1.4c-0.6,0.7-1.5,1.2-2.6,1.2c-2.2,0-3.7-1.8-3.7-4.3
		C108.1,377.2,109.6,375.4,111.8,375.4z M112.1,383.1c1,0,1.8-0.6,2.3-1.2v-4.2c-0.5-0.6-1.2-1.2-2.3-1.2c-1.8,0-2.9,1.3-2.9,3.3
		C109.2,381.8,110.4,383.1,112.1,383.1z"/>
	<path fill="#FFFFFF" d="M119,380.5c0.1,2,1,3.4,3.1,3.4c1.1,0,1.9-0.5,2.6-1.1l0.5,0.9c-0.8,0.7-1.9,1.2-3.2,1.2
		c-2.9,0-4.1-2-4.1-4.8c0-2.8,1.5-4.8,4-4.8c2.4,0,3.4,1.7,3.4,3.7c0,0.5-0.1,1-0.2,1.5H119z M124.3,379.6c0-0.2,0.1-0.4,0.1-0.7
		c0-1.4-0.8-2.6-2.4-2.6c-1.8,0-2.8,1.4-2.9,3.3H124.3z"/>
	<path fill="#FFFFFF" d="M131.5,372.9h3.6c2.1,0,3.3,1,3.3,3c0,1.4-0.7,2.2-1.8,2.6c1.6,0.3,2.6,1.2,2.6,3c0,1.9-1.2,3.1-3.4,3.1
		h-4.3V372.9z M132.6,378.1h2.3c1.5,0,2.4-0.7,2.4-2.1c0-1.5-0.8-2.1-2.3-2.1h-2.4V378.1z M132.6,383.6h3.1c1.6,0,2.4-0.8,2.4-2.2
		c0-1.6-1-2.3-2.7-2.3h-2.7V383.6z"/>
	<path fill="#FFFFFF" d="M146.6,384.6v-1c-0.6,0.6-1.5,1.1-2.8,1.1c-1.8,0-2.9-1.1-2.9-2.8c0-2.2,1.8-3.2,4.1-3.2
		c0.5,0,1.1,0.1,1.6,0.2v-0.4c0-1.5-0.8-2.2-2.2-2.2c-0.9,0-1.8,0.2-2.5,0.6l-0.2-1c0.8-0.4,2-0.6,2.9-0.6c2,0,3.1,1.1,3.1,3.3v6
		H146.6z M144.2,383.9c1.2,0,2-0.6,2.4-1.1v-2.8c-0.3-0.1-1-0.2-1.5-0.2c-1.7,0-3,0.7-3,2.2C142.1,383.2,142.9,383.9,144.2,383.9z"
		/>
	<path fill="#FFFFFF" d="M151.7,372.3v10.3c0,0.9,0.3,1.2,0.8,1.2c0.4,0,0.7-0.2,1-0.4l0.1,0.9c-0.3,0.2-0.9,0.5-1.5,0.5
		c-1,0-1.6-0.5-1.6-1.9v-10.6H151.7z"/>
	<path fill="#FFFFFF" d="M160.4,384.6v-1c-0.6,0.6-1.5,1.1-2.8,1.1c-1.8,0-2.9-1.1-2.9-2.8c0-2.2,1.8-3.2,4.1-3.2
		c0.5,0,1.1,0.1,1.6,0.2v-0.4c0-1.5-0.8-2.2-2.2-2.2c-0.9,0-1.8,0.2-2.5,0.6l-0.2-1c0.8-0.4,2-0.6,2.9-0.6c2,0,3.1,1.1,3.1,3.3v6
		H160.4z M157.9,383.9c1.2,0,2-0.6,2.4-1.1v-2.8c-0.3-0.1-1-0.2-1.5-0.2c-1.7,0-3,0.7-3,2.2C155.9,383.2,156.7,383.9,157.9,383.9z"
		/>
	<path fill="#FFFFFF" d="M170.4,384.6v-5.5c0-1.7-0.7-2.7-2.3-2.7c-1.4,0-2.3,1-2.6,2.1v6h-1.1v-9.1h1.1v1.5c0.6-1,1.6-1.7,3-1.7
		c2,0,3,1.3,3,3.6v5.7H170.4z"/>
	<path fill="#FFFFFF" d="M177.9,383.8c1.1,0,1.8-0.4,2.4-1.1l0.6,0.8c-0.7,0.8-1.6,1.3-2.9,1.3c-2.4,0-4.1-1.9-4.1-4.8
		c0-2.9,1.6-4.8,4.1-4.8c1.3,0,2.2,0.5,2.9,1.3l-0.6,0.8c-0.6-0.7-1.3-1.1-2.4-1.1c-1.8,0-2.9,1.4-2.9,3.7
		C174.9,382.4,176.1,383.8,177.9,383.8z"/>
	<path fill="#FFFFFF" d="M189.2,384.6v-5.5c0-1.7-0.7-2.7-2.3-2.7c-1.4,0-2.3,1-2.6,2.1v6h-1.1v-12.3h1.1v4.8c0.6-1,1.6-1.7,3-1.7
		c2,0,3,1.3,3,3.6v5.7H189.2z"/>
	<path fill="#FFFFFF" d="M193.7,372.3c0.4,0,0.7,0.2,0.7,0.7c0,0.5-0.3,0.7-0.7,0.7c-0.5,0-0.8-0.2-0.8-0.7
		C192.9,372.5,193.2,372.3,193.7,372.3z M193.1,384.6v-9.1h1.1v9.1H193.1z"/>
	<path fill="#FFFFFF" d="M203.2,384.6v-5.5c0-1.7-0.7-2.7-2.3-2.7c-1.4,0-2.3,1-2.6,2.1v6h-1.1v-9.1h1.1v1.5c0.6-1,1.6-1.7,3-1.7
		c2,0,3,1.3,3,3.6v5.7H203.2z"/>
	<path fill="#FFFFFF" d="M207.7,380.5c0.1,2,1,3.4,3.1,3.4c1.1,0,1.9-0.5,2.6-1.1l0.5,0.9c-0.8,0.7-1.9,1.2-3.2,1.2
		c-2.9,0-4.1-2-4.1-4.8c0-2.8,1.5-4.8,4-4.8c2.4,0,3.4,1.7,3.4,3.7c0,0.5-0.1,1-0.2,1.5H207.7z M212.9,379.6c0-0.2,0.1-0.4,0.1-0.7
		c0-1.4-0.8-2.6-2.4-2.6c-1.8,0-2.8,1.4-2.9,3.3H212.9z"/>
</g>
<g>
	<path fill="#333333" d="M223,326.2c9.8-6.9,12.4-15.4,12.6-19.5c-3.7-0.4-7.3-3.9-7.3-7.8c0-4.4,3.8-7.8,7.8-7.8
		c4.7,0,8.6,3.7,8.6,10.5c0,7.9-5.4,20.3-19.8,27.5L223,326.2z M248.6,326.2c9.8-6.9,12.4-15.4,12.6-19.5c-3.7-0.4-7.3-3.9-7.3-7.8
		c0-4.4,3.8-7.8,7.8-7.8c4.7,0,8.6,3.7,8.6,10.5c0,7.9-5.4,20.3-19.8,27.5L248.6,326.2z"/>
</g>
<g>
	<path fill="#FFFFFF" d="M70.1,65.5h3.4v0.1H60.1v-0.1h3.4V38.4h-3.4v-0.1h13.4v0.1h-3.4V65.5z"/>
	<path fill="#FFFFFF" d="M93.1,37.3H90v-0.1h9.4v28.3h3.1v0.1h-9.4V62c-0.8,2.9-2.5,4.1-4.7,4.1c-3.7,0-7.5-4.3-7.5-10.3
		c0-5.9,3.8-10.3,7.5-10.3c2.1,0,3.9,1.2,4.7,4.1V37.3z M93.1,50c-0.5-2.2-1.8-3.9-3.1-3.9c-1.8,0-2.5,1.9-2.5,7.5V58
		c0,5.7,0.6,7.5,2.5,7.5c1.4,0,2.6-1.6,3.1-3.9V50z"/>
	<path fill="#FFFFFF" d="M112.5,66.1c-5,0-9.8-4.8-9.8-10.3c0-5.5,4.8-10.3,9.8-10.3s9.8,4.8,9.8,10.3
		C122.2,61.3,117.4,66.1,112.5,66.1z M112.5,45.7c-3,0-3.1,4.6-3.1,10.2s0.1,10.2,3.1,10.2s3.2-4.6,3.2-10.2S115.5,45.7,112.5,45.7z
		"/>
	<path fill="#FFFFFF" d="M146,65.6h-11.2v-0.1h1.8V50.2c0-2.9-0.4-4-1.6-4c-1.4,0-2.6,1.6-3.1,3.9v15.5h1.8v0.1h-11.2v-0.1h3.1V46.2
		h-3.1v-0.1h9.4v3.6c0.8-2.9,2.5-4.1,4.7-4.1c4.4,0,6.3,3.2,6.3,7.2v12.8L146,65.6L146,65.6z"/>
	<path fill="#FFFFFF" d="M148.1,51.8c0-4.3-2.7-8.3-2.7-11.4c0-1.5,1.1-2.7,2.7-2.7s2.7,1.2,2.7,2.7
		C150.8,43.5,148.1,47.6,148.1,51.8L148.1,51.8z"/>
	<path fill="#FFFFFF" d="M160.7,46.2V63c0,1.1,0.4,1.9,1.4,1.9c1.2,0,1.5-1.4,1.5-2.7v-4.3h0.1v4.4c0,2.3-0.9,3.8-3.7,3.8
		c-3.7,0-5.5-2.5-5.5-6.2V46.2h-3.1v-0.1h1c4.6,0,8.2-2.9,8.2-8.2h0.1V46.2l3.9-0.1v0.1H160.7z"/>
	<path fill="#FFFFFF" d="M202.4,46.2l-3.1,0L193,66.3L187.1,52l-4.5,14.2l-8.3-20.1h-3.1v-0.1H194v0.1h-2.5l4.4,10.3l3.2-10.3H196
		v-0.1h6.4V46.2z M185.5,56.5l1.4-4.6l-2.3-5.7h-3.5L185.5,56.5z"/>
	<path fill="#FFFFFF" d="M203.2,50.1c0.4-1.4,1.8-2.5,3.2-2.5c1.8,0,3.3,1.5,3.3,3.3s-1.5,3.3-3.3,3.3c-2.2,0-3.3-1.7-3.3-3.6
		c0-0.3,0-0.6,0.2-1.2c1.1-2.8,4.4-3.9,6.6-3.9c5.8,0,9.1,2.8,9.1,6.9v10.3c0,1.6,0.5,2.3,1.5,2.3c0.4,0,0.7-0.1,0.9-0.3
		c0.5-0.5,0.7-1.3,0.7-1.6h0.1c-0.3,1.4-1.1,2.9-3.5,2.9c-3.3,0-5.6-2.1-5.9-4.3c-0.2,1.6-1.4,4.3-5.5,4.3c-3.3,0-5.3-2.1-5.3-5
		c0-3.1,2.4-5.1,5-5.6c2-0.4,2.2-0.1,3.3-0.4c0.9-0.2,1.6-1.1,2.3-2v-4c0-2.3-1.1-3.3-3.3-3.3C206.8,45.8,203.8,47.5,203.2,50.1z
		 M212.8,53.3c-0.8,1.2-1.4,1.6-2.3,2.1c-1.2,0.7-2.1,1.7-2.1,3.6v3.5c0,1.9,0.2,3,1.3,3c1.8,0,3.1-2.3,3.1-3.7V53.3z"/>
	<path fill="#FFFFFF" d="M246.3,65.6h-11.2v-0.1h1.8V50.2c0-2.9-0.4-4-1.6-4c-1.4,0-2.6,1.6-3.1,3.9v15.5h1.8v0.1h-11.2v-0.1h3.1
		V46.2h-3.1v-0.1h9.4v3.6c0.8-2.9,2.5-4.1,4.7-4.1c4.4,0,6.3,3.2,6.3,7.2v12.8L246.3,65.6L246.3,65.6z"/>
	<path fill="#FFFFFF" d="M254.7,46.2V63c0,1.1,0.4,1.9,1.4,1.9c1.2,0,1.5-1.4,1.5-2.7v-4.3h0.1v4.4c0,2.3-0.9,3.8-3.7,3.8
		c-3.7,0-5.5-2.5-5.5-6.2V46.2h-3.1v-0.1h1c4.6,0,8.2-2.9,8.2-8.2h0.1V46.2l3.9-0.1v0.1H254.7z"/>
	<path fill="#FFFFFF" d="M69.3,121.4h3.1v0.1H60v-0.1h3.1V93H60v-0.1h9.4v3.6c0.8-2.9,2.5-4.1,4.7-4.1c3.7,0,7.5,4.3,7.5,10.3
		c0,5.9-3.8,10.3-7.5,10.3c-2.1,0-3.9-1.2-4.7-4.1V121.4z M69.3,108.5c0.5,2.2,1.8,3.9,3.1,3.9c1.8,0,2.5-1.9,2.5-7.5v-4.3
		c0-5.7-0.6-7.5-2.5-7.5c-1.4,0-2.6,1.6-3.1,3.9V108.5z"/>
	<path fill="#FFFFFF" d="M89.9,102.6v1.1c0,5.4,0.2,8.6,4.3,8.6c3.6,0,6-2.5,7-6.8h0.1c-1,4.6-3.7,7.4-8.6,7.4
		c-5,0-9.4-4.8-9.4-10.3c0-5.5,4.4-10.3,9.4-10.3c5.1,0,9,4.7,9,10.2H89.9z M89.9,100v2.6H95c0-8.7-0.4-10.1-2.3-10.1
		C90.1,92.5,89.9,95.5,89.9,100z"/>
	<path fill="#FFFFFF" d="M112.7,112.9c-5,0-9.8-4.8-9.8-10.3c0-5.5,4.8-10.3,9.8-10.3s9.8,4.8,9.8,10.3
		C122.5,108.1,117.7,112.9,112.7,112.9z M112.7,92.5c-3,0-3.1,4.6-3.1,10.2s0.1,10.2,3.1,10.2s3.2-4.6,3.2-10.2
		S115.8,92.5,112.7,92.5z"/>
	<path fill="#FFFFFF" d="M132.2,121.4h3.1v0.1h-12.5v-0.1h3.1V93h-3.1v-0.1h9.4v3.6c0.8-2.9,2.5-4.1,4.7-4.1c3.7,0,7.5,4.3,7.5,10.3
		c0,5.9-3.8,10.3-7.5,10.3c-2.1,0-3.9-1.2-4.7-4.1V121.4z M132.2,108.5c0.5,2.2,1.8,3.9,3.1,3.9c1.8,0,2.5-1.9,2.5-7.5v-4.3
		c0-5.7-0.6-7.5-2.5-7.5c-1.4,0-2.6,1.6-3.1,3.9V108.5z"/>
	<path fill="#FFFFFF" d="M144.8,112.4L144.8,112.4l3.1-0.1V84.1h-3.1V84h9.4v28.3h3.1v0.1H144.8z"/>
	<path fill="#FFFFFF" d="M164.1,102.6v1.1c0,5.4,0.2,8.6,4.3,8.6c3.6,0,6-2.5,7-6.8h0.1c-1,4.6-3.7,7.4-8.6,7.4
		c-5,0-9.4-4.8-9.4-10.3c0-5.5,4.4-10.3,9.4-10.3c5.1,0,9,4.7,9,10.2H164.1z M164.1,100v2.6h5.1c0-8.7-0.4-10.1-2.3-10.1
		C164.3,92.5,164.1,95.5,164.1,100z"/>
	<path fill="#FFFFFF" d="M213.8,93l-3.1,0l-6.3,20.1l-5.9-14.2l-4.5,14.2L185.6,93h-3.1v-0.1h22.9V93h-2.5l4.4,10.3l3.2-10.3h-3.2
		v-0.1h6.4V93z M196.9,103.3l1.4-4.6L196,93h-3.5L196.9,103.3z"/>
	<path fill="#FFFFFF" d="M236.7,112.4h-11.2v-0.1h1.8V97c0-2.9-0.4-4-1.6-4c-1.4,0-2.6,1.6-3.1,3.9v15.5h1.8v0.1h-11.2v-0.1h3.1
		V84.1h-3.1V84h9.4v12.5c0.8-2.9,2.5-4.1,4.7-4.1c4.4,0,6.3,3.2,6.3,7.2v12.8L236.7,112.4L236.7,112.4z"/>
	<path fill="#FFFFFF" d="M246.6,112.9c-5,0-9.8-4.8-9.8-10.3c0-5.5,4.8-10.3,9.8-10.3s9.8,4.8,9.8,10.3
		C256.4,108.1,251.5,112.9,246.6,112.9z M246.6,92.5c-3,0-3.1,4.6-3.1,10.2s0.1,10.2,3.1,10.2s3.2-4.6,3.2-10.2
		S249.6,92.5,246.6,92.5z"/>
	<path fill="#FFFFFF" d="M91,139.8l-3.1,0l-6.3,20.1l-5.9-14.2l-4.5,14.2l-8.3-20.1h-3.1v-0.1h22.9v0.1h-2.5l4.4,10.3l3.2-10.3h-3.2
		v-0.1H91V139.8z M74.1,150.1l1.4-4.6l-2.3-5.7h-3.5L74.1,150.1z"/>
	<path fill="#FFFFFF" d="M91.8,143.7c0.4-1.4,1.8-2.5,3.2-2.5c1.8,0,3.3,1.5,3.3,3.3s-1.5,3.3-3.3,3.3c-2.2,0-3.3-1.7-3.3-3.6
		c0-0.3,0-0.6,0.2-1.2c1.1-2.8,4.4-3.9,6.6-3.9c5.8,0,9.1,2.8,9.1,6.9v10.3c0,1.6,0.5,2.3,1.5,2.3c0.4,0,0.7-0.1,0.9-0.3
		c0.5-0.5,0.7-1.3,0.7-1.6h0.1c-0.3,1.4-1.1,2.9-3.5,2.9c-3.3,0-5.6-2.1-5.9-4.3c-0.2,1.6-1.4,4.3-5.5,4.3c-3.3,0-5.3-2.1-5.3-5
		c0-3.1,2.4-5.1,5-5.6c2-0.4,2.2-0.1,3.3-0.4c0.9-0.2,1.6-1.1,2.3-2v-4c0-2.3-1.1-3.3-3.3-3.3C95.3,139.4,92.4,141.1,91.8,143.7z
		 M101.3,146.9c-0.8,1.2-1.4,1.6-2.3,2.1c-1.2,0.7-2.1,1.7-2.1,3.6v3.5c0,1.9,0.2,3,1.3,3c1.8,0,3.1-2.3,3.1-3.7V146.9z"/>
	<path fill="#FFFFFF" d="M134.9,159.2h-11.2v-0.1h1.8v-15.4c0-2.9-0.4-4-1.6-4c-1.4,0-2.6,1.6-3.1,3.9v15.5h1.8v0.1h-11.2v-0.1h3.1
		v-19.3h-3.1v-0.1h9.4v3.6c0.8-2.9,2.5-4.1,4.7-4.1c4.4,0,6.3,3.2,6.3,7.2v12.8L134.9,159.2L134.9,159.2z"/>
	<path fill="#FFFFFF" d="M143.3,139.8v16.8c0,1.1,0.4,1.9,1.4,1.9c1.2,0,1.5-1.4,1.5-2.7v-4.3h0.1v4.4c0,2.3-0.9,3.8-3.7,3.8
		c-3.7,0-5.5-2.5-5.5-6.2v-13.8h-3.1v-0.1h1c4.6,0,8.2-2.9,8.2-8.2h0.1V139.8l3.9-0.1v0.1H143.3z"/>
	<path fill="#FFFFFF" d="M163.1,139.8v16.8c0,1.1,0.4,1.9,1.4,1.9c1.2,0,1.5-1.4,1.5-2.7v-4.3h0.1v4.4c0,2.3-0.9,3.8-3.7,3.8
		c-3.7,0-5.5-2.5-5.5-6.2v-13.8h-3.1v-0.1h1c4.6,0,8.2-2.9,8.2-8.2h0.1V139.8l3.9-0.1v0.1H163.1z"/>
	<path fill="#FFFFFF" d="M177.4,159.7c-5,0-9.8-4.8-9.8-10.3c0-5.5,4.8-10.3,9.8-10.3s9.8,4.8,9.8,10.3
		C187.2,154.9,182.4,159.7,177.4,159.7z M177.4,139.3c-3,0-3.1,4.6-3.1,10.2s0.1,10.2,3.1,10.2s3.2-4.6,3.2-10.2
		S180.5,139.3,177.4,139.3z"/>
	<path fill="#FFFFFF" d="M207,130.9h-3.1v-0.1h9.4v28.3h3.1v0.1H207v-3.6c-0.8,2.9-2.5,4.1-4.7,4.1c-3.7,0-7.5-4.3-7.5-10.3
		c0-5.9,3.8-10.3,7.5-10.3c2.1,0,3.9,1.2,4.7,4.1V130.9z M207,143.7c-0.5-2.2-1.8-3.9-3.1-3.9c-1.8,0-2.5,1.9-2.5,7.5v4.3
		c0,5.7,0.6,7.5,2.5,7.5c1.4,0,2.6-1.6,3.1-3.9V143.7z"/>
	<path fill="#FFFFFF" d="M218.2,143.7c0.4-1.4,1.8-2.5,3.2-2.5c1.8,0,3.3,1.5,3.3,3.3s-1.5,3.3-3.3,3.3c-2.2,0-3.3-1.7-3.3-3.6
		c0-0.3,0-0.6,0.2-1.2c1.1-2.8,4.4-3.9,6.6-3.9c5.8,0,9.1,2.8,9.1,6.9v10.3c0,1.6,0.5,2.3,1.5,2.3c0.4,0,0.7-0.1,0.9-0.3
		c0.5-0.5,0.7-1.3,0.7-1.6h0.1c-0.3,1.4-1.1,2.9-3.5,2.9c-3.3,0-5.6-2.1-5.9-4.3c-0.2,1.6-1.4,4.3-5.5,4.3c-3.3,0-5.3-2.1-5.3-5
		c0-3.1,2.4-5.1,5-5.6c2-0.4,2.2-0.1,3.3-0.4c0.9-0.2,1.6-1.1,2.3-2v-4c0-2.3-1.1-3.3-3.3-3.3C221.7,139.4,218.8,141.1,218.2,143.7z
		 M227.7,146.9c-0.8,1.2-1.4,1.6-2.3,2.1c-1.2,0.7-2.1,1.7-2.1,3.6v3.5c0,1.9,0.2,3,1.3,3c1.8,0,3.1-2.3,3.1-3.7V146.9z"/>
	<path fill="#FFFFFF" d="M261.3,159.2h-11.2v-0.1h1.8v-15.4c0-2.9-0.4-4-1.6-4c-1.4,0-2.6,1.6-3.1,3.9v15.5h1.8v0.1h-11.2v-0.1h3.1
		v-19.3h-3.1v-0.1h9.4v3.6c0.8-2.9,2.5-4.1,4.7-4.1c4.4,0,6.3,3.2,6.3,7.2v12.8L261.3,159.2L261.3,159.2z"/>
	<path fill="#FFFFFF" d="M268.1,149.5c0,3.2,0.1,9.6,4.5,9.6c3.5,0,5.4-2.8,5.6-7.5h0.1c-0.2,4.7-2.1,8.1-7.2,8.1
		c-5.1,0-9.6-4.4-9.6-10.3c0-5.4,4.1-10.3,9.9-10.3c3.6,0,5.4,1.7,6.1,3.9c0.2,0.5,0.2,0.9,0.2,1.2c0,1.9-1.1,3.6-3.3,3.6
		c-1.8,0-3.3-1.5-3.3-3.3s1.5-3.3,3.3-3.3c1.4,0,2.8,1.1,3.2,2.5c-0.4-2-2-4.3-5.5-4.3C268.5,139.4,268.1,143.9,268.1,149.5z"/>
	<path fill="#FFFFFF" d="M286,149.4v1.1c0,5.4,0.2,8.6,4.3,8.6c3.6,0,6-2.5,7-6.8h0.1c-1,4.6-3.7,7.4-8.6,7.4c-5,0-9.4-4.8-9.4-10.3
		c0-5.5,4.4-10.3,9.4-10.3c5.1,0,9,4.7,9,10.2H286z M286,146.8v2.6h5.1c0-8.7-0.4-10.1-2.3-10.1C286.2,139.3,286,142.3,286,146.8z"
		/>
	<path fill="#FFFFFF" d="M301.1,161.8c3.1-0.5,4.4-2.1,4.6-4.7c-0.3,1.4-1.7,2.5-3.2,2.5c-1.8,0-3.3-1.5-3.3-3.3s1.5-3.3,3.3-3.3
		c2.2,0,3.3,1.7,3.3,3.6C305.8,159.3,304.5,161.4,301.1,161.8L301.1,161.8z"/>
	<path fill="#FFFFFF" d="M70.1,205.9h3.4v0.1H60.1v-0.1h3.4v-27.1h-3.4v-0.1h13.4v0.1h-3.4V205.9z"/>
	<path fill="#FFFFFF" d="M111.6,186.6l-3.1,0l-6.3,20.1l-5.9-14.2l-4.5,14.2l-8.3-20.1h-3.1v-0.1h22.9v0.1h-2.5l4.4,10.3l3.2-10.3
		h-3.2v-0.1h6.4V186.6z M94.7,196.9l1.4-4.6l-2.3-5.7h-3.5L94.7,196.9z"/>
	<path fill="#FFFFFF" d="M112.4,190.5c0.4-1.4,1.8-2.5,3.2-2.5c1.8,0,3.3,1.5,3.3,3.3c0,1.8-1.5,3.3-3.3,3.3c-2.2,0-3.3-1.7-3.3-3.6
		c0-0.3,0-0.6,0.2-1.2c1.1-2.8,4.4-3.9,6.6-3.9c5.8,0,9.1,2.8,9.1,6.9v10.3c0,1.6,0.5,2.3,1.5,2.3c0.4,0,0.7-0.1,0.9-0.3
		c0.5-0.5,0.7-1.3,0.7-1.6h0.1c-0.3,1.4-1.1,2.9-3.5,2.9c-3.3,0-5.6-2.1-5.9-4.3c-0.2,1.6-1.4,4.3-5.5,4.3c-3.3,0-5.3-2.1-5.3-5
		c0-3.1,2.4-5.1,5-5.6c2-0.4,2.2-0.1,3.3-0.4c0.9-0.2,1.6-1.1,2.3-2v-4c0-2.3-1.1-3.3-3.3-3.3C116,186.2,113,188,112.4,190.5z
		 M122,193.7c-0.8,1.2-1.4,1.6-2.3,2.1c-1.2,0.7-2.1,1.7-2.1,3.6v3.5c0,1.9,0.2,3,1.3,3c1.8,0,3.1-2.3,3.1-3.7V193.7z"/>
	<path fill="#FFFFFF" d="M155.5,206h-11.2v-0.1h1.8v-15.4c0-2.9-0.4-4-1.6-4c-1.4,0-2.6,1.6-3.1,3.9v15.5h1.8v0.1H132v-0.1h3.1
		v-19.3H132v-0.1h9.4v3.6c0.8-2.9,2.5-4.1,4.7-4.1c4.4,0,6.3,3.2,6.3,7.2v12.8L155.5,206L155.5,206z"/>
	<path fill="#FFFFFF" d="M163.9,186.6v16.8c0,1.1,0.4,1.9,1.4,1.9c1.2,0,1.5-1.4,1.5-2.7v-4.3h0.1v4.4c0,2.3-0.9,3.8-3.7,3.8
		c-3.7,0-5.5-2.5-5.5-6.2v-13.8h-3.1v-0.1h1c4.6,0,8.2-2.9,8.2-8.2h0.1V186.6l3.9-0.1v0.1H163.9z"/>
	<path fill="#FFFFFF" d="M184,215h3.1v0.1h-12.5V215h3.1v-28.4h-3.1v-0.1h9.4v3.6c0.8-2.9,2.5-4.1,4.7-4.1c3.7,0,7.5,4.3,7.5,10.3
		c0,5.9-3.8,10.3-7.5,10.3c-2.1,0-3.9-1.2-4.7-4.1V215z M184,202.1c0.5,2.2,1.8,3.9,3.1,3.9c1.8,0,2.5-1.9,2.5-7.5v-4.3
		c0-5.7-0.6-7.5-2.5-7.5c-1.4,0-2.6,1.6-3.1,3.9V202.1z"/>
	<path fill="#FFFFFF" d="M204.5,196.2v1.1c0,5.4,0.2,8.6,4.3,8.6c3.6,0,6-2.5,7-6.8h0.1c-1,4.6-3.7,7.4-8.6,7.4
		c-5,0-9.4-4.8-9.4-10.3c0-5.5,4.4-10.3,9.4-10.3c5.1,0,9,4.7,9,10.2H204.5z M204.5,193.6v2.6h5.1c0-8.7-0.4-10.1-2.3-10.1
		C204.7,186.1,204.5,189.1,204.5,193.6z"/>
	<path fill="#FFFFFF" d="M227.3,206.5c-5,0-9.8-4.8-9.8-10.3c0-5.5,4.8-10.3,9.8-10.3s9.8,4.8,9.8,10.3
		C237.1,201.7,232.3,206.5,227.3,206.5z M227.3,186.1c-3,0-3.1,4.6-3.1,10.2s0.1,10.2,3.1,10.2s3.2-4.6,3.2-10.2
		S230.4,186.1,227.3,186.1z"/>
	<path fill="#FFFFFF" d="M246.8,215h3.1v0.1h-12.5V215h3.1v-28.4h-3.1v-0.1h9.4v3.6c0.8-2.9,2.5-4.1,4.7-4.1c3.7,0,7.5,4.3,7.5,10.3
		c0,5.9-3.8,10.3-7.5,10.3c-2.1,0-3.9-1.2-4.7-4.1V215z M246.8,202.1c0.5,2.2,1.8,3.9,3.1,3.9c1.8,0,2.5-1.9,2.5-7.5v-4.3
		c0-5.7-0.6-7.5-2.5-7.5c-1.4,0-2.6,1.6-3.1,3.9V202.1z"/>
	<path fill="#FFFFFF" d="M259.4,206L259.4,206l3.1-0.1v-28.2h-3.1v-0.1h9.4v28.3h3.1v0.1H259.4z"/>
	<path fill="#FFFFFF" d="M278.7,196.2v1.1c0,5.4,0.2,8.6,4.3,8.6c3.6,0,6-2.5,7-6.8h0.1c-1,4.6-3.7,7.4-8.6,7.4
		c-5,0-9.4-4.8-9.4-10.3c0-5.5,4.4-10.3,9.4-10.3c5.1,0,9,4.7,9,10.2H278.7z M278.7,193.6v2.6h5.1c0-8.7-0.4-10.1-2.3-10.1
		C278.9,186.1,278.7,189.1,278.7,193.6z"/>
	<path fill="#FFFFFF" d="M91,233.4l-3.1,0l-6.3,20.1l-5.9-14.2l-4.5,14.2l-8.3-20.1h-3.1v-0.1h22.9v0.1h-2.5l4.4,10.3l3.2-10.3h-3.2
		v-0.1H91V233.4z M74.1,243.7l1.4-4.6l-2.3-5.7h-3.5L74.1,243.7z"/>
	<path fill="#FFFFFF" d="M114,252.8h-11.2v-0.1h1.8v-15.4c0-2.9-0.4-4-1.6-4c-1.4,0-2.6,1.6-3.1,3.9v15.5h1.8v0.1H90.5v-0.1h3.1
		v-28.2h-3.1v-0.1h9.4v12.5c0.8-2.9,2.5-4.1,4.7-4.1c4.4,0,6.3,3.2,6.3,7.2v12.8L114,252.8L114,252.8z"/>
	<path fill="#FFFFFF" d="M123.8,253.3c-5,0-9.8-4.8-9.8-10.3c0-5.5,4.8-10.3,9.8-10.3s9.8,4.8,9.8,10.3
		C133.6,248.5,128.8,253.3,123.8,253.3z M123.8,232.9c-3,0-3.1,4.6-3.1,10.2s0.1,10.2,3.1,10.2s3.2-4.6,3.2-10.2
		S126.9,232.9,123.8,232.9z"/>
	<path fill="#FFFFFF" d="M164.4,252.8h-11.2v-0.1h1.8v-15.4c0-2.9-0.4-4-1.6-4c-1.4,0-2.6,1.6-3.1,3.9v15.5h1.8v0.1H141v-0.1h3.1
		v-28.2H141v-0.1h9.4v12.5c0.8-2.9,2.5-4.1,4.7-4.1c4.4,0,6.3,3.2,6.3,7.2v12.8L164.4,252.8L164.4,252.8z"/>
	<path fill="#FFFFFF" d="M166.2,237.3c0.4-1.4,1.8-2.5,3.2-2.5c1.8,0,3.3,1.5,3.3,3.3c0,1.8-1.5,3.3-3.3,3.3c-2.2,0-3.3-1.7-3.3-3.6
		c0-0.3,0-0.6,0.2-1.2c1.1-2.8,4.4-3.9,6.6-3.9c5.8,0,9.1,2.8,9.1,6.9V250c0,1.6,0.5,2.3,1.5,2.3c0.4,0,0.7-0.1,0.9-0.3
		c0.5-0.5,0.7-1.3,0.7-1.6h0.1c-0.3,1.4-1.1,2.9-3.5,2.9c-3.3,0-5.6-2.1-5.9-4.3c-0.2,1.6-1.4,4.3-5.5,4.3c-3.3,0-5.3-2.1-5.3-5
		c0-3.1,2.4-5.1,5-5.6c2-0.4,2.2-0.1,3.3-0.4c0.9-0.2,1.6-1.1,2.3-2v-4c0-2.3-1.1-3.3-3.3-3.3C169.7,233,166.8,234.8,166.2,237.3z
		 M175.8,240.5c-0.8,1.2-1.4,1.6-2.3,2.1c-1.2,0.7-2.1,1.7-2.1,3.6v3.5c0,1.9,0.2,3,1.3,3c1.8,0,3.1-2.3,3.1-3.7V240.5z"/>
	<path fill="#FFFFFF" d="M203.4,233.4h-3.1l-6.3,20.1l-8.3-20.1h-3.1v-0.1H195v0.1h-2.5l4.4,10.3l3.2-10.3H197v-0.1L203.4,233.4
		L203.4,233.4z"/>
	<path fill="#FFFFFF" d="M208.9,243v1.1c0,5.4,0.2,8.6,4.3,8.6c3.6,0,6-2.5,7-6.8h0.1c-1,4.6-3.7,7.4-8.6,7.4c-5,0-9.4-4.8-9.4-10.3
		c0-5.5,4.4-10.3,9.4-10.3c5.1,0,9,4.7,9,10.2H208.9z M208.9,240.4v2.6h5.1c0-8.7-0.4-10.1-2.3-10.1
		C209,232.9,208.9,235.9,208.9,240.4z"/>
	<path fill="#FFFFFF" d="M69.1,280.2V297c0,1.1,0.4,1.9,1.4,1.9c1.2,0,1.5-1.4,1.5-2.7v-4.3H72v4.4c0,2.3-0.9,3.8-3.7,3.8
		c-3.7,0-5.5-2.5-5.5-6.2v-13.8h-3.1v-0.1h1c4.6,0,8.2-2.9,8.2-8.2h0.1V280.2l3.9-0.1v0.1H69.1z"/>
	<path fill="#FFFFFF" d="M83.5,300.1c-5,0-9.8-4.8-9.8-10.3c0-5.5,4.8-10.3,9.8-10.3s9.8,4.8,9.8,10.3
		C93.3,295.3,88.4,300.1,83.5,300.1z M83.5,279.7c-3,0-3.1,4.6-3.1,10.2s0.1,10.2,3.1,10.2s3.2-4.6,3.2-10.2S86.5,279.7,83.5,279.7z
		"/>
	<path fill="#FFFFFF" d="M113.1,271.3H110v-0.1h9.4v28.3h3.1v0.1h-9.4V296c-0.8,2.9-2.5,4.1-4.7,4.1c-3.7,0-7.5-4.3-7.5-10.3
		c0-5.9,3.8-10.3,7.5-10.3c2.1,0,3.9,1.2,4.7,4.1V271.3z M113.1,284.1c-0.5-2.2-1.8-3.9-3.1-3.9c-1.8,0-2.5,1.9-2.5,7.5v4.3
		c0,5.7,0.6,7.5,2.5,7.5c1.4,0,2.6-1.6,3.1-3.9V284.1z"/>
	<path fill="#FFFFFF" d="M124.2,284.2c0.4-1.4,1.8-2.5,3.2-2.5c1.8,0,3.3,1.5,3.3,3.3s-1.5,3.3-3.3,3.3c-2.2,0-3.3-1.7-3.3-3.6
		c0-0.3,0-0.6,0.2-1.2c1.1-2.8,4.4-3.9,6.6-3.9c5.8,0,9.1,2.8,9.1,6.9v10.3c0,1.6,0.5,2.3,1.5,2.3c0.4,0,0.7-0.1,0.9-0.3
		c0.5-0.5,0.7-1.3,0.7-1.6h0.1c-0.3,1.4-1.1,2.9-3.5,2.9c-3.3,0-5.6-2.1-5.9-4.3c-0.2,1.6-1.4,4.3-5.5,4.3c-3.3,0-5.3-2.1-5.3-5
		c0-3.1,2.4-5.1,5-5.6c2-0.4,2.2-0.1,3.3-0.4c0.9-0.2,1.6-1.1,2.3-2v-4c0-2.3-1.1-3.3-3.3-3.3C127.8,279.8,124.8,281.6,124.2,284.2z
		 M133.8,287.3c-0.8,1.2-1.4,1.6-2.3,2.1c-1.2,0.7-2.1,1.7-2.1,3.6v3.5c0,1.9,0.2,3,1.3,3c1.8,0,3.1-2.3,3.1-3.7V287.3z"/>
	<path fill="#FFFFFF" d="M167.3,299.6h-11.2v-0.1h1.8v-15.4c0-2.9-0.4-4-1.6-4c-1.4,0-2.6,1.6-3.1,3.9v15.5h1.8v0.1h-11.2v-0.1h3.1
		v-19.3h-3.1v-0.1h9.4v3.6c0.8-2.9,2.5-4.1,4.7-4.1c4.4,0,6.3,3.2,6.3,7.2v12.8L167.3,299.6L167.3,299.6z"/>
	<path fill="#FFFFFF" d="M174.2,290c0,3.2,0.1,9.6,4.5,9.6c3.5,0,5.4-2.8,5.6-7.5h0.1c-0.2,4.7-2.1,8.1-7.2,8.1
		c-5.1,0-9.6-4.4-9.6-10.3c0-5.4,4.1-10.3,9.9-10.3c3.6,0,5.4,1.7,6.1,3.9c0.2,0.5,0.2,0.9,0.2,1.2c0,1.9-1.1,3.6-3.3,3.6
		c-1.8,0-3.3-1.5-3.3-3.3s1.5-3.3,3.3-3.3c1.4,0,2.8,1.1,3.2,2.5c-0.4-2-2-4.3-5.5-4.3C174.5,279.8,174.2,284.3,174.2,290z"/>
	<path fill="#FFFFFF" d="M192.1,289.8v1.1c0,5.4,0.2,8.6,4.3,8.6c3.6,0,6-2.5,7-6.8h0.1c-1,4.6-3.7,7.4-8.6,7.4
		c-5,0-9.4-4.8-9.4-10.3c0-5.5,4.4-10.3,9.4-10.3c5.1,0,9,4.7,9,10.2H192.1z M192.1,287.2v2.6h5.1c0-8.7-0.4-10.1-2.3-10.1
		C192.3,279.7,192.1,282.7,192.1,287.2z"/>
	<path fill="#FFFFFF" d="M208.2,293.4c1.8,0,3.3,1.5,3.3,3.3c0,1.8-1.5,3.3-3.3,3.3c-1.8,0-3.3-1.5-3.3-3.3
		C204.9,294.9,206.4,293.4,208.2,293.4z"/>
</g>
<g>
	<path fill="#333333" d="M0,27.5C0,19.6,5.4,7.2,19.8,0l1.9,3.1C11.9,9.9,9.2,18.4,9.1,22.5c3.7,0.4,7.3,3.9,7.3,7.8
		c0,4.4-3.8,7.8-7.8,7.8C4,38,0,34.4,0,27.5z M25.6,27.5C25.6,19.6,31,7.2,45.4,0l1.9,3.1c-9.8,6.9-12.4,15.4-12.6,19.5
		c3.7,0.4,7.3,3.9,7.3,7.8c0,4.4-3.8,7.8-7.8,7.8C29.6,38,25.6,34.4,25.6,27.5z"/>
</g>
</svg>
