<svg xmlns="http://www.w3.org/2000/svg" width="792" height="612"><g fill="#fff"><path d="M94.804 469.907c-.263 1.312-1.049 2.36-2.229 2.36-1.573 0-2.36-2.229-3.671-2.229-.656 0-1.311.524-1.442 1.705l-.787-.787c.131-1.18.918-2.229 2.098-2.229 1.574 0 2.623 2.229 3.803 2.229.787 0 1.18-.655 1.442-1.704l.786.655zM115.522 464.269c-1.312-1.311-2.754-1.967-4.589-1.967-3.541 0-6.294 2.623-6.294 7.344 0 4.589 2.754 7.212 6.163 7.212 1.705 0 3.409-.656 4.458-1.442v-4.853h-5.114v-1.442h6.688v7.212c-1.311 1.181-3.803 2.099-6.032 2.099-4.327 0-7.736-3.278-7.736-8.786 0-5.638 3.409-8.916 7.736-8.916 2.36 0 4.065.787 5.507 2.36l-.787 1.179zM121.422 472.005c.131 2.885 1.442 4.983 4.589 4.983 1.574 0 2.885-.656 3.803-1.574l.656 1.312c-1.18 1.049-2.753 1.705-4.721 1.705-4.196 0-5.9-2.885-5.9-6.95 0-4.064 2.229-6.949 5.9-6.949 3.41 0 4.983 2.491 4.983 5.376 0 .787-.131 1.573-.262 2.098h-9.048zm7.606-1.311c0-.263.131-.656.131-1.049 0-2.099-1.18-3.803-3.41-3.803-2.623 0-4.065 1.967-4.196 4.72h7.474v.132zM139.387 464.531c3.541 0 6.032 2.622 6.032 6.949s-2.36 6.95-6.032 6.95c-3.541 0-5.9-2.623-5.9-6.95s2.359-6.949 5.9-6.949zm0 12.326c2.623 0 4.327-1.968 4.327-5.377s-1.705-5.507-4.327-5.507-4.327 2.098-4.327 5.507 1.704 5.377 4.327 5.377zM148.828 478.037v-13.244h1.705v2.36c.656-1.704 1.574-2.622 3.147-2.622.787 0 1.573.262 2.098.787l-.393 1.442c-.525-.394-1.18-.656-1.836-.656-1.574 0-2.491 1.312-3.016 3.278v8.523h-1.705v.132zM162.858 464.662c1.705 0 3.016.787 3.803 1.705v-1.442h1.705v12.588c0 3.934-2.36 5.639-5.114 5.639-2.36 0-3.671-.918-4.458-1.312l.393-1.442c.656.524 2.098 1.442 3.803 1.442 1.967 0 3.672-1.049 3.672-3.934v-2.099c-.918 1.049-2.229 1.705-3.803 1.705-3.278 0-5.376-2.491-5.376-6.294-.001-4.065 2.097-6.556 5.375-6.556zm.525 11.146c1.442 0 2.623-.918 3.278-1.704v-6.163c-.656-.787-1.705-1.836-3.278-1.836-2.623 0-4.327 1.836-4.327 4.852.131 2.884 1.704 4.851 4.327 4.851zM173.479 472.005c.131 2.885 1.442 4.983 4.589 4.983 1.574 0 2.885-.656 3.803-1.574l.656 1.312c-1.18 1.049-2.754 1.705-4.721 1.705-4.196 0-5.901-2.885-5.901-6.95 0-4.064 2.229-6.949 5.901-6.949 3.409 0 4.983 2.491 4.983 5.376 0 .787-.131 1.573-.262 2.098h-9.048zm7.606-1.311c0-.263.131-.656.131-1.049 0-2.099-1.18-3.803-3.409-3.803-2.623 0-4.065 1.967-4.196 4.72h7.474v.132zM191.575 460.859h5.245c3.016 0 4.852 1.442 4.852 4.459 0 1.967-1.049 3.277-2.623 3.802 2.36.394 3.803 1.836 3.803 4.327 0 2.754-1.705 4.59-4.983 4.59h-6.294v-17.178zm1.704 7.606h3.278c2.098 0 3.541-1.049 3.541-3.016 0-2.099-1.18-3.016-3.41-3.016h-3.409v6.032zm0 8.13h4.458c2.36 0 3.541-1.18 3.541-3.147 0-2.359-1.442-3.409-3.934-3.409h-3.934v6.557h-.131zM213.604 478.037v-1.442c-.787.787-2.098 1.704-4.065 1.704-2.623 0-4.196-1.573-4.196-4.064 0-3.278 2.622-4.59 6.032-4.59.787 0 1.573.132 2.229.263v-.655c0-2.229-1.18-3.278-3.147-3.278-1.312 0-2.623.262-3.671.918l-.394-1.442c1.18-.524 2.885-.918 4.196-.918 2.885 0 4.589 1.704 4.589 4.721v8.654h-1.573v.129zm-3.541-1.049c1.705 0 2.885-.918 3.541-1.705v-4.064c-.524-.131-1.442-.263-2.229-.263-2.492 0-4.458.918-4.458 3.278.131 1.705 1.311 2.754 3.146 2.754zM221.078 460.073v15.079c0 1.312.394 1.705 1.18 1.705.656 0 1.049-.263 1.442-.525l.131 1.312c-.525.394-1.312.655-2.229.655-1.442 0-2.36-.786-2.36-2.753v-15.473h1.836zM233.666 478.037v-1.442c-.787.787-2.098 1.704-4.064 1.704-2.623 0-4.196-1.573-4.196-4.064 0-3.278 2.623-4.59 6.032-4.59.787 0 1.574.132 2.229.263v-.655c0-2.229-1.18-3.278-3.147-3.278-1.311 0-2.623.262-3.671.918l-.394-1.442c1.18-.524 2.885-.918 4.196-.918 2.885 0 4.589 1.704 4.589 4.721v8.654h-1.574v.129zm-3.54-1.049c1.705 0 2.885-.918 3.54-1.705v-4.064c-.524-.131-1.442-.263-2.229-.263-2.491 0-4.458.918-4.458 3.278.131 1.705 1.311 2.754 3.147 2.754zM248.221 478.037v-7.999c0-2.491-1.049-3.934-3.278-3.934-1.967 0-3.278 1.442-3.802 3.147v8.785h-1.574v-13.244h1.574v2.229c.787-1.573 2.36-2.491 4.327-2.491 3.016 0 4.458 1.836 4.458 5.114v8.261h-1.705v.132zM259.236 476.857c1.573 0 2.623-.656 3.409-1.705l.787 1.18c-1.049 1.181-2.36 1.967-4.327 1.967-3.54 0-5.9-2.753-5.9-6.949 0-4.327 2.36-6.949 5.9-6.949 1.836 0 3.147.786 4.327 1.967l-.787 1.18c-.918-1.049-1.836-1.704-3.409-1.704-2.623 0-4.327 2.098-4.327 5.376 0 3.539 1.704 5.637 4.327 5.637zM275.626 478.037v-7.999c0-2.491-1.049-3.934-3.409-3.934-1.967 0-3.278 1.442-3.803 3.147v8.785h-1.574v-17.964h1.574v6.949c.787-1.573 2.36-2.491 4.327-2.491 3.016 0 4.458 1.836 4.458 5.113v8.262h-1.574v.132zM282.183 460.073c.656 0 1.049.262 1.049 1.049 0 .786-.394 1.049-1.049 1.049-.655 0-1.049-.263-1.049-1.049 0-.787.393-1.049 1.049-1.049zm-.787 17.964v-13.244h1.574v13.244h-1.574zM295.951 478.037v-7.999c0-2.491-1.049-3.934-3.278-3.934-1.967 0-3.278 1.442-3.803 3.147v8.785h-1.705v-13.244h1.574v2.229c.787-1.573 2.36-2.491 4.327-2.491 3.016 0 4.458 1.836 4.458 5.114v8.261h-1.573v.132zM302.639 472.005c.131 2.885 1.442 4.983 4.589 4.983 1.573 0 2.885-.656 3.802-1.574l.656 1.312c-1.18 1.049-2.753 1.705-4.721 1.705-4.196 0-5.9-2.885-5.9-6.95 0-4.064 2.229-6.949 5.9-6.949 3.41 0 4.983 2.491 4.983 5.376 0 .787-.131 1.573-.262 2.098h-9.047zm7.605-1.311c0-.263.131-.656.131-1.049 0-2.099-1.18-3.803-3.409-3.803-2.623 0-4.065 1.967-4.196 4.72h7.474v.132z"/></g><path fill="#333" d="M553.883 396.739c14.293-9.966 18.096-22.423 18.358-28.323-5.377-.656-10.622-5.77-10.622-11.277 0-6.425 5.508-11.276 11.277-11.276 6.818 0 12.588 5.376 12.588 15.342 0 11.539-7.867 29.634-28.717 40.124l-2.884-4.59zm37.24 0c14.293-9.966 18.096-22.423 18.357-28.323-5.376-.656-10.621-5.77-10.621-11.277 0-6.425 5.507-11.276 11.276-11.276 6.819 0 12.589 5.376 12.589 15.342 0 11.539-7.868 29.634-28.717 40.124l-2.884-4.59z"/><g fill="#fff"><path d="M103.921 223.784h4.982l-.016.131h-19.537l.016-.131h4.983l4.846-39.469h-4.983l.016-.131h19.538l-.016.131h-4.982l-4.847 39.469zM142.675 182.61h-4.589l.016-.131h13.637l-5.071 41.305h4.59l-.016.131h-13.637l.644-5.245c-1.695 4.196-4.396 5.9-7.543 5.9-5.507 0-10.241-6.294-9.179-14.948s7.343-14.948 12.85-14.948c3.147 0 5.429 1.705 6.094 5.9l2.204-17.964zm-2.286 18.62c-.384-3.278-1.93-5.639-3.897-5.639-2.623 0-3.879 2.754-4.893 11.015l-.773 6.294c-1.014 8.261-.434 11.014 2.188 11.014 1.967 0 4.092-2.36 5.282-5.638l2.093-17.046zM165.568 224.702c-7.212 0-13.439-6.95-12.458-14.949.982-7.999 8.917-14.948 16.128-14.948s13.439 6.95 12.457 14.948c-.965 7.868-8.915 14.949-16.127 14.949zm3.655-29.765c-4.458 0-5.411 6.688-6.409 14.817-.999 8.13-1.688 14.817 2.771 14.817 4.458 0 5.411-6.688 6.409-14.817.997-8.13 1.687-14.817-2.771-14.817zM214.444 223.915h-16.26l.016-.131h2.623l2.753-22.423c.515-4.196.184-5.77-1.652-5.77-1.967 0-4.093 2.36-5.282 5.639l-2.769 22.554h2.623l-.016.131h-16.26l.016-.131h4.589l3.461-28.192h-4.589l.016-.131h13.637l-.644 5.245c1.695-4.196 4.396-5.901 7.543-5.901 6.425 0 8.599 4.721 7.891 10.49l-2.286 18.62h4.59zM219.792 203.853c.772-6.294-2.437-12.195-1.89-16.653.258-2.098 2.188-3.934 4.417-3.934s3.708 1.836 3.451 3.934c-.547 4.458-5.091 10.49-5.978 16.653zM239.295 195.592l-3.011 24.521c-.193 1.573.317 2.753 1.629 2.753 1.835 0 2.355-2.098 2.581-3.934l.773-6.294h.131l-.789 6.425c-.403 3.278-1.987 5.507-6.052 5.507-5.507 0-7.564-3.541-6.904-8.917l2.463-20.062h-4.458l.016-.131h1.442c6.688 0 12.447-4.196 13.397-11.933h.131l-1.481 12.063 5.654-.131-.016.131h-5.506zM299.99 195.723h-4.59l-12.769 29.241-6.11-20.718-9.1 20.718-8.604-29.241h-4.589l.016-.131h33.437l-.016.131h-3.671l4.589 14.948 6.556-14.948h-4.589l.016-.131h9.31l-.016.131h.13zm-26.487 14.948l2.919-6.688-2.395-8.261h-5.114l4.59 14.949zM300.347 201.361c.782-2.098 3.057-3.54 5.155-3.54 2.623 0 4.594 2.098 4.256 4.852-.322 2.623-2.693 4.852-5.447 4.852-3.147 0-4.545-2.491-4.208-5.245.048-.393.113-.918.472-1.705 2.073-4.065 7.134-5.77 10.412-5.77 8.392 0 12.745 4.065 12.02 9.966l-1.835 14.948c-.29 2.36.368 3.409 1.679 3.409.525 0 1.065-.131 1.36-.394.867-.655 1.159-1.967 1.322-2.229h.131c-.651 2.098-2.22 4.196-5.629 4.196-4.72 0-7.759-3.016-7.75-6.294-.552 2.36-2.74 6.294-8.771 6.294-4.721 0-7.35-3.147-6.851-7.212.564-4.59 4.442-7.343 8.341-8.13 2.949-.524 3.311-.262 4.932-.656 1.36-.394 2.553-1.574 3.763-2.885l.725-5.901c.418-3.409-.978-4.852-4.125-4.852-3.935.002-8.568 2.494-9.952 6.296zm13.335 4.59c-1.389 1.705-2.387 2.36-3.648 3.016-1.817.918-3.453 2.492-3.791 5.245l-.628 5.114c-.338 2.754-.269 4.327 1.436 4.327 2.623 0 4.876-3.409 5.118-5.376l1.513-12.326zM360.255 223.915h-16.128l.016-.131h2.623l2.753-22.423c.515-4.196.184-5.77-1.652-5.77-1.967 0-4.092 2.36-5.282 5.639l-2.769 22.554h2.623l-.016.131h-16.259l.016-.131h4.589l3.461-28.192h-4.589l.016-.131h13.637l-.644 5.245c1.695-4.196 4.396-5.901 7.543-5.901 6.425 0 8.599 4.721 7.891 10.49l-2.286 18.62h4.457zM375.928 195.592l-3.011 24.521c-.193 1.573.317 2.753 1.629 2.753 1.836 0 2.355-2.098 2.581-3.934l.772-6.294h.132l-.789 6.425c-.403 3.278-1.988 5.507-6.053 5.507-5.507 0-7.564-3.541-6.904-8.917l2.463-20.062h-4.458l.016-.131h1.442c6.688 0 12.448-4.196 13.397-11.933h.132l-1.481 12.063 5.654-.131-.016.131h-5.506zM400.081 237.028h4.589l-.016.131h-18.227l.016-.131h4.589l5.088-41.436h-4.589l.016-.131h13.638l-.645 5.245c1.695-4.196 4.396-5.901 7.543-5.901 5.508 0 10.242 6.294 9.18 14.948s-7.343 14.949-12.851 14.949c-3.146 0-5.43-1.705-6.094-5.901l-2.237 18.227zm2.319-18.882c.384 3.278 1.93 5.639 3.896 5.639 2.623 0 3.879-2.754 4.893-11.015l.773-6.294c1.014-8.261.434-11.015-2.189-11.015-1.967 0-4.092 2.36-5.281 5.638l-2.092 17.047zM433.343 209.623l-.193 1.573c-.966 7.868-1.151 12.588 4.618 12.588 5.244 0 9.235-3.671 11.435-9.834h.132c-2.264 6.688-6.697 10.752-13.777 10.752-7.212 0-12.784-6.95-11.803-14.949.982-7.999 8.262-14.948 15.474-14.948 7.343 0 12.274 6.819 11.276 14.948h-17.178l.016-.13zm.467-3.803l-.467 3.803h7.343c1.562-12.719 1.279-14.686-1.605-14.686-3.673 0-4.45 4.195-5.271 10.883zM464.666 224.702c-7.212 0-13.439-6.95-12.457-14.949.981-7.999 8.916-14.948 16.128-14.948s13.439 6.95 12.458 14.948c-.967 7.868-8.917 14.949-16.129 14.949zm3.654-29.765c-4.457 0-5.41 6.688-6.408 14.817-.998 8.13-1.688 14.817 2.77 14.817 4.459 0 5.411-6.688 6.41-14.817.998-8.13 1.687-14.817-2.772-14.817zM491.345 237.028h4.589l-.016.131h-18.227l.016-.131h4.59l5.088-41.436h-4.59l.016-.131h13.639l-.645 5.245c1.695-4.196 4.396-5.901 7.543-5.901 5.508 0 10.242 6.294 9.18 14.948s-7.344 14.949-12.851 14.949c-3.146 0-5.43-1.705-6.094-5.901l-2.238 18.227zm2.319-18.882c.383 3.278 1.93 5.639 3.896 5.639 2.623 0 3.879-2.754 4.893-11.015l.773-6.294c1.014-8.261.434-11.015-2.189-11.015-1.967 0-4.092 2.36-5.281 5.638l-2.092 17.047zM511.312 223.915l4.605-.131 5.056-41.174h-4.59l.017-.131h13.637l-5.072 41.305h4.59l-.016.131h-18.227zM541.128 209.623l-.193 1.573c-.966 7.868-1.151 12.588 4.618 12.588 5.244 0 9.236-3.671 11.435-9.834h.132c-2.264 6.688-6.696 10.752-13.777 10.752-7.212 0-12.784-6.95-11.803-14.949.982-7.999 8.262-14.948 15.474-14.948 7.343 0 12.274 6.819 11.276 14.948h-17.178l.016-.13zm.467-3.803l-.467 3.803h7.344c1.562-12.719 1.278-14.686-1.606-14.686-3.673 0-4.45 4.195-5.271 10.883zM615.217 195.723h-4.59l-12.77 29.241-6.094-20.849-9.1 20.718-8.605-29.241h-4.589l.017-.131h33.436l-.016.131h-3.54l4.589 14.949 6.557-14.949h-4.589l.017-.131h9.309l-.032.262zm-26.488 14.948l2.919-6.688-2.395-8.261h-5.115l4.591 14.949zM645.192 223.915h-16.26l.017-.131h2.621l2.754-22.423c.515-4.196.184-5.77-1.652-5.77-1.967 0-4.093 2.36-5.281 5.639l-2.77 22.554h2.623l-.017.131h-16.26l.017-.131h4.59l5.055-41.174h-4.59l.016-.131h13.639l-2.238 18.227c1.695-4.196 4.396-5.901 7.543-5.901 6.425 0 8.6 4.721 7.891 10.49l-2.286 18.62h4.588zM659.257 224.702c-7.212 0-13.439-6.95-12.458-14.949.982-7.999 8.917-14.948 16.129-14.948s13.439 6.95 12.457 14.948c-.966 7.868-8.916 14.949-16.128 14.949zm3.655-29.765c-4.459 0-5.412 6.688-6.41 14.817-.998 8.13-1.688 14.817 2.771 14.817 4.457 0 5.41-6.688 6.408-14.817.999-8.13 1.688-14.817-2.769-14.817zM129.546 263.909h-4.589l-12.77 29.241-6.094-20.849-9.1 20.718-8.604-29.241h-4.589l.016-.131h33.437l-.016.131h-3.54l4.589 14.948 6.556-14.948h-4.589l.016-.131h9.31l-.033.262zm-26.487 14.948l2.919-6.688-2.395-8.261h-5.114l4.59 14.949zM129.903 269.547c.782-2.098 3.057-3.54 5.155-3.54 2.623 0 4.594 2.098 4.256 4.852-.322 2.623-2.694 4.852-5.447 4.852-3.147 0-4.545-2.491-4.208-5.245.048-.394.113-.918.472-1.705 2.072-4.065 7.133-5.77 10.412-5.77 8.392 0 12.745 4.065 12.02 9.965l-1.835 14.949c-.29 2.36.368 3.409 1.679 3.409.524 0 1.065-.131 1.359-.394.868-.656 1.16-1.967 1.323-2.229h.131c-.651 2.098-2.22 4.196-5.629 4.196-4.721 0-7.76-3.016-7.751-6.294-.552 2.36-2.739 6.294-8.771 6.294-4.72 0-7.35-3.147-6.851-7.212.563-4.589 4.442-7.343 8.342-8.129 2.949-.525 3.31-.263 4.932-.656 1.359-.394 2.554-1.574 3.764-2.885l.725-5.901c.418-3.409-.978-4.852-4.125-4.852-3.935.001-8.568 2.492-9.953 6.295zm13.336 4.589c-1.39 1.705-2.388 2.36-3.648 3.016-1.817.918-3.453 2.491-3.791 5.245l-.628 5.114c-.338 2.753-.269 4.327 1.436 4.327 2.492 0 4.877-3.409 5.119-5.376l1.512-12.326zM189.943 292.101h-16.259l.016-.131h2.623l2.753-22.423c.515-4.196.184-5.77-1.652-5.77-1.967 0-4.093 2.36-5.282 5.639l-2.769 22.554h2.623l-.016.131h-16.26l.016-.131h4.589l3.461-28.192h-4.589l.016-.131h13.637l-.644 5.245c1.695-4.196 4.396-5.901 7.543-5.901 6.425 0 8.599 4.721 7.891 10.49l-2.286 18.62h4.589zM205.484 263.777l-3.011 24.521c-.193 1.574.317 2.754 1.628 2.754 1.835 0 2.356-2.098 2.582-3.934l.772-6.294h.131l-.789 6.425c-.403 3.278-1.987 5.507-6.052 5.507-5.507 0-7.564-3.541-6.904-8.917l2.463-20.062h-4.458l.016-.131h1.442c6.688 0 12.448-4.196 13.397-11.933h.131l-1.481 12.063 5.655-.131-.016.131h-5.506zM234.332 263.777l-3.011 24.521c-.193 1.574.317 2.754 1.628 2.754 1.836 0 2.356-2.098 2.582-3.934l.772-6.294h.131l-.789 6.425c-.403 3.278-1.987 5.507-6.052 5.507-5.507 0-7.564-3.541-6.904-8.917l2.463-20.062h-4.458l.016-.131h1.442c6.688 0 12.448-4.196 13.397-11.933h.131l-1.481 12.063 5.655-.131-.016.131h-5.506zM251.606 292.887c-7.212 0-13.439-6.95-12.457-14.948.982-7.999 8.916-14.948 16.128-14.948s13.439 6.95 12.458 14.948c-.966 7.868-8.917 14.948-16.129 14.948zm3.655-29.765c-4.458 0-5.411 6.687-6.409 14.817-.999 8.13-1.688 14.817 2.77 14.817s5.411-6.688 6.409-14.817c.999-8.13 1.689-14.817-2.77-14.817zM299.915 250.796h-4.589l.016-.131h13.637l-5.071 41.305h4.589l-.016.131h-13.637l.644-5.245c-1.696 4.196-4.396 5.901-7.543 5.901-5.507 0-10.242-6.294-9.179-14.948s7.343-14.949 12.85-14.949c3.147 0 5.429 1.705 6.094 5.901l2.205-17.965zm-2.286 18.62c-.384-3.278-1.799-5.639-3.897-5.639-2.623 0-3.879 2.754-4.893 11.015l-.772 6.294c-1.015 8.261-.435 11.015 2.188 11.015 1.967 0 4.092-2.36 5.282-5.638l2.092-17.047zM313.741 269.547c.782-2.098 3.057-3.54 5.155-3.54 2.623 0 4.594 2.098 4.256 4.852-.322 2.623-2.694 4.852-5.447 4.852-3.147 0-4.545-2.491-4.208-5.245.048-.394.113-.918.472-1.705 2.072-4.065 7.133-5.77 10.412-5.77 8.392 0 12.744 4.065 12.02 9.965l-1.835 14.949c-.29 2.36.368 3.409 1.68 3.409.524 0 1.064-.131 1.359-.394.868-.656 1.16-1.967 1.323-2.229h.131c-.651 2.098-2.22 4.196-5.629 4.196-4.721 0-7.76-3.016-7.75-6.294-.552 2.36-2.74 6.294-8.771 6.294-4.72 0-7.35-3.147-6.851-7.212.564-4.589 4.442-7.343 8.342-8.129 2.949-.525 3.31-.263 4.932-.656 1.359-.394 2.553-1.574 3.763-2.885l.725-5.901c.418-3.409-.978-4.852-4.125-4.852-3.936.001-8.569 2.492-9.954 6.295zm13.467 4.589c-1.39 1.705-2.388 2.36-3.648 3.016-1.817.918-3.453 2.491-3.791 5.245l-.628 5.114c-.338 2.753-.269 4.327 1.436 4.327 2.623 0 4.877-3.409 5.119-5.376l1.512-12.326zM373.782 292.101h-16.26l.016-.131h2.623l2.753-22.423c.515-4.196.184-5.77-1.652-5.77-1.967 0-4.093 2.36-5.282 5.639l-2.769 22.554h2.623l-.016.131h-16.26l.016-.131h4.589l3.461-28.192h-4.589l.016-.131h13.637l-.644 5.245c1.695-4.196 4.396-5.901 7.543-5.901 6.425 0 8.6 4.721 7.891 10.49l-2.286 18.62h4.59zM385.338 278.07c-.563 4.589-1.575 13.899 4.85 13.899 5.115 0 8.383-4.196 9.466-10.884h.132c-1.101 6.819-4.466 11.801-11.939 11.801-7.343 0-13.242-6.425-12.195-14.948.966-7.868 7.736-14.948 16.391-14.948 5.245 0 7.562 2.491 8.208 5.77.166.787.102 1.311.053 1.705-.338 2.754-2.35 5.245-5.496 5.245-2.623 0-4.594-2.098-4.256-4.852.322-2.623 2.693-4.852 5.447-4.852 2.098 0 3.872 1.573 4.154 3.54-.301-2.885-2.111-6.294-7.225-6.294-5.115.001-6.575 6.557-7.59 14.818zM411.465 277.808l-.193 1.573c-.966 7.868-1.152 12.588 4.617 12.588 5.246 0 9.236-3.672 11.436-9.834h.131c-2.264 6.687-6.696 10.752-13.777 10.752-7.212 0-12.783-6.95-11.801-14.948.981-7.999 8.26-14.948 15.472-14.948 7.344 0 12.276 6.818 11.278 14.948h-17.178l.015-.131zm.467-3.803l-.467 3.803h7.343c1.562-12.719 1.278-14.686-1.606-14.686-3.671 0-4.466 4.327-5.27 10.883zM431.01 295.903c4.555-.787 6.796-3.016 7.524-6.818-.651 2.098-2.926 3.54-5.155 3.54-2.622 0-4.594-2.098-4.256-4.852.322-2.623 2.694-4.852 5.447-4.852 3.147 0 4.547 2.491 4.209 5.245-.352 3.935-2.575 7.082-7.769 7.737zM463.881 291.97h4.982l-.016.131h-19.537l.017-.131h4.982l4.847-39.469h-4.983l.016-.131h19.538l-.016.131h-4.982l-4.848 39.469zM527.906 263.909h-4.59l-12.769 29.241-6.11-20.718-9.101 20.718-8.604-29.241h-4.588l.016-.131h33.437l-.017.131h-3.67l4.589 14.948 6.556-14.948h-4.59l.017-.131h9.31l-.016.131h.13zm-26.486 14.948l2.919-6.688-2.396-8.261h-5.113l4.59 14.949zM528.264 269.547c.781-2.098 3.057-3.54 5.154-3.54 2.623 0 4.595 2.098 4.256 4.852-.321 2.623-2.693 4.852-5.447 4.852-3.146 0-4.545-2.491-4.207-5.245.049-.394.113-.918.471-1.705 2.074-4.065 7.135-5.77 10.412-5.77 8.393 0 12.745 4.065 12.021 9.965l-1.835 14.949c-.291 2.36.368 3.409 1.679 3.409.524 0 1.065-.131 1.359-.394.868-.656 1.159-1.967 1.323-2.229h.131c-.65 2.098-2.22 4.196-5.629 4.196-4.721 0-7.76-3.016-7.751-6.294-.552 2.36-2.739 6.294-8.771 6.294-4.721 0-7.352-3.147-6.852-7.212.563-4.589 4.442-7.343 8.342-8.129 2.949-.525 3.311-.263 4.932-.656 1.36-.394 2.554-1.574 3.764-2.885l.725-5.901c.418-3.409-.978-4.852-4.125-4.852-3.935.001-8.568 2.492-9.952 6.295zm13.336 4.589c-1.391 1.705-2.388 2.36-3.648 3.016-1.817.918-3.454 2.491-3.792 5.245l-.628 5.114c-.338 2.753-.269 4.327 1.437 4.327 2.622 0 4.876-3.409 5.118-5.376l1.513-12.326zM588.304 292.101h-16.26l.017-.131h2.621l2.754-22.423c.515-4.196.184-5.77-1.652-5.77-1.967 0-4.093 2.36-5.281 5.639l-2.77 22.554h2.623l-.017.131h-16.26l.017-.131h4.59l3.461-28.192h-4.59l.016-.131h13.639l-.645 5.245c1.695-4.196 4.396-5.901 7.543-5.901 6.425 0 8.6 4.721 7.891 10.49l-2.286 18.62h4.589zM603.845 263.777l-3.011 24.521c-.193 1.574.316 2.754 1.629 2.754 1.836 0 2.355-2.098 2.58-3.934l.773-6.294h.131l-.788 6.425c-.403 3.278-1.987 5.507-6.054 5.507-5.506 0-7.562-3.541-6.902-8.917l2.463-20.062h-4.459l.016-.131h1.443c6.688 0 12.447-4.196 13.396-11.933h.131l-1.48 12.063 5.654-.131-.016.131h-5.506zM627.998 305.213h4.589l-.017.131h-18.227l.017-.131h4.59l5.071-41.305h-4.59l.017-.131h13.638l-.645 5.245c1.695-4.196 4.396-5.9 7.543-5.9 5.508 0 10.242 6.294 9.18 14.948s-7.344 14.948-12.85 14.948c-3.148 0-5.43-1.705-6.094-5.901l-2.222 18.096zm2.318-18.882c.384 3.278 1.93 5.639 3.896 5.639 2.623 0 3.879-2.754 4.894-11.015l.772-6.294c1.015-8.261.436-11.015-2.188-11.015-1.967 0-4.094 2.36-5.281 5.638l-2.093 17.047zM661.26 277.808l-.193 1.573c-.966 7.868-1.152 12.588 4.617 12.588 5.246 0 9.236-3.672 11.436-9.834h.131c-2.264 6.687-6.696 10.752-13.777 10.752-7.212 0-12.783-6.95-11.801-14.948.981-7.999 8.26-14.948 15.472-14.948 7.343 0 12.276 6.818 11.278 14.948h-17.178l.015-.131zm.467-3.803l-.467 3.803h7.343c1.562-12.719 1.278-14.686-1.606-14.686-3.673 0-4.466 4.327-5.27 10.883zM692.583 292.887c-7.212 0-13.439-6.95-12.458-14.948.982-7.999 8.917-14.948 16.129-14.948s13.439 6.95 12.457 14.948c-.966 7.868-8.916 14.948-16.128 14.948zm3.655-29.765c-4.459 0-5.412 6.687-6.41 14.817s-1.688 14.817 2.771 14.817c4.457 0 5.409-6.688 6.408-14.817.999-8.13 1.688-14.817-2.769-14.817zM719.262 305.213h4.589l-.017.131h-18.227l.017-.131h4.59l5.071-41.305h-4.59l.017-.131h13.638l-.645 5.245c1.695-4.196 4.396-5.9 7.543-5.9 5.508 0 10.242 6.294 9.18 14.948s-7.344 14.948-12.85 14.948c-3.148 0-5.43-1.705-6.094-5.901l-2.222 18.096zm2.318-18.882c.384 3.278 1.93 5.639 3.896 5.639 2.623 0 3.879-2.754 4.893-11.015l.773-6.294c1.014-8.261.434-11.015-2.188-11.015-1.967 0-4.094 2.36-5.281 5.638l-2.093 17.047zM739.229 292.101l4.604-.131 5.056-41.174h-4.589l.016-.131h13.637l-5.07 41.305h4.59l-.017.131h-18.227zM769.045 277.808l-.193 1.573c-.966 7.868-1.152 12.588 4.617 12.588 5.246 0 9.236-3.672 11.436-9.834h.131c-2.264 6.687-6.696 10.752-13.777 10.752-7.211 0-12.783-6.95-11.801-14.948.981-7.999 8.261-14.948 15.472-14.948 7.344 0 12.276 6.818 11.278 14.948h-17.178l.015-.131zm.467-3.803l-.467 3.803h7.343c1.562-12.719 1.278-14.686-1.606-14.686-3.671 0-4.466 4.327-5.27 10.883zM121.174 332.094h-4.589l-12.77 29.241-6.095-20.849-9.1 20.718-8.604-29.241h-4.589l.016-.131h33.437l-.016.131h-3.54l4.589 14.948 6.556-14.948h-4.589l.016-.131h9.31l-.032.262zm-26.487 14.948l2.919-6.687-2.395-8.262h-5.114l4.59 14.949zM151.149 360.286h-16.26l.017-.131h2.622l2.753-22.423c.515-4.196.184-5.77-1.652-5.77-1.967 0-4.093 2.36-5.282 5.639l-2.769 22.554h2.622l-.016.131h-16.26l.016-.131h4.59l5.056-41.174h-4.59l.016-.131h13.637l-2.238 18.227c1.695-4.196 4.396-5.901 7.543-5.901 6.425 0 8.599 4.721 7.891 10.49l-2.286 18.62h4.59zM165.346 361.073c-7.212 0-13.439-6.95-12.457-14.948.982-7.999 8.916-14.949 16.128-14.949s13.439 6.95 12.457 14.949c-1.098 7.867-8.916 14.948-16.128 14.948zm3.654-29.765c-4.458 0-5.41 6.688-6.408 14.817-.999 8.129-1.688 14.816 2.77 14.816s5.41-6.688 6.409-14.816c.998-8.13 1.556-14.817-2.771-14.817zM224.58 360.286h-16.26l.017-.131h2.622l2.753-22.423c.515-4.196.184-5.77-1.652-5.77-1.967 0-4.093 2.36-5.282 5.639l-2.769 22.554h2.622l-.016.131h-16.26l.016-.131h4.59l5.055-41.174h-4.589l.016-.131h13.637l-2.238 18.227c1.695-4.196 4.396-5.901 7.543-5.901 6.425 0 8.599 4.721 7.891 10.49l-2.287 18.62h4.591zM229.841 337.732c.782-2.098 3.057-3.54 5.155-3.54 2.623 0 4.595 2.098 4.256 4.852-.322 2.622-2.694 4.852-5.448 4.852-3.147 0-4.545-2.491-4.208-5.245.048-.394.113-.918.472-1.705 2.073-4.064 7.134-5.77 10.412-5.77 8.392 0 12.744 4.065 12.02 9.966l-1.835 14.948c-.29 2.36.368 3.409 1.68 3.409.524 0 1.064-.131 1.359-.394.867-.655 1.16-1.967 1.323-2.229h.131c-.651 2.098-2.22 4.196-5.629 4.196-4.721 0-7.76-3.017-7.751-6.294-.552 2.359-2.739 6.294-8.771 6.294-4.721 0-7.35-3.147-6.851-7.212.563-4.59 4.442-7.344 8.341-8.13 2.949-.524 3.311-.263 4.933-.656 1.359-.394 2.553-1.573 3.763-2.885l.725-5.9c.418-3.409-.978-4.852-4.125-4.852-4.065.001-8.699 2.493-9.952 6.295zm13.336 4.59c-1.39 1.704-2.388 2.359-3.648 3.016-1.817.918-3.453 2.491-3.791 5.245l-.628 5.113c-.338 2.754-.269 4.327 1.436 4.327 2.623 0 4.877-3.409 5.118-5.376l1.513-12.325zM284.704 331.963h-4.589l-12.769 29.241-8.604-29.241h-4.589l.016-.131h18.227l-.016.131h-3.671l4.589 14.948 6.556-14.948h-4.589l.016-.131 9.423.131zM290.718 345.993l-.193 1.573c-.966 7.868-1.152 12.589 4.617 12.589 5.245 0 9.237-3.672 11.436-9.835h.131c-2.264 6.688-6.696 10.753-13.777 10.753-7.212 0-12.784-6.95-11.801-14.948.982-7.999 8.26-14.949 15.472-14.949 7.343 0 12.275 6.819 11.277 14.949h-17.178l.016-.132zm.467-3.803l-.467 3.803h7.343c1.562-12.719 1.279-14.686-1.606-14.686-3.541.001-4.466 4.328-5.27 10.883zM332.958 331.963l-3.011 24.521c-.193 1.573.317 2.754 1.628 2.754 1.836 0 2.356-2.099 2.581-3.934l.773-6.294h.131l-.789 6.425c-.403 3.278-1.987 5.507-6.052 5.507-5.507 0-7.564-3.54-6.904-8.916l2.463-20.062h-4.458l.016-.131h1.442c6.688 0 12.464-4.327 13.397-11.933h.131l-1.481 12.063 5.654-.131-.016.131h-5.505zM350.233 361.073c-7.212 0-13.44-6.95-12.458-14.948.982-7.999 8.917-14.949 16.129-14.949s13.439 6.95 12.457 14.949c-.966 7.867-8.916 14.948-16.128 14.948zm3.655-29.765c-4.458 0-5.41 6.688-6.408 14.817-.999 8.129-1.688 14.816 2.77 14.816s5.41-6.688 6.409-14.816c.997-8.13 1.687-14.817-2.771-14.817zM398.525 319.112h-4.59l.017-.131h13.637l-5.071 41.305h4.59l-.016.131h-13.637l.644-5.245c-1.696 4.196-4.413 6.032-7.56 6.032-5.507 0-10.242-6.294-9.179-14.948 1.062-8.654 7.342-14.948 12.849-14.948 3.147 0 5.43 1.704 6.096 5.9l2.22-18.096zm-2.269 18.49c-.385-3.278-1.8-5.639-3.897-5.639-2.622 0-3.878 2.754-4.893 11.015l-.773 6.294c-1.014 8.261-.434 11.015 2.188 11.015 1.967 0 4.092-2.36 5.282-5.639l2.093-17.046zM412.367 337.732c.782-2.098 3.059-3.54 5.156-3.54 2.623 0 4.594 2.098 4.256 4.852-.322 2.622-2.693 4.852-5.447 4.852-3.146 0-4.546-2.491-4.208-5.245.048-.394.112-.918.472-1.705 2.072-4.064 7.134-5.77 10.412-5.77 8.392 0 12.744 4.065 12.02 9.966l-1.836 14.948c-.289 2.36.369 3.409 1.681 3.409.524 0 1.064-.131 1.358-.394.867-.655 1.16-1.967 1.324-2.229h.131c-.652 2.098-2.221 4.196-5.63 4.196-4.721 0-7.76-3.017-7.751-6.294-.551 2.359-2.739 6.294-8.771 6.294-4.721 0-7.351-3.147-6.851-7.212.562-4.59 4.441-7.344 8.341-8.13 2.948-.524 3.311-.263 4.932-.656 1.36-.394 2.554-1.573 3.764-2.885l.725-5.9c.419-3.409-.978-4.852-4.125-4.852-3.934.001-8.568 2.493-9.953 6.295zm13.336 4.59c-1.389 1.704-2.387 2.359-3.648 3.016-1.816.918-3.452 2.491-3.79 5.245l-.628 5.113c-.338 2.754-.27 4.327 1.436 4.327 2.622 0 4.877-3.409 5.118-5.376l1.512-12.325zM472.277 360.286h-16.26l.016-.131h2.622l2.753-22.423c.516-4.196.185-5.77-1.651-5.77-1.967 0-4.093 2.36-5.281 5.639l-2.77 22.554h2.622l-.016.131h-16.26l.016-.131h4.59l3.462-28.192h-4.59l.017-.131h13.637l-.644 5.245c1.694-4.196 4.396-5.901 7.543-5.901 6.425 0 8.599 4.721 7.891 10.49l-2.286 18.62h4.589zM483.965 346.256c-.563 4.589-1.575 13.899 4.85 13.899 5.114 0 8.383-4.196 9.467-10.884h.131c-1.1 6.818-4.465 11.802-11.939 11.802-7.343 0-13.241-6.426-12.195-14.948.967-7.868 7.736-14.949 16.391-14.949 5.245 0 7.562 2.492 8.209 5.77.166.787.102 1.312.053 1.705-.338 2.754-2.35 5.245-5.496 5.245-2.623 0-4.594-2.099-4.256-4.852.322-2.623 2.693-4.852 5.447-4.852 2.098 0 3.872 1.573 4.154 3.54-.301-2.885-2.111-6.294-7.226-6.294s-6.576 6.557-7.59 14.818zM510.092 345.993l-.193 1.573c-.966 7.868-1.152 12.589 4.617 12.589 5.244 0 9.236-3.672 11.436-9.835h.131c-2.264 6.688-6.696 10.753-13.777 10.753-7.212 0-12.783-6.95-11.802-14.948.982-7.999 8.261-14.949 15.473-14.949 7.343 0 12.274 6.819 11.276 14.949h-17.177l.016-.132zm.467-3.803l-.467 3.803h7.343c1.562-12.719 1.278-14.686-1.606-14.686-3.673.001-4.466 4.328-5.27 10.883zM532.92 351.238c2.621 0 4.461 2.098 4.14 4.721-.322 2.622-2.693 4.852-5.315 4.852-2.623 0-4.596-2.098-4.257-4.852.321-2.623 2.809-4.721 5.432-4.721z"/></g><path fill="#333" d="M0 168.449c0-11.539 7.868-29.635 28.717-40.125l2.753 4.458c-14.293 9.966-18.095 22.422-18.357 28.323 5.376.656 10.621 5.77 10.621 11.277 0 6.425-5.507 11.277-11.277 11.277-6.687.132-12.457-5.244-12.457-15.21zm37.24 0c0-11.539 7.868-29.635 28.716-40.125l2.754 4.458c-14.293 9.966-18.095 22.422-18.357 28.323 5.376.656 10.621 5.77 10.621 11.277 0 6.425-5.507 11.277-11.277 11.277-6.688.132-12.457-5.244-12.457-15.21z"/></svg>