<?xml version="1.0" encoding="utf-8"?>
<!-- Generator: Adobe Illustrator 18.1.0, SVG Export Plug-In . SVG Version: 6.00 Build 0)  -->
<svg version="1.1" id="Layer_1" xmlns="http://www.w3.org/2000/svg" xmlns:xlink="http://www.w3.org/1999/xlink" x="0px" y="0px"
	 viewBox="377 319 792 305" enable-background="new 377 319 792 305" xml:space="preserve">
<g>
	<path fill="#FFFFFF" d="M483.1,614.2c-0.3,1.5-1.2,2.7-2.5,2.7c-1.8,0-2.7-2.5-4.2-2.5c-0.7,0-1.5,0.6-1.6,1.9l-0.9-0.9
		c0.1-1.3,1-2.5,2.4-2.5c1.8,0,3,2.5,4.2,2.5c0.9,0,1.3-0.7,1.6-1.9L483.1,614.2z M509.6,607.2l-6.9,9.9h-0.4l-6.9-9.9v16.5h-1.9
		v-19.6h1.8l7,10.3l7.2-10.3h1.8v19.6h-1.9v-16.5H509.6L509.6,607.2z M524.9,623.7V622c-0.9,0.9-2.4,1.9-4.6,1.9
		c-3,0-4.8-1.8-4.8-4.6c0-3.7,3-5.2,6.9-5.2c0.9,0,1.8,0.1,2.5,0.3v-0.7c0-2.5-1.3-3.7-3.6-3.7c-1.5,0-3,0.3-4.2,1l-0.4-1.6
		c1.3-0.6,3.3-1,4.8-1c3.3,0,5.2,1.9,5.2,5.4v9.9h-1.8L524.9,623.7L524.9,623.7z M520.8,622.3c1.9,0,3.3-1,4-1.9v-4.6
		c-0.6-0.1-1.6-0.3-2.5-0.3c-2.8,0-5.1,1-5.1,3.7C517.4,621.1,518.7,622.3,520.8,622.3L520.8,622.3z M531.3,623.7v-15.1h1.9v2.7
		c0.7-1.9,1.8-3,3.6-3c0.9,0,1.8,0.3,2.4,0.9l-0.4,1.6c-0.6-0.4-1.3-0.7-2.1-0.7c-1.8,0-2.8,1.5-3.4,3.7v9.7h-1.9L531.3,623.7
		L531.3,623.7z M545.2,619.5c0,1.9,0.7,2.7,2.4,2.7c1,0,2.2-0.4,3-1.2l0.6,1.5c-1,0.7-2.4,1.3-4,1.3c-2.2,0-3.7-1.2-3.7-4.2V610
		h-2.5v-1.5h2.5l0.1-3.9h1.5v3.9h5.2v1.5h-5.2v9.4L545.2,619.5z M564.2,623.7v-9.1c0-2.8-1.2-4.5-3.9-4.5c-2.2,0-3.7,1.6-4.3,3.6v10
		h-1.8v-20.5h1.8v7.9c0.9-1.8,2.7-2.8,4.9-2.8c3.4,0,5.1,2.1,5.1,5.8v9.4h-1.8L564.2,623.7z M579.2,623.7V622
		c-0.9,0.9-2.4,1.9-4.6,1.9c-3,0-4.8-1.8-4.8-4.6c0-3.7,3-5.2,6.9-5.2c0.9,0,1.8,0.1,2.5,0.3v-0.7c0-2.5-1.3-3.7-3.6-3.7
		c-1.5,0-3,0.3-4.2,1l-0.4-1.6c1.3-0.6,3.3-1,4.8-1c3.3,0,5.2,1.9,5.2,5.4v9.9h-1.8V623.7L579.2,623.7z M575.2,622.3
		c1.9,0,3.3-1,4-1.9v-4.6c-0.6-0.1-1.6-0.3-2.5-0.3c-2.8,0-5.1,1-5.1,3.7C571.6,621.1,573.1,622.3,575.2,622.3L575.2,622.3z
		 M605.1,607.8c-1.5-1.5-3.1-2.2-5.2-2.2c-4,0-7.2,3-7.2,8.4c0,5.2,3.1,8.2,7,8.2c1.9,0,3.9-0.7,5.1-1.6V615H599v-1.6h7.6v8.2
		c-1.5,1.3-4.3,2.4-6.9,2.4c-4.9,0-8.8-3.7-8.8-10c0-6.4,3.9-10.2,8.8-10.2c2.7,0,4.6,0.9,6.3,2.7L605.1,607.8L605.1,607.8z
		 M610.8,623.7v-15.1h1.9v2.7c0.7-1.9,1.8-3,3.6-3c0.9,0,1.8,0.3,2.4,0.9l-0.4,1.6c-0.6-0.4-1.3-0.7-2.1-0.7c-1.8,0-2.8,1.5-3.4,3.7
		v9.7h-1.9V623.7L610.8,623.7z M629.8,623.7V622c-0.9,0.9-2.4,1.9-4.6,1.9c-3,0-4.8-1.8-4.8-4.6c0-3.7,3-5.2,6.9-5.2
		c0.9,0,1.8,0.1,2.5,0.3v-0.7c0-2.5-1.3-3.7-3.6-3.7c-1.5,0-3,0.3-4.2,1l-0.4-1.6c1.3-0.6,3.3-1,4.8-1c3.3,0,5.2,1.9,5.2,5.4v9.9
		h-1.8L629.8,623.7L629.8,623.7z M625.8,622.3c1.9,0,3.3-1,4-1.9v-4.6c-0.6-0.1-1.6-0.3-2.5-0.3c-2.8,0-5.1,1-5.1,3.7
		C622.3,621.1,623.8,622.3,625.8,622.3L625.8,622.3z M646.4,623.7v-9.1c0-2.8-1.2-4.5-3.9-4.5c-2.2,0-3.7,1.6-4.3,3.6v10h-1.8v-20.5
		h1.8v7.9c0.9-1.8,2.7-2.8,4.9-2.8c3.4,0,5.1,2.1,5.1,5.8v9.4h-1.8L646.4,623.7z M661.3,623.7V622c-0.9,0.9-2.4,1.9-4.6,1.9
		c-3,0-4.8-1.8-4.8-4.6c0-3.7,3-5.2,6.9-5.2c0.9,0,1.8,0.1,2.5,0.3v-0.7c0-2.5-1.3-3.7-3.6-3.7c-1.5,0-3,0.3-4.2,1l-0.4-1.6
		c1.3-0.6,3.3-1,4.8-1c3.3,0,5.2,1.9,5.2,5.4v9.9h-1.8L661.3,623.7L661.3,623.7z M657.2,622.3c1.9,0,3.3-1,4-1.9v-4.6
		c-0.6-0.1-1.6-0.3-2.5-0.3c-2.8,0-5.1,1-5.1,3.7C653.8,621.1,655.1,622.3,657.2,622.3L657.2,622.3z M686.9,623.7v-9.3
		c0-2.8-1-4.2-3.7-4.2c-2.1,0-3.1,1.3-3.7,3.3v10.2h-1.9v-9.3c0-2.8-1.3-4.2-3.6-4.2s-3.6,1.5-4.2,3.4v10.2h-1.8v-15.1h1.8v2.4
		c0.9-1.8,2.4-2.7,4.8-2.7c2.4,0,3.9,1,4.5,3c0.9-1.9,2.4-3,4.6-3c3.6,0,5.1,1.9,5.1,5.7v9.6L686.9,623.7L686.9,623.7L686.9,623.7z"
		/>
</g>
<path fill="#333333" d="M1086,545.8c16.3-11.4,20.7-25.5,21-32.3c-6.1-0.7-12.1-6.6-12.1-12.9c0-7.3,6.3-12.9,12.9-12.9
	c7.8,0,14.4,6.1,14.4,17.5c0,13.2-9,33.8-32.8,45.7L1086,545.8z M1128.6,545.8c16.3-11.4,20.7-25.5,21-32.3
	c-6.1-0.7-12.1-6.6-12.1-12.9c0-7.3,6.3-12.9,12.9-12.9c7.8,0,14.4,6.1,14.4,17.5c0,13.2-9,33.8-32.8,45.7L1128.6,545.8
	L1128.6,545.8z"/>
<path fill="#FFFFFF" d="M493,428h-20.2l0-0.1h5.7l5.5-45.1h-5.7l0-0.1h20.4c11.8,0,23.4,8.2,21.6,22.6C518.5,419.8,505,428,493,428z
	 M498.5,382.8h-3.7l-5.5,45.1h3.7c11.7,0,14.7-8.5,16.4-22.6C511.3,391.3,510.4,382.8,498.5,382.8L498.5,382.8z"/>
<path fill="#FFFFFF" d="M525.3,402.2c0.9-2.4,3.3-4,5.7-4c3,0,5.2,2.4,4.9,5.5c-0.4,3-3.1,5.5-6.2,5.5c-3.6,0-5.2-2.8-4.8-6
	c0.1-0.4,0.1-1,0.5-1.9c2.4-4.6,8.1-6.4,11.9-6.4c9.6,0,14.6,4.6,13.7,11.4l-2.1,17.1c-0.3,2.7,0.4,3.9,1.9,3.9
	c0.6,0,1.2-0.1,1.6-0.4c1-0.7,1.3-2.2,1.5-2.5h0.1c-0.7,2.4-2.5,4.8-6.4,4.8c-5.4,0-8.9-3.4-8.8-7.2c-0.6,2.7-3.1,7.2-10,7.2
	c-5.4,0-8.2-3.6-7.7-8.2c0.6-5.2,5.1-8.4,9.5-9.3c3.4-0.6,3.8-0.3,5.6-0.7c1.6-0.4,2.9-1.8,4.3-3.3l0.8-6.7c0.5-3.9-1.1-5.5-4.7-5.5
	C532.1,395.1,526.8,397.9,525.3,402.2L525.3,402.2z M540.6,407.5c-1.6,1.9-2.7,2.7-4.2,3.4c-2.1,1-3.9,2.8-4.3,6l-0.7,5.8
	c-0.4,3.1-0.3,4.9,1.6,4.9c2.8,0,5.6-3.9,5.8-6.1L540.6,407.5L540.6,407.5z"/>
<path fill="#FFFFFF" d="M593.6,428H575l0-0.1h3l3.1-25.5c0.6-4.8,0.2-6.6-1.9-6.6c-2.2,0-4.7,2.7-6,6.4l-3.2,25.8h3l0,0.1h-18.6
	l0-0.1h5.2l4-32.2h-5.2l0-0.1h15.6l-0.7,6c1.9-4.8,5-6.7,8.6-6.7c7.3,0,9.8,5.4,9,12l-2.6,21.3L593.6,428L593.6,428z"/>
<path fill="#FFFFFF" d="M606.9,412c-0.6,5.2-1.8,15.9,5.5,15.9c5.8,0,9.6-4.8,10.8-12.4h0.1c-1.3,7.8-5.1,13.5-13.6,13.5
	c-8.4,0-15.1-7.3-13.9-17.1c1.1-9,8.8-17.1,18.6-17.1c6,0,8.6,2.8,9.4,6.6c0.2,0.9,0.1,1.5,0.1,1.9c-0.4,3.1-2.7,6-6.3,6
	c-3,0-5.2-2.4-4.9-5.5c0.4-3,3.1-5.5,6.2-5.5c2.4,0,4.4,1.8,4.7,4c-0.3-3.3-2.4-7.2-8.2-7.2C609.6,395.1,608.1,402.5,606.9,412
	L606.9,412z"/>
<path fill="#FFFFFF" d="M622,428l5.3-0.1l3.9-32H626l0-0.1h15.6l-4,32.3h5.2l0,0.1H622L622,428L622,428z M638.5,378
	c3.1,0,5.2,2.4,4.9,5.5c-0.4,3.1-3.1,5.4-6.2,5.4s-5.1-2.4-4.7-5.4C632.8,380.5,635.4,378,638.5,378L638.5,378z"/>
<path fill="#FFFFFF" d="M683.6,428H665l0-0.1h3l3.1-25.5c0.6-4.8,0.2-6.6-1.9-6.6c-2.2,0-4.7,2.7-6,6.4l-3.2,25.8h3l0,0.1h-18.6
	l0-0.1h5.2l4-32.2h-5.2l0-0.1H664l-0.7,6c1.9-4.8,5-6.7,8.6-6.7c7.3,0,9.8,5.4,9,12l-2.6,21.3L683.6,428L683.6,428z"/>
<path fill="#FFFFFF" d="M693.2,413.2c-1.3,0.4-2.8,1-3,2.7c-0.1,0.7,0.3,1.2,1.1,1.6c1.1,0.6,4.1,1,9.9,1.3
	c12.5,0.7,15.5,5.5,14.6,12.4c-0.9,7.2-8.3,12.6-17.6,12.6c-10.9,0-15.8-4.5-15.2-9c0.5-4.3,4.3-6.6,8.7-7.2c-3.5-1-6.1-3.1-5.5-7.6
	C686.5,416.6,689.1,414.4,693.2,413.2c-2.5-1.9-3.6-4.8-3.2-7.9c0.7-5.8,6.5-10.5,14-10.5c5.1,0,8.9,2.1,10.4,5.2
	c1.1-0.2,7.5-1.3,8.2-7.2c0.5-4.3-1.8-6-3.8-6.7c1.7,0.9,2.8,2.8,2.5,5.1c-0.4,3-3.2,5.5-6.4,5.5s-5.2-2.5-4.9-5.5
	c0.4-3.1,3.1-5.7,6.2-5.7c0.1,0,0.9,0,1.3,0.1c1.9,0.4,5.8,1.6,5.1,7.2c-0.7,5.7-7,7-8.4,7.2c0.7,1.5,1.1,3.1,0.9,4.9
	c-0.7,5.8-6.5,10.5-14,10.5C697.9,415.7,695.1,414.7,693.2,413.2L693.2,413.2z M692.1,428c-1.8,0.9-3.8,3-4.3,6.7
	c-0.6,4.5,3.2,9.1,10.1,9.1c6.3,0,11.4-2.8,12-7.3c0.5-3.9-1.7-5.7-9-6.9C698.6,429,695.1,428.7,692.1,428z M707.3,405.2
	c1.1-8.8-1-10.3-3.4-10.3c-2.4,0-4.8,1.5-5.9,10.3c-1.1,8.8,1,10.3,3.4,10.3C703.8,415.6,706.2,414.1,707.3,405.2z"/>
<path fill="#FFFFFF" d="M729.2,428l5.3-0.1l3.9-32h-5.2l0-0.1h15.6l-4,32.3h5.2l0,0.1h-20.8L729.2,428z M745.7,378
	c3.1,0,5.2,2.4,4.9,5.5c-0.4,3.1-3.1,5.4-6.2,5.4s-5.1-2.4-4.7-5.4C740,380.5,742.6,378,745.7,378L745.7,378z"/>
<path fill="#FFFFFF" d="M755.8,426.3c-1.3,0-2.8,1-3.4,3.3h-0.1l2-16.5h0.1c-0.6,5.8,3.3,15.7,10.3,15.7c2.8,0,4.9-1.8,5.2-4.8
	c1-7.8-16.5-6.9-15-19.3c0.6-4.8,5.3-10,11.1-10c3.3,0,6,2.4,8.5,2.4c0.9,0,1.6-0.6,1.8-2.4h0.1l-1.6,13h-0.1
	c0.1-3.4-2.2-12.9-8.8-12.9c-2.8,0-5.4,2.2-5.7,4.8c-0.9,7,17.5,6.3,15.9,18.9c-0.7,5.8-5.6,10.3-11.6,10.3
	C760.7,429,758.9,426.3,755.8,426.3L755.8,426.3z"/>
<path fill="#FFFFFF" d="M806.4,395.8l-3.4,27.8c-0.2,1.8,0.4,3.1,1.9,3.1c2.1,0,2.7-2.4,2.9-4.5l0.9-7.2h0.1l-0.9,7.3
	c-0.5,3.7-2.3,6.3-6.9,6.3c-6.3,0-8.6-4-7.9-10.2l2.8-22.8h-5.1l0-0.2h1.6c7.6,0,14.2-4.8,15.3-13.5h0.1l-1.7,13.6l6.5-0.2l0,0.2
	L806.4,395.8L806.4,395.8z"/>
<path fill="#FFFFFF" d="M848.3,428h-18.6l0-0.1h3l3.1-25.5c0.6-4.8,0.2-6.6-1.9-6.6c-2.2,0-4.7,2.7-6,6.4l-3.2,25.8h3l0,0.1h-18.6
	l0-0.1h5.2l5.8-47h-5.2l0-0.1h15.6l-2.5,20.7c1.9-4.8,5-6.7,8.6-6.7c7.3,0,9.8,5.4,9,12L843,428L848.3,428L848.3,428L848.3,428z"/>
<path fill="#FFFFFF" d="M861.6,411.7l-0.2,1.8c-1.1,9-1.3,14.2,5.3,14.2c6,0,10.5-4.2,12.9-11.2h0.1c-2.6,7.6-7.6,12.3-15.7,12.3
	c-8.2,0-14.6-7.9-13.5-17.1c1.1-9.1,9.4-17.1,17.7-17.1c8.4,0,14,7.8,12.9,16.9h-19.5L861.6,411.7L861.6,411.7z M862.2,407.3
	l-0.5,4.3h8.4c1.8-14.5,1.5-16.8-1.8-16.8C864,394.9,863.1,399.8,862.2,407.3L862.2,407.3z"/>
<path fill="#FFFFFF" d="M929.5,428H911l0-0.1h3l3.1-25.5c0.6-4.8,0.2-6.6-1.9-6.6c-2.2,0-4.7,2.7-6,6.4L906,428h3l0,0.1h-18.6l0-0.1
	h5.2l5.8-47h-5.2l0-0.1h15.6l-2.5,20.7c1.9-4.8,5-6.7,8.6-6.7c7.3,0,9.8,5.4,9,12l-2.6,21.3L929.5,428L929.5,428L929.5,428z"/>
<path fill="#FFFFFF" d="M931.5,428l5.3-0.1l3.9-32h-5.2l0-0.1H951l-4,32.3h5.2l0,0.1h-20.8L931.5,428L931.5,428z M948,378
	c3.1,0,5.2,2.4,4.9,5.5c-0.4,3.1-3.1,5.4-6.2,5.4s-5.1-2.4-4.7-5.4C942.3,380.5,944.8,378,948,378z"/>
<path fill="#FFFFFF" d="M978.6,381h-5.2l0-0.1h15.6l-5.8,47h5.2l0,0.1h-15.6l0.7-6c-1.9,4.8-5,6.7-8.6,6.7
	c-6.3,0-11.7-7.2-10.5-17.1s8.4-17.1,14.7-17.1c3.6,0,6.2,1.9,7,6.7L978.6,381L978.6,381z M976,402.1c-0.4-3.7-2.1-6.4-4.5-6.4
	c-3,0-4.4,3.1-5.6,12.6l-0.9,7.2c-1.2,9.4-0.5,12.6,2.5,12.6c2.2,0,4.7-2.7,6-6.4L976,402.1L976,402.1z"/>
<path fill="#FFFFFF" d="M1015,381h-5.2l0-0.1h15.6l-5.8,47h5.2l0,0.1h-15.6l0.7-6c-1.9,4.8-5,6.7-8.6,6.7c-6.3,0-11.7-7.2-10.5-17.1
	s8.4-17.1,14.7-17.1c3.6,0,6.2,1.9,7,6.7L1015,381L1015,381z M1012.4,402.1c-0.4-3.7-2.1-6.4-4.5-6.4c-3,0-4.4,3.1-5.6,12.6
	l-0.9,7.2c-1.2,9.4-0.5,12.6,2.5,12.6c2.2,0,4.7-2.7,6-6.4L1012.4,402.1L1012.4,402.1z"/>
<path fill="#FFFFFF" d="M1038,411.7l-0.2,1.8c-1.1,9-1.3,14.2,5.3,14.2c6,0,10.5-4.2,12.9-11.2h0.1c-2.6,7.6-7.6,12.3-15.7,12.3
	c-8.2,0-14.6-7.9-13.5-17.1c1.1-9.1,9.4-17.1,17.7-17.1c8.4,0,14,7.8,12.9,16.9H1038L1038,411.7L1038,411.7z M1038.5,407.3l-0.5,4.3
	h8.4c1.8-14.5,1.5-16.8-1.8-16.8C1040.4,394.9,1039.5,399.8,1038.5,407.3L1038.5,407.3z"/>
<path fill="#FFFFFF" d="M1094.8,428h-18.6l0-0.1h3l3.1-25.5c0.6-4.8,0.2-6.6-1.9-6.6c-2.2,0-4.7,2.7-6,6.4l-3.2,25.8h3l0,0.1h-18.6
	l0-0.1h5.2l4-32.2h-5.2l0-0.1h15.6l-0.7,6c1.9-4.8,5-6.7,8.6-6.7c7.3,0,9.8,5.4,9,12l-2.6,21.3L1094.8,428L1094.8,428z"/>
<path fill="#FFFFFF" d="M472.7,505.7l5.3-0.1l5.8-46.9h-5.2l0-0.1h15.6l-5.8,47h5.2l0,0.1L472.7,505.7L472.7,505.7z"/>
<path fill="#FFFFFF" d="M499.4,480.1c0.9-2.4,3.3-4,5.7-4c3,0,5.2,2.4,4.9,5.5c-0.4,3-3.1,5.5-6.2,5.5c-3.6,0-5.2-2.8-4.8-6
	c0.1-0.4,0.1-1,0.5-1.9c2.4-4.6,8.1-6.4,11.9-6.4c9.6,0,14.6,4.6,13.7,11.4l-2.1,17.1c-0.3,2.7,0.4,3.9,1.9,3.9
	c0.6,0,1.2-0.1,1.6-0.4c1-0.7,1.3-2.2,1.5-2.5h0.1c-0.7,2.4-2.5,4.8-6.4,4.8c-5.4,0-8.9-3.4-8.8-7.2c-0.6,2.7-3.1,7.2-10,7.2
	c-5.4,0-8.2-3.6-7.7-8.2c0.6-5.2,5.1-8.4,9.5-9.3c3.4-0.6,3.8-0.3,5.6-0.7c1.6-0.4,2.9-1.8,4.3-3.3l0.8-6.7c0.5-3.9-1.1-5.5-4.7-5.5
	C506.1,472.9,500.8,475.8,499.4,480.1L499.4,480.1z M514.6,485.3c-1.6,1.9-2.7,2.7-4.2,3.4c-2.1,1-3.9,2.8-4.3,6l-0.7,5.8
	c-0.4,3.1-0.3,4.9,1.6,4.9c2.8,0,5.6-3.9,5.8-6.1L514.6,485.3L514.6,485.3z"/>
<path fill="#FFFFFF" d="M567.7,505.7h-18.6l0-0.1h3l3.1-25.6c0.6-4.8,0.2-6.6-1.9-6.6c-2.2,0-4.7,2.7-6,6.4l-3.2,25.8h3l0,0.1h-18.4
	l0-0.1h5.2l4-32.2h-5.2l0-0.1h15.6l-0.7,6c1.9-4.8,5-6.7,8.6-6.7c7.3,0,9.8,5.4,9,12l-2.6,21.3L567.7,505.7L567.7,505.7L567.7,505.7
	z"/>
<path fill="#FFFFFF" d="M577.3,490.9c-1.3,0.4-2.8,1-3,2.7c-0.1,0.7,0.3,1.2,1.1,1.6c1.1,0.6,4.1,1,9.9,1.3
	c12.5,0.7,15.5,5.5,14.6,12.4c-0.9,7.2-8.3,12.6-17.6,12.6c-10.9,0-15.8-4.5-15.2-9c0.5-4.3,4.3-6.6,8.7-7.2c-3.5-1-6.1-3.1-5.5-7.6
	C570.6,494.3,573.2,492.1,577.3,490.9c-2.5-1.9-3.6-4.8-3.2-7.9c0.7-5.8,6.5-10.5,14-10.5c5.1,0,8.9,2.1,10.4,5.2
	c1.1-0.1,7.5-1.3,8.2-7.2c0.5-4.3-1.8-6-3.8-6.7c1.7,0.9,2.8,2.8,2.5,5.1c-0.4,3-3.2,5.5-6.4,5.5s-5.2-2.5-4.9-5.5
	c0.4-3.1,3.1-5.7,6.2-5.7c0.1,0,0.9,0,1.3,0.1c1.9,0.4,5.8,1.6,5.1,7.2c-0.7,5.7-7,7-8.4,7.2c0.7,1.5,1.1,3.1,0.9,4.9
	c-0.7,5.8-6.5,10.5-14,10.5C582.2,493.4,579.3,492.5,577.3,490.9L577.3,490.9z M576.3,505.7c-1.8,0.9-3.8,3-4.3,6.7
	c-0.6,4.5,3.2,9.1,10.1,9.1c6.3,0,11.4-2.8,12-7.3c0.5-3.9-1.7-5.7-9-6.9C582.6,506.9,579.2,506.6,576.3,505.7z M591.4,482.9
	c1.1-8.8-1-10.3-3.4-10.3c-2.4,0-4.8,1.5-5.9,10.3c-1.1,8.8,1,10.3,3.4,10.3C588.1,493.3,590.3,491.8,591.4,482.9L591.4,482.9z"/>
<path fill="#FFFFFF" d="M607.6,473.4h15.6L620,499c-0.6,4.8-0.2,6.6,1.9,6.6c2.2,0,4.7-2.7,6-6.4l3.2-25.8h-3l0-0.1h13.3l-4,32.3
	h5.2l0,0.1h-15.6l0.7-6c-1.9,4.8-5,6.7-8.6,6.7c-7.3,0-9.8-5.4-9-12l2.6-21.3L607.6,473.4L607.6,473.4z"/>
<path fill="#FFFFFF" d="M648.5,480.1c0.9-2.4,3.3-4,5.7-4c3,0,5.2,2.4,4.9,5.5c-0.4,3-3.1,5.5-6.2,5.5c-3.6,0-5.2-2.8-4.8-6
	c0.1-0.4,0.1-1,0.5-1.9c2.4-4.6,8.1-6.4,11.9-6.4c9.6,0,14.6,4.6,13.7,11.4l-2.1,17.1c-0.3,2.7,0.4,3.9,1.9,3.9
	c0.6,0,1.2-0.1,1.6-0.4c1-0.7,1.3-2.2,1.5-2.5h0.1c-0.7,2.4-2.5,4.8-6.4,4.8c-5.4,0-8.9-3.4-8.8-7.2c-0.6,2.7-3.1,7.2-10,7.2
	c-5.4,0-8.2-3.6-7.7-8.2c0.6-5.2,5.1-8.4,9.5-9.3c3.4-0.6,3.8-0.3,5.6-0.7c1.6-0.4,2.9-1.8,4.3-3.3l0.8-6.7c0.5-3.9-1.1-5.5-4.7-5.5
	C655.4,472.9,650.1,475.8,648.5,480.1L648.5,480.1z M663.7,485.3c-1.6,1.9-2.7,2.7-4.2,3.4c-2.1,1-3.9,2.8-4.3,6l-0.7,5.8
	c-0.4,3.1-0.3,4.9,1.6,4.9c2.8,0,5.6-3.9,5.8-6.1L663.7,485.3L663.7,485.3z"/>
<path fill="#FFFFFF" d="M687.3,490.9c-1.3,0.4-2.8,1-3,2.7c-0.1,0.7,0.3,1.2,1.1,1.6c1.1,0.6,4.1,1,9.9,1.3
	c12.5,0.7,15.5,5.5,14.6,12.4c-0.9,7.2-8.3,12.6-17.6,12.6c-10.9,0-15.8-4.5-15.2-9c0.5-4.3,4.3-6.6,8.7-7.2c-3.5-1-6.1-3.1-5.5-7.6
	C680.6,494.3,683.3,492.1,687.3,490.9c-2.5-1.9-3.6-4.8-3.2-7.9c0.7-5.8,6.5-10.5,14-10.5c5.1,0,8.9,2.1,10.4,5.2
	c1.1-0.1,7.5-1.3,8.2-7.2c0.5-4.3-1.8-6-3.8-6.7c1.7,0.9,2.8,2.8,2.5,5.1c-0.4,3-3.2,5.5-6.4,5.5c-3.1,0-5.2-2.5-4.9-5.5
	c0.4-3.1,3.1-5.7,6.2-5.7c0.1,0,0.9,0,1.3,0.1c1.9,0.4,5.8,1.6,5.1,7.2c-0.7,5.7-7,7-8.4,7.2c0.7,1.5,1.1,3.1,0.9,4.9
	c-0.7,5.8-6.5,10.5-14,10.5C692.1,493.4,689.4,492.5,687.3,490.9z M686.4,505.7c-1.8,0.9-3.8,3-4.3,6.7c-0.6,4.5,3.2,9.1,10.1,9.1
	c6.3,0,11.4-2.8,12-7.3c0.5-3.9-1.7-5.7-9-6.9C692.7,506.9,689.3,506.6,686.4,505.7z M701.5,482.9c1.1-8.8-1-10.3-3.4-10.3
	s-4.8,1.5-5.9,10.3c-1.1,8.8,1,10.3,3.4,10.3C697.9,493.3,700.4,491.8,701.5,482.9z"/>
<path fill="#FFFFFF" d="M724.9,489.5l-0.2,1.8c-1.1,9-1.3,14.2,5.3,14.2c6,0,10.5-4.2,12.9-11.2h0.1c-2.6,7.6-7.6,12.3-15.7,12.3
	c-8.2,0-14.6-7.9-13.5-17.1c1.1-9.1,9.4-17.1,17.7-17.1c8.4,0,14,7.8,12.9,16.9h-19.5L724.9,489.5L724.9,489.5z M725.5,485l-0.5,4.3
	h8.4c1.8-14.5,1.5-16.8-1.8-16.8C727.3,472.6,726.4,477.6,725.5,485z"/>
<path fill="#FFFFFF" d="M770.4,506.6c-8.2,0-15.3-7.9-14.2-17.1c1.1-9.1,10.2-17.1,18.4-17.1c8.2,0,15.3,7.9,14.2,17.1
	C787.7,498.7,778.7,506.6,770.4,506.6z M774.6,472.6c-5.1,0-6.2,7.6-7.3,16.9c-1.1,9.3-1.9,16.9,3.2,16.9s6.2-7.6,7.3-16.9
	C778.9,480.2,779.7,472.6,774.6,472.6L774.6,472.6z"/>
<path fill="#FFFFFF" d="M821.1,462.9c0.2,0.9,0.1,1.5,0.1,1.9c-0.4,3.1-2.7,6-6.3,6c-3,0-5.2-2.4-4.9-5.5c0.4-3,3.1-5.5,6.2-5.5
	c2.4,0,4.4,1.8,4.7,4c-0.2-3.4-2.6-5.5-5.9-5.5c-1.9,0-3.5,0.4-4.6,1.2c-1.6,1-2.4,2.7-2.7,4.9l-1.1,9h5.2l0,0.1h-5.2l-4,32.2h5.2
	l0,0.1h-20.7l0-0.1h5.2l4-32.2h-5.2l0-0.1h5.2l0.5-4.2c0.8-6.3,7.7-11.4,15.8-11.4C817.3,457.8,820.4,459,821.1,462.9L821.1,462.9z"
	/>
<path fill="#FFFFFF" d="M846,473.5l-3.4,27.8c-0.2,1.8,0.4,3.1,1.9,3.1c2.1,0,2.7-2.4,2.9-4.5l0.9-7.2h0.1l-0.9,7.3
	c-0.5,3.7-2.3,6.3-6.9,6.3c-6.3,0-8.6-4-7.9-10.2l2.8-22.9h-4.9l0-0.1h1.6c7.6,0,14.2-4.8,15.3-13.5h0.2L846,473.5l6.5-0.1l0,0.1
	L846,473.5L846,473.5z"/>
<path fill="#FFFFFF" d="M887.9,505.7h-18.6l0-0.1h3l3.1-25.6c0.6-4.8,0.2-6.6-1.9-6.6c-2.2,0-4.7,2.7-6,6.4l-3.2,25.8h3l0,0.1h-18.6
	l0-0.1h5.2l5.8-46.9h-5.2l0-0.1h15.6l-2.5,20.7c1.9-4.8,5-6.7,8.6-6.7c7.3,0,9.8,5.4,9,12l-2.6,21.3L887.9,505.7L887.9,505.7z"/>
<path fill="#FFFFFF" d="M901.3,489.5l-0.2,1.8c-1.1,9-1.3,14.2,5.3,14.2c6,0,10.5-4.2,12.9-11.2h0.1c-2.6,7.6-7.6,12.3-15.7,12.3
	c-8.2,0-14.6-7.9-13.5-17.1s9.4-17.1,17.7-17.1c8.4,0,14,7.8,12.9,16.9h-19.5L901.3,489.5L901.3,489.5z M901.8,485l-0.5,4.3h8.4
	c1.8-14.5,1.5-16.8-1.8-16.8C903.6,472.6,902.7,477.6,901.8,485z"/>
<path fill="#FFFFFF" d="M935.1,504c-1.3,0-2.8,1-3.4,3.3h-0.1l2-16.5h0.1c-0.6,5.8,3.3,15.7,10.3,15.7c2.8,0,4.9-1.8,5.2-4.8
	c1-7.8-16.5-6.9-15-19.3c0.6-4.8,5.3-10,11.1-10c3.3,0,6,2.4,8.5,2.4c0.9,0,1.6-0.6,1.8-2.4h0.2l-1.6,13h-0.1
	c0.1-3.4-2.2-12.9-8.8-12.9c-2.8,0-5.4,2.2-5.7,4.8c-0.9,7,17.5,6.3,15.9,18.9c-0.7,5.8-5.6,10.3-11.6,10.3
	C940,506.7,938.3,504,935.1,504L935.1,504z"/>
<path fill="#FFFFFF" d="M973,506.6c-8.2,0-15.3-7.9-14.2-17.1c1.1-9.1,10.2-17.1,18.4-17.1c8.2,0,15.3,7.9,14.2,17.1
	C990.3,498.7,981.2,506.6,973,506.6z M977.2,472.6c-5.1,0-6.2,7.6-7.3,16.9c-1.1,9.3-1.9,16.9,3.2,16.9c5.1,0,6.2-7.6,7.3-16.9
	C981.5,480.2,982.2,472.6,977.2,472.6z"/>
<path fill="#FFFFFF" d="M993.1,473.4h15.6l-3.1,25.6c-0.6,4.8-0.2,6.6,1.9,6.6c2.2,0,4.7-2.7,6-6.4l3.2-25.8h-3l0-0.1h13.3l-4,32.3
	h5.2l0,0.1h-15.6l0.7-6c-1.9,4.8-5,6.7-8.6,6.7c-7.3,0-9.8-5.4-9-12l2.6-21.3L993.1,473.4z"/>
<path fill="#FFFFFF" d="M1030,505.7l5.3-0.1l5.8-46.9h-5.2l0-0.1h15.6l-5.8,47h5.2l0,0.1L1030,505.7L1030,505.7z"/>
<path fill="#FFFFFF" d="M1058.5,495.4c3,0,5.1,2.4,4.7,5.4c-0.4,3-3.1,5.5-6.1,5.5s-5.2-2.4-4.9-5.5
	C1052.7,497.9,1055.4,495.4,1058.5,495.4z"/>
<path fill="#333333" d="M377,364.7c0-13,9-33.7,32.8-45.7l3.1,5.1c-16.3,11.4-20.7,25.5-21,32.3c6.1,0.7,12.1,6.6,12.1,12.9
	c0,7.3-6.3,12.9-12.9,12.9C383.6,382.2,377,376,377,364.7z M419.5,364.7c0-13.2,9-33.8,32.8-45.7l3.1,5.1
	c-16.3,11.4-20.7,25.5-21,32.3c6.1,0.7,12.1,6.6,12.1,12.9c0,7.3-6.3,12.9-12.9,12.9C426.1,382.2,419.5,376,419.5,364.7z"/>
</svg>
