<?xml version="1.0" encoding="utf-8"?>
<!-- Generator: Adobe Illustrator 18.1.0, SVG Export Plug-In . SVG Version: 6.00 Build 0)  -->
<svg version="1.1" id="Layer_1" xmlns="http://www.w3.org/2000/svg" xmlns:xlink="http://www.w3.org/1999/xlink" x="0px" y="0px"
	 viewBox="0 0 499 271" enable-background="new 0 0 499 271" xml:space="preserve">
<g>
	<path fill="#FFFFFF" d="M72.3,260.7c-0.2,1-0.8,1.8-1.7,1.8c-1.2,0-1.8-1.7-2.8-1.7c-0.5,0-1,0.4-1.1,1.3l-0.6-0.6
		c0.1-0.9,0.7-1.7,1.6-1.7c1.2,0,2,1.7,2.9,1.7c0.6,0,0.9-0.5,1.1-1.3L72.3,260.7z"/>
	<path fill="#FFFFFF" d="M90,255.9l-4.6,6.6h-0.3l-4.6-6.6v11h-1.3v-13.1h1.2l4.7,6.9l4.8-6.9h1.2v13.1H90V255.9z"/>
	<path fill="#FFFFFF" d="M100.2,266.9v-1.1c-0.6,0.6-1.6,1.3-3.1,1.3c-2,0-3.2-1.2-3.2-3.1c0-2.5,2-3.5,4.6-3.5
		c0.6,0,1.2,0.1,1.7,0.2v-0.5c0-1.7-0.9-2.5-2.4-2.5c-1,0-2,0.2-2.8,0.7l-0.3-1.1c0.9-0.4,2.2-0.7,3.2-0.7c2.2,0,3.5,1.3,3.5,3.6
		v6.6H100.2z M97.5,266.1c1.3,0,2.2-0.7,2.7-1.3v-3.1c-0.4-0.1-1.1-0.2-1.7-0.2c-1.9,0-3.4,0.7-3.4,2.5
		C95.2,265.3,96.2,266.1,97.5,266.1z"/>
	<path fill="#FFFFFF" d="M103.5,269.2c0.4,0.3,0.9,0.5,1.7,0.5c1.1,0,1.6-0.7,2-2l0.3-0.8l-4.1-10h1.4l3.3,8.7l3-8.7h1.3l-4,11.1
		c-0.6,1.8-1.4,2.8-3.1,2.8c-0.8,0-1.5-0.3-1.9-0.6L103.5,269.2z"/>
	<path fill="#FFFFFF" d="M119.9,266.9v-1.1c-0.6,0.6-1.6,1.3-3.1,1.3c-2,0-3.2-1.2-3.2-3.1c0-2.5,2-3.5,4.6-3.5
		c0.6,0,1.2,0.1,1.7,0.2v-0.5c0-1.7-0.9-2.5-2.4-2.5c-1,0-2,0.2-2.8,0.7l-0.3-1.1c0.9-0.4,2.2-0.7,3.2-0.7c2.2,0,3.5,1.3,3.5,3.6
		v6.6H119.9z M117.2,266.1c1.3,0,2.2-0.7,2.7-1.3v-3.1c-0.4-0.1-1.1-0.2-1.7-0.2c-1.9,0-3.4,0.7-3.4,2.5
		C114.9,265.3,115.8,266.1,117.2,266.1z"/>
	<path fill="#FFFFFF" d="M131.2,253.8h1.4l4.5,13.1h-1.3l-1.1-3.2h-6l-1.1,3.2h-1.3L131.2,253.8z M129.3,262.7h5.3l-2.6-7.6
		L129.3,262.7z"/>
	<path fill="#FFFFFF" d="M146.1,266.9v-6.1c0-1.9-0.8-3-2.5-3c-1.5,0-2.5,1.1-2.9,2.4v6.7h-1.2v-10.1h1.2v1.7
		c0.6-1.2,1.8-1.9,3.3-1.9c2.3,0,3.4,1.4,3.4,3.9v6.3H146.1z"/>
	<path fill="#FFFFFF" d="M154.1,256.7c1.3,0,2.3,0.6,2.9,1.3v-1.1h1.3v9.6c0,3-1.8,4.3-3.9,4.3c-1.8,0-2.8-0.7-3.4-1l0.3-1.1
		c0.5,0.4,1.6,1.1,2.9,1.1c1.5,0,2.8-0.8,2.8-3V265c-0.7,0.8-1.7,1.3-2.9,1.3c-2.5,0-4.1-1.9-4.1-4.8
		C150,258.6,151.6,256.7,154.1,256.7z M154.4,265.2c1.1,0,2-0.7,2.5-1.3v-4.7c-0.5-0.6-1.3-1.4-2.5-1.4c-2,0-3.3,1.4-3.3,3.7
		C151.2,263.7,152.5,265.2,154.4,265.2z"/>
	<path fill="#FFFFFF" d="M162.1,262.3c0.1,2.2,1.1,3.8,3.5,3.8c1.2,0,2.2-0.5,2.9-1.2l0.5,1c-0.9,0.8-2.1,1.3-3.6,1.3
		c-3.2,0-4.5-2.2-4.5-5.3c0-3.1,1.7-5.3,4.5-5.3c2.6,0,3.8,1.9,3.8,4.1c0,0.6-0.1,1.2-0.2,1.6H162.1z M167.9,261.3
		c0-0.2,0.1-0.5,0.1-0.8c0-1.6-0.9-2.9-2.6-2.9c-2,0-3.1,1.5-3.2,3.6H167.9z"/>
	<path fill="#FFFFFF" d="M173.1,253.3v11.5c0,1,0.3,1.3,0.9,1.3c0.5,0,0.8-0.2,1.1-0.4l0.1,1c-0.4,0.3-1,0.5-1.7,0.5
		c-1.1,0-1.8-0.6-1.8-2.1v-11.7H173.1z"/>
	<path fill="#FFFFFF" d="M181.2,256.6c2.7,0,4.6,2,4.6,5.3c0,3.3-1.9,5.3-4.6,5.3c-2.7,0-4.5-2-4.5-5.3
		C176.7,258.6,178.5,256.6,181.2,256.6z M181.2,266c2,0,3.3-1.5,3.3-4.1c0-2.6-1.3-4.2-3.3-4.2c-2,0-3.3,1.6-3.3,4.2
		C177.9,264.5,179.2,266,181.2,266z"/>
	<path fill="#FFFFFF" d="M189.6,256.9v6.1c0,1.9,0.8,3,2.5,3c1.5,0,2.6-1.1,2.9-2.4v-6.7h1.3v10.1H195v-1.7
		c-0.6,1.2-1.8,1.9-3.3,1.9c-2.3,0-3.4-1.4-3.4-3.9v-6.3H189.6z"/>
</g>
<g>
	<path fill="#333333" d="M446.2,209.9c10.9-7.6,13.8-17.1,14-21.6c-4.1-0.5-8.1-4.4-8.1-8.6c0-4.9,4.2-8.6,8.6-8.6
		c5.2,0,9.6,4.1,9.6,11.7c0,8.8-6,22.6-21.9,30.6L446.2,209.9z M474.6,209.9c10.9-7.6,13.8-17.1,14-21.6c-4.1-0.5-8.1-4.4-8.1-8.6
		c0-4.9,4.2-8.6,8.6-8.6c5.2,0,9.6,4.1,9.6,11.7c0,8.8-6,22.6-21.9,30.6L474.6,209.9z"/>
</g>
<g>
	<path fill="#FFFFFF" d="M91.2,73.1H66.8V73h3.8V42.9h-3.8v-0.1h22.8v11h-0.1c0,0-1.4-10.9-10.2-10.9h-1.5v14.6h0.5
		c5.5,0,6.2-7.2,6.2-7.2h0.1v14.4h-0.1c0,0-0.7-7.2-6.2-7.2h-0.5V73h1.5c10.8,0,11.7-11.8,11.7-11.8h0.1V73.1z"/>
	<path fill="#FFFFFF" d="M115.2,51.5h-3.5l-7,22.3l-9.3-22.3H92v-0.1h13.9v0.1h-2.8l4.9,11.4l3.6-11.4h-3.5v-0.1L115.2,51.5
		L115.2,51.5z"/>
	<path fill="#FFFFFF" d="M121.2,62.2v1.2c0,6,0.3,9.6,4.7,9.6c4,0,6.7-2.8,7.8-7.5h0.1c-1.1,5.1-4.1,8.2-9.5,8.2
		c-5.5,0-10.4-5.3-10.4-11.4c0-6.1,4.9-11.4,10.4-11.4c5.6,0,10,5.2,10,11.4H121.2z M121.2,59.3v2.9h5.6c0-9.7-0.4-11.2-2.6-11.2
		C121.4,51,121.2,54.3,121.2,59.3z"/>
	<path fill="#FFFFFF" d="M134.4,73.1L134.4,73.1l3.5-0.1V51.5h-3.5v-0.1h10.4v1.8c0.9-1.3,2.1-2.3,4.2-2.3c1.6,0,3.9,0.9,4.6,3.4
		c0.2,0.6,0.2,1,0.2,1.3c0,2.1-1.3,4-3.7,4c-2,0-3.7-1.6-3.7-3.7s1.6-3.7,3.7-3.7c1.7,0,3.1,1.2,3.5,2.7c-0.2-1.9-1.9-4-4.6-4
		c-2.1,0-3.3,1-4.2,2.4V73h3.5v0.1H134.4z"/>
	<path fill="#FFFFFF" d="M154.7,79.7c0-0.2-0.1-0.7-0.1-0.9c0-2.1,1.7-3.7,3.8-3.7c2,0,3.7,1.6,3.7,3.7s-1.7,3.8-3.7,3.8
		c-1.5,0-2.8-0.9-3.4-2.1c0.5,1.4,1.6,3.1,4.5,3.1c3.4,0,4.8-2.3,6-5.6l1.4-3.8l-9.6-22.7h-3.5v-0.1h14v0.1H165l5.4,12.7l4.4-12.7
		h-3.5v-0.1h7.1v0.1h-3.5L165.7,78c-1.3,3.6-2.9,5.7-6.2,5.7C155.8,83.7,154.9,81,154.7,79.7z"/>
	<path fill="#FFFFFF" d="M189.9,51.5v18.6c0,1.2,0.5,2.1,1.5,2.1c1.4,0,1.6-1.6,1.6-3v-4.8h0.1v4.9c0,2.5-1,4.2-4.1,4.2
		c-4.2,0-6.1-2.7-6.1-6.8V51.5h-3.4v-0.1h1.1c5.1,0,9.1-3.2,9.1-9.1h0.1V51.5l4.3-0.1v0.1H189.9z"/>
	<path fill="#FFFFFF" d="M220.5,73.1h-12.4V73h2V55.9c0-3.2-0.4-4.4-1.8-4.4c-1.5,0-2.9,1.8-3.5,4.3V73h2v0.1h-12.4V73h3.5V41.6
		h-3.5v-0.1h10.4v13.9c0.9-3.2,2.8-4.6,5.2-4.6c4.9,0,7,3.6,7,8V73L220.5,73.1L220.5,73.1z"/>
	<path fill="#FFFFFF" d="M221.7,73.1L221.7,73.1l3.5-0.1V51.5h-3.5v-0.1h10.4V73h3.5v0.1H221.7z M228.7,39.7c2.1,0,3.7,1.6,3.7,3.7
		s-1.6,3.6-3.7,3.6s-3.6-1.6-3.6-3.6S226.6,39.7,228.7,39.7z"/>
	<path fill="#FFFFFF" d="M262.9,73.1h-12.4V73h2V55.9c0-3.2-0.4-4.4-1.8-4.4c-1.5,0-2.9,1.8-3.5,4.3V73h2v0.1h-12.4V73h3.5V51.5
		h-3.5v-0.1h10.4v4c0.9-3.2,2.8-4.6,5.2-4.6c4.9,0,7,3.6,7,8V73L262.9,73.1L262.9,73.1z"/>
	<path fill="#FFFFFF" d="M268.1,63.2c-0.8,0.3-1.8,0.7-1.8,1.8c0,0.5,0.3,0.8,0.9,1.1c0.8,0.4,2.8,0.7,6.7,0.9
		c8.4,0.5,10.8,3.7,10.8,8.3c0,4.9-4.5,8.5-10.7,8.5c-7.3,0-10.9-3-10.9-6c0-2.9,2.3-4.4,5.2-4.8c-2.4-0.7-4.3-2.1-4.3-5.1
		C263.9,65.5,265.5,64,268.1,63.2c-1.8-1.3-2.8-3.2-2.8-5.3c0-3.9,3.5-7,8.5-7c3.4,0,6.1,1.4,7.5,3.6c0.7-0.1,4.9-0.9,4.9-4.8
		c0-2.9-1.7-4-3.1-4.5c1.2,0.6,2.1,1.9,2.1,3.4c0,2-1.7,3.7-3.8,3.7s-3.7-1.7-3.7-3.7c0-2.1,1.6-3.8,3.7-3.8c0.1,0,0.7,0,0.9,0.1
		c1.3,0.3,4,1.1,4,4.8c0,3.8-4.1,4.7-5,4.9c0.6,1,1,2.1,1,3.3c0,3.9-3.5,7-8.5,7C271.5,64.9,269.6,64.2,268.1,63.2z M268.6,73.1
		c-1.1,0.7-2.3,2-2.3,4.5c0,3,2.9,6.1,7.5,6.1c4.2,0,7.4-1.9,7.4-4.9c0-2.6-1.6-3.8-6.6-4.6C273,73.8,270.7,73.6,268.6,73.1z
		 M276.9,57.9c0-5.9-1.5-6.9-3.1-6.9s-3.1,1-3.1,6.9s1.5,6.9,3.1,6.9S276.9,63.8,276.9,57.9z"/>
	<path fill="#FFFFFF" d="M293.4,73.1L293.4,73.1l3.5-0.1V51.5h-3.5v-0.1h10.4V73h3.5v0.1H293.4z M300.3,39.7c2.1,0,3.7,1.6,3.7,3.7
		s-1.6,3.6-3.7,3.6s-3.6-1.6-3.6-3.6S298.3,39.7,300.3,39.7z"/>
	<path fill="#FFFFFF" d="M334.5,73.1h-12.4V73h2V55.9c0-3.2-0.4-4.4-1.8-4.4c-1.5,0-2.9,1.8-3.5,4.3V73h2v0.1h-12.4V73h3.5V51.5
		h-3.5v-0.1h10.4v4c0.9-3.2,2.8-4.6,5.2-4.6c4.9,0,7,3.6,7,8V73L334.5,73.1L334.5,73.1z"/>
	<path fill="#FFFFFF" d="M352.3,51.5v18.6c0,1.2,0.5,2.1,1.5,2.1c1.4,0,1.6-1.6,1.6-3v-4.8h0.1v4.9c0,2.5-1,4.2-4.1,4.2
		c-4.2,0-6.1-2.7-6.1-6.8V51.5h-3.4v-0.1h1.1c5.1,0,9.1-3.2,9.1-9.1h0.1V51.5l4.3-0.1v0.1H352.3z"/>
	<path fill="#FFFFFF" d="M382.9,73.1h-12.4V73h2V55.9c0-3.2-0.4-4.4-1.8-4.4c-1.5,0-2.9,1.8-3.5,4.3V73h2v0.1h-12.4V73h3.5V41.6
		h-3.5v-0.1h10.4v13.9c0.9-3.2,2.8-4.6,5.2-4.6c4.9,0,7,3.6,7,8V73L382.9,73.1L382.9,73.1z"/>
	<path fill="#FFFFFF" d="M390.5,62.2v1.2c0,6,0.3,9.6,4.7,9.6c4,0,6.7-2.8,7.8-7.5h0.1c-1.1,5.1-4.1,8.2-9.5,8.2
		c-5.5,0-10.4-5.3-10.4-11.4c0-6.1,4.9-11.4,10.4-11.4c5.6,0,10,5.2,10,11.4H390.5z M390.5,59.3v2.9h5.6c0-9.7-0.4-11.2-2.6-11.2
		C390.7,51,390.5,54.3,390.5,59.3z"/>
	<path fill="#FFFFFF" d="M66,103.4h10.4v17.2c0,3.2,0.4,4.4,1.8,4.4c1.5,0,2.9-1.8,3.5-4.3v-17.2h-2v-0.1h8.9V125h3.5v0.1H81.7v-4
		c-0.9,3.2-2.8,4.6-5.2,4.6c-4.9,0-7-3.6-7-8v-14.2L66,103.4L66,103.4z"/>
	<path fill="#FFFFFF" d="M119.5,125.1h-12.4V125h2V108c0-3.2-0.4-4.4-1.8-4.4c-1.5,0-2.9,1.8-3.5,4.3V125h2v0.1H93.4V125h3.5v-21.5
		h-3.5v-0.1h10.4v4c0.9-3.2,2.8-4.6,5.2-4.6c4.9,0,7,3.6,7,8V125L119.5,125.1L119.5,125.1z"/>
	<path fill="#FFFFFF" d="M120.7,125.1L120.7,125.1l3.5-0.1v-21.5h-3.5v-0.1h10.4V125h3.5v0.1H120.7z M127.6,91.7
		c2.1,0,3.7,1.6,3.7,3.7s-1.6,3.6-3.7,3.6s-3.6-1.6-3.6-3.6S125.5,91.7,127.6,91.7z"/>
	<path fill="#FFFFFF" d="M157,103.5h-3.5l-7,22.3l-9.3-22.3h-3.5v-0.1h13.9v0.1h-2.8l4.9,11.4l3.6-11.4h-3.5v-0.1L157,103.5
		L157,103.5z"/>
	<path fill="#FFFFFF" d="M162.9,114.2v1.2c0,6,0.3,9.6,4.7,9.6c4,0,6.7-2.8,7.8-7.5h0.1c-1.1,5.1-4.1,8.2-9.5,8.2
		c-5.5,0-10.4-5.3-10.4-11.4c0-6.1,4.9-11.4,10.4-11.4c5.6,0,10,5.2,10,11.4H162.9z M162.9,111.3v2.9h5.6c0-9.7-0.4-11.2-2.6-11.2
		C163.1,103,162.9,106.3,162.9,111.3z"/>
	<path fill="#FFFFFF" d="M176.1,125.1L176.1,125.1l3.5-0.1v-21.5h-3.5v-0.1h10.4v1.8c0.9-1.3,2.1-2.3,4.2-2.3c1.6,0,3.9,0.9,4.6,3.4
		c0.2,0.6,0.2,1,0.2,1.3c0,2.1-1.3,4-3.7,4c-2,0-3.7-1.6-3.7-3.7c0-2,1.6-3.7,3.7-3.7c1.7,0,3.1,1.2,3.5,2.7c-0.2-1.9-1.9-4-4.6-4
		c-2.1,0-3.3,1-4.2,2.4V125h3.5v0.1H176.1z"/>
	<path fill="#FFFFFF" d="M199.5,124c-0.9,0-1.8,0.7-2,2.2h-0.1v-11h0.1c0.1,3.9,3.5,10.5,8.2,10.5c1.9,0,3.1-1.2,3.1-3.2
		c0-5.2-11.7-4.6-11.7-12.9c0-3.2,2.7-6.7,6.6-6.7c2.2,0,4.2,1.6,5.9,1.6c0.6,0,1-0.4,1-1.6h0.1v8.7h-0.1c-0.2-2.3-2.5-8.6-6.9-8.6
		c-2,0-3.4,1.5-3.4,3.2c0,4.7,12.2,4.2,12.2,12.6c0,3.9-2.9,6.9-6.9,6.9C203,125.8,201.6,124,199.5,124z"/>
	<path fill="#FFFFFF" d="M221.5,114.2v1.2c0,6,0.3,9.6,4.7,9.6c4,0,6.7-2.8,7.8-7.5h0.1c-1.1,5.1-4.1,8.2-9.5,8.2
		c-5.5,0-10.4-5.3-10.4-11.4c0-6.1,4.9-11.4,10.4-11.4c5.6,0,10,5.2,10,11.4H221.5z M221.5,111.3v2.9h5.6c0-9.7-0.4-11.2-2.6-11.2
		C221.8,103,221.5,106.3,221.5,111.3z"/>
	<path fill="#FFFFFF" d="M268.4,125.1H256V125h2V108c0-3.2-0.4-4.4-1.8-4.4c-1.5,0-2.9,1.8-3.5,4.3V125h2v0.1h-12.4V125h3.5V93.7
		h-3.5v-0.1h10.4v13.9c0.9-3.2,2.8-4.6,5.2-4.6c4.9,0,7,3.6,7,8V125L268.4,125.1L268.4,125.1z"/>
	<path fill="#FFFFFF" d="M270.3,107.9c0.4-1.6,2-2.7,3.6-2.7c2,0,3.7,1.6,3.7,3.7s-1.6,3.7-3.7,3.7c-2.4,0-3.7-1.9-3.7-4
		c0-0.3,0-0.7,0.2-1.3c1.2-3.1,4.9-4.4,7.4-4.4c6.4,0,10.1,3.1,10.1,7.6V122c0,1.8,0.6,2.6,1.6,2.6c0.4,0,0.8-0.1,1-0.3
		c0.6-0.5,0.7-1.5,0.8-1.7h0.1c-0.3,1.6-1.3,3.2-3.9,3.2c-3.6,0-6.2-2.3-6.5-4.8c-0.2,1.8-1.5,4.8-6.1,4.8c-3.6,0-5.9-2.4-5.9-5.5
		c0-3.5,2.7-5.6,5.6-6.2c2.2-0.4,2.5-0.2,3.7-0.5c1-0.3,1.8-1.2,2.6-2.2v-4.5c0-2.6-1.2-3.7-3.6-3.7
		C274.2,103.1,270.9,105,270.3,107.9z M280.9,111.4c-0.9,1.3-1.6,1.8-2.5,2.3c-1.3,0.7-2.4,1.9-2.4,4v3.9c0,2.1,0.2,3.3,1.5,3.3
		c2,0,3.4-2.6,3.4-4.1V111.4z"/>
	<path fill="#FFFFFF" d="M294.9,124c-0.9,0-1.8,0.7-2,2.2h-0.1v-11h0.1c0.1,3.9,3.5,10.5,8.2,10.5c1.9,0,3.1-1.2,3.1-3.2
		c0-5.2-11.7-4.6-11.7-12.9c0-3.2,2.7-6.7,6.6-6.7c2.2,0,4.2,1.6,5.9,1.6c0.6,0,1-0.4,1-1.6h0.1v8.7h-0.1c-0.2-2.3-2.5-8.6-6.9-8.6
		c-2,0-3.4,1.5-3.4,3.2c0,4.7,12.2,4.2,12.2,12.6c0,3.9-2.9,6.9-6.9,6.9C298.5,125.8,297.1,124,294.9,124z"/>
	<path fill="#FFFFFF" d="M316.2,125.1L316.2,125.1l3.5-0.1v-21.5h-3.5v-0.1h10.4v1.8c0.9-1.3,2.1-2.3,4.2-2.3c1.6,0,3.9,0.9,4.6,3.4
		c0.2,0.6,0.2,1,0.2,1.3c0,2.1-1.3,4-3.7,4c-2,0-3.7-1.6-3.7-3.7c0-2,1.6-3.7,3.7-3.7c1.7,0,3.1,1.2,3.5,2.7c-0.2-1.9-1.9-4-4.6-4
		c-2.1,0-3.3,1-4.2,2.4V125h3.5v0.1H316.2z"/>
	<path fill="#FFFFFF" d="M361.1,125.1h-12.4V125h2V108c0-3.2-0.4-4.4-1.8-4.4c-1.5,0-2.9,1.8-3.5,4.3V125h2v0.1H335V125h3.5V93.7
		H335v-0.1h10.4v13.9c0.9-3.2,2.8-4.6,5.2-4.6c4.9,0,7,3.6,7,8V125L361.1,125.1L361.1,125.1z"/>
	<path fill="#FFFFFF" d="M359.6,131.7c0-0.2-0.1-0.7-0.1-0.9c0-2.1,1.7-3.7,3.8-3.7c2,0,3.7,1.6,3.7,3.7s-1.7,3.8-3.7,3.8
		c-1.5,0-2.8-0.9-3.4-2.1c0.5,1.4,1.6,3.1,4.5,3.1c3.4,0,4.8-2.3,6-5.6l1.4-3.8l-9.6-22.7h-3.5v-0.1h14v0.1h-2.8l5.4,12.7l4.4-12.7
		h-3.5v-0.1h7.1v0.1h-3.5l-9.2,26.5c-1.3,3.6-2.9,5.7-6.2,5.7C360.7,135.7,359.8,133,359.6,131.7z"/>
	<path fill="#FFFFFF" d="M394.7,103.5v18.6c0,1.2,0.5,2.1,1.5,2.1c1.4,0,1.6-1.6,1.6-3v-4.8h0.1v4.9c0,2.5-1,4.2-4.1,4.2
		c-4.2,0-6.1-2.7-6.1-6.8v-15.3h-3.4v-0.1h1.1c5.1,0,9.1-3.2,9.1-9.1h0.1V103.5l4.3-0.1v0.1H394.7z"/>
	<path fill="#FFFFFF" d="M425.4,125.1H413V125h2V108c0-3.2-0.4-4.4-1.8-4.4c-1.5,0-2.9,1.8-3.5,4.3V125h2v0.1h-12.4V125h3.5V93.7
		h-3.5v-0.1h10.4v13.9c0.9-3.2,2.8-4.6,5.2-4.6c4.9,0,7,3.6,7,8V125L425.4,125.1L425.4,125.1z"/>
	<path fill="#FFFFFF" d="M450.4,125.1h-10.6V125h1.9v-18.6c0-1.4-0.2-2.9-1.6-2.9c-1.6,0-3.1,2.3-3.5,4.3V125h1.7v0.1h-11.7V125h3
		v-21.5h-3v-0.1h10v4c0.9-3.2,2.9-4.6,5.2-4.6c3.6,0,5.4,1.9,6.3,4.6c0.9-3.2,3.2-4.6,5.5-4.6c4.9,0,7,3.6,7,8V125h3v0.1h-11.9V125
		h1.9V108c0-3.2-0.3-4.4-1.8-4.4c-1.8,0-3.3,2.1-3.8,4.1c0.3,1,0.5,2.1,0.5,3.2V125L450.4,125.1L450.4,125.1z"/>
	<path fill="#FFFFFF" d="M468.4,118.2c2,0,3.6,1.6,3.6,3.6c0,2-1.6,3.7-3.6,3.7c-2,0-3.7-1.6-3.7-3.7
		C464.7,119.8,466.4,118.2,468.4,118.2z"/>
	<path fill="#FFFFFF" d="M91.2,177.1H66.8V177h3.8v-30.2h-3.8v-0.1h22.8v11h-0.1c0,0-1.4-10.9-10.2-10.9h-1.5v14.6h0.5
		c5.5,0,6.2-7.2,6.2-7.2h0.1v14.4h-0.1c0,0-0.7-7.1-6.2-7.1h-0.5V177h1.5c10.8,0,11.7-11.8,11.7-11.8h0.1V177.1z"/>
	<path fill="#FFFFFF" d="M115.2,155.5h-3.5l-7,22.3l-9.3-22.3H92v-0.1h13.9v0.1h-2.8l4.9,11.4l3.6-11.4h-3.5v-0.1L115.2,155.5
		L115.2,155.5z"/>
	<path fill="#FFFFFF" d="M121.2,166.2v1.2c0,6,0.3,9.6,4.7,9.6c4,0,6.7-2.8,7.8-7.5h0.1c-1.1,5.1-4.1,8.2-9.5,8.2
		c-5.5,0-10.4-5.3-10.4-11.4c0-6.1,4.9-11.4,10.4-11.4c5.6,0,10,5.2,10,11.4H121.2z M121.2,163.3v2.9h5.6c0-9.7-0.4-11.2-2.6-11.2
		C121.4,155,121.2,158.3,121.2,163.3z"/>
	<path fill="#FFFFFF" d="M134.4,177.1L134.4,177.1l3.5-0.1v-21.5h-3.5v-0.1h10.4v1.8c0.9-1.3,2.1-2.3,4.2-2.3c1.6,0,3.9,0.9,4.6,3.4
		c0.2,0.6,0.2,1,0.2,1.3c0,2.1-1.3,4-3.7,4c-2,0-3.7-1.6-3.7-3.7c0-2,1.6-3.7,3.7-3.7c1.7,0,3.1,1.2,3.5,2.7c-0.2-1.9-1.9-4-4.6-4
		c-2.1,0-3.3,1-4.2,2.4V177h3.5v0.1H134.4z"/>
	<path fill="#FFFFFF" d="M154.7,183.7c0-0.2-0.1-0.7-0.1-0.9c0-2.1,1.7-3.7,3.8-3.7c2,0,3.7,1.6,3.7,3.7s-1.7,3.8-3.7,3.8
		c-1.5,0-2.8-0.9-3.4-2.1c0.5,1.4,1.6,3.1,4.5,3.1c3.4,0,4.8-2.3,6-5.6l1.4-3.8l-9.6-22.7h-3.5v-0.1h14v0.1H165l5.4,12.7l4.4-12.7
		h-3.5v-0.1h7.1v0.1h-3.5l-9.2,26.5c-1.3,3.6-2.9,5.7-6.2,5.7C155.8,187.7,154.9,185,154.7,183.7z"/>
	<path fill="#FFFFFF" d="M189.9,155.5v18.6c0,1.2,0.5,2.1,1.5,2.1c1.4,0,1.6-1.6,1.6-3v-4.8h0.1v4.9c0,2.5-1,4.2-4.1,4.2
		c-4.2,0-6.1-2.7-6.1-6.8v-15.3h-3.4v-0.1h1.1c5.1,0,9.1-3.2,9.1-9.1h0.1V155.5l4.3-0.1v0.1H189.9z"/>
	<path fill="#FFFFFF" d="M220.5,177.1h-12.4V177h2V160c0-3.2-0.4-4.4-1.8-4.4c-1.5,0-2.9,1.8-3.5,4.3V177h2v0.1h-12.4V177h3.5v-31.4
		h-3.5v-0.1h10.4v13.9c0.9-3.2,2.8-4.6,5.2-4.6c4.9,0,7,3.6,7,8V177L220.5,177.1L220.5,177.1z"/>
	<path fill="#FFFFFF" d="M221.7,177.1L221.7,177.1l3.5-0.1v-21.5h-3.5v-0.1h10.4V177h3.5v0.1H221.7z M228.7,143.7
		c2.1,0,3.7,1.6,3.7,3.7s-1.6,3.6-3.7,3.6s-3.6-1.6-3.6-3.6S226.6,143.7,228.7,143.7z"/>
	<path fill="#FFFFFF" d="M262.9,177.1h-12.4V177h2V160c0-3.2-0.4-4.4-1.8-4.4c-1.5,0-2.9,1.8-3.5,4.3V177h2v0.1h-12.4V177h3.5v-21.5
		h-3.5v-0.1h10.4v4c0.9-3.2,2.8-4.6,5.2-4.6c4.9,0,7,3.6,7,8V177L262.9,177.1L262.9,177.1z"/>
	<path fill="#FFFFFF" d="M268.1,167.2c-0.8,0.3-1.8,0.7-1.8,1.8c0,0.5,0.3,0.8,0.9,1.1c0.8,0.4,2.8,0.7,6.7,0.9
		c8.4,0.5,10.8,3.7,10.8,8.3c0,4.9-4.5,8.5-10.7,8.5c-7.3,0-10.9-3-10.9-6c0-2.9,2.3-4.4,5.2-4.8c-2.4-0.7-4.3-2.1-4.3-5.1
		C263.9,169.5,265.5,168,268.1,167.2c-1.8-1.3-2.8-3.2-2.8-5.3c0-3.9,3.5-7,8.5-7c3.4,0,6.1,1.4,7.5,3.6c0.7-0.1,4.9-0.9,4.9-4.8
		c0-2.9-1.7-4-3.1-4.5c1.2,0.7,2.1,1.9,2.1,3.4c0,2-1.7,3.7-3.8,3.7s-3.7-1.7-3.7-3.7c0-2.1,1.6-3.8,3.7-3.8c0.1,0,0.7,0,0.9,0.1
		c1.3,0.3,4,1.1,4,4.8c0,3.8-4.1,4.7-5,4.9c0.6,1,1,2.1,1,3.3c0,3.9-3.5,7-8.5,7C271.5,168.9,269.6,168.2,268.1,167.2z M268.6,177.1
		c-1.1,0.6-2.3,2-2.3,4.5c0,3,2.9,6.1,7.5,6.1c4.2,0,7.4-1.9,7.4-4.9c0-2.6-1.6-3.8-6.6-4.6C273,177.9,270.7,177.6,268.6,177.1z
		 M276.9,161.9c0-5.9-1.5-6.9-3.1-6.9s-3.1,1-3.1,6.9s1.5,6.9,3.1,6.9S276.9,167.8,276.9,161.9z"/>
	<path fill="#FFFFFF" d="M307.3,145.7h-3.5v-0.1h10.4V177h3.5v0.1h-10.4v-4c-0.9,3.2-2.8,4.6-5.2,4.6c-4.2,0-8.4-4.8-8.4-11.4
		s4.2-11.4,8.4-11.4c2.4,0,4.3,1.3,5.2,4.6V145.7z M307.3,159.8c-0.6-2.5-2-4.3-3.5-4.3c-2,0-2.7,2.1-2.7,8.4v4.8
		c0,6.3,0.7,8.4,2.7,8.4c1.5,0,2.9-1.8,3.5-4.3V159.8z"/>
	<path fill="#FFFFFF" d="M319.6,159.9c0.4-1.6,1.9-2.7,3.6-2.7c2,0,3.7,1.6,3.7,3.7s-1.6,3.7-3.7,3.7c-2.4,0-3.7-1.9-3.7-4
		c0-0.3,0-0.7,0.2-1.3c1.2-3.1,4.9-4.4,7.4-4.4c6.4,0,10.1,3.1,10.1,7.6V174c0,1.8,0.6,2.6,1.6,2.6c0.4,0,0.8-0.1,1-0.3
		c0.6-0.5,0.7-1.5,0.8-1.7h0.1c-0.3,1.6-1.3,3.2-3.9,3.2c-3.6,0-6.2-2.3-6.5-4.8c-0.2,1.8-1.5,4.8-6.1,4.8c-3.6,0-5.9-2.4-5.9-5.5
		c0-3.5,2.7-5.6,5.6-6.2c2.2-0.4,2.5-0.2,3.7-0.5c1-0.3,1.8-1.2,2.6-2.2v-4.5c0-2.6-1.2-3.7-3.6-3.7
		C323.5,155.1,320.2,157,319.6,159.9z M330.2,163.4c-0.9,1.3-1.6,1.8-2.5,2.3c-1.3,0.7-2.4,1.9-2.4,4v3.9c0,2.1,0.2,3.3,1.5,3.3
		c2,0,3.4-2.6,3.4-4.1V163.4z"/>
	<path fill="#FFFFFF" d="M367.4,177.1H355V177h2V160c0-3.2-0.4-4.4-1.8-4.4c-1.5,0-2.9,1.8-3.5,4.3V177h2v0.1h-12.4V177h3.5v-21.5
		h-3.5v-0.1h10.4v4c0.9-3.2,2.8-4.6,5.2-4.6c4.9,0,7,3.6,7,8V177L367.4,177.1L367.4,177.1z"/>
	<path fill="#FFFFFF" d="M375,166.4c0,3.5,0.1,10.6,5,10.6c3.9,0,6-3.2,6.2-8.3h0.1c-0.2,5.2-2.3,9-8,9c-5.6,0-10.7-4.9-10.7-11.4
		c0-6,4.5-11.4,11.1-11.4c4,0,6,1.9,6.8,4.4c0.2,0.6,0.2,1,0.2,1.3c0,2.1-1.3,4-3.7,4c-2,0-3.7-1.6-3.7-3.7s1.6-3.7,3.7-3.7
		c1.6,0,3.1,1.2,3.5,2.7c-0.5-2.2-2.2-4.8-6.1-4.8C375.4,155.1,375,160.1,375,166.4z"/>
	<path fill="#FFFFFF" d="M394.8,166.2v1.2c0,6,0.3,9.6,4.7,9.6c4,0,6.7-2.8,7.8-7.5h0.1c-1.1,5.1-4.1,8.2-9.5,8.2
		c-5.5,0-10.4-5.3-10.4-11.4c0-6.1,4.9-11.4,10.4-11.4c5.6,0,10,5.2,10,11.4H394.8z M394.8,163.3v2.9h5.6c0-9.7-0.4-11.2-2.6-11.2
		C395.1,155,394.8,158.3,394.8,163.3z"/>
	<path fill="#FFFFFF" d="M412.3,176c-0.9,0-1.8,0.7-2,2.2h-0.1v-11h0.1c0.1,3.9,3.5,10.5,8.2,10.5c1.9,0,3.1-1.2,3.1-3.2
		c0-5.2-11.7-4.6-11.7-12.9c0-3.2,2.7-6.7,6.6-6.7c2.2,0,4.2,1.6,5.9,1.6c0.6,0,1-0.4,1-1.6h0.1v8.7h-0.1c-0.2-2.3-2.5-8.6-6.9-8.6
		c-2,0-3.4,1.5-3.4,3.2c0,4.7,12.2,4.2,12.2,12.6c0,3.9-2.9,6.9-6.9,6.9C415.9,177.8,414.4,176,412.3,176z"/>
	<path fill="#FFFFFF" d="M431.3,170.2c2,0,3.6,1.6,3.6,3.6c0,2-1.6,3.7-3.6,3.7c-2,0-3.7-1.6-3.7-3.7
		C427.6,171.8,429.2,170.2,431.3,170.2z"/>
</g>
<g>
	<path fill="#333333" d="M0,30.8C0,22,6.1,8.2,22,0.2l2.1,3.4c-10.9,7.6-13.8,17.1-14,21.6c4.1,0.5,8.1,4.4,8.1,8.6
		c0,4.9-4.2,8.6-8.6,8.6C4.4,42.5,0,38.4,0,30.8z M28.5,30.8c0-8.8,6-22.6,21.9-30.6l2.1,3.4c-10.9,7.6-13.8,17.1-14,21.6
		c4.1,0.5,8.1,4.4,8.1,8.6c0,4.9-4.2,8.6-8.6,8.6C32.9,42.5,28.5,38.4,28.5,30.8z"/>
</g>
</svg>
