<?xml version="1.0" encoding="utf-8"?>
<!-- Generator: Adobe Illustrator 18.1.0, SVG Export Plug-In . SVG Version: 6.00 Build 0)  -->
<svg version="1.1" id="Layer_1" xmlns="http://www.w3.org/2000/svg" xmlns:xlink="http://www.w3.org/1999/xlink" x="0px" y="0px"
	 viewBox="377 319 551 612" enable-background="new 377 319 551 612" xml:space="preserve">
<g>
	<path fill="#FFFFFF" d="M509.6,918.1c-0.4,1.8-1.4,3.3-3.1,3.3c-2,0-3.3-3.1-5.1-3.1c-1,0-1.8,0.8-2,2.4l-1-1
		c0.2-1.6,1.4-3.3,3.1-3.3c2.2,0,3.7,3.1,5.3,3.1c1.2,0,1.6-1,2-2.4L509.6,918.1L509.6,918.1z M542,909.4l-8.4,12.2h-0.6l-8.4-12.2
		v20.2h-2.2v-24.1h2.2l8.8,12.6l8.8-12.6h2v24.1H542V909.4z M560.8,929.6v-2c-1.2,1.2-3.1,2.2-5.7,2.2c-3.7,0-5.9-2.2-5.9-5.7
		c0-4.5,3.7-6.5,8.4-6.5c1,0,2.2,0.2,3.3,0.4v-0.8c0-3.1-1.6-4.5-4.5-4.5c-1.8,0-3.7,0.4-5.1,1.2l-0.4-2c1.6-0.8,4.1-1.2,5.9-1.2
		c4.1,0,6.3,2.2,6.3,6.7v12.2L560.8,929.6L560.8,929.6z M555.7,928.1c2.4,0,4.1-1.2,4.9-2.2v-5.7c-0.6-0.2-2-0.4-3.1-0.4
		c-3.5,0-6.1,1.4-6.1,4.5C551.6,926.5,553.3,928.1,555.7,928.1z M568.8,929.6V911h2.2v3.3c0.8-2.4,2.2-3.7,4.5-3.7
		c1.2,0,2.2,0.4,3.1,1l-0.6,2c-0.8-0.6-1.6-1-2.7-1c-2.2,0-3.5,1.8-4.3,4.7v12h-2.2V929.6L568.8,929.6z M585.9,924.5
		c0,2.4,1,3.3,2.9,3.3c1.2,0,2.9-0.6,3.7-1.4l0.6,1.8c-1.4,0.8-2.9,1.6-4.9,1.6c-2.9,0-4.7-1.4-4.7-5.1v-11.8h-3.1V911h3.3l0.2-4.7
		h1.8v4.7h6.5v1.8h-6.5v11.6H585.9z M609.2,929.6v-11.2c0-3.5-1.4-5.5-4.7-5.5c-2.9,0-4.7,2-5.3,4.3v12.2h-2.2v-24.9h2.2v9.8
		c1.2-2,3.3-3.5,6.1-3.5c4.1,0,6.1,2.7,6.1,7.1v11.6L609.2,929.6L609.2,929.6z M627.3,929.6v-2c-1.2,1.2-3.1,2.2-5.7,2.2
		c-3.7,0-5.9-2.2-5.9-5.7c0-4.5,3.7-6.5,8.4-6.5c1,0,2.2,0.2,3.3,0.4v-0.8c0-3.1-1.6-4.5-4.5-4.5c-1.8,0-3.7,0.4-5.1,1.2l-0.4-2
		c1.6-0.8,4.1-1.2,5.9-1.2c4.1,0,6.3,2.2,6.3,6.7v12.2L627.3,929.6L627.3,929.6z M622.4,928.1c2.4,0,4.1-1.2,4.9-2.2v-5.7
		c-0.6-0.2-2-0.4-3.1-0.4c-3.5,0-6.1,1.4-6.1,4.5C618.1,926.5,620,928.1,622.4,928.1z M659.1,910.2c-1.8-1.8-3.9-2.9-6.3-2.9
		c-5.1,0-8.8,3.7-8.8,10.2s3.9,10.2,8.6,10.2c2.4,0,4.7-0.8,6.1-2V919h-7.1v-2h9.4v10.2c-1.8,1.6-5.3,2.9-8.6,2.9
		c-6.1,0-10.8-4.7-10.8-12.2c0-7.8,4.9-12.4,10.8-12.4c3.3,0,5.7,1.2,7.8,3.3L659.1,910.2L659.1,910.2z M666.3,929.6V911h2.2v3.3
		c0.8-2.4,2.2-3.7,4.5-3.7c1.2,0,2.2,0.4,3.1,1l-0.6,2c-0.8-0.6-1.6-1-2.7-1c-2.2,0-3.5,1.8-4.3,4.7v12h-2.2L666.3,929.6
		L666.3,929.6z M689.5,929.6v-2c-1.2,1.2-3.1,2.2-5.7,2.2c-3.7,0-5.9-2.2-5.9-5.7c0-4.5,3.7-6.5,8.4-6.5c1,0,2.2,0.2,3.3,0.4v-0.8
		c0-3.1-1.6-4.5-4.5-4.5c-1.8,0-3.7,0.4-5.1,1.2l-0.4-2c1.6-0.8,4.1-1.2,5.9-1.2c4.1,0,6.3,2.2,6.3,6.7v12.2L689.5,929.6
		L689.5,929.6z M684.6,928.1c2.4,0,4.1-1.2,4.9-2.2v-5.7c-0.6-0.2-2-0.4-3.1-0.4c-3.5,0-6.1,1.4-6.1,4.5
		C680.3,926.5,682.2,928.1,684.6,928.1z M709.9,929.6v-11.2c0-3.5-1.4-5.5-4.7-5.5c-2.9,0-4.7,2-5.3,4.3v12.2h-2.2v-24.9h2.2v9.8
		c1.2-2,3.3-3.5,6.1-3.5c4.1,0,6.1,2.7,6.1,7.1v11.6L709.9,929.6L709.9,929.6z M728.1,929.6v-2c-1.2,1.2-3.1,2.2-5.7,2.2
		c-3.7,0-5.9-2.2-5.9-5.7c0-4.5,3.7-6.5,8.4-6.5c1,0,2.2,0.2,3.3,0.4v-0.8c0-3.1-1.6-4.5-4.5-4.5c-1.8,0-3.7,0.4-5.1,1.2l-0.4-2
		c1.6-0.8,4.1-1.2,5.9-1.2c4.1,0,6.3,2.2,6.3,6.7v12.2L728.1,929.6L728.1,929.6z M723.2,928.1c2.4,0,4.1-1.2,4.9-2.2v-5.7
		c-0.6-0.2-2-0.4-3.1-0.4c-3.5,0-6.1,1.4-6.1,4.5C718.9,926.5,720.7,928.1,723.2,928.1z M759.5,929.6v-11.4c0-3.5-1.4-5.1-4.5-5.1
		c-2.4,0-3.9,1.6-4.7,4.1v12.6h-2.2v-11.4c0-3.5-1.6-5.1-4.5-5.1c-2.9,0-4.3,1.8-5.1,4.3V930h-2.2v-18.6h2.2v3.1
		c1.2-2.2,3.1-3.3,5.7-3.3c2.9,0,4.7,1.2,5.5,3.7c1-2.2,2.9-3.7,5.7-3.7c4.3,0,6.1,2.4,6.1,6.9V930h-2L759.5,929.6L759.5,929.6z"/>
</g>
<path fill="#333333" d="M831.5,798.2c20-14.1,25.3-31.2,25.7-39.6c-7.5-0.8-14.9-8-14.9-15.7c0-9,7.8-15.7,15.7-15.7
	c9.6,0,17.5,7.5,17.5,21.4c0,16.1-11,41.4-40.2,56.1L831.5,798.2L831.5,798.2z M883.7,798.2c20-14.1,25.3-31.2,25.7-39.6
	c-7.5-0.8-14.9-8-14.9-15.7c0-9,7.8-15.7,15.7-15.7c9.6,0,17.5,7.5,17.5,21.4c0,16.1-11,41.4-40.2,56.1L883.7,798.2L883.7,798.2z"/>
<g>
	<path fill="#FFFFFF" d="M521.7,452.6h-24.9l0-0.2h6.9l6.8-55.3h-6.9l0-0.2h24.9c14.5,0,28.7,10.2,26.6,27.7
		C553,442.2,536.4,452.6,521.7,452.6L521.7,452.6z M528.5,397.1H524l-6.8,55.3h4.7c14.5,0,18-10.4,20.1-27.7
		C544.2,407.3,543,397.1,528.5,397.1z M561.5,421.2c1.2-2.9,4.3-5.1,7.2-5.1c3.7,0,6.4,3.1,5.9,6.7s-3.9,6.7-7.6,6.7
		c-4.5,0-6.3-3.5-5.8-7.3c0.1-0.6,0.1-1.2,0.7-2.4c2.9-5.7,10-8,14.4-8c11.8,0,17.9,5.7,16.8,14.1l-2.6,21c-0.4,3.3,0.4,4.7,2.5,4.7
		c0.8,0,1.5-0.2,1.9-0.6c1.1-1,1.8-2.7,1.8-3.3h0.2c-1,2.9-3,5.9-7.9,5.9c-6.7,0-10.9-4.3-10.8-8.8c-1,3.5-4.1,8.8-12.5,8.8
		c-6.7,0-10.3-4.3-9.6-10c0.8-6.3,6.2-10.4,11.6-11.4c4-0.8,4.5-0.2,6.8-0.8c1.9-0.4,3.5-2.2,5.2-4.1l1-8.2c0.6-4.7-1.4-6.7-5.9-6.7
		C569.7,412.4,563.2,415.9,561.5,421.2L561.5,421.2z M580.1,427.5c-1.9,2.4-3.3,3.3-5.2,4.3c-2.6,1.4-4.7,3.5-5.2,7.3l-0.9,7.1
		c-0.5,3.9-0.3,6.1,1.9,6.1c3.7,0,6.9-4.7,7.2-7.5L580.1,427.5z M645.3,452.6h-22.6l0-0.2h3.7l3.8-31.2c0.7-5.9,0.2-8.2-2.3-8.2
		c-2.9,0-5.7,3.3-7.3,8l-3.9,31.6h3.7l0,0.2h-22.6l0-0.2h6.3L609,413h-6.3l0-0.2h19l-0.9,7.3c2.4-5.9,6.1-8.4,10.6-8.4
		c9,0,12.1,6.5,11,14.7l-3.2,25.9L645.3,452.6L645.3,452.6z M661.8,433c-0.8,6.5-2.2,19.4,6.8,19.4c7.1,0,11.7-5.7,13.3-15.3h0.2
		c-1.6,9.6-6.3,16.5-16.7,16.5c-10.2,0-18.5-9-17-20.8c1.4-11,10.9-20.8,22.8-20.8c7.3,0,10.6,3.5,11.5,8c0.3,1,0.2,1.8,0.1,2.4
		c-0.5,3.9-3.1,7.3-7.6,7.3c-3.7,0-6.4-3.1-5.9-6.7c0.5-3.7,3.9-6.7,7.6-6.7c2.9,0,5.4,2.2,5.9,5.1c-0.3-4.1-3-8.8-10.1-8.8
		C665,412.2,663.3,421.4,661.8,433L661.8,433z M680.2,452.6l6.3-0.2l4.8-39.4h-6.3l0-0.2h19l-4.9,39.6h6.3l0,0.2H680.2z
		 M700.6,391.4c3.9,0,6.4,2.9,5.9,6.7s-3.7,6.7-7.6,6.7s-6.4-2.9-5.9-6.7C693.5,394.3,696.7,391.4,700.6,391.4z M755.9,452.6h-22.6
		l0-0.2h3.7l3.8-31.2c0.7-5.9,0.2-8.2-2.3-8.2c-2.9,0-5.7,3.3-7.3,8l-3.9,31.6h3.7l0,0.2h-22.6l0-0.2h6.3l4.9-39.6h-6.3l0-0.2h19
		l-0.9,7.3c2.4-5.9,6.1-8.4,10.6-8.4c9,0,12,6.5,11,14.7l-3.2,25.9L755.9,452.6L755.9,452.6z M767.7,434.5c-1.5,0.4-3.4,1.4-3.7,3.3
		c-0.1,0.8,0.2,1.6,1.4,2c1.3,0.8,4.9,1.2,12,1.6c15.2,0.8,19,6.7,17.9,15.1c-1.1,9-10.3,15.5-21.5,15.5c-13.5,0-19.3-5.5-18.6-11
		c0.7-5.3,5.3-8.2,10.5-8.8c-4.1-1.4-7.5-3.9-6.8-9.4C759.5,438.7,762.9,435.9,767.7,434.5c-3-2.4-4.4-5.9-3.9-9.8
		c0.9-7.1,8.1-12.9,17.1-12.9c6.1,0,10.9,2.7,12.9,6.5c1.2-0.2,9.2-1.6,10.1-8.8c0.7-5.3-2.4-7.3-4.7-8.4c2.1,1.2,3.5,3.5,3.1,6.1
		c-0.5,3.7-3.9,6.9-7.8,6.9s-6.6-3.1-6.1-6.9c0.5-3.9,3.9-6.9,7.8-6.9c0.2,0,1.2,0,1.6,0.2c2.4,0.4,7.1,2,6.3,8.8
		c-0.9,6.9-8.6,8.6-10.3,9c1,1.8,1.4,3.9,1.1,6.1c-0.9,7.1-8.1,12.9-17.1,12.9C773.7,437.5,770.1,436.5,767.7,434.5L767.7,434.5z
		 M766.5,452.6c-2.2,1.2-4.5,3.7-5.1,8.2c-0.7,5.5,3.9,11.2,12.3,11.2c7.8,0,14.1-3.5,14.8-9c0.6-4.7-2-6.9-11.2-8.4
		C774.3,454,770.1,453.6,766.5,452.6L766.5,452.6z M785,424.7c1.3-10.8-1.1-12.6-4.2-12.6c-3.1,0-5.9,1.8-7.3,12.6
		c-1.3,10.8,1.1,12.6,4.2,12.6C780.8,437.5,783.7,435.7,785,424.7z M812,452.6l6.3-0.2l4.8-39.4h-6.3l0-0.2h19l-4.9,39.6h6.3l0,0.2
		H812z M832.2,391.4c3.9,0,6.4,2.9,5.9,6.7c-0.5,3.9-3.7,6.7-7.6,6.7s-6.4-2.9-5.9-6.7S828.3,391.4,832.2,391.4z M844.7,450.6
		c-1.6,0-3.4,1.4-4.2,4.1h-0.2l2.5-20.2h0.2c-0.7,7.1,4.2,19.2,12.7,19.2c3.5,0,6-2.2,6.4-5.9c1.2-9.6-20.4-8.6-18.5-23.7
		c0.7-5.9,6.4-12.2,13.5-12.2c3.9,0,7.4,2.9,10.5,2.9c1,0,1.9-0.8,2.2-2.9h0.2l-2,15.9h-0.2c0.1-4.3-2.6-15.7-10.7-15.7
		c-3.7,0-6.4,2.7-6.8,5.9c-1.1,8.6,21.5,7.8,19.6,23.1c-0.9,7.1-6.9,12.6-14.2,12.6C850.6,453.8,848.6,450.6,844.7,450.6
		L844.7,450.6z"/>
</g>
<g>
	<path fill="#FFFFFF" d="M518.9,508.5l-4.2,34.3c-0.3,2.2,0.3,3.9,2.4,3.9c2.4,0,3.4-2.9,3.7-5.5l1.1-8.8h0.2l-1.1,9
		c-0.6,4.7-2.8,7.8-8.5,7.8c-7.5,0-10.6-5.1-9.7-12.6l3.4-27.9h-6.3l0-0.2h2c9.4,0,17.5-5.9,18.8-16.5h0.2L518.9,508.5l8-0.2l0,0.2
		L518.9,508.5L518.9,508.5z M570.4,548.1h-22.6l0-0.2h3.7l3.8-31.2c0.7-5.9,0.2-8.2-2.3-8.2c-2.9,0-5.7,3.3-7.3,8l-3.9,31.6h3.7
		l0,0.2h-22.8l0-0.2h6.3l7.1-57.7h-6.3l0-0.2h19l-3.1,25.5c2.4-5.9,6.1-8.4,10.6-8.4c9,0,12,6.5,11,14.7l-3.2,25.9L570.4,548.1
		L570.4,548.1z M586.9,528.1l-0.3,2.2c-1.4,11-1.7,17.5,6.4,17.5c7.3,0,12.9-5.1,16-13.9h0.2c-3.2,9.4-9.4,15.1-19.4,15.1
		c-10,0-18-9.8-16.6-20.8c1.4-11.2,11.5-20.8,21.7-20.8c10.4,0,17.2,9.6,15.8,20.8h-23.9L586.9,528.1L586.9,528.1z M587.5,522.8
		l-0.7,5.3h10.4c2.2-17.7,1.7-20.6-2.2-20.6C589.8,507.5,588.7,513.4,587.5,522.8z M670.3,548.1h-22.6l0-0.2h3.7l3.8-31.2
		c0.7-5.9,0.2-8.2-2.3-8.2c-2.9,0-5.7,3.3-7.3,8l-3.9,31.6h3.7l0,0.2h-22.6l0-0.2h6.3l7.1-57.7h-6.3l0-0.2h19l-3.1,25.5
		c2.4-5.9,6.1-8.4,10.6-8.4c9,0,12,6.5,11,14.7l-3.2,25.9L670.3,548.1L670.3,548.1z M672.6,548.1l6.3-0.2l4.8-39.4h-6.3l0-0.2h19
		l-4.9,39.6h6.3l0,0.2H672.6L672.6,548.1z M693,486.7c3.9,0,6.4,2.9,5.9,6.7s-3.7,6.7-7.6,6.7c-3.9,0-6.4-2.9-5.9-6.7
		C685.9,489.5,689.1,486.7,693,486.7z M730.7,490.4h-6.3l0-0.2h19l-7.1,57.7h6.3l0,0.2h-19l0.9-7.3c-2.4,5.9-6.1,8.4-10.6,8.4
		c-7.5,0-14.2-8.8-12.7-20.8c1.5-12,10.3-20.8,17.9-20.8c4.3,0,7.7,2.4,8.6,8.4L730.7,490.4L730.7,490.4z M727.5,516.3
		c-0.5-4.5-2.7-8-5.3-8c-3.7,0-5.6,3.9-7,15.3l-1.1,8.8c-1.4,11.4-0.7,15.3,3.2,15.3c2.9,0,5.7-3.3,7.3-8L727.5,516.3L727.5,516.3z
		 M775.3,490.4H769l0-0.2h19l-7.1,57.7h6.3l0,0.2h-19l0.9-7.3c-2.4,5.9-6.1,8.4-10.6,8.4c-7.5,0-14.2-8.8-12.7-20.8
		c1.5-12,10.3-20.8,17.9-20.8c4.3,0,7.7,2.4,8.6,8.4L775.3,490.4z M772.1,516.3c-0.5-4.5-2.7-8-5.3-8c-3.7,0-5.6,3.9-7,15.3
		l-1.1,8.8c-1.4,11.4-0.7,15.3,3.2,15.3c2.9,0,5.7-3.3,7.3-8L772.1,516.3L772.1,516.3z M803.7,528.1l-0.3,2.2
		c-1.4,11-1.7,17.5,6.4,17.5c7.3,0,12.9-5.1,16-13.9h0.2c-3.2,9.4-9.4,15.1-19.4,15.1s-18-9.8-16.6-20.8
		c1.4-11.2,11.5-20.8,21.7-20.8c10.4,0,17.2,9.6,15.8,20.8h-23.9L803.7,528.1L803.7,528.1z M804.4,522.8l-0.7,5.3h10.4
		c2.2-17.7,1.7-20.6-2.2-20.6C806.7,507.5,805.5,513.4,804.4,522.8L804.4,522.8z M873.3,548.1h-22.6l0-0.2h3.7l3.8-31.2
		c0.7-5.9,0.2-8.2-2.3-8.2c-2.9,0-5.7,3.3-7.3,8l-3.9,31.6h3.7l0,0.2h-22.6l0-0.2h6.3l4.9-39.6h-6.3l0-0.2h19l-0.9,7.3
		c2.4-5.9,6.1-8.4,10.6-8.4c9,0,12.1,6.5,11,14.7l-3.2,25.9L873.3,548.1L873.3,548.1z"/>
</g>
<g>
	<path fill="#FFFFFF" d="M496.8,643.4h6.3l7.1-57.5h-6.3l0-0.2h19l-7.1,57.7h6.3l0,0.2h-25.3L496.8,643.4L496.8,643.4z M529.6,611.9
		c1.2-2.9,4.3-5.1,7.2-5.1c3.7,0,6.4,3.1,5.9,6.7s-3.9,6.7-7.6,6.7c-4.5,0-6.3-3.5-5.8-7.3c0.1-0.6,0.1-1.2,0.7-2.4
		c2.9-5.7,10-8,14.4-8c11.8,0,17.9,5.7,16.8,14.1l-2.6,21c-0.4,3.3,0.4,4.7,2.5,4.7c0.8,0,1.5-0.2,1.9-0.6c1.1-1,1.8-2.7,1.8-3.3
		h0.2c-1,2.9-3,5.9-7.9,5.9c-6.7,0-10.9-4.3-10.8-8.8c-0.8,3.3-3.9,8.8-12.3,8.8c-6.7,0-10.3-4.3-9.6-10c0.8-6.3,6.2-10.4,11.6-11.4
		c4-0.8,4.5-0.2,6.8-0.8c1.9-0.4,3.5-2.2,5.2-4.1l1-8.2c0.6-4.7-1.4-6.7-5.9-6.7C537.8,603.2,531.5,606.6,529.6,611.9L529.6,611.9z
		 M548.2,618.3c-1.9,2.4-3.3,3.3-5.2,4.3c-2.6,1.4-4.7,3.5-5.2,7.3l-0.9,7.1c-0.5,3.9-0.3,6.1,1.9,6.1c3.7,0,6.9-4.7,7.3-7.5
		L548.2,618.3z M613.5,643.4h-19l3.8-31.2c0.7-5.9,0.2-8.2-2.3-8.2c-2.9,0-5.7,3.3-7.3,8l-3.9,31.4h3.7l0,0.2h-22.8l0-0.2h6.3
		l4.8-39.4h-6.3l0-0.2h19l-0.9,7.3c2.4-5.9,6.1-8.4,10.6-8.4c9,0,12,6.5,11,14.7l-3.2,25.9L613.5,643.4L613.5,643.4z M625.5,625.2
		c-1.5,0.4-3.4,1.4-3.7,3.3c-0.1,0.8,0.2,1.6,1.4,2c1.3,0.8,5,1.2,12,1.6c15.2,0.8,19,6.7,17.9,15.1c-1.1,9-10.3,15.5-21.5,15.5
		c-13.5,0-19.3-5.5-18.6-11c0.7-5.3,5.3-8.2,10.5-8.8c-4.1-1.4-7.5-3.9-6.8-9.4C617.2,629.5,620.4,626.6,625.5,625.2
		c-3-2.4-4.4-5.9-3.9-9.8c0.9-7.1,8.1-12.9,17.1-12.9c6.1,0,10.9,2.7,12.9,6.5c1.2-0.2,9.2-1.6,10.1-8.8c0.7-5.3-2.4-7.3-4.7-8.4
		c2.1,1.2,3.5,3.5,3.1,6.1c-0.5,3.7-3.9,6.9-7.8,6.9c-3.9,0-6.6-3.1-6.1-6.9c0.5-3.9,3.9-6.9,7.8-6.9c0.2,0,1.2,0,1.6,0.2
		c2.4,0.4,7.1,2,6.3,8.8c-0.9,6.9-8.6,8.6-10.3,9c1,1.8,1.4,3.9,1.1,6.1c-0.9,7.1-8.1,12.9-17.1,12.9
		C631.4,628.3,627.9,627.2,625.5,625.2L625.5,625.2z M624.3,643.4c-2.2,1.2-4.5,3.7-5.1,8.2c-0.7,5.5,3.9,11.2,12.3,11.2
		c7.8,0,14.1-3.5,14.8-9c0.6-4.7-2-6.9-11.2-8.4C632,644.8,627.8,644.4,624.3,643.4z M642.8,615.4c1.3-10.8-1.1-12.6-4.2-12.6
		s-5.9,1.8-7.3,12.6c-1.3,10.8,1.1,12.6,4.2,12.6C638.6,628.3,641.4,626.4,642.8,615.4z M662.6,603.8h19l-3.9,31.4
		c-0.7,5.9-0.2,8.2,2.3,8.2c2.9,0,5.7-3.3,7.3-8l3.9-31.6h-3.7l0-0.2h16.3l-4.9,39.8h6.3l0,0.2h-19l0.9-7.3
		c-2.4,5.9-6.1,8.4-10.6,8.4c-9,0-12-6.5-11-14.7l3.2-25.9L662.6,603.8L662.6,603.8z M713,611.9c1.2-2.9,4.3-5.1,7.2-5.1
		c3.7,0,6.4,3.1,5.9,6.7c-0.5,3.7-3.9,6.7-7.6,6.7c-4.5,0-6.3-3.5-5.8-7.3c0.1-0.6,0.2-1.2,0.7-2.4c2.9-5.7,10-8,14.4-8
		c11.8,0,17.9,5.7,16.8,14.1l-2.6,21c-0.4,3.3,0.4,4.7,2.5,4.7c0.8,0,1.5-0.2,1.9-0.6c1.1-1,1.8-2.7,1.8-3.3h0.2
		c-1,2.9-3,5.9-7.9,5.9c-6.7,0-10.9-4.3-10.8-8.8c-0.8,3.3-3.9,8.8-12.3,8.8c-6.7,0-10.3-4.3-9.6-10c0.8-6.3,6.2-10.4,11.6-11.4
		c4-0.8,4.5-0.2,6.8-0.8c1.9-0.4,3.5-2.2,5.2-4.1l1-8.2c0.6-4.7-1.4-6.7-5.9-6.7C721.2,603.2,714.9,606.6,713,611.9L713,611.9z
		 M731.6,618.3c-1.9,2.4-3.3,3.3-5.2,4.3c-2.6,1.4-4.7,3.5-5.2,7.3l-0.9,7.1c-0.5,3.9-0.3,6.1,1.9,6.1c3.7,0,6.9-4.7,7.3-7.5
		L731.6,618.3z M760.5,625.2c-1.5,0.4-3.4,1.4-3.7,3.3c-0.1,0.8,0.2,1.6,1.4,2c1.3,0.8,4.9,1.2,12,1.6c15.2,0.8,19,6.7,17.9,15.1
		c-1.1,9-10.3,15.5-21.5,15.5c-13.5,0-19.3-5.5-18.6-11c0.7-5.3,5.3-8.2,10.5-8.8c-4.1-1.4-7.5-3.9-6.8-9.4
		C752.2,629.5,755.7,626.6,760.5,625.2c-3-2.4-4.4-5.9-3.9-9.8c0.9-7.1,8.1-12.9,17.1-12.9c6.1,0,10.9,2.7,12.9,6.5
		c1.2-0.2,9.2-1.6,10.1-8.8c0.7-5.3-2.4-7.3-4.7-8.4c2.1,1.2,3.4,3.5,3.1,6.1c-0.5,3.7-3.9,6.9-7.8,6.9s-6.6-3.1-6.1-6.9
		c0.5-3.9,3.9-6.9,7.8-6.9c0.2,0,1.2,0,1.6,0.2c2.4,0.4,7.1,2,6.3,8.8c-0.9,6.9-8.6,8.6-10.3,9c1,1.8,1.4,3.9,1.1,6.1
		c-0.9,7.1-8.1,12.9-17.1,12.9C766.5,628.3,762.9,627.2,760.5,625.2z M759.3,643.4c-2.2,1.2-4.5,3.7-5.1,8.2
		c-0.7,5.5,3.9,11.2,12.3,11.2c7.8,0,14.1-3.5,14.8-9c0.6-4.7-2-6.9-11.2-8.4C767.1,644.8,763.1,644.4,759.3,643.4L759.3,643.4z
		 M777.8,615.4c1.3-10.8-1.1-12.6-4.2-12.6c-3.1,0-5.9,1.8-7.3,12.6s1.1,12.6,4.2,12.6C773.6,628.3,776.5,626.4,777.8,615.4z
		 M806.8,623.6l-0.3,2.2c-1.4,11-1.7,17.5,6.4,17.5c7.3,0,12.9-5.1,16-13.9h0.2c-3.2,9.4-9.4,15.1-19.4,15.1c-10,0-18-9.8-16.6-20.8
		c1.4-11.2,11.5-20.8,21.7-20.8c10.4,0,17.2,9.6,15.8,20.8h-23.9L806.8,623.6L806.8,623.6z M807.5,618.1l-0.7,5.3h10.4
		c2.2-17.7,1.7-20.6-2.2-20.6C809.8,602.8,808.6,608.9,807.5,618.1L807.5,618.1z M862.6,644.6c-10,0-18.8-9.8-17.4-20.8
		c1.4-11.2,12.3-20.8,22.5-20.8c10.2,0,18.8,9.8,17.4,20.8S872.8,644.6,862.6,644.6z M867.7,602.8c-6.1,0-7.5,9.4-8.9,20.8
		c-1.4,11.4-2.4,20.8,3.8,20.8s7.7-9.4,9.1-20.8C873.1,612.1,874,602.8,867.7,602.8z M925.1,590.7c0.3,1,0.2,1.8,0.1,2.4
		c-0.5,3.9-3.1,7.3-7.6,7.3c-3.7,0-6.4-3.1-5.9-6.7c0.5-3.7,3.9-6.7,7.6-6.7c2.9,0,5.4,2.2,5.9,5.1c-0.1-4.3-3.3-6.7-7.3-6.7
		c-2.4,0-4.4,0.6-5.7,1.4c-2,1.2-3.1,3.3-3.4,6.1l-1.4,11h6.3l0,0.2h-6.3l-4.8,39.2h6.3l0,0.2h-25.5l0-0.2h6.3l4.8-39.4h-6.3l0-0.2
		h6.3l0.7-5.3c0.9-7.5,9.5-14.1,19.3-14.1C920.1,584.6,924,586,925.1,590.7L925.1,590.7z"/>
</g>
<g>
	<path fill="#FFFFFF" d="M519.2,699.3l-4.2,34.3c-0.3,2.2,0.3,3.9,2.4,3.9c2.4,0,3.4-2.9,3.7-5.5l1.1-9h0.2l-1.1,9
		c-0.6,4.7-2.8,7.8-8.5,7.8c-7.5,0-10.6-5.1-9.7-12.6l3.5-28.2h-6.3l0-0.2h2c9.4,0,17.5-5.9,18.8-16.5h0.2L519.2,699.3l8-0.2l0,0.2
		H519.2L519.2,699.3z M570.6,738.8H548l0-0.2h3.7l3.8-31.2c0.7-5.9,0.2-8.2-2.3-8.2c-2.9,0-5.7,3.3-7.3,8l-3.9,31.6h3.7l0,0.2h-22.8
		l0-0.2h6.3l7.1-57.5H530l0-0.2h19l-3.1,25.5c2.4-5.9,6.1-8.4,10.6-8.4c9,0,12.1,6.5,11,14.7l-3.2,25.9L570.6,738.8L570.6,738.8
		L570.6,738.8z M587.2,718.8l-0.3,2.2c-1.4,11-1.7,17.5,6.4,17.5c7.3,0,12.9-5.1,16-13.9h0.2c-3.2,9.4-9.4,15.1-19.4,15.1
		c-10,0-18-9.8-16.6-20.8c1.4-11.2,11.5-20.8,21.7-20.8c10.4,0,17.2,9.6,15.8,20.8h-23.9L587.2,718.8L587.2,718.8z M587.8,713.5
		l-0.7,5.3h10.4c2.2-17.7,1.7-20.6-2.2-20.6C590.1,698.2,588.9,704.4,587.8,713.5L587.8,713.5z M628.6,736.8c-1.6,0-3.4,1.4-4.2,4.1
		h-0.2l2.5-20.2h0.2c-0.7,7.1,4.2,19.2,12.7,19.2c3.5,0,6-2.2,6.4-5.9c1.2-9.6-20.4-8.6-18.5-23.7c0.7-5.9,6.4-12.2,13.5-12.2
		c3.9,0,7.4,2.9,10.5,2.9c1,0,1.9-0.8,2.2-2.9h0.2l-2,15.9h-0.2c0.1-4.3-2.6-15.7-10.7-15.7c-3.7,0-6.4,2.7-6.8,5.9
		c-1.1,8.6,21.5,7.8,19.6,23.1c-0.9,7.1-6.9,12.6-14.2,12.6C634.7,740.1,632.5,736.8,628.6,736.8L628.6,736.8z M675.2,739.9
		c-10,0-18.8-9.8-17.4-20.8c1.4-11.2,12.3-20.8,22.5-20.8c10.2,0,18.8,9.8,17.4,20.8C696.4,730.1,685.4,739.9,675.2,739.9
		L675.2,739.9z M680.3,698.2c-6.1,0-7.5,9.4-8.9,20.8c-1.4,11.4-2.4,20.8,3.8,20.8c6.1,0,7.7-9.4,9.1-20.8
		C685.7,707.4,686.6,698.2,680.3,698.2z M700,699.1h19l-3.9,31.4c-0.7,5.9-0.2,8.2,2.3,8.2c2.9,0,5.7-3.3,7.3-8l3.9-31.6h-3.7l0-0.2
		h16.3l-4.9,39.6h6.3l0,0.2h-19l0.9-7.3c-2.4,5.9-6.1,8.4-10.6,8.4c-9,0-12.1-6.5-11-14.7l3.2-25.9L700,699.1L700,699.1z
		 M745.3,738.8l6.3-0.2l7.1-57.5h-6.3l0-0.2h19l-7.1,57.7h6.3l0,0.2L745.3,738.8L745.3,738.8z M780.3,726.2c3.7,0,6.4,3.1,5.9,6.7
		c-0.5,3.7-3.9,6.7-7.6,6.7s-6.4-3.1-5.9-6.7C773.2,729,776.6,726.2,780.3,726.2L780.3,726.2z"/>
</g>
<path fill="#333333" d="M377,375.1c0-16.1,11-41.4,40.2-56.1l3.9,6.3c-20,13.9-25.3,31.2-25.5,39.6c7.5,0.8,14.9,8,14.9,15.7
	c0,9-7.8,15.7-15.7,15.7C385,396.5,377,389,377,375.1z M429.2,375.1c0-16.1,11-41.4,40.2-56.1l3.9,6.3c-20,14.1-25.3,31.2-25.7,39.6
	c7.5,0.8,14.9,8,14.9,15.7c0,9-7.8,15.7-15.7,15.7C437.2,396.5,429.2,389,429.2,375.1z"/>
</svg>
