<?xml version="1.0" encoding="utf-8"?>
<!-- Generator: Adobe Illustrator 18.1.0, SVG Export Plug-In . SVG Version: 6.00 Build 0)  -->
<svg version="1.1" id="Layer_1" xmlns="http://www.w3.org/2000/svg" xmlns:xlink="http://www.w3.org/1999/xlink" x="0px" y="0px"
	 viewBox="377 319 521 612" enable-background="new 377 319 521 612" xml:space="preserve">
<g>
	<path fill="#FFFFFF" d="M489.7,913.7c-0.3,1.6-1.2,2.8-2.6,2.8c-1.7,0-2.8-2.6-4.3-2.6c-0.9,0-1.6,0.7-1.7,2.1l-0.9-0.9
		c0.2-1.4,1.2-2.8,2.6-2.8c1.9,0,3.1,2.6,4.5,2.6c1,0,1.4-0.9,1.7-2.1L489.7,913.7L489.7,913.7z M517.4,906.4l-7.1,10.4h-0.5
		l-7.1-10.4v17.2h-1.9v-20.5h1.9l7.5,10.7l7.5-10.7h1.9v20.5h-2.1L517.4,906.4L517.4,906.4z M533.4,923.4v-1.7c-1,1-2.6,1.9-4.9,1.9
		c-3.1,0-5-1.9-5-4.9c0-3.8,3.1-5.5,7.1-5.5c0.9,0,1.9,0.2,2.8,0.3v-0.7c0-2.6-1.4-3.8-3.8-3.8c-1.6,0-3.1,0.3-4.3,1l-0.3-1.7
		c1.4-0.7,3.5-1,5-1c3.5,0,5.4,1.9,5.4,5.7v10.4L533.4,923.4L533.4,923.4z M529,922.2c2.1,0,3.5-1,4.2-1.9v-4.9
		c-0.5-0.2-1.7-0.3-2.6-0.3c-2.9,0-5.2,1.2-5.2,3.8C525.6,920.9,527,922.2,529,922.2L529,922.2z M538.4,927c0.7,0.3,1.4,0.7,2.6,0.7
		c1.7,0,2.4-1,3.1-3.1l0.3-1.2l-6.4-15.6h2.1l5.2,13.5l4.7-13.5h1.9l-6.2,17.2c-1,2.8-2.1,4.3-4.9,4.3c-1.4,0-2.4-0.5-3.1-0.9
		L538.4,927L538.4,927z M564.1,923.4v-1.7c-1,1-2.6,1.9-4.9,1.9c-3.1,0-5-1.9-5-4.9c0-3.8,3.1-5.5,7.1-5.5c0.9,0,1.9,0.2,2.8,0.3
		v-0.7c0-2.6-1.4-3.8-3.8-3.8c-1.6,0-3.1,0.3-4.3,1l-0.3-1.7c1.4-0.7,3.5-1,5-1c3.5,0,5.4,1.9,5.4,5.7v10.4L564.1,923.4L564.1,923.4
		z M559.7,922.2c2.1,0,3.5-1,4.2-1.9v-4.9c-0.5-0.2-1.7-0.3-2.6-0.3c-2.9,0-5.2,1.2-5.2,3.8C556.1,920.9,557.7,922.2,559.7,922.2
		L559.7,922.2z M581.8,903.1h2.3l7.1,20.5h-1.9l-1.7-5h-9.4l-1.7,5h-1.9L581.8,903.1L581.8,903.1z M578.6,917h8.1l-4-11.8L578.6,917
		z M604.8,923.4v-9.5c0-2.9-1.2-4.7-4-4.7c-2.4,0-4,1.7-4.5,3.6v10.4h-1.9v-15.8h1.9v2.6c1-1.7,2.8-2.9,5.2-2.9
		c3.5,0,5.2,2.3,5.2,6.2v9.9h-1.9V923.4L604.8,923.4z M617.3,907.4c1.9,0,3.5,0.9,4.5,2.1v-1.7h1.9v15.1c0,4.7-2.8,6.6-6.1,6.6
		c-2.8,0-4.3-1-5.2-1.6l0.5-1.7c0.9,0.5,2.4,1.7,4.5,1.7c2.4,0,4.3-1.2,4.3-4.7v-2.4c-1,1.2-2.6,2.1-4.5,2.1c-3.8,0-6.4-3.1-6.4-7.5
		C610.9,910.5,613.5,907.4,617.3,907.4L617.3,907.4z M618,920.8c1.7,0,3.1-1,4-2.1v-7.3c-0.9-1-2.1-2.1-4-2.1c-3.1,0-5,2.3-5,5.7
		C612.8,918.5,614.9,920.8,618,920.8z M629.9,916.3c0.2,3.5,1.7,5.9,5.4,5.9c1.9,0,3.3-0.9,4.5-1.9l0.9,1.6
		c-1.4,1.2-3.3,2.1-5.5,2.1c-5,0-7.1-3.5-7.1-8.1c0-4.9,2.6-8.3,6.9-8.3c4.2,0,5.9,2.9,5.9,6.4c0,0.9-0.2,1.7-0.3,2.6h-10.6V916.3
		L629.9,916.3z M639,914.7c0-0.3,0.2-0.7,0.2-1.2c0-2.4-1.4-4.5-4.2-4.5c-3.1,0-4.9,2.4-5,5.7H639L639,914.7z M647.1,902v17.9
		c0,1.6,0.5,2.1,1.4,2.1c0.7,0,1.2-0.3,1.7-0.7l0.2,1.6c-0.5,0.3-1.6,0.9-2.6,0.9c-1.7,0-2.8-0.9-2.8-3.3V902H647.1z M659.6,907.2
		c4.3,0,7.1,3.1,7.1,8.3c0,5-2.9,8.1-7.1,8.1s-7.1-3.1-7.1-8.1C652.7,910.5,655.4,907.2,659.6,907.2z M659.6,922
		c3.1,0,5.2-2.4,5.2-6.4c0-4-2.1-6.4-5.2-6.4c-3.1,0-5.2,2.4-5.2,6.4S656.6,922,659.6,922z M672.8,907.8v9.5c0,2.9,1.2,4.7,4,4.7
		c2.4,0,4-1.7,4.5-3.6v-10.4h1.9v15.8h-1.9v-2.6c-1,1.7-2.8,2.9-5.2,2.9c-3.5,0-5.4-2.3-5.4-6.2v-9.9h2.1V907.8z"/>
</g>
<path fill="#333333" d="M735.9,811.7c17-12,21.5-26.7,21.8-33.8c-6.4-0.7-12.7-6.8-12.7-13.5c0-7.6,6.6-13.5,13.5-13.5
	c8.1,0,14.9,6.4,14.9,18.2c0,13.7-9.4,35.2-34.3,47.7L735.9,811.7L735.9,811.7z M780.3,811.7c17-12,21.5-26.7,21.8-33.8
	c-6.4-0.7-12.7-6.8-12.7-13.5c0-7.6,6.6-13.5,13.5-13.5c8.1,0,14.9,6.4,14.9,18.2c0,13.7-9.4,35.2-34.3,47.7L780.3,811.7
	L780.3,811.7z"/>
<path fill="#FFFFFF" d="M517,432.7h-38.1l0-0.2h5.9l5.8-47h-5.9l0-0.2h35.7l-2.1,17.2h-0.2c0,0-0.2-17-13.9-17H502l-2.8,22.9h0.9
	c8.7,0,11.1-11.1,11.1-11.1h0.2l-2.7,22.4h-0.2c0,0,0.3-11.1-8.3-11.1h-0.9l-3,24.1h2.3c17,0,20.6-18.4,20.6-18.4h0.2L517,432.7
	L517,432.7z"/>
<path fill="#FFFFFF" d="M558.7,399.1h-5.4l-15.2,34.8L528,399.1h-5.4l0-0.2h21.7l0,0.2H540l5.4,17.9l7.7-17.9h-5.5l0-0.2
	L558.7,399.1z"/>
<path fill="#FFFFFF" d="M566.2,415.7l-0.2,1.9c-1.2,9.4-1.5,14.9,5.6,14.9c6.2,0,10.9-4.3,13.6-11.8h0.2c-2.7,8-8,12.8-16.5,12.8
	c-8.7,0-15.3-8.3-14.1-17.9c1.2-9.5,9.8-17.9,18.5-17.9c8.8,0,14.6,8.1,13.4,17.7h-20.5L566.2,415.7L566.2,415.7z M566.8,411.2
	l-0.6,4.5h8.8c1.9-15.1,1.5-17.5-1.8-17.5C568.5,398.2,567.7,403.3,566.8,411.2L566.8,411.2z"/>
<path fill="#FFFFFF" d="M584.8,432.7l5.4-0.2l4.1-33.5h-5.4l0-0.2h16.3l-0.3,2.8c1.6-1.9,3.7-3.6,7-3.6c2.4,0,5.9,1.4,6.4,5.4
	c0.2,0.9,0.2,1.6,0.1,2.1c-0.4,3.3-2.7,6.2-6.5,6.2c-3.1,0-5.4-2.6-5-5.7c0.4-3.1,3.3-5.7,6.4-5.7c2.6,0,4.6,1.9,5,4.3
	c0-2.9-2.2-6.2-6.5-6.2c-3.3,0-5.4,1.6-7,3.6l-3.7,30.5h5.4l0,0.2H584.8L584.8,432.7z"/>
<path fill="#FFFFFF" d="M615.2,443l0-1.4c0.4-3.3,3.3-5.9,6.6-5.9c3.1,0,5.6,2.6,5.2,5.9c-0.4,3.3-3.3,5.9-6.6,5.9
	c-2.3,0-4.2-1.4-5-3.3c0.4,2.1,1.8,4.9,6.5,4.9c5.2,0,7.9-3.5,10.4-8.8l2.8-5.9l-10.6-35.4h-5.5l0-0.2h21.8l0,0.2h-4.3l5.9,19.8
	l9.4-19.8h-5.4l0-0.2h11.1l0,0.2H652l-19.3,41.4c-2.6,5.5-5.6,8.8-10.6,8.8C616.2,449.4,615.3,445,615.2,443L615.2,443z"/>
<path fill="#FFFFFF" d="M675.6,399.1l-3.6,29.1c-0.2,1.9,0.3,3.3,2,3.3c2.1,0,2.9-2.4,3.2-4.7l0.9-7.5h0.2l-0.9,7.6
	c-0.5,4-2.4,6.6-7.2,6.6c-6.4,0-9-4.3-8.2-10.7l2.9-23.8h-5.4l0-0.2h1.7c8,0,14.8-5,16-14.2h0.2L675.6,399.1l6.8-0.2l0,0.2
	C682.3,399.1,675.6,399.1,675.6,399.1z"/>
<path fill="#FFFFFF" d="M719.3,432.7h-19.4l0-0.2h3.1l3.3-26.5c0.6-5,0.2-6.9-1.9-6.9c-2.4,0-4.8,2.8-6.2,6.8l-3.3,26.9h3.1l0,0.2
	h-19.4l0-0.2h5.4l6-49.1h-5.4l0-0.2h16.3l-2.7,21.7c2-5,5.2-7.1,9-7.1c7.6,0,10.2,5.5,9.4,12.5l-2.7,22.2H719.3L719.3,432.7z"/>
<path fill="#FFFFFF" d="M721.4,432.7l5.4-0.2l4.1-33.5h-5.4l0-0.2h16.3l-4.1,33.6h5.4l0,0.2C743,432.7,721.4,432.7,721.4,432.7z
	 M738.5,380.5c3.3,0,5.4,2.4,5,5.7c-0.4,3.3-3.1,5.7-6.4,5.7c-3.3,0-5.4-2.4-5-5.7C732.5,383,735.2,380.5,738.5,380.5L738.5,380.5z"
	/>
<path fill="#FFFFFF" d="M785.5,432.7h-19.4l0-0.2h3.1l3.3-26.5c0.6-5,0.2-6.9-1.9-6.9c-2.4,0-4.8,2.8-6.2,6.8l-3.3,26.9h3.1l0,0.2
	h-19.4l0-0.2h5.4l4.1-33.6h-5.4l0-0.2h16.3l-0.8,6.2c2-5,5.2-7.1,9-7.1c7.6,0,10.2,5.5,9.4,12.5l-2.7,22.2H785.5L785.5,432.7z"/>
<path fill="#FFFFFF" d="M795.7,417.3c-1.3,0.3-2.9,1.2-3.1,2.8c-0.1,0.7,0.2,1.4,1.2,1.7c1.1,0.7,4.2,1,10.2,1.4
	c12.9,0.7,16.3,5.7,15.4,12.8c-0.9,7.6-8.7,13.2-18.3,13.2c-11.4,0-16.4-4.7-15.8-9.4c0.6-4.7,4.5-6.9,8.9-7.5
	c-3.5-1.2-6.4-3.3-5.8-8C788.7,420.8,791.4,418.5,795.7,417.3c-2.5-2.1-3.7-5-3.3-8.3c0.7-6.1,6.9-10.9,14.5-10.9
	c5.2,0,9.3,2.3,10.9,5.5c1.1-0.2,7.8-1.4,8.5-7.5c0.6-4.5-2-6.2-4-7.1c1.8,1,2.9,2.9,2.7,5.2c-0.4,3.1-3.3,5.9-6.6,5.9
	s-5.6-2.6-5.2-5.9c0.4-3.3,3.3-5.9,6.6-5.9c0.2,0,1,0,1.4,0.2c2,0.3,6,1.7,5.3,7.5c-0.7,5.9-7.3,7.3-8.7,7.6
	c0.8,1.6,1.2,3.3,0.9,5.2c-0.7,6.1-6.9,10.9-14.5,10.9C800.8,419.9,797.8,418.9,795.7,417.3L795.7,417.3z M794.7,432.7
	c-1.9,1-3.9,3.1-4.3,6.9c-0.6,4.7,3.5,9.5,10.4,9.5c6.6,0,12-2.9,12.6-7.6c0.5-4-1.7-5.9-9.5-7.3
	C801.3,433.9,797.7,433.6,794.7,432.7L794.7,432.7z M810.5,409c1.1-9.2-0.9-10.7-3.5-10.7s-5,1.6-6.2,10.7
	c-1.1,9.2,0.9,10.7,3.5,10.7S809.3,418.2,810.5,409z"/>
<path fill="#FFFFFF" d="M833.4,432.7l5.4-0.2l4.1-33.5h-5.4l0-0.2h16.3l-4.1,33.6h5.4l0,0.2C855,432.7,833.4,432.7,833.4,432.7z
	 M850.5,380.5c3.3,0,5.4,2.4,5,5.7c-0.4,3.3-3.1,5.7-6.4,5.7c-3.3,0-5.4-2.4-5-5.7S847.2,380.5,850.5,380.5z"/>
<path fill="#FFFFFF" d="M897.5,432.7h-19.4l0-0.2h3.1l3.3-26.5c0.6-5,0.2-6.9-1.9-6.9c-2.4,0-4.8,2.8-6.2,6.8l-3.3,26.9h3.1l0,0.2
	h-19.4l0-0.2h5.4l4.1-33.6h-5.4l0-0.2h16.3l-0.8,6.2c2-5,5.2-7.1,9-7.1c7.6,0,10.2,5.5,9.4,12.5l-2.7,22.2
	C892.1,432.7,897.5,432.7,897.5,432.7z"/>
<path fill="#FFFFFF" d="M497.8,480.2l-3.6,29.1c-0.2,1.9,0.3,3.3,2,3.3c2.1,0,2.9-2.4,3.2-4.7l0.9-7.5l-0.9,7.6
	c-0.5,4-2.4,6.6-7.2,6.6c-6.4,0-9-4.3-8.2-10.7l2.9-23.8h-5.4l0-0.2h1.7c8,0,14.8-5,16-14.2h0.2l-1.8,14.4l6.8-0.2l0,0.2
	L497.8,480.2L497.8,480.2z"/>
<path fill="#FFFFFF" d="M541.6,513.9h-19.2l0-0.2h3.1l3.3-26.5c0.6-5,0.2-6.9-1.9-6.9c-2.4,0-4.8,2.8-6.2,6.8l-3.3,26.9h3.1l0,0.2
	H501l0-0.2h5.4l6-49.1H507l0-0.2h16.3l-2.7,21.7c2-5,5.2-7.1,9-7.1c7.6,0,10.2,5.5,9.4,12.5l-2.7,22.2H541.6L541.6,513.9z"/>
<path fill="#FFFFFF" d="M555.6,496.9l-0.2,1.9c-1.1,9.4-1.5,14.9,5.6,14.9c6.2,0,10.9-4.3,13.6-11.8h0.2c-2.7,8-8,12.8-16.5,12.8
	c-8.7,0-15.3-8.3-14.1-17.9c1.2-9.5,9.8-17.9,18.5-17.9c8.8,0,14.6,8.1,13.4,17.7h-20.5L555.6,496.9L555.6,496.9z M556.2,492.4
	l-0.6,4.5h8.8c1.9-15.1,1.5-17.5-1.8-17.5C558.1,479.4,557.1,484.6,556.2,492.4z"/>
<path fill="#FFFFFF" d="M589,480.1h16.3l-3.3,26.7c-0.6,5-0.2,6.9,1.9,6.9c2.4,0,4.8-2.8,6.2-6.8l3.3-26.7h-3.1l0-0.2h13.9
	l-4.1,33.6h5.4l0,0.2h-16.3l0.8-6.2c-2,5-5.2,7.1-9,7.1c-7.6,0-10.2-5.5-9.4-12.5l2.7-22L589,480.1L589,480.1z"/>
<path fill="#FFFFFF" d="M668.3,513.9h-19.4l0-0.2h3.1l3.3-26.5c0.6-5,0.2-6.9-1.9-6.9c-2.4,0-4.8,2.8-6.2,6.8l-3.3,26.9h3.1l0,0.2
	h-19.4l0-0.2h5.4l4.1-33.6h-5.4l0-0.2H648l-0.8,6.2c2-5,5.2-7.1,9-7.1c7.6,0,10.2,5.5,9.4,12.5l-2.7,22.2H668.3L668.3,513.9z"/>
<path fill="#FFFFFF" d="M670.2,513.9l5.4-0.2l4.1-33.5h-5.4l0-0.2h16.3l-4.1,33.6h5.4l0,0.2H670.2L670.2,513.9z M687.5,461.7
	c3.3,0,5.4,2.4,5,5.7c-0.4,3.3-3.1,5.7-6.4,5.7s-5.4-2.4-5-5.7C681.5,464.1,684.2,461.7,687.5,461.7L687.5,461.7z"/>
<path fill="#FFFFFF" d="M731,480.2h-5.4l-15.2,34.8l-10.3-34.8h-5.4l0-0.2h21.7l0,0.2h-4.3l5.4,17.9l7.7-17.9h-5.5l0-0.2L731,480.2
	L731,480.2z"/>
<path fill="#FFFFFF" d="M738.5,496.9l-0.2,1.9c-1.1,9.4-1.5,14.9,5.6,14.9c6.2,0,10.9-4.3,13.6-11.8h0.2c-2.7,8-8,12.8-16.5,12.8
	c-8.7,0-15.3-8.3-14.1-17.9c1.2-9.5,9.8-17.9,18.5-17.9c8.8,0,14.6,8.1,13.4,17.7h-20.5L738.5,496.9L738.5,496.9z M739.1,492.4
	l-0.6,4.5h8.8c1.9-15.1,1.5-17.5-1.8-17.5C741,479.4,740,484.6,739.1,492.4L739.1,492.4z"/>
<path fill="#FFFFFF" d="M757.1,513.9l5.4-0.2l4.1-33.5h-5.4l0-0.2h16.3l-0.3,2.8c1.6-1.9,3.7-3.6,7-3.6c2.4,0,5.9,1.4,6.4,5.4
	c0.2,0.9,0.2,1.6,0.1,2.1c-0.4,3.3-2.7,6.2-6.5,6.2c-3.1,0-5.4-2.6-5-5.7s3.3-5.7,6.4-5.7c2.6,0,4.6,1.9,5,4.3
	c0-2.9-2.2-6.2-6.5-6.2c-3.3,0-5.4,1.6-7,3.6l-3.7,30.5h5.4l0,0.2H757.1z"/>
<path fill="#FFFFFF" d="M793.7,512.1c-1.4,0-2.9,1.2-3.5,3.5H790l2.1-17.2h0.2c-0.6,6.1,3.5,16.3,10.8,16.3c2.9,0,5.1-1.9,5.5-5
	c1-8.1-17.3-7.3-15.7-20.1c0.6-5,5.4-10.4,11.5-10.4c3.5,0,6.3,2.4,8.9,2.4c0.9,0,1.6-0.7,1.9-2.4h0.2l-1.7,13.5h-0.2
	c0.1-3.6-2.2-13.3-9.1-13.3c-3.1,0-5.5,2.3-5.8,5c-0.9,7.5,18.3,6.6,16.7,19.6c-0.7,6.1-5.8,10.7-12.1,10.7
	C798.9,514.9,797,512.1,793.7,512.1L793.7,512.1z"/>
<path fill="#FFFFFF" d="M830.2,496.9l-0.2,1.9c-1.1,9.4-1.5,14.9,5.6,14.9c6.2,0,10.9-4.3,13.6-11.8h0.2c-2.7,8-8,12.8-16.5,12.8
	c-8.7,0-15.3-8.3-14.1-17.9c1.2-9.5,9.8-17.9,18.5-17.9c8.8,0,14.6,8.1,13.4,17.7h-20.5L830.2,496.9L830.2,496.9z M830.8,492.4
	l-0.6,4.5h8.8c1.9-15.1,1.5-17.5-1.8-17.5C832.7,479.4,831.7,484.6,830.8,492.4z"/>
<path fill="#FFFFFF" d="M519.8,595h-19.4l0-0.2h3.1l3.3-26.7c0.6-5,0.2-6.9-1.9-6.9c-2.4,0-4.8,2.8-6.2,6.8l-3.3,26.9h3.1l0,0.2H479
	l0-0.2h5.4l6-48.9H485l0-0.2h16.3l-2.7,21.7c2-5,5.2-7.1,9-7.1c7.6,0,10.2,5.5,9.4,12.5l-2.7,22.2L519.8,595L519.8,595L519.8,595z"
	/>
<path fill="#FFFFFF" d="M526,568.1c1-2.4,3.7-4.3,6.1-4.3c3.1,0,5.4,2.6,5,5.7c-0.4,3.1-3.3,5.7-6.4,5.7c-3.8,0-5.4-2.9-5-6.2
	c0.1-0.5,0.1-1,0.6-2.1c2.5-4.9,8.5-6.8,12.3-6.8c10.1,0,15.2,4.9,14.3,12l-2.2,17.9c-0.3,2.8,0.4,4,2.1,4c0.7,0,1.2-0.2,1.6-0.5
	c1-0.9,1.5-2.3,1.6-2.8h0.2c-0.8,2.4-2.5,5-6.7,5c-5.7,0-9.3-3.6-9.1-7.5c-0.7,2.8-3.3,7.5-10.5,7.5c-5.7,0-8.7-3.6-8.1-8.7
	c0.7-5.4,5.2-8.8,9.9-9.7c3.6-0.7,3.8-0.2,5.8-0.7c1.6-0.3,3-1.9,4.4-3.5l0.9-6.9c0.5-4-1.2-5.7-5-5.7
	C533.2,560.7,527.6,563.6,526,568.1L526,568.1z M542,573.7c-1.6,2.1-2.8,2.8-4.4,3.6c-2.2,1.2-4,2.9-4.4,6.2l-0.7,6.1
	c-0.4,3.3-0.3,5.2,1.6,5.2c3.1,0,5.9-4,6.2-6.4L542,573.7L542,573.7z"/>
<path fill="#FFFFFF" d="M561.6,593.3c-1.4,0-2.9,1.2-3.5,3.5h-0.2l2.1-17.2h0.2c-0.6,6.1,3.5,16.3,10.8,16.3c2.9,0,5.1-1.9,5.5-5
	c1-8.1-17.3-7.3-15.7-20.1c0.6-5,5.4-10.4,11.5-10.4c3.3,0,6.3,2.4,8.9,2.4c0.9,0,1.6-0.7,1.9-2.4h0.2l-1.7,13.5h-0.2
	c0.1-3.6-2.2-13.4-9.1-13.4c-3.1,0-5.5,2.3-5.8,5c-0.9,7.5,18.3,6.6,16.7,19.6c-0.7,6.1-5.8,10.7-12.1,10.7
	C566.8,596,564.9,593.3,561.6,593.3L561.6,593.3z"/>
<path fill="#FFFFFF" d="M594.5,595l5.4-0.2l4.1-33.5h-5.4l0-0.2h16.3l-0.3,2.8c1.6-1.9,3.7-3.6,7-3.6c2.4,0,5.9,1.4,6.4,5.4
	c0.2,0.9,0.2,1.6,0.1,2.1c-0.4,3.3-2.7,6.2-6.5,6.2c-3.1,0-5.4-2.6-5-5.7c0.4-3.1,3.3-5.7,6.4-5.7c2.6,0,4.6,1.9,5,4.3
	c0-2.9-2.2-6.2-6.5-6.2c-3.3,0-5.4,1.6-7,3.6l-3.7,30.5h5.4l0,0.2H594.5z"/>
<path fill="#FFFFFF" d="M664.7,595h-19.4l0-0.2h3.1l3.3-26.7c0.6-5,0.2-6.9-1.9-6.9c-2.4,0-4.8,2.8-6.2,6.8l-3.3,26.9h3.1l0,0.2H624
	l0-0.2h5.4l6-48.9H630l0-0.2h16.3l-2.7,21.7c2-5,5.2-7.1,9-7.1c7.6,0,10.2,5.5,9.4,12.5l-2.7,22.2L664.7,595L664.7,595L664.7,595z"
	/>
<path fill="#FFFFFF" d="M661.2,605.4l0-1.4c0.4-3.3,3.3-5.9,6.6-5.9c3.1,0,5.6,2.6,5.2,5.9c-0.4,3.3-3.3,5.9-6.6,5.9
	c-2.3,0-4.2-1.4-5-3.3c0.4,2.1,1.8,4.9,6.5,4.9c5.2,0,7.9-3.5,10.4-8.8l2.8-5.9l-10.6-35.4h-5.4l0-0.2H687l0,0.2h-4.3l5.9,19.8
	l9.4-19.8h-5.4l0-0.2h11.1l0,0.2h-5.5l-19.5,41.3c-2.6,5.5-5.6,8.8-10.6,8.8C662.1,611.7,661.3,607.5,661.2,605.4L661.2,605.4z"/>
<path fill="#FFFFFF" d="M721.5,561.4l-3.6,29.1c-0.2,1.9,0.3,3.3,2,3.3c2.1,0,2.9-2.4,3.2-4.7l0.9-7.5h0.2l-0.9,7.6
	c-0.5,4-2.4,6.6-7.2,6.6c-6.4,0-9-4.3-8.2-10.7l2.9-23.9h-5.4l0-0.2h1.7c8,0,14.8-5,16-14.2h0.2L721.5,561.4l6.8-0.2l0,0.2
	L721.5,561.4L721.5,561.4z"/>
<path fill="#FFFFFF" d="M765.2,595h-19.4l0-0.2h3.1l3.3-26.7c0.6-5,0.2-6.9-1.9-6.9c-2.4,0-4.8,2.8-6.2,6.8l-3.3,26.9h3.1l0,0.2
	h-19.4l0-0.2h5.4l6-48.9h-5.4l0-0.2h16.3l-2.7,21.7c2-5,5.2-7.1,9-7.1c7.6,0,10.2,5.5,9.4,12.5l-2.7,22.2L765.2,595L765.2,595
	L765.2,595z"/>
<path fill="#FFFFFF" d="M804.3,595h-16.5l0-0.2h2.9l3.6-29c0.3-2.1,0.2-4.5-1.9-4.5c-2.4,0-5.3,3.5-6.4,6.8l-3.3,26.7h2.8l0,0.2
	h-18.2l0-0.2h4.7l4.1-33.5h-4.7l0-0.2h15.6l-0.8,6.2c2-4.9,5.4-7.1,9-7.1c5.5,0,8,2.9,9,7.1c2-4.9,5.7-7.1,9.5-7.1
	c7.6,0,10.2,5.5,9.4,12.5l-2.7,22.2h4.7l0,0.2h-18.6l0-0.2h2.9l3.3-26.7c0.6-5,0.5-6.9-1.9-6.9c-2.8,0-5.6,3.3-6.7,6.4
	c0.3,1.6,0.3,3.3,0.1,5l-2.7,22.2L804.3,595L804.3,595z"/>
<path fill="#FFFFFF" d="M833.8,584.3c3.1,0,5.4,2.6,5,5.7c-0.4,3.1-3.3,5.7-6.4,5.7c-3.1,0-5.4-2.6-5-5.7
	C827.8,586.9,830.7,584.3,833.8,584.3L833.8,584.3z"/>
<path fill="#FFFFFF" d="M517,676.1h-32.2l5.8-47h-5.9l0-0.2h35.7l-2.1,17.2h-0.2c0,0-0.2-17-13.9-17h-2.3l-2.8,22.7h0.9
	c8.7,0,11.1-11.1,11.1-11.1h0.2l-2.7,22.4h-0.2c0,0,0.3-11.1-8.3-11.1h-0.9l-3,24.1h2.3c17,0,20.6-18.4,20.6-18.4h0.2L517,676.1
	L517,676.1z"/>
<path fill="#FFFFFF" d="M558.7,642.5h-5.4l-15.2,34.8L528,642.5h-5.4l0-0.2h21.7l0,0.2H540l5.4,17.9l7.7-17.9h-5.5l0-0.2
	L558.7,642.5L558.7,642.5z"/>
<path fill="#FFFFFF" d="M566.2,659.2l-0.2,1.9c-1.1,9.4-1.5,14.9,5.6,14.9c6.2,0,10.9-4.3,13.6-11.8h0.2c-2.7,8-8,12.8-16.5,12.8
	c-8.7,0-15.3-8.3-14.1-17.9c1.2-9.5,9.8-17.9,18.5-17.9c8.8,0,14.6,8.1,13.4,17.7h-20.5L566.2,659.2z M566.8,654.6l-0.6,4.5h8.8
	c1.9-15.1,1.5-17.5-1.8-17.5C568.5,641.6,567.7,646.8,566.8,654.6z"/>
<path fill="#FFFFFF" d="M584.8,676.1l5.4-0.2l4.1-33.5h-5.4l0-0.2h16.3l-0.3,2.8c1.6-1.9,3.7-3.6,7-3.6c2.4,0,5.9,1.4,6.4,5.4
	c0.2,0.9,0.2,1.6,0.1,2.1c-0.4,3.3-2.7,6.2-6.5,6.2c-3.1,0-5.4-2.6-5-5.7s3.3-5.7,6.4-5.7c2.6,0,4.6,1.9,5,4.3
	c0-2.9-2.2-6.2-6.5-6.2c-3.3,0-5.4,1.6-7,3.6l-3.8,30.7h5.4l0,0.2h-21.7L584.8,676.1L584.8,676.1z"/>
<path fill="#FFFFFF" d="M615.2,686.5l0-1.4c0.4-3.3,3.3-5.9,6.6-5.9c3.1,0,5.6,2.6,5.2,5.9c-0.4,3.3-3.3,5.9-6.6,5.9
	c-2.3,0-4.2-1.4-5-3.3c0.4,2.1,1.8,4.9,6.5,4.9c5.2,0,7.9-3.5,10.4-8.8l2.8-5.9l-10.6-35.4h-5.5l0-0.2h21.8l0,0.2h-4.3l5.9,19.8
	l9.4-19.8h-5.4l0-0.2h11.1l0,0.2H652l-19.5,41.3c-2.6,5.5-5.6,8.8-10.6,8.8C616.2,692.8,615.3,688.6,615.2,686.5L615.2,686.5z"/>
<path fill="#FFFFFF" d="M675.6,642.5l-3.6,29.1c-0.2,1.9,0.3,3.3,2,3.3c2.1,0,2.9-2.4,3.2-4.7l0.9-7.5h0.2l-0.9,7.6
	c-0.5,4-2.4,6.6-7.2,6.6c-6.4,0-9-4.3-8.2-10.7l2.9-23.9h-5.4l0-0.2h1.7c8,0,14.8-5,16-14.2h0.2L675.6,642.5l6.8-0.2l0,0.2H675.6
	L675.6,642.5z"/>
<path fill="#FFFFFF" d="M719.3,676.1H703l3.3-26.7c0.6-5,0.2-6.9-1.9-6.9c-2.4,0-4.8,2.8-6.2,6.8l-3.3,26.9h3.1l0,0.2h-19.4l0-0.2
	h5.4l6-48.9h-5.4l0-0.2h16.3l-2.7,21.7c2-5,5.2-7.1,9-7.1c7.6,0,10.2,5.5,9.4,12.5l-2.7,22L719.3,676.1L719.3,676.1z"/>
<path fill="#FFFFFF" d="M721.4,676.1l5.4-0.2l4.1-33.5h-5.4l0-0.2h16.3l-4.2,33.8h5.4l0,0.2h-21.7L721.4,676.1L721.4,676.1z
	 M738.5,624c3.3,0,5.4,2.4,5,5.7c-0.4,3.3-3.1,5.7-6.4,5.7s-5.4-2.4-5-5.7C732.5,626.4,735.2,624,738.5,624L738.5,624z"/>
<path fill="#FFFFFF" d="M785.5,676.1h-16.3l3.3-26.7c0.6-5,0.2-6.9-1.9-6.9c-2.4,0-4.8,2.8-6.2,6.8l-3.3,26.9h3.1l0,0.2h-19.4l0-0.2
	h5.4l4.1-33.5h-5.4l0-0.2h16.3l-0.8,6.2c2-5,5.2-7.1,9-7.1c7.6,0,10.2,5.5,9.4,12.5l-2.7,22L785.5,676.1L785.5,676.1z"/>
<path fill="#FFFFFF" d="M795.7,660.7c-1.3,0.3-2.9,1.2-3.1,2.8c-0.1,0.7,0.2,1.4,1.2,1.7c1.1,0.7,4.2,1,10.2,1.4
	c12.9,0.7,16.3,5.7,15.4,12.8c-0.9,7.6-8.7,13.2-18.3,13.2c-11.4,0-16.4-4.7-15.8-9.4c0.6-4.7,4.5-6.9,8.9-7.5
	c-3.5-1.2-6.4-3.3-5.8-8C788.7,664.4,791.4,661.9,795.7,660.7c-2.5-2.1-3.7-5-3.3-8.3c0.7-6.1,6.9-10.9,14.5-10.9
	c5.2,0,9.3,2.3,10.9,5.5c1.1-0.2,7.8-1.4,8.5-7.5c0.6-4.5-2-6.2-4-7.1c1.8,1,2.9,2.9,2.7,5.2c-0.4,3.1-3.3,5.9-6.6,5.9
	c-3.3,0-5.6-2.6-5.2-5.9s3.3-5.9,6.6-5.9c0.2,0,1,0,1.4,0.2c2,0.3,6,1.7,5.3,7.5c-0.7,5.9-7.3,7.3-8.7,7.6c0.8,1.6,1.2,3.3,0.9,5.2
	c-0.7,6.1-6.9,10.9-14.5,10.9C800.8,663.3,797.8,662.3,795.7,660.7L795.7,660.7z M794.7,676.1c-1.9,1-3.9,3.1-4.3,6.9
	c-0.6,4.7,3.5,9.5,10.4,9.5c6.6,0,12-2.9,12.6-7.6c0.5-4-1.7-5.9-9.5-7.3C801.3,677.4,797.7,677,794.7,676.1z M810.5,652.4
	c1.1-9.2-0.9-10.7-3.5-10.7s-5,1.6-6.2,10.7c-1.1,9.2,0.9,10.7,3.5,10.7S809.3,661.6,810.5,652.4z"/>
<path fill="#FFFFFF" d="M505.8,708.2h-5.4l0-0.2h16.3l-6,49.1h5.4l0,0.2h-16.3l0.8-6.2c-2,5-5.2,7.1-9,7.1
	c-6.4,0-12.1-7.5-10.8-17.9c1.3-10.4,8.8-17.9,15.2-17.9c3.6,0,6.5,2.1,7.3,7.1L505.8,708.2L505.8,708.2z M503.1,730.4
	c-0.4-3.8-2.3-6.8-4.5-6.8c-3.1,0-4.7,3.3-5.9,13l-0.9,7.5c-1.2,9.9-0.6,13,2.7,13c2.4,0,4.8-2.8,6.2-6.8L503.1,730.4L503.1,730.4z"
	/>
<path fill="#FFFFFF" d="M522.3,730.6c1-2.4,3.7-4.3,6.1-4.3c3.1,0,5.4,2.6,5,5.7c-0.4,3.1-3.3,5.7-6.4,5.7c-3.8,0-5.4-2.9-5-6.2
	c0.1-0.5,0.1-1,0.6-2.1c2.5-4.9,8.5-6.8,12.3-6.8c10.1,0,15.2,4.9,14.3,12l-2.2,17.9c-0.3,2.8,0.4,4,2.1,4c0.7,0,1.2-0.2,1.6-0.5
	c1-0.9,1.5-2.3,1.6-2.8h0.2c-0.8,2.4-2.5,5-6.7,5c-5.7,0-9.3-3.6-9.1-7.5c-0.7,2.8-3.3,7.5-10.5,7.5c-5.7,0-8.7-3.6-8.1-8.7
	c0.7-5.4,5.2-8.8,9.9-9.7c3.6-0.7,3.8-0.2,5.8-0.7c1.6-0.3,3-1.9,4.4-3.5l0.9-6.9c0.5-4-1.2-5.7-5-5.7
	C529.3,723,523.9,726.1,522.3,730.6L522.3,730.6z M538.1,736c-1.6,2.1-2.8,2.8-4.4,3.6c-2.2,1.2-4,2.9-4.4,6.2l-0.7,6.1
	c-0.4,3.3-0.3,5.2,1.6,5.2c3.1,0,5.9-4,6.2-6.4L538.1,736L538.1,736z"/>
<path fill="#FFFFFF" d="M593.7,757.3h-19.4l0-0.2h3.1l3.3-26.7c0.6-5,0.2-6.9-1.9-6.9c-2.4,0-4.8,2.8-6.2,6.8l-3.3,26.9h3.1l0,0.2
	H553l0-0.2h5.4l4.1-33.5h-5.4l0-0.2h16.3l-0.8,6.2c2-5,5.2-7.1,9-7.1c7.6,0,10.2,5.5,9.4,12.5l-2.7,22.2L593.7,757.3L593.7,757.3
	L593.7,757.3z"/>
<path fill="#FFFFFF" d="M607.6,740.6c-0.7,5.5-1.9,16.6,5.8,16.6c6.1,0,10-4.9,11.3-13h0.2c-1.3,8.1-5.4,14-14.2,14
	c-8.8,0-15.7-7.6-14.5-17.9c1.1-9.4,9.3-17.9,19.4-17.9c6.2,0,9,2.9,9.7,6.8c0.2,0.9,0.2,1.6,0.1,2.1c-0.4,3.3-2.7,6.2-6.5,6.2
	c-3.1,0-5.4-2.6-5-5.7c0.4-3.1,3.3-5.7,6.4-5.7c2.4,0,4.6,1.9,5,4.3c-0.3-3.5-2.6-7.5-8.6-7.5C610.4,723,608.8,730.8,607.6,740.6
	L607.6,740.6z"/>
<path fill="#FFFFFF" d="M638.8,740.3l-0.2,1.9c-1.1,9.4-1.5,14.9,5.6,14.9c6.2,0,10.9-4.3,13.6-11.8h0.2c-2.7,8-8,12.8-16.5,12.8
	c-8.7,0-15.3-8.3-14.1-17.9c1.2-9.5,9.8-17.9,18.5-17.9c8.8,0,14.6,8.1,13.4,17.7h-20.5L638.8,740.3L638.8,740.3z M639.4,735.8
	l-0.6,4.5h8.8c1.9-15.1,1.5-17.5-1.8-17.5C641.3,722.8,640.3,728,639.4,735.8z"/>
<path fill="#FFFFFF" d="M664.2,755.5c-1.4,0-2.9,1.2-3.5,3.5h-0.2l2.1-17.2h0.2c-0.6,6.1,3.5,16.3,10.8,16.3c2.9,0,5.1-1.9,5.5-5
	c1-8.1-17.3-7.3-15.7-20.1c0.6-5,5.4-10.4,11.5-10.4c3.3,0,6.3,2.4,8.9,2.4c0.9,0,1.6-0.7,1.9-2.4h0.2l-1.7,13.5h-0.2
	c0.1-3.6-2.2-13.4-9.1-13.4c-3.1,0-5.5,2.3-5.8,5c-0.9,7.5,18.3,6.6,16.7,19.6c-0.7,6.1-5.8,10.7-12.1,10.7
	C669.4,758.3,667.5,755.5,664.2,755.5L664.2,755.5z"/>
<path fill="#FFFFFF" d="M694.9,746.5c3.1,0,5.4,2.6,5,5.7c-0.4,3.1-3.3,5.7-6.4,5.7c-3.1,0-5.4-2.6-5-5.7
	C688.9,749.1,691.8,746.5,694.9,746.5L694.9,746.5z"/>
<path fill="#333333" d="M377,366.7c0-13.7,9.4-35.2,34.3-47.7l3.3,5.4c-17,11.8-21.7,26.5-21.8,33.6c6.4,0.7,12.7,6.8,12.7,13.5
	c0,7.6-6.6,13.5-13.5,13.5C383.9,384.9,377,378.6,377,366.7L377,366.7z M421.4,366.7c0-13.7,9.4-35.2,34.3-47.7l3.3,5.4
	c-17,12-21.5,26.7-21.8,33.8c6.4,0.7,12.7,6.8,12.7,13.5c0,7.6-6.6,13.5-13.5,13.5C428.3,384.9,421.4,378.6,421.4,366.7L421.4,366.7
	z"/>
</svg>
