<?xml version="1.0" encoding="utf-8"?>
<!-- Generator: Adobe Illustrator 18.1.0, SVG Export Plug-In . SVG Version: 6.00 Build 0)  -->
<svg version="1.1" id="Layer_1" xmlns="http://www.w3.org/2000/svg" xmlns:xlink="http://www.w3.org/1999/xlink" x="0px" y="0px"
	 viewBox="377 319 480 612" enable-background="new 377 319 480 612" xml:space="preserve">
<g>
	<path fill="#FFFFFF" d="M479.3,915.3c-0.3,1.4-1.1,2.5-2.4,2.5c-1.6,0-2.5-2.4-3.9-2.4c-0.8,0-1.4,0.6-1.6,1.9l-0.8-0.8
		c0.2-1.3,1.1-2.5,2.4-2.5c1.7,0,2.8,2.4,4.1,2.4c0.9,0,1.3-0.8,1.6-1.9L479.3,915.3z M501.8,909.1c-1.4-1.4-3-2.2-4.9-2.2
		c-3.9,0-6.8,2.8-6.8,7.9c0,5,3,7.9,6.6,7.9c1.9,0,3.6-0.6,4.7-1.6v-5.2h-5.5v-1.6h7.2v7.9c-1.4,1.3-4.1,2.2-6.6,2.2
		c-4.7,0-8.3-3.6-8.3-9.4c0-6,3.8-9.6,8.3-9.6c2.5,0,4.4,0.9,6,2.5L501.8,909.1L501.8,909.1z M508.2,917.6c0.2,3.1,1.6,5.3,4.9,5.3
		c1.7,0,3-0.8,4.1-1.7l0.8,1.4c-1.3,1.1-3,1.9-5,1.9c-4.6,0-6.5-3.1-6.5-7.6s2.4-7.6,6.3-7.6c3.8,0,5.3,2.7,5.3,5.8
		c0,0.8-0.2,1.6-0.3,2.4H508.2L508.2,917.6z M516.4,916.2c0-0.3,0.2-0.6,0.2-1.1c0-2.2-1.3-4.1-3.8-4.1c-2.8,0-4.4,2.2-4.6,5.2
		L516.4,916.2L516.4,916.2L516.4,916.2z M527.6,909.4c3.9,0,6.4,2.8,6.4,7.6c0,4.6-2.7,7.6-6.4,7.6s-6.5-2.8-6.5-7.6
		C521.1,912.4,523.6,909.4,527.6,909.4z M527.6,922.8c2.8,0,4.7-2.2,4.7-5.8s-1.9-5.8-4.7-5.8c-2.8,0-4.7,2.2-4.7,5.8
		C522.8,920.6,524.7,922.8,527.6,922.8z M537.8,924.1v-14.3h1.7v2.5c0.6-1.9,1.7-2.8,3.5-2.8c0.9,0,1.7,0.3,2.4,0.8l-0.5,1.6
		c-0.6-0.5-1.3-0.8-2-0.8c-1.7,0-2.7,1.4-3.3,3.6v9.3h-1.7V924.1z M552.9,909.6c1.7,0,3.1,0.8,4.1,1.9v-1.6h1.7v13.7
		c0,4.2-2.5,6-5.5,6c-2.5,0-3.9-0.9-4.7-1.4l0.5-1.6c0.8,0.5,2.2,1.6,4.1,1.6c2.2,0,3.9-1.1,3.9-4.2v-2.2c-0.9,1.1-2.4,1.9-4.1,1.9
		c-3.5,0-5.8-2.8-5.8-6.8C547.1,912.4,549.4,909.6,552.9,909.6L552.9,909.6z M553.4,921.7c1.6,0,2.8-0.9,3.6-1.9v-6.6
		c-0.8-0.9-1.9-1.9-3.6-1.9c-2.8,0-4.6,2-4.6,5.2C548.8,919.7,550.7,921.7,553.4,921.7L553.4,921.7z M564.2,917.6
		c0.2,3.1,1.6,5.3,4.9,5.3c1.7,0,3-0.8,4.1-1.7l0.8,1.4c-1.3,1.1-3,1.9-5,1.9c-4.6,0-6.5-3.1-6.5-7.6s2.4-7.6,6.3-7.6
		c3.8,0,5.3,2.7,5.3,5.8c0,0.8-0.2,1.6-0.3,2.4H564.2L564.2,917.6z M572.6,916.2c0-0.3,0.2-0.6,0.2-1.1c0-2.2-1.3-4.1-3.8-4.1
		c-2.8,0-4.4,2.2-4.6,5.2L572.6,916.2L572.6,916.2L572.6,916.2z M583.9,905.7h5.7c3.3,0,5.2,1.6,5.2,4.7c0,2.2-1.1,3.5-2.8,4.1
		c2.5,0.5,4.1,1.9,4.1,4.7c0,3-1.9,4.9-5.3,4.9h-6.8L583.9,905.7L583.9,905.7L583.9,905.7z M585.6,913.9h3.6c2.4,0,3.8-1.1,3.8-3.3
		c0-2.4-1.3-3.3-3.6-3.3h-3.8V913.9L585.6,913.9z M585.6,922.5h4.9c2.5,0,3.8-1.3,3.8-3.5c0-2.5-1.6-3.6-4.2-3.6h-4.2v7.1H585.6
		L585.6,922.5z M607.6,924.1v-1.6c-0.9,0.9-2.4,1.7-4.4,1.7c-2.8,0-4.6-1.7-4.6-4.4c0-3.5,2.8-5,6.5-5c0.8,0,1.7,0.2,2.5,0.3v-0.6
		c0-2.4-1.3-3.5-3.5-3.5c-1.4,0-2.8,0.3-3.9,0.9l-0.3-1.6c1.3-0.6,3.1-0.9,4.6-0.9c3.1,0,4.9,1.7,4.9,5.2v9.4L607.6,924.1
		L607.6,924.1z M603.9,923c1.9,0,3.1-0.9,3.8-1.7v-4.4c-0.5-0.2-1.6-0.3-2.4-0.3c-2.7,0-4.7,1.1-4.7,3.5
		C600.6,921.9,601.8,923,603.9,923L603.9,923z M615.7,904.7v16.2c0,1.4,0.5,1.9,1.3,1.9c0.6,0,1.1-0.3,1.6-0.6l0.2,1.4
		c-0.5,0.3-1.4,0.8-2.4,0.8c-1.6,0-2.5-0.8-2.5-3v-16.7L615.7,904.7L615.7,904.7z M629.4,924.1v-1.6c-0.9,0.9-2.4,1.7-4.4,1.7
		c-2.8,0-4.6-1.7-4.6-4.4c0-3.5,2.8-5,6.5-5c0.8,0,1.7,0.2,2.5,0.3v-0.6c0-2.4-1.3-3.5-3.5-3.5c-1.4,0-2.8,0.3-3.9,0.9l-0.3-1.6
		c1.3-0.6,3.1-0.9,4.6-0.9c3.1,0,4.9,1.7,4.9,5.2v9.4L629.4,924.1L629.4,924.1z M625.4,923c1.9,0,3.1-0.9,3.8-1.7v-4.4
		c-0.5-0.2-1.6-0.3-2.4-0.3c-2.7,0-4.7,1.1-4.7,3.5C622.3,921.9,623.5,923,625.4,923L625.4,923z M645.1,924.1v-8.7
		c0-2.7-1.1-4.2-3.6-4.2c-2.2,0-3.6,1.6-4.1,3.3v9.4h-1.7v-14.3h1.7v2.4c0.9-1.6,2.5-2.7,4.7-2.7c3.1,0,4.7,2,4.7,5.7v9h-1.7
		L645.1,924.1L645.1,924.1z M656.9,922.8c1.7,0,2.8-0.6,3.8-1.7l0.9,1.3c-1.1,1.3-2.5,2-4.6,2c-3.8,0-6.5-3-6.5-7.6s2.5-7.6,6.5-7.6
		c2,0,3.5,0.8,4.6,2l-0.9,1.3c-0.9-1.1-2-1.7-3.8-1.7c-2.8,0-4.6,2.2-4.6,5.8C652.2,920.6,654.1,922.8,656.9,922.8z M674.7,924.1
		v-8.7c0-2.7-1.1-4.2-3.6-4.2c-2.2,0-3.6,1.6-4.1,3.3v9.4h-1.7v-19.4h1.7v7.6c0.9-1.6,2.5-2.7,4.7-2.7c3.1,0,4.7,2,4.7,5.7v9
		L674.7,924.1L674.7,924.1z M681.7,904.7c0.6,0,1.1,0.3,1.1,1.1c0,0.8-0.5,1.1-1.1,1.1c-0.8,0-1.3-0.3-1.3-1.1
		C680.5,905,681,904.7,681.7,904.7z M680.8,924.1v-14.3h1.7v14.3H680.8z M696.7,924.1v-8.7c0-2.7-1.1-4.2-3.6-4.2
		c-2.2,0-3.6,1.6-4.1,3.3v9.4h-1.7v-14.3h1.7v2.4c0.9-1.6,2.5-2.7,4.7-2.7c3.1,0,4.7,2,4.7,5.7v9h-1.7L696.7,924.1L696.7,924.1z
		 M703.8,917.6c0.2,3.1,1.6,5.3,4.9,5.3c1.7,0,3-0.8,4.1-1.7l0.8,1.4c-1.3,1.1-3,1.9-5,1.9c-4.6,0-6.5-3.1-6.5-7.6s2.4-7.6,6.3-7.6
		c3.8,0,5.3,2.7,5.3,5.8c0,0.8-0.2,1.6-0.3,2.4H703.8L703.8,917.6z M711.9,916.2c0-0.3,0.2-0.6,0.2-1.1c0-2.2-1.3-4.1-3.8-4.1
		c-2.8,0-4.4,2.2-4.6,5.2L711.9,916.2L711.9,916.2L711.9,916.2z"/>
</g>
<path fill="#333333" d="M727.8,832.2c15.4-10.9,19.5-24.2,19.8-30.7c-5.8-0.6-11.5-6.1-11.5-12.3c0-6.9,6-12.3,12.3-12.3
	c7.4,0,13.5,5.8,13.5,16.5c0,12.4-8.5,31.9-31.2,43.3L727.8,832.2L727.8,832.2z M768.1,832.2c15.4-10.9,19.5-24.2,19.8-30.7
	c-5.8-0.6-11.5-6.1-11.5-12.3c0-6.9,6-12.3,12.3-12.3c7.4,0,13.5,5.8,13.5,16.5c0,12.4-8.5,31.9-31.2,43.3L768.1,832.2L768.1,832.2z
	"/>
<g>
	<path fill="#FFFFFF" d="M484.6,422h5.3l0,0.2h-21.1l0-0.2h5.3l5.2-42.6h-5.3l0-0.2h21.1l0,0.2h-5.3L484.6,422z M526.3,377.7h-4.9
		l0-0.2h14.8l-5.5,44.5h4.9l0,0.2h-14.8l0.7-5.7c-1.8,4.6-4.7,6.5-8.2,6.5c-5.8,0-11-6.8-9.8-16.2c1.1-9.3,8-16.2,13.8-16.2
		c3.3,0,5.9,1.9,6.6,6.5C523.9,397,526.3,377.7,526.3,377.7z M523.8,397.7c-0.4-3.5-2.1-6.1-4.1-6.1c-2.8,0-4.3,3-5.4,11.8l-0.8,6.9
		c-1.1,9-0.5,11.8,2.5,11.8c2.2,0,4.4-2.5,5.6-6.1L523.8,397.7L523.8,397.7z M551.2,423c-7.9,0-14.5-7.6-13.4-16.2
		c1.1-8.7,9.5-16.2,17.4-16.2c7.9,0,14.5,7.6,13.4,16.2C567.4,415.4,558.9,423,551.2,423z M555.2,390.9c-4.7,0-5.8,7.2-6.8,16
		c-1.1,8.8-1.8,16,2.9,16s5.9-7.2,7-16C559.3,398.1,559.9,390.9,555.2,390.9L555.2,390.9z M604,422.2h-17.6l0-0.2h2.8l3-24.1
		c0.6-4.6,0.1-6.3-1.7-6.3c-2.2,0-4.4,2.5-5.6,6.1l-3,24.4h2.8l0,0.2H567l0-0.2h4.9l3.7-30.5h-4.9l0-0.2h14.8l-0.7,5.7
		c1.8-4.6,4.7-6.5,8.2-6.5c6.9,0,9.3,5,8.5,11.3l-2.5,20.1L604,422.2L604,422.2L604,422.2z M610,400.5c0.8-6.8-2.6-13.1-2-17.9
		c0.3-2.4,2.3-4.2,4.8-4.2c2.5,0,4,1.9,3.7,4.2C615.8,387.4,610.8,393.9,610,400.5z M630.9,391.7l-3.2,26.4c-0.2,1.7,0.3,3,1.8,3
		c1.9,0,2.6-2.2,2.9-4.2l0.8-6.8h0.2l-0.9,6.9c-0.4,3.6-2.1,6-6.6,6c-5.8,0-8.2-3.9-7.5-9.8l2.6-21.6h-4.9l0-0.2h1.6
		c7.2,0,13.5-4.6,14.5-12.9h0.2L630.9,391.7l6.2-0.2l0,0.2H630.9L630.9,391.7z M696.5,391.7h-4.9l-13.8,31.6l-6.5-22.5l-9.8,22.3
		l-9.2-31.6h-4.9l0-0.2h35.9l0,0.2h-3.9l4.9,16.2l7-16.2h-4.9l0-0.2h10.1C696.5,391.4,696.5,391.7,696.5,391.7z M667.9,407.9
		l3.1-7.2l-2.5-9H663L667.9,407.9z M697,397.8c0.9-2.2,3.3-3.9,5.5-3.9c2.8,0,4.9,2.4,4.6,5.2s-3,5.2-5.8,5.2
		c-3.5,0-4.9-2.7-4.5-5.7c0.1-0.5,0.1-0.9,0.5-1.9c2.3-4.4,7.7-6.1,11.1-6.1c9.1,0,13.8,4.4,13,10.9l-2,16.2
		c-0.3,2.5,0.3,3.6,1.9,3.6c0.6,0,1.1-0.2,1.5-0.5c0.9-0.8,1.4-2,1.4-2.5h0.2c-0.7,2.2-2.3,4.6-6.1,4.6c-5.2,0-8.4-3.3-8.5-6.8
		c-0.6,2.5-3,6.8-9.5,6.8c-5.2,0-7.9-3.3-7.4-7.9c0.6-4.9,4.8-8,8.9-8.8c3.2-0.6,3.5-0.2,5.3-0.6c1.5-0.3,2.7-1.7,4-3.1l0.8-6.3
		c0.4-3.6-1.1-5.2-4.6-5.2C703.5,391.1,698.5,393.7,697,397.8L697,397.8z M711.5,402.9c-1.5,1.9-2.5,2.5-4,3.3c-2,1.1-3.6,2.7-4,5.7
		l-0.7,5.5c-0.4,3-0.3,4.7,1.5,4.7c2.8,0,5.3-3.6,5.6-5.8L711.5,402.9z M761.8,422.2h-17.6l0-0.2h2.8l3-24.1
		c0.6-4.6,0.1-6.3-1.7-6.3c-2.2,0-4.4,2.5-5.6,6.1l-3,24.4h2.8l0,0.2h-17.6l0-0.2h4.9l3.7-30.5h-4.9l0-0.2h14.8l-0.7,5.7
		c1.8-4.6,4.7-6.5,8.2-6.5c6.9,0,9.3,5,8.5,11.3l-2.5,20.1L761.8,422.2L761.8,422.2L761.8,422.2z M778.8,391.7l-3.2,26.4
		c-0.2,1.7,0.3,3,1.8,3c1.9,0,2.6-2.2,2.9-4.2l0.8-6.8h0.2l-0.9,6.9c-0.4,3.6-2.1,6-6.6,6c-5.8,0-8.2-3.9-7.5-9.8l2.6-21.6h-4.9
		l0-0.2h1.6c7.2,0,13.5-4.6,14.5-12.9h0.2L778.8,391.7l6.2-0.2l0,0.2H778.8L778.8,391.7z"/>
</g>
<g>
	<path fill="#FFFFFF" d="M482.4,510h4.9l0,0.2h-19.5l0-0.2h4.9l5.5-44.7h-4.9l0-0.2h14.8l-0.7,5.7c1.8-4.6,4.7-6.5,8.2-6.5
		c5.8,0,11,6.8,9.8,16.2c-1.1,9.3-8,16.2-13.8,16.2c-3.3,0-5.9-1.9-6.6-6.4l-2.4,19.7L482.4,510L482.4,510z M484.9,489.7
		c0.4,3.5,2.1,6.1,4.1,6.1c2.8,0,4.3-3,5.4-11.8l0.8-6.8c1.1-9,0.5-11.8-2.5-11.8c-2.2,0-4.4,2.5-5.6,6.1L484.9,489.7L484.9,489.7z
		 M518.5,480.4l-0.2,1.7c-1,8.5-1.3,13.5,5.1,13.5c5.7,0,9.9-3.9,12.3-10.7h0.2c-2.5,7.2-7.2,11.6-15,11.6
		c-7.9,0-13.9-7.6-12.8-16.2c1.1-8.7,8.9-16.2,16.8-16.2c8,0,13.3,7.4,12.2,16h-18.6L518.5,480.4L518.5,480.4z M519,476.3l-0.5,4.1
		h8c1.7-13.7,1.3-15.9-1.7-15.9C520.7,464.5,519.8,469.2,519,476.3z M552.3,496.6c-7.9,0-14.5-7.6-13.4-16.2s9.5-16.2,17.4-16.2
		c7.9,0,14.5,7.6,13.4,16.2S560.2,496.6,552.3,496.6z M556.3,464.5c-4.7,0-5.8,7.2-6.8,16c-1.1,8.8-1.8,16,2.9,16
		c4.7,0,5.9-7.2,7-16C560.4,471.8,561.2,464.5,556.3,464.5L556.3,464.5z M581.4,510h4.9l0,0.2h-19.7l0-0.2h4.9l5.5-44.7h-4.9l0-0.2
		h14.8l-0.7,5.7c1.8-4.6,4.7-6.5,8.2-6.5c5.8,0,11,6.8,9.8,16.2c-1.1,9.3-8,16.2-13.8,16.2c-3.3,0-5.9-1.9-6.6-6.4L581.4,510
		L581.4,510z M583.9,489.7c0.4,3.5,2.1,6.1,4.1,6.1c2.8,0,4.3-3,5.4-11.8l0.8-6.8c1.1-9,0.5-11.8-2.5-11.8c-2.2,0-4.4,2.5-5.6,6.1
		L583.9,489.7L583.9,489.7z M602.9,495.8l4.9-0.2l5.4-44.4h-4.9l0-0.2h14.8l-5.5,44.5h4.9l0,0.2H602.9z M635.2,480.4l-0.2,1.7
		c-1,8.5-1.3,13.5,5.1,13.5c5.7,0,9.9-3.9,12.3-10.7h0.2c-2.5,7.2-7.2,11.6-15,11.6c-7.9,0-13.9-7.6-12.8-16.2
		c1.1-8.7,8.9-16.2,16.8-16.2c8,0,13.3,7.4,12.2,16h-18.6L635.2,480.4L635.2,480.4z M635.7,476.3l-0.5,4.1h8
		c1.7-13.7,1.3-15.9-1.7-15.9C637.5,464.5,636.6,469.2,635.7,476.3L635.7,476.3z M715.2,465.3h-4.9l-13.8,31.6l-6.5-22.3l-9.8,22.3
		l-9.3-31.6H666l0-0.2h36l0,0.2h-3.9l4.9,16.2l7-16.2h-5l0-0.2h10.1l0,0.2H715.2L715.2,465.3z M686.7,481.5l3.1-7.2l-2.5-9h-5.5
		L686.7,481.5z M747.5,495.8h-17.6l0-0.2h2.8l3-24.1c0.6-4.6,0.1-6.3-1.7-6.3c-2.2,0-4.4,2.5-5.6,6.1l-3,24.4h2.8l0,0.2h-17.6l0-0.2
		h4.9l5.5-44.5H716l0-0.2h14.8l-2.4,19.7c1.8-4.6,4.7-6.5,8.2-6.5c6.9,0,9.3,5,8.5,11.3l-2.5,20.1L747.5,495.8L747.5,495.8
		L747.5,495.8z M763,496.6c-7.9,0-14.5-7.6-13.4-16.2s9.5-16.2,17.4-16.2c7.9,0,14.5,7.6,13.4,16.2S770.7,496.6,763,496.6z
		 M766.9,464.5c-4.7,0-5.8,7.2-6.8,16c-1.1,8.8-1.8,16,2.9,16c4.7,0,5.9-7.2,7-16C771.1,471.8,771.7,464.5,766.9,464.5z"/>
</g>
<g>
	<path fill="#FFFFFF" d="M521.4,538.9h-4.9l-13.8,31.6l-6.5-22.3l-9.8,22.3l-9.2-31.6h-4.9l0-0.2h36l0,0.2h-3.9l4.9,16.2l7-16.2h-5
		l0-0.2h10.1L521.4,538.9L521.4,538.9z M492.8,555.1l3.1-7.2l-2.5-9h-5.5L492.8,555.1z M521.9,545.1c0.9-2.2,3.3-3.9,5.5-3.9
		c2.8,0,4.9,2.4,4.6,5.2c-0.3,2.8-3,5.2-5.8,5.2c-3.5,0-4.9-2.7-4.5-5.7c0.1-0.5,0.1-0.9,0.5-1.9c2.3-4.4,7.7-6.1,11.1-6.1
		c9.1,0,13.8,4.4,13,10.9l-2,16.2c-0.3,2.5,0.3,3.6,1.9,3.6c0.6,0,1.1-0.2,1.5-0.5c0.9-0.8,1.4-2,1.4-2.5h0.2
		c-0.7,2.2-2.3,4.6-6.1,4.6c-5.2,0-8.4-3.3-8.5-6.8c-0.6,2.5-3,6.8-9.5,6.8c-5.2,0-7.9-3.3-7.4-7.9c0.6-4.9,4.8-8,8.9-8.8
		c3.2-0.6,3.5-0.2,5.3-0.6c1.5-0.3,2.7-1.7,4-3.1l0.8-6.3c0.4-3.6-1.1-5.2-4.6-5.2C528.3,538.3,523.4,541,521.9,545.1z M536.3,550.1
		c-1.5,1.9-2.5,2.5-4,3.3c-2,1.1-3.6,2.7-4,5.7l-0.7,5.5c-0.4,3-0.3,4.7,1.5,4.7c2.8,0,5.3-3.6,5.6-5.8L536.3,550.1L536.3,550.1z
		 M586.7,569.5h-17.6l0-0.2h2.8l3-24.2c0.6-4.6,0.1-6.3-1.7-6.3c-2.2,0-4.4,2.5-5.6,6.1l-3,24.4h2.8l0,0.2h-17.6l0-0.2h4.9l3.7-30.4
		h-4.9l0-0.2h14.8l-0.7,5.7c1.8-4.6,4.7-6.5,8.2-6.5c6.9,0,9.3,5,8.5,11.3l-2.5,20.1L586.7,569.5L586.7,569.5L586.7,569.5z
		 M603.7,538.9l-3.2,26.4c-0.2,1.7,0.3,3,1.8,3c1.9,0,2.6-2.2,2.9-4.2l0.8-6.8h0.2l-0.9,6.9c-0.4,3.6-2.1,6-6.6,6
		c-5.8,0-8.2-3.9-7.5-9.8l2.7-21.7h-4.9l0-0.2h1.6c7.2,0,13.5-4.6,14.5-12.9h0.2L603.7,538.9l6.2-0.2l0,0.2H603.7z M634.9,538.9
		l-3.2,26.4c-0.2,1.7,0.3,3,1.8,3c1.9,0,2.6-2.2,2.9-4.2l0.8-6.8h0.2l-0.9,6.9c-0.4,3.6-2.1,6-6.6,6c-5.8,0-8.2-3.9-7.5-9.8
		l2.7-21.7h-4.9l0-0.2h1.6c7.2,0,13.5-4.6,14.5-12.9h0.2L634.9,538.9l6.2-0.2l0,0.2H634.9z M653.5,570.2c-7.9,0-14.5-7.6-13.4-16.2
		c1.1-8.7,9.5-16.2,17.4-16.2c7.9,0,14.5,7.6,13.4,16.2S661.4,570.2,653.5,570.2z M657.4,538.2c-4.7,0-5.8,7.2-6.8,16
		c-1.1,8.8-1.8,16,2.9,16c4.7,0,5.9-7.2,7-16C661.6,545.4,662.3,538.2,657.4,538.2L657.4,538.2z M705.6,524.9h-4.9l0-0.2h14.8
		l-5.5,44.5h4.9l0,0.2h-14.8l0.7-5.7c-1.8,4.6-4.7,6.5-8.2,6.5c-5.8,0-11-6.8-9.8-16.2c1.1-9.3,8-16.2,13.8-16.2
		c3.3,0,5.9,1.9,6.6,6.5L705.6,524.9L705.6,524.9z M703.2,545.1c-0.4-3.5-2.1-6.1-4.1-6.1c-2.8,0-4.3,3-5.4,11.8l-0.8,6.8
		c-1.1,9-0.5,11.8,2.5,11.8c2.2,0,4.4-2.5,5.6-6.1L703.2,545.1L703.2,545.1z M720.8,545.1c0.9-2.2,3.3-3.9,5.5-3.9
		c2.8,0,4.9,2.4,4.6,5.2c-0.3,2.8-3,5.2-5.8,5.2c-3.5,0-4.9-2.7-4.5-5.7c0.1-0.5,0.1-0.9,0.5-1.9c2.3-4.4,7.7-6.1,11.1-6.1
		c9.1,0,13.8,4.4,13,10.9l-2,16.2c-0.3,2.5,0.3,3.6,1.9,3.6c0.6,0,1.1-0.2,1.5-0.5c0.9-0.8,1.4-2,1.4-2.5h0.2
		c-0.7,2.2-2.3,4.6-6.1,4.6c-5.2,0-8.4-3.3-8.5-6.8c-0.6,2.5-3,6.8-9.5,6.8c-5.2,0-7.9-3.3-7.4-7.9c0.6-4.9,4.8-8,8.9-8.8
		c3.2-0.6,3.5-0.2,5.3-0.6c1.5-0.3,2.7-1.7,4-3.1l0.8-6.3c0.4-3.6-1.1-5.2-4.6-5.2C727.1,538.3,722.2,541,720.8,545.1L720.8,545.1z
		 M735.1,550.1c-1.5,1.9-2.5,2.5-4,3.3c-2,1.1-3.6,2.7-4,5.7l-0.7,5.5c-0.4,3-0.3,4.7,1.5,4.7c2.8,0,5.3-3.6,5.6-5.8L735.1,550.1
		L735.1,550.1z M785.6,569.5H768l0-0.2h2.8l3-24.2c0.6-4.6,0.1-6.3-1.7-6.3c-2.2,0-4.4,2.5-5.6,6.1l-3,24.4h2.8l0,0.2h-17.6l0-0.2
		h4.9l3.7-30.4h-4.9l0-0.2h14.8l-0.7,5.7c1.8-4.6,4.7-6.5,8.2-6.5c6.9,0,9.3,5,8.5,11.3l-2.5,20.1L785.6,569.5L785.6,569.5
		L785.6,569.5z M798.2,554.2c-0.6,5-1.7,15.1,5.2,15.1c5.5,0,9-4.4,10.3-11.8h0.2c-1.2,7.4-4.9,12.7-12.9,12.7
		c-8,0-14.3-6.9-13.1-16.2c1-8.5,8.4-16.2,17.6-16.2c5.7,0,8.2,2.7,8.8,6.1c0.2,0.8,0.1,1.4,0.1,1.9c-0.4,3-2.4,5.7-5.9,5.7
		c-2.8,0-4.9-2.4-4.6-5.2c0.3-2.8,3-5.2,5.8-5.2c2.2,0,4.2,1.7,4.6,3.9c-0.2-3.1-2.3-6.8-7.8-6.8
		C800.8,538.3,799.3,545.4,798.2,554.2L798.2,554.2z M826.4,554l-0.2,1.7c-1,8.5-1.3,13.5,5.1,13.5c5.7,0,9.9-3.9,12.3-10.7h0.2
		c-2.5,7.2-7.3,11.6-15,11.6c-7.9,0-13.9-7.6-12.8-16.2s8.9-16.2,16.8-16.2c8,0,13.2,7.4,12.2,16h-18.6L826.4,554L826.4,554z
		 M826.9,550l-0.5,4.1h8c1.7-13.7,1.3-15.9-1.7-15.9C828.6,538.2,827.7,542.9,826.9,550z M847.7,573.6c5-0.8,7.3-3.3,8.1-7.4
		c-0.7,2.2-3.2,3.9-5.5,3.9c-2.8,0-4.9-2.4-4.6-5.2c0.3-2.8,3-5.2,5.8-5.2c3.5,0,4.9,2.7,4.5,5.7
		C855.6,569.6,853.1,572.9,847.7,573.6z"/>
</g>
<g>
	<path fill="#FFFFFF" d="M485.4,642.9h5.3l0,0.2h-21.1l0-0.2h5.3l5.2-42.6h-5.3l0-0.2H496l0,0.2h-5.3L485.4,642.9L485.4,642.9z
		 M554.5,612.6h-4.9l-13.8,31.6l-6.5-22.3l-9.8,22.3l-9.2-31.6h-4.9l0-0.2h36l0,0.2h-3.9l4.9,16.2l7-16.2h-5l0-0.2h10.1L554.5,612.6
		L554.5,612.6z M525.9,628.8l3.1-7.2l-2.5-9h-5.5L525.9,628.8L525.9,628.8z M555,618.7c0.9-2.2,3.3-3.9,5.5-3.9
		c2.8,0,4.9,2.4,4.6,5.2c-0.3,2.8-3,5.2-5.8,5.2c-3.5,0-4.9-2.7-4.5-5.7c0.1-0.5,0.1-0.9,0.5-1.9c2.3-4.4,7.7-6.1,11.1-6.1
		c9.1,0,13.8,4.4,13,10.9l-2,16.2c-0.3,2.5,0.3,3.6,1.9,3.6c0.6,0,1.1-0.2,1.5-0.5c0.9-0.8,1.4-2,1.4-2.5h0.2
		c-0.7,2.2-2.3,4.6-6.1,4.6c-5.2,0-8.4-3.3-8.5-6.8c-0.6,2.5-3,6.8-9.5,6.8c-5.2,0-7.9-3.3-7.4-7.9c0.6-4.9,4.8-8,8.9-8.8
		c3.2-0.6,3.5-0.2,5.3-0.6c1.5-0.3,2.7-1.7,4-3.1l0.8-6.3c0.4-3.6-1.1-5.2-4.6-5.2C561.5,611.9,556.4,614.8,555,618.7L555,618.7z
		 M569.5,623.7c-1.5,1.9-2.5,2.5-4,3.3c-2,1.1-3.6,2.7-4,5.7l-0.7,5.5c-0.4,3-0.3,4.7,1.5,4.7c2.8,0,5.3-3.6,5.6-5.8L569.5,623.7
		L569.5,623.7z M619.8,643.1h-17.6l0-0.2h2.8l3-24.2c0.6-4.6,0.1-6.3-1.7-6.3c-2.2,0-4.4,2.5-5.6,6.1l-3,24.4h2.8l0,0.2h-17.6l0-0.2
		h4.9l3.7-30.4h-4.9l0-0.2h14.8l-0.7,5.7c1.8-4.6,4.7-6.5,8.2-6.5c6.9,0,9.3,5,8.5,11.3l-2.5,20.1L619.8,643.1L619.8,643.1
		L619.8,643.1z M636.7,612.6l-3.2,26.4c-0.2,1.7,0.3,3,1.8,3c1.9,0,2.6-2.2,2.9-4.2l0.8-6.8h0.2l-0.9,6.9c-0.4,3.6-2.1,6-6.6,6
		c-5.8,0-8.2-3.9-7.5-9.8l2.7-21.7h-4.9l0-0.2h1.6c7.2,0,13.5-4.6,14.5-12.9h0.2L636.7,612.6l6.2-0.2l0,0.2H636.7L636.7,612.6z
		 M662.9,657.3h4.9l0,0.2h-19.7l0-0.2h4.9l5.5-44.7h-4.9l0-0.2h14.8l-0.7,5.7c1.8-4.6,4.7-6.5,8.2-6.5c5.8,0,11,6.8,9.8,16.2
		c-1.1,9.3-8,16.2-13.8,16.2c-3.3,0-5.9-1.9-6.6-6.5L662.9,657.3L662.9,657.3z M665.4,637c0.4,3.5,2.1,6.1,4.1,6.1
		c2.8,0,4.3-3,5.4-11.8l0.8-6.8c1.1-9,0.5-11.8-2.5-11.8c-2.2,0-4.4,2.5-5.6,6.1L665.4,637L665.4,637z M698.8,627.7l-0.2,1.7
		c-1,8.5-1.3,13.5,5.1,13.5c5.7,0,9.9-3.9,12.3-10.7h0.2c-2.5,7.2-7.2,11.6-15,11.6c-7.9,0-13.9-7.6-12.8-16.2
		c1.1-8.7,8.9-16.2,16.8-16.2c8,0,13.3,7.4,12.2,16h-18.6L698.8,627.7L698.8,627.7z M699.3,623.6l-0.5,4.1h8
		c1.7-13.7,1.3-15.9-1.7-15.9C701,611.8,700.1,616.5,699.3,623.6z M732.6,643.9c-7.9,0-14.5-7.6-13.4-16.2
		c1.1-8.7,9.5-16.2,17.4-16.2c7.9,0,14.5,7.6,13.4,16.2C749,636.3,740.5,643.9,732.6,643.9z M736.6,611.8c-4.7,0-5.8,7.2-6.8,16
		c-1.1,8.8-1.8,16,2.9,16s5.9-7.2,7-16C740.7,619,741.5,611.8,736.6,611.8z M761.7,657.3h4.9l0,0.2h-19.7l0-0.2h4.9l5.5-44.7h-4.9
		l0-0.2h14.8l-0.7,5.7c1.8-4.6,4.7-6.5,8.2-6.5c5.8,0,11,6.8,9.8,16.2c-1.1,9.3-8,16.2-13.8,16.2c-3.3,0-5.9-1.9-6.6-6.5
		L761.7,657.3L761.7,657.3z M764.2,637c0.4,3.5,2.1,6.1,4.1,6.1c2.8,0,4.3-3,5.4-11.8l0.8-6.8c1.1-9,0.5-11.8-2.5-11.8
		c-2.2,0-4.4,2.5-5.6,6.1L764.2,637L764.2,637z M783.2,643.1l4.9-0.2l5.4-44.4h-4.9l0-0.2h14.8l-5.5,44.5h4.9l0,0.2H783.2
		L783.2,643.1z M815.5,627.7l-0.2,1.7c-1,8.5-1.3,13.5,5.1,13.5c5.7,0,9.9-3.9,12.3-10.7h0.2c-2.5,7.2-7.3,11.6-15,11.6
		c-7.9,0-13.9-7.6-12.8-16.2c1.1-8.7,8.9-16.2,16.8-16.2c8,0,13.3,7.4,12.2,16h-18.6L815.5,627.7L815.5,627.7z M816,623.6l-0.5,4.1
		h8c1.7-13.7,1.3-15.9-1.7-15.9C817.8,611.8,816.9,616.5,816,623.6L816,623.6z"/>
</g>
<g>
	<path fill="#FFFFFF" d="M521.2,686.2h-4.9l-13.8,31.6l-6.5-22.3l-9.8,22.3l-9.2-31.6h-4.9l0-0.2h36l0,0.2h-3.9l4.9,16.2l7-16.2h-5
		l0-0.2h10.1L521.2,686.2L521.2,686.2z M492.7,702.4l3.1-7.2l-2.5-9h-5.5L492.7,702.4L492.7,702.4z M553.7,716.7h-17.6l0-0.2h2.8
		l3-24.2c0.6-4.6,0.1-6.3-1.7-6.3c-2.2,0-4.4,2.5-5.6,6.1l-3,24.4h2.8l0,0.2h-17.6l0-0.2h4.9l5.4-44.4h-4.9l0-0.2H537l-2.4,19.7
		c1.8-4.6,4.7-6.4,8.2-6.4c6.9,0,9.3,5,8.5,11.3l-2.5,20.1L553.7,716.7L553.7,716.7L553.7,716.7z M569,717.5
		c-7.9,0-14.5-7.6-13.4-16.2c1.1-8.7,9.5-16.2,17.4-16.2c7.9,0,14.5,7.6,13.4,16.2C585.3,710,576.9,717.5,569,717.5z M572.9,685.4
		c-4.7,0-5.8,7.2-6.8,16c-1.1,8.8-1.8,16,2.9,16c4.7,0,5.9-7.2,7-16C577.1,692.7,577.8,685.4,572.9,685.4L572.9,685.4z M633,716.7
		h-17.6l0-0.2h2.8l3-24.2c0.6-4.6,0.1-6.3-1.7-6.3c-2.2,0-4.4,2.5-5.6,6.1l-3,24.4h2.8l0,0.2h-17.5l0-0.2h4.9l5.4-44.4h-4.9l0-0.2
		h14.8l-2.4,19.7c1.8-4.6,4.7-6.4,8.2-6.4c6.9,0,9.3,5,8.5,11.3l-2.5,20.1L633,716.7L633,716.7L633,716.7z M638.8,692.3
		c0.9-2.2,3.3-3.9,5.5-3.9c2.8,0,4.9,2.4,4.6,5.2c-0.3,2.8-3,5.2-5.8,5.2c-3.5,0-4.9-2.7-4.5-5.7c0.1-0.5,0.1-0.9,0.5-1.9
		c2.3-4.4,7.7-6.1,11.1-6.1c9.1,0,13.8,4.4,13,10.9l-2,16.4c-0.3,2.5,0.3,3.6,1.9,3.6c0.6,0,1.1-0.2,1.5-0.5c0.9-0.8,1.4-2,1.4-2.5
		h0.2c-0.7,2.2-2.3,4.6-6.1,4.6c-5.2,0-8.4-3.3-8.5-6.8c-0.6,2.5-3,6.8-9.5,6.8c-5.2,0-7.9-3.3-7.4-7.9c0.6-4.9,4.8-8,8.9-8.8
		c3.2-0.6,3.5-0.2,5.3-0.6c1.5-0.3,2.7-1.7,4-3.1l0.8-6.3c0.4-3.6-1.1-5.2-4.6-5.2C645.1,685.6,640.2,688.4,638.8,692.3L638.8,692.3
		z M653.3,697.4c-1.5,1.9-2.5,2.5-4,3.3c-2,1.1-3.6,2.7-4,5.7l-0.7,5.5c-0.4,3-0.3,4.7,1.5,4.7c2.8,0,5.3-3.6,5.6-5.8L653.3,697.4z
		 M698.1,686.2h-4.9l-13.8,31.6l-9.2-31.6h-4.9l0-0.2h19.5l0,0.2h-3.9l4.9,16.2l7-16.2H688l0-0.2L698.1,686.2L698.1,686.2z
		 M704.9,701.3l-0.2,1.7c-1,8.5-1.3,13.5,5.1,13.5c5.7,0,9.9-3.9,12.3-10.7h0.2c-2.5,7.2-7.3,11.6-15,11.6
		c-7.9,0-13.9-7.6-12.8-16.2c1.1-8.7,8.9-16.2,16.8-16.2c8,0,13.2,7.4,12.2,16h-18.6L704.9,701.3L704.9,701.3z M705.4,697.2
		l-0.5,4.1h8c1.7-13.7,1.3-15.9-1.7-15.9C707,685.4,706.2,690.1,705.4,697.2L705.4,697.2z"/>
</g>
<g>
	<path fill="#FFFFFF" d="M486.8,759.8l-3.2,26.4c-0.2,1.7,0.3,3,1.8,3c1.9,0,2.6-2.2,2.9-4.2l0.8-6.8l-0.9,6.9c-0.4,3.6-2.1,6-6.6,6
		c-5.8,0-8.2-3.9-7.5-9.8l2.7-21.7H472l0-0.2h1.6c7.2,0,13.5-4.6,14.5-12.9h0.2l-1.6,13.2l6.2-0.2l0,0.2L486.8,759.8L486.8,759.8z
		 M505.6,791.1c-7.9,0-14.5-7.6-13.4-16.2c1.1-8.7,9.5-16.2,17.4-16.2c7.9,0,14.5,7.6,13.4,16.2
		C521.9,783.6,513.3,791.1,505.6,791.1z M509.5,759c-4.7,0-5.8,7.2-6.8,16c-1.1,8.8-1.8,16,2.9,16s5.9-7.2,7-16
		C513.7,766.3,514.2,759,509.5,759L509.5,759z M557.7,745.8h-4.9l0-0.2h14.8l-5.5,44.5h4.9l0,0.2h-14.8l0.7-5.7
		c-1.8,4.6-4.7,6.5-8.2,6.5c-5.8,0-11-6.8-9.8-16.2c1.1-9.3,8-16.2,13.8-16.2c3.3,0,5.9,1.9,6.6,6.5L557.7,745.8L557.7,745.8z
		 M555.2,766c-0.4-3.5-2.1-6.1-4.1-6.1c-2.8,0-4.3,3-5.4,11.8l-0.8,6.8c-1.1,9-0.5,11.8,2.5,11.8c2.2,0,4.4-2.5,5.6-6.1L555.2,766
		L555.2,766z M572.7,766.1c0.9-2.2,3.3-3.9,5.5-3.9c2.8,0,4.9,2.4,4.6,5.2c-0.3,2.8-3,5.2-5.8,5.2c-3.5,0-4.9-2.7-4.5-5.7
		c0.1-0.5,0.1-0.9,0.5-1.9c2.3-4.4,7.7-6.1,11.1-6.1c9.1,0,13.8,4.4,13,10.9l-2,16.2c-0.3,2.5,0.3,3.6,1.9,3.6
		c0.6,0,1.1-0.2,1.5-0.5c0.9-0.8,1.4-2,1.4-2.5h0.2c-0.7,2.2-2.3,4.6-6.1,4.6c-5.2,0-8.4-3.3-8.5-6.8c-0.6,2.5-3,6.8-9.5,6.8
		c-5.2,0-7.9-3.3-7.4-7.9c0.6-4.9,4.8-8,8.9-8.8c3.2-0.6,3.5-0.2,5.3-0.6c1.5-0.3,2.7-1.7,4-3.1l0.8-6.3c0.4-3.6-1.1-5.2-4.6-5.2
		C579.2,759.2,574.1,762,572.7,766.1L572.7,766.1z M587.2,771c-1.5,1.9-2.5,2.5-4,3.3c-2,1.1-3.6,2.7-4,5.7l-0.7,5.5
		c-0.4,3-0.3,4.7,1.5,4.7c2.8,0,5.3-3.6,5.6-5.8L587.2,771L587.2,771z M637.5,790.4h-17.6l0-0.2h2.8l3-24.2c0.6-4.6,0.1-6.3-1.7-6.3
		c-2.2,0-4.4,2.5-5.6,6.1l-3,24.4h2.8l0,0.2h-17.6l0-0.2h4.9l3.7-30.4h-4.9l0-0.2h14.8l-0.7,5.7c1.8-4.6,4.7-6.5,8.2-6.5
		c6.9,0,9.3,5,8.5,11.3l-2.5,20.1L637.5,790.4L637.5,790.4L637.5,790.4z M650.2,775.2c-0.6,5-1.7,15.1,5.2,15.1
		c5.5,0,9-4.4,10.3-11.8h0.2c-1.2,7.4-4.9,12.7-12.9,12.7c-8,0-14.3-6.9-13.1-16.2c1-8.5,8.4-16.2,17.6-16.2c5.7,0,8.2,2.7,8.8,6.1
		c0.2,0.8,0.1,1.4,0.1,1.9c-0.4,3-2.4,5.7-5.9,5.7c-2.8,0-4.9-2.4-4.6-5.2s3-5.2,5.8-5.2c2.2,0,4.2,1.7,4.6,3.9
		c-0.2-3.1-2.3-6.8-7.8-6.8C652.7,759.2,651.3,766.3,650.2,775.2L650.2,775.2z M678.4,774.9l-0.2,1.7c-1,8.5-1.3,13.5,5.1,13.5
		c5.7,0,9.9-3.9,12.3-10.7h0.2c-2.5,7.2-7.2,11.6-15,11.6c-7.9,0-13.9-7.6-12.8-16.2c1.1-8.7,8.9-16.2,16.8-16.2
		c8,0,13.3,7.4,12.2,16h-18.6L678.4,774.9z M678.9,770.8l-0.5,4.1h8c1.7-13.7,1.3-15.9-1.7-15.9C680.7,759,679.8,763.8,678.9,770.8z
		 M703.1,780.6c2.8,0,4.9,2.4,4.6,5.2c-0.3,2.8-3,5.2-5.8,5.2c-2.8,0-4.9-2.4-4.6-5.2C697.6,783,700.2,780.6,703.1,780.6z"/>
</g>
<path fill="#333333" d="M377,362.3c0-12.4,8.5-31.9,31.2-43.3l3,4.9c-15.4,10.7-19.7,24.1-19.8,30.5c5.8,0.6,11.5,6.1,11.5,12.3
	c0,6.9-6,12.3-12.3,12.3C383.3,378.8,377,373.1,377,362.3L377,362.3z M417.3,362.3c0-12.4,8.5-31.9,31.2-43.3l3,4.9
	c-15.4,10.9-19.5,24.2-19.8,30.7c5.8,0.6,11.5,6.1,11.5,12.3c0,6.9-6,12.3-12.3,12.3C423.6,378.8,417.3,373.1,417.3,362.3z"/>
</svg>
