<?xml version="1.0" encoding="utf-8"?>
<!-- Generator: Adobe Illustrator 18.1.0, SVG Export Plug-In . SVG Version: 6.00 Build 0)  -->
<svg version="1.1" id="Layer_1" xmlns="http://www.w3.org/2000/svg" xmlns:xlink="http://www.w3.org/1999/xlink" x="0px" y="0px"
	 viewBox="377 319 490 612" enable-background="new 377 319 490 612" xml:space="preserve">
<g>
	<path fill="#FFFFFF" d="M491,920.5c-0.4,1.6-1.2,2.8-2.6,2.8c-1.8,0-2.8-2.6-4.4-2.6c-0.9,0-1.6,0.7-1.8,2.1l-0.9-0.9
		c0.2-1.4,1.2-2.8,2.6-2.8c1.9,0,3.2,2.6,4.6,2.6c1.1,0,1.4-0.9,1.8-2.1L491,920.5L491,920.5z M519,913.1l-7.2,10.5h-0.5l-7.2-10.5
		v17.4h-1.9v-20.7h1.9l7.5,10.9l7.5-10.9h1.9v20.7H519L519,913.1L519,913.1z M535.2,930.3v-1.8c-1.1,1.1-2.6,1.9-4.9,1.9
		c-3.2,0-5.1-1.9-5.1-4.9c0-3.9,3.2-5.6,7.2-5.6c0.9,0,1.9,0.2,2.8,0.4v-0.7c0-2.6-1.4-3.9-3.9-3.9c-1.6,0-3.2,0.4-4.4,1.1l-0.4-1.8
		c1.4-0.7,3.5-1.1,5.1-1.1c3.5,0,5.4,1.9,5.4,5.8v10.5L535.2,930.3L535.2,930.3z M530.8,929.1c2.1,0,3.5-1.1,4.2-1.9v-4.9
		c-0.5-0.2-1.8-0.4-2.6-0.4c-3,0-5.3,1.2-5.3,3.9C527.3,927.8,528.7,929.1,530.8,929.1L530.8,929.1z M545,926.1
		c0,2.1,0.9,2.8,2.5,2.8c1.1,0,2.5-0.5,3.2-1.2l0.5,1.6c-1.2,0.9-2.5,1.4-4.2,1.4c-2.5,0-4-1.2-4-4.4v-10.2h-2.6v-1.6h2.8l0.2-4h1.6
		v4h5.6v1.6h-5.6v10L545,926.1L545,926.1z M563.2,930.3v-1.8c-1.1,1.1-2.6,1.9-4.9,1.9c-3.2,0-5.1-1.9-5.1-4.9
		c0-3.9,3.2-5.6,7.2-5.6c0.9,0,1.9,0.2,2.8,0.4v-0.7c0-2.6-1.4-3.9-3.9-3.9c-1.6,0-3.2,0.4-4.4,1.1l-0.4-1.8
		c1.4-0.7,3.5-1.1,5.1-1.1c3.5,0,5.4,1.9,5.4,5.8v10.5L563.2,930.3L563.2,930.3z M558.8,929.1c2.1,0,3.5-1.1,4.2-1.9v-4.9
		c-0.5-0.2-1.8-0.4-2.6-0.4c-3,0-5.3,1.2-5.3,3.9C555.3,927.8,556.7,929.1,558.8,929.1L558.8,929.1z M590.6,920.8h-11.9v9.5h-1.9
		v-20.7h1.9v9.5h12.1v-9.5h1.9v20.7h-1.9v-9.5H590.6z M606.7,930.3v-1.8c-1.1,1.1-2.6,1.9-4.9,1.9c-3.2,0-5.1-1.9-5.1-4.9
		c0-3.9,3.2-5.6,7.2-5.6c0.9,0,1.9,0.2,2.8,0.4v-0.7c0-2.6-1.4-3.9-3.9-3.9c-1.6,0-3.2,0.4-4.4,1.1l-0.4-1.8
		c1.4-0.7,3.5-1.1,5.1-1.1c3.5,0,5.4,1.9,5.4,5.8v10.5L606.7,930.3L606.7,930.3z M602.5,929.1c2.1,0,3.5-1.1,4.2-1.9v-4.9
		c-0.5-0.2-1.8-0.4-2.6-0.4c-3,0-5.3,1.2-5.3,3.9C598.8,927.8,600.4,929.1,602.5,929.1L602.5,929.1z M613.7,930.3v-16h1.9v2.8
		c0.7-2.1,1.9-3.2,3.9-3.2c1.1,0,1.9,0.4,2.6,0.9l-0.5,1.8c-0.7-0.5-1.4-0.9-2.3-0.9c-1.9,0-3,1.6-3.7,4v10.3h-1.9V930.3
		L613.7,930.3z M626.4,908.7c0.7,0,1.2,0.4,1.2,1.2s-0.5,1.2-1.2,1.2c-0.9,0-1.4-0.4-1.4-1.2S625.5,908.7,626.4,908.7z M625.3,930.3
		v-16h1.9v16H625.3z"/>
</g>
<path fill="#333333" d="M783.8,815.6c17.2-12.1,21.7-27,22.1-34.2c-6.5-0.7-12.8-6.8-12.8-13.7c0-7.7,6.7-13.7,13.7-13.7
	c8.2,0,15.1,6.5,15.1,18.4c0,13.9-9.5,35.6-34.7,48.2L783.8,815.6L783.8,815.6z M828.7,815.6c17.2-12.1,21.7-27,22.1-34.2
	c-6.5-0.7-12.8-6.8-12.8-13.7c0-7.7,6.7-13.7,13.7-13.7c8.2,0,15.1,6.5,15.1,18.4c0,13.9-9.5,35.6-34.7,48.2L828.7,815.6z"/>
<g>
	<path fill="#FFFFFF" d="M523.4,386.2l-2.3,18.9h-0.2c0.9-7.5-1.1-18.1-10.7-18.9l-5.8,47.5h6l0,0.2h-23.5l0-0.2h6l5.8-47.3
		c-9.8,0.9-14.4,11.4-15.3,18.9h-0.2l2.3-19.1H523.4z M558.3,434h-19.5l0-0.2h3.2l3.3-26.8c0.6-5.1,0.2-7-1.9-7
		c-2.5,0-4.9,2.8-6.3,6.8l-3.3,27.2h3.2l0,0.2h-19.8l0-0.2h5.4l6.1-49.6h-5.4l0-0.2h16.5l-2.7,21.9c2-5.1,5.3-7.2,9.1-7.2
		c7.7,0,10.4,5.6,9.5,12.6l-2.8,22.4L558.3,434L558.3,434z M572.6,416.9l-0.2,1.9c-1.2,9.5-1.5,15.1,5.7,15.1
		c6.3,0,11.1-4.4,13.7-11.9h0.2c-2.7,8.1-8.1,13-16.7,13c-8.8,0-15.5-8.4-14.3-18.1c1.2-9.6,9.9-18.1,18.7-18.1
		c8.9,0,14.8,8.2,13.6,17.9h-20.7L572.6,416.9L572.6,416.9z M573.1,412.3l-0.6,4.6h8.9c1.9-15.3,1.5-17.7-1.9-17.7
		C575.1,399.1,574.1,404.2,573.1,412.3z M631.1,384.4h-5.4l0-0.2h16.5l-6.1,49.6h5.4l0,0.2H625l0.8-6.3c-2,5.1-5.3,7.2-9.1,7.2
		c-6.5,0-12.2-7.5-10.9-18.1c1.3-10.3,8.9-18.1,15.4-18.1c3.7,0,6.6,2.1,7.4,7.2L631.1,384.4z M628.3,406.7
		c-0.4-3.9-2.3-6.8-4.6-6.8c-3.2,0-4.8,3.3-6,13.2l-0.9,7.7c-1.2,10-0.6,13.2,2.8,13.2c2.5,0,4.9-2.8,6.3-6.8L628.3,406.7z
		 M647.8,406.9c1-2.5,3.7-4.4,6.1-4.4c3.2,0,5.5,2.6,5.1,5.8c-0.4,3.2-3.3,5.8-6.5,5.8c-3.9,0-5.4-3-5-6.3c0.1-0.5,0.1-1.1,0.6-2.1
		c2.5-4.9,8.6-6.8,12.4-6.8c10.2,0,15.4,4.9,14.5,12.1l-2.2,18.1c-0.3,2.8,0.4,4,2.1,4c0.7,0,1.2-0.2,1.6-0.5c1-0.9,1.5-2.3,1.6-2.8
		h0.2c-0.8,2.5-2.6,5.1-6.8,5.1c-5.8,0-9.4-3.7-9.2-7.5c-0.7,2.8-3.4,7.5-10.6,7.5c-5.8,0-8.8-3.7-8.2-8.8c0.7-5.4,5.3-8.9,10-9.8
		c3.6-0.7,3.9-0.2,5.9-0.7c1.6-0.4,3-1.9,4.5-3.5l0.9-7c0.5-4-1.2-5.8-5.1-5.8C655,399.3,649.4,402.3,647.8,406.9L647.8,406.9z
		 M663.9,412.5c-1.7,2.1-2.8,2.8-4.5,3.7c-2.3,1.2-4,3-4.5,6.3l-0.8,6.1c-0.4,3.3-0.3,5.3,1.6,5.3c3.2,0,5.9-4,6.2-6.5
		C662.1,427.4,663.9,412.5,663.9,412.5z M720,434h-19.6l0-0.2h3.2l3.3-26.8c0.6-5.1,0.2-7-1.9-7c-2.5,0-4.9,2.8-6.3,6.8l-3.3,27.2
		h3.2l0,0.2h-19.6l0-0.2h5.4l4.2-34H683l0-0.2h16.5l-0.8,6.3c2-5.1,5.3-7.2,9.1-7.2c7.7,0,10.4,5.6,9.5,12.6l-2.8,22.4L720,434
		L720,434L720,434z M734.2,417c-0.7,5.6-1.9,16.8,5.8,16.8c6.1,0,10.1-4.9,11.4-13.2h0.2c-1.4,8.2-5.4,14.2-14.4,14.2
		c-8.9,0-15.9-7.7-14.6-18.1c1.2-9.5,9.4-18.1,19.6-18.1c6.3,0,9.1,3,9.9,6.8c0.2,0.9,0.2,1.6,0.1,2.1c-0.4,3.3-2.7,6.3-6.6,6.3
		c-3.2,0-5.5-2.6-5.1-5.8c0.4-3.2,3.3-5.8,6.5-5.8c2.5,0,4.7,1.9,5.1,4.4c-0.3-3.5-2.6-7.5-8.7-7.5
		C737.1,399.3,735.4,407.2,734.2,417L734.2,417z M765.6,416.9l-0.2,1.9c-1.2,9.5-1.5,15.1,5.7,15.1c6.3,0,11.1-4.4,13.7-11.9h0.2
		c-2.7,8.1-8.1,13-16.7,13c-8.8,0-15.5-8.4-14.3-18.1c1.2-9.6,9.9-18.1,18.7-18.1c8.9,0,14.8,8.2,13.6,17.9h-20.7
		C765.6,416.7,765.6,416.9,765.6,416.9z M766.2,412.3l-0.6,4.6h8.9c1.9-15.3,1.5-17.7-1.9-17.7C768.1,399.1,767.2,404.2,766.2,412.3
		z M796.3,434l5.5-0.2l4.2-33.8h-5.4l0-0.2H817l-4.2,34h5.4l0,0.2H796.3L796.3,434z M813.7,381.3c3.3,0,5.5,2.5,5.1,5.8
		c-0.4,3.3-3.2,5.8-6.5,5.8s-5.5-2.5-5.1-5.8C807.6,383.7,810.3,381.3,813.7,381.3z M824.4,432.3c-1.4,0-3,1.2-3.6,3.5h-0.2
		l2.1-17.4h0.2c-0.6,6.1,3.6,16.5,11,16.5c3,0,5.1-1.9,5.5-5.1c1-8.2-17.5-7.4-15.9-20.3c0.6-5.1,5.5-10.5,11.6-10.5
		c3.5,0,6.4,2.5,9,2.5c0.9,0,1.7-0.7,1.9-2.5h0.2l-1.7,13.7h-0.2c0.1-3.7-2.2-13.5-9.2-13.5c-3.2,0-5.5,2.3-5.9,5.1
		c-0.9,7.5,18.5,6.7,16.9,19.8c-0.8,6.1-5.9,10.9-12.2,10.9C829.7,435.1,827.7,432.3,824.4,432.3L824.4,432.3z"/>
</g>
<g>
	<path fill="#FFFFFF" d="M486.4,488.9c1-2.5,3.7-4.4,6.1-4.4c3.2,0,5.5,2.6,5.1,5.8c-0.4,3.2-3.3,5.8-6.5,5.8c-3.9,0-5.4-3-5-6.3
		c0.1-0.5,0.1-1.1,0.6-2.1c2.5-4.9,8.6-6.8,12.4-6.8c10.2,0,15.4,4.9,14.5,12.1l-2.2,18.1c-0.3,2.8,0.4,4,2.1,4
		c0.7,0,1.2-0.2,1.6-0.5c1-0.9,1.5-2.3,1.6-2.8h0.2c-0.8,2.5-2.6,5.1-6.8,5.1c-5.8,0-9.4-3.7-9.2-7.5c-0.7,2.8-3.4,7.5-10.6,7.5
		c-5.8,0-8.8-3.7-8.2-8.8c0.7-5.4,5.3-8.9,10-9.8c3.6-0.7,3.9-0.2,5.9-0.7c1.6-0.4,3-1.9,4.5-3.5l0.9-7c0.5-4-1.2-5.8-5.1-5.8
		C493.6,481.4,488,484.4,486.4,488.9L486.4,488.9z M502.5,494.5c-1.7,2.1-2.8,2.8-4.5,3.7c-2.3,1.2-4,3-4.5,6.3l-0.8,6.1
		c-0.4,3.3-0.3,5.3,1.6,5.3c3.2,0,5.9-4,6.2-6.5L502.5,494.5z M542.2,531.9h5.4l0,0.2h-21.7l0-0.2h5.4l6.1-49.8H532l0-0.2h16.5
		l-0.8,6.3c2-5.1,5.3-7.2,9.1-7.2c6.5,0,12.2,7.5,10.9,18.1c-1.3,10.3-8.9,18.1-15.4,18.1c-3.7,0-6.6-2.1-7.4-7.2l-2.7,21.9H542.2
		L542.2,531.9z M544.9,509.3c0.4,3.9,2.3,6.8,4.6,6.8c3.2,0,4.8-3.3,6-13.2l0.9-7.5c1.2-10,0.6-13.2-2.8-13.2
		c-2.5,0-4.9,2.8-6.3,6.8L544.9,509.3L544.9,509.3z M585.4,517c-8.8,0-16.2-8.4-15-18.1c1.2-9.6,10.6-18.1,19.4-18.1
		c8.8,0,16.2,8.4,15,18.1C603.6,508.6,594.1,517,585.4,517z M589.8,481.2c-5.3,0-6.4,8.1-7.6,17.9c-1.2,9.8-2,17.9,3.2,17.9
		s6.6-8.1,7.8-17.9C594.4,489.3,595.2,481.2,589.8,481.2L589.8,481.2z M619.1,498.9l-0.2,1.9c-1.2,9.5-1.5,15.1,5.7,15.1
		c6.3,0,11.1-4.4,13.7-11.9h0.2c-2.7,8.1-8.1,13-16.7,13c-8.8,0-15.4-8.4-14.3-18.1c1.2-9.6,9.9-18.1,18.7-18.1
		c8.9,0,14.8,8.2,13.6,17.9h-20.7L619.1,498.9L619.1,498.9z M619.7,494.4l-0.6,4.6h8.9c1.9-15.3,1.5-17.7-1.9-17.7
		C621.7,481.2,620.7,486.5,619.7,494.4z M675.6,516.1h-16.7l0-0.2h3l3.6-29.3c0.3-2.1,0.2-4.6-1.9-4.6c-2.5,0-5.3,3.5-6.5,6.8
		l-3.3,27h2.8l0,0.2h-18.4l0-0.2h4.7l4.2-33.8h-4.7l0-0.2h15.8l-0.8,6.3c2-4.9,5.4-7.2,9.1-7.2c5.6,0,8.1,3,9.1,7.2
		c2-4.9,5.8-7.2,9.7-7.2c7.7,0,10.4,5.6,9.5,12.6l-2.8,22.4h4.7l0,0.2H678l0-0.2h3l3.3-27c0.6-5.1,0.5-7-1.9-7
		c-2.8,0-5.7,3.3-6.8,6.5c0.3,1.6,0.3,3.3,0.1,5.1l-2.8,22.4L675.6,516.1L675.6,516.1L675.6,516.1z M726.4,517
		c-8.8,0-16.2-8.4-15-18.1c1.2-9.6,10.6-18.1,19.4-18.1c8.8,0,16.2,8.4,15,18.1C744.4,508.6,734.9,517,726.4,517z M730.7,481.2
		c-5.3,0-6.4,8.1-7.6,17.9c-1.2,9.8-2,17.9,3.2,17.9s6.6-8.1,7.8-17.9C735.4,489.3,736,481.2,730.7,481.2L730.7,481.2z M779.9,470.9
		c0.2,0.9,0.2,1.6,0.1,2.1c-0.4,3.3-2.7,6.3-6.6,6.3c-3.2,0-5.5-2.6-5.1-5.8c0.4-3.2,3.3-5.8,6.5-5.8c2.5,0,4.7,1.9,5.1,4.4
		c-0.1-3.7-2.8-5.8-6.3-5.8c-2.1,0-3.7,0.5-4.9,1.2c-1.7,1.1-2.6,2.8-2.9,5.3l-1.2,9.5h5.4l0-0.2h-5.4l-4.2,33.8h5.4l0,0.2H744
		l0-0.2h5.4l4.2-33.8h-5.4l0-0.2h5.4l0.5-4.4c0.8-6.5,8.2-12.1,16.6-12.1C775.6,465.4,779.2,466.8,779.9,470.9L779.9,470.9z"/>
</g>
<g>
	<path fill="#FFFFFF" d="M537.6,564.2h-5.4l-15.4,35.2l-7.3-24.9l-10.9,24.9l-10.2-35.2h-5.4l0-0.2h40.2l0,0.2h-4.4l5.5,18.1
		l7.8-18.1h-5.6l0-0.2h11.2L537.6,564.2L537.6,564.2z M505.7,582.2l3.4-8.1l-2.8-10h-6.1L505.7,582.2z M573.7,598.2h-19.6l0-0.2h3.2
		l3.3-27c0.6-5.1,0.2-7-1.9-7c-2.5,0-4.9,2.8-6.3,6.8L549,598h3.2l0,0.2h-19.6l0-0.2h5.4l6.1-49.5h-5.4l0-0.2h16.5l-2.7,21.9
		c2-5.1,5.3-7.2,9.1-7.2c7.7,0,10.4,5.6,9.5,12.6l-2.8,22.4L573.7,598.2L573.7,598.2z M575.7,598.2l5.5-0.2l4.2-33.8h-5.4l0-0.2
		h16.5l-4.2,34h5.4l0,0.2L575.7,598.2z M593.2,545.4c3.3,0,5.5,2.5,5.1,5.8s-3.2,5.8-6.5,5.8s-5.5-2.5-5.1-5.8
		S589.9,545.4,593.2,545.4L593.2,545.4z M611.6,581.2c-0.7,5.6-1.9,16.8,5.8,16.8c6.1,0,10.1-4.9,11.4-13.2h0.2
		c-1.4,8.2-5.4,14.2-14.4,14.2s-15.9-7.7-14.6-18.1c1.2-9.5,9.4-18.1,19.6-18.1c6.3,0,9.1,3,9.9,6.8c0.2,0.9,0.2,1.6,0.1,2.1
		c-0.4,3.3-2.7,6.3-6.6,6.3c-3.2,0-5.5-2.6-5.1-5.8c0.4-3.2,3.3-5.8,6.5-5.8c2.5,0,4.7,1.9,5.1,4.4c-0.3-3.5-2.6-7.5-8.7-7.5
		C614.5,563.4,612.8,571.3,611.6,581.2L611.6,581.2z M668.8,598.2h-19.6l0-0.2h3.2l3.3-27c0.6-5.1,0.2-7-1.9-7
		c-2.5,0-4.9,2.8-6.3,6.8l-3.3,27.2h3.2l0,0.2h-19.6l0-0.2h5.4l6.1-49.5h-5.4l0-0.2h16.5l-2.7,21.9c2-5.1,5.3-7.2,9.1-7.2
		c7.7,0,10.4,5.6,9.5,12.6l-2.8,22.4L668.8,598.2L668.8,598.2z M695.1,581l-0.2,1.9c-1.2,9.5-1.5,15.1,5.7,15.1
		c6.3,0,11.1-4.4,13.7-11.9h0.2c-2.7,8.1-8.1,13-16.7,13c-8.8,0-15.5-8.4-14.3-18.1c1.2-9.6,9.9-18.1,18.7-18.1
		c8.9,0,14.8,8.2,13.6,17.9h-20.7L695.1,581L695.1,581z M695.7,576.4l-0.6,4.6h8.9c1.9-15.3,1.5-17.7-1.9-17.7
		C697.6,563.3,696.6,568.5,695.7,576.4z M721.2,571c1-2.5,3.7-4.4,6.2-4.4c3.2,0,5.5,2.6,5.1,5.8c-0.4,3.2-3.3,5.8-6.5,5.8
		c-3.9,0-5.4-3-5-6.3c0.1-0.5,0.1-1.1,0.6-2.1c2.5-4.9,8.6-6.8,12.4-6.8c10.2,0,15.4,4.9,14.5,12.1l-2.2,18.1c-0.3,2.8,0.4,4,2.1,4
		c0.7,0,1.2-0.2,1.6-0.5c1-0.9,1.5-2.3,1.6-2.8h0.2c-0.8,2.5-2.6,5.1-6.8,5.1c-5.8,0-9.4-3.7-9.2-7.5c-0.7,2.8-3.4,7.5-10.6,7.5
		c-5.8,0-8.8-3.7-8.2-8.8c0.7-5.4,5.3-8.9,10-9.8c3.6-0.7,3.9-0.2,5.9-0.7c1.6-0.4,3-1.9,4.5-3.5l0.9-7c0.5-4-1.2-5.8-5.1-5.8
		C728.3,563.4,722.8,566.4,721.2,571L721.2,571z M737.2,576.6c-1.7,2.1-2.8,2.8-4.5,3.7c-2.3,1.2-4,3-4.5,6.3l-0.8,6.1
		c-0.4,3.3-0.3,5.3,1.6,5.3c3.2,0,5.9-4,6.2-6.5L737.2,576.6L737.2,576.6z M764.9,581.2c-0.7,5.6-1.9,16.8,5.8,16.8
		c6.1,0,10.1-4.9,11.4-13.2h0.2c-1.4,8.2-5.4,14.2-14.4,14.2c-8.9,0-15.9-7.7-14.6-18.1c1.2-9.5,9.4-18.1,19.6-18.1
		c6.3,0,9.1,3,9.9,6.8c0.2,0.9,0.2,1.6,0.1,2.1c-0.4,3.3-2.7,6.3-6.6,6.3c-3.2,0-5.5-2.6-5.1-5.8c0.4-3.2,3.3-5.8,6.5-5.8
		c2.5,0,4.7,1.9,5.1,4.4c-0.3-3.5-2.6-7.5-8.7-7.5C767.7,563.4,766.1,571.3,764.9,581.2L764.9,581.2z M822.1,598.2h-19.6l0-0.2h3.2
		l3.3-27c0.6-5.1,0.2-7-1.9-7c-2.5,0-4.9,2.8-6.3,6.8l-3.3,27.2h3.2l0,0.2h-19.6l0-0.2h5.4l6.1-49.5h-5.4l0-0.2h16.5l-2.7,21.9
		c2-5.1,5.3-7.2,9.1-7.2c7.7,0,10.4,5.6,9.5,12.6l-2.8,22.4L822.1,598.2L822.1,598.2z"/>
</g>
<g>
	<path fill="#FFFFFF" d="M516.8,680.2h-16.7l0-0.2h3l3.6-29.3c0.3-2.1,0.2-4.6-1.9-4.6c-2.5,0-5.3,3.5-6.5,6.8l-3.3,27h2.8l0,0.2
		h-18.6l0-0.2h4.7l4.2-33.8h-4.7l0-0.2h15.8l-0.8,6.3c2-4.9,5.4-7.2,9.1-7.2c5.6,0,8.1,3,9.1,7.2c2-4.9,5.8-7.2,9.7-7.2
		c7.7,0,10.4,5.6,9.5,12.6l-2.8,22.4h4.7l0,0.2h-18.8l0-0.2h3l3.3-27c0.6-5.1,0.5-7-1.9-7c-2.8,0-5.7,3.3-6.8,6.5
		c0.3,1.6,0.3,3.3,0.1,5.1l-2.8,22.4L516.8,680.2L516.8,680.2z M555.5,681.1c-8.8,0-16.2-8.4-15-18.1c1.2-9.6,10.6-18.1,19.4-18.1
		c8.8,0,16.2,8.4,15,18.1S564.2,681.1,555.5,681.1z M559.9,645.3c-5.3,0-6.4,8.1-7.6,17.9c-1.2,9.8-2,17.9,3.2,17.9
		s6.6-8.1,7.8-17.9C564.5,653.4,565.3,645.3,559.9,645.3z M611,646.2h-5.4l-15.4,35.2l-10.2-35.2h-5.4l0-0.2h21.9l0,0.2H592
		l5.5,18.1l7.8-18.1h-5.6l0-0.2L611,646.2z M618.4,663.1l-0.2,1.9c-1.2,9.5-1.5,15.1,5.7,15.1c6.3,0,11.1-4.4,13.7-11.9h0.2
		c-2.7,8.1-8.1,13-16.7,13c-8.8,0-15.4-8.4-14.3-18.1c1.2-9.6,9.9-18.1,18.7-18.1c8.9,0,14.8,8.2,13.6,17.9h-20.7L618.4,663.1
		L618.4,663.1z M618.9,658.5l-0.6,4.6h8.9c1.9-15.3,1.5-17.7-1.9-17.7C620.9,645.3,619.9,650.6,618.9,658.5z M675,680.2h-16.7l0-0.2
		h3l3.6-29.3c0.3-2.1,0.2-4.6-1.9-4.6c-2.5,0-5.3,3.5-6.5,6.8l-3.3,27h2.8l0,0.2h-18.4l0-0.2h4.7l4.2-33.8h-4.7l0-0.2h15.8l-0.8,6.3
		c2-4.9,5.4-7.2,9.1-7.2c5.6,0,8.1,3,9.1,7.2c2-4.9,5.8-7.2,9.6-7.2c7.7,0,10.4,5.6,9.5,12.6l-2.8,22.4h4.7l0,0.2h-18.8l0-0.2h3
		l3.3-27c0.6-5.1,0.5-7-1.9-7c-2.8,0-5.7,3.3-6.8,6.5c0.3,1.6,0.3,3.3,0.1,5.1l-2.8,22.4L675,680.2L675,680.2z M710.4,663.1
		l-0.2,1.9c-1.2,9.5-1.5,15.1,5.7,15.1c6.3,0,11.1-4.4,13.7-11.9h0.2c-2.7,8.1-8.1,13-16.7,13c-8.8,0-15.5-8.4-14.3-18.1
		c1.2-9.6,9.9-18.1,18.7-18.1c8.9,0,14.8,8.2,13.6,17.9h-20.7L710.4,663.1L710.4,663.1z M711,658.5l-0.6,4.6h8.9
		c1.9-15.3,1.5-17.7-1.9-17.7C713,645.3,712,650.6,711,658.5z M770.4,680.2h-19.6l0-0.2h3.2l3.3-27c0.6-5.1,0.2-7-1.9-7
		c-2.5,0-4.9,2.8-6.3,6.8l-3.3,27.2h3.2l0,0.2h-19.6l0-0.2h5.4l4.2-33.8h-5.4l0-0.2h16.5l-0.8,6.3c2-5.1,5.3-7.2,9.1-7.2
		c7.7,0,10.4,5.6,9.5,12.6l-2.8,22.4L770.4,680.2L770.4,680.2L770.4,680.2z M789.3,646.2l-3.6,29.5c-0.2,1.9,0.3,3.3,2,3.3
		c2.1,0,2.9-2.5,3.2-4.7l0.9-7.5h0.2l-0.9,7.7c-0.5,4-2.4,6.7-7.3,6.7c-6.5,0-9.1-4.4-8.3-10.9l3-24.2H773l0-0.2h1.8
		c8.1,0,15-5.1,16.1-14.4h0.2L789.3,646.2l6.9-0.2l0,0.2H789.3L789.3,646.2z"/>
</g>
<g>
	<path fill="#FFFFFF" d="M479.1,762.3l5.5-0.2l4.2-33.8h-5.4l0-0.2h16.5l-4.2,34h5.4l0,0.2H479.1L479.1,762.3z M496.4,709.5
		c3.3,0,5.5,2.5,5.1,5.8c-0.4,3.3-3.2,5.8-6.5,5.8s-5.3-2.5-4.9-5.8C490.5,712,493.3,709.5,496.4,709.5z M507.2,760.6
		c-1.4,0-3,1.2-3.6,3.5h-0.2l2.1-17.4h0.2c-0.6,6.1,3.6,16.5,11,16.5c3,0,5.1-1.9,5.5-5.1c1-8.2-17.5-7.4-15.9-20.3
		c0.6-5.1,5.5-10.5,11.6-10.5c3.5,0,6.4,2.5,9,2.5c0.9,0,1.7-0.7,1.9-2.5h0.2l-1.7,13.7c0.1-3.7-2.2-13.5-9.2-13.5
		c-3.2,0-5.5,2.3-5.9,5.1c-0.9,7.5,18.5,6.7,16.9,19.8c-0.8,6.1-5.9,10.9-12.2,10.9C512.4,763.4,510.5,760.6,507.2,760.6
		L507.2,760.6z M547,735.1c1-2.5,3.7-4.4,6.1-4.4c3.2,0,5.5,2.6,5.1,5.8c-0.4,3.2-3.3,5.8-6.5,5.8c-3.9,0-5.4-3-5-6.3
		c0.1-0.5,0.1-1.1,0.6-2.1c2.5-4.9,8.6-6.8,12.4-6.8c10.2,0,15.4,4.9,14.5,12.1l-2.2,18.2c-0.3,2.8,0.4,4,2.1,4
		c0.7,0,1.2-0.2,1.6-0.5c1-0.9,1.5-2.3,1.6-2.8h0.2c-0.8,2.5-2.6,5.1-6.8,5.1c-5.8,0-9.4-3.7-9.2-7.5c-0.7,2.8-3.4,7.5-10.6,7.5
		c-5.8,0-8.8-3.7-8.2-8.8c0.7-5.4,5.3-8.9,10-9.8c3.6-0.7,3.9-0.2,5.9-0.7c1.6-0.4,3-1.9,4.5-3.5l0.9-7c0.5-4-1.2-5.8-5.1-5.8
		C554,727.6,548.5,730.7,547,735.1L547,735.1z M562.9,740.7c-1.7,2.1-2.8,2.8-4.5,3.7c-2.3,1.2-4,3-4.5,6.3l-0.8,6.1
		c-0.4,3.3-0.3,5.3,1.6,5.3c3.2,0,5.9-4,6.2-6.5L562.9,740.7z M646.7,728.3h-5.4l-15.4,35.2l-7.3-24.9l-10.9,24.9l-10.2-35.2H592
		l0-0.2h40.2l0,0.2h-4.4l5.5,18.1l7.8-18.1h-5.6l0-0.2h11.2L646.7,728.3z M614.8,746.3l3.4-8.1l-2.8-10h-6.1L614.8,746.3z
		 M657.3,763.2c-8.8,0-16.2-8.4-15-18.1c1.2-9.6,10.6-18.1,19.4-18.1c8.8,0,16.2,8.4,15,18.1S666.1,763.2,657.3,763.2z M661.7,727.4
		c-5.3,0-6.4,8.1-7.6,17.9c-1.2,9.8-2,17.9,3.2,17.9s6.6-8.1,7.8-17.9C666.3,735.5,667.1,727.4,661.7,727.4z M675.1,762.3l5.5-0.2
		l4.2-33.8h-5.4l0-0.2h16.5l-0.3,2.8c1.6-1.9,3.8-3.7,7.1-3.7c2.5,0,6,1.4,6.5,5.4c0.2,0.9,0.2,1.6,0.1,2.1
		c-0.4,3.3-2.7,6.3-6.6,6.3c-3.2,0-5.5-2.6-5.1-5.8c0.4-3.2,3.3-5.8,6.5-5.8c2.6,0,4.7,1.9,5.1,4.4c0-3-2.2-6.3-6.6-6.3
		c-3.3,0-5.5,1.6-7.1,3.7l-3.8,30.9h5.4l0,0.2H675.1L675.1,762.3z M734.9,712.7h-5.4l0-0.2H746l-6.1,49.6h5.4l0,0.2h-16.5l0.8-6.3
		c-2,5.1-5.3,7.2-9.1,7.2c-6.5,0-12.2-7.5-10.9-18.1c1.3-10.3,8.9-18.1,15.4-18.1c3.7,0,6.6,2.1,7.4,7.2L734.9,712.7L734.9,712.7z
		 M732.1,735.1c-0.4-3.9-2.3-6.8-4.6-6.8c-3.2,0-4.8,3.3-6,13.2l-0.9,7.5c-1.2,10-0.6,13.2,2.8,13.2c2.5,0,4.9-2.8,6.3-6.8
		L732.1,735.1L732.1,735.1z M753.4,751.4c3.2,0,5.5,2.6,5.1,5.8c-0.4,3.2-3.3,5.8-6.5,5.8s-5.5-2.6-5.1-5.8
		C747.3,754.1,750.3,751.4,753.4,751.4L753.4,751.4z"/>
</g>
<path fill="#333333" d="M377,367.2c0-13.9,9.5-35.6,34.7-48.2l3.3,5.4c-17.2,11.9-21.9,26.8-22.1,34c6.5,0.7,12.8,6.8,12.8,13.7
	c0,7.7-6.7,13.7-13.7,13.7C384,385.6,377,379.3,377,367.2L377,367.2z M421.9,367.2c0-13.9,9.5-35.6,34.7-48.2l3.3,5.4
	c-17.2,12.1-21.7,27-22.1,34.2c6.5,0.7,12.8,6.8,12.8,13.7c0,7.7-6.7,13.7-13.7,13.7C428.9,385.6,421.9,379.3,421.9,367.2
	L421.9,367.2z"/>
</svg>
