<svg xmlns="http://www.w3.org/2000/svg" width="792" height="612"><g fill="#fff"><path d="M110.543 500.178c-.306 1.529-1.223 2.752-2.599 2.752-1.834 0-2.752-2.6-4.281-2.6-.764 0-1.529.612-1.682 1.988l-.917-.918c.153-1.376 1.07-2.599 2.446-2.599 1.835 0 3.058 2.599 4.434 2.599.917 0 1.376-.765 1.682-1.987l.917.765zM118.494 489.628h1.988l5.963 18.042 6.269-18.042h2.141l-7.339 20.029h-2.141l-6.881-20.029zM139.135 488.71c.764 0 1.223.307 1.223 1.224s-.459 1.223-1.223 1.223c-.765 0-1.223-.306-1.223-1.223-.153-.917.459-1.224 1.223-1.224zm-1.07 20.947v-15.442h1.834v15.442h-1.834zM151.061 508.281c1.834 0 3.058-.765 3.975-1.988l.917 1.377c-1.223 1.376-2.752 2.293-5.045 2.293-4.128 0-6.88-3.211-6.88-8.104 0-5.046 2.752-8.104 6.88-8.104 2.141 0 3.669.918 5.045 2.294l-.917 1.376c-1.07-1.224-2.141-1.988-3.975-1.988-3.058 0-5.045 2.446-5.045 6.27 0 4.128 1.987 6.574 5.045 6.574zM170.632 494.673l-6.88 6.881 7.339 7.798v.306h-2.293l-6.88-7.492v7.492h-1.834v-20.948h1.834v12.232l6.575-6.728h2.141v.459h-.002zM175.219 488.71c.764 0 1.223.307 1.223 1.224s-.459 1.223-1.223 1.223c-.765 0-1.224-.306-1.224-1.223s.459-1.224 1.224-1.224zm-.918 20.947v-15.442h1.834v15.442h-1.834zM187.45 489.628h6.116c3.517 0 5.657 1.682 5.657 5.198 0 2.294-1.223 3.822-3.058 4.434 2.752.459 4.434 2.141 4.434 5.046 0 3.211-1.988 5.352-5.81 5.352h-7.339v-20.03zm1.988 8.868h3.822c2.446 0 4.128-1.224 4.128-3.517 0-2.446-1.376-3.517-3.976-3.517h-3.975v7.034h.001zm0 9.48h5.198c2.752 0 4.128-1.376 4.128-3.67 0-2.752-1.682-3.976-4.587-3.976h-4.587v7.646h-.152zM213.137 509.657v-1.682c-.917.917-2.446 1.987-4.74 1.987-3.058 0-4.893-1.835-4.893-4.74 0-3.822 3.058-5.351 7.033-5.351.917 0 1.834.152 2.599.306v-.765c0-2.6-1.376-3.822-3.669-3.822-1.529 0-3.058.306-4.281 1.07l-.458-1.682c1.376-.612 3.364-1.07 4.893-1.07 3.364 0 5.351 1.987 5.351 5.504v10.091h-1.834v.154zm-4.129-1.223c1.988 0 3.364-1.07 4.128-1.987v-4.739c-.612-.153-1.682-.307-2.599-.307-2.905 0-5.199 1.07-5.199 3.822.154 1.988 1.53 3.211 3.67 3.211zM221.546 494.215v9.326c0 2.905 1.223 4.587 3.822 4.587 2.293 0 3.976-1.682 4.434-3.669v-10.244h1.988v15.442h-1.988v-2.6c-.917 1.835-2.752 2.905-5.045 2.905-3.517 0-5.199-2.141-5.199-5.963v-9.633h1.988v-.151zM256.101 509.657v-9.479c0-2.905-1.07-4.281-3.823-4.281-2.14 0-3.21 1.376-3.822 3.363v10.397h-1.988v-9.479c0-2.905-1.376-4.281-3.669-4.281s-3.669 1.529-4.281 3.517v10.396h-1.835v-15.442h1.835v2.446c.917-1.834 2.446-2.752 4.893-2.752s3.975 1.07 4.587 3.059c.917-1.988 2.446-3.059 4.74-3.059 3.669 0 5.198 1.988 5.198 5.811v9.785h-1.835v-.001z"/></g><path fill="#333" d="M527.33 414.861c16.666-11.62 21.1-26.145 21.405-33.025-6.269-.764-12.385-6.728-12.385-13.148 0-7.492 6.422-13.149 13.149-13.149 7.95 0 14.678 6.269 14.678 17.889 0 13.455-9.174 34.555-33.484 46.786l-3.363-5.353zm43.423 0c16.665-11.62 21.1-26.145 21.405-33.025-6.27-.764-12.385-6.728-12.385-13.148 0-7.492 6.422-13.149 13.149-13.149 7.95 0 14.678 6.269 14.678 17.889 0 13.455-9.174 34.555-33.484 46.786l-3.363-5.353z"/><g fill="#fff"><path d="M145.107 167.018l-2.252 18.348h-.153c.882-7.186-1.071-17.43-10.285-18.348l-5.669 46.175h5.81l-.019.153h-22.782l.019-.153h5.81l5.651-46.021c-9.42.764-13.889 11.008-14.79 18.347h-.153l2.253-18.347h36.542l.018-.154zM178.866 213.345h-18.959l.019-.153h3.058l3.21-26.146c.601-4.893.214-6.727-1.927-6.727-2.293 0-4.771 2.752-6.158 6.574l-3.229 26.298h3.058l-.019.153h-18.807l.019-.153h5.352l5.895-48.009h-5.352l.019-.153h15.901l-2.609 21.252c1.977-4.893 5.126-6.88 8.795-6.88 7.492 0 10.027 5.504 9.201 12.231l-2.666 21.711h5.199v.002zM192.532 196.68l-.225 1.834c-1.126 9.174-1.343 14.678 5.384 14.678 6.116 0 10.77-4.281 13.334-11.467h.153c-2.64 7.798-7.809 12.538-16.065 12.538-8.409 0-14.906-8.104-13.761-17.43s9.632-17.43 18.041-17.43c8.562 0 14.313 7.951 13.149 17.43h-20.029l.019-.153zm.545-4.434l-.545 4.434h8.562c1.821-14.831 1.491-17.125-1.873-17.125-4.28 0-5.187 4.893-6.144 12.691zM210.669 213.345l5.37-.153 4.036-32.873h-5.351l.019-.153h15.901l-.338 2.752c1.62-1.988 3.643-3.517 6.854-3.517 2.446 0 5.794 1.376 6.395 5.198.193.917.118 1.529.062 1.988-.394 3.211-2.739 6.116-6.408 6.116-3.058 0-5.357-2.446-4.962-5.657.394-3.21 3.141-5.657 6.352-5.657 2.599 0 4.515 1.834 4.845 4.128.051-2.905-2.154-6.116-6.282-6.116-3.211 0-5.233 1.529-6.873 3.669l-3.679 29.968h5.352l-.019.153h-21.252l-.022.154zM255.067 196.68l-.226 1.834c-1.126 9.174-1.344 14.678 5.384 14.678 6.116 0 10.77-4.281 13.334-11.467h.153c-2.639 7.798-7.808 12.538-16.064 12.538-8.409 0-14.906-8.104-13.761-17.43s9.632-17.43 18.042-17.43c8.562 0 14.313 7.951 13.149 17.43h-20.029l.018-.153zm.544-4.434l-.544 4.434h8.562c1.821-14.831 1.492-17.125-1.872-17.125-4.281 0-5.188 4.893-6.146 12.691zM290.804 187.047c.912-2.446 3.565-4.128 6.011-4.128 3.058 0 5.357 2.446 4.962 5.657-.375 3.058-3.141 5.657-6.352 5.657-3.669 0-5.301-2.905-4.906-6.116.056-.458.131-1.07.549-1.987 2.417-4.74 8.318-6.728 12.141-6.728 9.785 0 14.86 4.74 14.016 11.62l-2.14 17.43c-.338 2.752.429 3.975 1.958 3.975.612 0 1.242-.153 1.586-.458 1.011-.765 1.351-2.293 1.542-2.599h.153c-.759 2.446-2.588 4.893-6.563 4.893-5.504 0-9.048-3.517-9.037-7.339-.644 2.752-3.195 7.339-10.228 7.339-5.504 0-8.57-3.67-7.988-8.409.657-5.352 5.179-8.562 9.726-9.48 3.439-.611 3.86-.306 5.751-.764 1.585-.459 2.977-1.835 4.388-3.364l.845-6.88c.488-3.975-1.14-5.657-4.81-5.657-4.587-.001-9.989 2.904-11.604 7.338zm15.703 5.351c-1.62 1.988-2.784 2.752-4.254 3.517-2.119 1.07-4.026 2.905-4.42 6.116l-.732 5.963c-.394 3.211-.313 5.046 1.674 5.046 3.058 0 5.686-3.976 5.968-6.269l1.764-14.373zM320.907 213.345l5.37-.153 4.036-32.873h-5.351l.019-.153h15.901l-.338 2.752c1.62-1.988 3.643-3.517 6.854-3.517 2.446 0 5.794 1.376 6.395 5.198.193.917.118 1.529.062 1.988-.394 3.211-2.739 6.116-6.408 6.116-3.058 0-5.357-2.446-4.962-5.657.394-3.21 3.141-5.657 6.352-5.657 2.599 0 4.515 1.834 4.845 4.128.051-2.905-2.154-6.116-6.282-6.116-3.211 0-5.233 1.529-6.873 3.669l-3.679 29.968h5.352l-.019.153h-21.252l-.022.154zM365.152 196.68l-.226 1.834c-1.126 9.174-1.344 14.678 5.384 14.678 6.116 0 10.77-4.281 13.334-11.467h.153c-2.639 7.798-7.808 12.538-16.064 12.538-8.409 0-14.906-8.104-13.761-17.43s9.632-17.43 18.042-17.43c8.562 0 14.313 7.951 13.149 17.43h-20.029l.018-.153zm.544-4.434l-.544 4.434h8.562c1.821-14.831 1.492-17.125-1.872-17.125-4.281 0-5.188 4.893-6.146 12.691zM399.701 211.663c-1.375 0-2.883 1.07-3.471 3.364h-.152l2.064-16.818h.153c-.579 5.963 3.38 16.054 10.565 16.054 2.906 0 4.965-1.835 5.34-4.893.977-7.951-17.023-7.033-15.466-19.724.601-4.893 5.386-10.244 11.349-10.244 3.363 0 6.121 2.446 8.721 2.446.917 0 1.604-.611 1.83-2.446h.152l-1.634 13.302h-.152c.125-3.517-2.208-13.149-8.935-13.149-3.059 0-5.481 2.293-5.801 4.893-.883 7.186 17.865 6.422 16.288 19.265-.732 5.963-5.729 10.55-11.845 10.55-3.84.153-5.643-2.6-9.006-2.6zM460.194 213.345h-18.959l.019-.153h3.058l3.21-26.146c.602-4.893.215-6.727-1.926-6.727-2.293 0-4.771 2.752-6.158 6.574l-3.229 26.298h3.058l-.019.153h-18.959l.019-.153h5.352l5.896-48.009h-5.352l.018-.153h15.902l-2.609 21.252c1.977-4.893 5.125-6.88 8.795-6.88 7.492 0 10.025 5.504 9.199 12.231l-2.665 21.711h5.35v.002zM476.748 214.263c-8.41 0-15.672-8.104-14.526-17.43s10.397-17.43 18.806-17.43c8.41 0 15.672 8.104 14.526 17.43-1.126 9.173-10.398 17.43-18.806 17.43zm4.262-34.708c-5.199 0-6.31 7.798-7.474 17.277s-1.968 17.277 3.23 17.277 6.309-7.797 7.473-17.277 1.968-17.277-3.229-17.277zM493.984 213.345l5.37-.153 4.036-32.873h-5.352l.02-.153h15.9l-.338 2.752c1.621-1.988 3.643-3.517 6.854-3.517 2.447 0 5.795 1.376 6.396 5.198.192.917.118 1.529.062 1.988-.395 3.211-2.738 6.116-6.408 6.116-3.058 0-5.357-2.446-4.963-5.657.395-3.21 3.141-5.657 6.352-5.657 2.6 0 4.515 1.834 4.846 4.128.051-2.905-2.154-6.116-6.283-6.116-3.211 0-5.232 1.529-6.872 3.669l-3.679 29.968h5.352l-.02.153h-21.253l-.02.154zM543.908 180.32l-3.51 28.591c-.227 1.835.369 3.211 1.898 3.211 2.141 0 2.746-2.446 3.01-4.587l.9-7.339h.153l-.92 7.492c-.47 3.822-2.317 6.421-7.057 6.421-6.422 0-8.82-4.128-8.051-10.396l2.872-23.393h-5.198l.019-.153h1.682c7.799 0 14.516-4.893 15.623-13.914h.152l-1.728 14.066 6.593-.153-.019.153h-6.419zM550.342 193.927h17.123l-.019.153-17.104-.153zM582.073 196.985c-.657 5.352-1.837 16.207 5.655 16.207 5.963 0 9.774-4.893 11.037-12.69h.152c-1.281 7.951-5.205 13.761-13.92 13.761-8.562 0-15.439-7.492-14.22-17.43 1.126-9.174 9.021-17.43 19.11-17.43 6.117 0 8.818 2.905 9.572 6.728.193.917.117 1.529.062 1.987-.395 3.211-2.738 6.116-6.408 6.116-3.058 0-5.356-2.446-4.963-5.657.376-3.058 3.142-5.657 6.353-5.657 2.445 0 4.514 1.835 4.844 4.128-.352-3.363-2.463-7.339-8.426-7.339s-7.665 7.644-8.848 17.276zM600.65 180.167h15.902l-3.229 26.298c-.601 4.893-.214 6.728 1.926 6.728 2.294 0 4.772-2.752 6.159-6.575l3.229-26.298h-3.058l.019-.153h13.607l-4.055 33.025h5.352l-.019.153h-15.901l.751-6.116c-1.978 4.893-5.126 6.88-8.795 6.88-7.492 0-10.027-5.504-9.202-12.231l2.647-21.558-5.333-.153zM655.369 180.32l-3.51 28.591c-.227 1.835.369 3.211 1.898 3.211 2.141 0 2.746-2.446 3.01-4.587l.9-7.339h.153l-.92 7.492c-.47 3.822-2.317 6.421-7.057 6.421-6.422 0-8.82-4.128-8.051-10.396l2.872-23.393h-5.198l.019-.153h1.682c7.799 0 14.516-4.893 15.623-13.914h.152l-1.728 14.066 6.595-.153-.02.153h-6.42zM663.906 211.663c-1.377 0-2.885 1.07-3.473 3.364h-.152l2.065-16.818h.152c-.579 5.963 3.38 16.054 10.567 16.054 2.904 0 4.964-1.835 5.34-4.893.977-7.951-17.025-7.033-15.467-19.724.6-4.893 5.385-10.244 11.348-10.244 3.365 0 6.122 2.446 8.722 2.446.917 0 1.604-.611 1.829-2.446h.152l-1.633 13.302h-.153c.126-3.517-2.208-13.149-8.935-13.149-3.059 0-5.48 2.293-5.8 4.893-.882 7.186 17.865 6.422 16.288 19.265-.732 5.963-5.729 10.55-11.846 10.55-3.838.153-5.795-2.6-9.004-2.6zM715.763 180.32l-3.511 28.591c-.225 1.835.371 3.211 1.9 3.211 2.139 0 2.746-2.446 3.01-4.587l.9-7.339h.152l-.92 7.492c-.469 3.822-2.317 6.421-7.057 6.421-6.422 0-8.82-4.128-8.051-10.396l2.872-23.393h-5.198l.02-.153h1.682c7.797 0 14.514-4.893 15.622-13.914h.153l-1.728 14.066 6.593-.153-.019.153h-6.42zM735.906 214.263c-8.41 0-15.672-8.104-14.526-17.43s10.397-17.43 18.806-17.43c8.41 0 15.672 8.104 14.526 17.43-1.126 9.173-10.398 17.43-18.806 17.43zm4.262-34.708c-5.199 0-6.31 7.798-7.474 17.277s-1.968 17.277 3.23 17.277 6.309-7.797 7.473-17.277 1.968-17.277-3.229-17.277zM132.256 292.851h-18.959l.019-.153h3.058l3.21-26.146c.601-4.893.215-6.727-1.926-6.727-2.293 0-4.772 2.752-6.159 6.574l-3.229 26.298h3.058l-.019.153h-18.806l.019-.153h5.352l5.895-48.009h-5.352l.019-.153h15.901l-2.609 21.252c1.977-4.893 5.125-6.88 8.795-6.88 7.492 0 10.027 5.504 9.202 12.231l-2.666 21.711h5.197v.002zM138.39 266.553c.912-2.446 3.565-4.128 6.011-4.128 3.058 0 5.357 2.446 4.963 5.657-.375 3.058-3.141 5.657-6.352 5.657-3.669 0-5.301-2.905-4.906-6.116.056-.458.131-1.07.55-1.987 2.417-4.74 8.317-6.728 12.14-6.728 9.786 0 14.86 4.74 14.016 11.62l-2.14 17.43c-.338 2.752.43 3.976 1.958 3.976.612 0 1.242-.153 1.585-.459 1.011-.764 1.352-2.293 1.542-2.599h.153c-.759 2.446-2.589 4.893-6.564 4.893-5.504 0-9.048-3.517-9.037-7.339-.644 2.752-3.195 7.339-10.228 7.339-5.504 0-8.57-3.67-7.988-8.41.657-5.351 5.179-8.562 9.726-9.479 3.438-.611 3.86-.306 5.751-.764 1.585-.459 2.977-1.835 4.388-3.364l.845-6.88c.488-3.976-1.14-5.657-4.81-5.657-4.586-.001-9.988 2.904-11.603 7.338zm15.703 5.351c-1.62 1.988-2.784 2.752-4.254 3.517-2.119 1.07-4.026 2.905-4.42 6.116l-.732 5.963c-.395 3.211-.314 5.045 1.674 5.045 3.058 0 5.687-3.975 5.968-6.269l1.764-14.372zM180.223 308.141h5.351l-.019.152h-21.252l.019-.152h5.351l5.914-48.162h-5.351l.019-.153h15.901l-.751 6.116c1.977-4.893 5.125-6.88 8.795-6.88 6.422 0 11.942 7.339 10.703 17.43-1.239 10.091-8.562 17.43-14.983 17.43-3.669 0-6.33-1.988-7.105-6.88l-2.592 21.099zm2.704-22.017c.447 3.822 2.25 6.575 4.543 6.575 3.058 0 4.523-3.211 5.706-12.843l.901-7.339c1.183-9.632.506-12.843-2.552-12.843-2.293 0-4.772 2.752-6.158 6.575l-2.44 19.875zM217.529 308.141h5.352l-.019.152h-21.252l.019-.152h5.351l5.914-48.162h-5.351l.019-.153h15.901l-.751 6.116c1.977-4.893 5.126-6.88 8.795-6.88 6.422 0 11.942 7.339 10.703 17.43-1.239 10.091-8.562 17.43-14.983 17.43-3.669 0-6.331-1.988-7.106-6.88l-2.592 21.099zm2.704-22.017c.448 3.822 2.25 6.575 4.544 6.575 3.058 0 4.522-3.211 5.705-12.843l.901-7.339c1.183-9.632.507-12.843-2.551-12.843-2.293 0-4.772 2.752-6.159 6.575l-2.44 19.875zM240.812 292.851l5.37-.153 4.037-32.873h-5.351l.019-.153h15.901l-4.055 33.026h5.352l-.019.153h-21.254zm16.821-51.067c3.21 0 5.356 2.446 4.962 5.657-.395 3.211-3.122 5.504-6.333 5.504-3.211 0-5.204-2.446-4.829-5.504s2.989-5.657 6.2-5.657zM303.652 292.851h-18.959l.019-.153h3.058l3.21-26.146c.601-4.893.214-6.727-1.926-6.727-2.293 0-4.771 2.752-6.159 6.574l-3.229 26.298h3.058l-.019.153h-18.959l.019-.153h5.352l4.037-32.873h-5.352l.019-.153h15.901l-.751 6.116c1.977-4.893 5.125-6.88 8.795-6.88 7.492 0 10.027 5.504 9.201 12.231l-2.666 21.711h5.351v.002zM317.319 276.186l-.226 1.834c-1.126 9.174-1.343 14.678 5.384 14.678 6.116 0 10.77-4.281 13.334-11.467h.153c-2.64 7.797-7.809 12.538-16.065 12.538-8.409 0-14.906-8.104-13.761-17.43 1.146-9.327 9.632-17.43 18.041-17.43 8.562 0 14.313 7.95 13.149 17.43h-20.028l.019-.153zm.544-4.435l-.544 4.434h8.562c1.821-14.831 1.491-17.125-1.873-17.125-4.281.001-5.206 5.046-6.145 12.691zM342.236 291.169c-1.376 0-2.883 1.07-3.471 3.364h-.153l2.065-16.818h.153c-.579 5.963 3.38 16.054 10.566 16.054 2.905 0 4.965-1.835 5.341-4.893.976-7.95-17.025-7.033-15.467-19.723.601-4.893 5.386-10.244 11.349-10.244 3.364 0 6.122 2.446 8.721 2.446.917 0 1.604-.612 1.829-2.446h.153l-1.633 13.302h-.153c.126-3.517-2.208-13.149-8.935-13.149-3.058 0-5.48 2.293-5.799 4.893-.882 7.186 17.865 6.421 16.288 19.265-.732 5.963-5.729 10.55-11.845 10.55-3.995.151-5.798-2.601-9.009-2.601zM369.451 291.169c-1.376 0-2.883 1.07-3.471 3.364h-.153l2.065-16.818h.153c-.579 5.963 3.38 16.054 10.566 16.054 2.905 0 4.965-1.835 5.341-4.893.976-7.95-17.025-7.033-15.467-19.723.601-4.893 5.386-10.244 11.349-10.244 3.364 0 6.121 2.446 8.72 2.446.917 0 1.604-.612 1.83-2.446h.153l-1.634 13.302h-.153c.126-3.517-2.208-13.149-8.935-13.149-3.058 0-5.48 2.293-5.799 4.893-.882 7.186 17.865 6.421 16.289 19.265-.732 5.963-5.73 10.55-11.846 10.55-3.994.151-5.797-2.601-9.008-2.601zM395.763 297.285c5.312-.917 7.924-3.517 8.774-7.951-.76 2.446-3.412 4.128-6.012 4.128-3.059 0-5.356-2.446-4.962-5.657.376-3.058 3.141-5.657 6.352-5.657 3.669 0 5.301 2.905 4.906 6.116-.563 4.587-3.154 8.257-9.058 9.021zM423.082 266.553c.912-2.446 3.564-4.128 6.012-4.128 3.058 0 5.355 2.446 4.962 5.657-.376 3.058-3.142 5.657-6.351 5.657-3.67 0-5.301-2.905-4.906-6.116.056-.458.131-1.07.549-1.987 2.418-4.74 8.317-6.728 12.141-6.728 9.785 0 14.86 4.74 14.016 11.62l-2.141 17.43c-.338 2.752.43 3.976 1.959 3.976.611 0 1.241-.153 1.584-.459 1.012-.764 1.353-2.293 1.543-2.599h.152c-.758 2.446-2.588 4.893-6.563 4.893-5.504 0-9.048-3.517-9.036-7.339-.644 2.752-3.195 7.339-10.229 7.339-5.504 0-8.57-3.67-7.988-8.41.657-5.351 5.18-8.562 9.727-9.479 3.438-.611 3.86-.306 5.75-.764 1.586-.459 2.979-1.835 4.389-3.364l.846-6.88c.488-3.976-1.141-5.657-4.81-5.657-4.742-.001-10.143 2.904-11.606 7.338zm15.55 5.351c-1.62 1.988-2.784 2.752-4.254 3.517-2.118 1.07-4.026 2.905-4.421 6.116l-.732 5.963c-.395 3.211-.312 5.045 1.675 5.045 2.905 0 5.687-3.975 5.968-6.269l1.764-14.372zM492.938 292.851h-18.959l.018-.153h3.059l3.211-26.146c.601-4.893.214-6.727-1.927-6.727-2.293 0-4.771 2.752-6.158 6.574l-3.229 26.298h3.059l-.02.153h-18.959l.02-.153h5.352l4.036-32.873h-5.352l.019-.153h15.901l-.751 6.116c1.977-4.893 5.125-6.88 8.795-6.88 7.492 0 10.027 5.504 9.201 12.231l-2.666 21.711h5.35v.002zM520.104 244.689h-5.352l.019-.153h15.901l-5.914 48.162h5.352l-.018.153h-15.902l.752-6.116c-1.978 4.893-5.127 6.88-8.795 6.88-6.422 0-11.943-7.339-10.704-17.43 1.239-10.091 8.562-17.43 14.983-17.43 3.67 0 6.33 1.987 7.105 6.88l2.573-20.946zm-2.666 21.711c-.447-3.822-2.098-6.575-4.544-6.575-3.058 0-4.522 3.211-5.705 12.844l-.901 7.339c-1.183 9.632-.506 12.843 2.551 12.843 2.295 0 4.773-2.752 6.159-6.575l2.44-19.876zM568.877 244.689h-5.352l.019-.153h15.901l-5.914 48.162h5.352l-.018.153h-15.902l.752-6.116c-1.978 4.893-5.127 6.88-8.795 6.88-6.422 0-11.943-7.339-10.704-17.43 1.239-10.091 8.562-17.43 14.983-17.43 3.67 0 6.33 1.987 7.105 6.88l2.573-20.946zm-2.666 21.711c-.447-3.822-2.25-6.575-4.544-6.575-3.058 0-4.522 3.211-5.705 12.844l-.901 7.339c-1.183 9.632-.506 12.843 2.551 12.843 2.295 0 4.773-2.752 6.159-6.575l2.44-19.876zM584.999 266.553c.911-2.446 3.564-4.128 6.011-4.128 3.059 0 5.357 2.446 4.963 5.657-.375 3.058-3.141 5.657-6.352 5.657-3.67 0-5.301-2.905-4.906-6.116.056-.458.131-1.07.549-1.987 2.418-4.74 8.318-6.728 12.141-6.728 9.785 0 14.86 4.74 14.016 11.62l-2.141 17.43c-.338 2.752.431 3.976 1.959 3.976.612 0 1.242-.153 1.586-.459 1.01-.764 1.352-2.293 1.541-2.599h.154c-.76 2.446-2.589 4.893-6.564 4.893-5.504 0-9.048-3.517-9.037-7.339-.644 2.752-3.194 7.339-10.228 7.339-5.504 0-8.571-3.67-7.989-8.41.657-5.351 5.181-8.562 9.727-9.479 3.439-.611 3.86-.306 5.752-.764 1.585-.459 2.977-1.835 4.389-3.364l.844-6.88c.488-3.976-1.14-5.657-4.81-5.657-4.741-.001-10.143 2.904-11.605 7.338zm15.55 5.351c-1.62 1.988-2.784 2.752-4.254 3.517-2.119 1.07-4.026 2.905-4.421 6.116l-.731 5.963c-.395 3.211-.314 5.045 1.673 5.045 2.905 0 5.688-3.975 5.969-6.269l1.764-14.372zM654.854 292.851h-18.959l.02-.153h3.057l3.211-26.146c.601-4.893.215-6.727-1.926-6.727-2.293 0-4.771 2.752-6.159 6.574l-3.229 26.298h3.059l-.018.153h-18.961l.02-.153h5.352l4.036-32.873h-5.352l.019-.153h15.901l-.751 6.116c1.977-4.893 5.126-6.88 8.796-6.88 7.491 0 10.026 5.504 9.2 12.231l-2.666 21.711h5.35v.002zM668.482 276.491c-.656 5.351-1.836 16.207 5.654 16.207 5.963 0 9.775-4.893 11.038-12.69h.153c-1.281 7.95-5.206 13.761-13.921 13.761-8.562 0-15.44-7.492-14.22-17.43 1.126-9.174 9.021-17.43 19.111-17.43 6.115 0 8.817 2.905 9.57 6.728.193.917.118 1.529.062 1.987-.395 3.211-2.738 6.116-6.408 6.116-3.059 0-5.356-2.446-4.962-5.657.375-3.058 3.141-5.657 6.352-5.657 2.446 0 4.515 1.834 4.844 4.128-.351-3.364-2.462-7.339-8.425-7.339-6.114-.001-7.664 7.644-8.848 17.276zM683.904 292.851l5.369-.153 4.037-32.873h-5.352l.019-.153h15.901l-4.055 33.026h5.352l-.02.153h-21.251zm16.82-51.067c3.211 0 5.356 2.446 4.963 5.657-.395 3.211-3.122 5.504-6.333 5.504s-5.203-2.446-4.828-5.504 2.987-5.657 6.198-5.657zM746.744 292.851h-18.959l.02-.153h3.057l3.211-26.146c.601-4.893.215-6.727-1.926-6.727-2.294 0-4.772 2.752-6.159 6.574l-3.229 26.298h3.059l-.02.153h-18.959l.02-.153h5.352l4.036-32.873h-5.352l.019-.153h15.901l-.751 6.116c1.977-4.893 5.126-6.88 8.795-6.88 7.492 0 10.027 5.504 9.201 12.231l-2.666 21.711h5.35v.002zM756.553 277.714c-1.278.458-2.883 1.07-3.09 2.752-.094.765.31 1.223 1.17 1.682 1.147.611 4.15 1.07 10.075 1.376 12.749.764 15.818 5.657 14.954 12.69-.92 7.492-8.629 12.996-17.955 12.996-11.162 0-16.103-4.587-15.539-9.174.545-4.434 4.343-6.728 8.852-7.339-3.538-1.07-6.18-3.211-5.617-7.798.296-3.668 3.025-5.961 7.15-7.185-2.508-1.988-3.68-4.893-3.285-8.104.731-5.963 6.665-10.703 14.31-10.703 5.198 0 9.064 2.141 10.792 5.504 1.09-.153 7.66-1.376 8.393-7.339.545-4.434-1.848-6.116-3.895-6.88 1.703 1.07 2.854 2.905 2.572 5.199-.375 3.058-3.294 5.657-6.505 5.657s-5.338-2.6-4.962-5.657c.394-3.211 3.159-5.81 6.37-5.81.153 0 .918 0 1.356.153 1.933.458 5.91 1.682 5.216 7.339-.714 5.81-7.151 7.186-8.564 7.492.882 1.529 1.134 3.21.909 5.045-.732 5.963-6.665 10.703-14.311 10.703-3.516 0-6.289-1.07-8.396-2.599zm-.942 15.137c-1.794.917-3.891 3.058-4.359 6.88-.564 4.587 3.288 9.326 10.321 9.326 6.422 0 11.671-2.904 12.234-7.492.487-3.975-1.733-5.81-9.229-7.033-2.522-.611-6.002-.917-8.967-1.681zm15.393-23.24c1.107-9.021-.999-10.55-3.445-10.55s-4.927 1.529-6.035 10.55c-1.107 9.021.998 10.55 3.444 10.55s4.928-1.529 6.036-10.55zM82.741 372.356l5.371-.152 4.036-32.873h-5.352l.019-.152h15.901l-4.055 33.025h5.351l-.019.152h-21.252zm16.821-51.067c3.211 0 5.356 2.447 4.962 5.657-.394 3.211-3.122 5.505-6.333 5.505s-5.204-2.446-4.829-5.505c.376-3.057 2.989-5.657 6.2-5.657zM109.857 370.675c-1.376 0-2.883 1.07-3.471 3.364h-.153l2.065-16.819h.153c-.579 5.963 3.38 16.055 10.566 16.055 2.905 0 4.965-1.835 5.341-4.893.976-7.951-17.025-7.033-15.467-19.724.601-4.893 5.386-10.244 11.349-10.244 3.363 0 6.121 2.446 8.72 2.446.917 0 1.604-.611 1.83-2.446h.153l-1.633 13.302h-.153c.126-3.517-2.208-13.149-8.936-13.149-3.058 0-5.48 2.294-5.818 5.046-.882 7.187 17.865 6.422 16.288 19.265-.732 5.963-5.729 10.55-11.845 10.55-3.975-.001-5.778-2.753-8.989-2.753zM159.076 373.274c-8.409 0-15.67-8.104-14.525-17.431 1.145-9.326 10.396-17.43 18.805-17.43s15.671 8.104 14.526 17.43c-1.126 9.175-10.397 17.431-18.806 17.431zm4.262-34.708c-5.198 0-6.309 7.798-7.472 17.277-1.164 9.479-1.969 17.277 3.229 17.277 5.199 0 6.309-7.798 7.473-17.277 1.164-9.479 1.969-17.277-3.23-17.277zM216.066 372.356h-18.959l.019-.152h3.058l3.21-26.146c.601-4.893.215-6.728-1.926-6.728-2.293 0-4.772 2.752-6.159 6.575l-3.229 26.298h3.058l-.019.152h-18.959l.019-.152h5.351l4.036-32.873h-5.351l.019-.152h15.901l-.75 6.115c1.977-4.893 5.126-6.88 8.795-6.88 7.492 0 10.027 5.504 9.201 12.231l-2.666 21.711h5.351v.001zM229.733 355.691l-.225 1.834c-1.126 9.174-1.344 14.679 5.384 14.679 6.116 0 10.77-4.281 13.333-11.468h.153c-2.639 7.798-7.808 12.538-16.064 12.538-8.409 0-14.906-8.104-13.761-17.431 1.145-9.326 9.632-17.43 18.041-17.43 8.562 0 14.313 7.95 13.15 17.43h-20.029l.018-.152zm.544-4.434l-.544 4.435h8.562c1.821-14.831 1.491-17.125-1.873-17.125-4.281-.001-5.206 5.045-6.145 12.69zM276.348 373.274c-8.409 0-15.671-8.104-14.525-17.431 1.145-9.326 10.396-17.43 18.806-17.43s15.671 8.104 14.526 17.43c-1.128 9.175-10.398 17.431-18.807 17.431zm4.261-34.708c-5.198 0-6.309 7.798-7.472 17.277-1.164 9.479-1.969 17.277 3.229 17.277 5.199 0 6.309-7.798 7.473-17.277 1.164-9.479 1.969-17.277-3.23-17.277zM328.176 328.476c.193.917.118 1.529.062 1.987-.395 3.211-2.739 6.116-6.408 6.116-3.058 0-5.356-2.446-4.962-5.657.375-3.058 3.141-5.657 6.351-5.657 2.446 0 4.515 1.835 4.845 4.128-.18-3.517-2.669-5.656-6.033-5.656-1.988 0-3.573.458-4.737 1.223-1.66 1.07-2.479 2.752-2.76 5.046l-1.126 9.174h5.352l-.019.152h-5.352l-4.036 32.873h5.352l-.019.152h-21.252l.019-.152h5.352l4.036-32.873h-5.352l.019-.152h5.352l.526-4.281c.789-6.422 7.848-11.62 16.104-11.62 4.737-.002 7.95 1.221 8.686 5.197zM353.752 339.331l-3.511 28.592c-.225 1.835.371 3.211 1.899 3.211 2.141 0 2.747-2.446 3.009-4.587l.901-7.339h.153l-.92 7.491c-.469 3.822-2.317 6.422-7.057 6.422-6.422 0-8.82-4.128-8.05-10.396l2.873-23.394h-5.199l.019-.152h1.682c7.797 0 14.533-5.046 15.622-13.914h.153l-1.727 14.066 6.593-.152-.019.152h-6.421zM396.483 372.356h-18.959l.019-.152h3.058l3.21-26.146c.601-4.893.215-6.728-1.926-6.728-2.293 0-4.772 2.752-6.159 6.575l-3.229 26.298h3.058l-.019.152h-18.959l.019-.152h5.351l5.895-48.01h-5.351l.019-.152h15.901l-2.609 21.252c1.977-4.893 5.126-6.88 8.796-6.88 7.491 0 10.026 5.504 9.2 12.231l-2.666 21.711h5.351v.001zM410.15 355.691l-.226 1.834c-1.126 9.174-1.343 14.679 5.384 14.679 6.115 0 10.77-4.281 13.334-11.468h.152c-2.639 7.798-7.808 12.538-16.064 12.538-8.409 0-14.906-8.104-13.76-17.431 1.145-9.326 9.631-17.43 18.04-17.43 8.562 0 14.313 7.95 13.149 17.43h-20.029l.02-.152zm.544-4.434l-.544 4.435h8.562c1.82-14.831 1.49-17.125-1.873-17.125-4.28-.001-5.206 5.045-6.145 12.69zM464.828 372.356h-16.207l.02-.152h2.904l3.491-28.438c.263-2.141.239-4.435-1.901-4.435-2.447 0-5.172 3.517-6.158 6.575l-3.229 26.298h2.598l-.019.152h-17.889l.019-.152h4.588l4.035-32.873h-4.586l.018-.152h15.291l-.751 6.115c1.977-4.893 5.278-6.88 8.795-6.88 5.504 0 7.899 2.904 8.788 6.88 1.977-4.893 5.737-6.88 9.254-6.88 7.491 0 10.026 5.504 9.2 12.231l-2.666 21.711h4.587l-.019.153h-18.194l.019-.153h2.905l3.211-26.145c.6-4.894.366-6.728-1.928-6.728-2.752 0-5.439 3.211-6.579 6.269.271 1.529.37 3.211.164 4.893l-2.666 21.711h2.905zM493.645 361.807c3.059 0 5.204 2.446 4.828 5.505-.375 3.058-3.141 5.657-6.199 5.657s-5.356-2.447-4.963-5.657c.376-3.059 3.275-5.505 6.334-5.505z"/></g><path fill="#333" d="M0 148.67c0-13.455 9.174-34.555 33.484-46.786l3.21 5.198c-16.666 11.62-21.1 26.145-21.405 33.025 6.269.765 12.385 6.728 12.385 13.149 0 7.492-6.422 13.149-13.149 13.149-7.797.154-14.525-6.114-14.525-17.735zm43.422 0c0-13.455 9.174-34.555 33.484-46.786l3.21 5.198c-16.666 11.62-21.1 26.145-21.405 33.025 6.269.765 12.385 6.728 12.385 13.149 0 7.492-6.422 13.149-13.149 13.149-7.797.154-14.525-6.114-14.525-17.735z"/></svg>