<?xml version="1.0" encoding="utf-8"?>
<!-- Generator: Adobe Illustrator 18.1.0, SVG Export Plug-In . SVG Version: 6.00 Build 0)  -->
<svg version="1.1" id="Layer_1" xmlns="http://www.w3.org/2000/svg" xmlns:xlink="http://www.w3.org/1999/xlink" x="0px" y="0px"
	 viewBox="0 0 365 333" enable-background="new 0 0 365 333" xml:space="preserve">
<g>
	<path fill="#FFFFFF" d="M65,327c-0.2,0.9-0.7,1.6-1.5,1.6c-1,0-1.6-1.5-2.5-1.5c-0.5,0-0.9,0.4-1,1.2l-0.5-0.5
		c0.1-0.8,0.7-1.6,1.5-1.6c1.1,0,1.8,1.5,2.6,1.5c0.6,0,0.8-0.5,1-1.2L65,327z"/>
	<path fill="#FFFFFF" d="M69.8,320.9H71l3.5,10.6l3.7-10.6h1.2l-4.3,11.8h-1.4L69.8,320.9z"/>
	<path fill="#FFFFFF" d="M81.9,320.3c0.4,0,0.7,0.2,0.7,0.7c0,0.5-0.3,0.7-0.7,0.7c-0.5,0-0.8-0.2-0.8-0.7
		C81.1,320.5,81.4,320.3,81.9,320.3z M81.3,332.6v-9.1h1.1v9.1H81.3z"/>
	<path fill="#FFFFFF" d="M88.9,331.8c1.1,0,1.8-0.4,2.4-1.1l0.6,0.8c-0.7,0.8-1.6,1.3-2.9,1.3c-2.4,0-4.1-1.9-4.1-4.8
		c0-2.9,1.6-4.8,4.1-4.8c1.3,0,2.2,0.5,2.9,1.3l-0.6,0.8c-0.6-0.7-1.3-1.1-2.4-1.1c-1.8,0-2.9,1.4-2.9,3.7
		C86,330.4,87.1,331.8,88.9,331.8z"/>
	<path fill="#FFFFFF" d="M100.4,323.8l-4.1,4.1l4.3,4.6v0.2h-1.4l-4-4.5v4.5h-1.1v-12.3h1.1v7.2l3.9-4h1.3V323.8z"/>
	<path fill="#FFFFFF" d="M103.2,320.3c0.4,0,0.7,0.2,0.7,0.7c0,0.5-0.3,0.7-0.7,0.7c-0.5,0-0.8-0.2-0.8-0.7
		C102.4,320.5,102.7,320.3,103.2,320.3z M102.6,332.6v-9.1h1.1v9.1H102.6z"/>
	<path fill="#FFFFFF" d="M110.3,320.9h3.6c2.1,0,3.3,1,3.3,3c0,1.4-0.7,2.2-1.8,2.6c1.6,0.3,2.6,1.2,2.6,3c0,1.9-1.2,3.1-3.4,3.1
		h-4.3V320.9z M111.5,326.1h2.3c1.5,0,2.4-0.7,2.4-2.1c0-1.5-0.8-2.1-2.3-2.1h-2.4V326.1z M111.5,331.6h3.1c1.6,0,2.4-0.8,2.4-2.2
		c0-1.6-1-2.3-2.7-2.3h-2.7V331.6z"/>
	<path fill="#FFFFFF" d="M125.5,332.6v-1c-0.6,0.6-1.5,1.1-2.8,1.1c-1.8,0-2.9-1.1-2.9-2.8c0-2.2,1.8-3.2,4.1-3.2
		c0.5,0,1.1,0.1,1.6,0.2v-0.4c0-1.5-0.8-2.2-2.2-2.2c-0.9,0-1.8,0.2-2.5,0.6l-0.2-1c0.8-0.4,2-0.6,2.9-0.6c2,0,3.1,1.1,3.1,3.3v6
		H125.5z M123,331.9c1.2,0,2-0.6,2.4-1.1v-2.8c-0.3-0.1-1-0.2-1.5-0.2c-1.7,0-3,0.7-3,2.2C120.9,331.2,121.8,331.9,123,331.9z"/>
	<path fill="#FFFFFF" d="M130.4,323.6v5.5c0,1.7,0.7,2.7,2.3,2.7c1.4,0,2.3-1,2.6-2.1v-6h1.1v9.1h-1.1v-1.5c-0.6,1-1.6,1.7-3,1.7
		c-2,0-3.1-1.3-3.1-3.6v-5.7H130.4z"/>
	<path fill="#FFFFFF" d="M150.8,332.6V327c0-1.7-0.7-2.5-2.2-2.5c-1.2,0-1.9,0.8-2.3,2c0,0.1,0,0.3,0,0.4v5.8h-1.1V327
		c0-1.7-0.8-2.5-2.2-2.5c-1.4,0-2.1,0.9-2.5,2.1v6.1h-1.1v-9.1h1.1v1.5c0.6-1.1,1.5-1.6,2.8-1.6c1.4,0,2.3,0.6,2.7,1.8
		c0.5-1.1,1.4-1.8,2.8-1.8c2.1,0,3,1.2,3,3.4v5.8H150.8z"/>
</g>
<g>
	<path fill="#333333" d="M317,284.2c9.8-6.9,12.4-15.4,12.6-19.5c-3.7-0.4-7.3-3.9-7.3-7.8c0-4.4,3.8-7.8,7.8-7.8
		c4.7,0,8.6,3.7,8.6,10.5c0,7.9-5.4,20.3-19.8,27.5L317,284.2z M342.6,284.2c9.8-6.9,12.4-15.4,12.6-19.5c-3.7-0.4-7.3-3.9-7.3-7.8
		c0-4.4,3.8-7.8,7.8-7.8c4.7,0,8.6,3.7,8.6,10.5c0,7.9-5.4,20.3-19.8,27.5L342.6,284.2z"/>
</g>
<g>
	<path fill="#FFFFFF" d="M81.9,38.3v10.8h-0.1c0-4.3-1.9-10.3-7.4-10.8v27.1h3.4v0.1H64.4v-0.1h3.4V38.4c-5.5,0.5-7.4,6.5-7.4,10.8
		h-0.1V38.3H81.9z"/>
	<path fill="#FFFFFF" d="M105.2,65.6H94.1v-0.1h1.8V50.2c0-2.9-0.4-4-1.6-4c-1.4,0-2.6,1.6-3.1,3.9v15.5h1.8v0.1H81.7v-0.1h3.1V37.3
		h-3.1v-0.1h9.4v12.5c0.8-2.9,2.5-4.1,4.7-4.1c4.4,0,6.3,3.2,6.3,7.2v12.8L105.2,65.6L105.2,65.6z"/>
	<path fill="#FFFFFF" d="M112.1,55.8v1.1c0,5.4,0.2,8.6,4.3,8.6c3.6,0,6-2.5,7-6.8h0.1c-1,4.6-3.7,7.4-8.6,7.4
		c-5,0-9.4-4.8-9.4-10.3c0-5.5,4.4-10.3,9.4-10.3c5.1,0,9,4.7,9,10.2H112.1z M112.1,53.2v2.6h5.1c0-8.7-0.4-10.1-2.3-10.1
		C112.3,45.7,112.1,48.6,112.1,53.2z"/>
	<path fill="#FFFFFF" d="M124,65.6L124,65.6l3.1-0.1V46.2H124v-0.1h9.4v1.6c0.8-1.1,1.9-2.1,3.8-2.1c1.4,0,3.5,0.8,4.1,3.1
		c0.2,0.5,0.2,0.9,0.2,1.2c0,1.9-1.1,3.6-3.3,3.6c-1.8,0-3.3-1.5-3.3-3.3s1.5-3.3,3.3-3.3c1.5,0,2.8,1.1,3.2,2.5
		c-0.2-1.7-1.7-3.6-4.2-3.6c-1.9,0-3,0.9-3.8,2.1v17.6h3.1v0.1H124z"/>
	<path fill="#FFFFFF" d="M148.9,55.8v1.1c0,5.4,0.2,8.6,4.3,8.6c3.6,0,6-2.5,7-6.8h0.1c-1,4.6-3.7,7.4-8.6,7.4
		c-5,0-9.4-4.8-9.4-10.3c0-5.5,4.4-10.3,9.4-10.3c5.1,0,9,4.7,9,10.2H148.9z M148.9,53.2v2.6h5.1c0-8.7-0.4-10.1-2.3-10.1
		C149.1,45.7,148.9,48.6,148.9,53.2z"/>
	<path fill="#FFFFFF" d="M169.3,50.1c0.4-1.4,1.8-2.5,3.2-2.5c1.8,0,3.3,1.5,3.3,3.3c0,1.8-1.5,3.3-3.3,3.3c-2.2,0-3.3-1.7-3.3-3.6
		c0-0.3,0-0.6,0.2-1.2c1.1-2.8,4.4-3.9,6.6-3.9c5.8,0,9.1,2.8,9.1,6.9v10.3c0,1.6,0.5,2.3,1.5,2.3c0.4,0,0.7-0.1,0.9-0.3
		c0.5-0.5,0.7-1.3,0.7-1.6h0.1c-0.3,1.4-1.1,2.9-3.5,2.9c-3.3,0-5.6-2.1-5.9-4.3c-0.2,1.6-1.4,4.3-5.5,4.3c-3.3,0-5.3-2.1-5.3-5
		c0-3.1,2.4-5.1,5-5.6c2-0.4,2.2-0.1,3.3-0.4c0.9-0.2,1.6-1.1,2.3-2v-4c0-2.3-1.1-3.3-3.3-3.3C172.9,45.8,169.9,47.5,169.3,50.1z
		 M178.9,53.3c-0.8,1.2-1.4,1.6-2.3,2.1c-1.2,0.7-2.1,1.7-2.1,3.6v3.5c0,1.9,0.2,3,1.3,3c1.8,0,3.1-2.3,3.1-3.7V53.3z"/>
	<path fill="#FFFFFF" d="M189,65.6L189,65.6l3.1-0.1V46.2H189v-0.1h9.4v1.6c0.8-1.1,1.9-2.1,3.8-2.1c1.4,0,3.5,0.8,4.1,3.1
		c0.2,0.5,0.2,0.9,0.2,1.2c0,1.9-1.1,3.6-3.3,3.6c-1.8,0-3.3-1.5-3.3-3.3s1.5-3.3,3.3-3.3c1.5,0,2.8,1.1,3.2,2.5
		c-0.2-1.7-1.7-3.6-4.2-3.6c-1.9,0-3,0.9-3.8,2.1v17.6h3.1v0.1H189z"/>
	<path fill="#FFFFFF" d="M213.9,55.8v1.1c0,5.4,0.2,8.6,4.3,8.6c3.6,0,6-2.5,7-6.8h0.1c-1,4.6-3.7,7.4-8.6,7.4
		c-5,0-9.4-4.8-9.4-10.3c0-5.5,4.4-10.3,9.4-10.3c5.1,0,9,4.7,9,10.2H213.9z M213.9,53.2v2.6h5.1c0-8.7-0.4-10.1-2.3-10.1
		C214.1,45.7,213.9,48.6,213.9,53.2z"/>
	<path fill="#FFFFFF" d="M62.8,111.4c-0.8,0-1.6,0.7-1.8,2h-0.1v-9.9h0.1c0.1,3.5,3.2,9.4,7.4,9.4c1.7,0,2.8-1.1,2.8-2.9
		c0-4.7-10.5-4.2-10.5-11.6c0-2.9,2.4-6,5.9-6c2,0,3.8,1.4,5.3,1.4c0.5,0,0.9-0.4,0.9-1.4h0.1v7.8h-0.1c-0.2-2.1-2.2-7.7-6.2-7.7
		c-1.8,0-3,1.3-3,2.9c0,4.3,11,3.8,11,11.3c0,3.5-2.6,6.2-6.2,6.2C66,113,64.7,111.4,62.8,111.4z"/>
	<path fill="#FFFFFF" d="M98.5,112.4H87.4v-0.1h1.8V97c0-2.9-0.4-4-1.6-4c-1.4,0-2.6,1.6-3.1,3.9v15.5h1.8v0.1H75.1v-0.1h3.1V84.1
		h-3.1V84h9.4v12.5c0.8-2.9,2.5-4.1,4.7-4.1c4.4,0,6.3,3.2,6.3,7.2v12.8L98.5,112.4L98.5,112.4z"/>
	<path fill="#FFFFFF" d="M108.4,112.9c-5,0-9.8-4.8-9.8-10.3c0-5.5,4.8-10.3,9.8-10.3s9.8,4.8,9.8,10.3
		C118.2,108.1,113.3,112.9,108.4,112.9z M108.4,92.5c-3,0-3.1,4.6-3.1,10.2s0.1,10.2,3.1,10.2s3.2-4.6,3.2-10.2
		S111.4,92.5,108.4,92.5z"/>
	<path fill="#FFFFFF" d="M118.5,112.4L118.5,112.4l3.1-0.1V93h-3.1v-0.1h9.4v1.6c0.8-1.1,1.9-2.1,3.8-2.1c1.4,0,3.5,0.8,4.1,3.1
		c0.2,0.5,0.2,0.9,0.2,1.2c0,1.9-1.1,3.6-3.3,3.6c-1.8,0-3.3-1.5-3.3-3.3s1.5-3.3,3.3-3.3c1.5,0,2.8,1.1,3.2,2.5
		c-0.2-1.7-1.7-3.6-4.2-3.6c-1.9,0-3,0.9-3.8,2.1v17.6h3.1v0.1H118.5z"/>
	<path fill="#FFFFFF" d="M145.5,93v16.8c0,1.1,0.4,1.9,1.4,1.9c1.2,0,1.5-1.4,1.5-2.7v-4.3h0.1v4.4c0,2.3-0.9,3.8-3.7,3.8
		c-3.7,0-5.5-2.5-5.5-6.2V93h-3.1v-0.1h1c4.6,0,8.2-2.9,8.2-8.2h0.1V93l3.9-0.1V93H145.5z"/>
	<path fill="#FFFFFF" d="M150.3,101h10.1v0.1L150.3,101L150.3,101z"/>
	<path fill="#FFFFFF" d="M169.3,102.7c0,3.2,0.1,9.6,4.5,9.6c3.5,0,5.4-2.8,5.6-7.5h0.1c-0.2,4.7-2.1,8.1-7.2,8.1
		c-5.1,0-9.6-4.4-9.6-10.3c0-5.4,4.1-10.3,9.9-10.3c3.6,0,5.4,1.7,6.1,3.9c0.2,0.5,0.2,0.9,0.2,1.2c0,1.9-1.1,3.6-3.3,3.6
		c-1.8,0-3.3-1.5-3.3-3.3s1.5-3.3,3.3-3.3c1.4,0,2.8,1.1,3.2,2.5c-0.4-2-2-4.3-5.5-4.3C169.7,92.6,169.3,97.1,169.3,102.7z"/>
	<path fill="#FFFFFF" d="M179.1,92.9h9.4v15.4c0,2.9,0.4,4,1.6,4c1.4,0,2.6-1.6,3.1-3.9V93h-1.8v-0.1h8v19.4h3.1v0.1h-9.4v-3.6
		c-0.8,2.9-2.5,4.1-4.7,4.1c-4.4,0-6.3-3.2-6.3-7.2V93L179.1,92.9L179.1,92.9z"/>
	<path fill="#FFFFFF" d="M211.3,93v16.8c0,1.1,0.4,1.9,1.4,1.9c1.2,0,1.5-1.4,1.5-2.7v-4.3h0.1v4.4c0,2.3-0.9,3.8-3.7,3.8
		c-3.7,0-5.5-2.5-5.5-6.2V93H202v-0.1h1c4.6,0,8.2-2.9,8.2-8.2h0.1V93l3.9-0.1V93H211.3z"/>
	<path fill="#FFFFFF" d="M218.7,111.4c-0.8,0-1.6,0.7-1.8,2h-0.1v-9.9h0.1c0.1,3.5,3.2,9.4,7.4,9.4c1.7,0,2.8-1.1,2.8-2.9
		c0-4.7-10.5-4.2-10.5-11.6c0-2.9,2.4-6,5.9-6c2,0,3.8,1.4,5.3,1.4c0.5,0,0.9-0.4,0.9-1.4h0.1v7.8h-0.1c-0.2-2.1-2.2-7.7-6.2-7.7
		c-1.8,0-3,1.3-3,2.9c0,4.3,11,3.8,11,11.3c0,3.5-2.6,6.2-6.2,6.2C221.9,113,220.6,111.4,218.7,111.4z"/>
	<path fill="#FFFFFF" d="M246.9,93v16.8c0,1.1,0.4,1.9,1.4,1.9c1.2,0,1.5-1.4,1.5-2.7v-4.3h0.1v4.4c0,2.3-0.9,3.8-3.7,3.8
		c-3.7,0-5.5-2.5-5.5-6.2V93h-3.1v-0.1h1c4.6,0,8.2-2.9,8.2-8.2h0.1V93l3.9-0.1V93H246.9z"/>
	<path fill="#FFFFFF" d="M261.3,112.9c-5,0-9.8-4.8-9.8-10.3c0-5.5,4.8-10.3,9.8-10.3s9.8,4.8,9.8,10.3
		C271.1,108.1,266.2,112.9,261.3,112.9z M261.3,92.5c-3,0-3.1,4.6-3.1,10.2s0.1,10.2,3.1,10.2s3.2-4.6,3.2-10.2
		S264.3,92.5,261.3,92.5z"/>
	<path fill="#FFFFFF" d="M83.5,159.2H72.3v-0.1h1.8v-15.4c0-2.9-0.4-4-1.6-4c-1.4,0-2.6,1.6-3.1,3.9v15.5h1.8v0.1H60v-0.1h3.1v-28.2
		H60v-0.1h9.4v12.5c0.8-2.9,2.5-4.1,4.7-4.1c4.4,0,6.3,3.2,6.3,7.2v12.8L83.5,159.2L83.5,159.2z"/>
	<path fill="#FFFFFF" d="M85.2,143.7c0.4-1.4,1.8-2.5,3.2-2.5c1.8,0,3.3,1.5,3.3,3.3c0,1.8-1.5,3.3-3.3,3.3c-2.2,0-3.3-1.7-3.3-3.6
		c0-0.3,0-0.6,0.2-1.2c1.1-2.8,4.4-3.9,6.6-3.9c5.8,0,9.1,2.8,9.1,6.9v10.3c0,1.6,0.5,2.3,1.5,2.3c0.4,0,0.7-0.1,0.9-0.3
		c0.5-0.5,0.7-1.3,0.7-1.6h0.1c-0.3,1.4-1.1,2.9-3.5,2.9c-3.3,0-5.6-2.1-5.9-4.3c-0.2,1.6-1.4,4.3-5.5,4.3c-3.3,0-5.3-2.1-5.3-5
		c0-3.1,2.4-5.1,5-5.6c2-0.4,2.2-0.1,3.3-0.4c0.9-0.2,1.6-1.1,2.3-2v-4c0-2.3-1.1-3.3-3.3-3.3C88.8,139.4,85.8,141.1,85.2,143.7z
		 M94.8,146.9c-0.8,1.2-1.4,1.6-2.3,2.1c-1.2,0.7-2.1,1.7-2.1,3.6v3.5c0,1.9,0.2,3,1.3,3c1.8,0,3.1-2.3,3.1-3.7V146.9z"/>
	<path fill="#FFFFFF" d="M112.9,168.2h3.1v0.1h-12.5v-0.1h3.1v-28.4h-3.1v-0.1h9.4v3.6c0.8-2.9,2.5-4.1,4.7-4.1
		c3.7,0,7.5,4.3,7.5,10.3c0,5.9-3.8,10.3-7.5,10.3c-2.1,0-3.9-1.2-4.7-4.1V168.2z M112.9,155.3c0.5,2.2,1.8,3.9,3.1,3.9
		c1.8,0,2.5-1.9,2.5-7.5v-4.3c0-5.7-0.6-7.5-2.5-7.5c-1.4,0-2.6,1.6-3.1,3.9V155.3z"/>
	<path fill="#FFFFFF" d="M134.9,168.2h3.1v0.1h-12.5v-0.1h3.1v-28.4h-3.1v-0.1h9.4v3.6c0.8-2.9,2.5-4.1,4.7-4.1
		c3.7,0,7.5,4.3,7.5,10.3c0,5.9-3.8,10.3-7.5,10.3c-2.1,0-3.9-1.2-4.7-4.1V168.2z M134.9,155.3c0.5,2.2,1.8,3.9,3.1,3.9
		c1.8,0,2.5-1.9,2.5-7.5v-4.3c0-5.7-0.6-7.5-2.5-7.5c-1.4,0-2.6,1.6-3.1,3.9V155.3z"/>
	<path fill="#FFFFFF" d="M147.5,159.2L147.5,159.2l3.1-0.1v-19.3h-3.1v-0.1h9.4v19.4h3.1v0.1H147.5z M153.8,129.1
		c1.9,0,3.3,1.4,3.3,3.3s-1.4,3.3-3.3,3.3s-3.3-1.4-3.3-3.3S151.9,129.1,153.8,129.1z"/>
	<path fill="#FFFFFF" d="M184.6,159.2h-11.2v-0.1h1.8v-15.4c0-2.9-0.4-4-1.6-4c-1.4,0-2.6,1.6-3.1,3.9v15.5h1.8v0.1h-11.2v-0.1h3.1
		v-19.3h-3.1v-0.1h9.4v3.6c0.8-2.9,2.5-4.1,4.7-4.1c4.4,0,6.3,3.2,6.3,7.2v12.8L184.6,159.2L184.6,159.2z"/>
	<path fill="#FFFFFF" d="M191.5,149.4v1.1c0,5.4,0.2,8.6,4.3,8.6c3.6,0,6-2.5,7-6.8h0.1c-1,4.6-3.7,7.4-8.6,7.4
		c-5,0-9.4-4.8-9.4-10.3c0-5.5,4.4-10.3,9.4-10.3c5.1,0,9,4.7,9,10.2H191.5z M191.5,146.8v2.6h5.1c0-8.7-0.4-10.1-2.3-10.1
		C191.7,139.3,191.5,142.3,191.5,146.8z"/>
	<path fill="#FFFFFF" d="M207.2,158.2c-0.8,0-1.6,0.7-1.8,2h-0.1v-9.9h0.1c0.1,3.5,3.2,9.4,7.4,9.4c1.7,0,2.8-1.1,2.8-2.9
		c0-4.7-10.5-4.2-10.5-11.6c0-2.9,2.4-6,5.9-6c2,0,3.8,1.4,5.3,1.4c0.5,0,0.9-0.4,0.9-1.4h0.1v7.8h-0.1c-0.2-2.1-2.2-7.7-6.2-7.7
		c-1.8,0-3,1.3-3,2.9c0,4.3,11,3.8,11,11.3c0,3.5-2.6,6.2-6.2,6.2C210.4,159.8,209.1,158.2,207.2,158.2z"/>
	<path fill="#FFFFFF" d="M223.3,158.2c-0.8,0-1.6,0.7-1.8,2h-0.1v-9.9h0.1c0.1,3.5,3.2,9.4,7.4,9.4c1.7,0,2.8-1.1,2.8-2.9
		c0-4.7-10.5-4.2-10.5-11.6c0-2.9,2.4-6,5.9-6c2,0,3.8,1.4,5.3,1.4c0.5,0,0.9-0.4,0.9-1.4h0.1v7.8h-0.1c-0.2-2.1-2.2-7.7-6.2-7.7
		c-1.8,0-3,1.3-3,2.9c0,4.3,11,3.8,11,11.3c0,3.5-2.6,6.2-6.2,6.2C226.5,159.8,225.2,158.2,223.3,158.2z"/>
	<path fill="#FFFFFF" d="M239.3,161.8c3.1-0.5,4.4-2.1,4.6-4.7c-0.3,1.4-1.7,2.5-3.2,2.5c-1.8,0-3.3-1.5-3.3-3.3s1.5-3.3,3.3-3.3
		c2.2,0,3.3,1.7,3.3,3.6C244,159.3,242.7,161.4,239.3,161.8L239.3,161.8z"/>
	<path fill="#FFFFFF" d="M61.7,190.5c0.4-1.4,1.8-2.5,3.2-2.5c1.8,0,3.3,1.5,3.3,3.3s-1.5,3.3-3.3,3.3c-2.2,0-3.3-1.7-3.3-3.6
		c0-0.3,0-0.6,0.2-1.2c1.1-2.8,4.4-3.9,6.6-3.9c5.8,0,9.1,2.8,9.1,6.9v10.3c0,1.6,0.5,2.3,1.5,2.3c0.4,0,0.7-0.1,0.9-0.3
		c0.5-0.5,0.7-1.3,0.7-1.6h0.1c-0.3,1.4-1.1,2.9-3.5,2.9c-3.3,0-5.6-2.1-5.9-4.3c-0.2,1.6-1.4,4.3-5.5,4.3c-3.3,0-5.3-2.1-5.3-5
		c0-3.1,2.4-5.1,5-5.6c2-0.4,2.2-0.1,3.3-0.4c0.9-0.2,1.6-1.1,2.3-2v-4c0-2.3-1.1-3.3-3.3-3.3C65.3,186.2,62.3,188,61.7,190.5z
		 M71.3,193.7c-0.8,1.2-1.4,1.6-2.3,2.1c-1.2,0.7-2.1,1.7-2.1,3.6v3.5c0,1.9,0.2,3,1.3,3c1.8,0,3.1-2.3,3.1-3.7V193.7z"/>
	<path fill="#FFFFFF" d="M104.8,206H93.7v-0.1h1.8v-15.4c0-2.9-0.4-4-1.6-4c-1.4,0-2.6,1.6-3.1,3.9v15.5h1.8v0.1H81.4v-0.1h3.1
		v-19.3h-3.1v-0.1h9.4v3.6c0.8-2.9,2.5-4.1,4.7-4.1c4.4,0,6.3,3.2,6.3,7.2v12.8L104.8,206L104.8,206z"/>
	<path fill="#FFFFFF" d="M117.4,177.7h-3.1v-0.1h9.4v28.3h3.1v0.1h-9.4v-3.6c-0.8,2.9-2.5,4.1-4.7,4.1c-3.7,0-7.5-4.3-7.5-10.3
		c0-5.9,3.8-10.3,7.5-10.3c2.1,0,3.9,1.2,4.7,4.1V177.7z M117.4,190.5c-0.5-2.2-1.8-3.9-3.1-3.9c-1.8,0-2.5,1.9-2.5,7.5v4.3
		c0,5.7,0.6,7.5,2.5,7.5c1.4,0,2.6-1.6,3.1-3.9V190.5z"/>
	<path fill="#FFFFFF" d="M146,177.7h-3.1v-0.1h9.4v28.3h3.1v0.1H146v-3.6c-0.8,2.9-2.5,4.1-4.7,4.1c-3.7,0-7.5-4.3-7.5-10.3
		c0-5.9,3.8-10.3,7.5-10.3c2.1,0,3.9,1.2,4.7,4.1V177.7z M146,190.5c-0.5-2.2-1.8-3.9-3.1-3.9c-1.8,0-2.5,1.9-2.5,7.5v4.3
		c0,5.7,0.6,7.5,2.5,7.5c1.4,0,2.6-1.6,3.1-3.9V190.5z"/>
	<path fill="#FFFFFF" d="M157.2,190.5c0.4-1.4,1.8-2.5,3.2-2.5c1.8,0,3.3,1.5,3.3,3.3s-1.5,3.3-3.3,3.3c-2.2,0-3.3-1.7-3.3-3.6
		c0-0.3,0-0.6,0.2-1.2c1.1-2.8,4.4-3.9,6.6-3.9c5.8,0,9.1,2.8,9.1,6.9v10.3c0,1.6,0.5,2.3,1.5,2.3c0.4,0,0.7-0.1,0.9-0.3
		c0.5-0.5,0.7-1.3,0.7-1.6h0.1c-0.3,1.4-1.1,2.9-3.5,2.9c-3.3,0-5.6-2.1-5.9-4.3c-0.2,1.6-1.4,4.3-5.5,4.3c-3.3,0-5.3-2.1-5.3-5
		c0-3.1,2.4-5.1,5-5.6c2-0.4,2.2-0.1,3.3-0.4c0.9-0.2,1.6-1.1,2.3-2v-4c0-2.3-1.1-3.3-3.3-3.3C160.7,186.2,157.8,188,157.2,190.5z
		 M166.7,193.7c-0.8,1.2-1.4,1.6-2.3,2.1c-1.2,0.7-2.1,1.7-2.1,3.6v3.5c0,1.9,0.2,3,1.3,3c1.8,0,3.1-2.3,3.1-3.7V193.7z"/>
	<path fill="#FFFFFF" d="M200.3,206h-11.2v-0.1h1.8v-15.4c0-2.9-0.4-4-1.6-4c-1.4,0-2.6,1.6-3.1,3.9v15.5h1.8v0.1h-11.2v-0.1h3.1
		v-19.3h-3.1v-0.1h9.4v3.6c0.8-2.9,2.5-4.1,4.7-4.1c4.4,0,6.3,3.2,6.3,7.2v12.8L200.3,206L200.3,206z"/>
	<path fill="#FFFFFF" d="M207.1,196.4c0,3.2,0.1,9.6,4.5,9.6c3.5,0,5.4-2.8,5.6-7.5h0.1c-0.2,4.7-2.1,8.1-7.2,8.1
		c-5.1,0-9.6-4.4-9.6-10.3c0-5.4,4.1-10.3,9.9-10.3c3.6,0,5.4,1.7,6.1,3.9c0.2,0.5,0.2,0.9,0.2,1.2c0,1.9-1.1,3.6-3.3,3.6
		c-1.8,0-3.3-1.5-3.3-3.3s1.5-3.3,3.3-3.3c1.4,0,2.8,1.1,3.2,2.5c-0.4-2-2-4.3-5.5-4.3C207.5,186.2,207.1,190.7,207.1,196.4z"/>
	<path fill="#FFFFFF" d="M217.4,206L217.4,206l3.1-0.1v-19.3h-3.1v-0.1h9.4v19.4h3.1v0.1H217.4z M223.7,175.9c1.9,0,3.3,1.4,3.3,3.3
		s-1.4,3.3-3.3,3.3s-3.3-1.4-3.3-3.3S221.8,175.9,223.7,175.9z"/>
	<path fill="#FFFFFF" d="M254.5,206h-11.2v-0.1h1.8v-15.4c0-2.9-0.4-4-1.6-4c-1.4,0-2.6,1.6-3.1,3.9v15.5h1.8v0.1H231v-0.1h3.1
		v-19.3H231v-0.1h9.4v3.6c0.8-2.9,2.5-4.1,4.7-4.1c4.4,0,6.3,3.2,6.3,7.2v12.8L254.5,206L254.5,206z"/>
	<path fill="#FFFFFF" d="M259.2,197.1c-0.7,0.2-1.6,0.7-1.6,1.6c0,0.4,0.2,0.8,0.8,1c0.7,0.4,2.5,0.6,6,0.8c7.5,0.4,9.8,3.3,9.8,7.4
		c0,4.4-4.1,7.6-9.6,7.6c-6.6,0-9.8-2.7-9.8-5.4c0-2.7,2.1-4,4.6-4.3c-2.1-0.7-3.9-1.9-3.9-4.6C255.4,199.2,256.9,197.8,259.2,197.1
		c-1.6-1.2-2.5-2.9-2.5-4.8c0-3.5,3.2-6.3,7.6-6.3c3,0,5.5,1.3,6.7,3.2c0.6-0.1,4.4-0.8,4.4-4.3c0-2.6-1.6-3.6-2.8-4.1
		c1.1,0.6,1.9,1.7,1.9,3c0,1.8-1.5,3.4-3.4,3.4s-3.4-1.5-3.4-3.4c0-1.9,1.5-3.4,3.4-3.4c0.1,0,0.6,0,0.8,0.1c1.2,0.2,3.6,1,3.6,4.3
		c0,3.4-3.7,4.2-4.5,4.4c0.6,0.9,0.9,1.9,0.9,3c0,3.5-3.2,6.3-7.6,6.3C262.3,198.6,260.6,198,259.2,197.1z M259.7,206
		c-1,0.6-2,1.8-2,4c0,2.7,2.7,5.5,6.7,5.5c3.8,0,6.7-1.7,6.7-4.4c0-2.3-1.4-3.4-6-4.2C263.6,206.7,261.6,206.5,259.7,206z
		 M267.1,192.3c0-5.3-1.3-6.2-2.8-6.2s-2.8,0.9-2.8,6.2s1.3,6.2,2.8,6.2S267.1,197.6,267.1,192.3z"/>
	<path fill="#FFFFFF" d="M60,252.8L60,252.8l3.1-0.1v-19.3H60v-0.1h9.4v19.4h3.1v0.1H60z M66.2,222.7c1.9,0,3.3,1.4,3.3,3.3
		s-1.4,3.3-3.3,3.3S63,227.9,63,226S64.4,222.7,66.2,222.7z"/>
	<path fill="#FFFFFF" d="M75.9,251.8c-0.8,0-1.6,0.7-1.8,2H74v-9.9h0.1c0.1,3.5,3.2,9.4,7.4,9.4c1.7,0,2.8-1.1,2.8-2.9
		c0-4.7-10.5-4.2-10.5-11.6c0-2.9,2.4-6,5.9-6c2,0,3.8,1.4,5.3,1.4c0.5,0,0.9-0.4,0.9-1.4H86v7.8H86c-0.2-2.1-2.2-7.7-6.2-7.7
		c-1.8,0-3,1.3-3,2.9c0,4.3,11,3.8,11,11.3c0,3.5-2.6,6.2-6.2,6.2C79.1,253.4,77.8,251.8,75.9,251.8z"/>
	<path fill="#FFFFFF" d="M105.1,253.3c-5,0-9.8-4.8-9.8-10.3c0-5.5,4.8-10.3,9.8-10.3s9.8,4.8,9.8,10.3
		C114.9,248.5,110,253.3,105.1,253.3z M105.1,232.9c-3,0-3.1,4.6-3.1,10.2s0.1,10.2,3.1,10.2s3.2-4.6,3.2-10.2
		S108.1,232.9,105.1,232.9z"/>
	<path fill="#FFFFFF" d="M138.6,252.8h-11.2v-0.1h1.8v-15.4c0-2.9-0.4-4-1.6-4c-1.4,0-2.6,1.6-3.1,3.9v15.5h1.8v0.1h-11.2v-0.1h3.1
		v-19.3h-3.1v-0.1h9.4v3.6c0.8-2.9,2.5-4.1,4.7-4.1c4.4,0,6.3,3.2,6.3,7.2v12.8L138.6,252.8L138.6,252.8z"/>
	<path fill="#FFFFFF" d="M145.5,243v1.1c0,5.4,0.2,8.6,4.3,8.6c3.6,0,6-2.5,7-6.8h0.1c-1,4.6-3.7,7.4-8.6,7.4c-5,0-9.4-4.8-9.4-10.3
		c0-5.5,4.4-10.3,9.4-10.3c5.1,0,9,4.7,9,10.2H145.5z M145.5,240.4v2.6h5.1c0-8.7-0.4-10.1-2.3-10.1
		C145.7,232.9,145.5,235.9,145.5,240.4z"/>
	<path fill="#FFFFFF" d="M174.2,253.3c-5,0-9.8-4.8-9.8-10.3c0-5.5,4.8-10.3,9.8-10.3s9.8,4.8,9.8,10.3
		C184,248.5,179.2,253.3,174.2,253.3z M174.2,232.9c-3,0-3.1,4.6-3.1,10.2s0.1,10.2,3.1,10.2s3.2-4.6,3.2-10.2
		S177.3,232.9,174.2,232.9z"/>
	<path fill="#FFFFFF" d="M201.6,227c0.2,0.5,0.2,0.9,0.2,1.2c0,1.9-1.1,3.6-3.3,3.6c-1.8,0-3.3-1.5-3.3-3.3s1.5-3.3,3.3-3.3
		c1.4,0,2.8,1.1,3.2,2.5c-0.3-2.1-2-3.3-4-3.3c-1.2,0-2.1,0.3-2.7,0.7c-0.9,0.6-1.3,1.6-1.3,3v5.4h3.1v0.1h-3.1v19.3h3.1v0.1h-12.5
		v-0.1h3.1v-19.3h-3.1v-0.1h3.1v-2.5c0-3.7,3.8-6.9,8.6-6.9C198.8,223.9,200.8,224.7,201.6,227z"/>
	<path fill="#FFFFFF" d="M217.3,233.4v16.8c0,1.1,0.4,1.9,1.4,1.9c1.2,0,1.5-1.4,1.5-2.7v-4.3h0.1v4.4c0,2.3-0.9,3.8-3.7,3.8
		c-3.7,0-5.5-2.5-5.5-6.2v-13.8H208v-0.1h1c4.6,0,8.2-2.9,8.2-8.2h0.1V233.4l3.9-0.1v0.1H217.3z"/>
	<path fill="#FFFFFF" d="M245,252.8h-11.2v-0.1h1.8v-15.4c0-2.9-0.4-4-1.6-4c-1.4,0-2.6,1.6-3.1,3.9v15.5h1.8v0.1h-11.2v-0.1h3.1
		v-28.2h-3.1v-0.1h9.4v12.5c0.8-2.9,2.5-4.1,4.7-4.1c4.4,0,6.3,3.2,6.3,7.2v12.8L245,252.8L245,252.8z"/>
	<path fill="#FFFFFF" d="M251.8,243v1.1c0,5.4,0.2,8.6,4.3,8.6c3.6,0,6-2.5,7-6.8h0.1c-1,4.6-3.7,7.4-8.6,7.4c-5,0-9.4-4.8-9.4-10.3
		c0-5.5,4.4-10.3,9.4-10.3c5.1,0,9,4.7,9,10.2H251.8z M251.8,240.4v2.6h5.1c0-8.7-0.4-10.1-2.3-10.1
		C252,232.9,251.8,235.9,251.8,240.4z"/>
	<path fill="#FFFFFF" d="M285.3,252.8h-9.5v-0.1h1.7V236c0-1.2-0.2-2.6-1.4-2.6c-1.4,0-2.8,2-3.2,3.9v15.4h1.6v0.1h-10.5v-0.1h2.7
		v-19.3h-2.7v-0.1h9v3.6c0.8-2.8,2.6-4.1,4.7-4.1c3.2,0,4.8,1.7,5.7,4.1c0.8-2.8,2.8-4.1,5-4.1c4.4,0,6.3,3.2,6.3,7.2v12.8h2.7v0.1
		h-10.7v-0.1h1.7v-15.4c0-2.9-0.2-4-1.6-4c-1.6,0-3,1.9-3.4,3.7c0.3,0.9,0.4,1.9,0.4,2.9v12.8L285.3,252.8L285.3,252.8z"/>
	<path fill="#FFFFFF" d="M301.5,246.6c1.8,0,3.3,1.5,3.3,3.3c0,1.8-1.5,3.3-3.3,3.3c-1.8,0-3.3-1.5-3.3-3.3
		C298.2,248.1,299.7,246.6,301.5,246.6z"/>
</g>
<g>
	<path fill="#333333" d="M0,27.5C0,19.6,5.4,7.2,19.8,0l1.9,3.1C11.9,9.9,9.2,18.4,9.1,22.5c3.7,0.4,7.3,3.9,7.3,7.8
		c0,4.4-3.8,7.8-7.8,7.8C4,38,0,34.4,0,27.5z M25.6,27.5C25.6,19.6,31,7.2,45.4,0l1.9,3.1c-9.8,6.9-12.4,15.4-12.6,19.5
		c3.7,0.4,7.3,3.9,7.3,7.8c0,4.4-3.8,7.8-7.8,7.8C29.6,38,25.6,34.4,25.6,27.5z"/>
</g>
</svg>
