<?xml version="1.0" encoding="utf-8"?>
<!-- Generator: Adobe Illustrator 18.1.0, SVG Export Plug-In . SVG Version: 6.00 Build 0)  -->
<svg version="1.1" id="Layer_1" xmlns="http://www.w3.org/2000/svg" xmlns:xlink="http://www.w3.org/1999/xlink" x="0px" y="0px"
	 viewBox="377 319 792 430" enable-background="new 377 319 792 430" xml:space="preserve">
<g>
	<path fill="#FFFFFF" d="M489.8,732.5c-0.3,1.6-1.3,2.9-2.7,2.9c-1.9,0-2.9-2.7-4.4-2.7c-0.8,0-1.6,0.6-1.7,2.1l-1-1
		c0.2-1.4,1.1-2.7,2.5-2.7c1.9,0,3.2,2.7,4.6,2.7c1,0,1.4-0.8,1.7-2.1L489.8,732.5L489.8,732.5z M517.8,724.8l-7.3,10.5h-0.5
		l-7.3-10.5v17.5h-2.1v-20.8h1.9l7.5,11l7.6-11h1.9v20.8h-1.7V724.8z M534,742.3v-1.7c-1,1-2.5,2.1-4.9,2.1c-3.2,0-5.1-1.9-5.1-4.9
		c0-4,3.2-5.6,7.3-5.6c1,0,1.9,0.2,2.7,0.3v-0.8c0-2.7-1.4-4-3.8-4c-1.6,0-3.2,0.3-4.4,1.1l-0.5-1.7c1.4-0.6,3.5-1.1,5.1-1.1
		c3.5,0,5.6,2.1,5.6,5.7v10.5H534L534,742.3L534,742.3z M529.7,741c2.1,0,3.5-1.1,4.3-2.1V734c-0.6-0.2-1.7-0.3-2.7-0.3
		c-3,0-5.4,1.1-5.4,4C526.1,739.8,527.7,741,529.7,741L529.7,741z M539.3,745.9c0.6,0.5,1.4,0.8,2.7,0.8c1.7,0,2.5-1.1,3.2-3.2
		l0.5-1.3l-6.5-15.9h2.2l5.2,13.8l4.8-13.8h2.1L547,744c-1,2.9-2.2,4.4-4.9,4.4c-1.3,0-2.4-0.5-3-1L539.3,745.9L539.3,745.9z
		 M565.3,742.3v-1.7c-1,1-2.5,2.1-4.9,2.1c-3.2,0-5.1-1.9-5.1-4.9c0-4,3.2-5.6,7.3-5.6c1,0,1.9,0.2,2.7,0.3v-0.8c0-2.7-1.4-4-3.8-4
		c-1.6,0-3.2,0.3-4.4,1.1l-0.5-1.7c1.4-0.6,3.5-1.1,5.1-1.1c3.5,0,5.6,2.1,5.6,5.7v10.5h-1.9V742.3L565.3,742.3z M561,741
		c2.1,0,3.5-1.1,4.3-2.1V734c-0.6-0.2-1.7-0.3-2.7-0.3c-3,0-5.4,1.1-5.4,4C557.4,739.8,558.8,741,561,741z M583.2,721.5h2.2
		l7.1,20.8h-2.1l-1.7-5.1h-9.5l-1.7,5.1h-2.1L583.2,721.5L583.2,721.5z M580.2,735.6h8.4l-4.1-12.1L580.2,735.6z M606.9,742.3v-9.7
		c0-3-1.3-4.8-4-4.8c-2.4,0-4,1.7-4.6,3.8v10.6h-1.9v-16h1.9v2.7c1-1.9,2.9-3,5.2-3c3.6,0,5.4,2.2,5.4,6.2v10h-2.1V742.3z
		 M619.6,726.1c2.1,0,3.6,1,4.6,2.1v-1.7h2.1v15.2c0,4.8-2.9,6.8-6.2,6.8c-2.9,0-4.4-1.1-5.4-1.6l0.5-1.7c0.8,0.6,2.5,1.7,4.6,1.7
		c2.4,0,4.4-1.3,4.4-4.8v-2.9c-1.1,1.3-2.7,2.1-4.6,2.1c-4,0-6.5-3-6.5-7.6S615.6,726.1,619.6,726.1z M620.1,739.6
		c1.7,0,3.2-1.1,4-2.1v-7.5c-0.8-1-2.1-2.2-4-2.2c-3.2,0-5.2,2.2-5.2,5.9C615,737.2,617,739.6,620.1,739.6L620.1,739.6z M632.3,735
		c0.2,3.5,1.7,6,5.6,6c1.9,0,3.5-0.8,4.6-1.9l0.8,1.6c-1.4,1.3-3.3,2.1-5.7,2.1c-5.1,0-7.1-3.5-7.1-8.4c0-4.9,2.7-8.4,7.1-8.4
		c4.1,0,6,3,6,6.5c0,1-0.2,1.9-0.3,2.5H632.3L632.3,735z M641.5,733.4c0-0.3,0.2-0.8,0.2-1.3c0-2.5-1.4-4.6-4.1-4.6
		c-3.2,0-4.9,2.4-5.1,5.7h9L641.5,733.4L641.5,733.4z M649.7,720.7V739c0,1.6,0.5,2.1,1.4,2.1c0.8,0,1.3-0.3,1.7-0.6l0.2,1.6
		c-0.6,0.5-1.6,0.8-2.7,0.8c-1.7,0-2.9-1-2.9-3.3v-18.6h2.2L649.7,720.7L649.7,720.7z M662.6,726c4.3,0,7.3,3.2,7.3,8.4
		c0,5.2-3,8.4-7.3,8.4c-4.3,0-7.1-3.2-7.1-8.4C655.5,729.1,658.3,726,662.6,726L662.6,726z M662.6,740.9c3.2,0,5.2-2.4,5.2-6.5
		c0-4.1-2.1-6.7-5.2-6.7s-5.2,2.5-5.2,6.7C657.4,738.5,659.4,740.9,662.6,740.9z M675.9,726.4v9.7c0,3,1.3,4.8,4,4.8
		c2.4,0,4.1-1.7,4.6-3.8v-10.6h2.1v16h-2.1v-2.7c-1,1.9-2.9,3-5.2,3c-3.6,0-5.4-2.2-5.4-6.2v-10h2.1L675.9,726.4L675.9,726.4z"/>
</g>
<path fill="#333333" d="M1078.2,651.8c17.3-12.1,21.9-27.1,22.2-34.3c-6.5-0.8-12.9-7-12.9-13.6c0-7.8,6.7-13.6,13.6-13.6
	c8.3,0,15.2,6.5,15.2,18.6c0,14-9.5,35.9-34.8,48.6L1078.2,651.8L1078.2,651.8z M1123.3,651.8c17.3-12.1,21.9-27.1,22.2-34.3
	c-6.5-0.8-12.9-7-12.9-13.6c0-7.8,6.7-13.6,13.6-13.6c8.3,0,15.2,6.5,15.2,18.6c0,14-9.5,35.9-34.8,48.6L1123.3,651.8L1123.3,651.8z
	"/>
<path fill="#FFFFFF" d="M514.5,434.7h-38.7l0-0.2h6l5.9-47.8h-6l0-0.2h36.2l-2.1,17.5h-0.2c0,0-0.1-17.3-14.1-17.3h-2.4l-2.8,23.2
	h0.8c8.7,0,11.2-11.4,11.2-11.4h0.2l-2.8,22.9h-0.2c0,0,0.3-11.4-8.4-11.4h-0.8l-3,24.6h2.4c17.1,0,20.9-18.7,20.9-18.7h0.2
	l-2.3,18.9L514.5,434.7L514.5,434.7z"/>
<path fill="#FFFFFF" d="M556.8,400.4h-5.6l-15.5,35.4l-10.4-35.4H520l0-0.2h22.1l0,0.2h-4.4l5.6,18.1l7.9-18.1h-5.6l0-0.2
	L556.8,400.4L556.8,400.4z"/>
<path fill="#FFFFFF" d="M564.3,417.4l-0.2,1.9c-1.2,9.5-1.4,15.2,5.6,15.2c6.3,0,11.2-4.4,13.8-11.9h0.2c-2.7,8.1-8.1,13-16.7,13
	c-8.7,0-15.5-8.4-14.3-18.1c1.2-9.7,10-18.1,18.7-18.1c8.9,0,14.9,8.3,13.7,18.1h-20.8L564.3,417.4z M564.8,412.8l-0.6,4.6h8.9
	c1.9-15.4,1.5-17.8-1.9-17.8C566.8,399.6,565.8,404.9,564.8,412.8z"/>
<path fill="#FFFFFF" d="M583.1,434.7l5.6-0.2l4.2-34.1h-5.6l0-0.2h16.5l-0.4,2.9c1.7-2.1,3.8-3.6,7.1-3.6c2.5,0,6,1.4,6.6,5.4
	c0.2,1,0.1,1.6,0.1,2.1c-0.4,3.3-2.8,6.3-6.7,6.3c-3.2,0-5.6-2.5-5.2-5.9c0.4-3.3,3.3-5.9,6.6-5.9c2.7,0,4.7,1.9,5,4.3
	c0.1-3-2.2-6.3-6.5-6.3c-3.3,0-5.4,1.6-7.1,3.8l-3.8,31.3h5.6l0,0.2L583.1,434.7L583.1,434.7z"/>
<path fill="#FFFFFF" d="M614,445.2l0-1.4c0.4-3.3,3.4-5.9,6.8-5.9c3.2,0,5.6,2.5,5.2,5.9c-0.4,3.3-3.4,6-6.6,6c-2.4,0-4.3-1.4-5-3.3
	c0.5,2.2,1.9,4.9,6.5,4.9c5.4,0,8.1-3.6,10.6-8.9l3-6l-10.8-36h-5.6l0-0.2h22.2l0,0.2h-4.4l6.1,20.2l9.5-20.2h-5.6l0-0.2h11.3l0,0.2
	h-5.6l-19.8,42.1c-2.8,5.7-5.7,9-11,9C615,451.5,614.1,447.2,614,445.2L614,445.2z"/>
<path fill="#FFFFFF" d="M675.4,400.4l-3.6,29.5c-0.2,1.9,0.4,3.3,2,3.3c2.2,0,2.9-2.5,3.1-4.8l0.9-7.6h0.2l-1,7.8
	c-0.5,4-2.4,6.7-7.3,6.7c-6.7,0-9.2-4.3-8.4-10.8l3-24.1h-5.4l0-0.2h1.7c8.1,0,15.1-5.1,16.2-14.4h0.2l-1.8,14.6l6.8-0.2l0,0.2
	L675.4,400.4L675.4,400.4z"/>
<path fill="#FFFFFF" d="M719.8,434.7h-19.7l0-0.2h3.2l3.3-27.1c0.6-5.1,0.2-7-2-7c-2.4,0-5,2.9-6.4,6.8l-3.4,27.3h3.2l0,0.2h-19.7
	l0-0.2h5.6l6.1-49.8h-5.6l0-0.2H701l-2.7,22.1c2.1-5.1,5.3-7.3,9.1-7.3c7.8,0,10.4,5.7,9.6,12.7l-2.8,22.5L719.8,434.7z"/>
<path fill="#FFFFFF" d="M721.7,434.7l5.6-0.2l4.2-34.1h-5.6l0-0.2h16.5l-4.2,34.3h5.6l0,0.2L721.7,434.7L721.7,434.7z M739.3,381.7
	c3.3,0,5.6,2.5,5.2,5.9c-0.4,3.3-3.2,5.7-6.6,5.7s-5.4-2.5-5-5.7C733.2,384.4,735.9,381.7,739.3,381.7z"/>
<path fill="#FFFFFF" d="M787.1,434.7h-19.7l0-0.2h3.2l3.3-27.1c0.6-5.1,0.2-7-2-7c-2.4,0-5,2.9-6.4,6.8l-3.4,27.3h3.2l0,0.2h-19.7
	l0-0.2h5.6l4.2-34.1h-5.6l0-0.2h16.5l-0.8,6.3c2.1-5.1,5.3-7.3,9.1-7.3c7.8,0,10.4,5.7,9.6,12.7l-2.8,22.5L787.1,434.7L787.1,434.7z
	"/>
<path fill="#FFFFFF" d="M797.2,419c-1.3,0.5-3,1.1-3.2,2.9c-0.1,0.8,0.3,1.3,1.2,1.7c1.2,0.6,4.3,1.1,10.5,1.4
	c13.2,0.8,16.4,5.9,15.5,13.2c-1,7.8-8.8,13.5-18.6,13.5c-11.6,0-16.7-4.8-16.1-9.5c0.6-4.6,4.5-7,9.2-7.6c-3.7-1.1-6.4-3.3-5.8-8.1
	C790.1,422.6,793,420.3,797.2,419c-2.6-2.1-3.8-5.1-3.4-8.4c0.8-6.2,6.9-11.1,14.9-11.1c5.4,0,9.4,2.2,11.2,5.7
	c1.1-0.2,8-1.4,8.7-7.6c0.6-4.6-1.9-6.3-4-7.1c1.8,1,3,3,2.7,5.4c-0.4,3.2-3.4,5.9-6.8,5.9s-5.5-2.7-5.1-5.9c0.4-3.3,3.3-6,6.6-6
	c0.2,0,1.1,0,1.4,0.2c2,0.5,6.1,1.7,5.4,7.6c-0.7,6-7.4,7.5-8.9,7.8c0.8,1.6,1.2,3.3,0.9,5.2c-0.8,6.2-6.9,11.1-14.9,11.1
	C802.3,421.7,799.4,420.6,797.2,419L797.2,419z M796.1,434.7c-1.9,1.1-4,3.2-4.5,7.1c-0.6,4.8,3.4,9.7,10.7,9.7
	c6.7,0,12.1-3,12.7-7.8c0.5-4.1-1.8-6-9.6-7.3C802.9,435.8,799.3,435.5,796.1,434.7L796.1,434.7z M812.2,410.6c1.1-9.4-1-11-3.6-11
	s-5.1,1.6-6.3,11c-1.1,9.4,1,11,3.6,11S811.1,419.9,812.2,410.6z"/>
<path fill="#FFFFFF" d="M835.5,434.7l5.6-0.2l4.2-34.1h-5.6l0-0.2h16.5l-4.2,34.3h5.6l0,0.2L835.5,434.7L835.5,434.7z M852.9,381.7
	c3.3,0,5.6,2.5,5.2,5.9s-3.2,5.7-6.6,5.7c-3.3,0-5.4-2.5-5-5.7C846.9,384.4,849.7,381.7,852.9,381.7z"/>
<path fill="#FFFFFF" d="M900.7,434.7H881l0-0.2h3.2l3.3-27.1c0.6-5.1,0.2-7-2-7c-2.4,0-5,2.9-6.4,6.8l-3.4,27.3h3.2l0,0.2h-19.7
	l0-0.2h5.6l4.2-34.1h-5.6l0-0.2H880l-0.8,6.3c2.1-5.1,5.3-7.3,9.2-7.3c7.8,0,10.4,5.7,9.6,12.7l-2.8,22.5L900.7,434.7L900.7,434.7z"
	/>
<path fill="#FFFFFF" d="M933.2,400.4l-3.6,29.5c-0.2,1.9,0.4,3.3,2,3.3c2.2,0,2.9-2.5,3.1-4.8l0.9-7.6h0.2l-1,7.8
	c-0.5,4-2.4,6.7-7.3,6.7c-6.7,0-9.2-4.3-8.4-10.8l3-24.1h-5.4l0-0.2h1.7c8.1,0,15.1-5.1,16.2-14.4h0.2l-1.8,14.6l6.8-0.2l0,0.2
	L933.2,400.4L933.2,400.4z"/>
<path fill="#FFFFFF" d="M977.5,434.7h-19.7l0-0.2h3.2l3.3-27.1c0.6-5.1,0.2-7-2-7c-2.4,0-5,2.9-6.4,6.8l-3.4,27.3h3.2l0,0.2h-19.7
	l0-0.2h5.6l6.1-49.8h-5.6l0-0.2h16.5l-2.7,22.1c2.1-5.1,5.3-7.3,9.1-7.3c7.8,0,10.4,5.7,9.6,12.7l-2.8,22.5L977.5,434.7L977.5,434.7
	z"/>
<path fill="#FFFFFF" d="M991.7,417.4l-0.2,1.9c-1.2,9.5-1.4,15.2,5.6,15.2c6.3,0,11.2-4.4,13.8-11.9h0.2c-2.7,8.1-8.1,13-16.7,13
	c-8.7,0-15.5-8.4-14.3-18.1c1.2-9.7,10-18.1,18.7-18.1c8.9,0,14.9,8.3,13.6,18.1h-20.8L991.7,417.4z M992.3,412.8l-0.6,4.6h8.9
	c1.9-15.4,1.5-17.8-1.9-17.8C994.2,399.6,993.2,404.9,992.3,412.8z"/>
<path fill="#FFFFFF" d="M478.8,482.8h16.5l-3.4,27.3c-0.6,5.1-0.2,7,2,7c2.4,0,5-2.9,6.4-6.8l3.4-27.3h-3.2l0-0.2h14.1l-4.2,34.3
	h5.6l0,0.2h-16.5l0.8-6.3c-2.1,5.1-5.3,7.3-9.1,7.3c-7.8,0-10.4-5.7-9.6-12.7l2.8-22.5L478.8,482.8L478.8,482.8z"/>
<path fill="#FFFFFF" d="M559.4,517.2h-19.7l0-0.2h3.2l3.3-27c0.6-5.1,0.2-7-2-7c-2.4,0-5,2.9-6.4,6.8l-3.3,27.1h3.2l0,0.2H518l0-0.2
	h5.6l4.2-34.1h-5.6l0-0.2h16.5l-0.8,6.3c2.1-5.1,5.3-7.3,9.1-7.3c7.8,0,10.4,5.7,9.6,12.7l-2.8,22.5L559.4,517.2L559.4,517.2z"/>
<path fill="#FFFFFF" d="M561.3,517.2l5.6-0.2l4.2-34.1h-5.6l0-0.2h16.5l-4.2,34.3h5.6l0,0.2H561.3z M578.8,464.2
	c3.3,0,5.6,2.5,5.2,5.9c-0.4,3.3-3.2,5.7-6.6,5.7s-5.4-2.5-5-5.7C572.8,466.9,575.5,464.2,578.8,464.2z"/>
<path fill="#FFFFFF" d="M623.2,483h-5.6l-15.5,35.4L591.7,483h-5.6l0-0.2h22.1l0,0.2h-4.4l5.6,18.1l7.9-18.1h-5.6l0-0.2L623.2,483
	L623.2,483z"/>
<path fill="#FFFFFF" d="M630.4,499.9l-0.2,1.9c-1.2,9.5-1.4,15.2,5.6,15.2c6.3,0,11.2-4.4,13.8-11.9h0.2c-2.7,8.1-8.1,13-16.7,13
	c-8.7,0-15.5-8.4-14.3-18.1c1.2-9.7,10-18.1,18.7-18.1c8.9,0,14.9,8.3,13.7,18.1h-20.8L630.4,499.9L630.4,499.9z M631,495.3
	l-0.6,4.6h8.9c1.9-15.4,1.5-17.8-1.9-17.8C632.9,482.2,632,487.4,631,495.3z"/>
<path fill="#FFFFFF" d="M649.3,517.2l5.6-0.2L659,483h-5.6l0-0.2H670l-0.4,2.9c1.7-2.1,3.8-3.7,7.1-3.7c2.5,0,6,1.4,6.6,5.4
	c0.2,1,0.1,1.6,0.1,2.1c-0.4,3.3-2.8,6.3-6.7,6.3c-3.2,0-5.6-2.5-5.2-5.9c0.4-3.2,3.3-5.9,6.6-5.9c2.7,0,4.7,1.9,5,4.3
	c0.1-3-2.2-6.3-6.5-6.3c-3.3,0-5.4,1.6-7.1,3.8l-3.8,31.3h5.6l0,0.2L649.3,517.2L649.3,517.2z"/>
<path fill="#FFFFFF" d="M686.6,515.5c-1.4,0-3,1.1-3.6,3.5h-0.2l2.1-17.5h0.2c-0.6,6.2,3.5,16.7,11,16.7c3,0,5.2-1.9,5.5-5.1
	c1-8.3-17.7-7.3-16.1-20.5c0.6-5.1,5.6-10.6,11.8-10.6c3.5,0,6.4,2.5,9.1,2.5c1,0,1.7-0.6,1.9-2.5h0.2l-1.7,13.8h-0.2
	c0.1-3.7-2.3-13.6-9.3-13.6c-3.2,0-5.7,2.4-6,5.1c-0.9,7.5,18.5,6.7,16.9,20c-0.8,6.2-5.9,11-12.3,11
	C691.8,518.3,690,515.5,686.6,515.5z"/>
<path fill="#FFFFFF" d="M723.5,499.9l-0.2,1.9c-1.2,9.5-1.4,15.2,5.6,15.2c6.3,0,11.2-4.4,13.8-11.9h0.2c-2.7,8.1-8.1,13-16.7,13
	c-8.7,0-15.5-8.4-14.3-18.1c1.2-9.7,10-18.1,18.7-18.1c8.9,0,14.9,8.3,13.7,18.1h-20.8L723.5,499.9L723.5,499.9z M724,495.3
	l-0.6,4.6h8.9c1.9-15.4,1.5-17.8-1.9-17.8C726.1,482.2,725,487.4,724,495.3z"/>
<path fill="#FFFFFF" d="M795.8,517.2h-19.7l0-0.2h3.2l3.3-27c0.6-5.1,0.2-7-2-7c-2.4,0-5,2.9-6.4,6.8l-3.3,27.1h3.2l0,0.2h-19.7
	l0-0.2h5.6l6.1-49.7h-5.6l0-0.2H777l-2.7,22.1c2.1-5.1,5.3-7.3,9.1-7.3c7.8,0,10.4,5.7,9.6,12.7l-2.7,22.4L795.8,517.2L795.8,517.2z
	"/>
<path fill="#FFFFFF" d="M802.1,489.9c0.9-2.5,3.7-4.3,6.2-4.3c3.2,0,5.6,2.5,5.2,5.9c-0.4,3.3-3.3,5.9-6.6,5.9c-3.8,0-5.5-3-5.1-6.3
	c0.1-0.5,0.1-1.1,0.6-2.1c2.5-4.9,8.6-7,12.6-7c10.2,0,15.4,4.9,14.5,12.1l-2.2,18.3c-0.4,2.9,0.4,4.1,2,4.1c0.6,0,1.3-0.2,1.6-0.5
	c1-0.8,1.4-2.4,1.6-2.7h0.2c-0.8,2.5-2.7,5.1-6.8,5.1c-5.7,0-9.4-3.6-9.4-7.6c-0.7,2.9-3.3,7.6-10.6,7.6c-5.7,0-8.9-3.8-8.3-8.7
	c0.7-5.6,5.4-8.9,10.1-9.8c3.6-0.6,4-0.3,6-0.8c1.6-0.5,3.1-1.9,4.6-3.5l0.9-7.1c0.5-4.1-1.2-5.9-5-5.9
	C809.3,482.3,803.7,485.3,802.1,489.9L802.1,489.9z M818.3,495.5c-1.7,2.1-2.9,2.9-4.4,3.7c-2.2,1.1-4.2,3-4.6,6.3l-0.8,6.2
	c-0.4,3.3-0.3,5.2,1.7,5.2c3.2,0,5.9-4.1,6.2-6.5L818.3,495.5L818.3,495.5z"/>
<path fill="#FFFFFF" d="M838,515.5c-1.4,0-3,1.1-3.6,3.5h-0.2l2.1-17.5h0.2c-0.6,6.2,3.5,16.7,11,16.7c3,0,5.2-1.9,5.5-5.1
	c1-8.3-17.7-7.3-16.1-20.5c0.6-5.1,5.6-10.6,11.8-10.6c3.5,0,6.4,2.5,9.1,2.5c1,0,1.7-0.6,1.9-2.5h0.2l-1.7,13.8h-0.2
	c0.1-3.7-2.3-13.6-9.3-13.6c-3.2,0-5.7,2.4-6,5.1c-0.9,7.5,18.5,6.7,16.9,20c-0.8,6.2-5.9,11-12.3,11
	C843.4,518.3,841.5,515.5,838,515.5L838,515.5z"/>
<path fill="#FFFFFF" d="M871.6,517.2l5.6-0.2l4.2-34.1h-5.6l0-0.2h16.5l-0.4,2.9c1.7-2.1,3.8-3.7,7.1-3.7c2.5,0,6,1.4,6.6,5.4
	c0.2,1,0.1,1.6,0.1,2.1c-0.4,3.3-2.8,6.3-6.7,6.3c-3.2,0-5.6-2.5-5.2-5.9c0.4-3.2,3.3-5.9,6.6-5.9c2.7,0,4.7,1.9,5,4.3
	c0.1-3-2.2-6.3-6.5-6.3c-3.3,0-5.4,1.6-7.1,3.8l-3.8,31.3h5.6l0,0.2L871.6,517.2L871.6,517.2z"/>
<path fill="#FFFFFF" d="M942.9,517.2h-19.7l0-0.2h3.2l3.3-27c0.6-5.1,0.2-7-2-7c-2.4,0-5,2.9-6.4,6.8l-3.3,27.1h3.2l0,0.2h-19.7
	l0-0.2h5.6l6.1-49.7h-5.6l0-0.2h16.5l-2.7,22.1c2.1-5.1,5.3-7.3,9.2-7.3c7.8,0,10.4,5.7,9.6,12.7l-2.7,22.4L942.9,517.2L942.9,517.2
	z"/>
<path fill="#FFFFFF" d="M939.2,527.7l0-1.4c0.4-3.3,3.4-5.9,6.8-5.9c3.2,0,5.6,2.5,5.2,5.9c-0.4,3.3-3.4,6-6.6,6
	c-2.4,0-4.3-1.4-5-3.3c0.5,2.2,1.9,4.9,6.5,4.9c5.4,0,8.1-3.7,10.6-8.9l3-6l-10.8-36h-5.6l0-0.2h22.2l0,0.2h-4.4l6.1,20.2l9.5-20.2
	h-5.6l0-0.2h11.3l0,0.2h-5.6L957,525c-2.8,5.7-5.7,9-11,9C940.2,534.1,939.3,529.8,939.2,527.7L939.2,527.7z"/>
<path fill="#FFFFFF" d="M1000.4,483l-3.6,29.5c-0.2,1.9,0.4,3.3,2,3.3c2.2,0,2.9-2.5,3.1-4.8l0.9-7.6h0.2l-1,7.8
	c-0.5,4-2.4,6.7-7.3,6.7c-6.7,0-9.2-4.3-8.4-10.8l3-24.3H984l0-0.2h1.7c8.1,0,15.1-5.1,16.2-14.4h0.2l-1.8,14.8l6.8-0.2l0,0.2
	L1000.4,483L1000.4,483z"/>
<path fill="#FFFFFF" d="M1045,517.2h-19.7l0-0.2h3.2l3.3-27c0.6-5.1,0.2-7-2-7c-2.4,0-5,2.9-6.4,6.8l-3.3,27.1h3.2l0,0.2h-19.7
	l0-0.2h5.6l6.1-49.7h-5.6l0-0.2h16.5l-2.7,22.1c2.1-5.1,5.3-7.3,9.1-7.3c7.8,0,10.4,5.7,9.6,12.7l-2.7,22.4L1045,517.2L1045,517.2z"
	/>
<path fill="#FFFFFF" d="M1084.6,517.2h-16.8l0-0.2h3l3.6-29.5c0.3-2.2,0.2-4.6-2-4.6c-2.5,0-5.4,3.6-6.4,6.8l-3.4,27.3h2.7l0,0.2
	h-18.6l0-0.2h4.8l4.2-34.1h-4.8l0-0.2h15.9l-0.8,6.3c2.1-5.1,5.5-7.3,9.2-7.3c5.7,0,8.2,3,9.1,7.3c2.1-5.1,6-7.3,9.6-7.3
	c7.8,0,10.4,5.7,9.6,12.7l-2.8,22.5h4.8l0,0.2h-18.9l0-0.2h3l3.3-27c0.6-5.1,0.4-7-2-7c-2.9,0-5.6,3.3-6.8,6.5
	c0.3,1.6,0.4,3.3,0.2,5.1l-2.7,22.4L1084.6,517.2L1084.6,517.2z"/>
<path fill="#FFFFFF" d="M1114.6,506.3c3.2,0,5.4,2.5,5,5.7c-0.4,3.2-3.3,5.9-6.4,5.9c-3.2,0-5.6-2.5-5.2-5.9
	C1108.4,508.8,1111.4,506.3,1114.6,506.3L1114.6,506.3z"/>
<path fill="#FFFFFF" d="M514.5,599.8h-38.7l0-0.2h6l5.9-47.9h-6l0-0.2h36.2l-2.1,17.5h-0.2c0,0-0.1-17.3-14.1-17.3h-2.4l-2.8,23.2
	h0.8c8.7,0,11.2-11.4,11.2-11.4h0.2l-2.8,22.9h-0.2c0,0,0.3-11.3-8.5-11.3h-0.8l-3,24.6h2.4c17.1,0,20.9-18.7,20.9-18.7h0.2
	l-2.3,18.9L514.5,599.8L514.5,599.8z"/>
<path fill="#FFFFFF" d="M556.8,565.5h-5.6l-15.5,35.4l-10.4-35.4H520l0-0.2h22.1l0,0.2h-4.4l5.6,18.1l7.9-18.1h-5.6l0-0.2
	L556.8,565.5L556.8,565.5z"/>
<path fill="#FFFFFF" d="M564.3,582.5l-0.2,1.9c-1.2,9.5-1.4,15.2,5.6,15.2c6.3,0,11.2-4.4,13.8-11.9h0.2c-2.7,8.1-8.1,13-16.7,13
	c-8.7,0-15.5-8.4-14.3-18.1c1.2-9.7,10-18.1,18.7-18.1c8.9,0,14.9,8.3,13.7,18.1h-20.8L564.3,582.5L564.3,582.5z M564.8,577.9
	l-0.6,4.6h8.9c1.9-15.4,1.5-17.8-1.9-17.8C566.8,564.7,565.8,569.9,564.8,577.9z"/>
<path fill="#FFFFFF" d="M583.1,599.8l5.6-0.2l4.2-34.1h-5.6l0-0.2h16.5l-0.4,2.9c1.7-2.1,3.8-3.6,7.1-3.6c2.5,0,6,1.4,6.6,5.4
	c0.2,1,0.1,1.6,0.1,2.1c-0.4,3.3-2.8,6.3-6.7,6.3c-3.2,0-5.6-2.5-5.2-5.9c0.4-3.2,3.3-5.9,6.6-5.9c2.7,0,4.7,1.9,5,4.3
	c0.1-3-2.2-6.3-6.5-6.3c-3.3,0-5.4,1.6-7.1,3.8l-3.8,31.3h5.6l0,0.2H583.1L583.1,599.8z"/>
<path fill="#FFFFFF" d="M614,610.2l0-1.4c0.4-3.3,3.4-5.9,6.8-5.9c3.2,0,5.6,2.5,5.2,5.9c-0.4,3.3-3.4,6-6.6,6c-2.4,0-4.3-1.4-5-3.3
	c0.5,2.2,1.9,4.9,6.5,4.9c5.4,0,8.1-3.7,10.6-8.9l3-6l-10.8-36h-5.6l0-0.2h22.2l0,0.2h-4.4l6.1,20.2l9.5-20.2h-5.6l0-0.2h11.3l0,0.2
	h-5.6l-19.8,42.1c-2.8,5.7-5.7,9-11,9C615,616.6,614.1,612.3,614,610.2L614,610.2z"/>
<path fill="#FFFFFF" d="M675.4,565.5l-3.6,29.5c-0.2,1.9,0.4,3.3,2,3.3c2.2,0,2.9-2.5,3.1-4.8l0.9-7.6h0.2l-1,7.8
	c-0.5,4-2.4,6.7-7.3,6.7c-6.7,0-9.2-4.3-8.4-10.8l3-24.3h-5.4l0-0.2h1.7c8.1,0,15.1-5.1,16.2-14.4h0.2l-1.8,14.8l6.8-0.2l0,0.2
	L675.4,565.5L675.4,565.5L675.4,565.5z"/>
<path fill="#FFFFFF" d="M719.8,599.8h-19.7l0-0.2h3.2l3.3-27c0.6-5.1,0.2-7-2-7c-2.4,0-5,2.9-6.4,6.8l-3.3,27.1h3.2l0,0.2h-19.7
	l0-0.2h5.6l6.1-49.8h-5.6l0-0.2H701l-2.7,22.1c2.1-5.1,5.3-7.3,9.2-7.3c7.8,0,10.4,5.7,9.6,12.7l-2.8,22.5L719.8,599.8L719.8,599.8z
	"/>
<path fill="#FFFFFF" d="M721.7,599.8l5.6-0.2l4.2-34.1h-5.6l0-0.2h16.5l-4.2,34.3h5.6l0,0.2H721.7z M739.3,546.8
	c3.3,0,5.6,2.5,5.2,5.9c-0.4,3.3-3.2,5.7-6.6,5.7s-5.4-2.5-5-5.7C733.2,549.5,735.9,546.8,739.3,546.8z"/>
<path fill="#FFFFFF" d="M787.1,599.8h-19.7l0-0.2h3.2l3.3-27c0.6-5.1,0.2-7-2-7c-2.4,0-5,2.9-6.4,6.8l-3.3,27.1h3.2l0,0.2h-19.7
	l0-0.2h5.6l4.2-34.1h-5.6l0-0.2h16.5l-0.8,6.3c2.1-5.1,5.3-7.3,9.1-7.3c7.8,0,10.4,5.7,9.6,12.7l-2.8,22.5L787.1,599.8L787.1,599.8z
	"/>
<path fill="#FFFFFF" d="M797.2,584.1c-1.3,0.5-3,1.1-3.2,2.9c-0.1,0.8,0.3,1.3,1.2,1.7c1.2,0.6,4.3,1.1,10.5,1.4
	c13.2,0.8,16.4,5.9,15.5,13.2c-1,7.8-8.8,13.5-18.6,13.5c-11.6,0-16.7-4.8-16.1-9.5c0.6-4.6,4.5-7,9.2-7.6c-3.7-1.1-6.4-3.3-5.8-8.1
	C790.1,587.7,793,585.3,797.2,584.1c-2.6-2.1-3.8-5.1-3.4-8.4c0.8-6.2,6.9-11.1,14.9-11.1c5.4,0,9.4,2.2,11.2,5.7
	c1.1-0.2,8-1.4,8.7-7.6c0.6-4.6-1.9-6.3-4-7.1c1.8,1.1,3,3,2.7,5.4c-0.4,3.2-3.4,5.9-6.8,5.9s-5.5-2.7-5.1-5.9c0.4-3.3,3.3-6,6.6-6
	c0.2,0,1.1,0,1.4,0.2c2,0.5,6.1,1.7,5.4,7.6c-0.7,6-7.4,7.5-8.9,7.8c0.8,1.6,1.2,3.3,0.9,5.2c-0.8,6.2-6.9,11.1-14.9,11.1
	C802.3,586.8,799.4,585.6,797.2,584.1L797.2,584.1z M796.1,599.8c-1.9,1-4,3.2-4.5,7.1c-0.6,4.8,3.4,9.7,10.7,9.7
	c6.7,0,12.1-3,12.7-7.8c0.5-4.1-1.8-6-9.6-7.3C802.9,601,799.3,600.6,796.1,599.8L796.1,599.8z M812.2,575.6c1.1-9.4-1-11-3.6-11
	s-5.1,1.6-6.3,11c-1.1,9.4,1,11,3.6,11S811.1,585,812.2,575.6z"/>
<path fill="#FFFFFF" d="M863.6,549.9h-5.6l0-0.2h16.5l-6.1,49.8h5.6l0,0.2h-16.5l0.8-6.4c-2.1,5.1-5.3,7.3-9.1,7.3
	c-6.7,0-12.4-7.6-11.1-18.1c1.3-10.5,8.9-18.1,15.6-18.1c3.8,0,6.6,2.1,7.4,7.3L863.6,549.9L863.6,549.9z M860.9,572.3
	c-0.5-4-2.3-6.8-4.7-6.8c-3.2,0-4.7,3.3-5.9,13.3l-0.9,7.6c-1.2,10-0.5,13.3,2.6,13.3c2.4,0,5-2.9,6.4-6.8L860.9,572.3z"/>
<path fill="#FFFFFF" d="M880.4,572.5c0.9-2.5,3.5-4.3,6.2-4.3c3.2,0,5.6,2.5,5.2,5.9c-0.4,3.3-3.3,5.9-6.6,5.9c-3.8,0-5.5-3-5.1-6.3
	c0.1-0.5,0.1-1.1,0.6-2.1c2.5-4.9,8.6-7,12.6-7c10.2,0,15.4,4.9,14.5,12.1l-2.2,18.3c-0.4,2.9,0.4,4.1,2,4.1c0.6,0,1.3-0.2,1.6-0.5
	c1.1-0.8,1.4-2.4,1.6-2.7h0.2c-0.8,2.5-2.7,5.1-6.8,5.1c-5.7,0-9.4-3.6-9.4-7.6c-0.7,2.9-3.3,7.6-10.6,7.6c-5.7,0-8.9-3.8-8.3-8.7
	c0.7-5.6,5.4-8.9,10.1-9.8c3.6-0.6,4-0.3,6-0.8c1.6-0.5,3.1-1.9,4.6-3.5l0.9-7.1c0.5-4.1-1.2-5.9-5-5.9
	C887.5,564.9,881.9,567.9,880.4,572.5L880.4,572.5z M896.5,578c-1.7,2.1-2.9,2.9-4.4,3.6c-2.2,1.1-4.2,3-4.6,6.3l-0.8,6.2
	c-0.4,3.3-0.3,5.2,1.7,5.2c3.2,0,5.9-4.1,6.2-6.5L896.5,578z"/>
<path fill="#FFFFFF" d="M952.9,599.8h-19.7l0-0.2h3.2l3.3-27c0.6-5.1,0.2-7-2-7c-2.4,0-5,2.9-6.4,6.8l-3.3,27.1h3.2l0,0.2h-19.7
	l0-0.2h5.6l4.2-34.1h-5.6l0-0.2h16.5l-0.8,6.3c2.1-5.1,5.3-7.3,9.1-7.3c7.8,0,10.4,5.7,9.6,12.7l-2.8,22.5L952.9,599.8L952.9,599.8z
	"/>
<path fill="#FFFFFF" d="M967.1,582.8c-0.7,5.6-1.9,16.8,5.9,16.8c6.2,0,10.1-5.1,11.5-13.2h0.2c-1.3,8.3-5.4,14.3-14.5,14.3
	c-8.9,0-16-7.8-14.8-18.1c1.2-9.5,9.4-18.1,19.8-18.1c6.4,0,9.2,3,9.9,7c0.2,1,0.1,1.6,0.1,2.1c-0.4,3.3-2.8,6.3-6.7,6.3
	c-3.2,0-5.6-2.5-5.2-5.9c0.4-3.3,3.3-5.9,6.6-5.9c2.5,0,4.7,1.9,5,4.3c-0.4-3.5-2.6-7.6-8.7-7.6
	C969.9,564.9,968.3,572.8,967.1,582.8L967.1,582.8z"/>
<path fill="#FFFFFF" d="M998.5,582.5l-0.2,1.9c-1.2,9.5-1.4,15.2,5.6,15.2c6.3,0,11.2-4.4,13.8-11.9h0.2c-2.7,8.1-8.1,13-16.7,13
	c-8.7,0-15.5-8.4-14.3-18.1c1.2-9.7,10-18.1,18.7-18.1c8.9,0,14.9,8.3,13.6,18.1h-20.8L998.5,582.5L998.5,582.5z M999.1,577.9
	l-0.6,4.6h8.9c1.9-15.4,1.5-17.8-1.9-17.8C1001.2,564.7,1000.1,569.9,999.1,577.9z"/>
<path fill="#FFFFFF" d="M1024.4,598c-1.4,0-3,1.1-3.6,3.5h-0.2l2.1-17.5h0.2c-0.6,6.2,3.5,16.7,11,16.7c3,0,5.2-1.9,5.5-5.1
	c1-8.3-17.7-7.3-16.1-20.5c0.6-5.1,5.6-10.6,11.8-10.6c3.5,0,6.4,2.5,9.1,2.5c1,0,1.7-0.6,1.9-2.5h0.2l-1.7,13.8h-0.2
	c0.1-3.6-2.3-13.6-9.3-13.6c-3.2,0-5.7,2.4-6,5.1c-0.9,7.5,18.5,6.7,16.9,20c-0.8,6.2-5.9,11-12.3,11
	C1029.8,600.9,1027.7,598,1024.4,598z"/>
<path fill="#FFFFFF" d="M1055.7,588.8c3.2,0,5.4,2.5,5,5.7c-0.4,3.2-3.3,5.9-6.4,5.9c-3.2,0-5.6-2.5-5.1-5.9
	C1049.5,591.4,1052.3,588.8,1055.7,588.8z"/>
<path fill="#333333" d="M377,367.6c0-14,9.7-35.9,34.9-48.6l3.3,5.4c-17.3,12.1-21.9,27.1-22.2,34.3c6.5,0.8,12.9,7,12.9,13.6
	c0,7.8-6.7,13.6-13.6,13.6C384,386.1,377,379.6,377,367.6z M422.2,367.6c0-14,9.5-35.9,34.8-48.6l3.3,5.4
	c-17.3,12.1-21.9,27.1-22.2,34.3c6.5,0.8,12.9,7,12.9,13.6c0,7.8-6.7,13.6-13.7,13.6C429.2,386.1,422.2,379.6,422.2,367.6z"/>
</svg>
