<?xml version="1.0" encoding="utf-8"?>
<!-- Generator: Adobe Illustrator 18.1.0, SVG Export Plug-In . SVG Version: 6.00 Build 0)  -->
<svg version="1.1" id="Layer_1" xmlns="http://www.w3.org/2000/svg" xmlns:xlink="http://www.w3.org/1999/xlink" x="0px" y="0px"
	 viewBox="0 0 604 271" enable-background="new 0 0 604 271" xml:space="preserve">
<g>
	<path fill="#FFFFFF" d="M72.3,260.5c-0.2,1-0.8,1.8-1.7,1.8c-1.2,0-1.8-1.7-2.8-1.7c-0.5,0-1,0.4-1.1,1.3l-0.6-0.6
		c0.1-0.9,0.7-1.7,1.6-1.7c1.2,0,2,1.7,2.9,1.7c0.6,0,0.9-0.5,1.1-1.3L72.3,260.5z"/>
	<path fill="#FFFFFF" d="M88.1,256.2c-1-1-2.1-1.5-3.5-1.5c-2.7,0-4.8,2-4.8,5.6c0,3.5,2.1,5.5,4.7,5.5c1.3,0,2.6-0.5,3.4-1.1v-3.7
		H84v-1.1h5.1v5.5c-1,0.9-2.9,1.6-4.6,1.6c-3.3,0-5.9-2.5-5.9-6.7c0-4.3,2.6-6.8,5.9-6.8c1.8,0,3.1,0.6,4.2,1.8L88.1,256.2z"/>
	<path fill="#FFFFFF" d="M92.6,262.1c0.1,2.2,1.1,3.8,3.5,3.8c1.2,0,2.2-0.5,2.9-1.2l0.5,1c-0.9,0.8-2.1,1.3-3.6,1.3
		c-3.2,0-4.5-2.2-4.5-5.3c0-3.1,1.7-5.3,4.5-5.3c2.6,0,3.8,1.9,3.8,4.1c0,0.6-0.1,1.2-0.2,1.6H92.6z M98.4,261.1
		c0-0.2,0.1-0.5,0.1-0.8c0-1.6-0.9-2.9-2.6-2.9c-2,0-3.1,1.5-3.2,3.6H98.4z"/>
	<path fill="#FFFFFF" d="M106.3,256.4c2.7,0,4.6,2,4.6,5.3c0,3.3-1.8,5.3-4.6,5.3c-2.7,0-4.5-2-4.5-5.3
		C101.8,258.4,103.6,256.4,106.3,256.4z M106.3,265.8c2,0,3.3-1.5,3.3-4.1c0-2.6-1.3-4.2-3.3-4.2c-2,0-3.3,1.6-3.3,4.2
		C103,264.3,104.3,265.8,106.3,265.8z"/>
	<path fill="#FFFFFF" d="M113.5,266.7v-10.1h1.3v1.8c0.5-1.3,1.2-2,2.4-2c0.6,0,1.2,0.2,1.6,0.6l-0.3,1.1c-0.4-0.3-0.9-0.5-1.4-0.5
		c-1.2,0-1.9,1-2.3,2.5v6.5H113.5z"/>
	<path fill="#FFFFFF" d="M124.2,256.5c1.3,0,2.3,0.6,2.9,1.3v-1.1h1.3v9.6c0,3-1.8,4.3-3.9,4.3c-1.8,0-2.8-0.7-3.4-1l0.3-1.1
		c0.5,0.4,1.6,1.1,2.9,1.1c1.5,0,2.8-0.8,2.8-3v-1.6c-0.7,0.8-1.7,1.3-2.9,1.3c-2.5,0-4.1-1.9-4.1-4.8
		C120.1,258.4,121.7,256.5,124.2,256.5z M124.6,265c1.1,0,2-0.7,2.5-1.3V259c-0.5-0.6-1.3-1.4-2.5-1.4c-2,0-3.3,1.4-3.3,3.7
		C121.4,263.5,122.6,265,124.6,265z"/>
	<path fill="#FFFFFF" d="M132.3,262.1c0.1,2.2,1.1,3.8,3.5,3.8c1.2,0,2.2-0.5,2.9-1.2l0.5,1c-0.9,0.8-2.1,1.3-3.6,1.3
		c-3.2,0-4.5-2.2-4.5-5.3c0-3.1,1.7-5.3,4.5-5.3c2.6,0,3.8,1.9,3.8,4.1c0,0.6-0.1,1.2-0.2,1.6H132.3z M138.1,261.1
		c0-0.2,0.1-0.5,0.1-0.8c0-1.6-0.9-2.9-2.6-2.9c-2,0-3.1,1.5-3.2,3.6H138.1z"/>
	<path fill="#FFFFFF" d="M146.1,253.6h4c2.3,0,3.7,1.1,3.7,3.4c0,1.5-0.8,2.5-2,2.9c1.8,0.3,2.9,1.4,2.9,3.3c0,2.1-1.3,3.5-3.8,3.5
		h-4.8V253.6z M147.4,259.4h2.5c1.6,0,2.7-0.8,2.7-2.3c0-1.6-0.9-2.3-2.6-2.3h-2.6V259.4z M147.4,265.6h3.4c1.8,0,2.7-0.9,2.7-2.4
		c0-1.8-1.1-2.6-3-2.6h-3V265.6z"/>
	<path fill="#FFFFFF" d="M162.9,266.7v-1.1c-0.6,0.6-1.6,1.3-3.1,1.3c-2,0-3.2-1.2-3.2-3.1c0-2.5,2-3.5,4.6-3.5
		c0.6,0,1.2,0.1,1.7,0.2v-0.5c0-1.7-0.9-2.5-2.4-2.5c-1,0-2,0.2-2.8,0.7l-0.3-1.1c0.9-0.4,2.2-0.7,3.2-0.7c2.2,0,3.5,1.3,3.5,3.6
		v6.6H162.9z M160.2,265.9c1.3,0,2.2-0.7,2.7-1.3v-3.1c-0.4-0.1-1.1-0.2-1.7-0.2c-1.9,0-3.4,0.7-3.4,2.5
		C157.9,265.1,158.8,265.9,160.2,265.9z"/>
	<path fill="#FFFFFF" d="M168.6,253v11.5c0,1,0.3,1.3,0.9,1.3c0.5,0,0.8-0.2,1.1-0.4l0.1,1c-0.4,0.3-1,0.5-1.7,0.5
		c-1.1,0-1.8-0.6-1.8-2.1V253H168.6z"/>
	<path fill="#FFFFFF" d="M178.2,266.7v-1.1c-0.6,0.6-1.6,1.3-3.1,1.3c-2,0-3.2-1.2-3.2-3.1c0-2.5,2-3.5,4.6-3.5
		c0.6,0,1.2,0.1,1.7,0.2v-0.5c0-1.7-0.9-2.5-2.4-2.5c-1,0-2,0.2-2.8,0.7l-0.3-1.1c0.9-0.4,2.2-0.7,3.2-0.7c2.2,0,3.5,1.3,3.5,3.6
		v6.6H178.2z M175.5,265.9c1.3,0,2.2-0.7,2.7-1.3v-3.1c-0.4-0.1-1.1-0.2-1.7-0.2c-1.9,0-3.4,0.7-3.4,2.5
		C173.2,265.1,174.1,265.9,175.5,265.9z"/>
	<path fill="#FFFFFF" d="M189.3,266.7v-6.1c0-1.9-0.8-3-2.5-3c-1.5,0-2.5,1.1-2.9,2.4v6.7h-1.2v-10.1h1.2v1.7
		c0.6-1.2,1.8-1.9,3.3-1.9c2.3,0,3.4,1.4,3.4,3.9v6.3H189.3z"/>
	<path fill="#FFFFFF" d="M197.7,265.8c1.2,0,2-0.5,2.6-1.3l0.6,0.9c-0.8,0.9-1.8,1.5-3.3,1.5c-2.7,0-4.5-2.1-4.5-5.3
		c0-3.3,1.8-5.3,4.5-5.3c1.4,0,2.4,0.6,3.3,1.5l-0.6,0.9c-0.7-0.8-1.4-1.3-2.6-1.3c-2,0-3.3,1.6-3.3,4.1
		C194.4,264.2,195.7,265.8,197.7,265.8z"/>
	<path fill="#FFFFFF" d="M210.2,266.7v-6.1c0-1.9-0.8-3-2.6-3c-1.5,0-2.5,1.1-2.9,2.4v6.7h-1.2V253h1.2v5.3c0.6-1.2,1.8-1.9,3.3-1.9
		c2.3,0,3.4,1.4,3.4,3.9v6.3H210.2z"/>
	<path fill="#FFFFFF" d="M215.2,253c0.5,0,0.8,0.2,0.8,0.8c0,0.6-0.3,0.8-0.8,0.8c-0.5,0-0.8-0.2-0.8-0.8
		C214.4,253.2,214.7,253,215.2,253z M214.6,266.7v-10.1h1.2v10.1H214.6z"/>
	<path fill="#FFFFFF" d="M225.7,266.7v-6.1c0-1.9-0.8-3-2.5-3c-1.5,0-2.5,1.1-2.9,2.4v6.7H219v-10.1h1.2v1.7
		c0.6-1.2,1.8-1.9,3.3-1.9c2.3,0,3.4,1.4,3.4,3.9v6.3H225.7z"/>
	<path fill="#FFFFFF" d="M230.8,262.1c0.1,2.2,1.1,3.8,3.5,3.8c1.2,0,2.2-0.5,2.9-1.2l0.5,1c-0.9,0.8-2.1,1.3-3.6,1.3
		c-3.2,0-4.5-2.2-4.5-5.3c0-3.1,1.7-5.3,4.5-5.3c2.6,0,3.8,1.9,3.8,4.1c0,0.6-0.1,1.2-0.2,1.6H230.8z M236.6,261.1
		c0-0.2,0.1-0.5,0.1-0.8c0-1.6-0.9-2.9-2.6-2.9c-2,0-3.1,1.5-3.2,3.6H236.6z"/>
</g>
<g>
	<path fill="#333333" d="M439.2,204.7c10.9-7.6,13.8-17.1,14-21.6c-4.1-0.5-8.1-4.4-8.1-8.6c0-4.9,4.2-8.6,8.6-8.6
		c5.2,0,9.6,4.1,9.6,11.7c0,8.8-6,22.6-21.9,30.6L439.2,204.7z M467.6,204.7c10.9-7.6,13.8-17.1,14-21.6c-4.1-0.5-8.1-4.4-8.1-8.6
		c0-4.9,4.2-8.6,8.6-8.6c5.2,0,9.6,4.1,9.6,11.7c0,8.8-6,22.6-21.9,30.6L467.6,204.7z"/>
</g>
<g>
	<path fill="#FFFFFF" d="M77.8,72.8h3.8v0.1H66.7v-0.1h3.8V42.7h-3.8v-0.1h14.9v0.1h-3.8V72.8z"/>
	<path fill="#FFFFFF" d="M103.5,41.4H100v-0.1h10.4v31.5h3.5v0.1h-10.4v-4c-0.9,3.2-2.8,4.5-5.2,4.5c-4.2,0-8.4-4.8-8.4-11.4
		s4.2-11.4,8.4-11.4c2.4,0,4.3,1.3,5.2,4.5V41.4z M103.5,55.6c-0.6-2.5-2-4.3-3.5-4.3c-2,0-2.7,2.1-2.7,8.4v4.8
		c0,6.3,0.7,8.4,2.7,8.4c1.5,0,2.9-1.8,3.5-4.3V55.6z"/>
	<path fill="#FFFFFF" d="M124.9,73.5c-5.5,0-10.9-5.3-10.9-11.4c0-6.1,5.4-11.4,10.9-11.4s10.9,5.3,10.9,11.4
		C135.8,68.1,130.4,73.5,124.9,73.5z M124.9,50.8c-3.4,0-3.5,5.1-3.5,11.3s0.1,11.3,3.5,11.3c3.4,0,3.5-5.1,3.5-11.3
		S128.3,50.8,124.9,50.8z"/>
	<path fill="#FFFFFF" d="M162.1,72.9h-12.4v-0.1h2V55.7c0-3.2-0.4-4.4-1.8-4.4c-1.5,0-2.9,1.8-3.5,4.3v17.2h2v0.1H136v-0.1h3.5V51.3
		H136v-0.1h10.4v4c0.9-3.2,2.8-4.5,5.2-4.5c4.9,0,7,3.6,7,8v14.2L162.1,72.9L162.1,72.9z"/>
	<path fill="#FFFFFF" d="M164.3,57.6c0-4.8-3-9.3-3-12.7c0-1.6,1.3-3,3-3s3,1.4,3,3C167.3,48.3,164.4,52.9,164.3,57.6L164.3,57.6z"
		/>
	<path fill="#FFFFFF" d="M178.4,51.3V70c0,1.2,0.5,2.1,1.5,2.1c1.4,0,1.6-1.6,1.6-3v-4.8h0.1v4.9c0,2.5-1,4.2-4.1,4.2
		c-4.2,0-6.1-2.7-6.1-6.8V51.3H168v-0.1h1.1c5.1,0,9.1-3.2,9.1-9.1h0.1V51.3l4.3-0.1v0.1H178.4z"/>
	<path fill="#FFFFFF" d="M224.7,51.4l-3.5,0l-7,22.3l-6.6-15.8l-5,15.8l-9.3-22.3h-3.5v-0.1h25.5v0.1h-2.8l4.9,11.4l3.6-11.4h-3.5
		v-0.1h7.1V51.4z M205.9,62.8l1.6-5.1l-2.6-6.3H201L205.9,62.8z"/>
	<path fill="#FFFFFF" d="M225.5,55.7c0.4-1.6,2-2.7,3.6-2.7c2,0,3.7,1.6,3.7,3.7c0,2-1.6,3.7-3.7,3.7c-2.4,0-3.7-1.9-3.7-4
		c0-0.3,0-0.7,0.2-1.3c1.2-3.1,4.9-4.4,7.4-4.4c6.4,0,10.1,3.1,10.1,7.6v11.4c0,1.8,0.6,2.6,1.6,2.6c0.4,0,0.8-0.1,1-0.3
		c0.6-0.5,0.7-1.5,0.8-1.7h0.1c-0.3,1.6-1.3,3.2-3.9,3.2c-3.6,0-6.2-2.3-6.5-4.8c-0.2,1.8-1.5,4.8-6.1,4.8c-3.6,0-5.9-2.4-5.9-5.5
		c0-3.5,2.7-5.6,5.6-6.2c2.2-0.4,2.5-0.2,3.7-0.5c1-0.3,1.8-1.2,2.6-2.2v-4.5c0-2.6-1.2-3.7-3.6-3.7
		C229.5,50.9,226.2,52.8,225.5,55.7z M236.1,59.2c-0.9,1.3-1.6,1.8-2.5,2.3c-1.3,0.7-2.4,1.9-2.4,4v3.9c0,2.1,0.2,3.3,1.5,3.3
		c2,0,3.4-2.6,3.4-4.1V59.2z"/>
	<path fill="#FFFFFF" d="M273.3,72.9H261v-0.1h2V55.7c0-3.2-0.4-4.4-1.8-4.4c-1.5,0-2.9,1.8-3.5,4.3v17.2h2v0.1h-12.4v-0.1h3.5V51.3
		h-3.5v-0.1h10.4v4c0.9-3.2,2.8-4.5,5.2-4.5c4.9,0,7,3.6,7,8v14.2L273.3,72.9L273.3,72.9z"/>
	<path fill="#FFFFFF" d="M282.6,51.3V70c0,1.2,0.5,2.1,1.5,2.1c1.4,0,1.6-1.6,1.6-3v-4.8h0.1v4.9c0,2.5-1,4.2-4.1,4.2
		c-4.2,0-6.1-2.7-6.1-6.8V51.3h-3.4v-0.1h1.1c5.1,0,9.1-3.2,9.1-9.1h0.1V51.3l4.3-0.1v0.1H282.6z"/>
	<path fill="#FFFFFF" d="M304.9,82.9h3.5V83h-13.9v-0.1h3.5V51.3h-3.5v-0.1h10.4v4c0.9-3.2,2.8-4.5,5.2-4.5c4.2,0,8.4,4.8,8.4,11.4
		s-4.2,11.4-8.4,11.4c-2.4,0-4.3-1.3-5.2-4.5V82.9z M304.9,68.5c0.6,2.5,2,4.3,3.5,4.3c2,0,2.7-2.1,2.7-8.4v-4.8
		c0-6.3-0.7-8.4-2.7-8.4c-1.5,0-2.9,1.8-3.5,4.3V68.5z"/>
	<path fill="#FFFFFF" d="M327.7,62v1.2c0,6,0.3,9.6,4.7,9.6c4,0,6.7-2.8,7.8-7.5h0.1c-1.1,5.1-4.1,8.2-9.5,8.2
		c-5.5,0-10.4-5.3-10.4-11.4c0-6.1,4.9-11.4,10.4-11.4c5.6,0,10,5.2,10,11.4H327.7z M327.7,59.1v2.9h5.6c0-9.7-0.4-11.2-2.6-11.2
		C327.9,50.8,327.7,54,327.7,59.1z"/>
	<path fill="#FFFFFF" d="M353,73.5c-5.5,0-10.9-5.3-10.9-11.4c0-6.1,5.4-11.4,10.9-11.4s10.9,5.3,10.9,11.4
		C363.9,68.1,358.5,73.5,353,73.5z M353,50.8c-3.4,0-3.5,5.1-3.5,11.3s0.1,11.3,3.5,11.3c3.4,0,3.5-5.1,3.5-11.3
		S356.4,50.8,353,50.8z"/>
	<path fill="#FFFFFF" d="M374.5,82.9h3.5V83h-13.9v-0.1h3.5V51.3h-3.5v-0.1h10.4v4c0.9-3.2,2.8-4.5,5.2-4.5c4.2,0,8.4,4.8,8.4,11.4
		s-4.2,11.4-8.4,11.4c-2.4,0-4.3-1.3-5.2-4.5V82.9z M374.5,68.5c0.6,2.5,2,4.3,3.5,4.3c2,0,2.7-2.1,2.7-8.4v-4.8
		c0-6.3-0.7-8.4-2.7-8.4c-1.5,0-2.9,1.8-3.5,4.3V68.5z"/>
	<path fill="#FFFFFF" d="M388.5,72.9L388.5,72.9l3.5-0.1V41.4h-3.5v-0.1h10.4v31.5h3.5v0.1H388.5z"/>
	<path fill="#FFFFFF" d="M409.9,62v1.2c0,6,0.3,9.6,4.7,9.6c4,0,6.7-2.8,7.8-7.5h0.1c-1.1,5.1-4.1,8.2-9.5,8.2
		c-5.5,0-10.4-5.3-10.4-11.4c0-6.1,4.9-11.4,10.4-11.4c5.6,0,10,5.2,10,11.4H409.9z M409.9,59.1v2.9h5.6c0-9.7-0.4-11.2-2.6-11.2
		C410.1,50.8,409.9,54,409.9,59.1z"/>
	<path fill="#FFFFFF" d="M465.1,51.4l-3.5,0l-7,22.3L448,57.8l-5,15.8l-9.3-22.3h-3.5v-0.1h25.5v0.1H453l4.9,11.4l3.6-11.4H458v-0.1
		h7.1V51.4z M446.3,62.8l1.6-5.1l-2.6-6.3h-3.9L446.3,62.8z"/>
	<path fill="#FFFFFF" d="M490.6,72.9h-12.4v-0.1h2V55.7c0-3.2-0.4-4.4-1.8-4.4c-1.5,0-2.9,1.8-3.5,4.3v17.2h2v0.1h-12.4v-0.1h3.5
		V41.4h-3.5v-0.1h10.4v13.9c0.9-3.2,2.8-4.5,5.2-4.5c4.9,0,7,3.6,7,8v14.2L490.6,72.9L490.6,72.9z"/>
	<path fill="#FFFFFF" d="M501.4,73.5c-5.5,0-10.9-5.3-10.9-11.4c0-6.1,5.4-11.4,10.9-11.4c5.5,0,10.9,5.3,10.9,11.4
		C512.3,68.1,506.9,73.5,501.4,73.5z M501.4,50.8c-3.4,0-3.5,5.1-3.5,11.3s0.1,11.3,3.5,11.3c3.4,0,3.5-5.1,3.5-11.3
		S504.8,50.8,501.4,50.8z"/>
	<path fill="#FFFFFF" d="M101.1,103.4l-3.5,0l-7,22.3L84,109.8l-5,15.8l-9.3-22.3h-3.5v-0.1h25.5v0.1H89l4.9,11.4l3.6-11.4H94v-0.1
		h7.1V103.4z M82.3,114.8l1.6-5.1l-2.6-6.3h-3.9L82.3,114.8z"/>
	<path fill="#FFFFFF" d="M101.9,107.7c0.4-1.6,2-2.7,3.6-2.7c2,0,3.7,1.6,3.7,3.7c0,2-1.6,3.7-3.7,3.7c-2.4,0-3.7-1.9-3.7-4
		c0-0.3,0-0.7,0.2-1.3c1.2-3.1,4.9-4.4,7.4-4.4c6.4,0,10.1,3.1,10.1,7.6v11.4c0,1.8,0.6,2.6,1.6,2.6c0.4,0,0.8-0.1,1-0.3
		c0.6-0.5,0.7-1.5,0.8-1.7h0.1c-0.3,1.6-1.3,3.2-3.9,3.2c-3.6,0-6.2-2.3-6.5-4.8c-0.2,1.8-1.5,4.8-6.1,4.8c-3.6,0-5.9-2.4-5.9-5.5
		c0-3.5,2.7-5.6,5.6-6.2c2.2-0.4,2.5-0.2,3.7-0.5c1-0.3,1.8-1.2,2.6-2.2v-4.5c0-2.6-1.2-3.7-3.6-3.7
		C105.9,102.9,102.6,104.8,101.9,107.7z M112.5,111.2c-0.9,1.3-1.6,1.8-2.5,2.3c-1.3,0.7-2.4,1.9-2.4,4v3.9c0,2.1,0.2,3.3,1.5,3.3
		c1.9,0,3.4-2.6,3.4-4.1V111.2z"/>
	<path fill="#FFFFFF" d="M149.8,124.9h-12.4v-0.1h2v-17.1c0-3.2-0.4-4.4-1.8-4.4c-1.5,0-2.9,1.8-3.5,4.3v17.2h2v0.1h-12.4v-0.1h3.5
		v-21.5h-3.5v-0.1h10.4v4c0.9-3.2,2.8-4.5,5.2-4.5c4.9,0,7,3.6,7,8v14.2L149.8,124.9L149.8,124.9z"/>
	<path fill="#FFFFFF" d="M159,103.3V122c0,1.2,0.5,2.1,1.5,2.1c1.4,0,1.6-1.6,1.6-3v-4.8h0.1v4.9c0,2.5-1,4.2-4.1,4.2
		c-4.2,0-6.1-2.7-6.1-6.8v-15.3h-3.4v-0.1h1.1c5.1,0,9.1-3.2,9.1-9.1h0.1V103.3l4.3-0.1v0.1H159z"/>
	<path fill="#FFFFFF" d="M181,103.3V122c0,1.2,0.5,2.1,1.5,2.1c1.4,0,1.6-1.6,1.6-3v-4.8h0.1v4.9c0,2.5-1,4.2-4.1,4.2
		c-4.2,0-6.1-2.7-6.1-6.8v-15.3h-3.4v-0.1h1.1c5.1,0,9.1-3.2,9.1-9.1h0.1V103.3l4.3-0.1v0.1H181z"/>
	<path fill="#FFFFFF" d="M196.9,125.5c-5.5,0-10.9-5.3-10.9-11.4c0-6.1,5.4-11.4,10.9-11.4s10.9,5.3,10.9,11.4
		C207.8,120.1,202.4,125.5,196.9,125.5z M196.9,102.8c-3.4,0-3.5,5.1-3.5,11.3s0.1,11.3,3.5,11.3c3.4,0,3.5-5.1,3.5-11.3
		S200.3,102.8,196.9,102.8z"/>
	<path fill="#FFFFFF" d="M229.8,93.4h-3.5v-0.1h10.4v31.5h3.5v0.1h-10.4v-4c-0.9,3.2-2.8,4.5-5.2,4.5c-4.2,0-8.4-4.8-8.4-11.4
		s4.2-11.4,8.4-11.4c2.4,0,4.3,1.3,5.2,4.5V93.4z M229.8,107.6c-0.6-2.5-1.9-4.3-3.5-4.3c-2,0-2.7,2.1-2.7,8.4v4.8
		c0,6.3,0.7,8.4,2.7,8.4c1.5,0,2.9-1.8,3.5-4.3V107.6z"/>
	<path fill="#FFFFFF" d="M242.1,107.7c0.4-1.6,2-2.7,3.6-2.7c2,0,3.7,1.6,3.7,3.7c0,2-1.6,3.7-3.7,3.7c-2.4,0-3.7-1.9-3.7-4
		c0-0.3,0-0.7,0.2-1.3c1.2-3.1,4.9-4.4,7.4-4.4c6.4,0,10.1,3.1,10.1,7.6v11.4c0,1.8,0.6,2.6,1.6,2.6c0.4,0,0.8-0.1,1-0.3
		c0.6-0.5,0.7-1.5,0.8-1.7h0.1c-0.3,1.6-1.3,3.2-3.9,3.2c-3.6,0-6.2-2.3-6.5-4.8c-0.2,1.8-1.5,4.8-6.1,4.8c-3.6,0-5.9-2.4-5.9-5.5
		c0-3.5,2.7-5.6,5.6-6.2c2.2-0.4,2.5-0.2,3.7-0.5c1-0.3,1.8-1.2,2.6-2.2v-4.5c0-2.6-1.2-3.7-3.6-3.7
		C246.1,102.9,242.8,104.8,242.1,107.7z M252.8,111.2c-0.9,1.3-1.6,1.8-2.5,2.3c-1.3,0.7-2.4,1.9-2.4,4v3.9c0,2.1,0.2,3.3,1.5,3.3
		c2,0,3.4-2.6,3.4-4.1V111.2z"/>
	<path fill="#FFFFFF" d="M290,124.9h-12.4v-0.1h2v-17.1c0-3.2-0.4-4.4-1.8-4.4c-1.5,0-2.9,1.8-3.5,4.3v17.2h2v0.1h-12.4v-0.1h3.5
		v-21.5h-3.5v-0.1h10.4v4c0.9-3.2,2.8-4.5,5.2-4.5c4.9,0,7,3.6,7,8v14.2L290,124.9L290,124.9z"/>
	<path fill="#FFFFFF" d="M297.5,114.2c0,3.5,0.1,10.6,5,10.6c3.9,0,6-3.2,6.2-8.3h0.1c-0.2,5.2-2.3,9-8,9c-5.6,0-10.7-4.9-10.7-11.4
		c0-6,4.5-11.4,11.1-11.4c4,0,6,1.9,6.8,4.4c0.2,0.6,0.2,1,0.2,1.3c0,2.1-1.3,4-3.7,4c-2,0-3.7-1.6-3.7-3.7c0-2,1.6-3.7,3.7-3.7
		c1.6,0,3.1,1.2,3.5,2.7c-0.5-2.2-2.2-4.8-6.1-4.8C298,102.9,297.5,107.9,297.5,114.2z"/>
	<path fill="#FFFFFF" d="M317.4,114v1.2c0,6,0.3,9.6,4.7,9.6c4,0,6.7-2.8,7.8-7.5h0.1c-1.1,5.1-4.1,8.2-9.5,8.2
		c-5.5,0-10.4-5.3-10.4-11.4c0-6.1,4.9-11.4,10.4-11.4c5.6,0,10,5.2,10,11.4H317.4z M317.4,111.1v2.9h5.6c0-9.7-0.4-11.2-2.6-11.2
		C317.6,102.8,317.4,106.1,317.4,111.1z"/>
	<path fill="#FFFFFF" d="M334,127.8c3.4-0.6,4.9-2.3,5.1-5.2c-0.3,1.6-1.9,2.7-3.6,2.7c-2,0-3.7-1.6-3.7-3.7c0-2,1.6-3.7,3.7-3.7
		c2.4,0,3.7,1.9,3.7,4C339.3,124.9,337.9,127.3,334,127.8L334,127.8z"/>
	<path fill="#FFFFFF" d="M358.7,124.8h3.8v0.1h-14.9v-0.1h3.8V94.7h-3.8v-0.1h14.9v0.1h-3.8V124.8z"/>
	<path fill="#FFFFFF" d="M404.9,103.4l-3.5,0l-7,22.3l-6.6-15.8l-5,15.8l-9.3-22.3h-3.5v-0.1h25.5v0.1h-2.8l4.9,11.4l3.6-11.4h-3.5
		v-0.1h7.1V103.4z M386.1,114.8l1.6-5.1l-2.6-6.3h-3.9L386.1,114.8z"/>
	<path fill="#FFFFFF" d="M405.7,107.7c0.4-1.6,2-2.7,3.6-2.7c2,0,3.7,1.6,3.7,3.7c0,2-1.6,3.7-3.7,3.7c-2.4,0-3.7-1.9-3.7-4
		c0-0.3,0-0.7,0.2-1.3c1.2-3.1,4.9-4.4,7.4-4.4c6.4,0,10.1,3.1,10.1,7.6v11.4c0,1.8,0.6,2.6,1.6,2.6c0.4,0,0.8-0.1,1-0.3
		c0.6-0.5,0.7-1.5,0.8-1.7h0.1c-0.3,1.6-1.3,3.2-3.9,3.2c-3.6,0-6.2-2.3-6.5-4.8c-0.2,1.8-1.5,4.8-6.1,4.8c-3.6,0-5.9-2.4-5.9-5.5
		c0-3.5,2.7-5.6,5.6-6.2c2.2-0.4,2.5-0.2,3.7-0.5c1-0.3,1.8-1.2,2.6-2.2v-4.5c0-2.6-1.2-3.7-3.6-3.7
		C409.7,102.9,406.4,104.8,405.7,107.7z M416.3,111.2c-0.9,1.3-1.6,1.8-2.5,2.3c-1.3,0.7-2.4,1.9-2.4,4v3.9c0,2.1,0.2,3.3,1.5,3.3
		c2,0,3.4-2.6,3.4-4.1V111.2z"/>
	<path fill="#FFFFFF" d="M453.6,124.9h-12.4v-0.1h2v-17.1c0-3.2-0.4-4.4-1.8-4.4c-1.5,0-2.9,1.8-3.5,4.3v17.2h2v0.1h-12.4v-0.1h3.5
		v-21.5h-3.5v-0.1h10.4v4c0.9-3.2,2.8-4.5,5.2-4.5c4.9,0,7,3.6,7,8v14.2L453.6,124.9L453.6,124.9z"/>
	<path fill="#FFFFFF" d="M462.8,103.3V122c0,1.2,0.5,2.1,1.5,2.1c1.4,0,1.6-1.6,1.6-3v-4.8h0.1v4.9c0,2.5-1,4.2-4.1,4.2
		c-4.2,0-6.1-2.7-6.1-6.8v-15.3h-3.4v-0.1h1.1c5.1,0,9.1-3.2,9.1-9.1h0.1V103.3l4.3-0.1v0.1H462.8z"/>
	<path fill="#FFFFFF" d="M485.1,134.9h3.5v0.1h-13.9v-0.1h3.5v-31.5h-3.5v-0.1h10.4v4c0.9-3.2,2.8-4.5,5.2-4.5
		c4.2,0,8.4,4.8,8.4,11.4s-4.2,11.4-8.4,11.4c-2.4,0-4.3-1.3-5.2-4.5V134.9z M485.1,120.5c0.6,2.5,2,4.3,3.5,4.3
		c2,0,2.7-2.1,2.7-8.4v-4.8c0-6.3-0.7-8.4-2.7-8.4c-1.5,0-2.9,1.8-3.5,4.3V120.5z"/>
	<path fill="#FFFFFF" d="M507.9,114v1.2c0,6,0.3,9.6,4.7,9.6c4,0,6.7-2.8,7.8-7.5h0.1c-1.1,5.1-4.1,8.2-9.5,8.2
		c-5.5,0-10.4-5.3-10.4-11.4c0-6.1,4.9-11.4,10.4-11.4c5.6,0,10,5.2,10,11.4H507.9z M507.9,111.1v2.9h5.6c0-9.7-0.4-11.2-2.6-11.2
		C508.1,102.8,507.9,106.1,507.9,111.1z"/>
	<path fill="#FFFFFF" d="M533.2,125.5c-5.5,0-10.9-5.3-10.9-11.4c0-6.1,5.4-11.4,10.9-11.4s10.9,5.3,10.9,11.4
		C544.1,120.1,538.7,125.5,533.2,125.5z M533.2,102.8c-3.4,0-3.5,5.1-3.5,11.3s0.1,11.3,3.5,11.3c3.4,0,3.5-5.1,3.5-11.3
		S536.6,102.8,533.2,102.8z"/>
	<path fill="#FFFFFF" d="M554.7,134.9h3.5v0.1h-13.9v-0.1h3.5v-31.5h-3.5v-0.1h10.4v4c0.9-3.2,2.8-4.5,5.2-4.5
		c4.2,0,8.4,4.8,8.4,11.4s-4.2,11.4-8.4,11.4c-2.4,0-4.3-1.3-5.2-4.5V134.9z M554.7,120.5c0.6,2.5,2,4.3,3.5,4.3
		c2,0,2.7-2.1,2.7-8.4v-4.8c0-6.3-0.7-8.4-2.7-8.4c-1.5,0-2.9,1.8-3.5,4.3V120.5z"/>
	<path fill="#FFFFFF" d="M568.7,124.9L568.7,124.9l3.5-0.1V93.4h-3.5v-0.1h10.4v31.5h3.5v0.1H568.7z"/>
	<path fill="#FFFFFF" d="M590.1,114v1.2c0,6,0.3,9.6,4.7,9.6c4,0,6.7-2.8,7.8-7.5h0.1c-1.1,5.1-4.1,8.2-9.5,8.2
		c-5.5,0-10.4-5.3-10.4-11.4c0-6.1,4.9-11.4,10.4-11.4c5.6,0,10,5.2,10,11.4H590.1z M590.1,111.1v2.9h5.6c0-9.7-0.4-11.2-2.6-11.2
		C590.3,102.8,590.1,106.1,590.1,111.1z"/>
	<path fill="#FFFFFF" d="M101.1,155.4l-3.5,0l-7,22.3L84,161.8l-5,15.8l-9.3-22.3h-3.5v-0.1h25.5v0.1H89l4.9,11.4l3.6-11.4H94v-0.1
		h7.1V155.4z M82.3,166.8l1.6-5.1l-2.6-6.3h-3.9L82.3,166.8z"/>
	<path fill="#FFFFFF" d="M126.6,176.9h-12.4v-0.1h2v-17.1c0-3.2-0.4-4.4-1.8-4.4c-1.5,0-2.9,1.8-3.5,4.3v17.2h2v0.1h-12.4v-0.1h3.5
		v-31.4h-3.5v-0.1h10.4v13.9c0.9-3.2,2.8-4.5,5.2-4.5c4.9,0,7,3.6,7,8v14.2L126.6,176.9L126.6,176.9z"/>
	<path fill="#FFFFFF" d="M137.5,177.5c-5.5,0-10.9-5.3-10.9-11.4c0-6.1,5.4-11.4,10.9-11.4c5.5,0,10.9,5.3,10.9,11.4
		C148.3,172.1,143,177.5,137.5,177.5z M137.5,154.8c-3.4,0-3.5,5.1-3.5,11.3s0.1,11.3,3.5,11.3c3.4,0,3.5-5.1,3.5-11.3
		S140.8,154.8,137.5,154.8z"/>
	<path fill="#FFFFFF" d="M182.6,176.9h-12.4v-0.1h2v-17.1c0-3.2-0.4-4.4-1.8-4.4c-1.5,0-2.9,1.8-3.5,4.3v17.2h2v0.1h-12.4v-0.1h3.5
		v-31.4h-3.5v-0.1h10.4v13.9c0.9-3.2,2.8-4.5,5.2-4.5c4.9,0,7,3.6,7,8v14.2L182.6,176.9L182.6,176.9z"/>
	<path fill="#FFFFFF" d="M184.5,159.7c0.4-1.6,2-2.7,3.6-2.7c2,0,3.7,1.6,3.7,3.7c0,2-1.6,3.7-3.7,3.7c-2.4,0-3.7-1.9-3.7-4
		c0-0.3,0-0.7,0.2-1.3c1.2-3.1,4.9-4.4,7.4-4.4c6.4,0,10.1,3.1,10.1,7.6v11.4c0,1.8,0.6,2.6,1.6,2.6c0.4,0,0.8-0.1,1-0.3
		c0.6-0.5,0.7-1.5,0.8-1.7h0.1c-0.3,1.6-1.3,3.2-3.9,3.2c-3.6,0-6.2-2.3-6.5-4.8c-0.2,1.8-1.5,4.8-6.1,4.8c-3.6,0-5.9-2.4-5.9-5.5
		c0-3.5,2.7-5.6,5.6-6.2c2.2-0.4,2.5-0.2,3.7-0.5c1-0.3,1.8-1.2,2.6-2.2v-4.5c0-2.6-1.2-3.7-3.6-3.7
		C188.4,154.9,185.1,156.8,184.5,159.7z M195.1,163.2c-0.9,1.3-1.6,1.8-2.5,2.3c-1.3,0.7-2.4,1.9-2.4,4v3.9c0,2.1,0.2,3.3,1.5,3.3
		c2,0,3.4-2.6,3.4-4.1V163.2z"/>
	<path fill="#FFFFFF" d="M225.8,155.3h-3.5l-7,22.3l-9.3-22.3h-3.5v-0.1h13.9v0.1h-2.8l4.9,11.4l3.6-11.4h-3.5v-0.1L225.8,155.3
		L225.8,155.3z"/>
	<path fill="#FFFFFF" d="M231.7,166v1.2c0,6,0.3,9.6,4.7,9.6c4,0,6.7-2.8,7.8-7.5h0.1c-1.1,5.1-4.1,8.2-9.5,8.2
		c-5.5,0-10.4-5.3-10.4-11.4c0-6.1,4.9-11.4,10.4-11.4c5.6,0,10,5.2,10,11.4H231.7z M231.7,163.1v2.9h5.6c0-9.7-0.4-11.2-2.6-11.2
		C232,154.8,231.7,158.1,231.7,163.1z"/>
	<path fill="#FFFFFF" d="M262.6,155.3V174c0,1.2,0.5,2.1,1.5,2.1c1.4,0,1.6-1.6,1.6-3v-4.8h0.1v4.9c0,2.5-1,4.2-4.1,4.2
		c-4.2,0-6.1-2.7-6.1-6.8v-15.3h-3.4v-0.1h1.1c5.1,0,9.1-3.3,9.1-9.1h0.1V155.3l4.3-0.1v0.1H262.6z"/>
	<path fill="#FFFFFF" d="M278.5,177.5c-5.5,0-10.9-5.3-10.9-11.4c0-6.1,5.4-11.4,10.9-11.4s10.9,5.3,10.9,11.4
		C289.4,172.1,284,177.5,278.5,177.5z M278.5,154.8c-3.4,0-3.5,5.1-3.5,11.3s0.1,11.3,3.5,11.3c3.4,0,3.5-5.1,3.5-11.3
		S281.9,154.8,278.5,154.8z"/>
	<path fill="#FFFFFF" d="M311.4,145.5h-3.5v-0.1h10.4v31.5h3.5v0.1h-10.4v-4c-0.9,3.2-2.8,4.6-5.2,4.6c-4.2,0-8.4-4.8-8.4-11.4
		s4.2-11.4,8.4-11.4c2.4,0,4.3,1.3,5.2,4.5V145.5z M311.4,159.6c-0.6-2.5-1.9-4.3-3.5-4.3c-2,0-2.7,2.1-2.7,8.4v4.8
		c0,6.3,0.7,8.4,2.7,8.4c1.5,0,2.9-1.8,3.5-4.3V159.6z"/>
	<path fill="#FFFFFF" d="M323.7,159.7c0.4-1.6,2-2.7,3.6-2.7c2,0,3.7,1.6,3.7,3.7c0,2-1.6,3.7-3.7,3.7c-2.4,0-3.7-1.9-3.7-4
		c0-0.3,0-0.7,0.2-1.3c1.2-3.1,4.9-4.4,7.4-4.4c6.4,0,10.1,3.1,10.1,7.6v11.4c0,1.8,0.6,2.6,1.6,2.6c0.4,0,0.8-0.1,1-0.3
		c0.6-0.5,0.7-1.5,0.8-1.7h0.1c-0.3,1.6-1.3,3.2-3.9,3.2c-3.6,0-6.2-2.3-6.5-4.8c-0.2,1.8-1.5,4.8-6.1,4.8c-3.6,0-5.9-2.4-5.9-5.5
		c0-3.5,2.7-5.6,5.6-6.2c2.2-0.4,2.5-0.2,3.7-0.5c1-0.3,1.8-1.2,2.6-2.2v-4.5c0-2.6-1.2-3.7-3.6-3.7
		C327.7,154.9,324.4,156.8,323.7,159.7z M334.3,163.2c-0.9,1.3-1.6,1.8-2.5,2.3c-1.3,0.7-2.4,1.9-2.4,4v3.9c0,2.1,0.2,3.3,1.5,3.3
		c2,0,3.4-2.6,3.4-4.1V163.2z"/>
	<path fill="#FFFFFF" d="M371.5,176.9h-12.4v-0.1h2v-17.1c0-3.2-0.4-4.4-1.8-4.4c-1.5,0-2.9,1.8-3.5,4.3v17.2h2v0.1h-12.4v-0.1h3.5
		v-21.5h-3.5v-0.1h10.4v4c0.9-3.2,2.8-4.5,5.2-4.5c4.9,0,7,3.6,7,8v14.2L371.5,176.9L371.5,176.9z"/>
	<path fill="#FFFFFF" d="M379.1,166.2c0,3.5,0.1,10.6,5,10.6c3.9,0,6-3.2,6.2-8.3h0.1c-0.2,5.2-2.3,9-8,9c-5.6,0-10.7-4.9-10.7-11.4
		c0-6,4.5-11.4,11.1-11.4c4,0,6,1.9,6.8,4.4c0.2,0.6,0.2,1,0.2,1.3c0,2.1-1.3,4-3.7,4c-2,0-3.7-1.6-3.7-3.7c0-2,1.6-3.7,3.7-3.7
		c1.6,0,3.1,1.2,3.5,2.7c-0.5-2.2-2.2-4.8-6.1-4.8C379.6,154.9,379.1,159.9,379.1,166.2z"/>
	<path fill="#FFFFFF" d="M399,166v1.2c0,6,0.3,9.6,4.7,9.6c4,0,6.7-2.8,7.8-7.5h0.1c-1.1,5.1-4.1,8.2-9.5,8.2
		c-5.5,0-10.4-5.3-10.4-11.4c0-6.1,4.9-11.4,10.4-11.4c5.6,0,10,5.2,10,11.4H399z M399,163.1v2.9h5.6c0-9.7-0.4-11.2-2.6-11.2
		C399.2,154.8,399,158.1,399,163.1z"/>
	<path fill="#FFFFFF" d="M416.9,170c2,0,3.6,1.6,3.6,3.6c0,2-1.6,3.7-3.6,3.7c-2,0-3.7-1.6-3.7-3.7C413.2,171.6,414.9,170,416.9,170
		z"/>
</g>
<g>
	<path fill="#333333" d="M0,30.6C0,21.8,6,8,21.9,0l2.1,3.4c-10.9,7.6-13.8,17.1-14,21.6c4.1,0.5,8.1,4.4,8.1,8.6
		c0,4.9-4.2,8.6-8.6,8.6C4.4,42.3,0,38.2,0,30.6z M28.4,30.6c0-8.8,6-22.6,21.9-30.6l2.1,3.4c-10.9,7.6-13.8,17.1-14,21.6
		c4.1,0.5,8.1,4.4,8.1,8.6c0,4.9-4.2,8.6-8.6,8.6C32.8,42.3,28.4,38.2,28.4,30.6z"/>
</g>
</svg>
