<?xml version="1.0" encoding="utf-8"?>
<!-- Generator: Adobe Illustrator 18.1.0, SVG Export Plug-In . SVG Version: 6.00 Build 0)  -->
<svg version="1.1" id="Layer_1" xmlns="http://www.w3.org/2000/svg" xmlns:xlink="http://www.w3.org/1999/xlink" x="0px" y="0px"
	 viewBox="377 319 670 612" enable-background="new 377 319 670 612" xml:space="preserve">
<g>
	<path fill="#FFFFFF" d="M496.5,920c-0.4,1.7-1.3,2.9-2.8,2.9c-1.8,0-2.9-2.8-4.6-2.8c-0.9,0-1.7,0.7-1.8,2.2l-0.9-0.9
		c0.2-1.5,1.3-2.9,2.8-2.9c2,0,3.3,2.8,4.8,2.8c1.1,0,1.5-0.9,1.8-2.2L496.5,920L496.5,920z M505.3,908.8h2.2l6.4,19.5l6.8-19.5h2.2
		l-7.9,21.7h-2.6L505.3,908.8L505.3,908.8z M527.5,907.7c0.7,0,1.3,0.4,1.3,1.3s-0.6,1.3-1.3,1.3c-0.9,0-1.5-0.4-1.5-1.3
		S526.6,907.7,527.5,907.7z M526.4,930.3v-16.7h2v16.7H526.4z M540.4,928.8c2,0,3.3-0.7,4.4-2l1.1,1.5c-1.3,1.5-2.9,2.4-5.3,2.4
		c-4.4,0-7.5-3.5-7.5-8.8c0-5.3,2.9-8.8,7.5-8.8c2.4,0,4,0.9,5.3,2.4l-1.1,1.5c-1.1-1.3-2.4-2-4.4-2c-3.3,0-5.3,2.6-5.3,6.8
		C535.1,926.2,537.1,928.8,540.4,928.8L540.4,928.8z M561.5,914.1l-7.5,7.5l7.9,8.5v0.4h-2.6l-7.4-8.3v8.3h-2v-22.6h2v13.2l7.2-7.4
		h2.4L561.5,914.1L561.5,914.1z M566.7,907.7c0.7,0,1.3,0.4,1.3,1.3s-0.6,1.3-1.3,1.3c-0.9,0-1.5-0.4-1.5-1.3
		S565.7,907.7,566.7,907.7z M565.6,930.3v-16.7h2v16.7H565.6z M579.7,908.8h6.6c3.9,0,6.1,1.8,6.1,5.5c0,2.6-1.3,4-3.3,4.8
		c2.9,0.6,4.8,2.2,4.8,5.5c0,3.5-2.2,5.7-6.2,5.7h-7.9L579.7,908.8L579.7,908.8z M581.9,918.3h4.2c2.8,0,4.4-1.3,4.4-3.9
		c0-2.8-1.5-3.9-4.2-3.9h-4.4V918.3z M581.9,928.4h5.7c2.9,0,4.4-1.5,4.4-4c0-2.9-1.8-4.2-5-4.2h-5v8.3L581.9,928.4L581.9,928.4z
		 M607.6,930.3v-1.8c-1.1,1.1-2.8,2-5.1,2c-3.3,0-5.3-2-5.3-5.1c0-4,3.3-5.9,7.5-5.9c0.9,0,2,0.2,2.9,0.4v-0.7c0-2.8-1.5-4-4-4
		c-1.7,0-3.3,0.4-4.6,1.1l-0.4-1.8c1.5-0.7,3.7-1.1,5.3-1.1c3.7,0,5.7,2,5.7,6.1v11L607.6,930.3L607.6,930.3z M603.1,929
		c2.2,0,3.7-1.1,4.4-2v-5.1c-0.6-0.2-1.8-0.4-2.8-0.4c-3.1,0-5.5,1.3-5.5,4C599.2,927.7,600.8,929,603.1,929L603.1,929z
		 M616.7,913.7v10.1c0,3.1,1.3,5,4.2,5c2.6,0,4.2-1.8,4.8-3.9v-11h2v16.7h-2v-2.8c-1.1,1.8-2.9,3.1-5.5,3.1c-3.7,0-5.7-2.4-5.7-6.6
		v-10.5h2.2L616.7,913.7L616.7,913.7z M654.1,930.3V920c0-3.1-1.3-4.6-4-4.6c-2.2,0-3.5,1.5-4.2,3.7v11.4h-2V920
		c0-3.1-1.5-4.6-4-4.6s-3.9,1.7-4.6,3.9v11.2h-2v-16.7h2v2.8c1.1-2,2.8-2.9,5.1-2.9c2.6,0,4.2,1.1,5,3.3c0.9-2,2.6-3.3,5.1-3.3
		c3.9,0,5.5,2.2,5.5,6.2v10.7h-1.8L654.1,930.3L654.1,930.3z"/>
</g>
<path fill="#333333" d="M959.6,841.3c18-12.7,22.8-28.3,23.2-35.8c-6.8-0.7-13.4-7.2-13.4-14.3c0-8.1,7-14.3,14.3-14.3
	c8.6,0,15.8,6.8,15.8,19.3c0,14.5-9.9,37.3-36.4,50.5L959.6,841.3L959.6,841.3z M1006.6,841.3c18-12.7,22.8-28.3,23.2-35.8
	c-6.8-0.7-13.4-7.2-13.4-14.3c0-8.1,7-14.3,14.3-14.3c8.6,0,15.8,6.8,15.8,19.3c0,14.5-9.9,37.3-36.4,50.5L1006.6,841.3
	L1006.6,841.3z"/>
<g>
	<path fill="#FFFFFF" d="M530.5,389.4l-2.4,19.8h-0.2c1-7.9-1.2-18.9-11.2-19.8l-6.1,49.8h6.2l0,0.2h-24.6l0-0.2h6.2l6.1-49.6
		c-10.2,0.9-15.1,11.9-16,19.8h-0.2l2.5-20C490.8,389.4,530.5,389.4,530.5,389.4z M567.2,439.6h-20.4l0-0.2h3.3l3.5-28.1
		c0.7-5.3,0.2-7.4-2-7.4c-2.6,0-5.1,2.9-6.6,7.2l-3.5,28.5h3.3l0,0.2H524l0-0.2h5.7l6.4-52h-5.7l0-0.2h17.3l-2.8,23
		c2.1-5.3,5.5-7.5,9.6-7.5c8.1,0,10.9,5.9,10,13.2l-2.9,23.5L567.2,439.6C567.2,439.6,567.2,439.6,567.2,439.6z M582.1,421.6l-0.2,2
		c-1.2,9.9-1.6,15.8,6,15.8c6.6,0,11.6-4.6,14.4-12.5h0.2c-2.9,8.5-8.5,13.6-17.5,13.6c-9.2,0-16.2-8.8-15-18.9
		c1.2-10.1,10.4-18.9,19.6-18.9c9.4,0,15.5,8.6,14.2,18.7h-21.7L582.1,421.6z M582.7,416.8l-0.6,4.8h9.4c2-16,1.5-18.6-1.9-18.6
		C584.7,403,583.7,408.3,582.7,416.8L582.7,416.8z M601.7,439.6l5.7-0.2l4.4-35.5h-5.7l0-0.2h17.3l-0.4,2.9c1.7-2,4-3.9,7.5-3.9
		c2.6,0,6.3,1.5,6.8,5.7c0.3,0.9,0.2,1.7,0.1,2.2c-0.4,3.5-2.8,6.6-6.9,6.6c-3.3,0-5.7-2.8-5.3-6.1s3.5-6.1,6.8-6.1
		c2.8,0,4.9,2,5.3,4.6c0-3.1-2.3-6.6-6.9-6.6c-3.5,0-5.7,1.7-7.5,3.9l-4,32.3h5.7l0,0.2H601.7z M649.7,421.6l-0.2,2
		c-1.2,9.9-1.6,15.8,6,15.8c6.6,0,11.6-4.6,14.4-12.5h0.2c-2.9,8.5-8.5,13.6-17.5,13.6c-9.2,0-16.2-8.8-15-18.9
		c1.2-10.1,10.4-18.9,19.6-18.9c9.4,0,15.5,8.6,14.2,18.7h-21.7L649.7,421.6z M650.3,416.8l-0.6,4.8h9.4c2-16,1.5-18.6-1.9-18.6
		C652.4,403,651.3,408.3,650.3,416.8L650.3,416.8z M688.5,411.1c1.1-2.6,3.9-4.6,6.4-4.6c3.3,0,5.7,2.8,5.3,6.1s-3.5,6.1-6.8,6.1
		c-4,0-5.7-3.1-5.3-6.6c0.1-0.6,0.1-1.1,0.6-2.2c2.7-5.1,9-7.2,13-7.2c10.7,0,16.1,5.1,15.2,12.7l-2.3,18.9
		c-0.4,2.9,0.4,4.2,2.2,4.2c0.7,0,1.3-0.2,1.7-0.6c1-0.9,1.6-2.4,1.6-2.9h0.2c-0.9,2.6-2.7,5.3-7.1,5.3c-6.1,0-9.8-3.9-9.9-7.9
		c-0.7,2.9-3.5,7.9-11.1,7.9c-6.1,0-9.3-3.9-8.6-9.2c0.7-5.7,5.6-9.4,10.5-10.3c3.8-0.7,4.1-0.2,6.2-0.7c1.7-0.4,3.2-2,4.7-3.7
		l0.9-7.4c0.5-4.2-1.3-6.1-5.3-6.1C696.1,403.2,690.2,406.3,688.5,411.1z M705.4,417c-1.7,2.2-2.9,2.9-4.7,3.9
		c-2.4,1.3-4.2,3.1-4.7,6.6l-0.8,6.4c-0.4,3.5-0.3,5.5,1.7,5.5c3.3,0,6.2-4.2,6.5-6.8L705.4,417L705.4,417z M721.2,439.6l5.7-0.2
		l4.4-35.5h-5.7l0-0.2h17.3l-0.4,2.9c1.7-2,4-3.9,7.5-3.9c2.6,0,6.3,1.5,6.8,5.7c0.3,0.9,0.2,1.7,0.1,2.2c-0.4,3.5-2.8,6.6-6.9,6.6
		c-3.3,0-5.7-2.8-5.3-6.1c0.4-3.3,3.5-6.1,6.8-6.1c2.8,0,4.9,2,5.3,4.6c0-3.1-2.3-6.6-6.9-6.6c-3.5,0-5.7,1.7-7.5,3.9l-4,32.3h5.7
		l0,0.2H721.2L721.2,439.6z M769.2,421.6l-0.2,2c-1.2,9.9-1.6,15.8,6,15.8c6.6,0,11.6-4.6,14.4-12.5h0.2
		c-2.9,8.5-8.5,13.6-17.5,13.6c-9.2,0-16.2-8.8-15-18.9c1.2-10.1,10.4-18.9,19.6-18.9c9.4,0,15.5,8.6,14.2,18.7h-21.7L769.2,421.6z
		 M769.8,416.8l-0.6,4.8h9.4c2-16,1.5-18.6-1.9-18.6C771.8,403,770.8,408.3,769.8,416.8z"/>
</g>
<g>
	<path fill="#FFFFFF" d="M489.5,523.7c-1.5,0-3.1,1.3-3.8,3.7h-0.2l2.2-18.2h0.2c-0.6,6.4,3.8,17.3,11.5,17.3c3.1,0,5.4-2,5.8-5.3
		c1.1-8.6-18.4-7.7-16.7-21.3c0.7-5.3,5.8-11,12.2-11c3.7,0,6.7,2.6,9.4,2.6c0.9,0,1.7-0.7,2-2.6h0.2l-1.8,14.3h-0.2
		c0.1-3.9-2.3-14.2-9.7-14.2c-3.3,0-5.8,2.4-6.2,5.3c-1,7.9,19.4,7,17.7,20.8c-0.8,6.4-6.2,11.4-12.8,11.4
		C495.1,526.7,493,523.7,489.5,523.7L489.5,523.7z M554.9,525.6h-20.4l0-0.2h3.3l3.5-28.1c0.7-5.3,0.2-7.4-2-7.4
		c-2.6,0-5.1,2.9-6.6,7.2l-3.5,28.5h3.3l0,0.2h-20.6l0-0.2h5.7l6.4-52h-5.7l0-0.2h17.3l-2.8,23c2.1-5.3,5.5-7.5,9.6-7.5
		c8.1,0,10.9,5.9,10,13.2l-2.9,23.5L554.9,525.6L554.9,525.6L554.9,525.6z M573,526.5c-9.2,0-16.9-8.8-15.7-18.9
		c1.2-10.1,11.1-18.9,20.3-18.9c9.2,0,16.9,8.8,15.7,18.9C592.1,517.7,582,526.5,573,526.5L573,526.5z M577.6,489
		c-5.5,0-6.7,8.5-8,18.7c-1.3,10.3-2.1,18.7,3.4,18.7c5.5,0,6.9-8.5,8.2-18.7C582.5,497.5,583.1,489,577.6,489L577.6,489z
		 M591.7,525.6l5.7-0.2l4.4-35.5h-5.7l0-0.2h17.3l-0.4,2.9c1.7-2,4-3.9,7.5-3.9c2.6,0,6.3,1.5,6.8,5.7c0.3,0.9,0.2,1.7,0.1,2.2
		c-0.4,3.5-2.8,6.6-6.9,6.6c-3.3,0-5.7-2.8-5.3-6.1c0.4-3.3,3.5-6.1,6.8-6.1c2.8,0,4.9,2,5.3,4.6c0-3.1-2.3-6.6-6.9-6.6
		c-3.5,0-5.7,1.7-7.5,3.9l-4,32.3h5.7l0,0.2L591.7,525.6L591.7,525.6L591.7,525.6z M645.7,489.9l-3.8,30.9c-0.2,2,0.3,3.5,2.1,3.5
		c2.2,0,3.1-2.6,3.4-5l1-7.9h0.2l-1,8.1c-0.5,4.2-2.5,7-7.7,7c-6.8,0-9.5-4.6-8.7-11.4l3.1-25.2h-5.7l0-0.2h1.8
		c8.5,0,15.7-5.3,16.9-15.1h0.2L645.7,489.9l7.2-0.2l0,0.2H645.7z M652.7,504.6h18.6l0,0.2L652.7,504.6z M687.2,507.7
		c-0.7,5.9-2,17.6,6.1,17.6c6.4,0,10.6-5.1,12-13.8h0.2c-1.4,8.6-5.7,14.9-15.1,14.9s-16.6-8.1-15.3-18.9
		c1.2-9.9,9.9-18.9,20.5-18.9c6.6,0,9.5,3.1,10.3,7.2c0.3,0.9,0.2,1.7,0.1,2.2c-0.4,3.5-2.8,6.6-6.9,6.6c-3.3,0-5.7-2.8-5.3-6.1
		s3.5-6.1,6.8-6.1c2.6,0,4.9,2,5.3,4.6c-0.3-3.7-2.7-7.9-9.1-7.9C690.3,489.2,688.5,497.5,687.2,507.7L687.2,507.7z M707.5,489.7
		h17.3l-3.5,28.3c-0.7,5.3-0.2,7.4,2,7.4c2.6,0,5.1-2.9,6.6-7.2l3.5-28.3H730l0-0.2h14.7l-4.4,35.7h5.7l0,0.2h-17.3l0.8-6.6
		c-2.1,5.3-5.5,7.5-9.6,7.5c-8.1,0-10.9-5.9-10-13.2l2.9-23.3L707.5,489.7z M766.6,489.9l-3.8,30.9c-0.2,2,0.3,3.5,2.1,3.5
		c2.2,0,3.1-2.6,3.4-5l1-7.9h0.2l-1,8.1c-0.5,4.2-2.5,7-7.7,7c-6.8,0-9.5-4.6-8.7-11.4l3.1-25.2h-5.7l0-0.2h1.8
		c8.5,0,15.7-5.3,16.9-15.1h0.2L766.6,489.9l7.2-0.2l0,0.2H766.6z M776.1,523.7c-1.5,0-3.1,1.3-3.8,3.7h-0.2l2.2-18.2h0.2
		c-0.6,6.4,3.8,17.3,11.5,17.3c3.1,0,5.4-2,5.8-5.3c1.1-8.6-18.3-7.7-16.7-21.3c0.7-5.3,5.8-11,12.2-11c3.7,0,6.7,2.6,9.4,2.6
		c0.9,0,1.7-0.7,2-2.6h0.2l-1.8,14.3H797c0.1-3.9-2.3-14.2-9.7-14.2c-3.3,0-5.8,2.4-6.2,5.3c-1,7.9,19.4,7,17.7,20.8
		c-0.8,6.4-6.2,11.4-12.8,11.4C781.6,526.7,779.6,523.7,776.1,523.7L776.1,523.7z M832,489.9l-3.8,30.9c-0.2,2,0.3,3.5,2.1,3.5
		c2.2,0,3.1-2.6,3.4-5l1-7.9h0.2l-1,8.1c-0.5,4.2-2.5,7-7.7,7c-6.8,0-9.5-4.6-8.7-11.4l3.1-25.2H815l0-0.2h1.8
		c8.5,0,15.7-5.3,16.9-15.1h0.2L832,489.9l7.2-0.2l0,0.2H832L832,489.9z M854,526.5c-9.2,0-16.9-8.8-15.7-18.9
		c1.2-10.1,11.1-18.9,20.3-18.9c9.2,0,16.9,8.8,15.7,18.9C873.1,517.7,863,526.5,854,526.5z M858.6,489c-5.5,0-6.7,8.5-8,18.7
		c-1.3,10.3-2.1,18.7,3.4,18.7c5.5,0,6.9-8.5,8.2-18.7S864.1,489,858.6,489z"/>
</g>
<g>
	<path fill="#FFFFFF" d="M528.1,611.6h-20.6l0-0.2h3.3l3.5-28.3c0.7-5.3,0.2-7.4-2-7.4c-2.6,0-5.1,2.9-6.6,7.2l-3.5,28.5h3.3l0,0.2
		h-20.6l0-0.2h5.7l6.4-51.8h-5.7l0-0.2h17.3l-2.8,23c2.1-5.3,5.5-7.5,9.6-7.5c8.1,0,10.9,5.9,10,13.2l-2.9,23.5L528.1,611.6
		L528.1,611.6L528.1,611.6z M534.7,583.1c1.1-2.6,3.9-4.6,6.4-4.6c3.3,0,5.7,2.8,5.3,6.1c-0.4,3.3-3.5,6.1-6.8,6.1
		c-4,0-5.7-3.1-5.3-6.6c0.1-0.6,0.1-1.1,0.6-2.2c2.7-5.1,9-7.2,13-7.2c10.7,0,16.1,5.1,15.2,12.7l-2.3,18.9
		c-0.4,2.9,0.4,4.2,2.2,4.2c0.7,0,1.3-0.2,1.7-0.6c1-0.9,1.6-2.4,1.6-2.9h0.2c-0.9,2.6-2.7,5.3-7.1,5.3c-6.1,0-9.8-3.9-9.9-7.9
		c-0.7,2.9-3.5,7.9-11.1,7.9c-6.1,0-9.3-3.9-8.6-9.2c0.7-5.7,5.6-9.4,10.5-10.3c3.8-0.7,4.1-0.2,6.2-0.7c1.7-0.4,3.2-2,4.7-3.7
		l0.9-7.4c0.5-4.2-1.3-6.1-5.3-6.1C542.3,575.2,536.4,578.3,534.7,583.1L534.7,583.1z M551.6,589c-1.7,2.2-2.9,2.9-4.7,3.9
		c-2.4,1.3-4.2,3.1-4.7,6.6l-0.8,6.4c-0.4,3.5-0.3,5.5,1.7,5.5c3.3,0,6.2-4.2,6.5-6.8L551.6,589L551.6,589z M580.1,628.1h5.7l0,0.2
		h-23l0-0.2h5.7l6.4-52.2h-5.7l0-0.2h17.3l-0.8,6.6c2.1-5.3,5.5-7.5,9.6-7.5c6.8,0,12.8,7.9,11.5,18.9c-1.3,10.8-9.3,18.9-16.1,18.9
		c-3.9,0-6.9-2.2-7.7-7.5L580.1,628.1L580.1,628.1z M583,604.4c0.4,4,2.4,7.2,4.8,7.2c3.3,0,5-3.5,6.3-13.8l1-7.9
		c1.3-10.5,0.6-13.8-2.9-13.8c-2.6,0-5.1,2.9-6.6,7.2L583,604.4L583,604.4z M620.5,628.1h5.7l0,0.2h-23l0-0.2h5.7l6.4-52.2h-5.7
		l0-0.2H627l-0.8,6.6c2.1-5.3,5.5-7.5,9.6-7.5c6.8,0,12.8,7.9,11.5,18.9c-1.3,10.8-9.3,18.9-16.1,18.9c-3.9,0-6.9-2.2-7.7-7.5
		L620.5,628.1L620.5,628.1z M623.4,604.4c0.4,4,2.4,7.2,4.8,7.2c3.3,0,5-3.5,6.3-13.8l1-7.9c1.3-10.5,0.6-13.8-2.9-13.8
		c-2.6,0-5.1,2.9-6.6,7.2L623.4,604.4L623.4,604.4z M645.7,611.6l5.7-0.2l4.4-35.5h-5.7l0-0.2h17.3l-4.4,35.7h5.7l0,0.2H645.7
		L645.7,611.6z M664.1,556.3c3.5,0,5.7,2.6,5.3,6.1c-0.4,3.5-3.3,6.1-6.8,6.1c-3.5,0-5.7-2.6-5.3-6.1
		C657.7,558.8,660.6,556.3,664.1,556.3z M713.9,611.6h-20.6l0-0.2h3.3l3.5-28.3c0.7-5.3,0.2-7.4-2-7.4c-2.6,0-5.1,2.9-6.6,7.2
		l-3.5,28.5h3.3l0,0.2h-20.6l0-0.2h5.7l4.4-35.5h-5.7l0-0.2h17.3l-0.8,6.6c2.1-5.3,5.5-7.5,9.6-7.5c8.1,0,10.9,5.9,10,13.2
		l-2.9,23.5L713.9,611.6L713.9,611.6L713.9,611.6z M728.8,593.6l-0.2,2c-1.2,9.9-1.6,15.8,6,15.8c6.6,0,11.6-4.6,14.4-12.5h0.2
		c-2.9,8.5-8.5,13.6-17.5,13.6c-9.2,0-16.2-8.8-15-18.9c1.2-10.1,10.4-18.9,19.6-18.9c9.4,0,15.5,8.6,14.2,18.7h-21.7L728.8,593.6z
		 M729.4,588.8l-0.6,4.8h9.4c2-16,1.5-18.6-1.9-18.6C731.4,575,730.4,580.5,729.4,588.8L729.4,588.8z M755.7,609.7
		c-1.5,0-3.1,1.3-3.8,3.7h-0.2l2.2-18.2h0.2c-0.6,6.4,3.8,17.3,11.5,17.3c3.1,0,5.4-2,5.8-5.3c1.1-8.6-18.4-7.7-16.7-21.3
		c0.7-5.3,5.8-11,12.2-11c3.7,0,6.7,2.6,9.4,2.6c0.9,0,1.7-0.7,2-2.6h0.2l-1.8,14.3h-0.2c0.1-3.9-2.3-14.2-9.7-14.2
		c-3.3,0-5.8,2.4-6.2,5.3c-1,7.9,19.4,7,17.7,20.8c-0.8,6.4-6.2,11.4-12.8,11.4C761.2,612.7,759.1,609.7,755.7,609.7L755.7,609.7z
		 M785.2,609.7c-1.5,0-3.1,1.3-3.8,3.7h-0.2l2.2-18.2h0.2c-0.6,6.4,3.8,17.3,11.5,17.3c3.1,0,5.4-2,5.8-5.3
		c1.1-8.6-18.4-7.7-16.7-21.3c0.7-5.3,5.8-11,12.2-11c3.7,0,6.7,2.6,9.4,2.6c0.9,0,1.7-0.7,2-2.6h0.2l-1.8,14.3h-0.2
		c0.1-3.9-2.3-14.2-9.7-14.2c-3.3,0-5.8,2.4-6.2,5.3c-1,7.9,19.4,7,17.7,20.8c-0.8,6.4-6.2,11.4-12.8,11.4
		C790.8,612.7,788.7,609.7,785.2,609.7L785.2,609.7z M813.8,616.4c5.8-0.9,8.6-3.9,9.5-8.6c-0.9,2.6-3.7,4.6-6.4,4.6
		c-3.3,0-5.7-2.8-5.3-6.1c0.4-3.3,3.5-6.1,6.8-6.1c4,0,5.7,3.1,5.3,6.6C823,611.8,820.2,615.6,813.8,616.4z"/>
</g>
<g>
	<path fill="#FFFFFF" d="M491.6,669.1c1.1-2.6,3.9-4.6,6.4-4.6c3.3,0,5.7,2.8,5.3,6.1c-0.4,3.3-3.5,6.1-6.8,6.1
		c-4,0-5.7-3.1-5.3-6.6c0.1-0.6,0.1-1.1,0.6-2.2c2.7-5.1,9-7.2,13-7.2c10.7,0,16.1,5.1,15.2,12.7l-2.3,18.9
		c-0.4,2.9,0.4,4.2,2.2,4.2c0.7,0,1.3-0.2,1.7-0.6c1-0.9,1.6-2.4,1.6-2.9h0.2c-0.9,2.6-2.7,5.3-7.1,5.3c-6.1,0-9.8-3.9-9.9-7.9
		c-0.7,2.9-3.5,7.9-11.1,7.9c-6.1,0-9.3-3.9-8.6-9.2c0.7-5.7,5.6-9.4,10.5-10.3c3.8-0.7,4.1-0.2,6.2-0.7c1.7-0.4,3.2-2,4.7-3.7
		l0.9-7.4c0.5-4.2-1.3-6.1-5.3-6.1C499.2,661.2,493.2,664.5,491.6,669.1L491.6,669.1z M508.5,675c-1.7,2.2-2.9,2.9-4.7,3.9
		c-2.4,1.3-4.2,3.1-4.7,6.6l-0.8,6.4c-0.4,3.5-0.3,5.5,1.7,5.5c3.3,0,6.2-4.2,6.5-6.8L508.5,675L508.5,675z M567.3,697.6h-20.4
		l0-0.2h3.3l3.5-28.3c0.7-5.3,0.2-7.4-2-7.4c-2.6,0-5.1,2.9-6.6,7.2l-3.5,28.5h3.3l0,0.2h-20.6l0-0.2h5.7l4.4-35.5h-5.7l0-0.2H546
		l-0.8,6.6c2.1-5.3,5.5-7.5,9.6-7.5c8.1,0,10.9,5.9,10,13.2l-2.9,23.5L567.3,697.6L567.3,697.6L567.3,697.6z M596.8,645.6h-5.7
		l0-0.2h17.3l-6.4,52h5.7l0,0.2h-17.3l0.8-6.6c-2.1,5.3-5.5,7.5-9.6,7.5c-6.8,0-12.8-7.9-11.5-18.9c1.3-10.8,9.3-18.9,16.1-18.9
		c3.9,0,6.9,2.2,7.7,7.5L596.8,645.6L596.8,645.6z M593.9,669.1c-0.4-4-2.4-7.2-4.8-7.2c-3.3,0-5,3.5-6.3,13.8l-1,7.9
		c-1.3,10.5-0.6,13.8,2.9,13.8c2.6,0,5.1-2.9,6.6-7.2L593.9,669.1L593.9,669.1z M649.4,645.6h-5.7l0-0.2H661l-6.4,52h5.7l0,0.2H643
		l0.8-6.6c-2.1,5.3-5.5,7.5-9.6,7.5c-6.8,0-12.8-7.9-11.5-18.9c1.3-10.8,9.3-18.9,16.1-18.9c3.9,0,6.9,2.2,7.7,7.5L649.4,645.6
		L649.4,645.6z M646.5,669.1c-0.4-4-2.4-7.2-4.8-7.2c-3.3,0-5,3.5-6.3,13.8l-1,7.9c-1.3,10.5-0.6,13.8,2.9,13.8
		c2.6,0,5.1-2.9,6.6-7.2L646.5,669.1L646.5,669.1z M667.1,669.1c1.1-2.6,3.9-4.6,6.4-4.6c3.3,0,5.7,2.8,5.3,6.1
		c-0.4,3.3-3.5,6.1-6.8,6.1c-4,0-5.7-3.1-5.3-6.6c0.1-0.6,0.1-1.1,0.6-2.2c2.7-5.1,9-7.2,13-7.2c10.7,0,16.1,5.1,15.2,12.7
		l-2.3,18.9c-0.4,2.9,0.4,4.2,2.2,4.2c0.7,0,1.3-0.2,1.7-0.6c1-0.9,1.6-2.4,1.6-2.9h0.2c-0.9,2.6-2.7,5.3-7.1,5.3
		c-6.1,0-9.8-3.9-9.9-7.9c-0.7,2.9-3.5,7.9-11.1,7.9c-6.1,0-9.3-3.9-8.6-9.2c0.7-5.7,5.6-9.4,10.5-10.3c3.8-0.7,4.1-0.2,6.2-0.7
		c1.7-0.4,3.2-2,4.7-3.7l0.9-7.4c0.5-4.2-1.3-6.1-5.3-6.1C674.5,661.2,668.7,664.5,667.1,669.1L667.1,669.1z M683.8,675
		c-1.7,2.2-2.9,2.9-4.7,3.9c-2.4,1.3-4.2,3.1-4.7,6.6l-0.8,6.4c-0.4,3.5-0.3,5.5,1.7,5.5c3.3,0,6.2-4.2,6.5-6.8L683.8,675L683.8,675
		z M742.8,697.6h-20.6l0-0.2h3.3l3.5-28.3c0.7-5.3,0.2-7.4-2-7.4c-2.6,0-5.1,2.9-6.6,7.2l-3.5,28.5h3.3l0,0.2h-20.6l0-0.2h5.7
		l4.4-35.5H704l0-0.2h17.3l-0.8,6.6c2.1-5.3,5.5-7.5,9.6-7.5c8.1,0,10.9,5.9,10,13.2l-2.9,23.5L742.8,697.6L742.8,697.6L742.8,697.6
		z M757.5,680c-0.7,5.9-2,17.6,6.1,17.6c6.4,0,10.6-5.1,12-13.8h0.2c-1.4,8.6-5.7,14.9-15.1,14.9s-16.6-8.1-15.3-18.9
		c1.2-9.9,9.9-18.9,20.5-18.9c6.6,0,9.5,3.1,10.3,7.2c0.3,0.9,0.2,1.7,0.1,2.2c-0.4,3.5-2.8,6.6-6.9,6.6c-3.3,0-5.7-2.8-5.3-6.1
		c0.4-3.3,3.5-6.1,6.8-6.1c2.6,0,4.9,2,5.3,4.6c-0.3-3.7-2.7-7.9-9.1-7.9C760.5,661.2,758.7,669.5,757.5,680L757.5,680z
		 M774.2,697.6l5.7-0.2l4.4-35.5h-5.7l0-0.2h17.3l-4.4,35.7h5.7l0,0.2L774.2,697.6L774.2,697.6L774.2,697.6z M792.6,642.3
		c3.5,0,5.7,2.6,5.3,6.1c-0.4,3.5-3.3,6.1-6.8,6.1c-3.5,0-5.7-2.6-5.3-6.1C786.2,644.8,789.1,642.3,792.6,642.3z M842.4,697.6h-20.6
		l0-0.2h3.3l3.5-28.3c0.7-5.3,0.2-7.4-2-7.4c-2.6,0-5.1,2.9-6.6,7.2l-3.5,28.5h3.3l0,0.2h-20.6l0-0.2h5.7l4.4-35.5h-5.7l0-0.2h17.3
		l-0.8,6.6c2.1-5.3,5.5-7.5,9.6-7.5c8.1,0,10.9,5.9,10,13.2l-2.9,23.5L842.4,697.6L842.4,697.6L842.4,697.6z M853.1,681.2
		c-1.3,0.4-3.1,1.3-3.3,2.9c-0.1,0.7,0.2,1.5,1.2,1.8c1.2,0.7,4.5,1.1,10.8,1.5c13.7,0.7,17.3,6.1,16.3,13.6c-1,8.1-9.3,14-19.4,14
		c-12.1,0-17.4-5-16.8-9.9c0.6-5,4.8-7.4,9.4-7.9c-3.7-1.3-6.7-3.5-6.1-8.5C845.6,685.1,848.7,682.5,853.1,681.2
		c-2.7-2.2-3.9-5.3-3.5-8.8c0.8-6.4,7.3-11.6,15.4-11.6c5.5,0,9.8,2.4,11.6,5.9c1.1-0.2,8.3-1.5,9.1-7.9c0.6-4.8-2.1-6.6-4.2-7.5
		c1.9,1.1,3.1,3.1,2.8,5.5c-0.4,3.3-3.5,6.2-7,6.2c-3.5,0-5.9-2.8-5.5-6.2c0.4-3.5,3.5-6.2,7-6.2c0.2,0,1.1,0,1.4,0.2
		c2.2,0.4,6.4,1.8,5.6,7.9c-0.8,6.2-7.7,7.7-9.3,8.1c0.9,1.7,1.2,3.5,1,5.5c-0.8,6.4-7.3,11.6-15.4,11.6
		C858.4,684,855.4,682.9,853.1,681.2L853.1,681.2z M852,697.6c-2,1.1-4.1,3.3-4.6,7.4c-0.6,5,3.7,10.1,11.1,10.1
		c7,0,12.7-3.1,13.3-8.1c0.5-4.2-1.8-6.2-10.1-7.7C859,698.9,855.3,698.5,852,697.6L852,697.6z M868.7,672.4
		c1.2-9.7-1-11.4-3.7-11.4c-2.8,0-5.3,1.7-6.5,11.4c-1.2,9.7,1,11.4,3.7,11.4S867.5,682.2,868.7,672.4L868.7,672.4z"/>
</g>
<path fill="#FFFFFF" d="M485.1,783.6l5.7-0.2l4.4-35.5h-5.7l0-0.2h17.3l-4.4,35.7h5.7l0,0.2L485.1,783.6L485.1,783.6L485.1,783.6z
	 M498.7,728.3c3.5,0,6.1,2.6,6.1,6.1s-2.6,6.1-6.1,6.1s-5.9-2.6-5.9-6.1C492.8,730.9,495.4,728.3,498.7,728.3z"/>
<path fill="#FFFFFF" d="M514.6,781.8c-1.5,0-3.1,1.3-3.8,3.7h-0.2l2.2-18.2h0.2c-0.6,6.4,3.8,17.3,11.5,17.3c3.1,0,5.4-2,5.8-5.3
	c1.1-8.6-18.3-7.7-16.7-21.3c0.7-5.3,5.8-11,12.2-11c3.7,0,6.7,2.6,9.4,2.6c0.9,0,1.7-0.7,2-2.6h0.2l-1.8,14.3
	c0.1-3.9-2.3-14.2-9.7-14.2c-3.3,0-5.8,2.4-6.2,5.3c-1,7.9,19.4,7,17.7,20.8c-0.8,6.4-6.2,11.4-12.8,11.4
	C520.1,784.7,518.1,781.8,514.6,781.8L514.6,781.8z"/>
<path fill="#FFFFFF" d="M567.9,784.5c-9.2,0-16.9-8.8-15.7-18.9c1.2-10.1,11.1-18.9,20.3-18.9s16.9,8.8,15.7,18.9
	S576.9,784.5,567.9,784.5L567.9,784.5z M572.5,747c-5.5,0-6.7,8.5-8,18.7c-1.3,10.3-2.1,18.7,3.4,18.7c5.5,0,6.9-8.5,8.2-18.7
	S578,747,572.5,747L572.5,747z"/>
<path fill="#FFFFFF" d="M629.6,783.6H609l0-0.2h3.3l3.5-28.3c0.7-5.3,0.2-7.4-2-7.4c-2.6,0-5.1,2.9-6.6,7.2l-3.5,28.5h3.3l0,0.2
	h-20.6l0-0.2h5.7l4.4-35.5h-5.7l0-0.2h17.3l-0.8,6.6c2.1-5.3,5.5-7.5,9.6-7.5c8.1,0,10.9,5.9,10,13.2l-2.9,23.5L629.6,783.6
	L629.6,783.6L629.6,783.6z"/>
<path fill="#FFFFFF" d="M644.5,765.6l-0.2,2c-1.2,9.9-1.6,15.8,6,15.8c6.6,0,11.6-4.6,14.4-12.5h0.2c-2.9,8.5-8.5,13.6-17.5,13.6
	c-9.2,0-16.2-8.8-15-18.9c1.2-10.1,10.4-18.9,19.6-18.9c9.4,0,15.5,8.6,14.2,18.7h-21.7L644.5,765.6z M645,760.8l-0.6,4.8h9.4
	c2-16,1.5-18.6-1.9-18.6C647.1,747,646.1,752.5,645,760.8L645,760.8z"/>
<path fill="#FFFFFF" d="M694.9,784.5c-9.2,0-16.9-8.8-15.7-18.9c1.2-10.1,11.1-18.9,20.3-18.9s16.9,8.8,15.7,18.9
	S704.1,784.5,694.9,784.5z M699.5,747c-5.5,0-6.7,8.5-8,18.7c-1.3,10.3-2.1,18.7,3.4,18.7c5.5,0,6.9-8.5,8.2-18.7
	S705.2,747,699.5,747L699.5,747z"/>
<path fill="#FFFFFF" d="M747.5,736.2c0.4,0.9,0.4,1.7,0.4,2.2c0,3.5-2,6.6-6.1,6.6c-3.3,0-6.1-2.8-6.1-6.1c0-3.3,2.8-6.1,6.1-6.1
	c2.6,0,5.1,2,5.9,4.6c-0.6-3.9-3.7-6.1-7.4-6.1c-2.2,0-3.9,0.6-5,1.3c-1.7,1.1-2.4,2.9-2.4,5.5l2.2,9.9h5.7l0,0.2h-5.7l-4.4,35.5
	h5.7l0,0.2h-23l0-0.2h5.7l4.4-35.5h-5.7l0-0.2h5.7l-2.2-4.6c0-6.8,7-12.7,15.8-12.7C742.4,730.5,746,732,747.5,736.2L747.5,736.2z"
	/>
<path fill="#FFFFFF" d="M778.6,748l-3.8,30.9c-0.2,2,0.3,3.5,2.1,3.5c2.2,0,3.1-2.6,3.4-5l1-7.9h0.2l-1,8.1c-0.5,4.2-2.5,7-7.7,7
	c-6.8,0-9.5-4.6-8.7-11.4l3.1-25.4h-5.7l0-0.2h1.8c8.5,0,12.8-5.3,12.8-15.1h0.2L778.6,748l7.2-0.2l0,0.2H778.6L778.6,748z"/>
<path fill="#FFFFFF" d="M825.1,783.6h-20.6l0-0.2h3.3l3.5-28.3c0.7-5.3,0.2-7.4-2-7.4c-2.6,0-5.1,2.9-6.6,7.2l-3.5,28.5h3.3l0,0.2
	h-20.6l0-0.2h5.7l2.1-51.8h-5.7v-0.2h17.3l1.4,23c2.1-5.3,5.5-7.5,9.6-7.5c8.1,0,10.9,5.9,10,13.2l-2.9,23.5L825.1,783.6
	L825.1,783.6L825.1,783.6z"/>
<path fill="#FFFFFF" d="M839.8,765.6l-0.2,2c-1.2,9.9-1.6,15.8,6,15.8c6.6,0,11.6-4.6,14.4-12.5h0.2c-2.9,8.5-8.5,13.6-17.5,13.6
	c-9.2,0-16.2-8.8-15-18.9c1.2-10.1,10.4-18.9,19.6-18.9c9.4,0,15.5,8.6,14.2,18.7h-21.7L839.8,765.6z M840.4,760.8l-0.6,4.8h9.4
	c2-16,1.5-18.6-1.9-18.6C842.5,747,841.4,752.5,840.4,760.8L840.4,760.8z"/>
<path fill="#FFFFFF" d="M899.2,783.6h-17.5l0-0.2h3.1l3.8-30.7c0.3-2.2,0.2-4.8-2-4.8c-2.6,0-5.6,3.7-6.8,7.2l-3.5,28.3h2.9l0,0.2
	H860l0-0.2h5l4.4-35.5h-5l0-0.2H881l-0.8,6.6c2.1-5.1,5.7-7.5,9.6-7.5c5.9,0,8.4,3.1,9.6,7.5c2.1-5.1,6.1-7.5,10.1-7.5
	c8.1,0,10.9,5.9,10,13.2l-2.9,23.5h5l0,0.2h-19.7l0-0.2h3.1l3.5-28.3c0.7-5.3,0.5-7.4-2-7.4c-2.9,0-5.9,3.5-7.1,6.8
	c0.3,1.7,0.3,3.5,0.1,5.3l-2.9,23.5L899.2,783.6L899.2,783.6L899.2,783.6z"/>
<path fill="#FFFFFF" d="M930.4,772.2c3.3,0,5.7,2.8,5.3,6.1c-0.4,3.3-3.5,6.1-6.8,6.1c-3.3,0-5.7-2.8-5.3-6.1
	C923.9,775,927,772.2,930.4,772.2z"/>
<path fill="#333333" d="M377,369.5c0-14.5,9.9-37.3,36.4-50.5l3.5,5.7c-18,12.5-23,28.1-23.2,35.7c6.8,0.7,13.4,7.2,13.4,14.3
	c0,8.1-7,14.3-14.3,14.3C384.4,388.8,377,382.2,377,369.5z M424,369.5c0-14.5,9.9-37.3,36.4-50.5l3.5,5.7
	c-18,12.7-22.8,28.3-23.2,35.8c6.8,0.7,13.4,7.2,13.4,14.3c0,8.1-7,14.3-14.3,14.3C431.4,388.8,424,382.2,424,369.5L424,369.5z"/>
</svg>
