<?xml version="1.0" encoding="utf-8"?>
<!-- Generator: Adobe Illustrator 18.1.0, SVG Export Plug-In . SVG Version: 6.00 Build 0)  -->
<svg version="1.1" id="Layer_1" xmlns="http://www.w3.org/2000/svg" xmlns:xlink="http://www.w3.org/1999/xlink" x="0px" y="0px"
	 viewBox="0 0 493 267" enable-background="new 0 0 493 267" xml:space="preserve">
<g>
	<path fill="#FFFFFF" d="M72.3,260.5c-0.2,1-0.8,1.8-1.7,1.8c-1.2,0-1.8-1.7-2.8-1.7c-0.5,0-1,0.4-1.1,1.3l-0.6-0.6
		c0.1-0.9,0.7-1.7,1.6-1.7c1.2,0,2,1.7,2.9,1.7c0.6,0,0.9-0.5,1.1-1.3L72.3,260.5z"/>
	<path fill="#FFFFFF" d="M90,255.7l-4.6,6.6h-0.3l-4.6-6.6v11h-1.3v-13.1h1.2l4.7,6.9l4.8-6.9h1.2v13.1H90V255.7z"/>
	<path fill="#FFFFFF" d="M100.2,266.7v-1.1c-0.6,0.6-1.6,1.3-3.1,1.3c-2,0-3.2-1.2-3.2-3.1c0-2.5,2-3.5,4.6-3.5
		c0.6,0,1.2,0.1,1.7,0.2v-0.5c0-1.7-0.9-2.5-2.4-2.5c-1,0-2,0.2-2.8,0.7l-0.3-1.1c0.9-0.4,2.2-0.7,3.2-0.7c2.2,0,3.5,1.3,3.5,3.6
		v6.6H100.2z M97.5,265.9c1.3,0,2.2-0.7,2.7-1.3v-3.1c-0.4-0.1-1.1-0.2-1.7-0.2c-1.9,0-3.4,0.7-3.4,2.5
		C95.2,265.1,96.1,265.9,97.5,265.9z"/>
	<path fill="#FFFFFF" d="M106.4,264c0,1.3,0.5,1.8,1.6,1.8c0.7,0,1.5-0.3,2-0.8l0.4,1c-0.7,0.5-1.6,0.9-2.7,0.9
		c-1.5,0-2.5-0.8-2.5-2.8v-6.4h-1.7v-1h1.7l0.1-2.6h1v2.6h3.5v1h-3.5V264z"/>
	<path fill="#FFFFFF" d="M118,266.7v-1.1c-0.6,0.6-1.6,1.3-3.1,1.3c-2,0-3.2-1.2-3.2-3.1c0-2.5,2-3.5,4.6-3.5c0.6,0,1.2,0.1,1.7,0.2
		v-0.5c0-1.7-0.9-2.5-2.4-2.5c-1,0-2,0.2-2.8,0.7l-0.3-1.1c0.9-0.4,2.2-0.7,3.2-0.7c2.2,0,3.5,1.3,3.5,3.6v6.6H118z M115.3,265.9
		c1.3,0,2.2-0.7,2.7-1.3v-3.1c-0.4-0.1-1.1-0.2-1.7-0.2c-1.9,0-3.4,0.7-3.4,2.5C113,265.1,113.9,265.9,115.3,265.9z"/>
	<path fill="#FFFFFF" d="M135.4,260.7h-7.6v6h-1.3v-13.1h1.3v6h7.6v-6h1.3v13.1h-1.3V260.7z"/>
	<path fill="#FFFFFF" d="M145.6,266.7v-1.1c-0.6,0.6-1.6,1.3-3.1,1.3c-2,0-3.2-1.2-3.2-3.1c0-2.5,2-3.5,4.6-3.5
		c0.6,0,1.2,0.1,1.7,0.2v-0.5c0-1.7-0.9-2.5-2.4-2.5c-1,0-2,0.2-2.8,0.7l-0.3-1.1c0.9-0.4,2.2-0.7,3.2-0.7c2.2,0,3.5,1.3,3.5,3.6
		v6.6H145.6z M142.9,265.9c1.3,0,2.2-0.7,2.7-1.3v-3.1c-0.4-0.1-1.1-0.2-1.7-0.2c-1.9,0-3.4,0.7-3.4,2.5
		C140.6,265.1,141.5,265.9,142.9,265.9z"/>
	<path fill="#FFFFFF" d="M150,266.7v-10.1h1.3v1.8c0.5-1.3,1.2-2,2.4-2c0.6,0,1.2,0.2,1.6,0.6l-0.3,1.1c-0.4-0.3-0.9-0.5-1.4-0.5
		c-1.2,0-1.9,1-2.3,2.5v6.5H150z"/>
	<path fill="#FFFFFF" d="M157.9,253c0.5,0,0.8,0.2,0.8,0.8c0,0.6-0.3,0.8-0.8,0.8c-0.5,0-0.8-0.2-0.8-0.8
		C157.1,253.2,157.4,253,157.9,253z M157.3,266.7v-10.1h1.2v10.1H157.3z"/>
</g>
<g>
	<path fill="#333333" d="M263.2,209.7c10.9-7.6,13.8-17.1,14-21.6c-4.1-0.5-8.1-4.4-8.1-8.6c0-4.9,4.2-8.6,8.6-8.6
		c5.2,0,9.6,4.1,9.6,11.7c0,8.8-6,22.6-21.9,30.6L263.2,209.7z M291.6,209.7c10.9-7.6,13.8-17.1,14-21.6c-4.1-0.5-8.1-4.4-8.1-8.6
		c0-4.9,4.2-8.6,8.6-8.6c5.2,0,9.6,4.1,9.6,11.7c0,8.8-6,22.6-21.9,30.6L291.6,209.7z"/>
</g>
<g>
	<path fill="#FFFFFF" d="M91,42.6v12h-0.1c0-4.7-2.1-11.4-8.2-12v30.2h3.8v0.1H71.6v-0.1h3.8V42.7c-6.1,0.5-8.2,7.2-8.2,12h-0.1v-12
		H91z"/>
	<path fill="#FFFFFF" d="M116.8,72.9h-12.4v-0.1h2V55.7c0-3.2-0.4-4.4-1.8-4.4c-1.5,0-2.9,1.8-3.5,4.3v17.2h2v0.1H90.8v-0.1h3.5
		V41.4h-3.5v-0.1h10.4v13.9c0.9-3.2,2.8-4.5,5.2-4.5c4.9,0,7,3.6,7,8v14.2L116.8,72.9L116.8,72.9z"/>
	<path fill="#FFFFFF" d="M124.4,62v1.2c0,6,0.3,9.6,4.7,9.6c4,0,6.7-2.8,7.8-7.5h0.1c-1.1,5.1-4.1,8.2-9.5,8.2
		c-5.5,0-10.4-5.3-10.4-11.4c0-6.1,4.9-11.4,10.4-11.4c5.6,0,10,5.2,10,11.4H124.4z M124.4,59.1v2.9h5.6c0-9.7-0.4-11.2-2.6-11.2
		C124.6,50.8,124.4,54,124.4,59.1z"/>
	<path fill="#FFFFFF" d="M159,41.4h-3.5v-0.1h10.4v31.5h3.5v0.1H159v-4c-0.9,3.2-2.8,4.6-5.2,4.6c-4.2,0-8.4-4.8-8.4-11.4
		s4.2-11.4,8.4-11.4c2.4,0,4.3,1.3,5.2,4.5V41.4z M159,55.6c-0.6-2.5-2-4.3-3.5-4.3c-2,0-2.7,2.1-2.7,8.4v4.8c0,6.3,0.7,8.4,2.7,8.4
		c1.5,0,2.9-1.8,3.5-4.3V55.6z"/>
	<path fill="#FFFFFF" d="M171.3,55.7c0.4-1.6,2-2.7,3.6-2.7c2,0,3.7,1.6,3.7,3.7c0,2-1.6,3.7-3.7,3.7c-2.4,0-3.7-1.9-3.7-4
		c0-0.3,0-0.7,0.2-1.3c1.2-3.1,4.9-4.4,7.4-4.4c6.4,0,10.1,3.1,10.1,7.6v11.4c0,1.8,0.6,2.6,1.6,2.6c0.4,0,0.8-0.1,1-0.3
		c0.6-0.5,0.7-1.5,0.8-1.7h0.1c-0.3,1.6-1.3,3.2-3.9,3.2c-3.6,0-6.2-2.3-6.5-4.8c-0.2,1.8-1.5,4.8-6.1,4.8c-3.6,0-5.9-2.4-5.9-5.5
		c0-3.5,2.7-5.6,5.6-6.2c2.2-0.4,2.5-0.2,3.7-0.5c1-0.3,1.8-1.2,2.6-2.2v-4.5c0-2.6-1.2-3.7-3.6-3.7C175.3,50.9,172,52.8,171.3,55.7
		z M181.9,59.2c-0.9,1.3-1.6,1.8-2.5,2.3c-1.3,0.7-2.4,1.9-2.4,4v3.9c0,2.1,0.2,3.3,1.5,3.3c2,0,3.4-2.6,3.4-4.1V59.2z"/>
	<path fill="#FFFFFF" d="M219.1,72.9h-12.4v-0.1h2V55.7c0-3.2-0.4-4.4-1.8-4.4c-1.5,0-2.9,1.8-3.5,4.3v17.2h2v0.1h-12.4v-0.1h3.5
		V51.3h-3.5v-0.1h10.4v4c0.9-3.2,2.8-4.5,5.2-4.5c4.9,0,7,3.6,7,8v14.2L219.1,72.9L219.1,72.9z"/>
	<path fill="#FFFFFF" d="M226.7,62.2c0,3.5,0.1,10.6,5,10.6c3.9,0,6-3.2,6.2-8.3h0.1c-0.2,5.2-2.3,9-8,9c-5.6,0-10.7-4.9-10.7-11.4
		c0-6,4.5-11.4,11.1-11.4c4,0,6,1.9,6.8,4.4c0.2,0.6,0.2,1,0.2,1.3c0,2.1-1.3,4-3.7,4c-2,0-3.7-1.6-3.7-3.7c0-2,1.6-3.7,3.7-3.7
		c1.6,0,3.1,1.2,3.5,2.7c-0.5-2.2-2.2-4.8-6.1-4.8C227.1,50.9,226.7,55.9,226.7,62.2z"/>
	<path fill="#FFFFFF" d="M246.6,62v1.2c0,6,0.3,9.6,4.7,9.6c4,0,6.7-2.8,7.8-7.5h0.1c-1.1,5.1-4.1,8.2-9.5,8.2
		c-5.5,0-10.4-5.3-10.4-11.4c0-6.1,4.9-11.4,10.4-11.4c5.6,0,10,5.2,10,11.4H246.6z M246.6,59.1v2.9h5.6c0-9.7-0.4-11.2-2.6-11.2
		C246.8,50.8,246.6,54,246.6,59.1z"/>
	<path fill="#FFFFFF" d="M267.3,72.9L267.3,72.9l3.5-0.1V51.3h-3.5v-0.1h10.4v21.6h3.5v0.1H267.3z M274.2,39.4
		c2.1,0,3.7,1.6,3.7,3.7s-1.6,3.6-3.7,3.6s-3.6-1.6-3.6-3.6S272.2,39.4,274.2,39.4z"/>
	<path fill="#FFFFFF" d="M284.9,71.8c-0.9,0-1.8,0.7-2,2.2h-0.1V63h0.1c0.1,3.9,3.5,10.5,8.2,10.5c1.9,0,3.1-1.2,3.1-3.2
		c0-5.2-11.7-4.6-11.7-12.9c0-3.2,2.7-6.7,6.6-6.7c2.2,0,4.2,1.6,5.9,1.6c0.6,0,1-0.4,1-1.6h0.1v8.7h-0.1c-0.2-2.3-2.5-8.6-6.9-8.6
		c-2,0-3.4,1.5-3.4,3.3c0,4.7,12.2,4.2,12.2,12.6c0,3.9-2.9,6.9-6.9,6.9C288.5,73.6,287.1,71.8,284.9,71.8z"/>
	<path fill="#FFFFFF" d="M308.1,55.7c0.4-1.6,1.9-2.7,3.6-2.7c2,0,3.7,1.6,3.7,3.7c0,2-1.6,3.7-3.7,3.7c-2.4,0-3.7-1.9-3.7-4
		c0-0.3,0-0.7,0.2-1.3c1.2-3.1,4.9-4.4,7.4-4.4c6.4,0,10.1,3.1,10.1,7.6v11.4c0,1.8,0.6,2.6,1.6,2.6c0.4,0,0.8-0.1,1-0.3
		c0.6-0.5,0.7-1.5,0.8-1.7h0.1c-0.3,1.6-1.3,3.2-3.9,3.2c-3.6,0-6.2-2.3-6.5-4.8c-0.2,1.8-1.5,4.8-6.1,4.8c-3.6,0-5.9-2.4-5.9-5.5
		c0-3.5,2.7-5.6,5.6-6.2c2.2-0.4,2.5-0.2,3.7-0.5c1-0.3,1.8-1.2,2.6-2.2v-4.5c0-2.6-1.2-3.7-3.6-3.7
		C312.1,50.9,308.8,52.8,308.1,55.7z M318.7,59.2c-0.9,1.3-1.6,1.8-2.5,2.3c-1.3,0.7-2.4,1.9-2.4,4v3.9c0,2.1,0.2,3.3,1.5,3.3
		c2,0,3.4-2.6,3.4-4.1V59.2z"/>
	<path fill="#FFFFFF" d="M346.8,82.9h3.5V83h-13.9v-0.1h3.5V51.3h-3.5v-0.1h10.4v4c0.9-3.2,2.8-4.5,5.2-4.5c4.2,0,8.4,4.8,8.4,11.4
		s-4.2,11.4-8.4,11.4c-2.4,0-4.3-1.3-5.2-4.6V82.9z M346.8,68.5c0.6,2.5,2,4.3,3.5,4.3c2,0,2.7-2.1,2.7-8.4v-4.8
		c0-6.3-0.7-8.4-2.7-8.4c-1.5,0-2.9,1.8-3.5,4.3V68.5z"/>
	<path fill="#FFFFFF" d="M373,73.5c-5.5,0-10.9-5.3-10.9-11.4c0-6.1,5.4-11.4,10.9-11.4c5.5,0,10.9,5.3,10.9,11.4
		C383.8,68.1,378.5,73.5,373,73.5z M373,50.8c-3.4,0-3.5,5.1-3.5,11.3s0.1,11.3,3.5,11.3c3.4,0,3.5-5.1,3.5-11.3
		S376.3,50.8,373,50.8z"/>
	<path fill="#FFFFFF" d="M392.9,62v1.2c0,6,0.3,9.6,4.7,9.6c4,0,6.7-2.8,7.8-7.5h0.1c-1.1,5.1-4.1,8.2-9.5,8.2
		c-5.5,0-10.4-5.3-10.4-11.4c0-6.1,4.9-11.4,10.4-11.4c5.6,0,10,5.2,10,11.4H392.9z M392.9,59.1v2.9h5.6c0-9.7-0.4-11.2-2.6-11.2
		C393.1,50.8,392.9,54,392.9,59.1z"/>
	<path fill="#FFFFFF" d="M430,72.9h-10.6v-0.1h1.9V54.2c0-1.4-0.2-2.9-1.6-2.9c-1.6,0-3.1,2.3-3.5,4.3v17.2h1.7v0.1h-11.7v-0.1h3
		V51.3h-3v-0.1h10v4c0.9-3.2,2.9-4.5,5.2-4.5c3.6,0,5.4,1.9,6.3,4.5c0.9-3.2,3.2-4.5,5.5-4.5c4.9,0,7,3.6,7,8v14.2h3v0.1h-11.9v-0.1
		h1.9V55.7c0-3.2-0.3-4.4-1.8-4.4c-1.8,0-3.3,2.1-3.8,4.1c0.3,1,0.5,2.1,0.5,3.2v14.2L430,72.9L430,72.9z"/>
	<path fill="#FFFFFF" d="M462.1,73.5c-5.5,0-10.9-5.3-10.9-11.4c0-6.1,5.4-11.4,10.9-11.4c5.5,0,10.9,5.3,10.9,11.4
		C473,68.1,467.6,73.5,462.1,73.5z M462.1,50.8c-3.4,0-3.5,5.1-3.5,11.3s0.1,11.3,3.5,11.3c3.4,0,3.5-5.1,3.5-11.3
		S465.5,50.8,462.1,50.8z"/>
	<path fill="#FFFFFF" d="M492.4,44.2c0.2,0.6,0.2,1,0.2,1.3c0,2.1-1.3,4-3.7,4c-2,0-3.7-1.6-3.7-3.7c0-2,1.6-3.7,3.7-3.7
		c1.6,0,3.1,1.2,3.5,2.7c-0.4-2.3-2.2-3.7-4.4-3.7c-1.3,0-2.3,0.3-3,0.8c-1,0.7-1.4,1.8-1.4,3.3v6h3.5v0.1h-3.5v21.5h3.5v0.1h-13.9
		v-0.1h3.5V51.3h-3.5v-0.1h3.5v-2.8c0-4.2,4.2-7.6,9.6-7.6C489.4,40.8,491.6,41.6,492.4,44.2z"/>
	<path fill="#FFFFFF" d="M101.1,103.4l-3.5,0l-7,22.3L84,109.8l-5,15.8l-9.3-22.3h-3.5v-0.1h25.5v0.1H89l4.9,11.4l3.6-11.4H94v-0.1
		h7.1V103.4z M82.3,114.8l1.6-5.1l-2.6-6.3h-3.9L82.3,114.8z"/>
	<path fill="#FFFFFF" d="M126.6,124.9h-12.4v-0.1h2v-17.1c0-3.2-0.4-4.4-1.8-4.4c-1.5,0-2.9,1.8-3.5,4.3v17.2h2v0.1h-12.4v-0.1h3.5
		V93.4h-3.5v-0.1h10.4v13.9c0.9-3.2,2.8-4.5,5.2-4.5c4.9,0,7,3.6,7,8v14.2L126.6,124.9L126.6,124.9z"/>
	<path fill="#FFFFFF" d="M127.8,124.9L127.8,124.9l3.5-0.1v-21.5h-3.5v-0.1h10.4v21.6h3.5v0.1H127.8z M134.8,91.5
		c2.1,0,3.7,1.6,3.7,3.7s-1.6,3.6-3.7,3.6s-3.6-1.6-3.6-3.6S132.7,91.5,134.8,91.5z"/>
	<path fill="#FFFFFF" d="M149.2,114.2c0,3.5,0.1,10.6,5,10.6c3.9,0,6-3.2,6.2-8.3h0.1c-0.2,5.2-2.3,9-8,9c-5.6,0-10.7-4.9-10.7-11.4
		c0-6,4.5-11.4,11.1-11.4c4,0,6,1.9,6.8,4.4c0.2,0.6,0.2,1,0.2,1.3c0,2.1-1.3,4-3.7,4c-2,0-3.7-1.6-3.7-3.7c0-2,1.6-3.7,3.7-3.7
		c1.6,0,3.1,1.2,3.5,2.7c-0.5-2.2-2.2-4.8-6.1-4.8C149.6,102.9,149.2,107.9,149.2,114.2z"/>
	<path fill="#FFFFFF" d="M186.7,124.9h-12.4v-0.1h2v-17.1c0-3.2-0.4-4.4-1.8-4.4c-1.5,0-2.9,1.8-3.5,4.3v17.2h2v0.1h-12.4v-0.1h3.5
		V93.4h-3.5v-0.1H171v13.9c0.9-3.2,2.8-4.5,5.2-4.5c4.9,0,7,3.6,7,8v14.2L186.7,124.9L186.7,124.9z"/>
	<path fill="#FFFFFF" d="M202,114v1.2c0,6,0.3,9.6,4.7,9.6c4,0,6.7-2.8,7.8-7.5h0.1c-1.1,5.1-4.1,8.2-9.5,8.2
		c-5.5,0-10.4-5.3-10.4-11.4c0-6.1,4.9-11.4,10.4-11.4c5.6,0,10,5.2,10,11.4H202z M202,111.1v2.9h5.6c0-9.7-0.4-11.2-2.6-11.2
		C202.2,102.8,202,106.1,202,111.1z"/>
	<path fill="#FFFFFF" d="M217.7,107.7c0.4-1.6,2-2.7,3.6-2.7c2,0,3.7,1.6,3.7,3.7c0,2-1.6,3.7-3.7,3.7c-2.4,0-3.7-1.9-3.7-4
		c0-0.3,0-0.7,0.2-1.3c1.2-3.1,4.9-4.4,7.4-4.4c6.4,0,10.1,3.1,10.1,7.6v11.4c0,1.8,0.6,2.6,1.6,2.6c0.4,0,0.8-0.1,1-0.3
		c0.6-0.5,0.7-1.5,0.8-1.7h0.1c-0.3,1.6-1.3,3.2-3.9,3.2c-3.6,0-6.2-2.3-6.5-4.8c-0.2,1.8-1.5,4.8-6.1,4.8c-3.6,0-5.9-2.4-5.9-5.5
		c0-3.5,2.7-5.6,5.6-6.2c2.2-0.4,2.5-0.2,3.7-0.5c1-0.3,1.8-1.2,2.6-2.2v-4.5c0-2.6-1.2-3.7-3.6-3.7
		C221.7,102.9,218.4,104.8,217.7,107.7z M228.3,111.2c-0.9,1.3-1.6,1.8-2.5,2.3c-1.3,0.7-2.4,1.9-2.4,4v3.9c0,2.1,0.2,3.3,1.5,3.3
		c2,0,3.4-2.6,3.4-4.1V111.2z"/>
	<path fill="#FFFFFF" d="M246.2,114.2c0,3.5,0.1,10.6,5,10.6c3.9,0,6-3.2,6.2-8.3h0.1c-0.2,5.2-2.3,9-8,9c-5.6,0-10.7-4.9-10.7-11.4
		c0-6,4.5-11.4,11.1-11.4c4,0,6,1.9,6.8,4.4c0.2,0.6,0.2,1,0.2,1.3c0,2.1-1.3,4-3.7,4c-2,0-3.7-1.6-3.7-3.7c0-2,1.6-3.7,3.7-3.7
		c1.6,0,3.1,1.2,3.5,2.7c-0.5-2.2-2.2-4.8-6.1-4.8C246.6,102.9,246.2,107.9,246.2,114.2z"/>
	<path fill="#FFFFFF" d="M283.7,124.9h-12.4v-0.1h2v-17.1c0-3.2-0.4-4.4-1.8-4.4c-1.5,0-2.9,1.8-3.5,4.3v17.2h2v0.1h-12.4v-0.1h3.5
		V93.4h-3.5v-0.1H268v13.9c0.9-3.2,2.8-4.5,5.2-4.5c4.9,0,7,3.6,7,8v14.2L283.7,124.9L283.7,124.9z"/>
	<path fill="#FFFFFF" d="M315,124.9h-10.6v-0.1h1.9v-18.6c0-1.4-0.2-2.9-1.6-2.9c-1.6,0-3.1,2.3-3.5,4.3v17.2h1.7v0.1h-11.7v-0.1h3
		v-21.5h-3v-0.1h10v4c0.9-3.2,2.9-4.5,5.2-4.5c3.6,0,5.4,1.9,6.3,4.5c0.9-3.2,3.2-4.5,5.5-4.5c4.9,0,7,3.6,7,8v14.2h3v0.1h-11.9
		v-0.1h1.9v-17.1c0-3.2-0.3-4.4-1.8-4.4c-1.8,0-3.3,2.1-3.8,4.1c0.3,1,0.5,2.1,0.5,3.2v14.2L315,124.9L315,124.9z"/>
	<path fill="#FFFFFF" d="M339.6,125.5c-5.5,0-10.9-5.3-10.9-11.4c0-6.1,5.4-11.4,10.9-11.4c5.5,0,10.9,5.3,10.9,11.4
		C350.5,120.1,345.1,125.5,339.6,125.5z M339.6,102.8c-3.4,0-3.5,5.1-3.5,11.3s0.1,11.3,3.5,11.3c3.4,0,3.5-5.1,3.5-11.3
		S343,102.8,339.6,102.8z"/>
	<path fill="#FFFFFF" d="M371.9,103.3h-3.5l-7,22.3l-9.3-22.3h-3.5v-0.1h13.9v0.1h-2.8l4.9,11.4l3.6-11.4h-3.5v-0.1L371.9,103.3
		L371.9,103.3z"/>
	<path fill="#FFFFFF" d="M377.9,114v1.2c0,6,0.3,9.6,4.7,9.6c4,0,6.7-2.8,7.8-7.5h0.1c-1.1,5.1-4.1,8.2-9.5,8.2
		c-5.5,0-10.4-5.3-10.4-11.4c0-6.1,4.9-11.4,10.4-11.4c5.6,0,10,5.2,10,11.4H377.9z M377.9,111.1v2.9h5.6c0-9.7-0.4-11.2-2.6-11.2
		C378.1,102.8,377.9,106.1,377.9,111.1z"/>
	<path fill="#FFFFFF" d="M415,124.9h-10.6v-0.1h1.9v-18.6c0-1.4-0.2-2.9-1.6-2.9c-1.6,0-3.1,2.3-3.5,4.3v17.2h1.7v0.1h-11.7v-0.1h3
		v-21.5h-3v-0.1h10v4c0.9-3.2,2.9-4.5,5.2-4.5c3.6,0,5.4,1.9,6.3,4.5c0.9-3.2,3.2-4.5,5.5-4.5c4.9,0,7,3.6,7,8v14.2h3v0.1h-11.9
		v-0.1h1.9v-17.1c0-3.2-0.3-4.4-1.8-4.4c-1.8,0-3.3,2.1-3.8,4.1c0.3,1,0.5,2.1,0.5,3.2v14.2L415,124.9L415,124.9z"/>
	<path fill="#FFFFFF" d="M436.1,114v1.2c0,6,0.3,9.6,4.7,9.6c4,0,6.7-2.8,7.8-7.5h0.1c-1.1,5.1-4.1,8.2-9.5,8.2
		c-5.5,0-10.4-5.3-10.4-11.4c0-6.1,4.9-11.4,10.4-11.4c5.6,0,10,5.2,10,11.4H436.1z M436.1,111.1v2.9h5.6c0-9.7-0.4-11.2-2.6-11.2
		C436.3,102.8,436.1,106.1,436.1,111.1z"/>
	<path fill="#FFFFFF" d="M475.4,124.9H463v-0.1h2v-17.1c0-3.2-0.4-4.4-1.8-4.4c-1.5,0-2.9,1.8-3.5,4.3v17.2h2v0.1h-12.4v-0.1h3.5
		v-21.5h-3.5v-0.1h10.4v4c0.9-3.2,2.8-4.5,5.2-4.5c4.9,0,7,3.6,7,8v14.2L475.4,124.9L475.4,124.9z"/>
	<path fill="#FFFFFF" d="M484.7,103.3V122c0,1.2,0.5,2.1,1.5,2.1c1.4,0,1.6-1.6,1.6-3v-4.8h0.1v4.9c0,2.5-1,4.2-4.1,4.2
		c-4.2,0-6.1-2.7-6.1-6.8v-15.3h-3.4v-0.1h1.1c5.1,0,9.1-3.3,9.1-9.1h0.1V103.3l4.3-0.1v0.1H484.7z"/>
	<path fill="#FFFFFF" d="M66.7,176.9L66.7,176.9l3.5-0.1v-21.5h-3.5v-0.1h10.4v21.6h3.5v0.1H66.7z M73.6,143.5
		c2.1,0,3.7,1.6,3.7,3.7s-1.6,3.6-3.7,3.6s-3.6-1.6-3.6-3.6S71.5,143.5,73.6,143.5z"/>
	<path fill="#FFFFFF" d="M84.3,175.8c-0.9,0-1.8,0.7-2,2.2h-0.1v-11h0.1c0.1,3.9,3.5,10.5,8.2,10.5c1.9,0,3.1-1.2,3.1-3.2
		c0-5.2-11.7-4.6-11.7-12.9c0-3.2,2.7-6.7,6.6-6.7c2.2,0,4.2,1.6,5.9,1.6c0.6,0,1-0.4,1-1.6h0.1v8.7h-0.1c-0.2-2.3-2.5-8.6-6.9-8.6
		c-2,0-3.4,1.5-3.4,3.2c0,4.7,12.2,4.2,12.2,12.6c0,3.9-2.9,6.9-6.9,6.9C87.8,177.6,86.4,175.8,84.3,175.8z"/>
	<path fill="#FFFFFF" d="M107.5,159.7c0.4-1.6,1.9-2.7,3.6-2.7c2,0,3.7,1.6,3.7,3.7c0,2-1.6,3.7-3.7,3.7c-2.4,0-3.7-1.9-3.7-4
		c0-0.3,0-0.7,0.2-1.3c1.2-3.1,4.9-4.4,7.4-4.4c6.4,0,10.1,3.1,10.1,7.6v11.4c0,1.8,0.6,2.6,1.6,2.6c0.4,0,0.8-0.1,1-0.3
		c0.6-0.5,0.7-1.5,0.8-1.7h0.1c-0.3,1.6-1.3,3.2-3.9,3.2c-3.6,0-6.2-2.3-6.5-4.8c-0.2,1.8-1.5,4.8-6.1,4.8c-3.6,0-5.9-2.4-5.9-5.5
		c0-3.5,2.7-5.6,5.6-6.2c2.2-0.4,2.5-0.2,3.7-0.5c1-0.3,1.8-1.2,2.6-2.2v-4.5c0-2.6-1.2-3.7-3.6-3.7
		C111.4,154.9,108.1,156.8,107.5,159.7z M118.1,163.2c-0.9,1.3-1.6,1.8-2.5,2.3c-1.3,0.7-2.4,1.9-2.4,4v3.9c0,2.1,0.2,3.3,1.5,3.3
		c2,0,3.4-2.6,3.4-4.1V163.2z"/>
	<path fill="#FFFFFF" d="M170.2,155.4l-3.5,0l-7,22.3l-6.6-15.8l-5,15.8l-9.3-22.3h-3.5v-0.1h25.5v0.1h-2.8l4.9,11.4l3.6-11.4h-3.5
		v-0.1h7.1V155.4z M151.4,166.8l1.6-5.1l-2.6-6.3h-3.9L151.4,166.8z"/>
	<path fill="#FFFFFF" d="M179.6,177.5c-5.5,0-10.9-5.3-10.9-11.4c0-6.1,5.4-11.4,10.9-11.4c5.5,0,10.9,5.3,10.9,11.4
		C190.4,172.1,185.1,177.5,179.6,177.5z M179.6,154.8c-3.4,0-3.5,5.1-3.5,11.3s0.1,11.3,3.5,11.3c3.4,0,3.5-5.1,3.5-11.3
		S183,154.8,179.6,154.8z"/>
	<path fill="#FFFFFF" d="M190.7,176.9L190.7,176.9l3.5-0.1v-21.5h-3.5v-0.1h10.4v1.8c0.9-1.3,2.1-2.3,4.2-2.3c1.6,0,3.9,0.9,4.6,3.4
		c0.2,0.6,0.2,1,0.2,1.3c0,2.1-1.3,4-3.7,4c-2,0-3.7-1.6-3.7-3.7s1.6-3.7,3.7-3.7c1.7,0,3.1,1.2,3.5,2.7c-0.2-1.9-1.9-4-4.6-4
		c-2.1,0-3.3,1-4.2,2.4v19.6h3.5v0.1H190.7z"/>
	<path fill="#FFFFFF" d="M224.6,145.5h-3.5v-0.1h10.4v31.5h3.5v0.1h-10.4v-4c-0.9,3.2-2.8,4.5-5.2,4.5c-4.2,0-8.4-4.8-8.4-11.4
		s4.2-11.4,8.4-11.4c2.4,0,4.3,1.3,5.2,4.5V145.5z M224.6,159.6c-0.6-2.5-2-4.3-3.5-4.3c-2,0-2.7,2.1-2.7,8.4v4.8
		c0,6.3,0.7,8.4,2.7,8.4c1.5,0,2.9-1.8,3.5-4.3V159.6z"/>
	<path fill="#FFFFFF" d="M239.4,170c2,0,3.6,1.6,3.6,3.6c0,2-1.6,3.7-3.6,3.7c-2,0-3.7-1.6-3.7-3.7C235.8,171.6,237.4,170,239.4,170
		z"/>
</g>
<g>
	<path fill="#333333" d="M0,30.6C0,21.8,6,8,21.9,0l2.1,3.4c-10.9,7.6-13.8,17.1-14,21.6c4.1,0.5,8.1,4.4,8.1,8.6
		c0,4.9-4.2,8.6-8.6,8.6C4.4,42.3,0,38.2,0,30.6z M28.4,30.6c0-8.8,6-22.6,21.9-30.6l2.1,3.4c-10.9,7.6-13.8,17.1-14,21.6
		c4.1,0.5,8.1,4.4,8.1,8.6c0,4.9-4.2,8.6-8.6,8.6C32.8,42.3,28.4,38.2,28.4,30.6z"/>
</g>
</svg>
