<?xml version="1.0" encoding="utf-8"?>
<!-- Generator: Adobe Illustrator 18.1.0, SVG Export Plug-In . SVG Version: 6.00 Build 0)  -->
<svg version="1.1" id="Layer_1" xmlns="http://www.w3.org/2000/svg" xmlns:xlink="http://www.w3.org/1999/xlink" x="0px" y="0px"
	 viewBox="377 319 792 409" enable-background="new 377 319 792 409" xml:space="preserve">
<g>
	<path fill="#FFFFFF" d="M487.5,717.3c-0.3,1.5-1.2,2.8-2.6,2.8c-1.8,0-2.8-2.6-4.3-2.6c-0.8,0-1.5,0.6-1.7,2l-0.9-0.9
		c0.2-1.4,1.1-2.6,2.4-2.6c1.8,0,3.1,2.6,4.4,2.6c0.9,0,1.4-0.8,1.7-2L487.5,717.3L487.5,717.3z M495.5,706.7h2l6,18l6.3-18h2.1
		l-7.3,20h-2.1L495.5,706.7L495.5,706.7z M516.1,705.8c0.8,0,1.2,0.3,1.2,1.2s-0.5,1.2-1.2,1.2c-0.8,0-1.2-0.3-1.2-1.2
		C514.8,706.1,515.4,705.8,516.1,705.8z M515.1,726.8v-15.4h1.8v15.4H515.1z M528.1,725.4c1.8,0,3.1-0.8,4-2l0.9,1.4
		c-1.2,1.4-2.8,2.3-5,2.3c-4.1,0-6.9-3.2-6.9-8.1c0-5,2.8-8.1,6.9-8.1c2.1,0,3.7,0.9,5,2.3l-0.9,1.4c-1.1-1.2-2.1-2-4-2
		c-3.1,0-5,2.4-5,6.3C523,723,525,725.4,528.1,725.4z M547.6,711.8l-6.9,6.9l7.3,7.8v0.3h-2.3l-6.9-7.5v7.5h-1.8v-20.9h1.8v12.2
		l6.6-6.7h2.1L547.6,711.8L547.6,711.8L547.6,711.8z M552.2,705.8c0.8,0,1.2,0.3,1.2,1.2s-0.5,1.2-1.2,1.2c-0.8,0-1.2-0.3-1.2-1.2
		S551.5,705.8,552.2,705.8z M551.3,726.8v-15.4h1.8v15.4H551.3z M564.5,706.7h6.1c3.5,0,5.7,1.7,5.7,5.2c0,2.3-1.2,3.8-3.1,4.4
		c2.8,0.5,4.4,2.1,4.4,5c0,3.2-2,5.4-5.8,5.4h-7.3V706.7L564.5,706.7z M566.4,715.6h3.8c2.4,0,4.1-1.2,4.1-3.5c0-2.4-1.4-3.5-4-3.5
		h-4L566.4,715.6L566.4,715.6L566.4,715.6z M566.4,725.1h5.2c2.8,0,4.1-1.4,4.1-3.7c0-2.8-1.7-4-4.6-4h-4.6v7.6L566.4,725.1
		L566.4,725.1z M590.1,726.8v-1.7c-0.9,0.9-2.4,2-4.7,2c-3.1,0-4.9-1.8-4.9-4.7c0-3.8,3.1-5.4,7-5.4c0.9,0,1.8,0.2,2.6,0.3v-0.8
		c0-2.6-1.4-3.8-3.7-3.8c-1.5,0-3.1,0.3-4.3,1.1l-0.5-1.7c1.4-0.6,3.4-1.1,4.9-1.1c3.4,0,5.4,2,5.4,5.5v10.1h-1.8L590.1,726.8
		L590.1,726.8z M586,725.6c2,0,3.4-1.1,4.1-2v-4.7c-0.6-0.2-1.7-0.3-2.6-0.3c-2.9,0-5.2,1.1-5.2,3.8
		C582.5,724.3,583.9,725.5,586,725.6L586,725.6z M598.5,711.3v9.3c0,2.9,1.2,4.6,3.8,4.6c2.3,0,4-1.7,4.4-3.7v-10.2h2v15.4h-2v-2.6
		c-0.9,1.8-2.8,2.9-5,2.9c-3.5,0-5.2-2.1-5.2-6v-9.6h2V711.3L598.5,711.3z M633.1,726.8v-9.5c0-2.9-1.1-4.3-3.8-4.3
		c-2.1,0-3.2,1.4-3.8,3.4v10.4h-2v-9.5c0-2.9-1.4-4.3-3.7-4.3c-2.3,0-3.7,1.5-4.3,3.5v10.4h-1.8v-15.4h1.8v2.4
		c0.9-1.8,2.4-2.8,4.9-2.8s4,1.1,4.6,3.1c0.9-2,2.4-3.1,4.7-3.1c3.7,0,5.2,2,5.2,5.8v9.8L633.1,726.8L633.1,726.8z"/>
</g>
<path fill="#333333" d="M912,632c16.7-11.6,21.1-26.1,21.4-33c-6.3-0.8-12.4-6.7-12.4-13.1c0-7.5,6.4-13.1,13.1-13.1
	c8,0,14.7,6.3,14.7,17.9c0,13.5-9.2,34.6-33.5,46.8L912,632L912,632z M955.4,632c16.7-11.6,21.1-26.1,21.4-33
	c-6.3-0.8-12.4-6.7-12.4-13.1c0-7.5,6.4-13.1,13.1-13.1c8,0,14.7,6.3,14.7,17.9c0,13.5-9.2,34.6-33.5,46.8L955.4,632L955.4,632z"/>
<path fill="#FFFFFF" d="M514.6,384.1l-2.3,18.3h-0.2c0.9-7.2-1.1-17.4-10.3-18.3l-5.7,46.2h5.8l0,0.2h-22.8l0-0.2h5.8l5.7-46
	c-9.4,0.8-13.9,11-14.8,18.3h-0.2l2.3-18.3h36.5L514.6,384.1z"/>
<path fill="#FFFFFF" d="M548.4,430.5h-19l0-0.2h3.1l3.2-26.1c0.6-4.9,0.2-6.7-1.9-6.7c-2.3,0-4.8,2.8-6.2,6.6l-3.2,26.3h3.1l0,0.2
	h-18.8l0-0.2h5.4l5.9-48h-5.4l0-0.2h15.9l-2.6,21.3c2-4.9,5.1-6.9,8.8-6.9c7.5,0,10,5.5,9.2,12.2l-2.7,21.7L548.4,430.5L548.4,430.5
	L548.4,430.5z"/>
<path fill="#FFFFFF" d="M562,413.8l-0.2,1.8c-1.1,9.2-1.3,14.7,5.4,14.7c6.1,0,10.8-4.3,13.3-11.5h0.2c-2.6,7.8-7.8,12.5-16.1,12.5
	c-8.4,0-14.9-8.1-13.8-17.4s9.6-17.4,18-17.4c8.6,0,14.3,8,13.1,17.4h-20L562,413.8L562,413.8z M562.6,409.4l-0.5,4.4h8.6
	c1.8-14.8,1.5-17.1-1.9-17.1C564.5,396.7,563.5,401.6,562.6,409.4z"/>
<path fill="#FFFFFF" d="M580.2,430.5l5.4-0.2l4-32.9h-5.4l0-0.2h15.9l-0.3,2.8c1.6-2,3.6-3.5,6.9-3.5c2.4,0,5.8,1.4,6.4,5.2
	c0.2,0.9,0.1,1.5,0.1,2c-0.4,3.2-2.7,6.1-6.4,6.1c-3.1,0-5.4-2.4-5-5.7c0.4-3.2,3.1-5.7,6.4-5.7c2.6,0,4.5,1.8,4.8,4.1
	c0.1-2.9-2.2-6.1-6.3-6.1c-3.2,0-5.2,1.5-6.9,3.7l-3.7,30h5.4l0,0.2h-21.3L580.2,430.5L580.2,430.5z"/>
<path fill="#FFFFFF" d="M624.6,413.8l-0.2,1.8c-1.1,9.2-1.3,14.7,5.4,14.7c6.1,0,10.8-4.3,13.3-11.5h0.2
	c-2.6,7.8-7.8,12.5-16.1,12.5c-8.4,0-14.9-8.1-13.8-17.4c1.1-9.3,9.6-17.4,18-17.4c8.6,0,14.3,8,13.1,17.4h-20L624.6,413.8
	L624.6,413.8z M625.1,409.4l-0.5,4.4h8.6c1.8-14.8,1.5-17.1-1.9-17.1C627,396.7,626.1,401.6,625.1,409.4L625.1,409.4z"/>
<path fill="#FFFFFF" d="M660.3,404.2c0.9-2.4,3.6-4.1,6-4.1c3.1,0,5.4,2.4,5,5.7c-0.4,3.1-3.1,5.7-6.4,5.7c-3.7,0-5.3-2.9-4.9-6.1
	c0.1-0.5,0.1-1.1,0.5-2c2.4-4.7,8.3-6.7,12.1-6.7c9.8,0,14.9,4.7,14,11.6l-2.1,17.4c-0.3,2.8,0.4,4,2,4c0.6,0,1.2-0.2,1.6-0.5
	c1-0.8,1.4-2.3,1.5-2.6h0.2c-0.8,2.4-2.6,4.9-6.6,4.9c-5.5,0-9-3.5-9-7.3c-0.6,2.8-3.2,7.3-10.2,7.3c-5.5,0-8.6-3.7-8-8.4
	c0.7-5.4,5.2-8.6,9.7-9.5c3.4-0.6,3.9-0.3,5.8-0.8c1.6-0.5,3-1.8,4.4-3.4l0.8-6.9c0.5-4-1.1-5.7-4.8-5.7
	C667.3,396.8,661.9,399.7,660.3,404.2L660.3,404.2z M676,409.5c-1.6,2-2.8,2.8-4.3,3.5c-2.1,1.1-4,2.9-4.4,6.1l-0.7,6
	c-0.4,3.2-0.3,5,1.7,5c3.1,0,5.7-4,6-6.3L676,409.5z"/>
<path fill="#FFFFFF" d="M690.4,430.5l5.4-0.2l4-32.9h-5.4l0-0.2h15.9l-0.3,2.8c1.6-2,3.6-3.5,6.9-3.5c2.4,0,5.8,1.4,6.4,5.2
	c0.2,0.9,0.1,1.5,0.1,2c-0.4,3.2-2.7,6.1-6.4,6.1c-3.1,0-5.4-2.4-5-5.7c0.4-3.2,3.1-5.7,6.4-5.7c2.6,0,4.5,1.8,4.8,4.1
	c0.1-2.9-2.2-6.1-6.3-6.1c-3.2,0-5.2,1.5-6.9,3.7l-3.7,30h5.4l0,0.2h-21.3L690.4,430.5L690.4,430.5z"/>
<path fill="#FFFFFF" d="M734.7,413.8l-0.2,1.8c-1.1,9.2-1.3,14.7,5.4,14.7c6.1,0,10.8-4.3,13.3-11.5h0.2
	c-2.6,7.8-7.8,12.5-16.1,12.5c-8.4,0-14.9-8.1-13.8-17.4s9.6-17.4,18-17.4c8.6,0,14.3,8,13.1,17.4h-20L734.7,413.8L734.7,413.8z
	 M735.2,409.4l-0.5,4.4h8.6c1.8-14.8,1.5-17.1-1.9-17.1C737.1,396.7,736.2,401.6,735.2,409.4z"/>
<path fill="#FFFFFF" d="M769.2,428.8c-1.4,0-2.9,1.1-3.5,3.4h-0.2l2.1-16.8h0.2c-0.6,6,3.4,16.1,10.6,16.1c2.9,0,5-1.8,5.3-4.9
	c1-8-17-7-15.5-19.7c0.6-4.9,5.4-10.2,11.3-10.2c3.4,0,6.1,2.4,8.7,2.4c0.9,0,1.6-0.6,1.8-2.4h0.2l-1.6,13.3h-0.2
	c0.1-3.5-2.2-13.1-8.9-13.1c-3.1,0-5.5,2.3-5.8,4.9c-0.9,7.2,17.9,6.4,16.3,19.3c-0.7,6-5.7,10.5-11.8,10.5
	C774.4,431.5,772.6,428.8,769.2,428.8L769.2,428.8z"/>
<path fill="#FFFFFF" d="M829.7,430.5h-19l0-0.2h3.1l3.2-26.1c0.6-4.9,0.2-6.7-1.9-6.7c-2.3,0-4.8,2.8-6.2,6.6l-3.2,26.3h3.1l0,0.2
	h-19l0-0.2h5.4l5.9-48h-5.4l0-0.2h15.9l-2.6,21.3c2-4.9,5.1-6.9,8.8-6.9c7.5,0,10,5.5,9.2,12.2l-2.7,21.7L829.7,430.5L829.7,430.5
	L829.7,430.5z"/>
<path fill="#FFFFFF" d="M846.3,431.4c-8.4,0-15.7-8.1-14.5-17.4c1.1-9.3,10.4-17.4,18.8-17.4c8.4,0,15.7,8.1,14.5,17.4
	C863.9,423.1,854.7,431.4,846.3,431.4z M850.5,396.7c-5.2,0-6.3,7.8-7.5,17.3s-2,17.3,3.2,17.3c5.2,0,6.3-7.8,7.5-17.3
	S855.7,396.7,850.5,396.7z"/>
<path fill="#FFFFFF" d="M863.5,430.5l5.4-0.2l4-32.9h-5.4l0-0.2h15.9l-0.3,2.8c1.6-2,3.6-3.5,6.9-3.5c2.4,0,5.8,1.4,6.4,5.2
	c0.2,0.9,0.1,1.5,0.1,2c-0.4,3.2-2.7,6.1-6.4,6.1c-3.1,0-5.4-2.4-5-5.7c0.4-3.2,3.1-5.7,6.4-5.7c2.6,0,4.5,1.8,4.8,4.1
	c0.1-2.9-2.2-6.1-6.3-6.1c-3.2,0-5.2,1.5-6.9,3.7l-3.7,30h5.4l0,0.2h-21.3L863.5,430.5L863.5,430.5z"/>
<path fill="#FFFFFF" d="M913.4,397.4l-3.5,28.6c-0.2,1.8,0.4,3.2,1.9,3.2c2.1,0,2.7-2.4,3-4.6l0.9-7.3h0.2l-0.9,7.5
	c-0.5,3.8-2.3,6.4-7.1,6.4c-6.4,0-8.8-4.1-8.1-10.4l2.9-23.4h-5.2l0-0.2h1.7c7.8,0,14.5-4.9,15.6-13.9h0.2l-1.7,14.1l6.6-0.2l0,0.2
	L913.4,397.4L913.4,397.4z"/>
<path fill="#FFFFFF" d="M919.9,411H937l0,0.2L919.9,411z"/>
<path fill="#FFFFFF" d="M951.6,414.1c-0.7,5.4-1.8,16.2,5.7,16.2c6,0,9.8-4.9,11-12.7h0.2c-1.3,8-5.2,13.8-13.9,13.8
	c-8.6,0-15.4-7.5-14.2-17.4c1.1-9.2,9-17.4,19.1-17.4c6.1,0,8.8,2.9,9.6,6.7c0.2,0.9,0.1,1.5,0.1,2c-0.4,3.2-2.7,6.1-6.4,6.1
	c-3.1,0-5.4-2.4-5-5.7c0.4-3.1,3.1-5.7,6.4-5.7c2.4,0,4.5,1.8,4.8,4.1c-0.4-3.4-2.5-7.3-8.4-7.3S952.8,404.5,951.6,414.1
	L951.6,414.1z"/>
<path fill="#FFFFFF" d="M970.2,397.3h15.9l-3.2,26.3c-0.6,4.9-0.2,6.7,1.9,6.7c2.3,0,4.8-2.8,6.2-6.6l3.2-26.3h-3.1l0-0.2h13.6
	l-4.1,33h5.4l0,0.2h-15.9l0.8-6.1c-2,4.9-5.1,6.9-8.8,6.9c-7.5,0-10-5.5-9.2-12.2l2.6-21.6L970.2,397.3L970.2,397.3z"/>
<path fill="#FFFFFF" d="M1024.9,397.4l-3.5,28.6c-0.2,1.8,0.4,3.2,1.9,3.2c2.1,0,2.7-2.4,3-4.6l0.9-7.3h0.2l-0.9,7.5
	c-0.5,3.8-2.3,6.4-7.1,6.4c-6.4,0-8.8-4.1-8.1-10.4l2.9-23.4h-5.2l0-0.2h1.7c7.8,0,14.5-4.9,15.6-13.9h0.2l-1.7,14.1l6.6-0.2l0,0.2
	L1024.9,397.4L1024.9,397.4z"/>
<path fill="#FFFFFF" d="M1033.4,428.8c-1.4,0-2.9,1.1-3.5,3.4h-0.2l2.1-16.8h0.2c-0.6,6,3.4,16.1,10.6,16.1c2.9,0,5-1.8,5.3-4.9
	c1-8-17-7-15.5-19.7c0.6-4.9,5.4-10.2,11.3-10.2c3.4,0,6.1,2.4,8.7,2.4c0.9,0,1.6-0.6,1.8-2.4h0.2l-1.6,13.3h-0.2
	c0.1-3.5-2.2-13.1-8.9-13.1c-3.1,0-5.5,2.3-5.8,4.9c-0.9,7.2,17.9,6.4,16.3,19.3c-0.7,6-5.7,10.5-11.8,10.5
	C1038.6,431.5,1036.6,428.8,1033.4,428.8L1033.4,428.8z"/>
<path fill="#FFFFFF" d="M1085.3,397.4l-3.5,28.6c-0.2,1.8,0.4,3.2,1.9,3.2c2.1,0,2.7-2.4,3-4.6l0.9-7.3h0.2l-0.9,7.5
	c-0.5,3.8-2.3,6.4-7.1,6.4c-6.4,0-8.8-4.1-8.1-10.4l2.9-23.4h-5.2l0-0.2h1.7c7.8,0,14.5-4.9,15.6-13.9h0.2l-1.7,14.1l6.6-0.2l0,0.2
	L1085.3,397.4L1085.3,397.4z"/>
<path fill="#FFFFFF" d="M1105.4,431.4c-8.4,0-15.7-8.1-14.5-17.4c1.1-9.3,10.4-17.4,18.8-17.4c8.4,0,15.7,8.1,14.5,17.4
	C1123.1,423.1,1113.8,431.4,1105.4,431.4L1105.4,431.4z M1109.7,396.7c-5.2,0-6.3,7.8-7.5,17.3s-2,17.3,3.2,17.3
	c5.2,0,6.3-7.8,7.5-17.3S1114.9,396.7,1109.7,396.7z"/>
<path fill="#FFFFFF" d="M512.3,510h-19l0-0.2h3.1l3.2-26.1c0.6-4.9,0.2-6.7-1.9-6.7c-2.3,0-4.8,2.8-6.2,6.6l-3.2,26.3h3.1l0,0.2
	h-18.8l0-0.2h5.4l5.9-48h-5.4l0-0.2h15.9l-2.6,21.3c2-4.9,5.1-6.9,8.8-6.9c7.5,0,10,5.5,9.2,12.2l-2.7,21.7L512.3,510L512.3,510
	L512.3,510z"/>
<path fill="#FFFFFF" d="M518.4,483.7c0.9-2.4,3.6-4.1,6-4.1c3.1,0,5.4,2.4,5,5.7c-0.4,3.1-3.1,5.7-6.4,5.7c-3.7,0-5.3-2.9-4.9-6.1
	c0.1-0.5,0.1-1.1,0.5-2c2.4-4.7,8.3-6.7,12.1-6.7c9.8,0,14.9,4.7,14,11.6l-2.1,17.4c-0.3,2.8,0.4,4,2,4c0.6,0,1.2-0.2,1.6-0.5
	c1-0.8,1.4-2.3,1.5-2.6h0.2c-0.8,2.4-2.6,4.9-6.6,4.9c-5.5,0-9-3.5-9-7.3c-0.6,2.8-3.2,7.3-10.2,7.3c-5.5,0-8.6-3.7-8-8.4
	c0.7-5.4,5.2-8.6,9.7-9.5c3.4-0.6,3.9-0.3,5.8-0.8c1.6-0.5,3-1.8,4.4-3.4l0.8-6.9c0.5-4-1.1-5.7-4.8-5.7
	C525.4,476.3,520,479.2,518.4,483.7L518.4,483.7z M534.1,489c-1.6,2-2.8,2.8-4.3,3.5c-2.1,1.1-4,2.9-4.4,6.1l-0.7,6
	c-0.4,3.2-0.3,5,1.7,5c3.1,0,5.7-4,6-6.3L534.1,489L534.1,489z"/>
<path fill="#FFFFFF" d="M560.2,525.3h5.4l0,0.2h-21.3l0-0.2h5.4l5.9-48.2h-5.4l0-0.2h15.9l-0.8,6.1c2-4.9,5.1-6.9,8.8-6.9
	c6.4,0,11.9,7.3,10.7,17.4s-8.6,17.4-15,17.4c-3.7,0-6.3-2-7.1-6.9L560.2,525.3L560.2,525.3z M562.9,503.2c0.4,3.8,2.2,6.6,4.5,6.6
	c3.1,0,4.5-3.2,5.7-12.8l0.9-7.3c1.2-9.6,0.5-12.8-2.6-12.8c-2.3,0-4.8,2.8-6.2,6.6L562.9,503.2L562.9,503.2z"/>
<path fill="#FFFFFF" d="M597.5,525.3h5.4l0,0.2h-21.3l0-0.2h5.4l5.9-48.2h-5.4l0-0.2h15.9l-0.8,6.1c2-4.9,5.1-6.9,8.8-6.9
	c6.4,0,11.9,7.3,10.7,17.4s-8.6,17.4-15,17.4c-3.7,0-6.3-2-7.1-6.9L597.5,525.3L597.5,525.3z M600.2,503.2c0.4,3.8,2.2,6.6,4.5,6.6
	c3.1,0,4.5-3.2,5.7-12.8l0.9-7.3c1.2-9.6,0.5-12.8-2.6-12.8c-2.3,0-4.8,2.8-6.2,6.6L600.2,503.2L600.2,503.2z"/>
<path fill="#FFFFFF" d="M620.8,510l5.4-0.2l4-32.9h-5.4l0-0.2h15.9l-4.1,33h5.4l0,0.2H620.8L620.8,510z M637.6,458.9
	c3.2,0,5.4,2.4,5,5.7c-0.4,3.2-3.1,5.5-6.3,5.5c-3.2,0-5.2-2.4-4.8-5.5S634.4,458.9,637.6,458.9z"/>
<path fill="#FFFFFF" d="M683.7,510h-19l0-0.2h3.1l3.2-26.1c0.6-4.9,0.2-6.7-1.9-6.7c-2.3,0-4.8,2.8-6.2,6.6l-3.2,26.3h3.1l0,0.2h-19
	l0-0.2h5.4l4-32.9h-5.4l0-0.2h15.9l-0.8,6.1c2-4.9,5.1-6.9,8.8-6.9c7.5,0,10,5.5,9.2,12.2l-2.7,21.7L683.7,510L683.7,510L683.7,510z
	"/>
<path fill="#FFFFFF" d="M697.3,493.3l-0.2,1.8c-1.1,9.2-1.3,14.7,5.4,14.7c6.1,0,10.8-4.3,13.3-11.5h0.2
	c-2.6,7.8-7.8,12.5-16.1,12.5c-8.4,0-14.9-8.1-13.8-17.4c1.1-9.3,9.6-17.4,18-17.4c8.6,0,14.3,8,13.1,17.4h-20L697.3,493.3z
	 M697.9,488.9l-0.5,4.4h8.6c1.8-14.8,1.5-17.1-1.9-17.1C699.7,476.2,698.8,481.2,697.9,488.9L697.9,488.9z"/>
<path fill="#FFFFFF" d="M722.2,508.3c-1.4,0-2.9,1.1-3.5,3.4h-0.2l2.1-16.8h0.2c-0.6,6,3.4,16.1,10.6,16.1c2.9,0,5-1.8,5.3-4.9
	c1-8-17-7-15.5-19.7c0.6-4.9,5.4-10.2,11.3-10.2c3.4,0,6.1,2.4,8.7,2.4c0.9,0,1.6-0.6,1.8-2.4h0.2l-1.6,13.3h-0.2
	c0.1-3.5-2.2-13.1-8.9-13.1c-3.1,0-5.5,2.3-5.8,4.9c-0.9,7.2,17.9,6.4,16.3,19.3c-0.7,6-5.7,10.5-11.8,10.5
	C727.3,511,725.5,508.3,722.2,508.3L722.2,508.3z"/>
<path fill="#FFFFFF" d="M749.5,508.3c-1.4,0-2.9,1.1-3.5,3.4h-0.2l2.1-16.8h0.2c-0.6,6,3.4,16.1,10.6,16.1c2.9,0,5-1.8,5.3-4.9
	c1-8-17-7-15.5-19.7c0.6-4.9,5.4-10.2,11.3-10.2c3.4,0,6.1,2.4,8.7,2.4c0.9,0,1.6-0.6,1.8-2.4h0.2l-1.6,13.3h-0.2
	c0.1-3.5-2.2-13.1-8.9-13.1c-3.1,0-5.5,2.3-5.8,4.9c-0.9,7.2,17.9,6.4,16.3,19.3c-0.7,6-5.7,10.5-11.8,10.5
	C754.5,511,752.7,508.3,749.5,508.3L749.5,508.3z"/>
<path fill="#FFFFFF" d="M775.8,514.4c5.3-0.9,7.9-3.5,8.8-8c-0.8,2.4-3.4,4.1-6,4.1c-3.1,0-5.4-2.4-5-5.7c0.4-3.1,3.1-5.7,6.4-5.7
	c3.7,0,5.3,2.9,4.9,6.1C784.3,510,781.7,513.6,775.8,514.4L775.8,514.4z"/>
<path fill="#FFFFFF" d="M803.1,483.7c0.9-2.4,3.6-4.1,6-4.1c3.1,0,5.4,2.4,5,5.7c-0.4,3.1-3.1,5.7-6.4,5.7c-3.7,0-5.3-2.9-4.9-6.1
	c0.1-0.5,0.1-1.1,0.5-2c2.4-4.7,8.3-6.7,12.1-6.7c9.8,0,14.9,4.7,14,11.6l-2.1,17.4c-0.3,2.8,0.4,4,2,4c0.6,0,1.2-0.2,1.6-0.5
	c1-0.8,1.4-2.3,1.5-2.6h0.2c-0.8,2.4-2.6,4.9-6.6,4.9c-5.5,0-9-3.5-9-7.3c-0.6,2.8-3.2,7.3-10.2,7.3c-5.5,0-8.6-3.7-8-8.4
	c0.7-5.4,5.2-8.6,9.7-9.5c3.4-0.6,3.9-0.3,5.8-0.8c1.6-0.5,3-1.8,4.4-3.4l0.8-6.9c0.5-4-1.1-5.7-4.8-5.7
	C809.9,476.3,804.5,479.2,803.1,483.7L803.1,483.7z M818.6,489c-1.6,2-2.8,2.8-4.3,3.5c-2.1,1.1-4,2.9-4.4,6.1l-0.7,6
	c-0.4,3.2-0.3,5,1.7,5c2.9,0,5.7-4,6-6.3L818.6,489z"/>
<path fill="#FFFFFF" d="M872.9,510h-19l0-0.2h3.1l3.2-26.1c0.6-4.9,0.2-6.7-1.9-6.7c-2.3,0-4.8,2.8-6.2,6.6l-3.2,26.3h3.1l0,0.2h-19
	l0-0.2h5.4l4-32.9h-5.4l0-0.2H853l-0.8,6.1c2-4.9,5.1-6.9,8.8-6.9c7.5,0,10,5.5,9.2,12.2l-2.7,21.7L872.9,510L872.9,510L872.9,510z"
	/>
<path fill="#FFFFFF" d="M900.1,461.8h-5.4l0-0.2h15.9l-5.9,48.2h5.4l0,0.2h-15.9l0.8-6.1c-2,4.9-5.1,6.9-8.8,6.9
	c-6.4,0-11.9-7.3-10.7-17.4c1.2-10.1,8.6-17.4,15-17.4c3.7,0,6.3,2,7.1,6.9L900.1,461.8L900.1,461.8z M897.4,483.5
	c-0.4-3.8-2.1-6.6-4.5-6.6c-3.1,0-4.5,3.2-5.7,12.8l-0.9,7.3c-1.2,9.6-0.5,12.8,2.6,12.8c2.3,0,4.8-2.8,6.2-6.6L897.4,483.5
	L897.4,483.5z"/>
<path fill="#FFFFFF" d="M948.9,461.8h-5.4l0-0.2h15.9l-5.9,48.2h5.4l0,0.2H943l0.8-6.1c-2,4.9-5.1,6.9-8.8,6.9
	c-6.4,0-11.9-7.3-10.7-17.4c1.2-10.1,8.6-17.4,15-17.4c3.7,0,6.3,2,7.1,6.9L948.9,461.8L948.9,461.8z M946.2,483.5
	c-0.4-3.8-2.2-6.6-4.5-6.6c-3.1,0-4.5,3.2-5.7,12.8l-0.9,7.3c-1.2,9.6-0.5,12.8,2.6,12.8c2.3,0,4.8-2.8,6.2-6.6L946.2,483.5
	L946.2,483.5z"/>
<path fill="#FFFFFF" d="M965,483.7c0.9-2.4,3.6-4.1,6-4.1c3.1,0,5.4,2.4,5,5.7c-0.4,3.1-3.1,5.7-6.4,5.7c-3.7,0-5.3-2.9-4.9-6.1
	c0.1-0.5,0.1-1.1,0.5-2c2.4-4.7,8.3-6.7,12.1-6.7c9.8,0,14.9,4.7,14,11.6l-2.1,17.4c-0.3,2.8,0.4,4,2,4c0.6,0,1.2-0.2,1.6-0.5
	c1-0.8,1.4-2.3,1.5-2.6h0.2c-0.8,2.4-2.6,4.9-6.6,4.9c-5.5,0-9-3.5-9-7.3c-0.6,2.8-3.2,7.3-10.2,7.3c-5.5,0-8.6-3.7-8-8.4
	c0.7-5.4,5.2-8.6,9.7-9.5c3.4-0.6,3.9-0.3,5.8-0.8c1.6-0.5,3-1.8,4.4-3.4l0.8-6.9c0.5-4-1.1-5.7-4.8-5.7
	C971.9,476.3,966.5,479.2,965,483.7z M980.6,489c-1.6,2-2.8,2.8-4.3,3.5c-2.1,1.1-4,2.9-4.4,6.1l-0.7,6c-0.4,3.2-0.3,5,1.7,5
	c2.9,0,5.7-4,6-6.3L980.6,489L980.6,489z"/>
<path fill="#FFFFFF" d="M1034.9,510h-19l0-0.2h3.1l3.2-26.1c0.6-4.9,0.2-6.7-1.9-6.7c-2.3,0-4.8,2.8-6.2,6.6l-3.2,26.3h3.1l0,0.2
	h-19l0-0.2h5.4l4-32.9H999l0-0.2h15.9l-0.8,6.1c2-4.9,5.1-6.9,8.8-6.9c7.5,0,10,5.5,9.2,12.2l-2.7,21.7L1034.9,510L1034.9,510z"/>
<path fill="#FFFFFF" d="M1048.5,493.6c-0.7,5.4-1.8,16.2,5.7,16.2c6,0,9.8-4.9,11-12.7h0.2c-1.3,8-5.2,13.8-13.9,13.8
	c-8.6,0-15.4-7.5-14.2-17.4c1.1-9.2,9-17.4,19.1-17.4c6.1,0,8.8,2.9,9.6,6.7c0.2,0.9,0.1,1.5,0.1,2c-0.4,3.2-2.7,6.1-6.4,6.1
	c-3.1,0-5.4-2.4-5-5.7c0.4-3.1,3.1-5.7,6.4-5.7c2.4,0,4.5,1.8,4.8,4.1c-0.3-3.4-2.5-7.3-8.4-7.3
	C1051.2,476.3,1049.7,484,1048.5,493.6L1048.5,493.6z"/>
<path fill="#FFFFFF" d="M1063.9,510l5.4-0.2l4-32.9h-5.4l0-0.2h15.9l-4.1,33h5.4l0,0.2H1063.9L1063.9,510z M1080.7,458.9
	c3.2,0,5.4,2.4,5,5.7c-0.4,3.2-3.1,5.5-6.3,5.5s-5.2-2.4-4.8-5.5C1074.9,461.5,1077.5,458.9,1080.7,458.9L1080.7,458.9z"/>
<path fill="#FFFFFF" d="M1126.7,510h-19l0-0.2h3.1l3.2-26.1c0.6-4.9,0.2-6.7-1.9-6.7c-2.3,0-4.8,2.8-6.2,6.6l-3.2,26.3h3.1l0,0.2
	h-19l0-0.2h5.4l4-32.9h-5.4l0-0.2h15.9l-0.8,6.1c2-4.9,5.1-6.9,8.8-6.9c7.5,0,10,5.5,9.2,12.2l-2.7,21.7L1126.7,510L1126.7,510z"/>
<path fill="#FFFFFF" d="M1136.6,494.8c-1.3,0.5-2.9,1.1-3.1,2.8c-0.1,0.8,0.3,1.2,1.2,1.7c1.1,0.6,4.1,1.1,10.1,1.4
	c12.8,0.8,15.8,5.7,15,12.7c-0.9,7.5-8.6,13-18,13c-11.2,0-16.1-4.6-15.5-9.2c0.5-4.4,4.3-6.7,8.9-7.3c-3.5-1.1-6.2-3.2-5.6-7.8
	C1129.7,498.3,1132.4,496.1,1136.6,494.8c-2.5-2-3.7-4.9-3.3-8.1c0.7-6,6.7-10.7,14.3-10.7c5.2,0,9.1,2.1,10.8,5.5
	c1.1-0.2,7.7-1.4,8.4-7.3c0.5-4.4-1.8-6.1-3.9-6.9c1.7,1.1,2.9,2.9,2.6,5.2c-0.4,3.1-3.3,5.7-6.5,5.7s-5.3-2.6-5-5.7
	c0.4-3.2,3.2-5.8,6.4-5.8c0.2,0,0.9,0,1.4,0.2c1.9,0.5,5.9,1.7,5.2,7.3c-0.7,5.8-7.1,7.2-8.6,7.5c0.9,1.5,1.1,3.2,0.9,5
	c-0.7,6-6.7,10.7-14.3,10.7C1141.4,497.4,1138.7,496.4,1136.6,494.8L1136.6,494.8z M1135.6,510c-1.8,0.9-3.9,3.1-4.4,6.9
	c-0.6,4.6,3.3,9.3,10.3,9.3c6.4,0,11.7-2.9,12.2-7.5c0.5-4-1.7-5.8-9.2-7C1142.1,511,1138.6,510.7,1135.6,510z M1151,486.7
	c1.1-9-1-10.5-3.4-10.5c-2.4,0-4.9,1.5-6,10.5s1,10.5,3.4,10.5C1147.4,497.3,1149.9,495.7,1151,486.7L1151,486.7z"/>
<path fill="#FFFFFF" d="M471.6,589.5l5.4-0.2l4-32.9h-5.4l0-0.2h15.9l-4.1,33h5.4l0,0.2C492.9,589.5,471.6,589.5,471.6,589.5z
	 M488.4,538.4c3.2,0,5.4,2.4,5,5.7c-0.4,3.2-3.1,5.5-6.3,5.5s-5.2-2.4-4.8-5.5C482.6,541,485.2,538.4,488.4,538.4z"/>
<path fill="#FFFFFF" d="M498.7,587.8c-1.4,0-2.9,1.1-3.5,3.4h-0.2l2.1-16.8h0.2c-0.6,6,3.4,16.1,10.6,16.1c2.9,0,5-1.8,5.3-4.9
	c1-8-17-7-15.5-19.7c0.6-4.9,5.4-10.2,11.3-10.2c3.4,0,6.1,2.4,8.7,2.4c0.9,0,1.6-0.6,1.8-2.4h0.2l-1.6,13.3H518
	c0.1-3.5-2.2-13.1-8.9-13.1c-3.1,0-5.5,2.3-5.8,5c-0.9,7.2,17.9,6.4,16.3,19.3c-0.7,6-5.7,10.5-11.8,10.5
	C503.7,590.5,501.9,587.8,498.7,587.8L498.7,587.8z"/>
<path fill="#FFFFFF" d="M547.9,590.4c-8.4,0-15.7-8.1-14.5-17.4c1.1-9.3,10.4-17.4,18.8-17.4s15.7,8.1,14.5,17.4
	C565.6,582.1,556.3,590.4,547.9,590.4L547.9,590.4z M552.2,555.7c-5.2,0-6.3,7.8-7.5,17.3c-1.2,9.5-2,17.3,3.2,17.3
	c5.2,0,6.3-7.8,7.5-17.3S557.4,555.7,552.2,555.7L552.2,555.7z"/>
<path fill="#FFFFFF" d="M604.9,589.5h-19l0-0.2h3.1l3.2-26.1c0.6-4.9,0.2-6.7-1.9-6.7c-2.3,0-4.8,2.8-6.2,6.6l-3.2,26.3h3.1l0,0.2
	h-19l0-0.2h5.4l4-32.9h-5.4l0-0.2H585l-0.8,6.1c2-4.9,5.1-6.9,8.8-6.9c7.5,0,10,5.5,9.2,12.2l-2.7,21.7L604.9,589.5L604.9,589.5z"/>
<path fill="#FFFFFF" d="M618.6,572.8l-0.2,1.8c-1.1,9.2-1.3,14.7,5.4,14.7c6.1,0,10.8-4.3,13.3-11.5h0.2
	c-2.6,7.8-7.8,12.5-16.1,12.5c-8.4,0-14.9-8.1-13.8-17.4c1.1-9.3,9.6-17.4,18-17.4c8.6,0,14.3,7.9,13.2,17.4h-20L618.6,572.8
	L618.6,572.8z M619.1,568.4l-0.5,4.4h8.6c1.8-14.8,1.5-17.1-1.9-17.1C621,555.7,620.1,560.7,619.1,568.4L619.1,568.4z"/>
<path fill="#FFFFFF" d="M665.2,590.4c-8.4,0-15.7-8.1-14.5-17.4c1.1-9.3,10.4-17.4,18.8-17.4c8.4,0,15.7,8.1,14.5,17.4
	C682.9,582.1,673.6,590.4,665.2,590.4z M669.5,555.7c-5.2,0-6.3,7.8-7.5,17.3c-1.2,9.5-2,17.3,3.2,17.3c5.2,0,6.3-7.8,7.5-17.3
	C673.9,563.5,674.7,555.7,669.5,555.7z"/>
<path fill="#FFFFFF" d="M717,545.6c0.2,0.9,0.1,1.5,0.1,2c-0.4,3.2-2.7,6.1-6.4,6.1c-3.1,0-5.4-2.4-5-5.7c0.4-3.1,3.1-5.7,6.4-5.7
	c2.4,0,4.5,1.8,4.8,4.1c-0.2-3.5-2.7-5.7-6-5.7c-2,0-3.6,0.5-4.7,1.2c-1.7,1.1-2.5,2.8-2.8,5l-1.1,9.2h5.4l0,0.2h-5.4l-4,32.9h5.4
	l0,0.2h-21.3l0-0.2h5.4l4-32.9h-5.4l0-0.2h5.4l0.5-4.3c0.8-6.4,7.8-11.6,16.1-11.6C713.1,540.4,716.3,541.6,717,545.6L717,545.6z"/>
<path fill="#FFFFFF" d="M742.6,556.4l-3.5,28.6c-0.2,1.8,0.4,3.2,1.9,3.2c2.1,0,2.7-2.4,3-4.6l0.9-7.3h0.2l-0.9,7.5
	c-0.5,3.8-2.3,6.4-7.1,6.4c-6.4,0-8.8-4.1-8-10.4l2.9-23.4h-5.2l0-0.2h1.7c7.8,0,14.5-5,15.6-13.9h0.2l-1.7,14.1l6.6-0.2l0,0.2
	H742.6L742.6,556.4z"/>
<path fill="#FFFFFF" d="M785.3,589.5h-19l0-0.2h3.1l3.2-26.1c0.6-4.9,0.2-6.7-1.9-6.7c-2.3,0-4.8,2.8-6.2,6.6l-3.2,26.3h3.1l0,0.2
	h-19l0-0.2h5.4l5.9-48h-5.4l0-0.2h15.9l-2.6,21.3c2-4.9,5.1-6.9,8.8-6.9c7.5,0,10,5.5,9.2,12.2l-2.7,21.7L785.3,589.5L785.3,589.5
	L785.3,589.5z"/>
<path fill="#FFFFFF" d="M799,572.8l-0.2,1.8c-1.1,9.2-1.3,14.7,5.4,14.7c6.1,0,10.8-4.3,13.3-11.5h0.2c-2.6,7.8-7.8,12.5-16.1,12.5
	c-8.4,0-14.9-8.1-13.8-17.4c1.1-9.3,9.6-17.4,18-17.4c8.6,0,14.3,7.9,13.2,17.4h-20L799,572.8L799,572.8z M799.6,568.4l-0.5,4.4h8.6
	c1.8-14.8,1.5-17.1-1.9-17.1C801.4,555.7,800.5,560.7,799.6,568.4L799.6,568.4z"/>
<path fill="#FFFFFF" d="M853.7,589.5h-16.2l0-0.2h2.9l3.5-28.4c0.3-2.1,0.2-4.4-1.9-4.4c-2.4,0-5.2,3.5-6.2,6.6l-3.2,26.3h2.6l0,0.2
	h-17.9l0-0.2h4.6l4-32.9h-4.6l0-0.2h15.3l-0.8,6.1c2-4.9,5.3-6.9,8.8-6.9c5.5,0,7.9,2.9,8.8,6.9c2-4.9,5.7-6.9,9.3-6.9
	c7.5,0,10,5.5,9.2,12.2l-2.7,21.7h4.6l0,0.2h-18.2l0-0.2h2.9l3.2-26.1c0.6-4.9,0.4-6.7-1.9-6.7c-2.8,0-5.4,3.2-6.6,6.3
	c0.3,1.5,0.4,3.2,0.2,4.9l-2.7,21.7H853.7L853.7,589.5z"/>
<path fill="#FFFFFF" d="M882.5,578.9c3.1,0,5.2,2.4,4.8,5.5c-0.4,3.1-3.1,5.7-6.2,5.7c-3.1,0-5.4-2.4-5-5.7
	C876.6,581.4,879.5,578.9,882.5,578.9z"/>
<path fill="#333333" d="M377,365.8c0-13.5,9.2-34.6,33.5-46.8l3.2,5.2c-16.7,11.6-21.1,26.1-21.4,33c6.3,0.8,12.4,6.7,12.4,13.1
	c0,7.5-6.4,13.1-13.1,13.1C383.7,383.7,377,377.4,377,365.8z M420.4,365.8c0-13.5,9.2-34.6,33.5-46.8l3.2,5.2
	c-16.7,11.6-21.1,26.1-21.4,33c6.3,0.8,12.4,6.7,12.4,13.1c0,7.5-6.4,13.1-13.1,13.1C427.1,383.7,420.4,377.4,420.4,365.8z"/>
</svg>
