<?xml version="1.0" encoding="utf-8"?>
<!-- Generator: Adobe Illustrator 18.1.0, SVG Export Plug-In . SVG Version: 6.00 Build 0)  -->
<svg version="1.1" id="Layer_1" xmlns="http://www.w3.org/2000/svg" xmlns:xlink="http://www.w3.org/1999/xlink" x="0px" y="0px"
	 viewBox="0 0 529 207" enable-background="new 0 0 529 207" xml:space="preserve">
<g id="AfgneH.tif">
	
		<image overflow="visible" width="418" height="97" id="Layer_1_1_" xlink:href="3C6FD6C2D7E1F3E8.png"  transform="matrix(0.9987 0 0 0.9987 54.9308 56.7235)">
	</image>
</g>
<g>
	<path fill="#FFFFFF" d="M72.2,197.2c-0.2,1-0.8,1.8-1.7,1.8c-1.2,0-1.8-1.7-2.8-1.7c-0.5,0-1,0.4-1.1,1.3l-0.6-0.6
		c0.1-0.9,0.7-1.7,1.6-1.7c1.2,0,2,1.7,2.8,1.7c0.6,0,0.9-0.5,1.1-1.3L72.2,197.2z"/>
	<path fill="#FFFFFF" d="M89.9,192.5l-4.6,6.6H85l-4.6-6.6v11h-1.3v-13.1h1.2l4.7,6.9l4.8-6.9h1.2v13.1h-1.3V192.5z"/>
	<path fill="#FFFFFF" d="M100.1,203.5v-1.1c-0.6,0.6-1.6,1.3-3.1,1.3c-2,0-3.2-1.2-3.2-3.1c0-2.5,2-3.5,4.6-3.5
		c0.6,0,1.2,0.1,1.7,0.2v-0.5c0-1.7-0.9-2.5-2.4-2.5c-1,0-2,0.2-2.8,0.7l-0.3-1.1c0.9-0.4,2.2-0.7,3.2-0.7c2.2,0,3.5,1.3,3.5,3.6
		v6.6H100.1z M97.4,202.6c1.3,0,2.2-0.7,2.7-1.3v-3.1c-0.4-0.1-1.1-0.2-1.7-0.2c-1.9,0-3.4,0.7-3.4,2.5
		C95.1,201.8,96,202.6,97.4,202.6z"/>
	<path fill="#FFFFFF" d="M104.4,203.5v-10.1h1.3v1.8c0.5-1.3,1.2-2,2.4-2c0.6,0,1.2,0.2,1.6,0.6l-0.3,1.1c-0.4-0.3-0.9-0.5-1.4-0.5
		c-1.2,0-1.9,1-2.3,2.5v6.5H104.4z"/>
	<path fill="#FFFFFF" d="M113.7,200.7c0,1.3,0.5,1.8,1.6,1.8c0.7,0,1.5-0.3,2-0.8l0.4,1c-0.7,0.5-1.6,0.9-2.7,0.9
		c-1.5,0-2.5-0.8-2.5-2.8v-6.4h-1.7v-1h1.7l0.1-2.6h1v2.6h3.5v1h-3.5V200.7z"/>
	<path fill="#FFFFFF" d="M126.4,203.5v-6.1c0-1.9-0.8-3-2.6-3c-1.5,0-2.5,1.1-2.9,2.4v6.7h-1.2v-13.7h1.2v5.3
		c0.6-1.2,1.8-1.9,3.3-1.9c2.3,0,3.4,1.4,3.4,3.9v6.3H126.4z"/>
	<path fill="#FFFFFF" d="M136.4,203.5v-1.1c-0.6,0.6-1.6,1.3-3.1,1.3c-2,0-3.2-1.2-3.2-3.1c0-2.5,2-3.5,4.6-3.5
		c0.6,0,1.2,0.1,1.7,0.2v-0.5c0-1.7-0.9-2.5-2.4-2.5c-1,0-2,0.2-2.8,0.7l-0.3-1.1c0.9-0.4,2.2-0.7,3.2-0.7c2.2,0,3.5,1.3,3.5,3.6
		v6.6H136.4z M133.7,202.6c1.3,0,2.2-0.7,2.7-1.3v-3.1c-0.4-0.1-1.1-0.2-1.7-0.2c-1.9,0-3.4,0.7-3.4,2.5
		C131.3,201.8,132.3,202.6,133.7,202.6z"/>
	<path fill="#FFFFFF" d="M153.7,192.9c-1-1-2.1-1.5-3.5-1.5c-2.7,0-4.8,2-4.8,5.6c0,3.5,2.1,5.5,4.7,5.5c1.3,0,2.6-0.5,3.4-1.1v-3.7
		h-3.9v-1.1h5.1v5.5c-1,0.9-2.9,1.6-4.6,1.6c-3.3,0-5.9-2.5-5.9-6.7c0-4.3,2.6-6.8,5.9-6.8c1.8,0,3.1,0.6,4.2,1.8L153.7,192.9z"/>
	<path fill="#FFFFFF" d="M157.5,203.5v-10.1h1.3v1.8c0.5-1.3,1.2-2,2.4-2c0.6,0,1.2,0.2,1.6,0.6l-0.3,1.1c-0.4-0.3-0.9-0.5-1.4-0.5
		c-1.2,0-1.9,1-2.3,2.5v6.5H157.5z"/>
	<path fill="#FFFFFF" d="M170.2,203.5v-1.1c-0.6,0.6-1.6,1.3-3.1,1.3c-2,0-3.2-1.2-3.2-3.1c0-2.5,2-3.5,4.6-3.5
		c0.6,0,1.2,0.1,1.7,0.2v-0.5c0-1.7-0.9-2.5-2.4-2.5c-1,0-2,0.2-2.8,0.7l-0.3-1.1c0.9-0.4,2.2-0.7,3.2-0.7c2.2,0,3.5,1.3,3.5,3.6
		v6.6H170.2z M167.5,202.6c1.3,0,2.2-0.7,2.7-1.3v-3.1c-0.4-0.1-1.1-0.2-1.7-0.2c-1.9,0-3.4,0.7-3.4,2.5
		C165.2,201.8,166.2,202.6,167.5,202.6z"/>
	<path fill="#FFFFFF" d="M181.3,203.5v-6.1c0-1.9-0.8-3-2.6-3c-1.5,0-2.5,1.1-2.9,2.4v6.7h-1.2v-13.7h1.2v5.3
		c0.6-1.2,1.8-1.9,3.3-1.9c2.3,0,3.4,1.4,3.4,3.9v6.3H181.3z"/>
	<path fill="#FFFFFF" d="M191.2,203.5v-1.1c-0.6,0.6-1.6,1.3-3.1,1.3c-2,0-3.2-1.2-3.2-3.1c0-2.5,2-3.5,4.6-3.5
		c0.6,0,1.2,0.1,1.7,0.2v-0.5c0-1.7-0.9-2.5-2.4-2.5c-1,0-2,0.2-2.8,0.7l-0.3-1.1c0.9-0.4,2.2-0.7,3.2-0.7c2.2,0,3.5,1.3,3.5,3.6
		v6.6H191.2z M188.5,202.6c1.3,0,2.2-0.7,2.7-1.3v-3.1c-0.4-0.1-1.1-0.2-1.7-0.2c-1.9,0-3.4,0.7-3.4,2.5
		C186.2,201.8,187.1,202.6,188.5,202.6z"/>
	<path fill="#FFFFFF" d="M208.3,203.5v-6.2c0-1.9-0.7-2.8-2.5-2.8c-1.4,0-2.1,0.9-2.5,2.2c0,0.1,0,0.3,0,0.4v6.4H202v-6.2
		c0-1.9-0.9-2.8-2.4-2.8c-1.5,0-2.4,1-2.8,2.3v6.8h-1.2v-10.1h1.2v1.6c0.6-1.2,1.6-1.8,3.2-1.8c1.6,0,2.6,0.7,3,2
		c0.6-1.3,1.6-2,3.1-2c2.4,0,3.4,1.3,3.4,3.8v6.4H208.3z"/>
</g>
<g>
	<path fill="#333333" d="M475.6,151.5c10.9-7.6,13.8-17,14-21.6c-4.1-0.5-8.1-4.4-8.1-8.6c0-4.9,4.2-8.6,8.6-8.6
		c5.2,0,9.6,4.1,9.6,11.7c0,8.8-6,22.6-21.9,30.5L475.6,151.5z M504,151.5c10.9-7.6,13.8-17,14-21.6c-4.1-0.5-8.1-4.4-8.1-8.6
		c0-4.9,4.2-8.6,8.6-8.6c5.2,0,9.6,4.1,9.6,11.7c0,8.8-6,22.6-21.9,30.5L504,151.5z"/>
</g>
<g>
	<path fill="#FFFFFF" d="M80.2,72.8H66.7v-0.1h3.8V42.6h-3.8v-0.1h13.6c7.9,0,16.3,5.5,16.3,15.1C96.6,67.3,88.2,72.8,80.2,72.8z
		 M80.2,42.6h-2.5v30.1h2.5c7.8,0,9.1-5.7,9.1-15.1C89.4,48.3,88.1,42.6,80.2,42.6z"/>
	<path fill="#FFFFFF" d="M99.7,55.6c0.4-1.6,1.9-2.7,3.5-2.7c2,0,3.7,1.6,3.7,3.7c0,2-1.6,3.7-3.7,3.7c-2.4,0-3.7-1.9-3.7-4
		c0-0.3,0-0.7,0.2-1.3c1.2-3.1,4.9-4.3,7.4-4.3c6.4,0,10.1,3.1,10.1,7.6v11.4c0,1.8,0.6,2.6,1.6,2.6c0.4,0,0.8-0.1,1-0.3
		c0.6-0.5,0.7-1.5,0.8-1.7h0.1c-0.3,1.6-1.3,3.2-3.9,3.2c-3.6,0-6.2-2.3-6.5-4.8c-0.2,1.8-1.5,4.8-6.1,4.8c-3.6,0-5.8-2.4-5.8-5.5
		c0-3.5,2.7-5.6,5.6-6.2c2.2-0.4,2.5-0.2,3.7-0.5c1-0.3,1.8-1.2,2.6-2.2v-4.5c0-2.6-1.2-3.7-3.6-3.7
		C103.6,50.8,100.3,52.7,99.7,55.6z M110.3,59.1c-0.9,1.3-1.6,1.8-2.5,2.3c-1.3,0.7-2.4,1.9-2.4,4v3.9c0,2.1,0.2,3.3,1.5,3.3
		c1.9,0,3.4-2.6,3.4-4.1V59.1z"/>
	<path fill="#FFFFFF" d="M147.4,72.8h-12.4v-0.1h2V55.7c0-3.2-0.4-4.4-1.8-4.4c-1.5,0-2.9,1.8-3.5,4.3v17.2h2v0.1h-12.4v-0.1h3.5
		V51.3h-3.5v-0.1h10.4v4c0.9-3.2,2.8-4.5,5.2-4.5c4.9,0,7,3.6,7,8v14.2L147.4,72.8L147.4,72.8z"/>
	<path fill="#FFFFFF" d="M155,62.1c0,3.5,0.1,10.6,5,10.6c3.9,0,6-3.2,6.2-8.3h0.1c-0.2,5.2-2.3,9-8,9c-5.6,0-10.7-4.9-10.7-11.4
		c0-6,4.5-11.4,11-11.4c4,0,6,1.9,6.8,4.4c0.2,0.6,0.2,1,0.2,1.3c0,2.1-1.3,4-3.7,4c-2,0-3.7-1.6-3.7-3.7c0-2,1.6-3.7,3.7-3.7
		c1.6,0,3.1,1.2,3.5,2.7c-0.5-2.2-2.2-4.8-6.1-4.8C155.4,50.8,155,55.8,155,62.1z"/>
	<path fill="#FFFFFF" d="M166.4,72.8L166.4,72.8l3.5-0.1V51.3h-3.5v-0.1h10.4v21.6h3.5v0.1H166.4z M173.3,39.4
		c2.1,0,3.7,1.6,3.7,3.7s-1.6,3.6-3.7,3.6c-2.1,0-3.6-1.6-3.6-3.6S171.2,39.4,173.3,39.4z"/>
	<path fill="#FFFFFF" d="M207.5,72.8h-12.4v-0.1h2V55.7c0-3.2-0.4-4.4-1.8-4.4c-1.5,0-2.9,1.8-3.5,4.3v17.2h2v0.1h-12.4v-0.1h3.5
		V51.3h-3.5v-0.1h10.4v4c0.9-3.2,2.8-4.5,5.2-4.5c4.9,0,7,3.6,7,8v14.2L207.5,72.8L207.5,72.8z"/>
	<path fill="#FFFFFF" d="M212.7,62.9c-0.8,0.3-1.8,0.7-1.8,1.8c0,0.5,0.3,0.8,0.9,1.1c0.8,0.4,2.8,0.7,6.7,0.9
		c8.4,0.5,10.8,3.7,10.8,8.3c0,4.8-4.5,8.4-10.7,8.4c-7.3,0-10.9-3-10.9-6c0-2.9,2.3-4.4,5.2-4.8c-2.4-0.7-4.3-2.1-4.3-5.1
		C208.5,65.2,210.1,63.7,212.7,62.9c-1.8-1.3-2.8-3.2-2.8-5.3c0-3.9,3.5-7,8.5-7c3.4,0,6.1,1.4,7.4,3.5c0.7-0.1,4.9-0.9,4.9-4.8
		c0-2.9-1.7-4-3.1-4.5c1.2,0.6,2.1,1.9,2.1,3.4c0,2-1.7,3.7-3.8,3.7c-2.1,0-3.7-1.7-3.7-3.7c0-2.1,1.6-3.8,3.7-3.8
		c0.1,0,0.6,0,0.9,0.1c1.3,0.3,4,1.1,4,4.8c0,3.8-4.1,4.7-5,4.8c0.6,1,1,2.1,1,3.3c0,3.9-3.5,7-8.5,7
		C216.1,64.6,214.1,63.9,212.7,62.9z M213.2,72.8c-1.1,0.6-2.3,2-2.3,4.5c0,3,2.9,6.1,7.5,6.1c4.2,0,7.4-1.9,7.4-4.9
		c0-2.6-1.6-3.8-6.6-4.6C217.6,73.5,215.3,73.3,213.2,72.8z M221.5,57.6c0-5.9-1.5-6.9-3.1-6.9c-1.6,0-3.1,1-3.1,6.9
		s1.5,6.9,3.1,6.9C220,64.5,221.5,63.5,221.5,57.6z"/>
	<path fill="#FFFFFF" d="M238,72.8L238,72.8l3.5-0.1V51.3H238v-0.1h10.4v21.6h3.5v0.1H238z M244.9,39.4c2.1,0,3.7,1.6,3.7,3.7
		s-1.6,3.6-3.7,3.6c-2.1,0-3.6-1.6-3.6-3.6S242.8,39.4,244.9,39.4z"/>
	<path fill="#FFFFFF" d="M255.6,71.7c-0.9,0-1.8,0.7-2,2.2h-0.1v-11h0.1c0.1,3.9,3.5,10.5,8.2,10.5c1.9,0,3.1-1.2,3.1-3.2
		c0-5.2-11.6-4.6-11.6-12.9c0-3.2,2.7-6.7,6.6-6.7c2.2,0,4.2,1.6,5.9,1.6c0.6,0,1-0.4,1-1.6h0.1v8.7h-0.1c-0.2-2.3-2.5-8.6-6.9-8.6
		c-1.9,0-3.4,1.5-3.4,3.2c0,4.7,12.2,4.2,12.2,12.6c0,3.9-2.9,6.9-6.9,6.9C259.1,73.5,257.7,71.7,255.6,71.7z"/>
	<path fill="#FFFFFF" d="M286.9,51.3v18.6c0,1.2,0.5,2.1,1.5,2.1c1.4,0,1.6-1.6,1.6-3v-4.8h0.1v4.9c0,2.5-1,4.2-4.1,4.2
		c-4.2,0-6.1-2.7-6.1-6.8V51.3h-3.4v-0.1h1.1c5.1,0,9.1-3.2,9.1-9h0.1V51.3l4.3-0.1v0.1H286.9z"/>
	<path fill="#FFFFFF" d="M317.5,72.8h-12.4v-0.1h2V55.7c0-3.2-0.4-4.4-1.8-4.4c-1.5,0-2.9,1.8-3.5,4.3v17.2h2v0.1h-12.4v-0.1h3.5
		V41.4h-3.5v-0.1h10.4v13.8c0.9-3.2,2.8-4.5,5.2-4.5c4.9,0,7,3.6,7,8v14.2L317.5,72.8L317.5,72.8z"/>
	<path fill="#FFFFFF" d="M325.1,61.9v1.2c0,6,0.3,9.5,4.7,9.5c4,0,6.7-2.8,7.7-7.5h0.1c-1.1,5.1-4.1,8.2-9.5,8.2
		c-5.5,0-10.4-5.3-10.4-11.4c0-6.1,4.9-11.4,10.4-11.4c5.6,0,10,5.2,10,11.3H325.1z M325.1,59v2.9h5.6c0-9.7-0.4-11.2-2.6-11.2
		C325.3,50.7,325.1,54,325.1,59z"/>
	<path fill="#FFFFFF" d="M371.8,72.8h-12.4v-0.1h2V55.7c0-3.2-0.4-4.4-1.8-4.4c-1.5,0-2.9,1.8-3.5,4.3v17.2h2v0.1h-12.4v-0.1h3.5
		V41.4h-3.5v-0.1h10.4v13.8c0.9-3.2,2.8-4.5,5.2-4.5c4.9,0,7,3.6,7,8v14.2L371.8,72.8L371.8,72.8z"/>
	<path fill="#FFFFFF" d="M373.1,72.8L373.1,72.8l3.5-0.1V51.3h-3.5v-0.1h10.4v21.6h3.5v0.1H373.1z M380,39.4c2.1,0,3.7,1.6,3.7,3.7
		s-1.6,3.6-3.7,3.6s-3.6-1.6-3.6-3.6S377.9,39.4,380,39.4z"/>
	<path fill="#FFFFFF" d="M400.7,41.4h-3.5v-0.1h10.4v31.4h3.5v0.1h-10.4v-4c-0.9,3.2-2.8,4.5-5.2,4.5c-4.2,0-8.4-4.8-8.4-11.4
		s4.2-11.4,8.4-11.4c2.4,0,4.3,1.3,5.2,4.5V41.4z M400.7,55.5c-0.6-2.5-1.9-4.3-3.5-4.3c-2,0-2.7,2.1-2.7,8.4v4.8
		c0,6.3,0.7,8.4,2.7,8.4c1.5,0,2.9-1.8,3.5-4.3V55.5z"/>
	<path fill="#FFFFFF" d="M425,41.4h-3.5v-0.1h10.4v31.4h3.5v0.1H425v-4c-0.9,3.2-2.8,4.5-5.2,4.5c-4.2,0-8.4-4.8-8.4-11.4
		s4.2-11.4,8.4-11.4c2.4,0,4.3,1.3,5.2,4.5V41.4z M425,55.5c-0.6-2.5-1.9-4.3-3.5-4.3c-2,0-2.7,2.1-2.7,8.4v4.8
		c0,6.3,0.7,8.4,2.7,8.4c1.5,0,2.9-1.8,3.5-4.3V55.5z"/>
	<path fill="#FFFFFF" d="M442.9,61.9v1.2c0,6,0.3,9.5,4.7,9.5c4,0,6.7-2.8,7.7-7.5h0.1c-1.1,5.1-4.1,8.2-9.5,8.2
		c-5.5,0-10.4-5.3-10.4-11.4c0-6.1,4.9-11.4,10.4-11.4c5.6,0,10,5.2,10,11.3H442.9z M442.9,59v2.9h5.6c0-9.7-0.4-11.2-2.6-11.2
		C443.1,50.7,442.9,54,442.9,59z"/>
	<path fill="#FFFFFF" d="M482.2,72.8h-12.4v-0.1h2V55.7c0-3.2-0.4-4.4-1.8-4.4c-1.5,0-2.9,1.8-3.5,4.3v17.2h2v0.1h-12.4v-0.1h3.5
		V51.3h-3.5v-0.1h10.4v4c0.9-3.2,2.8-4.5,5.2-4.5c4.9,0,7,3.6,7,8v14.2L482.2,72.8L482.2,72.8z"/>
	<path fill="#FFFFFF" d="M66.6,124.7L66.6,124.7l3.5-0.1V93.3h-3.5v-0.1H77v31.4h3.5v0.1H66.6z"/>
	<path fill="#FFFFFF" d="M82.3,107.6c0.4-1.6,1.9-2.7,3.5-2.7c2,0,3.7,1.6,3.7,3.7c0,2-1.6,3.7-3.7,3.7c-2.4,0-3.7-1.9-3.7-4
		c0-0.3,0-0.7,0.2-1.3c1.2-3.1,4.9-4.3,7.4-4.3c6.4,0,10.1,3.1,10.1,7.6v11.4c0,1.8,0.6,2.6,1.6,2.6c0.4,0,0.8-0.1,1-0.3
		c0.6-0.5,0.7-1.5,0.8-1.7h0.1c-0.3,1.6-1.3,3.2-3.9,3.2c-3.6,0-6.2-2.3-6.5-4.8c-0.2,1.8-1.5,4.8-6.1,4.8c-3.6,0-5.8-2.4-5.8-5.5
		c0-3.5,2.7-5.6,5.6-6.2c2.2-0.4,2.5-0.2,3.7-0.5c1-0.3,1.8-1.2,2.6-2.2v-4.5c0-2.6-1.2-3.7-3.6-3.7
		C86.2,102.8,82.9,104.7,82.3,107.6z M92.9,111.1c-0.9,1.3-1.6,1.8-2.5,2.3c-1.3,0.7-2.4,1.9-2.4,4v3.9c0,2.1,0.2,3.3,1.5,3.3
		c1.9,0,3.4-2.6,3.4-4.1V111.1z"/>
	<path fill="#FFFFFF" d="M130,124.7h-12.4v-0.1h2v-17.1c0-3.2-0.4-4.4-1.8-4.4c-1.5,0-2.9,1.8-3.5,4.3v17.2h2v0.1H104v-0.1h3.5
		v-21.5H104v-0.1h10.4v4c0.9-3.2,2.8-4.5,5.2-4.5c4.9,0,7,3.6,7,8v14.2L130,124.7L130,124.7z"/>
	<path fill="#FFFFFF" d="M135.2,114.8c-0.8,0.3-1.8,0.7-1.8,1.8c0,0.5,0.3,0.8,0.9,1.1c0.8,0.4,2.8,0.7,6.7,0.9
		c8.4,0.5,10.8,3.7,10.8,8.3c0,4.8-4.5,8.4-10.7,8.4c-7.3,0-10.9-3-10.9-6c0-2.9,2.3-4.4,5.2-4.8c-2.4-0.7-4.3-2.1-4.3-5.1
		C131,117.1,132.6,115.6,135.2,114.8c-1.8-1.3-2.8-3.2-2.8-5.3c0-3.9,3.5-7,8.5-7c3.4,0,6.1,1.4,7.4,3.5c0.7-0.1,4.9-0.9,4.9-4.8
		c0-2.9-1.7-4-3.1-4.5c1.2,0.6,2.1,1.9,2.1,3.4c0,2-1.7,3.7-3.8,3.7c-2.1,0-3.7-1.7-3.7-3.7c0-2.1,1.6-3.8,3.7-3.8
		c0.1,0,0.6,0,0.9,0.1c1.3,0.3,4,1.1,4,4.8c0,3.8-4.1,4.7-5,4.8c0.6,1,1,2.1,1,3.3c0,3.9-3.5,7-8.5,7
		C138.7,116.5,136.7,115.9,135.2,114.8z M135.8,124.7c-1.1,0.6-2.3,2-2.3,4.5c0,3,2.9,6.1,7.5,6.1c4.2,0,7.4-1.9,7.4-4.9
		c0-2.6-1.6-3.8-6.6-4.6C140.1,125.5,137.8,125.3,135.8,124.7z M144,109.5c0-5.9-1.5-6.9-3.1-6.9c-1.6,0-3.1,1-3.1,6.9
		s1.5,6.9,3.1,6.9C142.6,116.4,144,115.4,144,109.5z"/>
	<path fill="#FFFFFF" d="M154,103.1h10.4v17.1c0,3.2,0.4,4.4,1.8,4.4c1.5,0,2.9-1.8,3.5-4.3v-17.2h-2v-0.1h8.9v21.6h3.5v0.1h-10.4
		v-4c-0.9,3.2-2.8,4.5-5.2,4.5c-4.9,0-7-3.6-7-8v-14.2L154,103.1L154,103.1z"/>
	<path fill="#FFFFFF" d="M181.9,107.6c0.4-1.6,1.9-2.7,3.5-2.7c2,0,3.7,1.6,3.7,3.7c0,2-1.6,3.7-3.7,3.7c-2.4,0-3.7-1.9-3.7-4
		c0-0.3,0-0.7,0.2-1.3c1.2-3.1,4.9-4.3,7.4-4.3c6.4,0,10.1,3.1,10.1,7.6v11.4c0,1.8,0.6,2.6,1.6,2.6c0.4,0,0.8-0.1,1-0.3
		c0.6-0.5,0.7-1.5,0.8-1.7h0.1c-0.3,1.6-1.3,3.2-3.9,3.2c-3.6,0-6.2-2.3-6.5-4.8c-0.2,1.8-1.5,4.8-6.1,4.8c-3.6,0-5.8-2.4-5.8-5.5
		c0-3.5,2.7-5.6,5.6-6.2c2.2-0.4,2.5-0.2,3.7-0.5c1-0.3,1.8-1.2,2.6-2.2v-4.5c0-2.6-1.2-3.7-3.6-3.7
		C185.9,102.8,182.6,104.7,181.9,107.6z M192.5,111.1c-0.9,1.3-1.6,1.8-2.5,2.3c-1.3,0.7-2.4,1.9-2.4,4v3.9c0,2.1,0.2,3.3,1.5,3.3
		c1.9,0,3.4-2.6,3.4-4.1V111.1z"/>
	<path fill="#FFFFFF" d="M208.7,114.8c-0.8,0.3-1.8,0.7-1.8,1.8c0,0.5,0.3,0.8,0.9,1.1c0.8,0.4,2.8,0.7,6.7,0.9
		c8.4,0.5,10.8,3.7,10.8,8.3c0,4.8-4.5,8.4-10.7,8.4c-7.3,0-10.9-3-10.9-6c0-2.9,2.3-4.4,5.2-4.8c-2.4-0.7-4.3-2.1-4.3-5.1
		C204.5,117.1,206.1,115.6,208.7,114.8c-1.8-1.3-2.8-3.2-2.8-5.3c0-3.9,3.5-7,8.5-7c3.4,0,6.1,1.4,7.4,3.5c0.7-0.1,4.9-0.9,4.9-4.8
		c0-2.9-1.7-4-3.1-4.5c1.2,0.6,2.1,1.9,2.1,3.4c0,2-1.7,3.7-3.8,3.7c-2.1,0-3.7-1.7-3.7-3.7c0-2.1,1.6-3.8,3.7-3.8
		c0.1,0,0.6,0,0.9,0.1c1.3,0.3,4,1.1,4,4.8c0,3.8-4.1,4.7-5,4.8c0.6,1,1,2.1,1,3.3c0,3.9-3.5,7-8.5,7
		C212.1,116.5,210.2,115.9,208.7,114.8z M209.3,124.7c-1.1,0.6-2.3,2-2.3,4.5c0,3,2.9,6.1,7.5,6.1c4.2,0,7.4-1.9,7.4-4.9
		c0-2.6-1.6-3.8-6.6-4.6C213.6,125.5,211.3,125.3,209.3,124.7z M217.5,109.5c0-5.9-1.5-6.9-3.1-6.9c-1.6,0-3.1,1-3.1,6.9
		s1.5,6.9,3.1,6.9C216,116.4,217.5,115.4,217.5,109.5z"/>
	<path fill="#FFFFFF" d="M233.7,113.9v1.2c0,6,0.3,9.5,4.7,9.5c4,0,6.7-2.8,7.7-7.5h0.1c-1.1,5.1-4.1,8.2-9.5,8.2
		c-5.5,0-10.4-5.3-10.4-11.4c0-6.1,4.9-11.4,10.4-11.4c5.6,0,10,5.2,10,11.3H233.7z M233.7,110.9v2.9h5.6c0-9.7-0.4-11.2-2.6-11.2
		C233.9,102.6,233.7,105.9,233.7,110.9z"/>
	<path fill="#FFFFFF" d="M265.5,125.3c-5.5,0-10.9-5.3-10.9-11.4c0-6.1,5.4-11.4,10.9-11.4c5.5,0,10.9,5.3,10.9,11.4
		C276.4,120,271,125.3,265.5,125.3z M265.5,102.6c-3.4,0-3.5,5.1-3.5,11.3s0.1,11.3,3.5,11.3c3.4,0,3.5-5.1,3.5-11.3
		S268.9,102.6,265.5,102.6z"/>
	<path fill="#FFFFFF" d="M295.8,96.1c0.2,0.6,0.2,1,0.2,1.3c0,2.1-1.3,4-3.7,4c-2,0-3.7-1.6-3.7-3.7c0-2,1.6-3.7,3.7-3.7
		c1.6,0,3.1,1.2,3.5,2.7c-0.4-2.3-2.2-3.7-4.4-3.7c-1.3,0-2.3,0.3-3,0.8c-1,0.7-1.4,1.8-1.4,3.3v6h3.5v0.1h-3.5v21.5h3.5v0.1h-13.8
		v-0.1h3.5v-21.5h-3.5v-0.1h3.5v-2.8c0-4.2,4.2-7.6,9.6-7.6C292.8,92.7,295,93.5,295.8,96.1z"/>
	<path fill="#FFFFFF" d="M313.3,103.2v18.6c0,1.2,0.5,2.1,1.5,2.1c1.4,0,1.6-1.6,1.6-3v-4.8h0.1v4.9c0,2.5-1,4.2-4.1,4.2
		c-4.2,0-6.1-2.7-6.1-6.8v-15.3H303v-0.1h1.1c5.1,0,9.1-3.2,9.1-9h0.1V103.2l4.3-0.1v0.1H313.3z"/>
	<path fill="#FFFFFF" d="M343.9,124.7h-12.4v-0.1h2v-17.1c0-3.2-0.4-4.4-1.8-4.4c-1.5,0-2.9,1.8-3.5,4.3v17.2h2v0.1h-12.4v-0.1h3.5
		V93.3h-3.5v-0.1h10.4v13.8c0.9-3.2,2.8-4.5,5.2-4.5c4.9,0,7,3.6,7,8v14.2L343.9,124.7L343.9,124.7z"/>
	<path fill="#FFFFFF" d="M351.5,113.9v1.2c0,6,0.3,9.5,4.7,9.5c4,0,6.7-2.8,7.7-7.5h0.1c-1.1,5.1-4.1,8.2-9.5,8.2
		c-5.5,0-10.4-5.3-10.4-11.4c0-6.1,4.9-11.4,10.4-11.4c5.6,0,10,5.2,10,11.3H351.5z M351.5,110.9v2.9h5.6c0-9.7-0.4-11.2-2.6-11.2
		C351.7,102.6,351.5,105.9,351.5,110.9z"/>
	<path fill="#FFFFFF" d="M375.3,123.6c-0.9,0-1.8,0.7-2,2.2h-0.1v-11h0.1c0.1,3.9,3.5,10.5,8.2,10.5c1.9,0,3.1-1.2,3.1-3.2
		c0-5.2-11.6-4.6-11.6-12.9c0-3.2,2.7-6.7,6.6-6.7c2.2,0,4.2,1.6,5.9,1.6c0.6,0,1-0.4,1-1.6h0.1v8.7h-0.1c-0.2-2.3-2.5-8.6-6.9-8.6
		c-1.9,0-3.4,1.5-3.4,3.2c0,4.7,12.2,4.2,12.2,12.6c0,3.9-2.9,6.9-6.9,6.9C378.8,125.4,377.4,123.6,375.3,123.6z"/>
	<path fill="#FFFFFF" d="M400.8,125.3c-5.5,0-10.9-5.3-10.9-11.4c0-6.1,5.4-11.4,10.9-11.4s10.9,5.3,10.9,11.4
		C411.7,120,406.3,125.3,400.8,125.3z M400.8,102.6c-3.4,0-3.5,5.1-3.5,11.3s0.1,11.3,3.5,11.3c3.4,0,3.5-5.1,3.5-11.3
		S404.2,102.6,400.8,102.6z"/>
	<path fill="#FFFFFF" d="M411.5,103.1h10.4v17.1c0,3.2,0.4,4.4,1.8,4.4c1.5,0,2.9-1.8,3.5-4.3v-17.2h-2v-0.1h8.9v21.6h3.5v0.1h-10.4
		v-4c-0.9,3.2-2.8,4.5-5.2,4.5c-4.9,0-7-3.6-7-8v-14.2L411.5,103.1L411.5,103.1z"/>
	<path fill="#FFFFFF" d="M438.8,124.7L438.8,124.7l3.5-0.1V93.3h-3.5v-0.1h10.4v31.4h3.5v0.1H438.8z"/>
	<path fill="#FFFFFF" d="M457,117.8c2,0,3.6,1.6,3.6,3.6c0,2-1.6,3.7-3.6,3.7c-2,0-3.7-1.6-3.7-3.7
		C453.3,119.5,454.9,117.8,457,117.8z"/>
</g>
<g>
	<path fill="#333333" d="M0,30.5C0,21.8,6,8,21.9,0L24,3.4c-10.9,7.6-13.8,17-14,21.6c4.1,0.5,8.1,4.4,8.1,8.6
		c0,4.9-4.2,8.6-8.6,8.6C4.4,42.2,0,38.1,0,30.5z M28.4,30.5c0-8.8,6-22.6,21.9-30.5l2.1,3.4c-10.9,7.6-13.8,17-14,21.6
		c4.1,0.5,8.1,4.4,8.1,8.6c0,4.9-4.2,8.6-8.6,8.6C32.8,42.2,28.4,38.1,28.4,30.5z"/>
</g>
</svg>
