<?xml version="1.0" encoding="utf-8"?>
<!-- Generator: Adobe Illustrator 18.1.0, SVG Export Plug-In . SVG Version: 6.00 Build 0)  -->
<svg version="1.1" id="Layer_1" xmlns="http://www.w3.org/2000/svg" xmlns:xlink="http://www.w3.org/1999/xlink" x="0px" y="0px"
	 viewBox="377 319 792 429" enable-background="new 377 319 792 429" xml:space="preserve">
<g>
	<path fill="#FFFFFF" d="M493.1,737.5c-0.3,1.6-1.3,2.9-2.7,2.9c-1.9,0-2.9-2.7-4.5-2.7c-0.8,0-1.6,0.6-1.8,2.1l-1-1
		c0.2-1.4,1.1-2.7,2.6-2.7c1.9,0,3.2,2.7,4.7,2.7c1,0,1.4-0.8,1.8-2.1L493.1,737.5L493.1,737.5z M521.6,729.8l-7.4,10.6h-0.5
		l-7.4-10.6v17.7h-2.1v-21h1.9l7.6,11.1l7.7-11.1h1.9v21h-1.8L521.6,729.8L521.6,729.8z M538,747.5v-1.8c-1,1-2.6,2.1-5,2.1
		c-3.2,0-5.1-1.9-5.1-5c0-4,3.2-5.6,7.4-5.6c1,0,1.9,0.2,2.7,0.3v-0.8c0-2.7-1.4-4-3.9-4c-1.6,0-3.2,0.3-4.5,1.1l-0.5-1.8
		c1.4-0.6,3.5-1.1,5.1-1.1c3.5,0,5.6,2.1,5.6,5.8v10.6H538L538,747.5L538,747.5z M533.6,746.2c2.1,0,3.5-1.1,4.3-2.1v-5
		c-0.6-0.2-1.8-0.3-2.7-0.3c-3.1,0-5.5,1.1-5.5,4C529.9,744.9,531.4,746.2,533.6,746.2z M547.9,743.1c0,2.1,0.8,2.9,2.6,2.9
		c1.1,0,2.4-0.5,3.2-1.3l0.6,1.6c-1.1,0.8-2.6,1.4-4.3,1.4c-2.4,0-4-1.3-4-4.5V733h-2.7v-1.6h2.7l0.2-4.2h1.6v4.2h5.6v1.6h-5.6v10.1
		L547.9,743.1L547.9,743.1z M566.6,747.5v-1.8c-1,1-2.6,2.1-5,2.1c-3.2,0-5.1-1.9-5.1-5c0-4,3.2-5.6,7.4-5.6c1,0,1.9,0.2,2.7,0.3
		v-0.8c0-2.7-1.4-4-3.9-4c-1.6,0-3.2,0.3-4.5,1.1l-0.5-1.8c1.4-0.6,3.5-1.1,5.1-1.1c3.5,0,5.6,2.1,5.6,5.8v10.6h-1.9L566.6,747.5
		L566.6,747.5z M562.2,746.2c2.1,0,3.5-1.1,4.3-2.1v-5c-0.6-0.2-1.8-0.3-2.7-0.3c-3.1,0-5.5,1.1-5.5,4
		C558.5,744.9,560,746.2,562.2,746.2z M594.5,737.8h-12.2v9.6h-2.1v-21h2.1v9.6h12.2v-9.6h2.1v21h-2.1V737.8L594.5,737.8z
		 M610.9,747.5v-1.8c-1,1-2.6,2.1-5,2.1c-3.2,0-5.1-1.9-5.1-5c0-4,3.2-5.6,7.4-5.6c1,0,1.9,0.2,2.7,0.3v-0.8c0-2.7-1.4-4-3.9-4
		c-1.6,0-3.2,0.3-4.5,1.1l-0.5-1.8c1.4-0.6,3.5-1.1,5.1-1.1c3.5,0,5.6,2.1,5.6,5.8v10.6h-1.9V747.5L610.9,747.5z M606.6,746.2
		c2.1,0,3.5-1.1,4.3-2.1v-5c-0.6-0.2-1.8-0.3-2.7-0.3c-3.1,0-5.5,1.1-5.5,4C602.9,744.9,604.3,746.2,606.6,746.2L606.6,746.2z
		 M618,747.5v-16.2h2.1v2.9c0.8-2.1,1.9-3.2,3.9-3.2c1,0,1.9,0.3,2.6,1l-0.5,1.8c-0.6-0.5-1.4-0.8-2.2-0.8c-1.9,0-3.1,1.6-3.7,4
		v10.4H618V747.5L618,747.5z M630.7,725.4c0.8,0,1.3,0.3,1.3,1.3s-0.5,1.3-1.3,1.3c-0.8,0-1.3-0.3-1.3-1.3S629.9,725.4,630.7,725.4z
		 M629.7,747.5v-16.2h1.9v16.2H629.7z"/>
</g>
<path fill="#333333" d="M785.3,655.9c17.5-12.2,22.2-27.5,22.5-34.7c-6.6-0.8-13-7.1-13-13.8c0-7.9,6.7-13.8,13.8-13.8
	c8.4,0,15.4,6.6,15.4,18.8c0,14.1-9.6,36.3-35.2,49.2L785.3,655.9L785.3,655.9z M830.9,655.9c17.5-12.2,22.2-27.5,22.5-34.7
	c-6.6-0.8-13-7.1-13-13.8c0-7.9,6.7-13.8,13.8-13.8c8.4,0,15.4,6.6,15.4,18.8c0,14.1-9.6,36.3-35.2,49.2L830.9,655.9L830.9,655.9z"
	/>
<path fill="#FFFFFF" d="M522.3,387.4l-2.4,19.3h-0.2c0.9-7.6-1.1-18.3-10.8-19.3l-6,48.5h6.1l0,0.2h-23.9l0-0.2h6.1l5.9-48.4
	c-9.9,0.8-14.6,11.6-15.5,19.3h-0.2l2.4-19.3h38.4L522.3,387.4L522.3,387.4z"/>
<path fill="#FFFFFF" d="M557.8,436.1h-19.9l0-0.2h3.2l3.4-27.5c0.6-5.1,0.2-7.1-2-7.1c-2.4,0-5,2.9-6.5,6.9l-3.4,27.6h3.2l0,0.2H516
	l0-0.2h5.6l6.2-50.4h-5.6l0-0.2H539l-2.7,22.3c2.1-5.1,5.4-7.2,9.2-7.2c7.9,0,10.5,5.8,9.7,12.9l-2.8,22.8L557.8,436.1L557.8,436.1
	L557.8,436.1z"/>
<path fill="#FFFFFF" d="M572.2,418.6l-0.2,1.9c-1.2,9.6-1.4,15.4,5.7,15.4c6.4,0,11.3-4.5,14-12h0.2c-2.8,8.2-8.2,13.2-16.9,13.2
	c-8.8,0-15.7-8.5-14.5-18.3c1.2-9.8,10.1-18.3,19-18.3c9,0,15,8.4,13.8,18.3h-21L572.2,418.6L572.2,418.6z M572.7,413.9l-0.6,4.7h9
	c1.9-15.6,1.6-18-2-18C574.7,400.6,573.7,405.8,572.7,413.9z"/>
<path fill="#FFFFFF" d="M631.8,385.5h-5.6l0-0.2h16.7l-6.2,50.6h5.6l0,0.2h-16.7l0.8-6.4c-2.1,5.1-5.4,7.4-9.3,7.4
	c-6.7,0-12.5-7.7-11.2-18.3c1.3-10.6,9-18.3,15.7-18.3c3.9,0,6.7,2.1,7.5,7.2L631.8,385.5L631.8,385.5z M629,408.3
	c-0.5-4-2.4-6.9-4.8-6.9c-3.2,0-4.8,3.4-6,13.5l-0.9,7.7c-1.2,10.1-0.5,13.5,2.7,13.5c2.4,0,5-2.9,6.5-6.9L629,408.3L629,408.3z"/>
<path fill="#FFFFFF" d="M648.8,408.5c1-2.6,3.7-4.3,6.3-4.3c3.2,0,5.6,2.6,5.2,5.9c-0.4,3.2-3.3,5.9-6.7,5.9c-3.9,0-5.6-3.1-5.2-6.4
	c0.1-0.5,0.1-1.1,0.6-2.1c2.5-5,8.7-7.1,12.8-7.1c10.3,0,15.6,5,14.7,12.2l-2.2,18.3c-0.4,2.9,0.5,4.2,2.1,4.2
	c0.6,0,1.3-0.2,1.7-0.5c1.1-0.8,1.4-2.4,1.6-2.7h0.2c-0.8,2.6-2.7,5.1-6.9,5.1c-5.8,0-9.5-3.7-9.5-7.7c-0.7,2.9-3.4,7.7-10.7,7.7
	c-5.8,0-9-3.9-8.4-8.8c0.7-5.6,5.4-9,10.2-10c3.6-0.6,4.1-0.3,6-0.8c1.7-0.5,3.1-1.9,4.6-3.5l0.9-7.2c0.5-4.2-1.2-5.9-5.1-5.9
	C656.1,400.8,650.5,403.8,648.8,408.5L648.8,408.5z M665.1,414.1c-1.7,2.1-2.9,2.9-4.5,3.7c-2.2,1.1-4.2,3.1-4.6,6.4l-0.8,6.3
	c-0.4,3.4-0.3,5.3,1.8,5.3c3.2,0,6-4.2,6.3-6.6L665.1,414.1L665.1,414.1z"/>
<path fill="#FFFFFF" d="M722.2,436.1h-19.9l0-0.2h3.2l3.4-27.5c0.6-5.1,0.2-7.1-2-7.1c-2.4,0-5,2.9-6.5,6.9l-3.4,27.6h3.2l0,0.2
	h-19.9l0-0.2h5.6l4.2-34.5h-5.6l0-0.2h16.7l-0.8,6.4c2.1-5.1,5.4-7.2,9.2-7.2c7.9,0,10.5,5.8,9.7,12.9l-2.8,22.8L722.2,436.1
	L722.2,436.1L722.2,436.1z"/>
<path fill="#FFFFFF" d="M736.5,418.9c-0.7,5.6-1.9,17,5.9,17c6.3,0,10.3-5.1,11.6-13.3h0.2c-1.3,8.4-5.5,14.5-14.6,14.5
	c-9,0-16.2-7.9-14.9-18.3c1.2-9.6,9.5-18.3,20.1-18.3c6.4,0,9.3,3.1,10.1,7.1c0.2,1,0.1,1.6,0.1,2.1c-0.4,3.4-2.9,6.4-6.7,6.4
	c-3.2,0-5.6-2.6-5.2-5.9c0.4-3.2,3.3-5.9,6.7-5.9c2.6,0,4.7,1.9,5.1,4.3c-0.4-3.5-2.6-7.7-8.9-7.7
	C739.3,400.8,737.7,408.8,736.5,418.9L736.5,418.9z"/>
<path fill="#FFFFFF" d="M768.5,418.6l-0.2,1.9c-1.2,9.6-1.4,15.4,5.7,15.4c6.4,0,11.3-4.5,14-12h0.2c-2.8,8.2-8.2,13.2-16.9,13.2
	c-8.8,0-15.7-8.5-14.5-18.3c1.2-9.8,10.1-18.3,19-18.3c9,0,15,8.4,13.8,18.3h-21L768.5,418.6L768.5,418.6z M769.1,413.9l-0.6,4.7h9
	c1.9-15.6,1.6-18-2-18C771,400.6,770.1,405.8,769.1,413.9z"/>
<path fill="#FFFFFF" d="M799.6,436.1l5.6-0.2l4.2-34.5h-5.6l0-0.2h16.7l-4.3,34.7h5.6l0,0.2L799.6,436.1L799.6,436.1z M817.3,382.3
	c3.4,0,5.6,2.6,5.2,5.9c-0.4,3.4-3.3,5.8-6.7,5.8c-3.4,0-5.5-2.6-5.1-5.8C811.2,385,814.1,382.3,817.3,382.3z"/>
<path fill="#FFFFFF" d="M828.1,434.3c-1.4,0-3,1.1-3.6,3.5h-0.2l2.2-17.7h0.2c-0.6,6.3,3.6,16.9,11.1,16.9c3.1,0,5.2-1.9,5.6-5.1
	c1-8.4-17.9-7.4-16.3-20.7c0.6-5.1,5.7-10.8,11.9-10.8c3.5,0,6.4,2.6,9.2,2.6c1,0,1.7-0.6,1.9-2.6h0.2l-1.7,14h-0.2
	c0.1-3.7-2.3-13.8-9.4-13.8c-3.2,0-5.8,2.4-6.1,5.3c-0.9,7.5,18.8,6.7,17.1,20.2c-0.8,6.3-6,11.1-12.4,11.1
	C833.5,437.2,831.6,434.3,828.1,434.3L828.1,434.3z"/>
<path fill="#FFFFFF" d="M868.5,408.5c1-2.6,3.6-4.3,6.3-4.3c3.2,0,5.6,2.6,5.2,5.9c-0.4,3.2-3.3,5.9-6.7,5.9c-3.9,0-5.6-3.1-5.2-6.4
	c0.1-0.5,0.1-1.1,0.6-2.1c2.5-5,8.7-7.1,12.8-7.1c10.3,0,15.6,5,14.7,12.2L894,431c-0.4,2.9,0.5,4.2,2.1,4.2c0.6,0,1.3-0.2,1.7-0.5
	c1.1-0.8,1.4-2.4,1.6-2.7h0.2c-0.8,2.6-2.7,5.1-6.9,5.1c-5.8,0-9.5-3.7-9.5-7.7c-0.7,2.9-3.4,7.7-10.7,7.7c-5.8,0-9-3.9-8.4-8.8
	c0.7-5.6,5.4-9,10.2-10c3.6-0.6,4.1-0.3,6-0.8c1.7-0.5,3.1-1.9,4.6-3.5l0.9-7.2c0.5-4.2-1.2-5.9-5.1-5.9
	C875.9,400.8,870.2,403.8,868.5,408.5L868.5,408.5z M884.9,414.1c-1.7,2.1-2.9,2.9-4.5,3.7c-2.2,1.1-4.2,3.1-4.6,6.4l-0.8,6.3
	c-0.4,3.4-0.3,5.3,1.8,5.3c3.2,0,6-4.2,6.3-6.6L884.9,414.1z"/>
<path fill="#FFFFFF" d="M925.3,452.2h5.6l0,0.2h-22.3l0-0.2h5.6l6.2-50.8h-5.6l0-0.2h16.7l-0.8,6.4c2.1-5.1,5.4-7.2,9.2-7.2
	c6.7,0,12.5,7.7,11.2,18.3c-1.3,10.6-9,18.3-15.7,18.3c-3.9,0-6.7-2.1-7.4-7.4L925.3,452.2L925.3,452.2z M928.2,429
	c0.5,4,2.4,6.9,4.8,6.9c3.2,0,4.8-3.4,6-13.5l0.9-7.7c1.2-10.1,0.5-13.5-2.7-13.5c-2.4,0-5,2.9-6.5,6.9L928.2,429L928.2,429z"/>
<path fill="#FFFFFF" d="M969.3,437.1c-8.8,0-16.5-8.5-15.3-18.3c1.2-9.8,10.9-18.3,19.8-18.3c8.8,0,16.5,8.5,15.3,18.3
	C987.7,428.4,978.1,437.1,969.3,437.1L969.3,437.1z M973.8,400.6c-5.5,0-6.6,8.2-7.9,18.2c-1.2,10-2.1,18.2,3.4,18.2
	s6.6-8.2,7.9-18.2C978.4,408.8,979.1,400.6,973.8,400.6L973.8,400.6z"/>
<path fill="#FFFFFF" d="M1003.5,418.6l-0.2,1.9c-1.2,9.6-1.4,15.4,5.7,15.4c6.4,0,11.3-4.5,14-12h0.2c-2.8,8.2-8.2,13.2-16.9,13.2
	c-8.8,0-15.7-8.5-14.5-18.3c1.2-9.8,10.1-18.3,19-18.3c9,0,15,8.4,13.8,18.3h-21L1003.5,418.6L1003.5,418.6z M1004.1,413.9l-0.6,4.7
	h9c1.9-15.6,1.6-18-2-18C1006,400.6,1005.1,405.8,1004.1,413.9z"/>
<path fill="#FFFFFF" d="M1061,436.1h-17l0-0.2h3.1l3.7-29.9c0.3-2.2,0.2-4.7-2-4.7c-2.6,0-5.4,3.7-6.5,6.9l-3.4,27.6h2.7l0,0.2
	h-18.8l0-0.2h4.8l4.2-34.5h-4.8l0-0.2h16.1l-0.8,6.4c2.1-5.1,5.5-7.2,9.2-7.2c5.8,0,8.3,3.1,9.2,7.2c2.1-5.1,6-7.2,9.7-7.2
	c7.9,0,10.5,5.8,9.7,12.9l-2.8,22.8h4.8l0,0.2H1063l0-0.2h3.1l3.4-27.6c0.6-5.1,0.4-7.1-2-7.1c-2.9,0-5.7,3.4-6.9,6.6
	c0.3,1.6,0.4,3.4,0.2,5.1l-2.8,22.8L1061,436.1L1061,436.1z"/>
<path fill="#FFFFFF" d="M1112.4,437.1c-8.8,0-16.5-8.5-15.3-18.3c1.2-9.8,10.9-18.3,19.8-18.3c8.8,0,16.5,8.5,15.3,18.3
	C1131,428.4,1121.2,437.1,1112.4,437.1L1112.4,437.1z M1116.9,400.6c-5.5,0-6.6,8.2-7.9,18.2s-2.1,18.2,3.4,18.2
	c5.5,0,6.6-8.2,7.9-18.2C1121.5,408.8,1122.4,400.6,1116.9,400.6z"/>
<path fill="#FFFFFF" d="M1166.9,390c0.2,1,0.1,1.6,0.1,2.1c-0.4,3.4-2.9,6.4-6.7,6.4c-3.2,0-5.6-2.6-5.2-5.9
	c0.4-3.2,3.3-5.9,6.7-5.9c2.6,0,4.7,1.9,5.1,4.3c-0.2-3.7-2.8-5.9-6.3-5.9c-2.1,0-3.8,0.5-5,1.3c-1.7,1.1-2.6,2.9-2.9,5.3l-1.2,9.6
	h5.6l0,0.2h-5.6l-4.2,34.5h5.6l0,0.2h-22.3l0-0.2h5.6l4.2-34.5h-5.6l0-0.2h5.6l0.6-4.5c0.8-6.7,8.2-12.2,16.9-12.2
	C1162.7,384.5,1166.1,385.8,1166.9,390L1166.9,390z"/>
<path fill="#FFFFFF" d="M535.9,485.1h-5.6l-15.6,35.8l-7.5-25.5L496,520.8L485.5,485h-5.6l0-0.2h41l0,0.2h-4.3l5.6,18.3l8-18.3h-5.6
	l0-0.2H536L535.9,485.1L535.9,485.1z M503.5,503.4l3.6-8.2l-2.9-10.1h-6.3C497.8,485.1,503.5,503.4,503.5,503.4z"/>
<path fill="#FFFFFF" d="M572.6,519.7h-19.9l0-0.2h3.2l3.4-27.5c0.6-5.1,0.2-7.1-2-7.1c-2.4,0-5,2.9-6.5,6.9l-3.4,27.6h3.2l0,0.2
	h-19.9l0-0.2h5.6l6.2-50.4h-5.6l0-0.2h16.7l-2.7,22.3c2.1-5.1,5.4-7.2,9.2-7.2c7.9,0,10.5,5.8,9.7,12.9l-2.8,22.8L572.6,519.7
	L572.6,519.7z"/>
<path fill="#FFFFFF" d="M574.6,519.7l5.6-0.2l4.2-34.5h-5.6l0-0.2h16.7l-4.3,34.7h5.6l0,0.2L574.6,519.7L574.6,519.7z M592.4,466
	c3.4,0,5.6,2.6,5.2,5.9c-0.4,3.4-3.3,5.8-6.7,5.8c-3.4,0-5.5-2.6-5.1-5.8C586.3,468.7,589,466,592.4,466z"/>
<path fill="#FFFFFF" d="M611.1,502.5c-0.7,5.6-1.9,17,5.9,17c6.3,0,10.3-5.1,11.6-13.3h0.2c-1.3,8.4-5.5,14.5-14.6,14.5
	c-9,0-16.2-7.9-14.9-18.3c1.2-9.6,9.5-18.3,20.1-18.3c6.4,0,9.3,3.1,10.1,7.1c0.2,1,0.1,1.6,0.1,2.1c-0.4,3.4-2.9,6.4-6.7,6.4
	c-3.2,0-5.6-2.6-5.2-5.9c0.4-3.2,3.3-5.9,6.7-5.9c2.6,0,4.7,1.9,5.1,4.3c-0.4-3.5-2.6-7.7-8.9-7.7
	C613.9,484.3,612.3,492.3,611.1,502.5L611.1,502.5z"/>
<path fill="#FFFFFF" d="M669.2,519.7h-19.9l0-0.2h3.2l3.4-27.5c0.6-5.1,0.2-7.1-2-7.1c-2.4,0-5,2.9-6.5,6.9l-3.4,27.6h3.2l0,0.2
	h-19.9l0-0.2h5.6l6.2-50.4h-5.6l0-0.2h16.7l-2.7,22.3c2.1-5.1,5.4-7.2,9.2-7.2c7.9,0,10.5,5.8,9.7,12.9l-2.8,22.8L669.2,519.7
	L669.2,519.7L669.2,519.7z"/>
<path fill="#FFFFFF" d="M695.9,502.1l-0.2,1.9c-1.2,9.6-1.4,15.4,5.7,15.4c6.4,0,11.3-4.5,14-12h0.2c-2.8,8.2-8.2,13.2-16.9,13.2
	c-8.8,0-15.7-8.5-14.5-18.3c1.2-9.8,10.1-18.3,19-18.3c9,0,15,8.4,13.8,18.3h-21L695.9,502.1L695.9,502.1z M696.5,497.5l-0.6,4.7h9
	c1.9-15.6,1.6-18-2-18C698.5,484.1,697.5,489.4,696.5,497.5z"/>
<path fill="#FFFFFF" d="M722.4,492c1-2.6,3.7-4.3,6.3-4.3c3.2,0,5.6,2.6,5.2,5.9c-0.4,3.2-3.3,5.9-6.7,5.9c-3.9,0-5.6-3.1-5.2-6.4
	c0.1-0.5,0.1-1.1,0.6-2.1c2.5-5,8.7-7.1,12.8-7.1c10.3,0,15.6,5,14.7,12.2l-2.2,18.3c-0.4,2.9,0.5,4.2,2.1,4.2
	c0.6,0,1.3-0.2,1.7-0.5c1.1-0.8,1.4-2.4,1.6-2.7h0.2c-0.8,2.6-2.7,5.1-6.9,5.1c-5.8,0-9.5-3.7-9.5-7.7c-0.7,2.9-3.4,7.7-10.7,7.7
	c-5.8,0-9-3.9-8.4-8.8c0.7-5.6,5.4-9,10.2-10c3.6-0.6,4.1-0.3,6-0.8c1.7-0.5,3.1-1.9,4.6-3.5l0.9-7.2c0.5-4.2-1.2-5.9-5.1-5.9
	C729.8,484.3,724.1,487.4,722.4,492L722.4,492z M738.7,497.6c-1.7,2.1-2.9,2.9-4.5,3.7c-2.2,1.1-4.2,3.1-4.6,6.4l-0.8,6.3
	c-0.4,3.4-0.3,5.3,1.8,5.3c3.2,0,6-4.2,6.3-6.6L738.7,497.6z"/>
<path fill="#FFFFFF" d="M766.9,502.5c-0.7,5.6-1.9,17,5.9,17c6.3,0,10.3-5.1,11.6-13.3h0.2c-1.3,8.4-5.5,14.5-14.6,14.5
	c-9,0-16.2-7.9-14.9-18.3c1.2-9.6,9.5-18.3,20.1-18.3c6.4,0,9.3,3.1,10.1,7.1c0.2,1,0.1,1.6,0.1,2.1c-0.4,3.4-2.9,6.4-6.7,6.4
	c-3.2,0-5.6-2.6-5.2-5.9c0.4-3.2,3.3-5.9,6.7-5.9c2.6,0,4.7,1.9,5.1,4.3c-0.4-3.5-2.6-7.7-8.9-7.7
	C769.8,484.3,768.1,492.3,766.9,502.5L766.9,502.5z"/>
<path fill="#FFFFFF" d="M825,519.7h-19.9l0-0.2h3.2l3.4-27.5c0.6-5.1,0.2-7.1-2-7.1c-2.4,0-5,2.9-6.5,6.9l-3.4,27.6h3.2l0,0.2h-19.9
	l0-0.2h5.6l6.2-50.4h-5.6l0-0.2H806l-2.7,22.3c2.1-5.1,5.4-7.2,9.2-7.2c7.9,0,10.5,5.8,9.7,12.9l-2.8,22.8L825,519.7L825,519.7
	L825,519.7z"/>
<path fill="#FFFFFF" d="M875.3,519.7h-17l0-0.2h3.1l3.7-29.9c0.3-2.2,0.3-4.7-2-4.7c-2.6,0-5.4,3.7-6.5,6.9l-3.4,27.6h2.7l0,0.2
	h-18.8l0-0.2h4.8l4.2-34.5h-4.8l0-0.2h16.1l-0.8,6.4c2.1-5.1,5.5-7.2,9.2-7.2c5.8,0,8.3,3.1,9.2,7.2c2.1-5.1,6-7.2,9.7-7.2
	c7.9,0,10.5,5.8,9.7,12.9l-2.8,22.8h4.8l0,0.2h-19.1l0-0.2h3.1l3.4-27.5c0.6-5.1,0.4-7.1-2-7.1c-2.9,0-5.7,3.4-6.9,6.6
	c0.3,1.6,0.4,3.4,0.2,5.1l-2.8,22.8L875.3,519.7L875.3,519.7L875.3,519.7z"/>
<path fill="#FFFFFF" d="M914.7,520.6c-8.8,0-16.5-8.5-15.3-18.3c1.2-9.8,10.9-18.3,19.8-18.3s16.5,8.5,15.3,18.3
	C933.3,511.9,923.5,520.6,914.7,520.6z M919.2,484.1c-5.5,0-6.6,8.2-7.9,18.2c-1.2,10-2.1,18.2,3.4,18.2c5.5,0,6.6-8.2,7.9-18.2
	C923.8,492.3,924.6,484.1,919.2,484.1L919.2,484.1z"/>
<path fill="#FFFFFF" d="M971,485h-5.6l-15.6,35.8L939.2,485h-5.6l0-0.2h22.3l0,0.2h-4.5l5.6,18.3l8-18.3h-5.6l0-0.2L971,485L971,485
	z"/>
<path fill="#FFFFFF" d="M978.5,502.1l-0.2,1.9c-1.2,9.6-1.4,15.4,5.7,15.4c6.4,0,11.3-4.5,14-12h0.2c-2.8,8.2-8.2,13.2-16.9,13.2
	c-8.8,0-15.7-8.5-14.5-18.3c1.2-9.8,10.1-18.3,19-18.3c9,0,15,8.4,13.8,18.3h-21L978.5,502.1z M979.1,497.5l-0.6,4.7h9
	c1.9-15.6,1.6-18-2-18C981,484.1,980.1,489.4,979.1,497.5L979.1,497.5z"/>
<path fill="#FFFFFF" d="M1036,519.7h-17l0-0.2h3.1l3.7-29.9c0.3-2.2,0.3-4.7-2-4.7c-2.6,0-5.4,3.7-6.5,6.9l-3.4,27.6h2.7l0,0.2
	h-18.8l0-0.2h4.8l4.2-34.5h-4.8l0-0.2h16.1l-0.8,6.4c2.1-5.1,5.5-7.2,9.2-7.2c5.8,0,8.3,3.1,9.2,7.2c2.1-5.1,6-7.2,9.7-7.2
	c7.9,0,10.5,5.8,9.7,12.9l-2.8,22.8h4.8l0,0.2H1038l0-0.2h3.1l3.4-27.5c0.6-5.1,0.4-7.1-2-7.1c-2.9,0-5.7,3.4-6.9,6.6
	c0.3,1.6,0.4,3.4,0.2,5.1l-2.8,22.8L1036,519.7L1036,519.7L1036,519.7z"/>
<path fill="#FFFFFF" d="M1072,502.1l-0.2,1.9c-1.2,9.6-1.4,15.4,5.7,15.4c6.4,0,11.3-4.5,14-12h0.2c-2.8,8.2-8.2,13.2-16.9,13.2
	c-8.8,0-15.7-8.5-14.5-18.3c1.2-9.8,10.1-18.3,19-18.3c9,0,15,8.4,13.8,18.3h-21L1072,502.1L1072,502.1z M1072.6,497.5l-0.6,4.7h9
	c1.9-15.6,1.6-18-2-18C1074.5,484.1,1073.6,489.4,1072.6,497.5L1072.6,497.5z"/>
<path fill="#FFFFFF" d="M1133,519.7h-19.9l0-0.2h3.2l3.4-27.5c0.6-5.1,0.2-7.1-2-7.1c-2.4,0-5,2.9-6.5,6.9l-3.4,27.6h3.2l0,0.2
	h-19.9l0-0.2h5.6l4.2-34.5h-5.6l0-0.2h16.7l-0.8,6.4c2.1-5.1,5.4-7.2,9.2-7.2c7.9,0,10.5,5.8,9.7,12.9l-2.8,22.8L1133,519.7
	L1133,519.7L1133,519.7z"/>
<path fill="#FFFFFF" d="M1152.2,485l-3.7,30c-0.2,1.9,0.4,3.4,2,3.4c2.2,0,2.9-2.6,3.2-4.8l0.9-7.7h0.2l-1,7.9
	c-0.5,4-2.4,6.7-7.4,6.7c-6.7,0-9.3-4.3-8.5-10.9l3-24.6h-5.5l0-0.2h1.8c8.2,0,15.3-5.3,16.4-14.6h0.2L1152,485l6.9-0.2l0,0.2
	L1152.2,485L1152.2,485z"/>
<path fill="#FFFFFF" d="M476.4,603.2l5.6-0.2l4.2-34.5h-5.6l0-0.2h16.7l-4.3,34.7h5.6l0,0.2C498.8,603.2,476.4,603.2,476.4,603.2z
	 M494.1,549.5c3.4,0,5.6,2.6,5.2,5.9c-0.4,3.4-3.3,5.8-6.7,5.8c-3.4,0-5.5-2.6-5.1-5.8C488,552.3,490.7,549.5,494.1,549.5z"/>
<path fill="#FFFFFF" d="M504.9,601.4c-1.4,0-3,1.1-3.6,3.5h-0.2l2.2-17.7h0.2c-0.6,6.3,3.6,16.9,11.1,16.9c3.1,0,5.2-1.9,5.6-5.1
	c1-8.4-17.9-7.4-16.3-20.7c0.6-5.1,5.7-10.8,11.9-10.8c3.5,0,6.4,2.6,9.2,2.6c1,0,1.7-0.6,1.9-2.6h0.2l-1.7,14h-0.2
	c0.1-3.7-2.3-13.8-9.4-13.8c-3.2,0-5.8,2.4-6.1,5.1c-0.9,7.5,18.8,6.7,17.1,20.2c-0.8,6.3-6,11.1-12.4,11.1
	C510.2,604.3,508.3,601.4,504.9,601.4L504.9,601.4z"/>
<path fill="#FFFFFF" d="M545.4,575.6c1-2.6,3.6-4.3,6.3-4.3c3.2,0,5.6,2.6,5.2,5.9c-0.4,3.2-3.3,5.9-6.7,5.9c-3.9,0-5.6-3.1-5.2-6.4
	c0.1-0.5,0.1-1.1,0.6-2.1c2.5-5,8.7-7.1,12.8-7.1c10.3,0,15.6,5,14.7,12.2l-2.2,18.3c-0.4,2.9,0.5,4.2,2.1,4.2
	c0.6,0,1.3-0.2,1.7-0.5c1.1-0.8,1.4-2.4,1.6-2.7h0.2c-0.8,2.6-2.7,5.1-6.9,5.1c-5.8,0-9.5-3.7-9.5-7.7c-0.7,2.9-3.4,7.7-10.7,7.7
	c-5.8,0-9-3.9-8.4-8.8c0.7-5.6,5.4-9,10.2-10c3.6-0.6,4.1-0.3,6-0.8c1.7-0.5,3.1-1.9,4.6-3.5l0.9-7.2c0.5-4.2-1.2-5.9-5.1-5.9
	C552.6,567.8,546.9,570.9,545.4,575.6L545.4,575.6z M561.7,581.2c-1.7,2.1-2.9,2.9-4.5,3.7c-2.2,1.1-4.2,3.1-4.6,6.4l-0.8,6.3
	c-0.4,3.4-0.3,5.3,1.8,5.3c3.2,0,6-4.2,6.3-6.6L561.7,581.2z"/>
<path fill="#FFFFFF" d="M647,568.6h-5.6l-15.6,35.8l-7.5-25.4l-11.1,25.4l-10.5-35.8h-5.6l0-0.2h41l0,0.2h-4.5L633,587l8-18.3h-5.6
	l0-0.2h11.4l0,0.2H647z M614.5,587l3.6-8.2l-2.9-10.1h-6.3L614.5,587z"/>
<path fill="#FFFFFF" d="M657.7,604.2c-8.8,0-16.5-8.5-15.3-18.3s10.9-18.3,19.8-18.3c8.8,0,16.5,8.5,15.3,18.3
	C676.1,595.5,666.5,604.2,657.7,604.2z M662.2,567.7c-5.5,0-6.6,8.2-7.9,18.2c-1.2,10-2.1,18.2,3.4,18.2c5.5,0,6.6-8.2,7.9-18.2
	C666.8,575.9,667.6,567.7,662.2,567.7z"/>
<path fill="#FFFFFF" d="M675.7,603.2l5.6-0.2l4.2-34.5h-5.6l0-0.2h16.7l-0.4,2.9c1.7-2.1,3.8-3.7,7.2-3.7c2.6,0,6.1,1.4,6.7,5.5
	c0.2,1,0.1,1.6,0.1,2.1c-0.4,3.4-2.9,6.4-6.7,6.4c-3.2,0-5.6-2.6-5.2-5.9c0.4-3.4,3.3-5.9,6.7-5.9c2.7,0,4.7,1.9,5.1,4.3
	c0.1-3.1-2.3-6.4-6.6-6.4c-3.4,0-5.5,1.6-7.2,3.9l-3.9,31.5h5.6l0,0.2h-22.3L675.7,603.2z"/>
<path fill="#FFFFFF" d="M736.3,552.7h-5.6l0-0.2h16.7l-6.2,50.6h5.6l0,0.2h-16.7l0.8-6.4c-2.1,5.1-5.4,7.2-9.2,7.2
	c-6.7,0-12.5-7.7-11.2-18.3c1.3-10.6,9-18.3,15.7-18.3c3.9,0,6.7,2.1,7.5,7.2L736.3,552.7L736.3,552.7z M733.5,575.4
	c-0.5-4-2.4-6.9-4.8-6.9c-3.2,0-4.8,3.4-6,13.5l-0.9,7.7c-1.2,10.1-0.5,13.5,2.7,13.5c2.4,0,5-2.9,6.5-6.9L733.5,575.4L733.5,575.4z
	"/>
<path fill="#FFFFFF" d="M755.2,592.1c3.2,0,5.5,2.6,5.1,5.8c-0.4,3.2-3.3,5.9-6.5,5.9s-5.6-2.6-5.2-5.9
	C749.1,594.7,752,592.1,755.2,592.1z"/>
<path fill="#333333" d="M377,368.2c0-14.1,9.6-36.3,35.2-49.2l3.4,5.5c-17.5,12.2-22.2,27.5-22.5,34.7c6.6,0.8,13,7.1,13,13.8
	c0,7.9-6.7,13.8-13.8,13.8C384.1,387,377,380.4,377,368.2z M422.6,368.2c0-14.1,9.6-36.3,35.2-49.2l3.4,5.5
	c-17.5,12.2-22.2,27.5-22.5,34.7c6.6,0.8,13,7.1,13,13.8c0,7.9-6.7,13.8-13.8,13.8C429.7,387,422.6,380.4,422.6,368.2z"/>
</svg>
