<svg xmlns="http://www.w3.org/2000/svg" width="792" height="612"><g fill="#fff"><path d="M114.753 504.714c-.318 1.588-1.27 2.857-2.698 2.857-1.905 0-2.857-2.698-4.444-2.698-.793 0-1.587.635-1.746 2.062l-.953-.951c.159-1.43 1.111-2.698 2.54-2.698 1.905 0 3.174 2.698 4.603 2.698.952 0 1.428-.794 1.746-2.063l.952.793zM142.846 497.096l-7.301 10.477h-.477l-7.301-10.477v17.459h-2.063v-20.792h1.905l7.459 10.951 7.619-10.951h1.905v20.792h-1.746v-17.459zM159.035 514.555v-1.746c-.952.952-2.539 2.063-4.92 2.063-3.174 0-5.079-1.904-5.079-4.92 0-3.968 3.174-5.556 7.301-5.556.952 0 1.904.158 2.698.316v-.793c0-2.698-1.428-3.968-3.809-3.968-1.587 0-3.174.316-4.444 1.109l-.477-1.745c1.429-.636 3.492-1.11 5.079-1.11 3.492 0 5.555 2.062 5.555 5.714v10.475h-1.905l.001.161zm-4.285-1.27c2.063 0 3.492-1.111 4.285-2.063v-4.92c-.635-.159-1.746-.316-2.698-.316-3.016 0-5.396 1.109-5.396 3.968.158 2.062 1.745 3.331 3.809 3.331zM164.272 518.205c.635.477 1.429.794 2.698.794 1.746 0 2.54-1.111 3.174-3.175l.476-1.271-6.507-15.872h2.222l5.238 13.81 4.761-13.81h2.063l-6.349 17.618c-.952 2.856-2.222 4.444-4.92 4.444-1.27 0-2.381-.478-3.016-.953l.16-1.585zM190.302 514.555v-1.746c-.952.952-2.54 2.063-4.92 2.063-3.174 0-5.079-1.904-5.079-4.92 0-3.968 3.174-5.556 7.301-5.556.952 0 1.905.158 2.698.316v-.793c0-2.698-1.429-3.968-3.809-3.968-1.587 0-3.174.316-4.444 1.109l-.476-1.745c1.428-.636 3.492-1.11 5.079-1.11 3.492 0 5.555 2.062 5.555 5.714v10.475h-1.905v.161zm-4.285-1.27c2.063 0 3.492-1.111 4.286-2.063v-4.92c-.635-.159-1.746-.316-2.698-.316-3.016 0-5.396 1.109-5.396 3.968.157 2.062 1.586 3.331 3.808 3.331zM208.237 493.763h2.222l7.142 20.792h-2.063l-1.746-5.079h-9.523l-1.746 5.079h-2.063l7.777-20.792zm-3.015 14.126h8.412l-4.127-12.062-4.285 12.062zM231.886 514.555v-9.682c0-3.016-1.27-4.762-3.968-4.762-2.381 0-3.968 1.746-4.603 3.81v10.634h-1.905v-16.029h1.905v2.697c.952-1.904 2.857-3.016 5.238-3.016 3.65 0 5.396 2.222 5.396 6.189v9.998h-2.063v.161zM244.583 498.365c2.063 0 3.65.952 4.603 2.062v-1.746h2.063v15.237c0 4.762-2.857 6.825-6.19 6.825-2.857 0-4.444-1.111-5.396-1.588l.476-1.746c.793.636 2.54 1.746 4.603 1.746 2.381 0 4.444-1.271 4.444-4.763v-2.855c-1.111 1.27-2.698 2.062-4.603 2.062-3.968 0-6.507-3.016-6.507-7.617s2.54-7.617 6.507-7.617zm.477 13.491c1.746 0 3.174-1.111 3.968-2.063v-7.46c-.794-.952-2.063-2.222-3.968-2.222-3.174 0-5.237 2.222-5.237 5.873.158 3.492 2.221 5.872 5.237 5.872zM257.281 507.254c.159 3.491 1.746 6.031 5.555 6.031 1.905 0 3.492-.794 4.603-1.905l.793 1.588c-1.428 1.271-3.333 2.063-5.714 2.063-5.079 0-7.142-3.492-7.142-8.412 0-4.921 2.698-8.412 7.142-8.412 4.127 0 6.031 3.016 6.031 6.507 0 .952-.159 1.905-.317 2.54h-10.951zm9.205-1.588c0-.317.159-.793.159-1.27 0-2.539-1.429-4.604-4.127-4.604-3.174 0-4.92 2.381-5.079 5.714h9.047v.16zM274.74 492.969v18.253c0 1.587.476 2.063 1.429 2.063.793 0 1.27-.317 1.746-.635l.159 1.587c-.635.476-1.587.794-2.698.794-1.746 0-2.857-.953-2.857-3.334v-18.569h2.222l-.001-.159zM287.596 498.207c4.285 0 7.301 3.174 7.301 8.412 0 5.237-3.016 8.412-7.301 8.412-4.286 0-7.143-3.175-7.143-8.412.001-5.238 2.858-8.412 7.143-8.412zm0 14.919c3.174 0 5.237-2.381 5.237-6.507 0-4.127-2.063-6.666-5.237-6.666s-5.238 2.539-5.238 6.666c0 4.126 2.064 6.507 5.238 6.507zM300.928 498.683v9.683c0 3.016 1.27 4.762 3.968 4.762 2.381 0 4.127-1.746 4.603-3.809v-10.636h2.063v16.031h-2.063v-2.698c-.952 1.904-2.857 3.017-5.238 3.017-3.65 0-5.396-2.224-5.396-6.19v-9.999h2.062l.001-.161z"/></g><path fill="#333" d="M700.189 424.086c17.3-12.062 21.902-27.141 22.221-34.283-6.508-.794-12.855-6.982-12.855-13.648 0-7.777 6.666-13.65 13.648-13.65 8.254 0 15.237 6.508 15.237 18.57 0 13.967-9.523 35.87-34.759 48.566l-3.492-5.555zm45.077 0c17.3-12.062 21.901-27.141 22.22-34.283-6.507-.794-12.855-6.982-12.855-13.648 0-7.777 6.666-13.65 13.649-13.65 8.253 0 15.236 6.508 15.236 18.57 0 13.967-9.522 35.87-34.76 48.566l-3.49-5.555z"/><g fill="#fff"><path d="M144.664 206.96h-38.727l.02-.159h6.031l5.866-47.774h-6.031l.02-.159h36.188l-2.144 17.458h-.159s-.098-17.3-14.065-17.3h-2.381l-2.845 23.172h.793c8.729 0 11.244-11.427 11.244-11.427h.159l-2.806 22.855h-.159s.292-11.428-8.438-11.428h-.793l-3.021 24.602h2.38c17.142 0 20.87-18.729 20.87-18.729h.159l-2.319 18.888.158.001zM186.966 172.677h-5.555l-15.456 35.394-10.415-35.394h-5.396l.02-.159h22.062l-.02.159h-4.444l5.556 18.094 7.935-18.094h-5.555l.02-.159 11.248.159zM194.404 189.66l-.234 1.905c-1.169 9.523-1.395 15.237 5.588 15.237 6.349 0 11.18-4.444 13.841-11.904h.159c-2.74 8.094-8.105 13.015-16.676 13.015-8.729 0-15.474-8.412-14.285-18.094 1.188-9.682 9.999-18.094 18.728-18.094 8.888 0 14.858 8.253 13.65 18.094h-20.792l.021-.159zm.565-4.603l-.565 4.603h8.888c1.89-15.396 1.547-17.776-1.944-17.776-4.444 0-5.404 5.238-6.379 13.173zM213.23 206.96l5.574-.159 4.19-34.125h-5.555l.02-.159h16.506l-.351 2.857c1.682-2.063 3.781-3.65 7.114-3.65 2.54 0 6.014 1.428 6.639 5.396.2.952.123 1.587.064 2.063-.409 3.333-2.843 6.349-6.652 6.349-3.174 0-5.561-2.539-5.151-5.872.409-3.333 3.261-5.873 6.594-5.873 2.698 0 4.687 1.904 5.029 4.285.053-3.016-2.236-6.349-6.521-6.349-3.333 0-5.432 1.587-7.134 3.809l-3.839 31.268h5.555l-.02.159-22.062.001zM244.163 217.436l.017-1.428c.409-3.333 3.419-5.873 6.752-5.873 3.174 0 5.561 2.54 5.151 5.873-.41 3.333-3.438 6.031-6.613 6.031-2.38 0-4.269-1.429-4.987-3.333.521 2.222 1.935 4.92 6.538 4.92 5.396 0 8.067-3.65 10.614-8.888l2.962-6.031-10.813-36.029h-5.555l.02-.159h22.22l-.02.159h-4.444l6.096 20.157 9.458-20.157h-5.555l.02-.159h11.269l-.02.159h-5.555l-19.766 42.06c-2.765 5.714-5.713 9.047-10.951 9.047-5.871-.001-6.773-4.286-6.838-6.349zM305.528 172.677l-3.625 29.521c-.234 1.905.384 3.333 1.971 3.333 2.223 0 2.852-2.54 3.125-4.761l.936-7.619h.159l-.955 7.777c-.487 3.968-2.406 6.666-7.326 6.666-6.667 0-9.156-4.286-8.357-10.793l2.962-24.125h-5.396l.02-.159h1.746c8.095 0 15.067-5.079 16.217-14.443h.159l-1.793 14.602 6.844-.159-.02.159-6.667.001zM349.886 206.96h-19.681l.02-.159h3.174l3.333-27.141c.624-5.079.223-6.984-2-6.984-2.381 0-4.953 2.857-6.393 6.825l-3.352 27.3h3.174l-.02.159h-19.681l.02-.159h5.555l6.119-49.837h-5.555l.02-.159h16.506l-2.708 22.062c2.052-5.079 5.34-7.301 9.15-7.301 7.777 0 10.409 5.714 9.551 12.697l-2.768 22.538 5.536.159zM351.79 206.96l5.575-.159 4.19-34.125h-5.555l.02-.159h16.507l-4.209 34.283h5.555l-.02.159-22.063.001zm17.62-53.011c3.333 0 5.561 2.54 5.151 5.873-.41 3.333-3.241 5.714-6.574 5.714s-5.402-2.54-5.012-5.714c.39-3.174 3.102-5.873 6.435-5.873zM417.183 206.96h-19.683l.021-.159h3.175l3.332-27.141c.624-5.079.223-6.984-2-6.984-2.38 0-4.953 2.857-6.394 6.825l-3.352 27.3h3.174l-.02.159h-19.681l.02-.159h5.555l4.19-34.125h-5.555l.02-.159h16.507l-.779 6.349c2.054-5.079 5.343-7.301 9.15-7.301 7.777 0 10.408 5.714 9.551 12.697l-2.768 22.538 5.537.16zM427.365 191.247c-1.328.477-2.994 1.111-3.209 2.857-.098.794.321 1.27 1.215 1.746 1.191.635 4.309 1.111 10.459 1.428 13.234.794 16.42 5.873 15.523 13.174-.955 7.777-8.799 13.491-18.64 13.491-11.586 0-16.715-4.761-16.131-9.523.565-4.603 4.508-6.983 9.188-7.618-3.674-1.111-6.416-3.333-5.831-8.095.311-3.809 3.143-6.19 7.426-7.46-2.604-2.063-3.82-5.079-3.412-8.412.76-6.19 6.92-11.11 14.855-11.11 5.396 0 9.408 2.222 11.202 5.714 1.131-.159 7.951-1.429 8.713-7.619.564-4.603-1.919-6.349-4.043-7.142 1.786.952 2.962 3.016 2.671 5.396-.392 3.174-3.42 5.873-6.753 5.873s-5.541-2.698-5.151-5.873c.41-3.333 3.279-6.031 6.613-6.031.157 0 1.11 0 1.407.159 2.007.476 6.136 1.746 5.414 7.618-.739 6.031-7.424 7.46-8.891 7.777.758 1.587 1.178 3.333.943 5.238-.761 6.19-6.92 11.11-14.855 11.11-3.648 0-6.527-1.111-8.713-2.698zm-1.136 15.713c-1.882 1.111-4.041 3.174-4.528 7.142-.584 4.762 3.415 9.682 10.716 9.682 6.666 0 12.115-3.016 12.7-7.777.506-4.127-1.799-6.031-9.58-7.301-2.461-.635-6.072-.952-9.308-1.746zm16.136-24.125c1.148-9.365-1.037-10.952-3.576-10.952s-5.114 1.587-6.264 10.952c-1.15 9.364 1.035 10.951 3.574 10.951s5.116-1.586 6.266-10.951zM465.591 206.96l5.575-.159 4.189-34.125h-5.555l.021-.159h16.506l-4.209 34.283h5.555l-.02.159-22.062.001zm17.462-53.011c3.332 0 5.561 2.54 5.15 5.873s-3.24 5.714-6.574 5.714-5.4-2.54-5.012-5.714c.389-3.174 3.26-5.873 6.436-5.873zM530.824 206.96h-19.682l.02-.159h3.175l3.333-27.141c.623-5.079.224-6.984-2-6.984-2.381 0-4.953 2.857-6.393 6.825l-3.354 27.3h3.176l-.021.159h-19.682l.02-.159h5.556l4.19-34.125h-5.557l.02-.159h16.508l-.778 6.349c2.052-5.079 5.34-7.301 9.147-7.301 7.777 0 10.409 5.714 9.552 12.697l-2.768 22.538 5.538.16zM563.285 172.677l-3.625 29.521c-.234 1.905.385 3.333 1.971 3.333 2.224 0 2.854-2.54 3.125-4.761l.937-7.619h.158l-.955 7.777c-.486 3.968-2.404 6.666-7.324 6.666-6.668 0-9.157-4.286-8.357-10.793l2.961-24.125h-5.395l.02-.159h1.744c8.097 0 15.067-5.079 16.218-14.443h.159l-1.793 14.602 6.845-.159-.021.159-6.668.001zM607.643 206.96h-19.681l.021-.159h3.175l3.332-27.141c.624-5.079.223-6.984-2-6.984-2.381 0-4.953 2.857-6.394 6.825l-3.352 27.3h3.174l-.02.159h-19.682l.021-.159h5.556l6.119-49.837h-5.556l.02-.159h16.507l-2.709 22.062c2.054-5.079 5.343-7.301 9.15-7.301 7.777 0 10.408 5.714 9.551 12.697l-2.768 22.538 5.536.159zM621.83 189.66l-.232 1.905c-1.17 9.523-1.396 15.237 5.588 15.237 6.349 0 11.181-4.444 13.841-11.904h.16c-2.74 8.094-8.105 13.015-16.677 13.015-8.729 0-15.475-8.412-14.284-18.094 1.188-9.682 9.998-18.094 18.729-18.094 8.887 0 14.857 8.253 13.65 18.094h-20.793l.018-.159zm.566-4.603l-.565 4.603h8.889c1.891-15.396 1.548-17.776-1.944-17.776-4.446 0-5.406 5.238-6.38 13.173zM98.763 255.052h16.507l-3.352 27.299c-.624 5.079-.223 6.983 2 6.983 2.38 0 4.954-2.857 6.393-6.825l3.352-27.299h-3.175l.02-.159h14.126l-4.209 34.283h5.555l-.02.159h-16.508l.78-6.349c-2.052 5.079-5.341 7.301-9.15 7.301-7.777 0-10.409-5.714-9.551-12.698l2.767-22.538-5.535-.157zM179.448 289.493h-19.681l.02-.159h3.174l3.313-26.982c.624-5.079.223-6.983-2-6.983-2.381 0-4.953 2.857-6.393 6.825l-3.333 27.141h3.174l-.02.159h-19.68l.02-.159h5.555l4.19-34.124h-5.555l.02-.159h16.506l-.779 6.349c2.052-5.079 5.34-7.301 9.15-7.301 7.777 0 10.409 5.714 9.551 12.697l-2.768 22.538 5.536.158zM181.352 289.493l5.575-.159 4.19-34.124h-5.555l.02-.159h16.507l-4.209 34.283h5.555l-.02.159h-22.063zm17.461-53.011c3.333 0 5.561 2.54 5.151 5.873-.41 3.333-3.241 5.714-6.574 5.714s-5.402-2.54-5.012-5.714c.389-3.175 3.102-5.873 6.435-5.873zM243.176 255.21h-5.555l-15.456 35.394-10.415-35.394h-5.555l.02-.159h22.062l-.02.159h-4.444l5.556 18.094 7.936-18.094h-5.555l.02-.159 11.406.159zM250.455 272.193l-.234 1.904c-1.169 9.523-1.395 15.237 5.588 15.237 6.349 0 11.18-4.444 13.842-11.904h.159c-2.74 8.095-8.106 13.015-16.677 13.015-8.729 0-15.474-8.412-14.285-18.094 1.188-9.682 9.999-18.094 18.728-18.094 8.889 0 14.858 8.253 13.65 18.094h-20.792l.021-.158zm.565-4.603l-.565 4.603h8.888c1.89-15.396 1.548-17.776-1.944-17.776-4.444 0-5.404 5.237-6.379 13.173zM269.282 289.493l5.575-.159 4.19-34.124h-5.555l.02-.159h16.506l-.351 2.857c1.682-2.063 3.782-3.65 7.115-3.65 2.54 0 6.014 1.428 6.638 5.396.2.953.122 1.587.064 2.063-.409 3.333-2.843 6.349-6.652 6.349-3.174 0-5.561-2.54-5.151-5.873.39-3.174 3.261-5.873 6.594-5.873 2.698 0 4.687 1.905 5.029 4.286.053-3.016-2.236-6.349-6.521-6.349-3.333 0-5.433 1.587-7.134 3.809l-3.839 31.267h5.555l-.02.159-22.063.001zM306.636 287.748c-1.428 0-2.993 1.111-3.603 3.492h-.159l2.144-17.459h.158c-.601 6.19 3.509 16.666 10.969 16.666 3.016 0 5.154-1.905 5.543-5.079 1.013-8.253-17.673-7.301-16.056-20.475.624-5.079 5.591-10.634 11.781-10.634 3.492 0 6.354 2.539 9.052 2.539.952 0 1.665-.635 1.899-2.539h.159l-1.696 13.808h-.159c.131-3.65-2.292-13.649-9.275-13.649-3.174 0-5.689 2.38-6.02 5.079-.916 7.46 18.544 6.667 16.908 19.999-.76 6.19-5.947 10.952-12.296 10.952-4.145.156-6.016-2.7-9.349-2.7zM343.464 272.193l-.234 1.904c-1.169 9.523-1.395 15.237 5.589 15.237 6.349 0 11.18-4.444 13.842-11.904h.159c-2.74 8.095-8.105 13.015-16.676 13.015-8.729 0-15.474-8.412-14.285-18.094 1.188-9.682 9.999-18.094 18.729-18.094 8.888 0 14.858 8.253 13.65 18.094h-20.792l.018-.158zm.565-4.603l-.565 4.603h8.888c1.89-15.396 1.548-17.776-1.944-17.776-4.286 0-5.405 5.237-6.379 13.173zM415.778 289.493h-19.683l.021-.159h3.175l3.312-26.982c.624-5.079.223-6.983-2-6.983-2.381 0-4.953 2.857-6.394 6.825l-3.332 27.141h3.174l-.02.159h-19.68l.02-.159h5.555l6.1-49.678h-5.555l.019-.159h16.507l-2.709 22.062c2.053-5.079 5.342-7.301 9.15-7.301 7.776 0 10.407 5.713 9.551 12.697l-2.748 22.379 5.537.158zM422.146 262.194c.945-2.54 3.698-4.285 6.237-4.285 3.177 0 5.562 2.54 5.152 5.873-.41 3.333-3.26 5.873-6.594 5.873-3.81 0-5.502-3.016-5.093-6.349.058-.476.136-1.111.57-2.063 2.508-4.92 8.636-6.983 12.603-6.983 10.158 0 15.426 4.92 14.549 12.062l-2.24 18.252c-.352 2.857.445 4.126 2.033 4.126.635 0 1.289-.159 1.646-.476 1.051-.793 1.403-2.381 1.602-2.698h.159c-.788 2.54-2.688 5.079-6.813 5.079-5.715 0-9.393-3.65-9.381-7.619-.669 2.857-3.316 7.619-10.617 7.619-5.715 0-8.896-3.81-8.293-8.729.683-5.555 5.377-8.888 10.097-9.84 3.569-.635 4.007-.318 5.971-.794 1.646-.476 3.09-1.904 4.555-3.492l.877-7.142c.507-4.127-1.184-5.873-4.992-5.873-4.903-.159-10.51 2.856-12.028 7.459zm16.141 5.555c-1.682 2.063-2.89 2.857-4.416 3.65-2.199 1.111-4.179 3.016-4.588 6.349l-.76 6.19c-.41 3.333-.326 5.237 1.735 5.237 3.176 0 5.903-4.126 6.195-6.507l1.834-14.919zM458.053 287.748c-1.43 0-2.992 1.111-3.604 3.492h-.158l2.144-17.459h.159c-.602 6.19 3.509 16.666 10.97 16.666 3.016 0 5.152-1.905 5.543-5.079 1.014-8.253-17.674-7.301-16.058-20.475.624-5.079 5.593-10.634 11.781-10.634 3.492 0 6.354 2.539 9.053 2.539.952 0 1.666-.635 1.9-2.539h.158l-1.696 13.808h-.158c.13-3.65-2.292-13.649-9.275-13.649-3.175 0-5.688 2.38-6.021 5.079-.916 7.46 18.545 6.667 16.908 19.999-.76 6.19-5.947 10.952-12.297 10.952-3.986.156-5.857-2.7-9.349-2.7zM491.645 289.493l5.574-.159 4.19-34.124h-5.557l.02-.159h16.508l-.352 2.857c1.682-2.063 3.781-3.65 7.115-3.65 2.539 0 6.014 1.428 6.638 5.396.201.953.124 1.587.064 2.063-.409 3.333-2.844 6.349-6.652 6.349-3.175 0-5.562-2.54-5.151-5.873.39-3.174 3.261-5.873 6.594-5.873 2.698 0 4.687 1.905 5.028 4.286.054-3.016-2.234-6.349-6.521-6.349-3.334 0-5.435 1.587-7.136 3.809l-3.839 31.267h5.556l-.021.159-22.058.001zM562.909 289.493h-19.682l.02-.159h3.175l3.312-26.982c.624-5.079.223-6.983-1.998-6.983-2.381 0-4.955 2.857-6.396 6.825l-3.332 27.141h3.176l-.021.159h-19.682l.02-.159h5.557l6.1-49.678h-5.555l.019-.159h16.507l-2.709 22.062c2.054-5.079 5.342-7.301 9.15-7.301 7.777 0 10.408 5.713 9.551 12.697l-2.748 22.379 5.536.158zM559.242 299.969l.016-1.429c.41-3.333 3.42-5.872 6.753-5.872 3.176 0 5.562 2.539 5.151 5.872-.408 3.333-3.438 6.031-6.613 6.031-2.381 0-4.268-1.428-4.985-3.333.521 2.222 1.936 4.92 6.538 4.92 5.396 0 8.064-3.65 10.613-8.888l2.963-6.031-10.812-36.029h-5.557l.02-.159h22.221l-.02.159h-4.443l6.096 20.157 9.46-20.157h-5.558l.021-.159h11.27l-.02.159h-5.556l-19.766 42.06c-2.766 5.714-5.715 9.047-10.952 9.047-5.873 0-6.775-4.285-6.84-6.348zM620.447 255.21l-3.624 29.521c-.233 1.904.384 3.333 1.972 3.333 2.222 0 2.852-2.54 3.123-4.762l.937-7.618h.159l-.955 7.777c-.487 3.968-2.405 6.667-7.325 6.667-6.666 0-9.156-4.286-8.357-10.793l2.982-24.284h-5.396l.021-.159h1.746c8.094 0 15.065-5.079 16.217-14.443h.158l-1.812 14.761 6.844-.159-.02.159h-6.67zM664.964 289.493h-19.681l.02-.159h3.176l3.312-26.982c.623-5.079.224-6.983-2-6.983-2.381 0-4.953 2.857-6.393 6.825l-3.333 27.141h3.174l-.021.159h-19.681l.021-.159h5.555l6.1-49.678h-5.555l.02-.159h16.508l-2.708 22.062c2.051-5.079 5.34-7.301 9.147-7.301 7.777 0 10.409 5.713 9.553 12.697l-2.748 22.379 5.534.158zM704.644 289.493h-16.824l.02-.159h3.017l3.625-29.521c.271-2.222.247-4.603-1.975-4.603-2.541 0-5.369 3.65-6.395 6.825l-3.353 27.299h2.698l-.02.159h-18.569l.021-.159h4.761l4.189-34.124h-4.762l.021-.159h15.87l-.778 6.349c2.053-5.079 5.5-7.301 9.149-7.301 5.716 0 8.2 3.016 9.104 7.301 2.052-5.079 5.975-7.301 9.625-7.301 7.776 0 10.409 5.714 9.552 12.697l-2.768 22.538h4.762l-.021.159h-18.888l.021-.159h3.016l3.312-26.982c.623-5.079.381-6.983-2-6.983-2.855 0-5.646 3.333-6.83 6.507.281 1.587.385 3.333.171 5.079l-2.748 22.379 2.997.159zM734.558 278.542c3.174 0 5.4 2.54 5.013 5.714-.391 3.174-3.262 5.873-6.437 5.873-3.174 0-5.561-2.54-5.151-5.873.39-3.174 3.4-5.714 6.575-5.714zM124.397 372.026h-38.727l.02-.158h6.031l5.885-47.934h-6.031l.02-.158h36.188l-2.144 17.459h-.159s-.098-17.301-14.065-17.301h-2.38l-2.845 23.173h.793c8.729 0 11.244-11.429 11.244-11.429h.159l-2.806 22.855h-.159s.272-11.27-8.457-11.27h-.793l-3.021 24.603h2.38c17.142 0 20.87-18.729 20.87-18.729h.159l-2.319 18.889h.157zM166.698 337.743h-5.555l-15.456 35.395-10.415-35.395h-5.396l.02-.158h22.062l-.02.158h-4.444l5.556 18.094 7.935-18.094h-5.555l.02-.158 11.248.158zM174.137 354.727l-.234 1.904c-1.169 9.523-1.395 15.237 5.588 15.237 6.349 0 11.18-4.444 13.842-11.904h.159c-2.74 8.095-8.105 13.015-16.676 13.015-8.729 0-15.474-8.411-14.285-18.094 1.188-9.682 9.999-18.094 18.728-18.094 8.888 0 14.858 8.254 13.65 18.094h-20.792l.02-.158zm.564-4.604l-.565 4.604h8.888c1.89-15.396 1.547-17.775-1.944-17.775-4.443-.002-5.404 5.236-6.379 13.171zM192.963 372.026l5.574-.158 4.19-34.125h-5.555l.02-.158h16.506l-.351 2.856c1.682-2.063 3.781-3.65 7.114-3.65 2.54 0 6.014 1.429 6.639 5.396.2.951.123 1.587.064 2.062-.409 3.333-2.843 6.349-6.652 6.349-3.174 0-5.561-2.539-5.151-5.873.39-3.174 3.261-5.872 6.594-5.872 2.698 0 4.687 1.904 5.029 4.285.053-3.016-2.236-6.349-6.521-6.349-3.333 0-5.432 1.587-7.134 3.81l-3.839 31.269h5.555l-.02.158h-22.062zM223.896 382.502l.017-1.429c.409-3.333 3.419-5.872 6.752-5.872 3.174 0 5.561 2.539 5.151 5.872-.409 3.333-3.438 6.031-6.613 6.031-2.38 0-4.269-1.43-4.987-3.333.521 2.222 1.935 4.92 6.538 4.92 5.396 0 8.067-3.65 10.614-8.889l2.962-6.03-10.813-36.029h-5.555l.02-.158h22.22l-.02.158h-4.444l6.096 20.157 9.458-20.157h-5.555l.02-.158h11.269l-.02.158h-5.555l-19.766 42.061c-2.765 5.714-5.713 9.047-10.951 9.047-5.871 0-6.774-4.286-6.838-6.349zM285.26 337.743l-3.625 29.521c-.234 1.905.384 3.333 1.972 3.333 2.222 0 2.851-2.539 3.124-4.761l.936-7.619h.159l-.955 7.777c-.487 3.968-2.406 6.666-7.326 6.666-6.667 0-9.156-4.285-8.357-10.793l2.981-24.283h-5.396l.02-.159h1.746c8.095 0 15.067-5.079 16.217-14.442h.159l-1.812 14.761 6.844-.158-.02.158h-6.667v-.001zM329.618 372.026h-19.681l.02-.158h3.174l3.313-26.982c.624-5.079.223-6.982-2-6.982-2.381 0-4.953 2.855-6.393 6.823l-3.333 27.143h3.174l-.02.158h-19.681l.02-.158h5.555l6.12-49.838h-5.555l.019-.158h16.506l-2.708 22.062c2.052-5.078 5.34-7.301 9.15-7.301 7.777 0 10.409 5.714 9.551 12.697l-2.768 22.538 5.537.156zM331.523 372.026l5.575-.158 4.19-34.125h-5.555l.02-.158h16.507l-4.209 34.283h5.555l-.02.158h-22.063zm17.619-53.011c3.333 0 5.561 2.54 5.151 5.873-.41 3.333-3.241 5.714-6.574 5.714s-5.402-2.54-5.012-5.714c.39-3.175 3.102-5.873 6.435-5.873zM396.915 372.026h-19.682l.02-.158h3.175l3.313-26.982c.624-5.079.223-6.982-2-6.982-2.38 0-4.953 2.855-6.393 6.823l-3.333 27.143h3.174l-.02.158h-19.681l.02-.158h5.555l4.19-34.125h-5.555l.02-.158h16.507l-.779 6.349c2.052-5.078 5.341-7.301 9.149-7.301 7.778 0 10.409 5.714 9.551 12.697l-2.769 22.538 5.538.156zM407.098 356.312c-1.328.477-2.994 1.111-3.209 2.856-.098.794.32 1.271 1.215 1.746 1.19.635 4.309 1.111 10.459 1.429 13.233.794 16.42 5.872 15.522 13.174-.955 7.776-8.798 13.49-18.639 13.49-11.586 0-16.715-4.761-16.131-9.521.564-4.604 4.508-6.983 9.188-7.618-3.673-1.111-6.415-3.334-5.831-8.095.311-3.809 3.142-6.19 7.426-7.461-2.604-2.062-3.82-5.078-3.412-8.411.76-6.19 6.92-11.11 14.854-11.11 5.396 0 9.409 2.223 11.203 5.714 1.13-.158 7.951-1.429 8.711-7.618.566-4.603-1.918-6.349-4.042-7.143 1.769 1.111 2.962 3.016 2.671 5.396-.391 3.176-3.42 5.873-6.753 5.873s-5.541-2.697-5.15-5.873c.409-3.333 3.278-6.03 6.612-6.03.158 0 1.111 0 1.408.158 2.006.477 6.135 1.745 5.414 7.618-.74 6.031-7.424 7.46-8.891 7.777.758 1.587 1.178 3.333.942 5.237-.76 6.189-6.92 11.109-14.854 11.109-3.649.003-6.528-1.109-8.713-2.697zm-1.136 15.714c-1.861.951-4.041 3.175-4.527 7.143-.584 4.762 3.415 9.682 10.716 9.682 6.666 0 12.115-3.016 12.7-7.776.506-4.127-1.8-6.031-9.58-7.301-2.482-.478-6.074-.954-9.309-1.748zm16.136-24.125c1.148-9.364-1.037-10.951-3.576-10.951s-5.114 1.587-6.265 10.951c-1.149 9.363 1.035 10.95 3.574 10.95s5.116-1.585 6.267-10.95zM473.504 322.189h-5.555l.02-.159h16.509l-6.12 49.838h5.555l-.02.158h-16.508l.779-6.35c-2.051 5.079-5.34 7.301-9.147 7.301-6.666 0-12.396-7.617-11.111-18.094 1.287-10.476 8.889-18.094 15.555-18.094 3.81 0 6.571 2.062 7.355 7.301l2.688-21.901zm-2.748 22.379c-.465-3.969-2.336-6.825-4.717-6.825-3.174 0-4.693 3.333-5.922 13.333l-.936 7.618c-1.229 9.999-.526 13.332 2.647 13.332 2.381 0 4.953-2.856 6.394-6.825l2.534-20.633zM490.26 344.727c.946-2.539 3.541-4.284 6.24-4.284 3.174 0 5.562 2.54 5.151 5.873s-3.261 5.871-6.595 5.871c-3.81 0-5.502-3.016-5.093-6.349.06-.476.138-1.111.57-2.062 2.509-4.92 8.635-6.983 12.604-6.983 10.155 0 15.426 4.92 14.549 12.062l-2.242 18.254c-.35 2.855.446 4.126 2.033 4.126.635 0 1.289-.158 1.646-.477 1.049-.794 1.402-2.381 1.602-2.698h.157c-.786 2.539-2.687 5.079-6.812 5.079-5.713 0-9.393-3.649-9.381-7.619-.669 2.857-3.316 7.619-10.617 7.619-5.715 0-8.896-3.81-8.293-8.729.682-5.557 5.377-8.89 10.098-9.841 3.568-.636 4.006-.317 5.97-.794 1.646-.477 3.092-1.904 4.556-3.491l.877-7.144c.507-4.126-1.183-5.872-4.993-5.872-4.902-.16-10.51 2.856-12.027 7.459zm16.141 5.555c-1.684 2.062-2.891 2.855-4.416 3.649-2.2 1.111-4.18 3.017-4.589 6.35l-.761 6.189c-.409 3.333-.325 5.237 1.737 5.237 3.175 0 5.903-4.127 6.196-6.508l1.833-14.917zM562.774 372.026h-19.682l.021-.158h3.174l3.312-26.982c.624-5.079.223-6.982-1.998-6.982-2.381 0-4.955 2.855-6.396 6.823l-3.332 27.143h3.175l-.02.158h-19.682l.021-.158h5.555l4.189-34.125h-5.555l.02-.158h16.506l-.778 6.349c2.053-5.078 5.342-7.301 9.149-7.301 7.777 0 10.408 5.714 9.551 12.697l-2.768 22.538 5.538.156zM576.922 355.044c-.682 5.555-1.906 16.824 5.87 16.824 6.19 0 10.147-5.079 11.458-13.174h.158c-1.33 8.253-5.404 14.283-14.451 14.283-8.887 0-16.026-7.776-14.76-18.094 1.168-9.521 9.363-18.094 19.838-18.094 6.35 0 9.153 3.016 9.936 6.983.201.951.123 1.588.064 2.062-.409 3.333-2.844 6.349-6.652 6.349-3.174 0-5.561-2.538-5.15-5.872.41-3.332 3.261-5.872 6.595-5.872 2.539 0 4.687 1.904 5.027 4.284-.363-3.49-2.556-7.617-8.746-7.617-6.349.002-7.959 7.939-9.187 17.938zM608.387 354.727l-.232 1.904c-1.169 9.523-1.396 15.237 5.589 15.237 6.349 0 11.18-4.444 13.842-11.904h.159c-2.74 8.095-8.105 13.015-16.677 13.015-8.729 0-15.475-8.411-14.285-18.094 1.189-9.682 10-18.094 18.729-18.094 8.889 0 14.856 8.254 13.649 18.094h-20.793l.019-.158zm.565-4.604l-.565 4.604h8.89c1.891-15.396 1.549-17.775-1.943-17.775-4.287-.002-5.407 5.236-6.382 13.171zM634.252 370.28c-1.428 0-2.992 1.11-3.602 3.492h-.16l2.145-17.46h.158c-.602 6.189 3.511 16.665 10.97 16.665 3.016 0 5.153-1.903 5.544-5.078 1.013-8.253-17.674-7.302-16.057-20.476.624-5.078 5.592-10.634 11.781-10.634 3.492 0 6.354 2.54 9.053 2.54.952 0 1.665-.636 1.898-2.54h.158l-1.695 13.809h-.158c.131-3.649-2.291-13.648-9.275-13.648-3.174 0-5.688 2.381-6.02 5.079-.916 7.459 18.545 6.666 16.908 19.998-.761 6.188-5.947 10.95-12.297 10.95-3.988.161-6.017-2.697-9.351-2.697zM665.539 361.075c3.175 0 5.402 2.539 5.012 5.714-.389 3.174-3.26 5.872-6.434 5.872s-5.561-2.539-5.152-5.872c.39-3.175 3.241-5.714 6.574-5.714z"/></g><path fill="#333" d="M0 139.823c0-13.967 9.682-35.87 34.918-48.567l3.333 5.396c-17.3 12.062-21.903 27.141-22.221 34.283 6.508.793 12.856 6.983 12.856 13.65 0 7.777-6.667 13.649-13.65 13.649-8.253.159-15.236-6.349-15.236-18.411zm45.234 0c0-13.967 9.523-35.87 34.759-48.567l3.333 5.396c-17.3 12.062-21.903 27.141-22.22 34.283 6.507.793 12.856 6.983 12.856 13.65 0 7.777-6.666 13.649-13.65 13.649-8.094.159-15.078-6.349-15.078-18.411z"/></svg>