<svg xmlns="http://www.w3.org/2000/svg" width="792" height="612"><g fill="#fff"><path d="M108.095 446.284c-.299 1.497-1.198 2.695-2.545 2.695-1.797 0-2.695-2.546-4.192-2.546-.749 0-1.497.6-1.647 1.946l-.898-.897c.149-1.348 1.048-2.546 2.396-2.546 1.796 0 2.994 2.546 4.192 2.546.898 0 1.348-.749 1.647-1.946l1.047.748zM134.595 439.248l-6.887 9.881h-.449l-6.887-9.881v16.469h-1.946v-19.613h1.796l7.037 10.33 7.187-10.33h1.797v19.613h-1.947v-16.469h.299zM149.866 455.717v-1.647c-.898.898-2.396 1.946-4.641 1.946-2.995 0-4.791-1.796-4.791-4.641 0-3.743 2.994-5.24 6.887-5.24.898 0 1.797.149 2.545.299v-.748c0-2.545-1.348-3.743-3.593-3.743-1.497 0-2.994.3-4.192 1.048l-.449-1.646c1.347-.599 3.293-1.048 4.791-1.048 3.293 0 5.24 1.946 5.24 5.39v9.881h-1.796v.149zm-4.042-1.348c1.946 0 3.294-1.048 4.042-1.946v-4.642c-.599-.149-1.647-.299-2.545-.299-2.844 0-5.09 1.048-5.09 3.742.149 1.947 1.497 3.145 3.593 3.145zM156.304 455.717v-15.122h1.946v2.695c.749-1.946 1.796-2.994 3.593-2.994.898 0 1.797.299 2.396.898l-.449 1.646c-.599-.449-1.348-.749-2.096-.749-1.797 0-2.845 1.498-3.443 3.743v9.731h-1.946v.152zM170.228 451.524c0 1.946.749 2.695 2.396 2.695 1.048 0 2.246-.449 2.994-1.198l.599 1.497c-1.048.749-2.396 1.348-4.042 1.348-2.246 0-3.743-1.198-3.743-4.192v-9.582h-2.545v-1.497h2.545l.149-3.893h1.498v3.893h5.24v1.497h-5.24v9.433h.149zM189.242 455.717v-9.133c0-2.845-1.198-4.492-3.893-4.492-2.246 0-3.743 1.647-4.342 3.594v10.031h-1.797v-20.512h1.797v7.936c.898-1.797 2.695-2.845 4.94-2.845 3.443 0 5.09 2.096 5.09 5.839v9.432h-1.796v.15zM204.213 455.717v-1.647c-.898.898-2.396 1.946-4.642 1.946-2.994 0-4.791-1.796-4.791-4.641 0-3.743 2.994-5.24 6.887-5.24.898 0 1.797.149 2.545.299v-.748c0-2.545-1.348-3.743-3.593-3.743-1.497 0-2.995.3-4.192 1.048l-.449-1.646c1.347-.599 3.293-1.048 4.791-1.048 3.294 0 5.24 1.946 5.24 5.39v9.881h-1.796v.149zm-4.042-1.348c1.946 0 3.294-1.048 4.042-1.946v-4.642c-.599-.149-1.647-.299-2.545-.299-2.845 0-5.09 1.048-5.09 3.742 0 1.947 1.497 3.145 3.593 3.145zM230.114 439.847c-1.497-1.497-3.144-2.246-5.24-2.246-4.042 0-7.187 2.994-7.187 8.384 0 5.24 3.144 8.235 7.037 8.235 1.946 0 3.893-.749 5.09-1.647v-5.539h-5.839v-1.647h7.636v8.234c-1.497 1.348-4.342 2.396-6.887 2.396-4.941 0-8.833-3.742-8.833-10.031 0-6.438 3.893-10.181 8.833-10.181 2.695 0 4.641.898 6.288 2.695l-.898 1.347zM235.803 455.717v-15.122h1.946v2.695c.749-1.946 1.797-2.994 3.593-2.994.898 0 1.797.299 2.396.898l-.449 1.646c-.599-.449-1.347-.749-2.096-.749-1.797 0-2.845 1.498-3.444 3.743v9.731h-1.946v.152zM254.817 455.717v-1.647c-.898.898-2.396 1.946-4.641 1.946-2.995 0-4.791-1.796-4.791-4.641 0-3.743 2.994-5.24 6.887-5.24.898 0 1.796.149 2.545.299v-.748c0-2.545-1.348-3.743-3.593-3.743-1.497 0-2.994.3-4.192 1.048l-.449-1.646c1.348-.599 3.294-1.048 4.791-1.048 3.293 0 5.24 1.946 5.24 5.39v9.881h-1.796v.149zm-4.042-1.348c1.946 0 3.294-1.048 4.042-1.946v-4.642c-.599-.149-1.647-.299-2.545-.299-2.845 0-5.091 1.048-5.091 3.742.151 1.947 1.648 3.145 3.594 3.145zM271.436 455.717v-9.133c0-2.845-1.198-4.492-3.893-4.492-2.246 0-3.743 1.647-4.342 3.594v10.031h-1.797v-20.512h1.797v7.936c.898-1.797 2.695-2.845 4.94-2.845 3.443 0 5.09 2.096 5.09 5.839v9.432h-1.796v.15zM286.258 455.717v-1.647c-.898.898-2.396 1.946-4.641 1.946-2.995 0-4.791-1.796-4.791-4.641 0-3.743 2.994-5.24 6.887-5.24.898 0 1.796.149 2.545.299v-.748c0-2.545-1.348-3.743-3.593-3.743-1.497 0-2.994.3-4.192 1.048l-.449-1.646c1.348-.599 3.294-1.048 4.791-1.048 3.293 0 5.24 1.946 5.24 5.39v9.881h-1.797v.149zm-4.043-1.348c1.946 0 3.294-1.048 4.042-1.946v-4.642c-.599-.149-1.647-.299-2.545-.299-2.845 0-5.091 1.048-5.091 3.742.151 1.947 1.499 3.145 3.594 3.145zM311.859 455.717v-9.283c0-2.844-1.048-4.191-3.743-4.191-2.096 0-3.144 1.348-3.743 3.294v10.181000000000001h-1.946v-9.283c0-2.844-1.348-4.191-3.593-4.191s-3.593 1.497-4.192 3.443v10.181h-1.797v-15.121h1.797v2.396c.898-1.797 2.396-2.695 4.791-2.695 2.395 0 3.893 1.048 4.491 2.994.898-1.946 2.396-2.994 4.641-2.994 3.593 0 5.09 1.946 5.09 5.689v9.582h-1.796v-.002z"/></g><path fill="#333" d="M712.052 377.864c16.318-11.379 20.66-25.452 20.96-32.339-6.139-.749-12.127-6.588-12.127-12.876 0-7.336 6.288-12.876 12.876-12.876 7.785 0 14.372 6.139 14.372 17.518 0 13.175-8.982 33.836-32.787 45.663l-3.294-5.09zm42.519 0c16.318-11.379 20.66-25.452 20.96-32.339-6.139-.749-12.127-6.588-12.127-12.876 0-7.336 6.288-12.876 12.875-12.876 7.786 0 14.373 6.139 14.373 17.518 0 13.175-8.982 33.836-32.788 45.663l-3.293-5.09z"/><path fill="#333" d="M0 196.707c0-13.025 8.983-33.686 32.788-45.664l3.144 5.09c-16.319 11.378-20.661 25.452-20.96 32.339 6.138.749 12.127 6.587 12.127 12.875 0 7.336-6.288 12.875-12.875 12.875-7.637.002-14.224-6.137-14.224-17.515zm42.52 0c0-13.175 8.983-33.836 32.788-45.664l3.144 5.09c-16.319 11.378-20.661 25.452-20.96 32.339 6.138.749 12.127 6.587 12.127 12.875 0 7.336-6.288 12.875-12.875 12.875-7.637.002-14.224-6.137-14.224-17.515z"/><g fill="#fff"><path d="M122.825 261.24h-21.196l.017-.134h5.94l5.767-46.971h-5.94l.017-.135h21.196c12.354 0 24.389 8.638 22.55 23.62-1.841 14.982-15.997 23.62-28.351 23.62zm5.783-47.105h-3.915l-5.767 46.971h3.915c12.219 0 15.329-8.841 17.128-23.486 1.799-14.644.858-23.485-11.361-23.485zM156.415 234.449c.974-2.43 3.56-4.252 6.058-4.252 3.173 0 5.423 2.564 5.033 5.736-.39 3.172-3.269 5.736-6.441 5.736-3.78 0-5.374-2.97-4.977-6.209.059-.472.1-1.08.587-2.024 2.414-4.825 8.528-6.783 12.343-6.783 9.99 0 15.102 4.826 14.231 11.912l-2.188 17.816c-.34 2.768.456 3.982 2.076 3.982.675 0 1.231-.135 1.687-.54.978-.81 1.429-2.294 1.546-2.699h.135c-.778 2.497-2.569 4.994-6.688 4.994-5.67 0-9.282-3.577-9.215-7.424-.609 2.768-3.273 7.424-10.361 7.424-5.671 0-8.658-3.711-8.062-8.57.663-5.399 5.263-8.774 9.894-9.651 3.457-.674 3.876-.235 5.833-.775 1.67-.405 3.059-1.822 4.405-3.442l.854-6.951c.497-4.049-1.152-5.736-4.933-5.736-4.758-.002-10.253 2.968-11.817 7.456zm15.867 5.466c-1.665 2.024-2.845 2.834-4.362 3.644-2.233 1.148-4.077 2.97-4.476 6.209l-.737 6.006c-.406 3.307-.292 5.129 1.665 5.129 3.038 0 5.822-3.982 6.12-6.412l1.79-14.576zM225.957 261.24h-19.307l.017-.134h3.105l3.265-26.59c.613-4.994.237-6.883-1.99-6.883-2.363 0-4.803 2.834-6.221 6.681l-3.289 26.792h3.105l-.017.134h-19.307l.017-.134h5.4l4.109-33.474h-5.4l.017-.135h16.201l-.762 6.209c2.031-4.994 5.258-7.086 8.971-7.086 7.695 0 10.247 5.601 9.411 12.417l-2.71 22.069h5.4l-.015.134zM240.021 244.504c-.671 5.467-1.896 16.534 5.733 16.534 6.143 0 9.988-4.926 11.312-12.958h.135c-1.332 8.098-5.368 14.037-14.211 14.037-8.742 0-15.738-7.626-14.495-17.749 1.152-9.381 9.233-17.749 19.394-17.749 6.21 0 8.912 3.003 9.693 6.816.188.945.147 1.552.089 2.024-.397 3.239-2.72 6.209-6.5 6.209-3.173 0-5.424-2.564-5.034-5.736.39-3.172 3.27-5.736 6.442-5.736 2.498 0 4.604 1.822 4.979 4.252-.29-3.408-2.552-7.525-8.56-7.525-6.144 0-7.776 7.795-8.977 17.581zM254.904 261.24l.017-.134h5.4l4.109-33.474h-5.4l.017-.135h16.201l-4.126 33.609h5.4l-.017.134h-21.601zm17.198-52.099c3.24 0 5.431 2.497 5.033 5.736-.397 3.239-3.193 5.668-6.434 5.668s-5.372-2.429-4.975-5.668c.398-3.239 3.135-5.736 6.376-5.736zM317.139 261.24h-19.307l.017-.134h3.105l3.265-26.59c.613-4.994.237-6.883-1.99-6.883-2.363 0-4.803 2.834-6.221 6.681l-3.289 26.792h3.105l-.017.134h-19.307l.017-.134h5.4l4.109-33.474h-5.4l.017-.135h16.201l-.762 6.209c2.031-4.994 5.258-7.086 8.971-7.086 7.695 0 10.247 5.601 9.411 12.417l-2.71 22.069h5.4l-.015.134zM326.995 245.786c-1.332.405-2.976 1.146-3.175 2.768-.091.741.243 1.315 1.134 1.754 1.209.606 4.192 1.045 10.289 1.417 12.935.776 16.173 5.736 15.295 12.89-.929 7.558-8.704 13.16-18.29 13.16-11.375 0-16.44-4.656-15.868-9.313.563-4.589 4.423-6.884 8.944-7.423-3.571-1.148-6.344-3.308-5.771-7.964.455-3.711 3.242-6.074 7.315-7.356-2.451-2.025-3.647-4.926-3.241-8.233.745-6.074 6.802-10.865 14.564-10.865 5.266 0 9.178 2.227 10.932 5.534 1.104-.202 7.869-1.417 8.606-7.423.547-4.455-1.93-6.276-3.998-7.019 1.766 1.012 2.875 2.969 2.594 5.264-.39 3.172-3.346 5.804-6.586 5.804s-5.482-2.632-5.093-5.804c.397-3.239 3.286-5.872 6.526-5.872.202 0 1.005.068 1.334.135 2.042.405 6.062 1.755 5.357 7.491-.729 5.939-7.24 7.289-8.69 7.559.822 1.552 1.146 3.307.915 5.196-.746 6.073-6.811 10.933-14.574 10.933-3.509-.001-6.423-1.013-8.519-2.633zm-1.012 15.386c-1.812 1.013-3.899 3.173-4.364 6.952-.58 4.723 3.423 9.515 10.511 9.515 6.615 0 11.907-2.97 12.479-7.626.497-4.049-1.777-5.871-9.446-7.188-2.578-.437-6.115-.775-9.18-1.653zm15.735-23.687c1.135-9.246-.978-10.73-3.543-10.73-2.564 0-5.043 1.485-6.178 10.73-1.136 9.246.97 10.798 3.534 10.798 2.566 0 5.051-1.552 6.187-10.798zM361.137 261.24l.017-.134h5.4l4.109-33.474h-5.4l.017-.135h16.201l-4.126 33.609h5.4l-.017.134h-21.601zm17.197-52.099c3.24 0 5.431 2.497 5.033 5.736-.397 3.239-3.193 5.668-6.434 5.668s-5.372-2.429-4.975-5.668c.398-3.239 3.136-5.736 6.376-5.736zM387.741 259.486c-1.418 0-2.977 1.147-3.595 3.442h-.135l2.104-17.142h.135c-.535 6.007 3.463 16.332 10.82 16.332 2.97 0 5.093-1.889 5.474-4.994 1.003-8.167-17.272-7.221-15.689-20.111.613-4.994 5.462-10.393 11.537-10.393 3.375 0 6.309 2.497 8.941 2.497.878 0 1.627-.607 1.859-2.497h.135l-1.658 13.497h-.135c.179-3.644-2.206-13.362-9.159-13.362-3.038 0-5.548 2.295-5.888 5.062-.903 7.356 18.226 6.614 16.626 19.638-.754 6.141-5.782 10.798-12.06 10.798-4.115-.001-6.004-2.767-9.312-2.767zM437.144 227.632l-3.562 29.019c-.232 1.89.337 3.307 1.956 3.307 2.16 0 2.839-2.497 3.104-4.656l.92-7.491h.169l-.944 7.693c-.48 3.914-2.365 6.613-7.158 6.613-6.48 0-8.996-4.251-8.209-10.663l2.925-23.822h-5.333l.017-.135h1.756c7.897 0 14.865-5.062 15.976-14.104h.135l-1.732 14.104h6.683l-.017.135h-6.686zM480.334 261.24h-19.307l.017-.134h3.105l3.265-26.59c.613-4.994.237-6.883-1.99-6.883-2.363 0-4.803 2.834-6.221 6.681l-3.289 26.792h3.105l-.017.134h-19.307l.017-.134h5.4l5.999-48.861h-5.4l.017-.135h16.201l-2.651 21.596c2.03-4.994 5.257-7.086 8.97-7.086 7.695 0 10.248 5.601 9.411 12.417l-2.709 22.069h5.4l-.016.134zM494.422 244.301l-.231 1.89c-1.144 9.313-1.422 14.88 5.531 14.88 6.277 0 10.964-4.353 13.521-11.709h.135c-2.758 7.896-7.979 12.755-16.417 12.755-8.573 0-15.249-8.301-14.089-17.749 1.16-9.449 9.875-17.749 18.447-17.749 8.775 0 14.532 8.098 13.355 17.681h-20.252zm.563-4.588l-.547 4.454h8.775c1.856-15.117 1.531-17.412-1.911-17.412-4.387 0-5.355 5.129-6.317 12.958zM561.865 261.24h-19.307l.017-.134h3.105l3.265-26.59c.613-4.994.237-6.883-1.99-6.883-2.363 0-4.803 2.834-6.221 6.681l-3.289 26.792h3.105l-.017.134h-19.307l.017-.134h5.4l5.999-48.861h-5.4l.017-.135h16.201l-2.651 21.596c2.03-4.994 5.257-7.086 8.97-7.086 7.695 0 10.248 5.601 9.411 12.417l-2.709 22.069h5.4l-.016.134zM561.858 261.24l.017-.134h5.4l4.109-33.474h-5.4l.017-.135h16.201l-4.126 33.609h5.4l-.017.134h-21.601zm17.198-52.099c3.24 0 5.432 2.497 5.034 5.736-.397 3.239-3.194 5.668-6.435 5.668s-5.372-2.429-4.975-5.668c.398-3.239 3.135-5.736 6.376-5.736zM611.072 212.245h-5.4l.017-.135h16.201l-6.016 48.996h5.4l-.017.134h-16.201l.762-6.208c-2.031 4.994-5.258 7.085-8.971 7.085-6.48 0-12.108-7.491-10.849-17.749s8.728-17.749 15.208-17.749c3.713 0 6.425 2.092 7.23 7.086l2.636-21.46zm-2.71 22.068c-.473-3.847-2.218-6.681-4.58-6.681-3.173 0-4.65 3.24-5.852 13.024l-.912 7.424c-1.201 9.786-.519 13.025 2.654 13.025 2.362 0 4.803-2.834 6.221-6.682l2.469-20.11zM648.868 212.245h-5.4l.017-.135h16.201l-6.016 48.996h5.4l-.017.134h-16.201l.762-6.208c-2.031 4.994-5.258 7.085-8.971 7.085-6.48 0-12.108-7.491-10.849-17.749s8.727-17.749 15.207-17.749c3.713 0 6.426 2.092 7.231 7.086l2.636-21.46zm-2.71 22.068c-.473-3.847-2.218-6.681-4.58-6.681-3.173 0-4.65 3.24-5.852 13.024l-.912 7.424c-1.201 9.786-.519 13.025 2.654 13.025 2.362 0 4.803-2.834 6.221-6.682l2.469-20.11zM673.141 244.301l-.231 1.89c-1.144 9.313-1.422 14.88 5.531 14.88 6.277 0 10.964-4.353 13.521-11.709h.135c-2.758 7.896-7.979 12.755-16.417 12.755-8.573 0-15.249-8.301-14.089-17.749 1.16-9.449 9.875-17.749 18.447-17.749 8.775 0 14.532 8.098 13.355 17.681h-20.252zm.563-4.588l-.547 4.454h8.775c1.856-15.117 1.531-17.412-1.911-17.412-4.387 0-5.355 5.129-6.317 12.958zM732.147 261.24h-19.307l.017-.134h3.105l3.265-26.59c.613-4.994.237-6.883-1.99-6.883-2.362 0-4.803 2.834-6.221 6.681l-3.289 26.792h3.105l-.017.134h-19.305l.017-.134h5.4l4.109-33.474h-5.4l.017-.135h16.201l-.762 6.209c2.029-4.994 5.258-7.086 8.971-7.086 7.695 0 10.247 5.601 9.41 12.417l-2.709 22.069h5.4l-.017.134zM92.231 336.674l.017-.135h5.4l6-48.86h-5.4l.017-.135h16.201l-6.017 48.995h5.4l-.017.135h-21.601zM119.819 309.882c.974-2.43 3.56-4.251 6.058-4.251 3.173 0 5.422 2.563 5.032 5.736-.389 3.171-3.269 5.736-6.441 5.736-3.78 0-5.373-2.971-4.976-6.21.058-.472.1-1.079.586-2.023 2.415-4.826 8.528-6.783 12.343-6.783 9.99 0 15.102 4.825 14.231 11.912l-2.188 17.816c-.34 2.767.457 3.981 2.077 3.981.675 0 1.231-.135 1.687-.54.978-.811 1.429-2.294 1.546-2.699h.135c-.778 2.497-2.57 4.993-6.688 4.993-5.67 0-9.281-3.576-9.214-7.424-.609 2.768-3.274 7.424-10.362 7.424-5.671 0-8.657-3.711-8.061-8.57.663-5.398 5.263-8.773 9.893-9.65 3.458-.675 3.877-.236 5.834-.776 1.67-.404 3.059-1.822 4.404-3.441l.854-6.952c.497-4.048-1.152-5.735-4.933-5.735-4.758-.001-10.254 2.969-11.817 7.456zm15.868 5.467c-1.666 2.024-2.846 2.834-4.362 3.644-2.234 1.147-4.078 2.97-4.476 6.209l-.737 6.006c-.406 3.308-.292 5.13 1.665 5.13 3.038 0 5.822-3.982 6.12-6.412l1.79-14.577zM189.36 336.674h-19.307l.017-.135h3.105l3.266-26.589c.613-4.995.237-6.884-1.99-6.884-2.363 0-4.803 2.834-6.221 6.681l-3.29 26.792h3.105l-.017.135h-19.307l.017-.135h5.4l4.11-33.473h-5.4l.017-.136h16.201l-.763 6.209c2.031-4.994 5.258-7.087 8.971-7.087 7.695 0 10.248 5.602 9.411 12.418l-2.71 22.068h5.4l-.015.136zM199.218 321.22c-1.332.405-2.977 1.146-3.175 2.768-.092.741.242 1.315 1.134 1.754 1.209.607 4.192 1.046 10.289 1.417 12.934.776 16.173 5.736 15.294 12.89-.928 7.559-8.703 13.16-18.289 13.16-11.375 0-16.44-4.656-15.868-9.312.563-4.59 4.423-6.884 8.944-7.424-3.572-1.147-6.344-3.308-5.772-7.964.456-3.712 3.243-6.073 7.316-7.355-2.451-2.025-3.648-4.927-3.242-8.233.746-6.073 6.802-10.866 14.564-10.866 5.266 0 9.178 2.228 10.933 5.535 1.104-.203 7.869-1.418 8.606-7.424.547-4.454-1.93-6.276-3.999-7.019 1.766 1.012 2.876 2.969 2.595 5.264-.39 3.172-3.346 5.804-6.586 5.804s-5.482-2.632-5.093-5.804c.397-3.239 3.286-5.872 6.526-5.872.202 0 1.004.068 1.334.136 2.042.404 6.062 1.754 5.357 7.491-.729 5.938-7.24 7.288-8.69 7.559.821 1.552 1.146 3.307.914 5.196-.745 6.073-6.81 10.933-14.573 10.933-3.509-.002-6.424-1.014-8.519-2.634zm-1.012 15.386c-1.812 1.013-3.9 3.172-4.364 6.951-.58 4.724 3.423 9.516 10.511 9.516 6.615 0 11.907-2.97 12.479-7.626.497-4.049-1.776-5.871-9.445-7.188-2.58-.438-6.116-.776-9.181-1.653zm15.733-23.687c1.136-9.246-.978-10.73-3.543-10.73-2.564 0-5.042 1.484-6.178 10.73-1.135 9.246.971 10.798 3.535 10.798 2.566 0 5.052-1.552 6.186-10.798zM228.054 302.931h16.201l-3.281 26.725c-.613 4.994-.238 6.884 1.989 6.884 2.363 0 4.805-2.834 6.221-6.681l3.29-26.792h-3.104l.017-.136h13.905l-4.127 33.608h5.4l-.017.135h-16.201l.763-6.208c-2.03 4.993-5.258 7.085-8.971 7.085-7.695 0-10.248-5.602-9.411-12.417l2.71-22.067h-5.4l.016-.136zM270.868 309.882c.975-2.43 3.561-4.251 6.059-4.251 3.173 0 5.422 2.563 5.032 5.736-.389 3.171-3.269 5.736-6.441 5.736-3.78 0-5.373-2.971-4.976-6.21.058-.472.1-1.079.586-2.023 2.415-4.826 8.528-6.783 12.343-6.783 9.99 0 15.102 4.825 14.231 11.912l-2.188 17.816c-.34 2.767.457 3.981 2.077 3.981.675 0 1.231-.135 1.687-.54.977-.811 1.429-2.294 1.546-2.699h.135c-.779 2.497-2.57 4.993-6.688 4.993-5.67 0-9.281-3.576-9.214-7.424-.609 2.768-3.274 7.424-10.362 7.424-5.671 0-8.657-3.711-8.061-8.57.663-5.398 5.263-8.773 9.893-9.65 3.458-.675 3.877-.236 5.834-.776 1.67-.404 3.059-1.822 4.404-3.441l.854-6.952c.497-4.048-1.152-5.735-4.933-5.735-4.758-.001-10.254 2.969-11.818 7.456zm15.868 5.467c-1.667 2.024-2.847 2.834-4.362 3.644-2.234 1.147-4.078 2.97-4.476 6.209l-.737 6.006c-.406 3.308-.292 5.13 1.665 5.13 3.038 0 5.822-3.982 6.12-6.412l1.79-14.577zM310.312 321.22c-1.332.405-2.977 1.146-3.175 2.768-.092.741.242 1.315 1.134 1.754 1.209.607 4.192 1.046 10.289 1.417 12.934.776 16.173 5.736 15.294 12.89-.928 7.559-8.703 13.16-18.289 13.16-11.375 0-16.44-4.656-15.868-9.312.563-4.59 4.423-6.884 8.944-7.424-3.572-1.147-6.344-3.308-5.772-7.964.456-3.712 3.243-6.073 7.316-7.355-2.451-2.025-3.648-4.927-3.242-8.233.746-6.073 6.802-10.866 14.564-10.866 5.266 0 9.178 2.228 10.933 5.535 1.104-.203 7.869-1.418 8.606-7.424.547-4.454-1.93-6.276-3.999-7.019 1.766 1.012 2.876 2.969 2.595 5.264-.39 3.172-3.346 5.804-6.586 5.804s-5.482-2.632-5.093-5.804c.397-3.239 3.286-5.872 6.526-5.872.202 0 1.004.068 1.334.136 2.042.404 6.062 1.754 5.357 7.491-.729 5.938-7.24 7.288-8.69 7.559.821 1.552 1.146 3.307.914 5.196-.745 6.073-6.81 10.933-14.573 10.933-3.51-.002-6.424-1.014-8.519-2.634zm-1.012 15.386c-1.812 1.013-3.9 3.172-4.364 6.951-.58 4.724 3.423 9.516 10.511 9.516 6.615 0 11.907-2.97 12.479-7.626.497-4.049-1.776-5.871-9.445-7.188-2.581-.438-6.117-.776-9.181-1.653zm15.733-23.687c1.136-9.246-.978-10.73-3.543-10.73-2.564 0-5.042 1.484-6.178 10.73-1.135 9.246.971 10.798 3.535 10.798 2.566 0 5.051-1.552 6.186-10.798zM350.111 319.734l-.231 1.891c-1.144 9.312-1.422 14.88 5.531 14.88 6.277 0 10.964-4.353 13.521-11.709h.135c-2.758 7.896-7.979 12.755-16.417 12.755-8.573 0-15.249-8.301-14.089-17.748 1.16-9.448 9.874-17.75 18.447-17.75 8.775 0 14.532 8.099 13.355 17.682h-20.252zm.564-4.588l-.547 4.453h8.775c1.856-15.116 1.53-17.411-1.912-17.411-4.387 0-5.354 5.129-6.316 12.958zM394.225 337.551c-8.573 0-15.924-8.301-14.764-17.748 1.16-9.448 10.549-17.75 19.122-17.75s15.925 8.302 14.765 17.75c-1.16 9.447-10.55 17.748-19.123 17.748zm4.341-35.363c-5.266 0-6.369 7.896-7.562 17.614s-2.028 17.613 3.237 17.613 6.438-7.896 7.63-17.613c1.193-9.717 1.961-17.614-3.305-17.614zM447.546 291.931c.154.944.147 1.552.089 2.024-.397 3.239-2.72 6.209-6.5 6.209-3.173 0-5.423-2.564-5.033-5.736.39-3.172 3.269-5.736 6.441-5.736 2.498 0 4.604 1.822 4.98 4.251-.131-3.611-2.772-5.736-6.147-5.736-2.025 0-3.704.472-4.875 1.214-1.686 1.08-2.567 2.768-2.857 5.13l-1.151 9.38h5.4l-.017.136h-5.4l-4.11 33.473h5.4l-.017.135h-21.602l.017-.135h5.4l4.11-33.473h-5.4l.017-.136h5.4l.538-4.387c.796-6.479 8.007-11.877 16.378-11.877 4.792 0 8.145 1.282 8.939 5.264zM470.068 303.066l-3.563 29.018c-.231 1.891.337 3.308 1.958 3.308 2.16 0 2.837-2.497 3.103-4.656l.92-7.491h.168l-.944 7.693c-.481 3.914-2.364 6.613-7.157 6.613-6.48 0-8.997-4.251-8.209-10.663l2.925-23.821h-5.333l.017-.136h1.755c7.898 0 14.865-5.061 15.976-14.104h.135l-1.731 14.104h6.684l-.017.136h-6.687zM513.257 336.674h-19.307l.017-.135h3.105l3.265-26.589c.613-4.995.238-6.884-1.989-6.884-2.363 0-4.803 2.834-6.221 6.681l-3.29 26.792h3.105l-.017.135h-19.307l.017-.135h5.4l5.999-48.86h-5.4l.017-.135h16.201l-2.651 21.596c2.031-4.994 5.258-7.087 8.971-7.087 7.695 0 10.248 5.602 9.411 12.418l-2.71 22.068h5.4l-.016.135zM527.346 319.734l-.232 1.891c-1.143 9.312-1.422 14.88 5.531 14.88 6.277 0 10.965-4.353 13.521-11.709h.135c-2.758 7.896-7.979 12.755-16.417 12.755-8.573 0-15.249-8.301-14.089-17.748 1.16-9.448 9.874-17.75 18.447-17.75 8.775 0 14.532 8.099 13.355 17.682h-20.251zm.563-4.588l-.547 4.453h8.775c1.856-15.116 1.53-17.411-1.912-17.411-4.387 0-5.355 5.129-6.316 12.958zM559.159 334.92c-1.418 0-2.977 1.146-3.596 3.441h-.135l2.104-17.142h.135c-.535 6.007 3.463 16.331 10.821 16.331 2.97 0 5.093-1.889 5.474-4.993 1.003-8.166-17.272-7.222-15.69-20.111.613-4.994 5.462-10.394 11.537-10.394 3.375 0 6.309 2.498 8.941 2.498.878 0 1.628-.607 1.859-2.498h.135l-1.657 13.498h-.135c.178-3.644-2.207-13.362-9.16-13.362-3.038 0-5.547 2.295-5.887 5.061-.903 7.357 18.225 6.615 16.626 19.639-.755 6.142-5.782 10.798-12.06 10.798-4.117 0-6.004-2.766-9.312-2.766zM599.198 337.551c-8.573 0-15.924-8.301-14.765-17.748 1.16-9.448 10.55-17.75 19.123-17.75s15.926 8.302 14.766 17.75c-1.16 9.447-10.551 17.748-19.124 17.748zm4.342-35.363c-5.266 0-6.37 7.896-7.563 17.614-1.192 9.718-2.027 17.613 3.238 17.613s6.438-7.896 7.631-17.613c1.192-9.717 1.96-17.614-3.306-17.614zM620.252 302.931h16.201l-3.281 26.725c-.613 4.994-.238 6.884 1.989 6.884 2.363 0 4.804-2.834 6.221-6.681l3.29-26.792h-3.105l.017-.136h13.906l-4.127 33.608h5.4l-.017.135h-16.201l.763-6.208c-2.03 4.993-5.258 7.085-8.971 7.085-7.695 0-10.248-5.602-9.411-12.417l2.71-22.067h-5.4l.016-.136zM656.739 336.674l.017-.135h5.4l6-48.86h-5.4l.016-.135h16.201l-6.016 48.995h5.4l-.017.135h-21.601zM685.197 325.876c3.105 0 5.355 2.564 4.975 5.67-.39 3.171-3.27 5.735-6.375 5.735-3.173 0-5.424-2.564-5.034-5.735.381-3.106 3.261-5.67 6.434-5.67z"/></g></svg>