<?xml version="1.0" encoding="utf-8"?>
<!-- Generator: Adobe Illustrator 18.1.0, SVG Export Plug-In . SVG Version: 6.00 Build 0)  -->
<svg version="1.1" id="Layer_1" xmlns="http://www.w3.org/2000/svg" xmlns:xlink="http://www.w3.org/1999/xlink" x="0px" y="0px"
	 viewBox="0 0 302 353" enable-background="new 0 0 302 353" xml:space="preserve">
<g>
	<path fill="#FFFFFF" d="M65,343c-0.2,0.9-0.7,1.6-1.5,1.6c-1,0-1.6-1.5-2.5-1.5c-0.5,0-0.9,0.4-1,1.2l-0.5-0.5
		c0.1-0.8,0.7-1.6,1.5-1.6c1.1,0,1.8,1.5,2.6,1.5c0.6,0,0.8-0.5,1-1.2L65,343z"/>
	<path fill="#FFFFFF" d="M81,338.8l-4.1,6h-0.3l-4.1-6v9.9h-1.1v-11.8h1.1l4.3,6.2l4.3-6.2h1.1v11.8H81V338.8z"/>
	<path fill="#FFFFFF" d="M90.2,348.6v-1c-0.6,0.6-1.5,1.1-2.8,1.1c-1.8,0-2.9-1.1-2.9-2.8c0-2.2,1.8-3.2,4.1-3.2
		c0.5,0,1.1,0.1,1.6,0.2v-0.4c0-1.5-0.8-2.2-2.2-2.2c-0.9,0-1.8,0.2-2.5,0.6l-0.2-1c0.8-0.4,2-0.6,2.9-0.6c2,0,3.1,1.1,3.1,3.3v6
		H90.2z M87.7,347.9c1.2,0,2-0.6,2.4-1.1v-2.8c-0.3-0.1-1-0.2-1.5-0.2c-1.7,0-3,0.7-3,2.2C85.7,347.2,86.5,347.9,87.7,347.9z"/>
	<path fill="#FFFFFF" d="M93.1,350.7c0.4,0.2,0.8,0.4,1.5,0.4c1,0,1.4-0.6,1.8-1.8l0.2-0.7l-3.7-9h1.2l3,7.8l2.7-7.8h1.1l-3.6,9.9
		c-0.6,1.6-1.2,2.5-2.8,2.5c-0.8,0-1.4-0.3-1.8-0.5L93.1,350.7z"/>
	<path fill="#FFFFFF" d="M107.9,348.6v-1c-0.6,0.6-1.5,1.1-2.8,1.1c-1.8,0-2.9-1.1-2.9-2.8c0-2.2,1.8-3.2,4.1-3.2
		c0.5,0,1.1,0.1,1.6,0.2v-0.4c0-1.5-0.8-2.2-2.2-2.2c-0.9,0-1.8,0.2-2.5,0.6l-0.2-1c0.8-0.4,2-0.6,2.9-0.6c2,0,3.1,1.1,3.1,3.3v6
		H107.9z M105.4,347.9c1.2,0,2-0.6,2.4-1.1v-2.8c-0.3-0.1-1-0.2-1.5-0.2c-1.7,0-3,0.7-3,2.2C103.3,347.2,104.2,347.9,105.4,347.9z"
		/>
	<path fill="#FFFFFF" d="M118.1,336.9h1.3l4.1,11.8h-1.1l-1-2.9H116l-1,2.9h-1.1L118.1,336.9z M116.3,344.9h4.7l-2.3-6.8
		L116.3,344.9z"/>
	<path fill="#FFFFFF" d="M131.4,348.6v-5.5c0-1.7-0.7-2.7-2.3-2.7c-1.4,0-2.3,1-2.6,2.1v6h-1.1v-9.1h1.1v1.5c0.6-1,1.6-1.7,3-1.7
		c2,0,3,1.3,3,3.6v5.7H131.4z"/>
	<path fill="#FFFFFF" d="M138.6,339.4c1.1,0,2,0.5,2.6,1.2v-1h1.1v8.7c0,2.7-1.6,3.8-3.5,3.8c-1.6,0-2.5-0.6-3-0.9l0.3-1
		c0.5,0.3,1.4,1,2.6,1c1.4,0,2.5-0.7,2.5-2.7v-1.4c-0.6,0.7-1.5,1.2-2.6,1.2c-2.2,0-3.7-1.8-3.7-4.3
		C134.9,341.2,136.4,339.4,138.6,339.4z M139,347.1c1,0,1.8-0.6,2.3-1.2v-4.2c-0.5-0.6-1.2-1.2-2.3-1.2c-1.8,0-2.9,1.3-2.9,3.3
		C136,345.8,137.2,347.1,139,347.1z"/>
	<path fill="#FFFFFF" d="M145.9,344.5c0.1,2,1,3.4,3.1,3.4c1.1,0,1.9-0.5,2.6-1.1l0.5,0.9c-0.8,0.7-1.9,1.2-3.2,1.2
		c-2.9,0-4.1-2-4.1-4.7c0-2.8,1.5-4.8,4-4.8c2.4,0,3.4,1.7,3.4,3.7c0,0.5-0.1,1-0.2,1.5H145.9z M151.1,343.6c0-0.2,0.1-0.4,0.1-0.7
		c0-1.4-0.8-2.6-2.4-2.6c-1.8,0-2.8,1.4-2.9,3.3H151.1z"/>
	<path fill="#FFFFFF" d="M155.8,336.3v10.3c0,0.9,0.3,1.2,0.8,1.2c0.4,0,0.7-0.2,1-0.4l0.1,0.9c-0.3,0.2-0.9,0.5-1.5,0.5
		c-1,0-1.6-0.5-1.6-1.9v-10.6H155.8z"/>
	<path fill="#FFFFFF" d="M163,339.3c2.5,0,4.1,1.8,4.1,4.8c0,2.9-1.7,4.7-4.1,4.7c-2.4,0-4.1-1.8-4.1-4.7
		C159,341.2,160.6,339.3,163,339.3z M163,347.8c1.8,0,3-1.4,3-3.7c0-2.3-1.2-3.7-3-3.7c-1.8,0-3,1.4-3,3.7
		C160,346.4,161.3,347.8,163,347.8z"/>
	<path fill="#FFFFFF" d="M170.6,339.6v5.5c0,1.7,0.7,2.7,2.3,2.7c1.4,0,2.3-1,2.6-2.1v-6h1.1v9.1h-1.1v-1.5c-0.6,1-1.6,1.7-3,1.7
		c-2,0-3.1-1.3-3.1-3.6v-5.7H170.6z"/>
</g>
<g>
	<path fill="#333333" d="M207,284.2c9.8-6.9,12.4-15.4,12.6-19.5c-3.7-0.4-7.3-3.9-7.3-7.8c0-4.4,3.8-7.8,7.8-7.8
		c4.7,0,8.6,3.7,8.6,10.5c0,7.9-5.4,20.3-19.8,27.5L207,284.2z M232.6,284.2c9.8-6.9,12.4-15.4,12.6-19.5c-3.7-0.4-7.3-3.9-7.3-7.8
		c0-4.4,3.8-7.8,7.8-7.8c4.7,0,8.6,3.7,8.6,10.5c0,7.9-5.4,20.3-19.8,27.5L232.6,284.2z"/>
</g>
<g>
	<path fill="#FFFFFF" d="M82,65.6h-22v-0.1h3.4V38.4h-3.4v-0.1h20.6v9.9h-0.1c0,0-1.3-9.8-9.2-9.8H70v13.2h0.5c5,0,5.6-6.4,5.6-6.4
		h0.1v12.9h-0.1c0,0-0.6-6.4-5.6-6.4H70v13.9h1.3c9.8,0,10.6-10.6,10.6-10.6H82V65.6z"/>
	<path fill="#FFFFFF" d="M103.7,46.2h-3.1l-6.3,20.1l-8.3-20.1h-3.1v-0.1h12.5v0.1h-2.5l4.4,10.3l3.2-10.3h-3.2v-0.1L103.7,46.2
		L103.7,46.2z"/>
	<path fill="#FFFFFF" d="M109.2,55.8v1.1c0,5.4,0.2,8.6,4.3,8.6c3.6,0,6-2.5,7-6.8h0.1c-1,4.6-3.7,7.4-8.6,7.4
		c-5,0-9.4-4.8-9.4-10.3c0-5.5,4.4-10.3,9.4-10.3c5.1,0,9,4.7,9,10.2H109.2z M109.2,53.2v2.6h5.1c0-8.7-0.4-10.1-2.3-10.1
		C109.3,45.7,109.2,48.6,109.2,53.2z"/>
	<path fill="#FFFFFF" d="M121.1,65.6L121.1,65.6l3.1-0.1V46.2h-3.1v-0.1h9.4v1.6c0.8-1.1,1.9-2.1,3.8-2.1c1.4,0,3.5,0.8,4.1,3.1
		c0.2,0.5,0.2,0.9,0.2,1.2c0,1.9-1.1,3.6-3.3,3.6c-1.8,0-3.3-1.5-3.3-3.3c0-1.8,1.5-3.3,3.3-3.3c1.5,0,2.8,1.1,3.2,2.5
		c-0.2-1.7-1.7-3.6-4.2-3.6c-1.9,0-3,0.9-3.8,2.1v17.6h3.1v0.1H121.1z"/>
	<path fill="#FFFFFF" d="M139.4,71.5c0-0.2-0.1-0.6-0.1-0.8c0-1.9,1.5-3.4,3.4-3.4c1.8,0,3.4,1.5,3.4,3.4s-1.5,3.4-3.4,3.4
		c-1.3,0-2.5-0.8-3.1-1.9c0.4,1.2,1.4,2.8,4.1,2.8c3,0,4.3-2,5.4-5.1l1.2-3.4l-8.6-20.4h-3.2v-0.1h12.6v0.1h-2.5l4.8,11.4l4-11.4
		h-3.1v-0.1h6.4v0.1h-3.2L149.3,70c-1.1,3.2-2.6,5.1-5.5,5.1C140.4,75.2,139.6,72.7,139.4,71.5z"/>
	<path fill="#FFFFFF" d="M171.1,46.2V63c0,1.1,0.4,1.9,1.4,1.9c1.2,0,1.5-1.4,1.5-2.7v-4.3h0.1v4.4c0,2.3-0.9,3.8-3.7,3.8
		c-3.7,0-5.5-2.5-5.5-6.2V46.2h-3.1v-0.1h1c4.6,0,8.2-2.9,8.2-8.2h0.1V46.2l3.9-0.1v0.1H171.1z"/>
	<path fill="#FFFFFF" d="M198.7,65.6h-11.2v-0.1h1.8V50.2c0-2.9-0.4-4-1.6-4c-1.4,0-2.6,1.6-3.1,3.9v15.5h1.8v0.1h-11.2v-0.1h3.1
		V37.3h-3.1v-0.1h9.4v12.5c0.8-2.9,2.5-4.1,4.7-4.1c4.4,0,6.3,3.2,6.3,7.2v12.8L198.7,65.6L198.7,65.6z"/>
	<path fill="#FFFFFF" d="M199.9,65.6L199.9,65.6l3.1-0.1V46.2h-3.1v-0.1h9.4v19.4h3.1v0.1H199.9z M206.1,35.5c1.9,0,3.3,1.4,3.3,3.3
		s-1.4,3.3-3.3,3.3s-3.3-1.4-3.3-3.3S204.2,35.5,206.1,35.5z"/>
	<path fill="#FFFFFF" d="M236.9,65.6h-11.2v-0.1h1.8V50.2c0-2.9-0.4-4-1.6-4c-1.4,0-2.6,1.6-3.1,3.9v15.5h1.8v0.1h-11.2v-0.1h3.1
		V46.2h-3.1v-0.1h9.4v3.6c0.8-2.9,2.5-4.1,4.7-4.1c4.4,0,6.3,3.2,6.3,7.2v12.8L236.9,65.6L236.9,65.6z"/>
	<path fill="#FFFFFF" d="M241.7,56.7c-0.7,0.2-1.6,0.7-1.6,1.6c0,0.4,0.2,0.8,0.8,1c0.7,0.4,2.5,0.6,6,0.8c7.5,0.4,9.8,3.3,9.8,7.4
		c0,4.4-4.1,7.6-9.6,7.6c-6.6,0-9.8-2.7-9.8-5.4c0-2.7,2.1-4,4.6-4.3c-2.1-0.7-3.9-1.9-3.9-4.6C237.9,58.7,239.3,57.4,241.7,56.7
		c-1.6-1.2-2.5-2.9-2.5-4.8c0-3.5,3.2-6.3,7.6-6.3c3,0,5.5,1.3,6.7,3.2c0.6-0.1,4.4-0.8,4.4-4.3c0-2.6-1.6-3.6-2.8-4.1
		c1.1,0.6,1.9,1.7,1.9,3c0,1.8-1.5,3.4-3.4,3.4s-3.4-1.5-3.4-3.4c0-1.9,1.5-3.4,3.4-3.4c0.1,0,0.6,0,0.8,0.1c1.2,0.2,3.6,1,3.6,4.3
		c0,3.4-3.7,4.2-4.5,4.4c0.6,0.9,0.9,1.9,0.9,3c0,3.5-3.2,6.3-7.6,6.3C244.8,58.2,243,57.6,241.7,56.7z M242.2,65.6
		c-1,0.6-2,1.8-2,4c0,2.7,2.7,5.5,6.7,5.5c3.8,0,6.7-1.7,6.7-4.4c0-2.3-1.4-3.4-6-4.2C246.1,66.3,244,66.1,242.2,65.6z M249.6,51.9
		c0-5.3-1.3-6.2-2.8-6.2s-2.8,0.9-2.8,6.2s1.3,6.2,2.8,6.2S249.6,57.2,249.6,51.9z"/>
	<path fill="#FFFFFF" d="M264.5,65.6L264.5,65.6l3.1-0.1V46.2h-3.1v-0.1h9.4v19.4h3.1v0.1H264.5z M270.7,35.5c1.9,0,3.3,1.4,3.3,3.3
		s-1.4,3.3-3.3,3.3s-3.3-1.4-3.3-3.3S268.8,35.5,270.7,35.5z"/>
	<path fill="#FFFFFF" d="M301.5,65.6h-11.2v-0.1h1.8V50.2c0-2.9-0.4-4-1.6-4c-1.4,0-2.6,1.6-3.1,3.9v15.5h1.8v0.1H278v-0.1h3.1V46.2
		H278v-0.1h9.4v3.6c0.8-2.9,2.5-4.1,4.7-4.1c4.4,0,6.3,3.2,6.3,7.2v12.8L301.5,65.6L301.5,65.6z"/>
	<path fill="#FFFFFF" d="M69.1,93v16.8c0,1.1,0.4,1.9,1.4,1.9c1.2,0,1.5-1.4,1.5-2.7v-4.3H72v4.4c0,2.3-0.9,3.8-3.7,3.8
		c-3.7,0-5.5-2.5-5.5-6.2V93h-3.1v-0.1h1c4.6,0,8.2-2.9,8.2-8.2h0.1V93l3.9-0.1V93H69.1z"/>
	<path fill="#FFFFFF" d="M96.7,112.4H85.6v-0.1h1.8V97c0-2.9-0.4-4-1.6-4c-1.4,0-2.6,1.6-3.1,3.9v15.5h1.8v0.1H73.3v-0.1h3.1V84.1
		h-3.1V84h9.4v12.5c0.8-2.9,2.5-4.1,4.7-4.1c4.4,0,6.3,3.2,6.3,7.2v12.8L96.7,112.4L96.7,112.4z"/>
	<path fill="#FFFFFF" d="M103.6,102.6v1.1c0,5.4,0.2,8.6,4.3,8.6c3.6,0,6-2.5,7-6.8h0.1c-1,4.6-3.7,7.4-8.6,7.4
		c-5,0-9.4-4.8-9.4-10.3c0-5.5,4.4-10.3,9.4-10.3c5.1,0,9,4.7,9,10.2H103.6z M103.6,100v2.6h5.1c0-8.7-0.4-10.1-2.3-10.1
		C103.8,92.5,103.6,95.5,103.6,100z"/>
	<path fill="#FFFFFF" d="M121.7,92.9h9.4v15.4c0,2.9,0.4,4,1.6,4c1.4,0,2.6-1.6,3.1-3.9V93H134v-0.1h8v19.4h3.1v0.1h-9.4v-3.6
		c-0.8,2.9-2.5,4.1-4.7,4.1c-4.4,0-6.3-3.2-6.3-7.2V93L121.7,92.9L121.7,92.9z"/>
	<path fill="#FFFFFF" d="M169.8,112.4h-11.2v-0.1h1.8V97c0-2.9-0.4-4-1.6-4c-1.4,0-2.6,1.6-3.1,3.9v15.5h1.8v0.1h-11.2v-0.1h3.1V93
		h-3.1v-0.1h9.4v3.6c0.8-2.9,2.5-4.1,4.7-4.1c4.4,0,6.3,3.2,6.3,7.2v12.8L169.8,112.4L169.8,112.4z"/>
	<path fill="#FFFFFF" d="M170.9,112.4L170.9,112.4l3.1-0.1V93h-3.1v-0.1h9.4v19.4h3.1v0.1H170.9z M177.2,82.3c1.9,0,3.3,1.4,3.3,3.3
		s-1.4,3.3-3.3,3.3s-3.3-1.4-3.3-3.3S175.3,82.3,177.2,82.3z"/>
	<path fill="#FFFFFF" d="M203.6,93h-3.1l-6.3,20.1L185.8,93h-3.1v-0.1h12.5V93h-2.5l4.4,10.3l3.2-10.3h-3.2v-0.1L203.6,93L203.6,93z
		"/>
	<path fill="#FFFFFF" d="M209.1,102.6v1.1c0,5.4,0.2,8.6,4.3,8.6c3.6,0,6-2.5,7-6.8h0.1c-1,4.6-3.7,7.4-8.6,7.4
		c-5,0-9.4-4.8-9.4-10.3c0-5.5,4.4-10.3,9.4-10.3c5.1,0,9,4.7,9,10.2H209.1z M209.1,100v2.6h5.1c0-8.7-0.4-10.1-2.3-10.1
		C209.3,92.5,209.1,95.5,209.1,100z"/>
	<path fill="#FFFFFF" d="M221,112.4L221,112.4l3.1-0.1V93H221v-0.1h9.4v1.6c0.8-1.1,1.9-2.1,3.8-2.1c1.4,0,3.5,0.8,4.1,3.1
		c0.2,0.5,0.2,0.9,0.2,1.2c0,1.9-1.1,3.6-3.3,3.6c-1.8,0-3.3-1.5-3.3-3.3c0-1.8,1.5-3.3,3.3-3.3c1.5,0,2.8,1.1,3.2,2.5
		c-0.2-1.7-1.7-3.6-4.2-3.6c-1.9,0-3,0.9-3.8,2.1v17.6h3.1v0.1H221z"/>
	<path fill="#FFFFFF" d="M242,111.4c-0.8,0-1.6,0.7-1.8,2h-0.1v-9.9h0.1c0.1,3.5,3.2,9.4,7.4,9.4c1.7,0,2.8-1.1,2.8-2.9
		c0-4.7-10.5-4.2-10.5-11.6c0-2.9,2.4-6,5.9-6c2,0,3.8,1.4,5.3,1.4c0.5,0,0.9-0.4,0.9-1.4h0.1v7.8h-0.1c-0.2-2.1-2.2-7.7-6.2-7.7
		c-1.8,0-3,1.3-3,2.9c0,4.3,11,3.8,11,11.3c0,3.5-2.6,6.2-6.2,6.2C245.2,113,243.9,111.4,242,111.4z"/>
	<path fill="#FFFFFF" d="M262,102.6v1.1c0,5.4,0.2,8.6,4.3,8.6c3.6,0,6-2.5,7-6.8h0.1c-1,4.6-3.7,7.4-8.6,7.4c-5,0-9.4-4.8-9.4-10.3
		c0-5.5,4.4-10.3,9.4-10.3c5.1,0,9,4.7,9,10.2H262z M262,100v2.6h5.1c0-8.7-0.4-10.1-2.3-10.1C262.2,92.5,262,95.5,262,100z"/>
	<path fill="#FFFFFF" d="M83.5,159.2H72.3v-0.1h1.8v-15.4c0-2.9-0.4-4-1.6-4c-1.4,0-2.6,1.6-3.1,3.9v15.5h1.8v0.1H60v-0.1h3.1v-28.2
		H60v-0.1h9.4v12.5c0.8-2.9,2.5-4.1,4.7-4.1c4.4,0,6.3,3.2,6.3,7.2v12.8L83.5,159.2L83.5,159.2z"/>
	<path fill="#FFFFFF" d="M85.2,143.7c0.4-1.4,1.8-2.5,3.2-2.5c1.8,0,3.3,1.5,3.3,3.3s-1.5,3.3-3.3,3.3c-2.2,0-3.3-1.7-3.3-3.6
		c0-0.3,0-0.6,0.2-1.2c1.1-2.8,4.4-3.9,6.6-3.9c5.8,0,9.1,2.8,9.1,6.9v10.3c0,1.6,0.5,2.3,1.5,2.3c0.4,0,0.7-0.1,0.9-0.3
		c0.5-0.5,0.7-1.3,0.7-1.6h0.1c-0.3,1.4-1.1,2.9-3.5,2.9c-3.3,0-5.6-2.1-5.8-4.3c-0.2,1.6-1.4,4.3-5.5,4.3c-3.3,0-5.3-2.1-5.3-5
		c0-3.1,2.4-5.1,5-5.6c2-0.4,2.2-0.1,3.3-0.4c0.9-0.2,1.6-1.1,2.3-2v-4c0-2.3-1.1-3.3-3.3-3.3C88.8,139.4,85.8,141.1,85.2,143.7z
		 M94.8,146.9c-0.8,1.2-1.4,1.6-2.3,2.1c-1.2,0.7-2.1,1.7-2.1,3.6v3.5c0,1.9,0.2,3,1.3,3c1.8,0,3.1-2.3,3.1-3.7V146.9z"/>
	<path fill="#FFFFFF" d="M107.5,158.2c-0.8,0-1.6,0.7-1.8,2h-0.1v-9.9h0.1c0.1,3.5,3.2,9.4,7.4,9.4c1.7,0,2.8-1.1,2.8-2.9
		c0-4.7-10.5-4.2-10.5-11.6c0-2.9,2.4-6,5.9-6c1.9,0,3.8,1.4,5.3,1.4c0.5,0,0.9-0.4,0.9-1.4h0.1v7.8h-0.1c-0.2-2.1-2.2-7.7-6.2-7.7
		c-1.8,0-3,1.3-3,2.9c0,4.3,11,3.8,11,11.3c0,3.5-2.6,6.2-6.2,6.2C110.7,159.8,109.4,158.2,107.5,158.2z"/>
	<path fill="#FFFFFF" d="M126.6,159.2L126.6,159.2l3.1-0.1v-19.3h-3.1v-0.1h9.4v1.6c0.8-1.1,1.9-2.1,3.8-2.1c1.4,0,3.5,0.8,4.1,3.1
		c0.2,0.5,0.2,0.9,0.2,1.2c0,1.9-1.1,3.6-3.3,3.6c-1.8,0-3.3-1.5-3.3-3.3s1.5-3.3,3.3-3.3c1.5,0,2.8,1.1,3.2,2.5
		c-0.2-1.7-1.7-3.6-4.2-3.6c-1.9,0-3,0.9-3.8,2.1v17.6h3.1v0.1H126.6z"/>
	<path fill="#FFFFFF" d="M167.1,159.2h-11.2v-0.1h1.8v-15.4c0-2.9-0.4-4-1.6-4c-1.4,0-2.6,1.6-3.1,3.9v15.5h1.8v0.1h-11.2v-0.1h3.1
		v-28.2h-3.1v-0.1h9.4v12.5c0.8-2.9,2.5-4.1,4.7-4.1c4.4,0,6.3,3.2,6.3,7.2v12.8L167.1,159.2L167.1,159.2z"/>
	<path fill="#FFFFFF" d="M165.8,165.2c0-0.2-0.1-0.6-0.1-0.8c0-1.9,1.5-3.4,3.4-3.4c1.8,0,3.4,1.5,3.4,3.4s-1.5,3.4-3.4,3.4
		c-1.3,0-2.5-0.8-3.1-1.9c0.4,1.2,1.4,2.8,4.1,2.8c3,0,4.3-2,5.4-5.1l1.2-3.4l-8.6-20.4H165v-0.1h12.6v0.1h-2.5l4.8,11.4l4-11.4
		h-3.1v-0.1h6.4v0.1H184l-8.3,23.8c-1.1,3.2-2.6,5.1-5.5,5.1C166.8,168.8,166,166.4,165.8,165.2z"/>
	<path fill="#FFFFFF" d="M197.5,139.8v16.8c0,1.1,0.4,1.9,1.4,1.9c1.2,0,1.5-1.4,1.5-2.7v-4.3h0.1v4.4c0,2.3-0.9,3.8-3.7,3.8
		c-3.7,0-5.5-2.5-5.5-6.2v-13.8h-3.1v-0.1h1c4.6,0,8.2-2.9,8.2-8.2h0.1V139.8l3.9-0.1v0.1H197.5z"/>
	<path fill="#FFFFFF" d="M225.1,159.2h-11.2v-0.1h1.8v-15.4c0-2.9-0.4-4-1.6-4c-1.4,0-2.6,1.6-3.1,3.9v15.5h1.8v0.1h-11.2v-0.1h3.1
		v-28.2h-3.1v-0.1h9.4v12.5c0.8-2.9,2.5-4.1,4.7-4.1c4.4,0,6.3,3.2,6.3,7.2v12.8L225.1,159.2L225.1,159.2z"/>
	<path fill="#FFFFFF" d="M247.6,159.2h-9.5v-0.1h1.7v-16.7c0-1.2-0.2-2.6-1.4-2.6c-1.4,0-2.8,2-3.2,3.9v15.4h1.6v0.1h-10.5v-0.1h2.7
		v-19.3h-2.7v-0.1h9v3.6c0.8-2.8,2.6-4.1,4.7-4.1c3.2,0,4.8,1.7,5.7,4.1c0.8-2.8,2.8-4.1,5-4.1c4.4,0,6.3,3.2,6.3,7.2v12.8h2.7v0.1
		h-10.7v-0.1h1.7v-15.4c0-2.9-0.2-4-1.6-4c-1.6,0-3,1.9-3.4,3.7c0.3,0.9,0.4,1.9,0.4,2.9v12.8L247.6,159.2L247.6,159.2z"/>
	<path fill="#FFFFFF" d="M263.9,153c1.8,0,3.3,1.5,3.3,3.3c0,1.8-1.5,3.3-3.3,3.3c-1.8,0-3.3-1.5-3.3-3.3
		C260.6,154.5,262.1,153,263.9,153z"/>
	<path fill="#FFFFFF" d="M82,206h-22V206h3.4v-27.1h-3.4v-0.1h20.6v9.9h-0.1c0,0-1.3-9.8-9.2-9.8H70V192h0.5c5,0,5.6-6.4,5.6-6.4
		h0.1v12.9h-0.1c0,0-0.6-6.4-5.6-6.4H70V206h1.3c9.8,0,10.6-10.6,10.6-10.6H82V206z"/>
	<path fill="#FFFFFF" d="M103.7,186.6h-3.1l-6.3,20.1l-8.3-20.1h-3.1v-0.1h12.5v0.1h-2.5l4.4,10.3l3.2-10.3h-3.2v-0.1L103.7,186.6
		L103.7,186.6z"/>
	<path fill="#FFFFFF" d="M109.2,196.2v1.1c0,5.4,0.2,8.6,4.3,8.6c3.6,0,6-2.5,7-6.8h0.1c-1,4.6-3.7,7.4-8.6,7.4
		c-5,0-9.4-4.8-9.4-10.3c0-5.5,4.4-10.3,9.4-10.3c5.1,0,9,4.7,9,10.2H109.2z M109.2,193.6v2.6h5.1c0-8.7-0.4-10.1-2.3-10.1
		C109.3,186.1,109.2,189.1,109.2,193.6z"/>
	<path fill="#FFFFFF" d="M121.1,206L121.1,206l3.1-0.1v-19.3h-3.1v-0.1h9.4v1.6c0.8-1.1,1.9-2.1,3.8-2.1c1.4,0,3.5,0.8,4.1,3.1
		c0.2,0.5,0.2,0.9,0.2,1.2c0,1.9-1.1,3.6-3.3,3.6c-1.8,0-3.3-1.5-3.3-3.3s1.5-3.3,3.3-3.3c1.5,0,2.8,1.1,3.2,2.5
		c-0.2-1.7-1.7-3.6-4.2-3.6c-1.9,0-3,0.9-3.8,2.1V206h3.1v0.1H121.1z"/>
	<path fill="#FFFFFF" d="M139.4,212c0-0.2-0.1-0.6-0.1-0.8c0-1.9,1.5-3.4,3.4-3.4c1.8,0,3.4,1.5,3.4,3.4s-1.5,3.4-3.4,3.4
		c-1.3,0-2.5-0.8-3.1-1.9c0.4,1.2,1.4,2.8,4.1,2.8c3,0,4.3-2,5.4-5.1l1.2-3.4l-8.6-20.4h-3.2v-0.1h12.6v0.1h-2.5l4.8,11.4l4-11.4
		h-3.1v-0.1h6.4v0.1h-3.2l-8.3,23.8c-1.1,3.2-2.6,5.1-5.5,5.1C140.4,215.6,139.6,213.2,139.4,212z"/>
	<path fill="#FFFFFF" d="M171.1,186.6v16.8c0,1.1,0.4,1.9,1.4,1.9c1.2,0,1.5-1.4,1.5-2.7v-4.3h0.1v4.4c0,2.3-0.9,3.8-3.7,3.8
		c-3.7,0-5.5-2.5-5.5-6.2v-13.8h-3.1v-0.1h1c4.6,0,8.2-2.9,8.2-8.2h0.1V186.6l3.9-0.1v0.1H171.1z"/>
	<path fill="#FFFFFF" d="M198.7,206h-11.2V206h1.8v-15.4c0-2.9-0.4-4-1.6-4c-1.4,0-2.6,1.6-3.1,3.9V206h1.8v0.1h-11.2V206h3.1v-28.2
		h-3.1v-0.1h9.4v12.5c0.8-2.9,2.5-4.1,4.7-4.1c4.4,0,6.3,3.2,6.3,7.2V206L198.7,206L198.7,206z"/>
	<path fill="#FFFFFF" d="M199.9,206L199.9,206l3.1-0.1v-19.3h-3.1v-0.1h9.4V206h3.1v0.1H199.9z M206.1,175.9c1.9,0,3.3,1.4,3.3,3.3
		s-1.4,3.3-3.3,3.3s-3.3-1.4-3.3-3.3S204.2,175.9,206.1,175.9z"/>
	<path fill="#FFFFFF" d="M236.9,206h-11.2V206h1.8v-15.4c0-2.9-0.4-4-1.6-4c-1.4,0-2.6,1.6-3.1,3.9V206h1.8v0.1h-11.2V206h3.1v-19.3
		h-3.1v-0.1h9.4v3.6c0.8-2.9,2.5-4.1,4.7-4.1c4.4,0,6.3,3.2,6.3,7.2V206L236.9,206L236.9,206z"/>
	<path fill="#FFFFFF" d="M241.7,197.1c-0.7,0.2-1.6,0.7-1.6,1.6c0,0.4,0.2,0.8,0.8,1c0.7,0.4,2.5,0.6,6,0.8c7.5,0.4,9.8,3.3,9.8,7.4
		c0,4.4-4.1,7.6-9.6,7.6c-6.6,0-9.8-2.7-9.8-5.4c0-2.7,2.1-4,4.6-4.3c-2.1-0.7-3.9-1.9-3.9-4.6C237.9,199.2,239.3,197.8,241.7,197.1
		c-1.6-1.2-2.5-2.9-2.5-4.8c0-3.5,3.2-6.3,7.6-6.3c3,0,5.5,1.3,6.7,3.2c0.6-0.1,4.4-0.8,4.4-4.3c0-2.6-1.6-3.6-2.8-4.1
		c1.1,0.6,1.9,1.7,1.9,3c0,1.8-1.5,3.4-3.4,3.4s-3.4-1.5-3.4-3.4c0-1.9,1.5-3.4,3.4-3.4c0.1,0,0.6,0,0.8,0.1c1.2,0.2,3.6,1,3.6,4.3
		c0,3.4-3.7,4.2-4.5,4.4c0.6,0.9,0.9,1.9,0.9,3c0,3.5-3.2,6.3-7.6,6.3C244.8,198.6,243,198,241.7,197.1z M242.2,206
		c-1,0.6-2,1.8-2,4c0,2.7,2.7,5.5,6.7,5.5c3.8,0,6.7-1.7,6.7-4.4c0-2.3-1.4-3.4-6-4.2C246.1,206.7,244,206.5,242.2,206z
		 M249.6,192.3c0-5.3-1.3-6.2-2.8-6.2s-2.8,0.9-2.8,6.2s1.3,6.2,2.8,6.2S249.6,197.6,249.6,192.3z"/>
	<path fill="#FFFFFF" d="M72.5,224.5h-3.1v-0.1h9.4v28.3h3.1v0.1h-9.4v-3.6c-0.8,2.9-2.5,4.1-4.7,4.1c-3.7,0-7.5-4.3-7.5-10.3
		s3.8-10.3,7.5-10.3c2.1,0,3.9,1.2,4.7,4.1V224.5z M72.5,237.3c-0.5-2.2-1.8-3.9-3.1-3.9c-1.8,0-2.5,1.9-2.5,7.5v4.3
		c0,5.7,0.6,7.5,2.5,7.5c1.4,0,2.6-1.6,3.1-3.9V237.3z"/>
	<path fill="#FFFFFF" d="M83.6,237.4c0.4-1.4,1.8-2.5,3.2-2.5c1.8,0,3.3,1.5,3.3,3.3s-1.5,3.3-3.3,3.3c-2.2,0-3.3-1.7-3.3-3.6
		c0-0.3,0-0.6,0.2-1.2c1.1-2.8,4.4-3.9,6.6-3.9c5.8,0,9.1,2.8,9.1,6.9V250c0,1.6,0.5,2.3,1.5,2.3c0.4,0,0.7-0.1,0.9-0.3
		c0.5-0.5,0.7-1.3,0.7-1.6h0.1c-0.3,1.4-1.1,2.9-3.5,2.9c-3.3,0-5.6-2.1-5.8-4.3c-0.2,1.6-1.4,4.3-5.5,4.3c-3.3,0-5.3-2.1-5.3-5
		c0-3.1,2.4-5.1,5-5.6c2-0.4,2.2-0.1,3.3-0.4c0.9-0.2,1.6-1.1,2.3-2v-4c0-2.3-1.1-3.3-3.3-3.3C87.1,233,84.2,234.8,83.6,237.4z
		 M93.1,240.5c-0.8,1.2-1.4,1.6-2.3,2.1c-1.2,0.7-2.1,1.7-2.1,3.6v3.5c0,1.9,0.2,3,1.3,3c1.8,0,3.1-2.3,3.1-3.7V240.5z"/>
	<path fill="#FFFFFF" d="M126.7,252.8h-11.2v-0.1h1.8v-15.4c0-2.9-0.4-4-1.6-4c-1.4,0-2.6,1.6-3.1,3.9v15.5h1.8v0.1h-11.2v-0.1h3.1
		v-19.3h-3.1v-0.1h9.4v3.6c0.8-2.9,2.5-4.1,4.7-4.1c4.4,0,6.3,3.2,6.3,7.2v12.8L126.7,252.8L126.7,252.8z"/>
	<path fill="#FFFFFF" d="M133.5,243.2c0,3.2,0.1,9.6,4.5,9.6c3.5,0,5.4-2.8,5.6-7.5h0.1c-0.2,4.7-2.1,8.1-7.2,8.1
		c-5.1,0-9.6-4.4-9.6-10.3c0-5.4,4.1-10.3,9.9-10.3c3.6,0,5.4,1.7,6.1,3.9c0.2,0.5,0.2,0.9,0.2,1.2c0,1.9-1.1,3.6-3.3,3.6
		c-1.8,0-3.3-1.5-3.3-3.3s1.5-3.3,3.3-3.3c1.4,0,2.8,1.1,3.2,2.5c-0.4-2-2-4.3-5.5-4.3C133.9,233,133.5,237.5,133.5,243.2z"/>
	<path fill="#FFFFFF" d="M151.5,243v1.1c0,5.4,0.2,8.6,4.3,8.6c3.6,0,6-2.5,7-6.8h0.1c-1,4.6-3.7,7.4-8.6,7.4c-5,0-9.4-4.8-9.4-10.3
		c0-5.5,4.4-10.3,9.4-10.3c5.1,0,9,4.7,9,10.2H151.5z M151.5,240.4v2.6h5.1c0-8.7-0.4-10.1-2.3-10.1
		C151.7,232.9,151.5,235.9,151.5,240.4z"/>
	<path fill="#FFFFFF" d="M167.2,251.8c-0.8,0-1.6,0.7-1.8,2h-0.1v-9.9h0.1c0.1,3.5,3.2,9.4,7.4,9.4c1.7,0,2.8-1.1,2.8-2.9
		c0-4.7-10.5-4.2-10.5-11.6c0-2.9,2.4-6,5.9-6c1.9,0,3.8,1.4,5.3,1.4c0.5,0,0.9-0.4,0.9-1.4h0.1v7.8h-0.1c-0.2-2.1-2.2-7.7-6.2-7.7
		c-1.8,0-3,1.3-3,2.9c0,4.3,11,3.8,11,11.3c0,3.5-2.6,6.2-6.2,6.2C170.4,253.4,169.1,251.8,167.2,251.8z"/>
	<path fill="#FFFFFF" d="M184.3,246.6c1.8,0,3.3,1.5,3.3,3.3c0,1.8-1.5,3.3-3.3,3.3c-1.8,0-3.3-1.5-3.3-3.3
		C181,248.1,182.5,246.6,184.3,246.6z"/>
</g>
<g>
	<path fill="#333333" d="M0,27.5C0,19.6,5.4,7.2,19.8,0l1.9,3.1C11.9,9.9,9.2,18.4,9.1,22.5c3.7,0.4,7.3,3.9,7.3,7.8
		c0,4.4-3.8,7.8-7.8,7.8C4,38,0,34.4,0,27.5z M25.6,27.5C25.6,19.6,31,7.2,45.4,0l1.9,3.1c-9.8,6.9-12.4,15.4-12.6,19.5
		c3.7,0.4,7.3,3.9,7.3,7.8c0,4.4-3.8,7.8-7.8,7.8C29.6,38,25.6,34.4,25.6,27.5z"/>
</g>
</svg>
