<?xml version="1.0" encoding="utf-8"?>
<!-- Generator: Adobe Illustrator 18.1.0, SVG Export Plug-In . SVG Version: 6.00 Build 0)  -->
<svg version="1.1" id="Layer_1" xmlns="http://www.w3.org/2000/svg" xmlns:xlink="http://www.w3.org/1999/xlink" x="0px" y="0px"
	 viewBox="377 319 792 355" enable-background="new 377 319 792 355" xml:space="preserve">
<g>
	<path fill="#FFFFFF" d="M471.8,660.6c-0.3,1.3-1,2.4-2.2,2.4c-1.6,0-2.4-2.2-3.7-2.2c-0.7,0-1.3,0.5-1.4,1.7l-0.8-0.8
		c0.1-1.2,0.9-2.2,2.1-2.2c1.6,0,2.6,2.2,3.8,2.2c0.8,0,1.2-0.7,1.4-1.7L471.8,660.6L471.8,660.6z M492.5,654.9
		c-1.3-1.3-2.8-2-4.6-2c-3.5,0-6.3,2.6-6.3,7.3c0,4.6,2.8,7.2,6.2,7.2c1.7,0,3.4-0.7,4.5-1.4v-4.9h-5.1v-1.4h6.7v7.2
		c-1.3,1.2-3.8,2.1-6,2.1c-4.3,0-7.7-3.3-7.7-8.8c0-5.6,3.4-8.9,7.7-8.9c2.4,0,4.1,0.8,5.5,2.4L492.5,654.9L492.5,654.9z
		 M498.4,662.7c0.1,2.9,1.4,5,4.6,5c1.6,0,2.9-0.7,3.8-1.6l0.7,1.3c-1.2,1-2.8,1.7-4.7,1.7c-4.2,0-5.9-2.9-5.9-7
		c0-4.1,2.2-6.9,5.9-6.9c3.4,0,5,2.5,5,5.4c0,0.8-0.1,1.6-0.3,2.1L498.4,662.7L498.4,662.7z M506,661.4c0-0.3,0.1-0.7,0.1-1
		c0-2.1-1.2-3.8-3.4-3.8c-2.6,0-4.1,2-4.2,4.7h7.5L506,661.4L506,661.4z M516.4,655.2c3.5,0,6,2.6,6,6.9s-2.4,7-6,7
		c-3.5,0-5.9-2.6-5.9-7S512.8,655.2,516.4,655.2z M516.4,667.5c2.6,0,4.3-2,4.3-5.4c0-3.4-1.7-5.5-4.3-5.5c-2.6,0-4.3,2.1-4.3,5.5
		C512.1,665.6,513.8,667.5,516.4,667.5z M525.8,668.7v-13.2h1.7v2.4c0.7-1.7,1.6-2.6,3.1-2.6c0.8,0,1.6,0.3,2.1,0.8l-0.4,1.4
		c-0.5-0.4-1.2-0.7-1.8-0.7c-1.6,0-2.5,1.3-3,3.3v8.5h-1.7V668.7L525.8,668.7z M539.9,655.3c1.7,0,3,0.8,3.8,1.7v-1.4h1.7v12.6
		c0,3.9-2.4,5.6-5.1,5.6c-2.4,0-3.7-0.9-4.5-1.3l0.4-1.4c0.7,0.5,2.1,1.4,3.8,1.4c2,0,3.7-1,3.7-3.9v-2.1c-0.9,1-2.2,1.7-3.8,1.7
		c-3.3,0-5.4-2.5-5.4-6.3C534.5,657.8,536.6,655.3,539.9,655.3z M540.4,666.5c1.4,0,2.6-0.9,3.3-1.7v-6.2c-0.7-0.8-1.7-1.8-3.3-1.8
		c-2.6,0-4.3,1.8-4.3,4.9C536.2,664.5,537.8,666.5,540.4,666.5z M550.5,662.7c0.1,2.9,1.4,5,4.6,5c1.6,0,2.9-0.7,3.8-1.6l0.7,1.3
		c-1.2,1-2.8,1.7-4.7,1.7c-4.2,0-5.9-2.9-5.9-7c0-4.1,2.2-6.9,5.9-6.9c3.4,0,5,2.5,5,5.4c0,0.8-0.1,1.6-0.3,2.1L550.5,662.7
		L550.5,662.7z M558.1,661.4c0-0.3,0.1-0.7,0.1-1c0-2.1-1.2-3.8-3.4-3.8c-2.6,0-4.1,2-4.2,4.7h7.5V661.4L558.1,661.4z M568.6,651.5
		h5.2c3,0,4.9,1.4,4.9,4.5c0,2-1,3.3-2.6,3.8c2.4,0.4,3.8,1.8,3.8,4.3c0,2.8-1.7,4.6-5,4.6h-6.3L568.6,651.5L568.6,651.5z
		 M570.3,659.1h3.3c2.1,0,3.5-1,3.5-3c0-2.1-1.2-3-3.4-3h-3.4V659.1L570.3,659.1z M570.3,667.3h4.5c2.4,0,3.5-1.2,3.5-3.1
		c0-2.4-1.4-3.4-3.9-3.4h-3.9v6.6L570.3,667.3L570.3,667.3z M590.6,668.7v-1.4c-0.8,0.8-2.1,1.7-4.1,1.7c-2.6,0-4.2-1.6-4.2-4.1
		c0-3.3,2.6-4.6,6-4.6c0.8,0,1.6,0.1,2.2,0.3v-0.7c0-2.2-1.2-3.3-3.1-3.3c-1.3,0-2.6,0.3-3.7,0.9l-0.4-1.4c1.2-0.5,2.9-0.9,4.2-0.9
		c2.9,0,4.6,1.7,4.6,4.7v8.7h-1.6V668.7L590.6,668.7z M587.1,667.7c1.7,0,2.9-0.9,3.5-1.7v-4.1c-0.5-0.1-1.4-0.3-2.2-0.3
		c-2.5,0-4.5,0.9-4.5,3.3C584,666.6,585.2,667.7,587.1,667.7L587.1,667.7z M598.1,650.7v15.1c0,1.3,0.4,1.7,1.2,1.7
		c0.7,0,1-0.3,1.4-0.5l0.1,1.3c-0.5,0.4-1.3,0.7-2.2,0.7c-1.4,0-2.4-0.8-2.4-2.8v-15.5H598.1L598.1,650.7z M610.7,668.7v-1.4
		c-0.8,0.8-2.1,1.7-4.1,1.7c-2.6,0-4.2-1.6-4.2-4.1c0-3.3,2.6-4.6,6-4.6c0.8,0,1.6,0.1,2.2,0.3v-0.7c0-2.2-1.2-3.3-3.1-3.3
		c-1.3,0-2.6,0.3-3.7,0.9l-0.4-1.4c1.2-0.5,2.9-0.9,4.2-0.9c2.9,0,4.6,1.7,4.6,4.7v8.7h-1.6V668.7L610.7,668.7z M607.1,667.7
		c1.7,0,2.9-0.9,3.5-1.7v-4.1c-0.5-0.1-1.4-0.3-2.2-0.3c-2.5,0-4.5,0.9-4.5,3.3C604.1,666.6,605.3,667.7,607.1,667.7L607.1,667.7z
		 M625.2,668.7v-8c0-2.5-1-3.9-3.3-3.9c-2,0-3.3,1.4-3.8,3.1v8.8h-1.6v-13.2h1.6v2.2c0.8-1.6,2.4-2.5,4.3-2.5c3,0,4.5,1.8,4.5,5.1
		v8.3h-1.7V668.7L625.2,668.7z M636.2,667.5c1.6,0,2.6-0.7,3.4-1.7l0.8,1.2c-1,1.2-2.4,2-4.3,2c-3.5,0-5.9-2.8-5.9-6.9
		c0-4.3,2.4-6.9,5.9-6.9c1.8,0,3.1,0.8,4.3,2l-0.8,1.2c-0.9-1-1.8-1.7-3.4-1.7c-2.6,0-4.3,2.1-4.3,5.4
		C631.9,665.4,633.6,667.5,636.2,667.5z M652.6,668.7v-8c0-2.5-1-3.9-3.4-3.9c-2,0-3.3,1.4-3.8,3.1v8.8h-1.6v-18h1.6v6.9
		c0.8-1.6,2.4-2.5,4.3-2.5c3,0,4.5,1.8,4.5,5.1v8.3h-1.6L652.6,668.7L652.6,668.7z M659.2,650.7c0.7,0,1,0.3,1,1c0,0.8-0.4,1-1,1
		c-0.7,0-1-0.3-1-1C658.1,651,658.5,650.7,659.2,650.7z M658.4,668.7v-13.2h1.6v13.2H658.4z M673,668.7v-8c0-2.5-1-3.9-3.3-3.9
		c-2,0-3.3,1.4-3.8,3.1v8.8h-1.7v-13.2h1.6v2.2c0.8-1.6,2.4-2.5,4.3-2.5c3,0,4.5,1.8,4.5,5.1v8.3H673V668.7L673,668.7z M679.6,662.7
		c0.1,2.9,1.4,5,4.6,5c1.6,0,2.9-0.7,3.8-1.6l0.7,1.3c-1.2,1-2.8,1.7-4.7,1.7c-4.2,0-5.9-2.9-5.9-7c0-4.1,2.2-6.9,5.9-6.9
		c3.4,0,5,2.5,5,5.4c0,0.8-0.1,1.6-0.3,2.1L679.6,662.7L679.6,662.7z M687.2,661.4c0-0.3,0.1-0.7,0.1-1c0-2.1-1.2-3.8-3.4-3.8
		c-2.6,0-4.1,2-4.2,4.7h7.5V661.4L687.2,661.4z"/>
</g>
<path fill="#333333" d="M952.9,587.4c14.3-10,18.1-22.4,18.4-28.3c-5.4-0.7-10.6-5.8-10.6-11.3c0-6.4,5.5-11.3,11.3-11.3
	c6.8,0,12.6,5.4,12.6,15.3c0,11.5-7.9,29.6-28.7,40.1L952.9,587.4z M990.1,587.4c14.3-10,18.1-22.4,18.4-28.3
	c-5.4-0.7-10.6-5.8-10.6-11.3c0-6.4,5.5-11.3,11.3-11.3c6.8,0,12.6,5.4,12.6,15.3c0,11.5-7.9,29.6-28.7,40.1L990.1,587.4
	L990.1,587.4z"/>
<path fill="#FFFFFF" d="M477.3,414.5h5l0,0.1h-19.5l0-0.1h5l4.8-39.5h-5l0-0.1h19.5l0,0.1h-5L477.3,414.5z"/>
<path fill="#FFFFFF" d="M516.1,373.3h-4.6l0-0.1h13.6l-5.1,41.3h4.6l0,0.1H511l0.6-5.2c-1.7,4.2-4.4,5.9-7.5,5.9
	c-5.5,0-10.2-6.3-9.2-14.9s7.3-14.9,12.9-14.9c3.1,0,5.4,1.7,6.1,5.9L516.1,373.3L516.1,373.3z M513.8,391.9
	c-0.4-3.3-1.9-5.6-3.9-5.6c-2.6,0-3.9,2.8-4.9,11l-0.8,6.3c-1,8.3-0.4,11,2.2,11c2,0,4.1-2.4,5.3-5.6L513.8,391.9z"/>
<path fill="#FFFFFF" d="M538.9,415.4c-7.2,0-13.4-7-12.5-14.9c1-8,8.9-14.9,16.1-14.9c7.2,0,13.4,6.9,12.5,14.9
	C554.1,408.3,546.2,415.4,538.9,415.4z M542.6,385.6c-4.5,0-5.4,6.7-6.4,14.8c-1,8.1-1.7,14.8,2.8,14.8c4.5,0,5.4-6.7,6.4-14.8
	C546.4,392.3,547.1,385.6,542.6,385.6z"/>
<path fill="#FFFFFF" d="M587.8,414.6h-16.3l0-0.1h2.6L577,392c0.5-4.2,0.2-5.8-1.7-5.8c-2,0-4.1,2.4-5.3,5.6l-2.8,22.6h2.6l0,0.1
	h-16.3l0-0.1h4.6l3.5-28.2h-4.6l0-0.1h13.6l-0.6,5.2c1.7-4.2,4.4-5.9,7.5-5.9c6.4,0,8.6,4.7,7.9,10.5l-2.3,18.6L587.8,414.6
	L587.8,414.6z"/>
<path fill="#FFFFFF" d="M592.4,394.5c0-6.3-3.9-12.2-3.9-16.7c0-2.1,1.7-3.9,3.9-3.9s3.9,1.8,3.9,3.9
	C596.4,382.3,592.6,388.4,592.4,394.5z"/>
<path fill="#FFFFFF" d="M612.7,386.3l-3,24.5c-0.2,1.6,0.3,2.8,1.6,2.8c1.8,0,2.4-2.1,2.6-3.9l0.8-6.3h0.1l-0.8,6.4
	c-0.4,3.3-2,5.5-6.1,5.5c-5.5,0-7.6-3.5-6.9-8.9l2.5-20.1H599l0-0.1h1.4c6.7,0,12.4-4.2,13.4-11.9h0.1l-1.5,12.1l5.7-0.1l0,0.1
	L612.7,386.3L612.7,386.3z"/>
<path fill="#FFFFFF" d="M673.4,386.4h-4.6L656,415.6l-6.1-20.7l-9.1,20.7l-8.6-29.2h-4.6l0-0.1h33.4l0,0.1h-3.7l4.6,14.9l6.6-14.9
	h-4.6l0-0.1h9.3l0,0.1H673.4L673.4,386.4z M646.9,401.3l2.9-6.7l-2.4-8.3h-5.1L646.9,401.3z"/>
<path fill="#FFFFFF" d="M673.7,392c0.8-2.1,3.1-3.5,5.2-3.5c2.6,0,4.6,2.1,4.3,4.9c-0.3,2.6-2.7,4.9-5.4,4.9c-3.1,0-4.5-2.5-4.2-5.2
	c0-0.4,0.1-0.9,0.5-1.7c2.1-4.1,7.1-5.8,10.4-5.8c8.4,0,12.7,4.1,12,10l-1.8,14.9c-0.3,2.4,0.4,3.4,1.7,3.4c0.5,0,1.1-0.1,1.4-0.4
	c0.9-0.7,1.2-2,1.3-2.2h0.1c-0.7,2.1-2.2,4.2-5.6,4.2c-4.7,0-7.8-3-7.8-6.3c-0.6,2.4-2.7,6.3-8.8,6.3c-4.7,0-7.4-3.1-6.9-7.2
	c0.6-4.6,4.4-7.3,8.3-8.1c2.9-0.5,3.3-0.3,4.9-0.7c1.4-0.4,2.6-1.6,3.8-2.9l0.7-5.9c0.4-3.4-1-4.9-4.1-4.9
	C679.7,385.7,675.1,388.2,673.7,392L673.7,392z M687.1,396.6c-1.4,1.7-2.4,2.4-3.6,3c-1.8,0.9-3.5,2.5-3.8,5.2L679,410
	c-0.3,2.8-0.3,4.3,1.4,4.3c2.6,0,4.9-3.4,5.1-5.4L687.1,396.6L687.1,396.6z"/>
<path fill="#FFFFFF" d="M733.6,414.6h-16.1l0-0.1h2.6l2.8-22.4c0.5-4.2,0.2-5.8-1.7-5.8c-2,0-4.1,2.4-5.3,5.6l-2.8,22.6h2.6l0,0.1
	h-16.3l0-0.1h4.6l3.5-28.2H703l0-0.1h13.6l-0.6,5.2c1.7-4.2,4.4-5.9,7.5-5.9c6.4,0,8.6,4.7,7.9,10.5l-2.3,18.6L733.6,414.6
	L733.6,414.6z"/>
<path fill="#FFFFFF" d="M749.3,386.3l-3,24.5c-0.2,1.6,0.3,2.8,1.6,2.8c1.8,0,2.4-2.1,2.6-3.9l0.8-6.3h0.1l-0.8,6.4
	c-0.4,3.3-2,5.5-6.1,5.5c-5.5,0-7.6-3.5-6.9-8.9l2.5-20.1h-4.5l0-0.1h1.4c6.7,0,12.4-4.2,13.4-11.9h0.1l-1.5,12.1l5.7-0.1l0,0.1
	L749.3,386.3L749.3,386.3z"/>
<path fill="#FFFFFF" d="M773.5,427.7h4.6l0,0.1h-18.2l0-0.1h4.6l5.1-41.4h-4.6l0-0.1h13.6l-0.6,5.2c1.7-4.2,4.4-5.9,7.5-5.9
	c5.5,0,10.2,6.3,9.2,14.9s-7.3,14.9-12.9,14.9c-3.1,0-5.4-1.7-6.1-5.9L773.5,427.7z M775.8,408.8c0.4,3.3,1.9,5.6,3.9,5.6
	c2.6,0,3.9-2.8,4.9-11l0.8-6.3c1-8.3,0.4-11-2.2-11c-2,0-4.1,2.4-5.3,5.6L775.8,408.8z"/>
<path fill="#FFFFFF" d="M806.7,400.3l-0.2,1.6c-1,7.9-1.2,12.6,4.6,12.6c5.2,0,9.2-3.7,11.4-9.8h0.1c-2.3,6.7-6.7,10.8-13.8,10.8
	c-7.2,0-12.8-7-11.8-14.9c1-8,8.3-14.9,15.5-14.9c7.3,0,12.3,6.8,11.3,14.9h-17.2L806.7,400.3L806.7,400.3z M807.2,396.5l-0.5,3.8
	h7.3c1.6-12.7,1.3-14.7-1.6-14.7C808.8,385.6,808,389.8,807.2,396.5L807.2,396.5z"/>
<path fill="#FFFFFF" d="M838,415.4c-7.2,0-13.4-7-12.5-14.9c1-8,8.9-14.9,16.1-14.9c7.2,0,13.4,6.9,12.5,14.9
	C853.2,408.3,845.3,415.4,838,415.4z M841.7,385.6c-4.5,0-5.4,6.7-6.4,14.8c-1,8.1-1.7,14.8,2.8,14.8c4.5,0,5.4-6.7,6.4-14.8
	C845.5,392.3,846.2,385.6,841.7,385.6z"/>
<path fill="#FFFFFF" d="M864.7,427.7h4.6l0,0.1h-18.2l0-0.1h4.6l5.1-41.4h-4.6l0-0.1h13.6l-0.6,5.2c1.7-4.2,4.4-5.9,7.5-5.9
	c5.5,0,10.2,6.3,9.2,14.9s-7.3,14.9-12.9,14.9c-3.1,0-5.4-1.7-6.1-5.9L864.7,427.7z M867,408.8c0.4,3.3,1.9,5.6,3.9,5.6
	c2.6,0,3.9-2.8,4.9-11l0.8-6.3c1-8.3,0.4-11-2.2-11c-2,0-4.1,2.4-5.3,5.6L867,408.8z"/>
<path fill="#FFFFFF" d="M884.7,414.6l4.6-0.1l5.1-41.2h-4.6l0-0.1h13.6l-5.1,41.3h4.6l0,0.1H884.7L884.7,414.6z"/>
<path fill="#FFFFFF" d="M914.5,400.3l-0.2,1.6c-1,7.9-1.2,12.6,4.6,12.6c5.2,0,9.2-3.7,11.4-9.8h0.1c-2.3,6.7-6.7,10.8-13.8,10.8
	c-7.2,0-12.8-7-11.8-14.9c1-8,8.3-14.9,15.5-14.9c7.3,0,12.3,6.8,11.3,14.9h-17.2L914.5,400.3L914.5,400.3z M915,396.5l-0.5,3.8h7.3
	c1.6-12.7,1.3-14.7-1.6-14.7C916.6,385.6,915.8,389.8,915,396.5L915,396.5z"/>
<path fill="#FFFFFF" d="M988.6,386.4H984l-12.8,29.2l-6.1-20.8l-9.1,20.7l-8.6-29.2h-4.6l0-0.1h33.4l0,0.1h-3.5l4.6,14.9l6.6-14.9
	h-4.6l0-0.1h9.3L988.6,386.4L988.6,386.4z M962.1,401.3l2.9-6.7l-2.4-8.3h-5.1L962.1,401.3z"/>
<path fill="#FFFFFF" d="M1018.6,414.6h-16.3l0-0.1h2.6l2.8-22.4c0.5-4.2,0.2-5.8-1.7-5.8c-2,0-4.1,2.4-5.3,5.6l-2.8,22.6h2.6l0,0.1
	h-16.3l0-0.1h4.6l5.1-41.2h-4.6l0-0.1h13.6l-2.2,18.2c1.7-4.2,4.4-5.9,7.5-5.9c6.4,0,8.6,4.7,7.9,10.5l-2.3,18.6H1018.6z"/>
<path fill="#FFFFFF" d="M1032.6,415.4c-7.2,0-13.4-7-12.5-14.9c1-8,8.9-14.9,16.1-14.9c7.2,0,13.4,6.9,12.5,14.9
	C1047.8,408.3,1039.8,415.4,1032.6,415.4z M1036.3,385.6c-4.5,0-5.4,6.7-6.4,14.8c-1,8.1-1.7,14.8,2.8,14.8c4.5,0,5.4-6.7,6.4-14.8
	C1040.1,392.3,1040.8,385.6,1036.3,385.6L1036.3,385.6z"/>
<path fill="#FFFFFF" d="M511.3,454.6h-4.6l-12.8,29.2l-6.1-20.8l-9.1,20.7l-8.6-29.2h-4.6l0-0.1H499l0,0.1h-3.5l4.6,14.9l6.6-14.9
	H502l0-0.1h9.3L511.3,454.6L511.3,454.6z M484.8,469.5l2.9-6.7l-2.4-8.3h-5.1L484.8,469.5L484.8,469.5z"/>
<path fill="#FFFFFF" d="M511.7,460.2c0.8-2.1,3.1-3.5,5.2-3.5c2.6,0,4.6,2.1,4.3,4.9c-0.3,2.6-2.7,4.9-5.4,4.9
	c-3.1,0-4.5-2.5-4.2-5.2c0-0.4,0.1-0.9,0.5-1.7c2.1-4.1,7.1-5.8,10.4-5.8c8.4,0,12.7,4.1,12,10l-1.8,14.9c-0.3,2.4,0.4,3.4,1.7,3.4
	c0.5,0,1.1-0.1,1.4-0.4c0.9-0.7,1.2-2,1.3-2.2h0.1c-0.7,2.1-2.2,4.2-5.6,4.2c-4.7,0-7.8-3-7.8-6.3c-0.6,2.4-2.7,6.3-8.8,6.3
	c-4.7,0-7.3-3.1-6.9-7.2c0.6-4.6,4.4-7.3,8.3-8.1c2.9-0.5,3.3-0.3,4.9-0.7c1.4-0.4,2.6-1.6,3.8-2.9l0.7-5.9c0.4-3.4-1-4.9-4.1-4.9
	C517.7,453.9,513,456.4,511.7,460.2L511.7,460.2z M525,464.8c-1.4,1.7-2.4,2.4-3.6,3c-1.8,0.9-3.5,2.5-3.8,5.2l-0.6,5.1
	c-0.3,2.8-0.3,4.3,1.4,4.3c2.5,0,4.9-3.4,5.1-5.4L525,464.8z"/>
<path fill="#FFFFFF" d="M571.7,482.8h-16.3l0-0.1h2.6l2.8-22.4c0.5-4.2,0.2-5.8-1.7-5.8c-2,0-4.1,2.4-5.3,5.6l-2.8,22.6h2.6l0,0.1
	h-16.3l0-0.1h4.6l3.5-28.2H541l0-0.1h13.6l-0.6,5.2c1.7-4.2,4.4-5.9,7.5-5.9c6.4,0,8.6,4.7,7.9,10.5l-2.3,18.6H571.7L571.7,482.8z"
	/>
<path fill="#FFFFFF" d="M587.2,454.5l-3,24.5c-0.2,1.6,0.3,2.8,1.6,2.8c1.8,0,2.4-2.1,2.6-3.9l0.8-6.3h0.1l-0.8,6.4
	c-0.4,3.3-2,5.5-6.1,5.5c-5.5,0-7.6-3.5-6.9-8.9l2.5-20.1h-4.5l0-0.1h1.4c6.7,0,12.4-4.2,13.4-11.9h0.1l-1.5,12.1l5.7-0.1l0,0.1
	L587.2,454.5L587.2,454.5z"/>
<path fill="#FFFFFF" d="M616.1,454.5l-3,24.5c-0.2,1.6,0.3,2.8,1.6,2.8c1.8,0,2.4-2.1,2.6-3.9l0.8-6.3h0.1l-0.8,6.4
	c-0.4,3.3-2,5.5-6.1,5.5c-5.5,0-7.6-3.5-6.9-8.9l2.5-20.1h-4.5l0-0.1h1.4c6.7,0,12.4-4.2,13.4-11.9h0.1l-1.5,12.1l5.7-0.1l0,0.1
	L616.1,454.5L616.1,454.5z"/>
<path fill="#FFFFFF" d="M633.4,483.6c-7.2,0-13.4-7-12.5-14.9c1-8,8.9-14.9,16.1-14.9c7.2,0,13.4,7,12.5,14.9
	C648.5,476.5,640.6,483.6,633.4,483.6z M637,453.8c-4.5,0-5.4,6.7-6.4,14.8c-1,8.1-1.7,14.8,2.8,14.8s5.4-6.7,6.4-14.8
	C640.8,460.5,641.5,453.8,637,453.8z"/>
<path fill="#FFFFFF" d="M681.7,441.5h-4.6l0-0.1h13.6l-5.1,41.3h4.6l0,0.1h-13.6l0.6-5.2c-1.7,4.2-4.4,5.9-7.5,5.9
	c-5.5,0-10.2-6.3-9.2-14.9c1.1-8.7,7.3-14.9,12.8-14.9c3.1,0,5.4,1.7,6.1,5.9L681.7,441.5L681.7,441.5z M679.4,460.1
	c-0.4-3.3-1.8-5.6-3.9-5.6c-2.6,0-3.9,2.8-4.9,11l-0.8,6.3c-1,8.3-0.4,11,2.2,11c2,0,4.1-2.4,5.3-5.6L679.4,460.1L679.4,460.1z"/>
<path fill="#FFFFFF" d="M695.5,460.2c0.8-2.1,3.1-3.5,5.2-3.5c2.6,0,4.6,2.1,4.3,4.9c-0.3,2.6-2.7,4.9-5.4,4.9
	c-3.1,0-4.5-2.5-4.2-5.2c0-0.4,0.1-0.9,0.5-1.7c2.1-4.1,7.1-5.8,10.4-5.8c8.4,0,12.7,4.1,12,10l-1.8,14.9c-0.3,2.4,0.4,3.4,1.7,3.4
	c0.5,0,1.1-0.1,1.4-0.4c0.9-0.7,1.2-2,1.3-2.2h0.1c-0.7,2.1-2.2,4.2-5.6,4.2c-4.7,0-7.8-3-7.8-6.3c-0.6,2.4-2.7,6.3-8.8,6.3
	c-4.7,0-7.3-3.1-6.9-7.2c0.6-4.6,4.4-7.3,8.3-8.1c2.9-0.5,3.3-0.3,4.9-0.7c1.4-0.4,2.6-1.6,3.8-2.9l0.7-5.9c0.4-3.4-1-4.9-4.1-4.9
	C701.5,453.9,696.9,456.4,695.5,460.2z M709,464.8c-1.4,1.7-2.4,2.4-3.6,3c-1.8,0.9-3.5,2.5-3.8,5.2l-0.6,5.1
	c-0.3,2.8-0.3,4.3,1.4,4.3c2.6,0,4.9-3.4,5.1-5.4L709,464.8z"/>
<path fill="#FFFFFF" d="M755.5,482.8h-16.3l0-0.1h2.6l2.8-22.4c0.5-4.2,0.2-5.8-1.7-5.8c-2,0-4.1,2.4-5.3,5.6l-2.8,22.6h2.6l0,0.1
	h-16.3l0-0.1h4.6l3.5-28.2h-4.6l0-0.1h13.6l-0.6,5.2c1.7-4.2,4.4-5.9,7.5-5.9c6.4,0,8.6,4.7,7.9,10.5l-2.3,18.6H755.5L755.5,482.8z"
	/>
<path fill="#FFFFFF" d="M767.1,468.7c-0.6,4.6-1.6,13.9,4.9,13.9c5.1,0,8.4-4.2,9.5-10.9h0.1c-1.1,6.8-4.5,11.8-11.9,11.8
	c-7.3,0-13.2-6.4-12.2-14.9c1-7.9,7.7-14.9,16.4-14.9c5.2,0,7.6,2.5,8.2,5.8c0.2,0.8,0.1,1.3,0.1,1.7c-0.3,2.8-2.3,5.2-5.5,5.2
	c-2.6,0-4.6-2.1-4.3-4.9c0.3-2.6,2.7-4.9,5.4-4.9c2.1,0,3.9,1.6,4.2,3.5c-0.3-2.9-2.1-6.3-7.2-6.3
	C769.6,453.9,768.1,460.5,767.1,468.7L767.1,468.7z"/>
<path fill="#FFFFFF" d="M793.2,468.5l-0.2,1.6c-1,7.9-1.2,12.6,4.6,12.6c5.2,0,9.2-3.7,11.4-9.8h0.1c-2.3,6.7-6.7,10.8-13.8,10.8
	c-7.2,0-12.8-7-11.8-14.9c1-8,8.3-14.9,15.5-14.9c7.3,0,12.3,6.8,11.3,14.9h-17.2L793.2,468.5z M793.7,464.7l-0.5,3.8h7.3
	c1.6-12.7,1.3-14.7-1.6-14.7C795.3,453.8,794.5,458.1,793.7,464.7L793.7,464.7z"/>
<path fill="#FFFFFF" d="M815,486.6c4.5-0.8,6.4-3,6.7-6.8c-0.4,2.1-2.5,3.5-4.7,3.5c-2.6,0-4.9-2.1-4.9-4.9c0-2.6,2.1-4.9,4.9-4.9
	c3.1,0,4.9,2.5,4.9,5.2C821.9,482.8,820.1,485.9,815,486.6L815,486.6z"/>
<path fill="#FFFFFF" d="M845.6,482.6h5l0,0.1h-19.5l0-0.1h5l4.8-39.5h-5l0-0.1h19.5l0,0.1h-5L845.6,482.6z"/>
<path fill="#FFFFFF" d="M909.7,454.6h-4.6l-12.8,29.2l-6.1-20.7l-9.1,20.7l-8.6-29.2h-4.6l0-0.1h33.4l0,0.1h-3.7l4.6,14.9l6.6-14.9
	h-4.6l0-0.1h9.3l0,0.1H909.7L909.7,454.6z M883.2,469.5l2.9-6.7l-2.4-8.3h-5.1L883.2,469.5L883.2,469.5z"/>
<path fill="#FFFFFF" d="M910,460.2c0.8-2.1,3.1-3.5,5.2-3.5c2.6,0,4.6,2.1,4.3,4.9c-0.3,2.6-2.7,4.9-5.4,4.9c-3.1,0-4.5-2.5-4.2-5.2
	c0-0.4,0.1-0.9,0.5-1.7c2.1-4.1,7.1-5.8,10.4-5.8c8.4,0,12.7,4.1,12,10l-1.8,14.9c-0.3,2.4,0.4,3.4,1.7,3.4c0.5,0,1.1-0.1,1.4-0.4
	c0.9-0.7,1.2-2,1.3-2.2h0.1c-0.7,2.1-2.2,4.2-5.6,4.2c-4.7,0-7.8-3-7.8-6.3c-0.6,2.4-2.7,6.3-8.8,6.3c-4.7,0-7.4-3.1-6.9-7.2
	c0.6-4.6,4.4-7.3,8.3-8.1c2.9-0.5,3.3-0.3,4.9-0.7c1.4-0.4,2.6-1.6,3.8-2.9l0.7-5.9c0.4-3.4-1-4.9-4.1-4.9
	C916,453.9,911.4,456.4,910,460.2L910,460.2z M923.4,464.8c-1.4,1.7-2.4,2.4-3.6,3c-1.8,0.9-3.5,2.5-3.8,5.2l-0.6,5.1
	c-0.3,2.8-0.3,4.3,1.4,4.3c2.6,0,4.9-3.4,5.1-5.4L923.4,464.8z"/>
<path fill="#FFFFFF" d="M970.1,482.8h-16.3l0-0.1h2.6l2.8-22.4c0.5-4.2,0.2-5.8-1.7-5.8c-2,0-4.1,2.4-5.3,5.6l-2.8,22.6h2.6l0,0.1
	h-16.3l0-0.1h4.6l3.5-28.2h-4.6l0-0.1H953l-0.6,5.2c1.7-4.2,4.4-5.9,7.5-5.9c6.4,0,8.6,4.7,7.9,10.5l-2.3,18.6H970.1z"/>
<path fill="#FFFFFF" d="M985.6,454.5l-3,24.5c-0.2,1.6,0.3,2.8,1.6,2.8c1.8,0,2.4-2.1,2.6-3.9l0.8-6.3h0.1l-0.8,6.4
	c-0.4,3.3-2,5.5-6.1,5.5c-5.5,0-7.6-3.5-6.9-8.9l2.5-20.1H972l0-0.1h1.4c6.7,0,12.4-4.2,13.4-11.9h0.1l-1.5,12.1l5.7-0.1l0,0.1
	L985.6,454.5L985.6,454.5z"/>
<path fill="#FFFFFF" d="M1009.8,495.9h4.6l0,0.1h-18.2l0-0.1h4.6l5.1-41.3h-4.6l0-0.1h13.6l-0.6,5.2c1.7-4.2,4.4-5.9,7.5-5.9
	c5.5,0,10.2,6.3,9.2,14.9s-7.3,14.9-12.9,14.9c-3.1,0-5.4-1.7-6.1-5.9L1009.8,495.9L1009.8,495.9z M1012.1,477
	c0.4,3.3,1.9,5.6,3.9,5.6c2.6,0,3.9-2.8,4.9-11l0.8-6.3c1-8.3,0.4-11-2.2-11c-2,0-4.1,2.4-5.3,5.6L1012.1,477L1012.1,477z"/>
<path fill="#FFFFFF" d="M1043,468.5l-0.2,1.6c-1,7.9-1.2,12.6,4.6,12.6c5.2,0,9.2-3.7,11.4-9.8h0.1c-2.3,6.7-6.7,10.8-13.8,10.8
	c-7.2,0-12.8-7-11.8-14.9c1-8,8.3-14.9,15.5-14.9c7.3,0,12.3,6.8,11.3,14.9H1043L1043,468.5z M1043.5,464.7l-0.5,3.8h7.3
	c1.6-12.7,1.3-14.7-1.6-14.7C1045.1,453.8,1044.3,458.1,1043.5,464.7L1043.5,464.7z"/>
<path fill="#FFFFFF" d="M1074.3,483.6c-7.2,0-13.4-7-12.5-14.9c1-8,8.9-14.9,16.1-14.9c7.2,0,13.4,7,12.5,14.9
	C1089.5,476.5,1081.5,483.6,1074.3,483.6z M1078,453.8c-4.5,0-5.4,6.7-6.4,14.8c-1,8.1-1.7,14.8,2.8,14.8c4.5,0,5.4-6.7,6.4-14.8
	S1082.4,453.8,1078,453.8z"/>
<path fill="#FFFFFF" d="M1101,495.9h4.6l0,0.1h-18.2l0-0.1h4.6l5.1-41.3h-4.6l0-0.1h13.6l-0.6,5.2c1.7-4.2,4.4-5.9,7.5-5.9
	c5.5,0,10.2,6.3,9.2,14.9s-7.3,14.9-12.9,14.9c-3.1,0-5.4-1.7-6.1-5.9L1101,495.9L1101,495.9z M1103.3,477c0.4,3.3,1.9,5.6,3.9,5.6
	c2.6,0,3.9-2.8,4.9-11l0.8-6.3c1-8.3,0.4-11-2.2-11c-2,0-4.1,2.4-5.3,5.6L1103.3,477L1103.3,477z"/>
<path fill="#FFFFFF" d="M1121,482.8l4.6-0.1l5.1-41.2h-4.6l0-0.1h13.6l-5.1,41.3h4.6l0,0.1H1121L1121,482.8z"/>
<path fill="#FFFFFF" d="M1150.8,468.5l-0.2,1.6c-1,7.9-1.2,12.6,4.6,12.6c5.2,0,9.2-3.7,11.4-9.8h0.1c-2.3,6.7-6.7,10.8-13.8,10.8
	c-7.2,0-12.8-7-11.8-14.9c1-8,8.3-14.9,15.5-14.9c7.3,0,12.3,6.8,11.3,14.9h-17.2L1150.8,468.5z M1151.3,464.7l-0.5,3.8h7.3
	c1.6-12.7,1.3-14.7-1.6-14.7C1152.9,453.8,1152.1,458.1,1151.3,464.7L1151.3,464.7z"/>
<path fill="#FFFFFF" d="M510.6,522.8H506L493.2,552l-6.1-20.8l-9.1,20.7l-8.6-29.2h-4.6l0-0.1h33.4l0,0.1h-3.5l4.6,14.9l6.6-14.9
	h-4.6l0-0.1h9.3L510.6,522.8L510.6,522.8z M484.1,537.7l2.9-6.7l-2.4-8.3h-5.1C479.5,522.8,484.1,537.7,484.1,537.7z"/>
<path fill="#FFFFFF" d="M540.5,551h-16.3l0-0.1h2.6l2.8-22.4c0.5-4.2,0.2-5.8-1.7-5.8c-2,0-4.1,2.4-5.3,5.6l-2.8,22.6h2.6l0,0.1
	h-16.3l0-0.1h4.6l5.1-41.2h-4.6l0-0.1H525l-2.2,18.2c1.7-4.2,4.4-5.9,7.5-5.9c6.4,0,8.6,4.7,7.9,10.5l-2.3,18.6L540.5,551L540.5,551
	z"/>
<path fill="#FFFFFF" d="M554.7,551.7c-7.2,0-13.4-7-12.5-14.9c1-8,8.9-14.9,16.1-14.9s13.4,7,12.5,14.9
	C569.8,544.7,561.9,551.7,554.7,551.7z M558.4,522c-4.5,0-5.4,6.7-6.4,14.8c-1,8.1-1.7,14.8,2.8,14.8s5.4-6.7,6.4-14.8
	C562.1,528.7,562.7,522,558.4,522z"/>
<path fill="#FFFFFF" d="M614,551h-16.3l0-0.1h2.6l2.8-22.4c0.5-4.2,0.2-5.8-1.7-5.8c-2,0-4.1,2.4-5.3,5.6l-2.8,22.6h2.6l0,0.1h-16.3
	l0-0.1h4.6l5.1-41.2h-4.6l0-0.1h13.6l-2.2,18.2c1.7-4.2,4.4-5.9,7.5-5.9c6.4,0,8.6,4.7,7.9,10.5l-2.3,18.6L614,551L614,551z"/>
<path fill="#FFFFFF" d="M619.2,528.4c0.8-2.1,3.1-3.5,5.2-3.5c2.6,0,4.6,2.1,4.3,4.9c-0.3,2.6-2.7,4.9-5.4,4.9
	c-3.1,0-4.5-2.5-4.2-5.2c0-0.4,0.1-0.9,0.5-1.7c2.1-4.1,7.1-5.8,10.4-5.8c8.4,0,12.7,4.1,12,10l-1.8,14.9c-0.3,2.4,0.4,3.4,1.7,3.4
	c0.5,0,1.1-0.1,1.4-0.4c0.9-0.7,1.2-2,1.3-2.2h0.1c-0.7,2.1-2.2,4.2-5.6,4.2c-4.7,0-7.8-3-7.8-6.3c-0.6,2.4-2.7,6.3-8.8,6.3
	c-4.7,0-7.4-3.1-6.9-7.2c0.6-4.6,4.4-7.3,8.3-8.1c2.9-0.5,3.3-0.3,4.9-0.7c1.4-0.4,2.6-1.6,3.8-2.9l0.7-5.9c0.4-3.4-1-4.9-4.1-4.9
	C625.1,522.1,620.5,524.6,619.2,528.4L619.2,528.4z M632.6,533c-1.4,1.7-2.4,2.4-3.6,3c-1.8,0.9-3.5,2.5-3.8,5.2l-0.6,5.1
	c-0.3,2.8-0.3,4.3,1.4,4.3c2.6,0,4.9-3.4,5.1-5.4L632.6,533L632.6,533z"/>
<path fill="#FFFFFF" d="M674.1,522.6h-4.6l-12.8,29.2l-8.6-29.2h-4.6l0-0.1h18.2l0,0.1h-3.7l4.6,14.9l6.6-14.9h-4.6l0-0.1
	L674.1,522.6z"/>
<path fill="#FFFFFF" d="M680.1,536.7l-0.2,1.6c-1,7.9-1.2,12.6,4.6,12.6c5.2,0,9.2-3.7,11.4-9.8h0.1c-2.3,6.7-6.7,10.8-13.8,10.8
	c-7.2,0-12.8-7-11.8-14.9c1-8,8.3-14.9,15.5-14.9c7.3,0,12.3,6.8,11.3,14.9h-17.2L680.1,536.7z M680.6,532.9l-0.5,3.8h7.3
	c1.6-12.7,1.3-14.7-1.6-14.7C682.3,522,681.4,526.3,680.6,532.9z"/>
<path fill="#FFFFFF" d="M722.3,522.6l-3,24.5c-0.2,1.6,0.3,2.8,1.6,2.8c1.8,0,2.4-2.1,2.6-3.9l0.8-6.3h0.1l-0.8,6.4
	c-0.4,3.3-2,5.5-6.1,5.5c-5.5,0-7.6-3.5-6.9-8.9l2.5-20.1h-4.5l0-0.1h1.4c6.7,0,12.5-4.3,13.4-11.9h0.1l-1.5,12.1l5.7-0.1l0,0.1
	L722.3,522.6L722.3,522.6z"/>
<path fill="#FFFFFF" d="M739.6,551.7c-7.2,0-13.4-7-12.5-14.9c1-8,8.9-14.9,16.1-14.9c7.2,0,13.4,7,12.5,14.9
	C754.8,544.7,746.8,551.7,739.6,551.7z M743.3,522c-4.5,0-5.4,6.7-6.4,14.8c-1,8.1-1.7,14.8,2.8,14.8s5.4-6.7,6.4-14.8
	C747,528.7,747.7,522,743.3,522z"/>
<path fill="#FFFFFF" d="M787.9,509.8h-4.6l0-0.1H797l-5.1,41.3h4.6l0,0.1h-13.6l0.6-5.2c-1.7,4.2-4.4,6-7.6,6
	c-5.5,0-10.2-6.3-9.2-14.9c1.1-8.7,7.3-14.9,12.9-14.9c3.1,0,5.4,1.7,6.1,5.9L787.9,509.8L787.9,509.8z M785.6,528.3
	c-0.4-3.3-1.8-5.6-3.9-5.6c-2.6,0-3.9,2.8-4.9,11l-0.8,6.3c-1,8.3-0.4,11,2.2,11c2,0,4.1-2.4,5.3-5.6L785.6,528.3L785.6,528.3z"/>
<path fill="#FFFFFF" d="M801.7,528.4c0.8-2.1,3.1-3.5,5.2-3.5c2.6,0,4.6,2.1,4.3,4.9c-0.3,2.6-2.7,4.9-5.4,4.9
	c-3.1,0-4.5-2.5-4.2-5.2c0-0.4,0.1-0.9,0.5-1.7c2.1-4.1,7.1-5.8,10.4-5.8c8.4,0,12.7,4.1,12,10l-1.8,14.9c-0.3,2.4,0.4,3.4,1.7,3.4
	c0.5,0,1.1-0.1,1.4-0.4c0.9-0.7,1.2-2,1.3-2.2h0.1c-0.7,2.1-2.2,4.2-5.6,4.2c-4.7,0-7.8-3-7.8-6.3c-0.6,2.4-2.7,6.3-8.8,6.3
	c-4.7,0-7.4-3.1-6.9-7.2c0.6-4.6,4.4-7.3,8.3-8.1c2.9-0.5,3.3-0.3,4.9-0.7c1.4-0.4,2.6-1.6,3.8-2.9l0.7-5.9c0.4-3.4-1-4.9-4.1-4.9
	C807.8,522.1,803.1,524.6,801.7,528.4z M815.1,533c-1.4,1.7-2.4,2.4-3.6,3c-1.8,0.9-3.5,2.5-3.8,5.2l-0.6,5.1
	c-0.3,2.8-0.3,4.3,1.4,4.3c2.6,0,4.9-3.4,5.1-5.4L815.1,533L815.1,533z"/>
<path fill="#FFFFFF" d="M861.7,551h-16.3l0-0.1h2.6l2.8-22.4c0.5-4.2,0.2-5.8-1.7-5.8c-2,0-4.1,2.4-5.3,5.6l-2.8,22.6h2.6l0,0.1
	h-16.3l0-0.1h4.6l3.5-28.2h-4.6l0-0.1h13.6l-0.6,5.2c1.7-4.2,4.4-5.9,7.5-5.9c6.4,0,8.6,4.7,7.9,10.5l-2.3,18.6H861.7L861.7,551z"/>
<path fill="#FFFFFF" d="M873.3,536.9c-0.6,4.6-1.6,13.9,4.8,13.9c5.1,0,8.4-4.2,9.5-10.9h0.1c-1.1,6.8-4.5,11.8-11.9,11.8
	c-7.3,0-13.2-6.4-12.2-14.9c1-7.9,7.7-14.9,16.4-14.9c5.2,0,7.6,2.5,8.2,5.8c0.2,0.8,0.1,1.3,0.1,1.7c-0.3,2.8-2.4,5.2-5.5,5.2
	c-2.6,0-4.6-2.1-4.3-4.9c0.3-2.6,2.7-4.9,5.4-4.9c2.1,0,3.9,1.6,4.2,3.5c-0.3-2.9-2.1-6.3-7.2-6.3
	C875.8,522.1,874.4,528.7,873.3,536.9L873.3,536.9z"/>
<path fill="#FFFFFF" d="M899.5,536.7l-0.2,1.6c-1,7.9-1.2,12.6,4.6,12.6c5.2,0,9.2-3.7,11.4-9.8h0.1c-2.3,6.7-6.7,10.8-13.8,10.8
	c-7.2,0-12.8-7-11.8-14.9c1-8,8.3-14.9,15.5-14.9c7.3,0,12.3,6.8,11.3,14.9h-17.2L899.5,536.7L899.5,536.7z M899.9,532.9l-0.5,3.8
	h7.3c1.6-12.7,1.3-14.7-1.6-14.7C901.5,522,900.7,526.3,899.9,532.9z"/>
<path fill="#FFFFFF" d="M922.3,541.9c2.6,0,4.5,2.1,4.1,4.7c-0.3,2.6-2.7,4.9-5.3,4.9c-2.6,0-4.6-2.1-4.3-4.9
	C917.2,544,919.7,541.9,922.3,541.9z"/>
<path fill="#333333" d="M377,359.1c0-11.5,7.9-29.6,28.7-40.1l2.8,4.5c-14.3,10-18.1,22.4-18.4,28.3c5.4,0.7,10.6,5.8,10.6,11.3
	c0,6.4-5.5,11.3-11.3,11.3C382.8,374.5,377,369.1,377,359.1L377,359.1z M414.2,359.1c0-11.5,7.9-29.6,28.7-40.1l2.8,4.5
	c-14.3,10-18.1,22.4-18.4,28.3c5.4,0.7,10.6,5.8,10.6,11.3c0,6.4-5.5,11.3-11.3,11.3C420,374.5,414.2,369.1,414.2,359.1L414.2,359.1
	z"/>
</svg>
