<?xml version="1.0" encoding="utf-8"?>
<!-- Generator: Adobe Illustrator 18.1.0, SVG Export Plug-In . SVG Version: 6.00 Build 0)  -->
<svg version="1.1" id="btn-dwn_1_" xmlns="http://www.w3.org/2000/svg" xmlns:xlink="http://www.w3.org/1999/xlink" x="0px" y="0px"
	 width="74px" height="74px" viewBox="0 0 74 74" enable-background="new 0 0 74 74" xml:space="preserve">
<g id="circle">
	<g>
		<path fill="#FFFFFF" d="M37,2c19.3,0,35,15.7,35,35c0,19.3-15.7,35-35,35S2,56.3,2,37C2,17.7,17.7,2,37,2 M37,0
			C16.6,0,0,16.6,0,37c0,20.4,16.6,37,37,37s37-16.6,37-37C74,16.6,57.4,0,37,0L37,0z"/>
	</g>
</g>
<polygon fill="#FFFFFF" points="55.9,31.8 54.2,30.1 37.9,46.5 19.9,30.1 18.1,31.8 37.9,49.9 "/>
</svg>
